<svg xmlns="http://www.w3.org/2000/svg" xmlns:xlink="http://www.w3.org/1999/xlink" width="1584" zoomAndPan="magnify" viewBox="0 0 1188 296.999993" height="396" preserveAspectRatio="xMidYMid meet" version="1.0"><defs><filter x="0%" y="0%" width="100%" height="100%" id="94eb27df43"><feColorMatrix values="0 0 0 0 1 0 0 0 0 1 0 0 0 0 1 0 0 0 1 0" color-interpolation-filters="sRGB"/></filter><mask id="33008761fb"><g filter="url(#94eb27df43)"><rect x="-118.8" width="1425.6" fill="#000000" y="-29.699999" height="356.399992" fill-opacity="0.04"/></g></mask><clipPath id="de8eb054de"><path d="M 670 0 L 958 0 L 958 199 L 670 199 Z M 670 0 " clip-rule="nonzero"/></clipPath><clipPath id="7c03c551a0"><path d="M 238 135 L 444 135 L 444 297 L 238 297 Z M 238 135 " clip-rule="nonzero"/></clipPath><clipPath id="91268ffb4c"><path d="M 0.640625 0 L 140 0 L 140 70 L 0.640625 70 Z M 0.640625 0 " clip-rule="nonzero"/></clipPath><clipPath id="4a465c150f"><rect x="0" width="958" y="0" height="297"/></clipPath></defs><g mask="url(#33008761fb)"><g transform="matrix(1, 0, 0, 1, 230, 0)"><g clip-path="url(#4a465c150f)"><g clip-path="url(#de8eb054de)"><path fill="#606060" d="M 955.691406 198.808594 L 754.660156 198.808594 C 708.011719 198.808594 670.042969 160.84375 670.042969 114.191406 L 670.042969 -86.839844 C 670.042969 -133.488281 708.011719 -171.457031 754.664062 -171.457031 L 955.691406 -171.457031 C 1002.34375 -171.457031 1040.308594 -133.488281 1040.308594 -86.839844 L 1040.308594 114.191406 C 1040.308594 160.84375 1002.34375 198.808594 955.691406 198.808594 Z M 754.660156 -160.410156 C 714.113281 -160.410156 681.089844 -127.421875 681.089844 -86.839844 L 681.089844 114.191406 C 681.089844 154.738281 714.078125 187.765625 754.660156 187.765625 L 955.691406 187.765625 C 996.238281 187.765625 1029.265625 154.773438 1029.265625 114.191406 L 1029.265625 -86.839844 C 1029.265625 -127.386719 996.273438 -160.410156 955.691406 -160.410156 Z M 754.660156 -160.410156 " fill-opacity="1" fill-rule="nonzero"/></g><g clip-path="url(#7c03c551a0)"><path fill="#606060" d="M 395.332031 340.835938 L 286.515625 340.835938 C 259.847656 340.835938 238.15625 319.144531 238.15625 292.476562 L 238.15625 183.660156 C 238.15625 156.992188 259.847656 135.300781 286.515625 135.300781 L 395.332031 135.300781 C 422 135.300781 443.691406 156.992188 443.691406 183.660156 L 443.691406 292.476562 C 443.652344 319.144531 422 340.835938 395.332031 340.835938 Z M 286.515625 146.382812 C 265.949219 146.382812 249.238281 163.09375 249.238281 183.660156 L 249.238281 292.476562 C 249.238281 313.039062 265.949219 329.753906 286.515625 329.753906 L 395.332031 329.753906 C 415.894531 329.753906 432.609375 313.039062 432.609375 292.476562 L 432.609375 183.660156 C 432.609375 163.09375 415.894531 146.382812 395.332031 146.382812 Z M 286.515625 146.382812 " fill-opacity="1" fill-rule="nonzero"/></g><g clip-path="url(#91268ffb4c)"><path fill="#606060" d="M 105.46875 69.972656 L 34.257812 69.972656 C 15.761719 69.972656 0.722656 54.933594 0.722656 36.4375 L 0.722656 -34.773438 C 0.722656 -53.265625 15.761719 -68.308594 34.257812 -68.308594 L 105.46875 -68.308594 C 123.960938 -68.308594 139.003906 -53.265625 139.003906 -34.773438 L 139.003906 36.4375 C 139.003906 54.933594 123.960938 69.972656 105.46875 69.972656 Z M 34.257812 -57.261719 C 21.867188 -57.261719 11.765625 -47.164062 11.765625 -34.773438 L 11.765625 36.4375 C 11.765625 48.828125 21.867188 58.929688 34.257812 58.929688 L 105.46875 58.929688 C 117.859375 58.929688 127.957031 48.828125 127.957031 36.4375 L 127.957031 -34.773438 C 127.957031 -47.164062 117.859375 -57.261719 105.46875 -57.261719 Z M 34.257812 -57.261719 " fill-opacity="1" fill-rule="nonzero"/></g></g></g></g></svg>