<svg width="1153" height="888" viewBox="0 0 1153 888" fill="none" xmlns="http://www.w3.org/2000/svg">
<g clip-path="url(#clip0_136_1623)">
<path d="M946.675 213.197C951.328 194.218 946.904 172.085 931.871 159.601C931.577 180.849 923.777 201.308 909.851 217.358C904.458 223.529 897.816 229.831 897.555 238.022C897.392 243.118 899.88 248.014 903.309 251.788C906.737 255.563 911.062 258.388 915.336 261.17L915.964 262.277C929.721 248.4 942.022 232.175 946.675 213.197Z" fill="#F0F0F0"/>
<path d="M931.569 159.878C937.334 174.99 938.192 191.534 934.019 207.161C933.181 210.541 931.815 213.767 929.971 216.722C928.083 219.542 925.473 221.805 922.414 223.276C919.59 224.704 916.535 225.838 914.107 227.929C912.88 229.017 911.897 230.353 911.222 231.848C910.547 233.343 910.196 234.963 910.192 236.604C910.074 240.69 911.433 244.575 912.893 248.329C914.514 252.496 916.264 256.798 915.889 261.361C915.844 261.914 916.704 261.952 916.749 261.4C917.401 253.462 912.01 246.757 911.155 239.058C910.756 235.465 911.438 231.73 914.094 229.111C916.417 226.821 919.566 225.648 922.438 224.227C925.443 222.836 928.062 220.73 930.066 218.094C932.054 215.243 933.542 212.074 934.467 208.723C936.669 201.214 937.676 193.404 937.452 185.581C937.247 176.652 935.515 167.823 932.332 159.478C932.134 158.961 931.373 159.365 931.569 159.878Z" fill="white"/>
<path d="M935.659 202.208C938.376 202.552 941.127 201.919 943.42 200.423C945.713 198.926 947.4 196.663 948.179 194.037C948.334 193.505 947.515 193.238 947.359 193.771C946.639 196.217 945.067 198.325 942.929 199.715C940.791 201.104 938.226 201.683 935.698 201.348C935.149 201.275 935.113 202.136 935.659 202.208Z" fill="white"/>
<path d="M923.942 222.74C920.473 218.346 918.787 212.807 919.221 207.225C919.265 206.672 918.404 206.634 918.361 207.186C917.92 212.995 919.686 218.757 923.306 223.321C923.651 223.756 924.285 223.173 923.942 222.74Z" fill="white"/>
<path d="M936.209 177.13C935.13 177.215 934.047 177.032 933.056 176.596C932.066 176.159 931.199 175.484 930.534 174.63C930.195 174.191 929.561 174.775 929.898 175.211C930.637 176.151 931.595 176.896 932.689 177.38C933.782 177.865 934.977 178.074 936.17 177.99C936.283 177.991 936.393 177.95 936.476 177.873C936.56 177.797 936.611 177.692 936.62 177.579C936.625 177.465 936.584 177.354 936.507 177.27C936.43 177.186 936.323 177.135 936.209 177.13Z" fill="white"/>
<path d="M866.861 171.887C867.065 172.167 867.269 172.447 867.471 172.735C870.199 176.515 872.614 180.51 874.694 184.682C874.86 185.002 875.023 185.329 875.18 185.653C880.084 195.756 883.07 206.683 883.985 217.876C884.346 222.331 884.366 226.806 884.048 231.264C883.607 237.42 882.639 244.06 884.212 249.832C884.369 250.436 884.564 251.03 884.795 251.61L914.564 262.957C914.644 262.949 914.723 262.947 914.804 262.939L915.971 263.447C916.004 263.218 916.033 262.98 916.065 262.751C916.085 262.619 916.097 262.484 916.117 262.351C916.128 262.262 916.138 262.172 916.153 262.093C916.157 262.063 916.16 262.033 916.161 262.01C916.176 261.93 916.182 261.854 916.194 261.781C916.358 260.452 916.514 259.119 916.66 257.782C916.663 257.775 916.663 257.775 916.659 257.766C917.873 247.592 917.875 237.31 916.666 227.136C916.626 226.833 916.589 226.523 916.535 226.215C915.909 221.676 914.914 217.197 913.558 212.821C912.808 210.427 911.937 208.072 910.949 205.767C908.385 199.814 904.9 194.301 900.623 189.431C892.095 179.724 880.557 172.853 867.834 171.947C867.508 171.924 867.189 171.903 866.861 171.887Z" fill="#F0F0F0"/>
<path d="M866.784 172.291C880.486 180.885 891.131 193.579 897.208 208.568C898.573 211.771 899.425 215.17 899.732 218.639C899.922 222.028 899.201 225.406 897.644 228.422C896.249 231.263 894.493 234.008 893.812 237.139C893.488 238.746 893.507 240.405 893.869 242.005C894.23 243.604 894.925 245.11 895.909 246.422C898.276 249.756 901.7 252.04 905.125 254.158C908.929 256.509 912.916 258.891 915.364 262.759C915.661 263.228 916.37 262.74 916.074 262.272C911.816 255.542 903.474 253.434 898.156 247.801C895.675 245.173 893.97 241.781 894.514 238.09C894.99 234.863 896.798 232.031 898.236 229.167C899.798 226.247 900.621 222.989 900.634 219.677C900.504 216.204 899.785 212.778 898.506 209.546C895.742 202.224 891.845 195.382 886.957 189.271C881.416 182.265 874.718 176.259 867.152 171.512C866.683 171.218 866.319 171.999 866.784 172.291Z" fill="white"/>
<path d="M895.535 203.626C897.911 202.265 899.727 200.104 900.656 197.528C901.586 194.952 901.57 192.13 900.611 189.564C900.416 189.046 899.601 189.326 899.797 189.845C900.694 192.232 900.709 194.861 899.838 197.258C898.967 199.655 897.268 201.662 895.048 202.916C894.566 203.189 895.055 203.898 895.535 203.626Z" fill="white"/>
<path d="M898.541 227.074C893.126 225.655 888.445 222.246 885.431 217.529C885.133 217.061 884.423 217.548 884.72 218.016C887.866 222.919 892.745 226.456 898.383 227.921C898.921 228.06 899.076 227.213 898.541 227.074Z" fill="white"/>
<path d="M880.876 183.271C880.066 183.989 879.09 184.495 878.037 184.743C876.983 184.991 875.884 184.973 874.839 184.692C874.304 184.546 874.149 185.394 874.681 185.539C875.837 185.844 877.051 185.862 878.215 185.591C879.38 185.319 880.461 184.767 881.362 183.981C881.454 183.914 881.516 183.815 881.537 183.704C881.557 183.593 881.535 183.478 881.474 183.383C881.409 183.289 881.31 183.225 881.198 183.204C881.086 183.183 880.97 183.207 880.876 183.271Z" fill="white"/>
<path d="M827.5 600.587C727.696 600.587 646.5 519.39 646.5 419.587C646.5 319.783 727.696 238.587 827.5 238.587C838.051 238.585 848.583 239.498 858.977 241.314C859.107 241.337 859.23 241.384 859.342 241.455C859.453 241.525 859.549 241.617 859.625 241.724C859.7 241.832 859.754 241.953 859.783 242.081C859.811 242.21 859.815 242.343 859.792 242.472C859.769 242.602 859.721 242.725 859.65 242.836C859.58 242.947 859.488 243.043 859.38 243.119C859.272 243.194 859.151 243.248 859.022 243.276C858.894 243.304 858.761 243.307 858.632 243.284C848.352 241.488 837.936 240.586 827.5 240.587C728.799 240.587 648.5 320.885 648.5 419.587C648.5 518.288 728.799 598.587 827.5 598.587C926.201 598.587 1006.5 518.288 1006.5 419.587C1006.54 374.975 989.886 331.962 959.805 299.018C959.628 298.822 959.536 298.563 959.549 298.299C959.562 298.035 959.679 297.787 959.874 297.609C960.069 297.431 960.327 297.338 960.591 297.349C960.855 297.36 961.104 297.476 961.283 297.67C991.7 330.983 1008.54 374.476 1008.5 419.587C1008.5 519.39 927.304 600.587 827.5 600.587Z" fill="#E4E4E4"/>
<path d="M907.308 300.663C927.085 300.663 943.119 284.63 943.119 264.852C943.119 245.074 927.085 229.041 907.308 229.041C887.53 229.041 871.497 245.074 871.497 264.852C871.497 284.63 887.53 300.663 907.308 300.663Z" fill="#6C63FF"/>
<path d="M822.843 391.498L767.62 237.867L769.02 237.363L758.864 209.107L757.463 209.61L740.507 162.441C739.874 160.679 738.9 159.06 737.641 157.674C736.382 156.289 734.862 155.165 733.168 154.367C731.475 153.569 729.641 153.113 727.771 153.024C725.901 152.934 724.032 153.215 722.27 153.848L622.437 189.733C620.676 190.366 619.056 191.34 617.671 192.599C616.285 193.859 615.161 195.378 614.363 197.072C613.565 198.765 613.109 200.599 613.02 202.469C612.93 204.339 613.21 206.209 613.844 207.97L625.666 240.86L623.453 241.712L631 261.309L632.771 260.627L634.338 264.986L632.453 265.712L640 285.309L641.444 284.753L696.18 437.027C696.81 438.791 697.782 440.413 699.041 441.8C700.299 443.187 701.82 444.313 703.514 445.111C705.208 445.909 707.044 446.365 708.915 446.453C710.786 446.54 712.656 446.258 714.417 445.621L814.249 409.736C817.805 408.453 820.706 405.812 822.317 402.393C823.928 398.974 824.117 395.056 822.843 391.498Z" fill="#3F3D56"/>
<path d="M709.167 440.557C707.761 440.554 706.391 440.118 705.241 439.309C704.092 438.499 703.219 437.355 702.743 436.033L619.538 204.559C618.926 202.854 619.015 200.975 619.787 199.337C620.56 197.698 621.951 196.433 623.656 195.82L644.897 188.185L644.865 188.928C644.811 190.218 645.074 191.502 645.633 192.666C646.191 193.83 647.028 194.839 648.068 195.604C649.108 196.369 650.321 196.866 651.598 197.052C652.876 197.238 654.18 197.107 655.395 196.67L702.536 179.725C703.674 179.204 704.673 178.422 705.452 177.443C706.232 176.464 706.77 175.315 707.024 174.089C707.274 172.884 707.236 171.636 706.913 170.448C706.589 169.261 705.99 168.166 705.163 167.254L704.665 166.701L726.606 158.814C728.311 158.203 730.189 158.294 731.827 159.066C733.465 159.838 734.731 161.228 735.345 162.932L814.73 383.778C816.35 388.302 816.109 393.284 814.061 397.631C812.013 401.978 808.324 405.335 803.803 406.966L711.482 440.151C710.74 440.419 709.956 440.556 709.167 440.557Z" fill="white"/>
<path d="M701.033 276.377C715.945 276.377 728.033 264.289 728.033 249.377C728.033 234.466 715.945 222.377 701.033 222.377C686.122 222.377 674.033 234.466 674.033 249.377C674.033 264.289 686.122 276.377 701.033 276.377Z" fill="#6C63FF"/>
<path d="M767.939 288.642L674.437 322.252C674.145 322.357 673.835 322.404 673.524 322.39C673.214 322.376 672.91 322.301 672.629 322.168C672.347 322.036 672.095 321.85 671.886 321.62C671.677 321.391 671.515 321.122 671.41 320.83C671.305 320.537 671.259 320.227 671.274 319.917C671.289 319.607 671.365 319.303 671.497 319.022C671.63 318.741 671.817 318.489 672.047 318.281C672.277 318.072 672.546 317.911 672.839 317.807L766.341 284.197C766.93 283.987 767.578 284.019 768.144 284.286C768.709 284.553 769.145 285.034 769.357 285.622C769.568 286.211 769.538 286.859 769.272 287.425C769.006 287.991 768.527 288.429 767.939 288.642Z" fill="#E6E6E6"/>
<path d="M740.172 309.952L709.417 321.007C709.125 321.113 708.815 321.16 708.504 321.145C708.194 321.131 707.89 321.056 707.609 320.924C707.328 320.791 707.075 320.605 706.866 320.375C706.657 320.146 706.496 319.877 706.391 319.585C706.286 319.293 706.239 318.983 706.254 318.672C706.269 318.362 706.345 318.058 706.478 317.777C706.61 317.496 706.797 317.245 707.027 317.036C707.257 316.827 707.526 316.666 707.819 316.562L738.574 305.507C739.164 305.295 739.813 305.326 740.38 305.593C740.947 305.86 741.384 306.341 741.596 306.93C741.808 307.52 741.777 308.169 741.51 308.736C741.243 309.303 740.762 309.74 740.172 309.952Z" fill="#E6E6E6"/>
<path d="M747.487 330.303L716.732 341.358C716.44 341.463 716.13 341.509 715.82 341.494C715.51 341.48 715.207 341.404 714.926 341.272C714.645 341.14 714.394 340.953 714.185 340.724C713.976 340.494 713.815 340.226 713.71 339.934C713.605 339.642 713.559 339.333 713.573 339.023C713.588 338.713 713.664 338.409 713.796 338.129C713.928 337.848 714.114 337.596 714.344 337.388C714.573 337.179 714.842 337.018 715.134 336.913L745.889 325.857C746.479 325.645 747.128 325.676 747.695 325.943C748.261 326.21 748.699 326.692 748.911 327.281C749.123 327.871 749.092 328.52 748.825 329.087C748.558 329.653 748.077 330.091 747.487 330.303Z" fill="#E6E6E6"/>
<path d="M751.234 340.726L720.478 351.781C720.186 351.887 719.876 351.934 719.566 351.92C719.256 351.906 718.951 351.831 718.67 351.699C718.389 351.567 718.136 351.38 717.927 351.151C717.718 350.921 717.556 350.652 717.451 350.36C717.346 350.067 717.3 349.757 717.315 349.447C717.33 349.137 717.406 348.832 717.539 348.551C717.671 348.271 717.858 348.019 718.089 347.81C718.319 347.602 718.588 347.441 718.881 347.336L749.636 336.281C749.928 336.175 750.238 336.128 750.548 336.143C750.859 336.157 751.163 336.232 751.444 336.364C751.725 336.496 751.978 336.682 752.187 336.912C752.396 337.142 752.557 337.411 752.663 337.703C752.768 337.995 752.814 338.305 752.799 338.616C752.784 338.926 752.708 339.23 752.575 339.511C752.443 339.792 752.256 340.044 752.026 340.252C751.795 340.461 751.526 340.622 751.234 340.726Z" fill="#E6E6E6"/>
<path d="M761.027 313.784L695.774 337.24C695.482 337.346 695.172 337.393 694.862 337.378C694.551 337.364 694.247 337.289 693.966 337.157C693.685 337.025 693.432 336.838 693.223 336.609C693.014 336.379 692.853 336.11 692.748 335.818C692.643 335.526 692.596 335.216 692.611 334.905C692.626 334.595 692.702 334.291 692.835 334.01C692.968 333.729 693.154 333.477 693.385 333.269C693.615 333.06 693.884 332.899 694.176 332.795L759.429 309.339C759.721 309.234 760.031 309.186 760.342 309.201C760.652 309.215 760.956 309.29 761.237 309.422C761.518 309.554 761.771 309.741 761.98 309.97C762.189 310.2 762.351 310.469 762.456 310.761C762.561 311.053 762.607 311.364 762.592 311.674C762.577 311.984 762.501 312.288 762.368 312.569C762.236 312.85 762.049 313.102 761.819 313.31C761.589 313.519 761.32 313.68 761.027 313.784Z" fill="#E6E6E6"/>
<path d="M747.883 366.029L736.716 370.044C735.714 370.403 734.61 370.35 733.647 369.896C732.684 369.442 731.941 368.624 731.581 367.622C731.221 366.62 731.273 365.516 731.727 364.553C732.18 363.59 732.998 362.846 733.999 362.485L745.166 358.471C746.168 358.111 747.272 358.165 748.235 358.619C749.198 359.073 749.941 359.891 750.302 360.893C750.662 361.894 750.609 362.998 750.156 363.962C749.702 364.925 748.885 365.669 747.883 366.029Z" fill="#6C63FF"/>
<path d="M659.883 188.933C660.74 188.933 661.436 188.238 661.436 187.38C661.436 186.523 660.74 185.827 659.883 185.827C659.025 185.827 658.33 186.523 658.33 187.38C658.33 188.238 659.025 188.933 659.883 188.933Z" fill="white"/>
<path d="M481.283 274.724C498.689 254.235 526.93 241.323 552.967 248.018C529.517 265.476 512.997 290.666 506.332 319.131C503.801 330.118 502.131 342.602 493.21 349.497C487.66 353.788 480.196 354.961 473.224 354.182C466.252 353.403 459.616 350.859 453.069 348.338L451.329 348.531C455.707 322.006 463.878 295.212 481.283 274.724Z" fill="#F0F0F0"/>
<path d="M552.901 248.578C531.406 254.334 512.272 266.716 498.215 283.966C495.123 287.626 492.627 291.751 490.82 296.188C489.199 300.567 488.78 305.3 489.606 309.896C490.291 314.196 491.49 318.516 491.117 322.908C490.893 325.154 490.197 327.327 489.074 329.284C487.951 331.242 486.428 332.94 484.603 334.267C480.141 337.692 474.715 339.311 469.354 340.709C463.402 342.261 457.194 343.779 452.41 347.875C451.83 348.372 451.094 347.443 451.673 346.948C459.997 339.821 471.818 340.425 481.09 335.171C485.417 332.72 489.031 328.949 489.809 323.876C490.49 319.44 489.258 314.984 488.527 310.636C487.655 306.164 487.891 301.547 489.214 297.188C490.79 292.673 493.123 288.46 496.112 284.728C502.709 276.218 510.603 268.799 519.504 262.741C529.625 255.772 540.863 250.585 552.733 247.405C553.467 247.208 553.631 248.383 552.901 248.578Z" fill="white"/>
<path d="M502.415 278.146C499.841 275.394 498.328 271.818 498.148 268.054C497.968 264.291 499.131 260.586 501.43 257.601C501.897 256.999 502.855 257.697 502.387 258.3C500.241 261.075 499.158 264.527 499.333 268.031C499.508 271.535 500.93 274.861 503.342 277.409C503.866 277.963 502.935 278.697 502.415 278.146Z" fill="white"/>
<path d="M488.972 307.761C496.667 308.086 504.202 305.499 510.074 300.515C510.655 300.021 511.392 300.949 510.811 301.443C504.69 306.618 496.844 309.294 488.837 308.938C488.074 308.904 488.213 307.727 488.972 307.761Z" fill="white"/>
<path d="M529.929 257.313C530.703 258.585 531.781 259.645 533.066 260.398C534.351 261.15 535.802 261.572 537.29 261.625C538.054 261.649 537.914 262.826 537.156 262.802C535.512 262.736 533.909 262.268 532.487 261.44C531.066 260.612 529.869 259.448 529.001 258.05C528.908 257.925 528.866 257.77 528.884 257.615C528.902 257.461 528.977 257.319 529.096 257.218C529.219 257.121 529.376 257.077 529.532 257.094C529.688 257.112 529.83 257.191 529.929 257.313Z" fill="white"/>
<path d="M591.683 330.396C591.206 330.394 590.729 330.392 590.246 330.398C583.833 330.406 577.431 330.934 571.103 331.979C570.613 332.052 570.117 332.133 569.63 332.22C554.412 334.899 539.825 340.379 526.608 348.383C521.352 351.573 516.346 355.158 511.633 359.107C505.126 364.561 498.504 370.993 490.801 373.894C490.001 374.205 489.182 374.467 488.349 374.678L451.699 350.639C451.643 350.543 451.582 350.455 451.525 350.358L450.018 349.465C450.247 349.244 450.489 349.02 450.718 348.8C450.85 348.671 450.99 348.548 451.122 348.419C451.213 348.335 451.304 348.252 451.381 348.171C451.412 348.143 451.442 348.115 451.467 348.095C451.544 348.014 451.624 347.947 451.695 347.874C453.045 346.619 454.406 345.371 455.778 344.13C455.783 344.122 455.783 344.122 455.797 344.119C466.274 334.69 477.631 326.054 489.937 319.416C490.308 319.216 490.683 319.008 491.07 318.82C496.634 315.858 502.43 313.357 508.402 311.34C511.675 310.246 515.001 309.318 518.368 308.561C527.072 306.62 536.027 306.06 544.905 306.902C562.602 308.584 579.564 315.906 590.832 329.36C591.12 329.704 591.4 330.043 591.683 330.396Z" fill="#F0F0F0"/>
<path d="M591.295 330.807C570.667 322.462 547.934 320.828 526.325 326.138C521.653 327.199 517.177 328.989 513.062 331.443C509.131 333.964 505.947 337.491 503.84 341.658C501.798 345.504 500.154 349.675 497.212 352.958C495.681 354.616 493.817 355.931 491.742 356.818C489.667 357.705 487.428 358.144 485.172 358.105C479.548 358.154 474.241 356.179 469.119 354.067C463.431 351.723 457.561 349.198 451.275 349.588C450.513 349.635 450.485 348.451 451.245 348.404C462.181 347.725 471.256 355.324 481.823 356.712C486.754 357.359 491.909 356.525 495.585 352.943C498.8 349.811 500.499 345.512 502.533 341.599C504.529 337.504 507.497 333.959 511.178 331.276C515.155 328.62 519.554 326.66 524.188 325.48C534.578 322.657 545.348 321.486 556.102 322.008C568.379 322.537 580.475 325.162 591.867 329.769C592.572 330.054 591.996 331.091 591.295 330.807Z" fill="white"/>
<path d="M533.183 324.019C532.784 320.272 533.73 316.506 535.851 313.393C537.973 310.279 541.133 308.021 544.765 307.022C545.501 306.823 545.846 307.957 545.109 308.157C541.725 309.081 538.782 311.184 536.812 314.087C534.842 316.991 533.975 320.502 534.367 323.989C534.451 324.746 533.266 324.772 533.183 324.019Z" fill="white"/>
<path d="M504.619 339.572C510.567 344.464 518.141 346.935 525.83 346.491C526.592 346.447 526.621 347.631 525.86 347.676C517.858 348.122 509.982 345.535 503.803 340.43C503.214 339.943 504.034 339.087 504.619 339.572Z" fill="white"/>
<path d="M567.693 323.95C567.546 325.432 567.768 326.927 568.341 328.302C568.914 329.676 569.819 330.887 570.976 331.825C571.57 332.304 570.75 333.16 570.159 332.684C568.886 331.641 567.888 330.303 567.252 328.786C566.616 327.269 566.36 325.619 566.509 323.98C566.51 323.825 566.57 323.675 566.677 323.563C566.785 323.45 566.931 323.382 567.086 323.373C567.243 323.37 567.395 323.429 567.508 323.537C567.622 323.645 567.689 323.794 567.693 323.95Z" fill="white"/>
<path d="M1003.65 668.514C1022.63 673.167 1044.76 668.743 1057.24 653.71C1036 653.416 1015.54 645.616 999.488 631.689C993.317 626.296 987.015 619.655 978.824 619.394C973.728 619.231 968.832 621.719 965.058 625.147C961.283 628.576 958.458 632.901 955.676 637.175L954.569 637.802C968.446 651.56 984.671 663.861 1003.65 668.514Z" fill="#F0F0F0"/>
<path d="M1056.97 653.408C1041.86 659.173 1025.31 660.03 1009.69 655.858C1006.31 655.019 1003.08 653.653 1000.12 651.81C997.304 649.921 995.041 647.312 993.57 644.253C992.142 641.428 991.007 638.374 988.917 635.945C987.829 634.718 986.493 633.735 984.998 633.06C983.503 632.386 981.882 632.035 980.242 632.03C976.155 631.913 972.27 633.271 968.517 634.731C964.35 636.352 960.047 638.102 955.485 637.728C954.932 637.682 954.894 638.543 955.446 638.588C963.384 639.24 970.089 633.849 977.788 632.994C981.381 632.595 985.115 633.276 987.735 635.932C990.025 638.255 991.197 641.404 992.619 644.277C994.01 647.282 996.116 649.901 998.752 651.905C1001.6 653.892 1004.77 655.381 1008.12 656.305C1015.63 658.507 1023.44 659.515 1031.26 659.291C1040.19 659.085 1049.02 657.353 1057.37 654.17C1057.88 653.973 1057.48 653.212 1056.97 653.408Z" fill="white"/>
<path d="M1014.64 657.498C1014.29 660.214 1014.93 662.965 1016.42 665.259C1017.92 667.552 1020.18 669.238 1022.81 670.017C1023.34 670.173 1023.61 669.354 1023.08 669.198C1020.63 668.477 1018.52 666.906 1017.13 664.768C1015.74 662.629 1015.16 660.065 1015.5 657.537C1015.57 656.987 1014.71 656.951 1014.64 657.498Z" fill="white"/>
<path d="M994.106 645.781C998.5 642.311 1004.04 640.626 1009.62 641.06C1010.17 641.103 1010.21 640.243 1009.66 640.199C1003.85 639.759 998.089 641.525 993.525 645.145C993.09 645.49 993.673 646.124 994.106 645.781Z" fill="white"/>
<path d="M1039.72 658.048C1039.63 656.969 1039.81 655.886 1040.25 654.895C1040.69 653.904 1041.36 653.038 1042.22 652.373C1042.65 652.033 1042.07 651.399 1041.64 651.737C1040.7 652.476 1039.95 653.434 1039.47 654.527C1038.98 655.621 1038.77 656.816 1038.86 658.009C1038.85 658.122 1038.9 658.231 1038.97 658.315C1039.05 658.399 1039.15 658.45 1039.27 658.459C1039.38 658.463 1039.49 658.423 1039.58 658.346C1039.66 658.269 1039.71 658.162 1039.72 658.048Z" fill="white"/>
<path d="M1044.96 588.7C1044.68 588.904 1044.4 589.108 1044.11 589.31C1040.33 592.037 1036.34 594.453 1032.16 596.533C1031.84 596.699 1031.52 596.862 1031.19 597.019C1021.09 601.923 1010.16 604.909 998.97 605.824C994.516 606.184 990.04 606.205 985.583 605.886C979.426 605.446 972.786 604.478 967.014 606.051C966.41 606.208 965.816 606.403 965.236 606.633L953.889 636.403C953.898 636.483 953.899 636.562 953.907 636.642L953.399 637.81C953.628 637.843 953.866 637.872 954.095 637.904C954.227 637.924 954.363 637.936 954.495 637.956C954.584 637.967 954.674 637.977 954.754 637.992C954.783 637.996 954.813 637.999 954.836 638C954.916 638.015 954.992 638.02 955.065 638.033C956.395 638.197 957.728 638.353 959.064 638.499C959.071 638.502 959.071 638.502 959.08 638.498C969.254 639.711 979.536 639.714 989.71 638.505C990.013 638.465 990.323 638.427 990.632 638.374C995.17 637.748 999.649 636.752 1004.03 635.397C1006.42 634.647 1008.77 633.776 1011.08 632.788C1017.03 630.224 1022.54 626.739 1027.41 622.462C1037.12 613.934 1043.99 602.396 1044.9 589.672C1044.92 589.347 1044.94 589.028 1044.96 588.7Z" fill="#F0F0F0"/>
<path d="M1044.56 588.623C1035.96 602.324 1023.27 612.969 1008.28 619.046C1005.07 620.412 1001.68 621.264 998.207 621.571C994.818 621.761 991.44 621.04 988.424 619.483C985.583 618.088 982.838 616.331 979.707 615.651C978.1 615.327 976.441 615.346 974.841 615.707C973.241 616.069 971.736 616.764 970.424 617.748C967.09 620.115 964.806 623.538 962.688 626.964C960.337 630.767 957.955 634.755 954.087 637.203C953.618 637.499 954.106 638.209 954.574 637.913C961.304 633.654 963.412 625.313 969.044 619.995C971.673 617.513 975.065 615.809 978.755 616.353C981.983 616.828 984.815 618.637 987.679 620.074C990.599 621.636 993.857 622.46 997.169 622.472C1000.64 622.343 1004.07 621.623 1007.3 620.344C1014.62 617.581 1021.46 613.684 1027.58 608.795C1034.58 603.255 1040.59 596.556 1045.33 588.99C1045.63 588.522 1044.85 588.157 1044.56 588.623Z" fill="white"/>
<path d="M1013.22 617.374C1014.58 619.75 1016.74 621.565 1019.32 622.495C1021.89 623.425 1024.72 623.409 1027.28 622.45C1027.8 622.255 1027.52 621.44 1027 621.636C1024.61 622.533 1021.98 622.548 1019.59 621.677C1017.19 620.806 1015.18 619.107 1013.93 616.887C1013.66 616.405 1012.95 616.894 1013.22 617.374Z" fill="white"/>
<path d="M989.772 620.38C991.192 614.965 994.6 610.284 999.318 607.27C999.785 606.971 999.298 606.261 998.831 606.559C993.927 609.705 990.39 614.584 988.926 620.222C988.786 620.759 989.634 620.915 989.772 620.38Z" fill="white"/>
<path d="M1033.58 602.714C1032.86 601.904 1032.35 600.929 1032.1 599.875C1031.86 598.822 1031.87 597.723 1032.15 596.678C1032.3 596.142 1031.45 595.988 1031.31 596.52C1031 597.676 1030.98 598.889 1031.26 600.054C1031.53 601.219 1032.08 602.299 1032.86 603.201C1032.93 603.292 1033.03 603.354 1033.14 603.375C1033.25 603.396 1033.37 603.374 1033.46 603.313C1033.56 603.248 1033.62 603.148 1033.64 603.036C1033.66 602.924 1033.64 602.808 1033.58 602.714Z" fill="white"/>
<path d="M1079.7 486.101L1050.76 534.801L1051.86 535.381L1042.06 553.961L1040.02 552.881L1033.58 563.711L1035.18 564.631L1024.68 582.811L1022.86 581.761L928.427 740.681C925.95 744.84 921.925 747.847 917.234 749.041C912.543 750.235 907.57 749.52 903.407 747.051L727.857 642.741C723.697 640.265 720.69 636.24 719.496 631.549C718.302 626.858 719.018 621.885 721.487 617.721L872.757 363.141C875.233 358.982 879.258 355.976 883.949 354.782C888.64 353.587 893.613 354.303 897.777 356.771L1073.33 461.081C1077.48 463.559 1080.49 467.584 1081.68 472.275C1082.88 476.965 1082.16 481.937 1079.7 486.101Z" fill="#3F3D56"/>
<path d="M909.663 737.224L733.495 632.548C732.213 631.784 731.286 630.543 730.918 629.098C730.55 627.652 730.771 626.119 731.531 624.835L883.805 368.562C884.569 367.28 885.81 366.353 887.255 365.985C888.701 365.617 890.234 365.838 891.518 366.598L1067.69 471.275C1068.97 472.039 1069.89 473.279 1070.26 474.725C1070.63 476.171 1070.41 477.704 1069.65 478.987L917.376 735.261C916.612 736.543 915.371 737.469 913.925 737.837C912.479 738.206 910.947 737.985 909.663 737.224Z" fill="white"/>
<path d="M982.028 414.886C982.886 414.886 983.581 414.191 983.581 413.333C983.581 412.476 982.886 411.78 982.028 411.78C981.17 411.78 980.475 412.476 980.475 413.333C980.475 414.191 981.17 414.886 982.028 414.886Z" fill="white"/>
<path d="M972.417 598.465L825.361 511.086C824.899 510.814 824.496 510.454 824.174 510.027C823.853 509.599 823.619 509.112 823.486 508.593C823.352 508.075 823.323 507.535 823.399 507.005C823.475 506.475 823.655 505.966 823.928 505.506C824.202 505.045 824.563 504.644 824.992 504.324C825.422 504.004 825.91 503.771 826.429 503.64C826.948 503.509 827.487 503.482 828.017 503.56C828.546 503.638 829.055 503.82 829.514 504.095L976.571 591.474C977.032 591.746 977.435 592.106 977.757 592.533C978.079 592.961 978.313 593.448 978.446 593.967C978.579 594.485 978.608 595.025 978.532 595.555C978.456 596.085 978.277 596.594 978.003 597.054C977.73 597.515 977.368 597.916 976.939 598.236C976.51 598.556 976.022 598.789 975.503 598.92C974.984 599.051 974.444 599.078 973.915 599C973.385 598.922 972.876 598.74 972.417 598.465Z" fill="#E6E6E6"/>
<path d="M913.698 584.925L865.327 556.184C864.868 555.911 864.467 555.551 864.147 555.123C863.827 554.695 863.595 554.209 863.463 553.691C863.331 553.174 863.303 552.636 863.379 552.107C863.455 551.578 863.635 551.07 863.908 550.611C864.181 550.152 864.541 549.751 864.969 549.431C865.397 549.111 865.883 548.879 866.401 548.747C866.918 548.616 867.457 548.587 867.985 548.664C868.514 548.74 869.022 548.92 869.481 549.193L917.852 577.934C918.311 578.207 918.712 578.567 919.032 578.995C919.352 579.423 919.584 579.909 919.716 580.427C919.848 580.944 919.876 581.482 919.8 582.011C919.723 582.539 919.544 583.048 919.271 583.507C918.998 583.966 918.638 584.367 918.21 584.686C917.782 585.006 917.296 585.238 916.778 585.37C916.261 585.502 915.723 585.53 915.194 585.454C914.666 585.378 914.157 585.198 913.698 584.925Z" fill="#E6E6E6"/>
<path d="M894.68 616.932L846.309 588.191C845.382 587.64 844.712 586.744 844.446 585.699C844.18 584.654 844.341 583.546 844.891 582.619C845.442 581.692 846.339 581.022 847.384 580.755C848.428 580.489 849.536 580.649 850.463 581.2L898.834 609.941C899.293 610.214 899.694 610.574 900.014 611.002C900.334 611.43 900.566 611.916 900.698 612.434C900.83 612.951 900.858 613.489 900.782 614.018C900.705 614.546 900.526 615.055 900.253 615.514C899.98 615.973 899.62 616.374 899.192 616.693C898.764 617.013 898.278 617.245 897.76 617.377C897.243 617.509 896.705 617.537 896.176 617.461C895.648 617.385 895.139 617.205 894.68 616.932Z" fill="#E6E6E6"/>
<path d="M884.94 633.326L836.569 604.585C836.108 604.313 835.706 603.952 835.385 603.525C835.064 603.097 834.831 602.61 834.698 602.092C834.566 601.574 834.537 601.035 834.613 600.505C834.689 599.976 834.869 599.467 835.142 599.007C835.415 598.547 835.776 598.146 836.205 597.826C836.633 597.506 837.12 597.274 837.639 597.143C838.157 597.011 838.697 596.984 839.226 597.061C839.755 597.138 840.263 597.319 840.723 597.594L889.094 626.335C889.555 626.607 889.958 626.967 890.28 627.394C890.602 627.822 890.836 628.309 890.969 628.828C891.102 629.346 891.131 629.886 891.056 630.416C890.98 630.946 890.8 631.456 890.526 631.916C890.253 632.376 889.891 632.778 889.462 633.098C889.033 633.418 888.545 633.65 888.026 633.781C887.507 633.912 886.967 633.939 886.437 633.861C885.908 633.783 885.399 633.601 884.94 633.326Z" fill="#E6E6E6"/>
<path d="M931.451 616.823L828.824 555.844C827.901 555.291 827.236 554.395 826.972 553.352C826.709 552.309 826.87 551.204 827.419 550.28C827.969 549.355 828.862 548.686 829.904 548.418C830.945 548.151 832.051 548.307 832.978 548.853L935.604 609.832C936.066 610.104 936.469 610.464 936.791 610.892C937.113 611.32 937.347 611.807 937.48 612.325C937.613 612.844 937.642 613.383 937.566 613.913C937.49 614.443 937.311 614.953 937.037 615.413C936.764 615.873 936.402 616.275 935.973 616.595C935.544 616.915 935.056 617.148 934.537 617.279C934.018 617.41 933.478 617.437 932.948 617.359C932.419 617.28 931.91 617.099 931.451 616.823Z" fill="#E6E6E6"/>
<path d="M911.89 694.755L894.327 684.319C892.753 683.381 891.615 681.857 891.164 680.081C890.713 678.305 890.985 676.423 891.921 674.847C892.857 673.272 894.38 672.133 896.156 671.68C897.931 671.227 899.814 671.497 901.39 672.431L918.954 682.867C920.53 683.804 921.67 685.328 922.122 687.105C922.575 688.882 922.303 690.766 921.366 692.343C920.429 693.919 918.905 695.059 917.128 695.511C915.35 695.964 913.467 695.692 911.89 694.755Z" fill="#6C63FF"/>
<path d="M944.659 525.314C964.541 525.314 980.659 509.197 980.659 489.314C980.659 469.432 964.541 453.314 944.659 453.314C924.776 453.314 908.659 469.432 908.659 489.314C908.659 509.197 924.776 525.314 944.659 525.314Z" fill="#6C63FF"/>
<path d="M354.424 635.606H841.605V353.557C841.602 351.444 840.762 349.418 839.267 347.924C837.773 346.43 835.747 345.589 833.634 345.587H362.395C360.282 345.589 358.256 346.43 356.761 347.924C355.267 349.418 354.426 351.444 354.424 353.557V635.606Z" fill="#CACACA"/>
<path d="M826.553 356.611H369.476V616.101H826.553V356.611Z" fill="white"/>
<path d="M354 627.973V662.778C354 664.221 354.284 665.65 354.836 666.983C355.388 668.316 356.198 669.527 357.218 670.548C358.238 671.568 359.45 672.377 360.783 672.929C362.116 673.482 363.544 673.766 364.987 673.766H544.802V742.455H542.413C542.226 742.455 542.04 742.491 541.867 742.563C541.694 742.635 541.536 742.74 541.404 742.872C541.271 743.005 541.166 743.162 541.094 743.336C541.023 743.509 540.986 743.694 540.986 743.882V748.659C540.986 748.847 541.023 749.032 541.094 749.206C541.166 749.379 541.271 749.536 541.404 749.669C541.536 749.801 541.694 749.906 541.867 749.978C542.04 750.05 542.226 750.087 542.413 750.087H654.04C654.227 750.087 654.413 750.05 654.586 749.978C654.759 749.906 654.916 749.801 655.049 749.669C655.182 749.536 655.287 749.379 655.358 749.206C655.43 749.032 655.467 748.847 655.467 748.659V743.882C655.467 743.694 655.43 743.509 655.358 743.336C655.287 743.162 655.182 743.005 655.049 742.872C654.916 742.74 654.759 742.635 654.586 742.563C654.413 742.491 654.227 742.455 654.04 742.455H651.651V673.766H831.466C832.908 673.766 834.337 673.482 835.67 672.93C837.003 672.377 838.215 671.568 839.235 670.548C840.255 669.527 841.064 668.316 841.617 666.983C842.169 665.65 842.453 664.221 842.453 662.778V627.973L354 627.973Z" fill="#3F3D56"/>
<path d="M760.413 443.394H543.959C542.595 443.394 541.286 442.852 540.321 441.887C539.357 440.923 538.814 439.614 538.814 438.249C538.814 436.885 539.357 435.576 540.321 434.611C541.286 433.646 542.595 433.104 543.959 433.104H760.413C761.778 433.104 763.086 433.646 764.051 434.611C765.016 435.576 765.558 436.885 765.558 438.249C765.558 439.614 765.016 440.923 764.051 441.887C763.086 442.852 761.778 443.394 760.413 443.394Z" fill="#E6E6E6"/>
<path d="M687.785 466.62H616.587C615.223 466.62 613.914 466.078 612.949 465.113C611.984 464.148 611.442 462.839 611.442 461.475C611.442 460.11 611.984 458.801 612.949 457.836C613.914 456.871 615.223 456.329 616.587 456.329H687.785C689.15 456.329 690.458 456.871 691.423 457.836C692.388 458.801 692.93 460.11 692.93 461.475C692.93 462.839 692.388 464.148 691.423 465.113C690.458 466.078 689.15 466.62 687.785 466.62Z" fill="#E6E6E6"/>
<path d="M687.785 513.731H616.587C615.223 513.731 613.914 513.189 612.949 512.224C611.984 511.259 611.442 509.951 611.442 508.586C611.442 507.221 611.984 505.913 612.949 504.948C613.914 503.983 615.223 503.441 616.587 503.441H687.785C689.15 503.441 690.458 503.983 691.423 504.948C692.388 505.913 692.93 507.221 692.93 508.586C692.93 509.951 692.388 511.259 691.423 512.224C690.458 513.189 689.15 513.731 687.785 513.731Z" fill="#E6E6E6"/>
<path d="M687.785 537.861H616.587C615.912 537.861 615.243 537.728 614.618 537.469C613.994 537.211 613.427 536.832 612.949 536.354C612.472 535.876 612.093 535.309 611.834 534.685C611.575 534.061 611.442 533.392 611.442 532.716C611.442 532.04 611.575 531.371 611.834 530.747C612.093 530.123 612.472 529.556 612.949 529.078C613.427 528.6 613.994 528.221 614.618 527.963C615.243 527.704 615.912 527.571 616.587 527.571H687.785C688.461 527.571 689.13 527.704 689.754 527.963C690.378 528.221 690.945 528.6 691.423 529.078C691.901 529.556 692.28 530.123 692.538 530.747C692.797 531.371 692.93 532.04 692.93 532.716C692.93 533.392 692.797 534.061 692.538 534.685C692.28 535.309 691.901 535.876 691.423 536.354C690.945 536.832 690.378 537.211 689.754 537.469C689.13 537.728 688.461 537.861 687.785 537.861Z" fill="#E6E6E6"/>
<path d="M727.715 489.845H576.658C575.293 489.845 573.984 489.303 573.02 488.338C572.055 487.373 571.513 486.064 571.513 484.7C571.513 483.335 572.055 482.027 573.02 481.062C573.984 480.097 575.293 479.555 576.658 479.555H727.715C729.08 479.555 730.388 480.097 731.353 481.062C732.318 482.027 732.86 483.335 732.86 484.7C732.86 486.064 732.318 487.373 731.353 488.338C730.388 489.303 729.08 489.845 727.715 489.845Z" fill="#E6E6E6"/>
<path d="M756.81 587.266H730.958C728.638 587.266 726.412 586.344 724.772 584.703C723.131 583.063 722.209 580.837 722.209 578.517C722.209 576.196 723.131 573.971 724.772 572.33C726.412 570.69 728.638 569.768 730.958 569.768H756.81C759.13 569.768 761.355 570.69 762.996 572.33C764.637 573.971 765.559 576.196 765.559 578.517C765.559 580.837 764.637 583.063 762.996 584.703C761.355 586.344 759.13 587.266 756.81 587.266Z" fill="#6C63FF"/>
<path d="M475.895 523.766C500.747 523.766 520.895 503.619 520.895 478.766C520.895 453.913 500.747 433.766 475.895 433.766C451.042 433.766 430.895 453.913 430.895 478.766C430.895 503.619 451.042 523.766 475.895 523.766Z" fill="#6C63FF"/>
<path d="M1002.48 751.943H355.191C354.875 751.942 354.574 751.816 354.351 751.593C354.128 751.37 354.003 751.067 354.003 750.752C354.003 750.437 354.128 750.134 354.351 749.911C354.574 749.688 354.875 749.562 355.191 749.561H1002.48C1002.8 749.562 1003.1 749.688 1003.32 749.911C1003.55 750.134 1003.67 750.437 1003.67 750.752C1003.67 751.067 1003.55 751.37 1003.32 751.593C1003.1 751.816 1002.8 751.942 1002.48 751.943Z" fill="#CACACA"/>
<path d="M597.802 351.099C598.739 351.099 599.498 350.339 599.498 349.403C599.498 348.466 598.739 347.707 597.802 347.707C596.866 347.707 596.106 348.466 596.106 349.403C596.106 350.339 596.866 351.099 597.802 351.099Z" fill="white"/>
<path d="M103.857 329.729C116.747 309.588 141.15 296 169.133 296C210.555 296 244.133 325.773 244.133 362.5C244.133 385.982 230.407 406.621 209.681 418.453" stroke="#3F3D56" stroke-miterlimit="10"/>
<path d="M167.671 26.0002C171.537 26.0002 174.671 22.8661 174.671 19.0001C174.671 15.134 171.537 12 167.671 12C163.805 12 160.671 15.134 160.671 19.0001C160.671 22.8661 163.805 26.0002 167.671 26.0002Z" fill="#6C63FF"/>
<path d="M191.671 26.0002C195.537 26.0002 198.671 22.8661 198.671 19.0001C198.671 15.134 195.537 12 191.671 12C187.805 12 184.671 15.134 184.671 19.0001C184.671 22.8661 187.805 26.0002 191.671 26.0002Z" fill="#6C63FF"/>
<path d="M215.671 26.0002C219.537 26.0002 222.671 22.8661 222.671 19.0001C222.671 15.134 219.537 12 215.671 12C211.805 12 208.671 15.134 208.671 19.0001C208.671 22.8661 211.805 26.0002 215.671 26.0002Z" fill="#6C63FF"/>
<path d="M169.671 23.0002C173.537 23.0002 176.671 19.8661 176.671 16.0001C176.671 12.134 173.537 9 169.671 9C165.805 9 162.671 12.134 162.671 16.0001C162.671 19.8661 165.805 23.0002 169.671 23.0002Z" stroke="#3F3D56" stroke-miterlimit="10"/>
<path d="M193.671 23.0002C197.537 23.0002 200.671 19.8661 200.671 16.0001C200.671 12.134 197.537 9 193.671 9C189.805 9 186.671 12.134 186.671 16.0001C186.671 19.8661 189.805 23.0002 193.671 23.0002Z" stroke="#3F3D56" stroke-miterlimit="10"/>
<path d="M217.671 23.0002C221.537 23.0002 224.671 19.8661 224.671 16.0001C224.671 12.134 221.537 9 217.671 9C213.805 9 210.671 12.134 210.671 16.0001C210.671 19.8661 213.805 23.0002 217.671 23.0002Z" stroke="#3F3D56" stroke-miterlimit="10"/>
<path d="M40.7164 205.049C43.7785 203.695 46.4843 201.648 48.6204 199.07C50.7565 196.491 52.2646 193.452 53.0258 190.192C53.787 186.931 53.7805 183.538 53.0068 180.281C52.2331 177.023 50.7134 173.99 48.5674 171.42C46.4214 168.85 43.7078 166.813 40.6405 165.471C37.5732 164.129 34.236 163.517 30.892 163.684C27.548 163.852 24.2886 164.794 21.3707 166.435C18.4527 168.077 15.956 170.375 14.0774 173.146L22.1743 180.798L11.7721 177.565C9.72638 182.895 9.88038 188.819 12.2002 194.035C13.0061 195.869 14.0677 197.579 15.3534 199.115C18.3609 202.727 22.4639 205.26 27.0407 206.331C31.6174 207.402 36.4185 206.952 40.7164 205.049Z" fill="#57B894"/>
<path d="M148.89 280.104C140.995 274.565 140.994 262.935 142.955 253.493C144.916 244.05 147.91 233.748 143.458 225.193C137.06 212.898 120.244 212.158 106.446 210.844C96.2074 209.868 86.1209 207.681 76.3974 204.33C72.499 202.986 68.5951 201.417 65.4027 198.807C60.8054 195.048 58.1086 189.504 55.5904 184.126C47.2014 166.211 39.2383 148.103 31.7012 129.805" stroke="#3F3D56" stroke-miterlimit="10"/>
<path d="M39.3746 202.366C42.4367 201.011 45.1425 198.965 47.2786 196.386C49.4147 193.808 50.9228 190.769 51.684 187.508C52.4452 184.248 52.4387 180.855 51.665 177.598C50.8913 174.34 49.3715 171.307 47.2256 168.737C45.0796 166.167 42.366 164.13 39.2987 162.788C36.2314 161.445 32.8942 160.834 29.5502 161.001C26.2062 161.169 22.9468 162.11 20.0289 163.752C17.1109 165.394 14.6142 167.691 12.7356 170.463L20.8325 178.115L10.4303 174.882C8.38459 180.212 8.53858 186.136 10.8584 191.352C11.6642 193.186 12.7259 194.896 14.0116 196.432C17.0191 200.044 21.1221 202.577 25.6989 203.648C30.2757 204.719 35.0767 204.269 39.3746 202.366Z" stroke="#3F3D56" stroke-miterlimit="10"/>
<path d="M13.0244 142.41C11.5554 139.096 10.9438 135.467 11.2462 131.855C11.5485 128.244 12.7549 124.766 14.7543 121.744L23.3647 128.142L18.0506 117.842C21.403 114.717 25.6615 112.739 30.2114 112.193C34.7613 111.646 39.3672 112.56 43.3639 114.802C47.3607 117.044 50.5416 120.498 52.4474 124.665C54.3532 128.833 54.8852 133.498 53.9667 137.988C53.0482 142.477 50.7267 146.559 47.3373 149.643C43.9479 152.727 39.6661 154.655 35.11 155.147C30.5539 155.639 25.9593 154.67 21.9895 152.381C18.0198 150.091 14.8803 146.6 13.0244 142.41Z" fill="#57B894"/>
<path d="M11.2353 138.832C9.76631 135.519 9.15479 131.889 9.4571 128.278C9.75942 124.666 10.9659 121.189 12.9652 118.166L21.5757 124.564L16.2616 114.264C19.6139 111.14 23.8725 109.161 28.4224 108.615C32.9723 108.069 37.5781 108.982 41.5749 111.224C45.5717 113.466 48.7526 116.92 50.6584 121.088C52.5642 125.255 53.0962 129.92 52.1777 134.41C51.2592 138.9 48.9377 142.981 45.5483 146.065C42.1589 149.15 37.8771 151.077 33.321 151.569C28.7649 152.061 24.1703 151.092 20.2005 148.803C16.2308 146.514 13.0913 143.022 11.2353 138.832Z" stroke="#3F3D56" stroke-miterlimit="10"/>
<path d="M103.856 213.627C108.71 211.477 112.602 207.616 114.792 202.78C116.982 197.944 117.315 192.471 115.729 187.405C114.143 182.339 110.748 178.034 106.192 175.31C101.636 172.586 96.2364 171.634 91.0231 172.635L95.107 180.55L86.3971 174.074C86.3785 174.081 86.3604 174.088 86.343 174.097C83.7474 175.247 81.4038 176.897 79.4459 178.953C77.488 181.009 75.9541 183.43 74.9319 186.078C72.8675 191.427 73.0125 197.377 75.3349 202.619C77.6573 207.861 81.967 211.966 87.3158 214.03C92.6646 216.094 98.6145 215.95 103.856 213.627Z" fill="#57B894"/>
<path d="M101.919 210.124C106.772 207.973 110.665 204.112 112.854 199.276C115.044 194.44 115.378 188.968 113.792 183.902C112.206 178.836 108.811 174.53 104.255 171.806C99.6982 169.082 94.2988 168.13 89.0856 169.131L93.1694 177.046L84.4596 170.571C84.441 170.577 84.4228 170.585 84.4054 170.594C81.8089 171.743 79.4642 173.393 77.5054 175.449C75.5465 177.504 74.0118 179.926 72.9889 182.575C71.9661 185.224 71.4751 188.048 71.544 190.887C71.6129 193.725 72.2404 196.523 73.3906 199.119C74.5408 201.715 76.1912 204.059 78.2475 206.017C80.3038 207.975 82.7257 209.509 85.375 210.531C88.0242 211.553 90.8488 212.043 93.6875 211.973C96.5261 211.903 99.3232 211.275 101.919 210.124Z" stroke="#3F3D56" stroke-miterlimit="10"/>
<path d="M112.486 255.113C116.487 258.04 121.372 259.503 126.323 259.257C131.274 259.01 135.99 257.068 139.679 253.757C143.368 250.446 145.807 245.967 146.586 241.072C147.365 236.176 146.437 231.162 143.958 226.869C141.479 222.576 137.599 219.267 132.969 217.495C128.339 215.724 123.241 215.598 118.53 217.139C113.818 218.68 109.78 221.794 107.092 225.96C104.404 230.125 103.23 235.088 103.767 240.016L120.755 243.802L105.933 247.367C107.465 250.436 109.713 253.093 112.486 255.113Z" fill="#57B894"/>
<path d="M111.144 252.43C115.145 255.357 120.03 256.82 124.981 256.573C129.932 256.327 134.648 254.385 138.337 251.074C142.027 247.763 144.465 243.284 145.244 238.389C146.024 233.493 145.096 228.479 142.616 224.186C140.137 219.893 136.257 216.584 131.627 214.812C126.998 213.04 121.899 212.915 117.188 214.456C112.476 215.997 108.438 219.111 105.75 223.277C103.062 227.442 101.888 232.404 102.425 237.333L119.414 241.119L104.591 244.684C106.123 247.753 108.371 250.41 111.144 252.43Z" stroke="#3F3D56" stroke-miterlimit="10"/>
<path d="M123.716 119.049C126.779 117.695 129.484 115.648 131.62 113.07C133.757 110.491 135.265 107.452 136.026 104.192C136.787 100.931 136.78 97.5384 136.007 94.2808C135.233 91.0232 133.713 87.9899 131.567 85.4199C129.421 82.8498 126.708 80.8134 123.64 79.471C120.573 78.1286 117.236 77.517 113.892 77.6844C110.548 77.8517 107.289 78.7935 104.371 80.4355C101.453 82.0774 98.956 84.3746 97.0774 87.1461L105.174 94.798L94.7721 91.5652C92.7264 96.8949 92.8804 102.819 95.2002 108.035C96.0061 109.869 97.0677 111.579 98.3534 113.115C101.361 116.727 105.464 119.26 110.041 120.331C114.617 121.402 119.419 120.952 123.716 119.049Z" fill="#57B894"/>
<path d="M148.403 112.807C143.805 109.048 141.109 103.505 138.59 98.1265C130.201 80.2107 122.238 62.1036 114.701 43.8052" stroke="#3F3D56" stroke-miterlimit="10"/>
<path d="M122.375 116.365C125.437 115.011 128.142 112.965 130.279 110.386C132.415 107.808 133.923 104.769 134.684 101.508C135.445 98.2479 135.439 94.8551 134.665 91.5976C133.891 88.34 132.372 85.3067 130.226 82.7367C128.08 80.1666 125.366 78.1302 122.299 76.7878C119.231 75.4454 115.894 74.8338 112.55 75.0012C109.206 75.1685 105.947 76.1103 103.029 77.7522C100.111 79.3942 97.6142 81.6914 95.7356 84.4629L103.832 92.1148L93.4303 88.882C91.3846 94.2117 91.5386 100.136 93.8584 105.352C94.6642 107.186 95.7259 108.896 97.0117 110.432C100.019 114.044 104.122 116.577 108.699 117.648C113.276 118.719 118.077 118.269 122.375 116.365Z" stroke="#3F3D56" stroke-miterlimit="10"/>
<path d="M96.0244 56.4096C94.5554 53.0965 93.9438 49.4669 94.2462 45.8553C94.5485 42.2438 95.7549 38.7664 97.7543 35.7436L106.365 42.1416L101.051 31.8417C104.403 28.7173 108.662 26.7391 113.211 26.1927C117.761 25.6463 122.367 26.56 126.364 28.8018C130.361 31.0437 133.542 34.4977 135.447 38.6653C137.353 42.8328 137.885 47.4981 136.967 51.9877C136.048 56.4773 133.727 60.5589 130.337 63.6431C126.948 66.7273 122.666 68.6545 118.11 69.1466C113.554 69.6387 108.959 68.6701 104.99 66.3807C101.02 64.0913 97.8803 60.5995 96.0244 56.4096Z" fill="#57B894"/>
<path d="M94.2353 52.832C92.7663 49.5188 92.1548 45.8893 92.4571 42.2777C92.7594 38.6662 93.9659 35.1888 95.9652 32.166L104.576 38.564L99.2616 28.2641C102.614 25.1397 106.872 23.1614 111.422 22.615C115.972 22.0686 120.578 22.9823 124.575 25.2242C128.572 27.4661 131.753 30.9201 133.658 35.0876C135.564 39.2551 136.096 43.9205 135.178 48.4101C134.259 52.8997 131.938 56.9812 128.548 60.0654C125.159 63.1496 120.877 65.0769 116.321 65.569C111.765 66.0611 107.17 65.0925 103.201 62.8031C99.2308 60.5137 96.0913 57.0219 94.2353 52.832Z" stroke="#3F3D56" stroke-miterlimit="10"/>
<path d="M78 376.498C78 402.63 95.1682 425.211 120.064 435.914L84.4617 349.631C80.2252 357.954 78.0113 367.159 78 376.498ZM203.019 373.167C203.019 365.008 199.706 359.358 196.864 354.96C193.081 349.522 189.536 344.917 189.536 339.479C189.536 333.41 194.738 327.761 202.067 327.761C202.398 327.761 202.712 327.797 203.036 327.814C188.711 316.444 170.922 310.327 152.635 310.484C126.561 310.484 103.621 322.317 90.2758 340.24C92.0268 340.286 93.6785 340.318 95.0788 340.318C102.885 340.318 114.969 339.48 114.969 339.48C118.993 339.27 119.467 344.497 115.449 344.918C115.449 344.918 111.405 345.339 106.906 345.547L134.085 417.055L150.419 373.726L138.79 345.546C134.771 345.337 130.963 344.917 130.963 344.917C126.941 344.708 127.413 339.269 131.435 339.479C131.435 339.479 143.76 340.316 151.094 340.316C158.899 340.316 170.984 339.479 170.984 339.479C175.011 339.269 175.484 344.496 171.463 344.917C171.463 344.917 167.411 345.337 162.921 345.546L189.892 416.512L197.335 394.508C200.563 385.377 203.019 378.818 203.019 373.167Z" fill="#6C63FF"/>
<path d="M153.944 382.273L131.551 439.828C146.641 443.743 162.524 443.379 177.419 438.777C177.213 438.491 177.035 438.187 176.888 437.867L153.944 382.273ZM218.123 344.825C218.462 347.072 218.63 349.341 218.626 351.613C218.626 358.312 217.212 365.843 212.951 375.259L190.153 433.562C212.342 422.117 227.266 400.854 227.266 376.498C227.247 365.292 224.079 354.317 218.123 344.825Z" fill="#6C63FF"/>
<path d="M471.422 496.49C470.803 496.49 470.193 496.346 469.64 496.07C469.087 495.793 468.606 495.391 468.235 494.896L458.466 481.87C458.152 481.451 457.923 480.975 457.794 480.468C457.664 479.962 457.635 479.434 457.709 478.916C457.783 478.399 457.958 477.9 458.225 477.45C458.491 477 458.844 476.607 459.262 476.293C459.681 475.979 460.157 475.751 460.664 475.621C461.171 475.491 461.698 475.463 462.216 475.537C462.734 475.611 463.232 475.786 463.682 476.052C464.132 476.319 464.525 476.671 464.839 477.09L471.231 485.612L487.647 460.987C488.235 460.112 489.146 459.505 490.18 459.3C491.214 459.095 492.287 459.308 493.165 459.893C494.042 460.478 494.651 461.387 494.86 462.42C495.068 463.454 494.858 464.528 494.276 465.407L474.737 494.716C474.383 495.246 473.908 495.684 473.35 495.992C472.793 496.301 472.169 496.471 471.533 496.489C471.496 496.489 471.459 496.49 471.422 496.49Z" fill="white"/>
<path d="M940.332 502C939.868 502 939.41 501.892 938.994 501.684C938.578 501.476 938.217 501.174 937.938 500.803L930.598 491.015C930.363 490.701 930.191 490.343 930.094 489.962C929.996 489.581 929.975 489.185 930.03 488.796C930.086 488.407 930.217 488.033 930.418 487.694C930.618 487.356 930.883 487.061 931.197 486.825C931.512 486.589 931.869 486.418 932.25 486.32C932.631 486.222 933.027 486.201 933.416 486.257C933.805 486.312 934.179 486.444 934.517 486.644C934.856 486.844 935.151 487.109 935.387 487.424L940.189 493.826L952.522 475.325C952.964 474.667 953.648 474.211 954.425 474.057C955.202 473.903 956.008 474.063 956.667 474.503C957.326 474.942 957.784 475.625 957.941 476.402C958.098 477.178 957.94 477.985 957.502 478.646L942.823 500.667C942.557 501.065 942.2 501.394 941.781 501.626C941.362 501.858 940.894 501.986 940.416 501.999C940.388 502 940.36 502 940.332 502Z" fill="white"/>
<path d="M697.856 261C697.458 261 697.065 260.907 696.709 260.729C696.353 260.551 696.043 260.292 695.804 259.974L689.513 251.584C689.311 251.315 689.164 251.008 689.08 250.682C688.997 250.355 688.978 250.016 689.026 249.682C689.073 249.349 689.186 249.028 689.358 248.738C689.53 248.448 689.757 248.195 690.026 247.993C690.296 247.791 690.602 247.644 690.929 247.56C691.255 247.476 691.595 247.458 691.928 247.506C692.261 247.553 692.582 247.666 692.872 247.838C693.162 248.009 693.415 248.236 693.617 248.506L697.733 253.994L708.305 238.136C708.683 237.572 709.27 237.181 709.936 237.049C710.602 236.917 711.293 237.054 711.858 237.431C712.423 237.808 712.815 238.393 712.949 239.058C713.084 239.724 712.948 240.416 712.574 240.982L699.991 259.858C699.763 260.199 699.457 260.481 699.098 260.679C698.739 260.878 698.338 260.988 697.928 260.999C697.904 261 697.88 261 697.856 261Z" fill="white"/>
<path d="M1072.71 888.172C1072.22 878.901 1081.02 871.991 1089.34 867.866C1097.66 863.741 1107.24 859.888 1111.08 851.433C1116.59 839.282 1107.16 826.104 1099.96 814.872C1094.61 806.537 1090.28 797.597 1087.04 788.241C1085.74 784.49 1084.61 780.6 1084.69 776.631C1084.81 770.915 1087.4 765.579 1089.98 760.476C1098.57 743.478 1107.55 726.688 1116.93 710.107" stroke="#3F3D56" stroke-miterlimit="10"/>
<path d="M1096.29 703.448C1097.93 700.367 1100.31 697.748 1103.23 695.831C1106.14 693.914 1109.49 692.762 1112.97 692.481L1113.24 702.804L1117.89 692.659C1122.24 693.342 1126.27 695.393 1129.39 698.515C1132.51 701.636 1134.55 705.668 1135.23 710.028C1135.9 714.387 1135.18 718.849 1133.15 722.768C1131.13 726.688 1127.91 729.863 1123.96 731.834C1120.02 733.806 1115.55 734.473 1111.2 733.738C1106.85 733.003 1102.84 730.904 1099.76 727.745C1096.68 724.587 1094.69 720.531 1094.06 716.164C1093.44 711.796 1094.22 707.344 1096.29 703.448Z" fill="#57B894"/>
<path d="M1097.94 699.968C1099.57 696.887 1101.96 694.267 1104.88 692.35C1107.79 690.434 1111.14 689.281 1114.62 689L1114.89 699.323L1119.53 689.179C1123.89 689.862 1127.92 691.912 1131.04 695.034C1134.15 698.156 1136.2 702.187 1136.88 706.547C1137.55 710.906 1136.83 715.368 1134.8 719.288C1132.78 723.207 1129.56 726.382 1125.61 728.354C1121.67 730.325 1117.19 730.992 1112.84 730.257C1108.49 729.522 1104.49 727.423 1101.41 724.265C1098.33 721.106 1096.34 717.05 1095.71 712.683C1095.09 708.316 1095.87 703.863 1097.94 699.968Z" stroke="#3F3D56" stroke-miterlimit="10"/>
<path d="M1096.31 814.564C1100.82 816.963 1106.06 817.618 1111.02 816.403C1115.99 815.188 1120.33 812.19 1123.23 807.979C1126.12 803.767 1127.37 798.638 1126.72 793.568C1126.08 788.498 1123.59 783.843 1119.74 780.489L1116.17 788.285L1115.9 777.84C1115.88 777.83 1115.86 777.82 1115.85 777.813C1113.43 776.528 1110.79 775.731 1108.07 775.468C1105.35 775.205 1102.6 775.48 1099.99 776.279C1097.37 777.078 1094.94 778.384 1092.83 780.123C1090.72 781.862 1088.97 783.999 1087.69 786.413C1086.41 788.827 1085.61 791.471 1085.35 794.192C1085.09 796.914 1085.37 799.66 1086.17 802.275C1086.97 804.889 1088.28 807.32 1090.02 809.429C1091.76 811.537 1093.89 813.282 1096.31 814.564Z" fill="#57B894"/>
<path d="M1097.81 811.015C1102.32 813.414 1107.56 814.069 1112.53 812.854C1117.49 811.639 1121.83 808.641 1124.73 804.429C1127.62 800.218 1128.87 795.089 1128.22 790.019C1127.58 784.949 1125.09 780.294 1121.24 776.94L1117.67 784.736L1117.4 774.291C1117.38 774.28 1117.37 774.271 1117.35 774.264C1114.94 772.979 1112.29 772.183 1109.57 771.92C1106.85 771.657 1104.11 771.933 1101.49 772.732C1098.88 773.531 1096.45 774.837 1094.34 776.576C1092.23 778.315 1090.48 780.452 1089.2 782.866C1087.91 785.28 1087.12 787.923 1086.86 790.644C1086.6 793.365 1086.87 796.111 1087.67 798.725C1088.47 801.34 1089.78 803.77 1091.52 805.879C1093.26 807.988 1095.4 809.733 1097.81 811.015Z" stroke="#3F3D56" stroke-miterlimit="10"/>
<path d="M1070.01 845.749C1070.17 850.519 1071.97 855.088 1075.09 858.692C1078.22 862.296 1082.5 864.714 1087.2 865.542C1091.9 866.369 1096.74 865.555 1100.91 863.237C1105.08 860.919 1108.33 857.237 1110.11 852.808C1111.88 848.38 1112.09 843.474 1110.68 838.915C1109.27 834.355 1106.33 830.419 1102.37 827.766C1098.4 825.112 1093.64 823.904 1088.89 824.342C1084.14 824.781 1079.68 826.84 1076.27 830.175L1083.49 845.293L1071.99 836.183C1070.57 839.167 1069.9 842.448 1070.01 845.749Z" fill="#57B894"/>
<path d="M1071.25 843.138C1071.41 847.908 1073.2 852.478 1076.33 856.081C1079.46 859.685 1083.73 862.104 1088.43 862.931C1093.13 863.759 1097.97 862.945 1102.14 860.627C1106.31 858.308 1109.56 854.626 1111.34 850.198C1113.12 845.769 1113.32 840.864 1111.91 836.304C1110.5 831.745 1107.57 827.808 1103.6 825.155C1099.64 822.502 1094.88 821.293 1090.13 821.732C1085.37 822.17 1080.92 824.229 1077.5 827.564L1084.73 842.682L1073.22 833.572C1071.81 836.557 1071.13 839.838 1071.25 843.138Z" stroke="#3F3D56" stroke-miterlimit="10"/>
</g>
<defs>
<clipPath id="clip0_136_1623">
<rect width="1153" height="888" fill="white"/>
</clipPath>
</defs>
</svg>
