<svg width="878" height="765" viewBox="0 0 878 765" fill="none" xmlns="http://www.w3.org/2000/svg">
<path d="M580.822 296.375L517.601 113.879L519.205 113.281L507.578 79.7151L505.974 80.3136L486.563 24.2816C485.838 22.1889 484.723 20.2648 483.281 18.6192C481.84 16.9736 480.1 15.6388 478.161 14.6909C476.222 13.743 474.123 13.2007 471.982 13.0948C469.841 12.9889 467.701 13.3216 465.685 14.0738L351.395 56.7015C349.378 57.4536 347.524 58.6107 345.938 60.1064C344.352 61.6022 343.065 63.4075 342.152 65.4192C341.238 67.4308 340.715 69.6095 340.613 71.8309C340.511 74.0522 340.832 76.2726 341.557 78.3653L355.091 117.434L352.558 118.446L361.197 141.726L363.225 140.915L365.019 146.093L362.861 146.956L371.501 170.235L373.154 169.574L435.816 350.459C436.538 352.554 437.651 354.481 439.092 356.129C440.532 357.777 442.273 359.113 444.213 360.062C446.152 361.01 448.253 361.552 450.396 361.656C452.538 361.76 454.678 361.424 456.695 360.667L570.984 318.04C575.054 316.516 578.376 313.38 580.22 309.318C582.064 305.257 582.281 300.602 580.822 296.375Z" fill="#6C63FF"/>
<path d="M450.684 354.653C449.075 354.649 447.505 354.131 446.189 353.169C444.874 352.208 443.875 350.849 443.329 349.278L348.076 74.3128C347.374 72.2876 347.477 70.0562 348.361 68.1095C349.245 66.1628 350.838 64.6602 352.789 63.9321L377.107 54.8623L377.07 55.7451C377.008 57.2775 377.31 58.8024 377.949 60.1853C378.588 61.5683 379.546 62.7668 380.737 63.6754C381.928 64.584 383.316 65.1748 384.778 65.3956C386.241 65.6165 387.734 65.4607 389.125 64.9419L443.092 44.8134C444.395 44.1941 445.539 43.2653 446.431 42.1022C447.324 40.939 447.94 39.5742 448.23 38.1182C448.517 36.6864 448.473 35.2045 448.103 33.7935C447.733 32.3825 447.046 31.0823 446.1 29.999L445.53 29.3418L470.648 19.9727C472.6 19.2477 474.75 19.3556 476.625 20.2726C478.501 21.1897 479.949 22.841 480.653 24.8646L571.534 287.205C573.388 292.579 573.113 298.497 570.768 303.661C568.423 308.824 564.2 312.812 559.025 314.749L453.334 354.17C452.484 354.488 451.588 354.652 450.684 354.653Z" fill="white"/>
<path d="M441.372 159.625C458.443 159.625 472.282 145.266 472.282 127.552C472.282 109.839 458.443 95.4791 441.372 95.4791C424.301 95.4791 410.462 109.839 410.462 127.552C410.462 145.266 424.301 159.625 441.372 159.625Z" fill="#6C63FF"/>
<path d="M517.967 174.194L410.924 214.119C410.59 214.244 410.235 214.3 409.88 214.283C409.525 214.266 409.176 214.177 408.854 214.02C408.533 213.863 408.244 213.642 408.004 213.369C407.765 213.096 407.58 212.777 407.46 212.43C407.339 212.083 407.286 211.714 407.303 211.346C407.321 210.977 407.408 210.616 407.56 210.282C407.711 209.949 407.925 209.649 408.189 209.402C408.452 209.154 408.76 208.963 409.095 208.839L516.138 168.914C516.812 168.664 517.554 168.702 518.202 169.02C518.849 169.337 519.348 169.908 519.59 170.607C519.833 171.306 519.798 172.076 519.493 172.749C519.189 173.421 518.64 173.941 517.967 174.194Z" fill="#E6E6E6"/>
<path d="M486.179 199.508L450.97 212.64C450.635 212.766 450.28 212.822 449.925 212.805C449.57 212.788 449.222 212.698 448.9 212.541C448.578 212.384 448.289 212.163 448.05 211.89C447.811 211.617 447.626 211.298 447.506 210.951C447.385 210.604 447.332 210.236 447.349 209.867C447.366 209.499 447.453 209.137 447.605 208.804C447.757 208.47 447.971 208.171 448.234 207.923C448.498 207.675 448.806 207.484 449.14 207.36L484.35 194.228C485.025 193.976 485.768 194.013 486.417 194.33C487.066 194.647 487.566 195.218 487.809 195.919C488.051 196.619 488.016 197.391 487.71 198.064C487.405 198.737 486.854 199.256 486.179 199.508Z" fill="#E6E6E6"/>
<path d="M494.553 223.682L459.344 236.815C459.01 236.939 458.655 236.995 458.301 236.977C457.946 236.96 457.598 236.87 457.277 236.713C456.956 236.556 456.667 236.334 456.429 236.062C456.19 235.789 456.005 235.47 455.885 235.124C455.765 234.777 455.712 234.409 455.729 234.041C455.746 233.673 455.832 233.312 455.983 232.979C456.135 232.645 456.348 232.346 456.611 232.099C456.873 231.851 457.181 231.659 457.515 231.534L492.724 218.402C493.399 218.15 494.143 218.187 494.791 218.504C495.44 218.821 495.941 219.393 496.183 220.093C496.426 220.793 496.39 221.565 496.085 222.238C495.779 222.911 495.228 223.431 494.553 223.682Z" fill="#E6E6E6"/>
<path d="M498.843 236.064L463.634 249.197C463.299 249.323 462.944 249.379 462.589 249.362C462.234 249.345 461.885 249.255 461.563 249.099C461.241 248.942 460.952 248.721 460.713 248.448C460.474 248.175 460.288 247.855 460.168 247.508C460.048 247.161 459.995 246.792 460.012 246.424C460.029 246.055 460.116 245.694 460.268 245.36C460.42 245.027 460.634 244.727 460.898 244.48C461.161 244.232 461.469 244.041 461.804 243.917L497.014 230.784C497.348 230.659 497.703 230.603 498.058 230.62C498.414 230.637 498.762 230.726 499.084 230.883C499.406 231.04 499.695 231.261 499.934 231.534C500.173 231.807 500.358 232.126 500.479 232.473C500.599 232.82 500.652 233.189 500.635 233.557C500.618 233.926 500.531 234.287 500.379 234.621C500.227 234.954 500.013 235.254 499.749 235.501C499.486 235.749 499.178 235.94 498.843 236.064Z" fill="#E6E6E6"/>
<path d="M510.054 204.061L435.352 231.923C435.017 232.049 434.662 232.105 434.307 232.088C433.952 232.071 433.604 231.981 433.282 231.824C432.96 231.667 432.671 231.446 432.432 231.173C432.192 230.901 432.007 230.581 431.887 230.234C431.767 229.887 431.714 229.519 431.731 229.15C431.748 228.781 431.835 228.42 431.987 228.086C432.139 227.753 432.353 227.454 432.616 227.206C432.88 226.958 433.188 226.767 433.523 226.643L508.225 198.78C508.559 198.655 508.914 198.599 509.269 198.616C509.625 198.633 509.973 198.722 510.295 198.879C510.617 199.036 510.906 199.257 511.145 199.53C511.384 199.803 511.569 200.122 511.69 200.469C511.81 200.816 511.863 201.185 511.846 201.553C511.829 201.922 511.742 202.283 511.59 202.617C511.438 202.951 511.224 203.25 510.961 203.497C510.697 203.745 510.389 203.937 510.054 204.061Z" fill="#E6E6E6"/>
<path d="M495.007 266.122L482.223 270.89C481.075 271.317 479.812 271.254 478.709 270.715C477.607 270.175 476.756 269.204 476.344 268.014C475.932 266.823 475.991 265.512 476.511 264.368C477.03 263.224 477.965 262.34 479.112 261.911L491.896 257.143C493.044 256.716 494.307 256.779 495.41 257.319C496.512 257.858 497.363 258.83 497.775 260.02C498.188 261.21 498.128 262.521 497.608 263.666C497.089 264.81 496.154 265.693 495.007 266.122Z" fill="#6C63FF"/>
<path d="M394.262 55.7516C395.244 55.7516 396.04 54.9256 396.04 53.9068C396.04 52.8879 395.244 52.062 394.262 52.062C393.28 52.062 392.484 52.8879 392.484 53.9068C392.484 54.9256 393.28 55.7516 394.262 55.7516Z" fill="white"/>
<path d="M771.924 568.262C773.549 561.829 777.451 556.268 782.852 552.688C783.388 552.334 782.829 551.491 782.295 551.844C776.681 555.581 772.632 561.376 770.955 568.074C770.796 568.713 771.766 568.897 771.924 568.262Z" fill="white"/>
<path d="M874.872 408.754L841.741 466.604L843 467.293L831.781 489.364L829.445 488.081L822.073 500.946L823.904 502.039L811.884 523.635L809.8 522.387L701.696 711.167C698.861 716.107 694.252 719.678 688.882 721.097C683.512 722.516 677.819 721.666 673.052 718.733L472.08 594.825C467.319 591.884 463.876 587.102 462.509 581.53C461.142 575.957 461.961 570.05 464.788 565.104L637.964 262.691C640.799 257.751 645.407 254.18 650.777 252.761C656.147 251.342 661.84 252.192 666.607 255.124L867.579 379.033C872.339 381.976 875.779 386.758 877.146 392.329C878.513 397.901 877.695 403.807 874.872 408.754Z" fill="#6C63FF"/>
<path d="M680.215 707.06L478.535 582.716C477.067 581.809 476.006 580.335 475.585 578.618C475.164 576.9 475.416 575.079 476.287 573.555L650.612 269.13C651.486 267.607 652.907 266.507 654.562 266.07C656.217 265.632 657.972 265.894 659.441 266.798L861.121 391.142C862.589 392.049 863.649 393.523 864.071 395.241C864.492 396.958 864.24 398.779 863.369 400.303L689.044 704.728C688.17 706.251 686.749 707.351 685.094 707.788C683.439 708.226 681.684 707.964 680.215 707.06Z" fill="white"/>
<path d="M763.06 324.158C764.042 324.158 764.837 323.332 764.837 322.314C764.837 321.295 764.042 320.469 763.06 320.469C762.078 320.469 761.282 321.295 761.282 322.314C761.282 323.332 762.078 324.158 763.06 324.158Z" fill="white"/>
<path d="M752.057 542.229L583.704 438.433C583.176 438.11 582.715 437.683 582.346 437.174C581.978 436.666 581.71 436.088 581.558 435.472C581.405 434.856 581.372 434.215 581.459 433.585C581.546 432.956 581.752 432.351 582.065 431.804C582.378 431.257 582.792 430.78 583.283 430.4C583.774 430.02 584.333 429.744 584.927 429.588C585.521 429.433 586.139 429.4 586.745 429.493C587.351 429.586 587.934 429.802 588.46 430.129L756.812 533.925C757.34 534.247 757.802 534.675 758.17 535.183C758.538 535.691 758.806 536.27 758.959 536.886C759.111 537.502 759.145 538.143 759.058 538.772C758.971 539.402 758.765 540.007 758.452 540.554C758.139 541.1 757.725 541.577 757.233 541.958C756.742 542.338 756.184 542.614 755.589 542.77C754.995 542.925 754.377 542.958 753.771 542.865C753.165 542.772 752.582 542.556 752.057 542.229Z" fill="#E6E6E6"/>
<path d="M684.834 526.146L629.458 492.004C628.933 491.68 628.473 491.252 628.107 490.744C627.741 490.236 627.475 489.658 627.324 489.043C627.173 488.429 627.141 487.789 627.228 487.161C627.315 486.533 627.521 485.929 627.833 485.384C628.146 484.839 628.558 484.363 629.048 483.983C629.538 483.603 630.095 483.327 630.687 483.17C631.28 483.014 631.896 482.98 632.501 483.071C633.106 483.162 633.688 483.375 634.214 483.699L689.59 517.841C690.115 518.165 690.574 518.593 690.94 519.101C691.306 519.609 691.572 520.187 691.723 520.802C691.874 521.416 691.906 522.056 691.819 522.684C691.732 523.312 691.526 523.915 691.214 524.461C690.901 525.006 690.489 525.482 689.999 525.862C689.509 526.242 688.953 526.518 688.36 526.674C687.768 526.831 687.151 526.865 686.546 526.774C685.941 526.683 685.359 526.47 684.834 526.146Z" fill="#E6E6E6"/>
<path d="M663.062 564.167L607.687 530.025C606.625 529.371 605.858 528.306 605.554 527.064C605.25 525.823 605.433 524.507 606.063 523.406C606.694 522.305 607.72 521.508 608.916 521.192C610.113 520.876 611.381 521.066 612.442 521.72L667.818 555.862C668.344 556.186 668.802 556.614 669.168 557.122C669.534 557.63 669.801 558.208 669.951 558.823C670.102 559.437 670.135 560.077 670.047 560.705C669.96 561.332 669.754 561.936 669.442 562.481C669.13 563.027 668.717 563.503 668.227 563.883C667.738 564.262 667.181 564.538 666.588 564.695C665.996 564.851 665.38 564.885 664.775 564.795C664.17 564.704 663.588 564.491 663.062 564.167Z" fill="#E6E6E6"/>
<path d="M651.911 583.64L596.535 549.499C596.008 549.176 595.548 548.748 595.18 548.24C594.813 547.732 594.546 547.153 594.394 546.538C594.242 545.922 594.209 545.282 594.296 544.653C594.383 544.024 594.589 543.42 594.902 542.873C595.214 542.327 595.628 541.851 596.118 541.471C596.609 541.09 597.167 540.815 597.76 540.659C598.354 540.503 598.971 540.47 599.577 540.562C600.183 540.654 600.765 540.869 601.291 541.194L656.666 575.336C657.194 575.658 657.656 576.086 658.024 576.594C658.393 577.102 658.661 577.681 658.813 578.297C658.966 578.913 658.999 579.554 658.912 580.184C658.825 580.813 658.62 581.418 658.307 581.965C657.993 582.512 657.579 582.989 657.088 583.369C656.597 583.75 656.038 584.025 655.444 584.181C654.85 584.337 654.232 584.369 653.626 584.276C653.019 584.183 652.437 583.967 651.911 583.64Z" fill="#E6E6E6"/>
<path d="M705.158 564.037L587.669 491.6C586.613 490.943 585.851 489.879 585.55 488.64C585.248 487.401 585.432 486.089 586.061 484.991C586.69 483.892 587.713 483.097 588.906 482.78C590.098 482.462 591.364 482.648 592.425 483.296L709.913 555.733C710.442 556.055 710.903 556.483 711.272 556.991C711.64 557.499 711.908 558.078 712.06 558.694C712.213 559.31 712.246 559.951 712.16 560.58C712.073 561.21 711.867 561.815 711.554 562.362C711.24 562.909 710.826 563.386 710.335 563.766C709.844 564.146 709.285 564.422 708.691 564.578C708.097 564.733 707.479 564.766 706.873 564.673C706.266 564.58 705.684 564.364 705.158 564.037Z" fill="#E6E6E6"/>
<path d="M682.764 656.611L662.657 644.215C660.855 643.101 659.553 641.29 659.037 639.18C658.52 637.07 658.832 634.834 659.904 632.963C660.975 631.092 662.719 629.738 664.751 629.2C666.784 628.662 668.939 628.983 670.744 630.093L690.851 642.49C692.655 643.602 693.96 645.413 694.478 647.524C694.996 649.635 694.684 651.873 693.612 653.746C692.54 655.618 690.794 656.972 688.76 657.51C686.726 658.047 684.569 657.724 682.764 656.611Z" fill="#6C63FF"/>
<path d="M720.278 455.335C743.04 455.335 761.492 436.189 761.492 412.571C761.492 388.953 743.04 369.807 720.278 369.807C697.517 369.807 679.065 388.953 679.065 412.571C679.065 436.189 697.517 455.335 720.278 455.335Z" fill="#6C63FF"/>
<path d="M44.5693 586.348H602.301V251.307C602.298 248.796 601.335 246.39 599.625 244.614C597.914 242.839 595.595 241.841 593.175 241.838H53.6946C51.2753 241.841 48.9559 242.839 47.2452 244.614C45.5344 246.39 44.5721 248.796 44.5693 251.307V586.348Z" fill="#CACACA"/>
<path d="M585.069 254.934H61.8013V563.179H585.069V254.934Z" fill="white"/>
<path d="M44.084 577.282V618.626C44.084 620.34 44.4093 622.038 45.0414 623.621C45.6735 625.205 46.6 626.643 47.768 627.855C48.9361 629.067 50.3227 630.029 51.8488 630.685C53.3749 631.341 55.0105 631.678 56.6623 631.678H262.517V713.273H259.782C259.567 713.273 259.355 713.317 259.157 713.402C258.958 713.487 258.778 713.612 258.627 713.769C258.475 713.927 258.354 714.114 258.272 714.319C258.19 714.525 258.148 714.745 258.148 714.968V720.643C258.148 720.866 258.19 721.086 258.272 721.292C258.354 721.498 258.475 721.685 258.626 721.842C258.778 722 258.958 722.125 259.157 722.21C259.355 722.295 259.567 722.339 259.782 722.339H387.574C387.788 722.339 388.001 722.295 388.199 722.21C388.397 722.125 388.577 722 388.729 721.842C388.881 721.685 389.001 721.498 389.083 721.292C389.165 721.086 389.208 720.866 389.208 720.643V714.968C389.208 714.746 389.165 714.525 389.083 714.319C389.001 714.114 388.881 713.927 388.729 713.769C388.577 713.612 388.397 713.487 388.199 713.402C388.001 713.317 387.788 713.273 387.574 713.273H384.839V631.678H590.693C592.345 631.678 593.981 631.341 595.507 630.685C597.033 630.029 598.419 629.068 599.587 627.856C600.755 626.644 601.682 625.205 602.314 623.621C602.946 622.038 603.271 620.34 603.271 618.626V577.282L44.084 577.282Z" fill="#6C63FF"/>
<path d="M509.352 358.023H261.552C259.99 358.023 258.492 357.379 257.387 356.233C256.283 355.087 255.662 353.532 255.662 351.911C255.662 350.29 256.283 348.736 257.387 347.589C258.492 346.443 259.99 345.799 261.552 345.799H509.352C510.914 345.799 512.412 346.443 513.516 347.589C514.621 348.736 515.242 350.29 515.242 351.911C515.242 353.532 514.621 355.087 513.516 356.233C512.412 357.379 510.914 358.023 509.352 358.023Z" fill="#E6E6E6"/>
<path d="M426.206 385.612H344.697C343.135 385.612 341.637 384.968 340.532 383.822C339.428 382.676 338.807 381.121 338.807 379.5C338.807 377.879 339.428 376.325 340.532 375.178C341.637 374.032 343.135 373.388 344.697 373.388H426.206C427.768 373.388 429.266 374.032 430.371 375.178C431.475 376.325 432.096 377.879 432.096 379.5C432.096 381.121 431.475 382.676 430.371 383.822C429.266 384.968 427.768 385.612 426.206 385.612Z" fill="#E6E6E6"/>
<path d="M426.206 441.575H344.697C343.135 441.575 341.637 440.931 340.532 439.785C339.428 438.639 338.807 437.084 338.807 435.463C338.807 433.842 339.428 432.287 340.532 431.141C341.637 429.995 343.135 429.351 344.697 429.351H426.206C427.768 429.351 429.266 429.995 430.371 431.141C431.475 432.287 432.096 433.842 432.096 435.463C432.096 437.084 431.475 438.639 430.371 439.785C429.266 440.931 427.768 441.575 426.206 441.575Z" fill="#E6E6E6"/>
<path d="M426.206 470.239H344.698C343.924 470.239 343.158 470.081 342.444 469.773C341.729 469.466 341.08 469.016 340.533 468.449C339.986 467.881 339.552 467.207 339.256 466.466C338.96 465.724 338.808 464.93 338.808 464.127C338.808 463.324 338.96 462.53 339.256 461.788C339.552 461.047 339.986 460.373 340.533 459.805C341.08 459.238 341.729 458.788 342.444 458.481C343.158 458.173 343.924 458.015 344.698 458.015H426.206C426.979 458.015 427.745 458.173 428.46 458.481C429.175 458.788 429.824 459.238 430.371 459.805C430.918 460.373 431.352 461.047 431.648 461.788C431.944 462.53 432.096 463.324 432.096 464.127C432.096 464.93 431.944 465.724 431.648 466.466C431.352 467.207 430.918 467.881 430.371 468.449C429.824 469.016 429.175 469.466 428.46 469.773C427.745 470.081 426.979 470.239 426.206 470.239Z" fill="#E6E6E6"/>
<path d="M471.919 413.201H298.986C297.424 413.201 295.925 412.557 294.821 411.411C293.716 410.265 293.096 408.71 293.096 407.089C293.096 405.468 293.716 403.914 294.821 402.768C295.925 401.621 297.424 400.978 298.986 400.978H471.919C473.481 400.978 474.979 401.621 476.084 402.768C477.188 403.914 477.809 405.468 477.809 407.089C477.809 408.71 477.188 410.265 476.084 411.411C474.979 412.557 473.481 413.201 471.919 413.201Z" fill="#E6E6E6"/>
<path d="M505.226 528.926H475.631C472.974 528.926 470.427 527.831 468.548 525.882C466.67 523.933 465.615 521.29 465.615 518.533C465.615 515.777 466.67 513.133 468.548 511.184C470.427 509.235 472.974 508.14 475.631 508.14H505.226C507.882 508.14 510.43 509.235 512.308 511.184C514.187 513.133 515.242 515.777 515.242 518.533C515.242 521.29 514.187 523.933 512.308 525.882C510.43 527.831 507.882 528.926 505.226 528.926Z" fill="#6C63FF"/>
<path d="M183.63 453.495C212.082 453.495 235.147 429.563 235.147 400.04C235.147 370.518 212.082 346.585 183.63 346.585C155.179 346.585 132.114 370.518 132.114 400.04C132.114 429.563 155.179 453.495 183.63 453.495Z" fill="#6C63FF"/>
<path d="M786.479 724.544H45.4475C45.0867 724.543 44.741 724.393 44.4862 724.128C44.2315 723.863 44.0884 723.504 44.0884 723.129C44.0884 722.755 44.2315 722.396 44.4862 722.131C44.741 721.865 45.0867 721.716 45.4475 721.715H786.479C786.839 721.716 787.185 721.865 787.44 722.131C787.695 722.396 787.838 722.755 787.838 723.129C787.838 723.504 787.695 723.863 787.44 724.128C787.185 724.393 786.839 724.543 786.479 724.544Z" fill="#CACACA"/>
<path d="M323.192 248.386C324.264 248.386 325.134 247.484 325.134 246.371C325.134 245.259 324.264 244.357 323.192 244.357C322.12 244.357 321.25 245.259 321.25 246.371C321.25 247.484 322.12 248.386 323.192 248.386Z" fill="white"/>
<path d="M178.51 421.095C177.802 421.095 177.104 420.924 176.471 420.595C175.838 420.266 175.287 419.789 174.862 419.202L163.678 403.727C163.318 403.23 163.057 402.665 162.908 402.063C162.76 401.461 162.727 400.834 162.811 400.219C162.896 399.604 163.097 399.012 163.402 398.477C163.707 397.943 164.111 397.476 164.59 397.103C165.069 396.73 165.614 396.459 166.194 396.305C166.774 396.15 167.378 396.116 167.971 396.204C168.564 396.292 169.134 396.5 169.649 396.817C170.165 397.133 170.615 397.552 170.974 398.049L178.291 408.172L197.085 378.921C197.758 377.882 198.8 377.161 199.984 376.917C201.168 376.673 202.397 376.927 203.401 377.621C204.406 378.316 205.104 379.396 205.342 380.623C205.581 381.851 205.341 383.127 204.674 384.171L182.305 418.987C181.9 419.617 181.356 420.137 180.718 420.503C180.08 420.87 179.366 421.072 178.637 421.093C178.595 421.094 178.552 421.095 178.51 421.095Z" fill="white"/>
<path d="M715.325 427.64C714.793 427.64 714.269 427.511 713.793 427.264C713.317 427.017 712.904 426.659 712.585 426.217L704.182 414.591C703.912 414.217 703.715 413.792 703.604 413.34C703.492 412.888 703.467 412.417 703.531 411.955C703.595 411.493 703.745 411.048 703.975 410.646C704.204 410.245 704.507 409.894 704.867 409.614C705.227 409.333 705.637 409.13 706.072 409.014C706.508 408.898 706.962 408.872 707.407 408.938C707.853 409.004 708.281 409.161 708.668 409.399C709.055 409.637 709.394 409.951 709.664 410.325L715.161 417.93L729.28 395.953C729.786 395.172 730.569 394.63 731.458 394.447C732.348 394.264 733.271 394.454 734.026 394.976C734.78 395.498 735.305 396.309 735.484 397.232C735.663 398.154 735.482 399.113 734.982 399.897L718.176 426.056C717.872 426.53 717.463 426.92 716.984 427.195C716.504 427.471 715.968 427.623 715.42 427.639C715.389 427.639 715.357 427.64 715.325 427.64Z" fill="white"/>
<path d="M437.735 141.359C437.28 141.359 436.83 141.248 436.422 141.037C436.014 140.825 435.66 140.518 435.386 140.139L428.184 130.174C427.953 129.854 427.784 129.489 427.689 129.102C427.593 128.714 427.572 128.311 427.626 127.914C427.681 127.518 427.81 127.137 428.006 126.793C428.203 126.449 428.463 126.148 428.771 125.908C429.08 125.668 429.431 125.493 429.805 125.393C430.178 125.294 430.567 125.272 430.949 125.329C431.33 125.385 431.698 125.52 432.03 125.723C432.361 125.927 432.651 126.197 432.883 126.517L437.595 133.036L449.697 114.199C450.13 113.529 450.802 113.065 451.564 112.908C452.326 112.751 453.118 112.914 453.764 113.361C454.411 113.809 454.861 114.504 455.014 115.295C455.168 116.085 455.013 116.907 454.584 117.579L440.179 140.002C439.919 140.407 439.568 140.742 439.157 140.978C438.746 141.214 438.287 141.344 437.817 141.358C437.79 141.358 437.763 141.359 437.735 141.359Z" fill="white"/>
</svg>
