<svg width="1243" height="1034" viewBox="0 0 1243 1034" fill="none" xmlns="http://www.w3.org/2000/svg">
<path d="M792.437 410.573L705.743 159.414L707.942 158.591L691.998 112.396L689.799 113.22L663.18 36.1067C662.186 33.2266 660.657 30.5786 658.681 28.3139C656.704 26.0491 654.318 24.2121 651.659 22.9076C649.001 21.6031 646.122 20.8566 643.186 20.7109C640.25 20.5652 637.316 21.023 634.55 22.0583L477.827 80.7242C475.061 81.7594 472.518 83.3517 470.343 85.4103C468.169 87.4688 466.404 89.9533 465.152 92.7219C463.899 95.4904 463.182 98.4888 463.042 101.546C462.902 104.603 463.342 107.659 464.336 110.539L482.895 164.307L479.421 165.7L491.269 197.738L494.05 196.623L496.509 203.749L493.55 204.936L505.398 236.974L507.664 236.065L593.592 485.005C594.582 487.889 596.108 490.541 598.084 492.809C600.06 495.077 602.446 496.916 605.106 498.221C607.766 499.527 610.647 500.272 613.585 500.415C616.522 500.558 619.458 500.096 622.223 499.055L778.946 440.389C784.527 438.292 789.082 433.975 791.611 428.386C794.14 422.796 794.437 416.39 792.437 410.573Z" fill="#3F3D56"/>
<path d="M613.981 490.777C611.774 490.772 609.622 490.059 607.817 488.736C606.013 487.412 604.644 485.543 603.895 483.38L473.275 104.962C472.314 102.174 472.454 99.1036 473.667 96.4245C474.879 93.7453 477.063 91.6773 479.74 90.6753L513.085 78.193L513.036 79.408C512.95 81.517 513.364 83.6156 514.241 85.5189C515.117 87.4221 516.43 89.0717 518.063 90.3221C519.696 91.5726 521.6 92.3856 523.606 92.6895C525.611 92.9935 527.658 92.779 529.566 92.0651L603.57 64.3634C605.357 63.5111 606.925 62.2328 608.149 60.6321C609.373 59.0313 610.218 57.153 610.616 55.1492C611.009 53.1787 610.949 51.1393 610.442 49.1974C609.934 47.2554 608.993 45.466 607.694 43.9752L606.913 43.0707L641.358 30.1766C644.034 29.1789 646.982 29.3273 649.554 30.5894C652.126 31.8515 654.112 34.1241 655.077 36.909L779.7 397.952C782.244 405.348 781.866 413.493 778.65 420.6C775.434 427.706 769.643 433.194 762.547 435.86L617.615 490.113C616.449 490.551 615.22 490.775 613.981 490.777Z" fill="white"/>
<path d="M601.212 222.372C624.621 222.372 643.598 202.61 643.598 178.232C643.598 153.854 624.621 134.092 601.212 134.092C577.803 134.092 558.826 153.854 558.826 178.232C558.826 202.61 577.803 222.372 601.212 222.372Z" fill="#6C63FF"/>
<path d="M706.245 242.422L559.459 297.368C559.001 297.541 558.514 297.618 558.027 297.595C557.54 297.571 557.062 297.448 556.62 297.232C556.179 297.016 555.783 296.712 555.455 296.336C555.127 295.961 554.873 295.522 554.708 295.044C554.543 294.566 554.47 294.059 554.494 293.552C554.517 293.045 554.636 292.547 554.845 292.088C555.053 291.629 555.346 291.217 555.708 290.876C556.069 290.535 556.491 290.272 556.951 290.101L703.737 235.155C704.661 234.812 705.679 234.864 706.566 235.301C707.454 235.738 708.139 236.524 708.471 237.486C708.803 238.448 708.755 239.508 708.338 240.433C707.921 241.358 707.168 242.074 706.245 242.422Z" fill="#E6E6E6"/>
<path d="M662.654 277.26L614.372 295.334C613.914 295.506 613.427 295.583 612.94 295.56C612.453 295.536 611.975 295.413 611.534 295.197C611.093 294.981 610.697 294.677 610.369 294.301C610.041 293.926 609.787 293.486 609.622 293.009C609.457 292.531 609.384 292.024 609.408 291.517C609.431 291.01 609.55 290.513 609.759 290.053C609.967 289.594 610.26 289.183 610.621 288.842C610.982 288.501 611.405 288.237 611.864 288.066L660.146 269.993C661.071 269.647 662.091 269.697 662.98 270.134C663.87 270.57 664.556 271.357 664.889 272.321C665.222 273.284 665.173 274.346 664.754 275.273C664.335 276.199 663.58 276.914 662.654 277.26Z" fill="#E6E6E6"/>
<path d="M674.138 310.53L625.856 328.604C625.397 328.775 624.911 328.851 624.425 328.827C623.938 328.803 623.461 328.679 623.021 328.463C622.581 328.247 622.185 327.942 621.858 327.567C621.53 327.192 621.277 326.753 621.112 326.276C620.947 325.799 620.875 325.293 620.898 324.786C620.921 324.28 621.04 323.783 621.247 323.324C621.455 322.866 621.747 322.454 622.107 322.113C622.468 321.772 622.889 321.508 623.347 321.336L671.629 303.263C672.555 302.917 673.574 302.967 674.464 303.404C675.353 303.84 676.04 304.627 676.373 305.591C676.705 306.554 676.657 307.616 676.237 308.542C675.818 309.469 675.063 310.184 674.138 310.53Z" fill="#E6E6E6"/>
<path d="M680.02 327.571L631.738 345.644C631.28 345.817 630.793 345.894 630.306 345.871C629.819 345.848 629.341 345.725 628.899 345.509C628.458 345.293 628.062 344.989 627.733 344.613C627.405 344.237 627.151 343.798 626.986 343.32C626.821 342.842 626.748 342.335 626.772 341.828C626.795 341.321 626.915 340.823 627.123 340.364C627.332 339.905 627.625 339.493 627.987 339.152C628.348 338.811 628.771 338.548 629.23 338.377L677.512 320.304C677.97 320.131 678.457 320.054 678.944 320.077C679.431 320.101 679.909 320.224 680.351 320.44C680.792 320.656 681.188 320.96 681.516 321.336C681.844 321.711 682.098 322.151 682.263 322.628C682.428 323.106 682.501 323.613 682.477 324.12C682.454 324.628 682.335 325.125 682.126 325.584C681.918 326.043 681.625 326.455 681.263 326.796C680.902 327.137 680.48 327.4 680.02 327.571Z" fill="#E6E6E6"/>
<path d="M695.394 283.526L592.956 321.871C592.497 322.044 592.01 322.121 591.523 322.098C591.036 322.075 590.558 321.951 590.117 321.736C589.676 321.52 589.28 321.215 588.951 320.84C588.623 320.464 588.369 320.025 588.204 319.547C588.04 319.069 587.967 318.562 587.99 318.055C588.014 317.548 588.133 317.05 588.341 316.591C588.55 316.132 588.843 315.72 589.204 315.38C589.566 315.039 589.988 314.775 590.447 314.605L692.886 276.259C693.344 276.086 693.831 276.009 694.318 276.033C694.805 276.056 695.283 276.179 695.724 276.395C696.165 276.611 696.562 276.915 696.89 277.291C697.218 277.666 697.472 278.106 697.637 278.583C697.802 279.061 697.874 279.568 697.851 280.075C697.827 280.583 697.708 281.08 697.5 281.539C697.291 281.998 696.998 282.41 696.637 282.751C696.275 283.092 695.853 283.355 695.394 283.526Z" fill="#E6E6E6"/>
<path d="M674.76 368.937L657.229 375.499C655.655 376.087 653.922 376 652.411 375.258C650.899 374.515 649.732 373.178 649.167 371.54C648.602 369.902 648.684 368.098 649.396 366.523C650.108 364.948 651.391 363.732 652.963 363.142L670.494 356.58C672.067 355.992 673.8 356.079 675.312 356.822C676.824 357.564 677.99 358.901 678.556 360.539C679.121 362.177 679.039 363.982 678.327 365.556C677.615 367.131 676.332 368.347 674.76 368.937Z" fill="#6C63FF"/>
<path d="M536.61 79.4168C537.957 79.4168 539.048 78.2801 539.048 76.8779C539.048 75.4757 537.957 74.3391 536.61 74.3391C535.264 74.3391 534.172 75.4757 534.172 76.8779C534.172 78.2801 535.264 79.4168 536.61 79.4168Z" fill="white"/>
<path d="M1054.49 784.755C1056.72 775.902 1062.07 768.249 1069.48 763.322C1070.21 762.834 1069.45 761.673 1068.71 762.16C1061.02 767.303 1055.46 775.279 1053.16 784.496C1052.95 785.375 1054.28 785.629 1054.49 784.755Z" fill="white"/>
<path d="M1195.66 565.233L1150.23 644.849L1151.96 645.797L1136.57 676.172L1133.37 674.406L1123.26 692.112L1125.77 693.616L1109.29 723.337L1106.43 721.62L958.188 981.426C954.301 988.225 947.982 993.14 940.618 995.092C933.254 997.045 925.447 995.875 918.91 991.84L643.32 821.312C636.791 817.264 632.07 810.683 630.195 803.014C628.321 795.345 629.444 787.215 633.32 780.408L870.794 364.216C874.682 357.417 881.001 352.501 888.365 350.549C895.729 348.597 903.535 349.767 910.072 353.802L1185.66 524.33C1192.19 528.381 1196.91 534.961 1198.78 542.629C1200.66 550.297 1199.53 558.426 1195.66 565.233Z" fill="#3F3D56"/>
<path d="M928.732 975.774L652.171 804.647C650.159 803.399 648.705 801.37 648.127 799.007C647.549 796.643 647.895 794.137 649.089 792.039L888.139 373.077C889.338 370.982 891.285 369.467 893.555 368.865C895.825 368.264 898.231 368.624 900.246 369.868L1176.81 540.995C1178.82 542.243 1180.27 544.272 1180.85 546.635C1181.43 548.999 1181.08 551.505 1179.89 553.603L940.84 972.565C939.641 974.66 937.693 976.175 935.423 976.777C933.153 977.378 930.747 977.018 928.732 975.774Z" fill="white"/>
<path d="M1042.34 448.809C1043.68 448.809 1044.77 447.673 1044.77 446.27C1044.77 444.868 1043.68 443.732 1042.34 443.732C1040.99 443.732 1039.9 444.868 1039.9 446.27C1039.9 447.673 1040.99 448.809 1042.34 448.809Z" fill="white"/>
<path d="M1027.25 748.927L796.389 606.079C795.665 605.635 795.032 605.046 794.527 604.347C794.022 603.647 793.654 602.851 793.445 602.003C793.237 601.156 793.19 600.273 793.31 599.407C793.429 598.541 793.712 597.708 794.141 596.956C794.57 596.203 795.138 595.547 795.811 595.023C796.485 594.5 797.251 594.12 798.066 593.906C798.88 593.692 799.728 593.647 800.559 593.775C801.39 593.903 802.189 594.2 802.91 594.65L1033.77 737.498C1034.49 737.942 1035.13 738.531 1035.63 739.23C1036.14 739.93 1036.5 740.726 1036.71 741.574C1036.92 742.421 1036.97 743.303 1036.85 744.17C1036.73 745.036 1036.45 745.869 1036.02 746.621C1035.59 747.374 1035.02 748.03 1034.35 748.554C1033.67 749.077 1032.91 749.457 1032.09 749.671C1031.28 749.885 1030.43 749.93 1029.6 749.802C1028.77 749.674 1027.97 749.377 1027.25 748.927Z" fill="#E6E6E6"/>
<path d="M935.067 726.793L859.131 679.806C858.41 679.36 857.78 678.771 857.278 678.071C856.776 677.372 856.411 676.577 856.204 675.731C855.997 674.885 855.953 674.005 856.072 673.14C856.192 672.276 856.474 671.445 856.902 670.695C857.331 669.944 857.897 669.289 858.568 668.766C859.24 668.243 860.004 667.863 860.816 667.648C861.629 667.433 862.474 667.386 863.304 667.511C864.133 667.636 864.931 667.93 865.652 668.376L941.588 715.363C942.309 715.809 942.938 716.398 943.44 717.098C943.942 717.797 944.307 718.592 944.513 719.438C944.72 720.284 944.765 721.164 944.645 722.028C944.525 722.892 944.243 723.723 943.815 724.473C943.387 725.224 942.821 725.879 942.149 726.402C941.478 726.925 940.714 727.305 939.902 727.52C939.09 727.735 938.245 727.782 937.415 727.657C936.585 727.532 935.787 727.239 935.067 726.793Z" fill="#E6E6E6"/>
<path d="M905.211 779.118L829.275 732.131C827.82 731.231 826.768 729.765 826.35 728.057C825.933 726.348 826.184 724.537 827.049 723.022C827.914 721.506 829.321 720.41 830.961 719.975C832.602 719.54 834.341 719.802 835.796 720.702L911.732 767.689C912.453 768.135 913.082 768.724 913.584 769.423C914.086 770.122 914.451 770.918 914.658 771.764C914.864 772.61 914.909 773.49 914.789 774.354C914.67 775.218 914.387 776.049 913.959 776.799C913.531 777.55 912.965 778.205 912.294 778.728C911.622 779.25 910.859 779.63 910.046 779.845C909.234 780.061 908.389 780.107 907.559 779.983C906.729 779.858 905.931 779.564 905.211 779.118Z" fill="#E6E6E6"/>
<path d="M889.92 805.919L813.984 758.932C813.261 758.487 812.63 757.898 812.126 757.199C811.622 756.5 811.255 755.704 811.047 754.857C810.839 754.01 810.794 753.129 810.913 752.263C811.033 751.398 811.315 750.566 811.744 749.814C812.173 749.062 812.74 748.406 813.412 747.883C814.085 747.36 814.85 746.98 815.664 746.766C816.478 746.551 817.324 746.506 818.155 746.632C818.986 746.759 819.784 747.055 820.505 747.503L896.441 794.49C897.165 794.934 897.798 795.522 898.303 796.222C898.808 796.921 899.176 797.718 899.385 798.565C899.594 799.413 899.64 800.295 899.521 801.162C899.401 802.028 899.119 802.861 898.69 803.614C898.261 804.366 897.693 805.023 897.019 805.546C896.346 806.069 895.579 806.449 894.765 806.663C893.95 806.877 893.102 806.922 892.271 806.794C891.439 806.666 890.64 806.369 889.92 805.919Z" fill="#E6E6E6"/>
<path d="M962.936 778.94L801.826 679.25C800.378 678.346 799.332 676.881 798.919 675.176C798.506 673.471 798.758 671.665 799.621 670.154C800.483 668.642 801.886 667.548 803.521 667.111C805.156 666.673 806.892 666.929 808.347 667.821L969.457 767.511C970.181 767.955 970.814 768.544 971.32 769.243C971.825 769.943 972.192 770.739 972.401 771.587C972.61 772.434 972.657 773.317 972.537 774.183C972.418 775.049 972.136 775.882 971.706 776.635C971.277 777.387 970.709 778.044 970.036 778.567C969.362 779.091 968.596 779.47 967.781 779.684C966.966 779.899 966.119 779.943 965.287 779.815C964.456 779.688 963.657 779.39 962.936 778.94Z" fill="#E6E6E6"/>
<path d="M932.229 906.344L904.657 889.284C902.185 887.751 900.399 885.259 899.691 882.355C898.983 879.452 899.411 876.374 900.88 873.799C902.35 871.224 904.741 869.361 907.528 868.62C910.315 867.88 913.271 868.322 915.746 869.849L943.318 886.91C945.792 888.441 947.582 890.933 948.292 893.839C949.002 896.744 948.575 899.824 947.104 902.401C945.634 904.978 943.241 906.842 940.451 907.581C937.661 908.321 934.703 907.876 932.229 906.344Z" fill="#6C63FF"/>
<path d="M983.67 629.34C1014.88 629.34 1040.19 602.99 1040.19 570.486C1040.19 537.982 1014.88 511.632 983.67 511.632C952.458 511.632 927.155 537.982 927.155 570.486C927.155 602.99 952.458 629.34 983.67 629.34Z" fill="#6C63FF"/>
<path d="M56.5 809.451H823.286V349.159C823.282 345.71 821.959 342.404 819.607 339.965C817.255 337.527 814.066 336.155 810.74 336.151H69.0457C65.7196 336.155 62.5308 337.527 60.1788 339.965C57.8269 342.404 56.5038 345.71 56.5 349.159V809.451Z" fill="#CBCCCE"/>
<path d="M808.488 346.908H69.9521V786.593H808.488V346.908Z" fill="white"/>
<path d="M56.416 797.169V854.069C56.416 856.427 56.8621 858.763 57.7289 860.942C58.5957 863.122 59.8662 865.102 61.4679 866.77C63.0696 868.438 64.9711 869.761 67.0638 870.664C69.1565 871.566 71.3994 872.031 73.6645 872.031H355.949V984.325H352.199C351.905 984.325 351.614 984.385 351.342 984.502C351.07 984.619 350.823 984.791 350.615 985.008C350.407 985.225 350.242 985.482 350.129 985.765C350.017 986.048 349.959 986.351 349.959 986.658V994.468C349.959 994.775 350.017 995.078 350.129 995.361C350.242 995.644 350.407 995.902 350.615 996.118C350.823 996.335 351.07 996.507 351.342 996.624C351.614 996.741 351.905 996.802 352.199 996.802H439.819H527.438C527.732 996.802 528.024 996.741 528.296 996.624C528.567 996.507 528.814 996.335 529.022 996.118C529.231 995.902 529.396 995.644 529.508 995.361C529.621 995.078 529.679 994.775 529.679 994.468V986.658C529.679 986.352 529.621 986.048 529.508 985.765C529.396 985.482 529.231 985.225 529.022 985.008C528.814 984.791 528.567 984.619 528.296 984.502C528.024 984.385 527.732 984.325 527.438 984.325H523.688V872.031H805.973C808.238 872.031 810.481 871.566 812.574 870.664C814.666 869.761 816.568 868.438 818.169 866.77C819.771 865.102 821.042 863.122 821.908 860.943C822.775 858.763 823.221 856.427 823.221 854.069V797.169L56.416 797.169Z" fill="#3F3D56"/>
<path d="M694.43 495.415H354.627C352.485 495.415 350.43 494.529 348.915 492.951C347.401 491.374 346.55 489.235 346.55 487.004C346.55 484.773 347.401 482.634 348.915 481.056C350.43 479.479 352.485 478.593 354.627 478.593H694.43C696.572 478.593 698.627 479.479 700.142 481.056C701.656 482.634 702.507 484.773 702.507 487.004C702.507 489.235 701.656 491.374 700.142 492.951C698.627 494.529 696.572 495.415 694.43 495.415Z" fill="#E6E6E6"/>
<path d="M580.414 533.384H468.643C466.501 533.384 464.446 532.498 462.931 530.921C461.416 529.343 460.565 527.204 460.565 524.973C460.565 522.742 461.416 520.602 462.931 519.025C464.446 517.447 466.501 516.561 468.643 516.561H580.414C582.556 516.561 584.61 517.447 586.125 519.025C587.64 520.602 588.491 522.742 588.491 524.973C588.491 527.204 587.64 529.343 586.125 530.921C584.61 532.498 582.556 533.384 580.414 533.384Z" fill="#E6E6E6"/>
<path d="M580.414 610.403H468.643C466.501 610.403 464.446 609.517 462.931 607.939C461.416 606.362 460.565 604.222 460.565 601.991C460.565 599.761 461.416 597.621 462.931 596.044C464.446 594.466 466.501 593.58 468.643 593.58H580.414C582.556 593.58 584.61 594.466 586.125 596.044C587.64 597.621 588.491 599.761 588.491 601.991C588.491 604.222 587.64 606.362 586.125 607.939C584.61 609.517 582.556 610.403 580.414 610.403Z" fill="#E6E6E6"/>
<path d="M580.414 649.851H468.643C467.582 649.851 466.532 649.633 465.552 649.211C464.572 648.788 463.682 648.168 462.932 647.387C462.182 646.606 461.587 645.679 461.181 644.659C460.775 643.638 460.566 642.544 460.566 641.44C460.566 640.335 460.775 639.242 461.181 638.221C461.587 637.201 462.182 636.273 462.932 635.492C463.682 634.711 464.572 634.092 465.552 633.669C466.532 633.246 467.582 633.029 468.643 633.029H580.414C581.474 633.029 582.525 633.246 583.505 633.669C584.485 634.092 585.375 634.711 586.125 635.492C586.875 636.273 587.47 637.201 587.876 638.221C588.282 639.242 588.491 640.335 588.491 641.44C588.491 642.544 588.282 643.638 587.876 644.659C587.47 645.679 586.875 646.606 586.125 647.387C585.375 648.168 584.485 648.788 583.505 649.211C582.525 649.633 581.474 649.851 580.414 649.851Z" fill="#E6E6E6"/>
<path d="M643.099 571.353H405.959C403.817 571.353 401.762 570.467 400.248 568.89C398.733 567.312 397.882 565.173 397.882 562.942C397.882 560.711 398.733 558.572 400.248 556.994C401.762 555.417 403.817 554.531 405.959 554.531H643.099C645.241 554.531 647.296 555.417 648.81 556.994C650.325 558.572 651.176 560.711 651.176 562.942C651.176 565.173 650.325 567.312 648.81 568.89C647.296 570.467 645.241 571.353 643.099 571.353Z" fill="#E6E6E6"/>
<path d="M688.773 730.619H648.19C644.547 730.619 641.054 729.112 638.478 726.43C635.902 723.747 634.455 720.109 634.455 716.316C634.455 712.523 635.902 708.885 638.478 706.202C641.054 703.52 644.547 702.013 648.19 702.013H688.773C692.416 702.013 695.91 703.52 698.485 706.202C701.061 708.885 702.508 712.523 702.508 716.316C702.508 720.109 701.061 723.747 698.485 726.43C695.91 729.112 692.416 730.619 688.773 730.619Z" fill="#6C63FF"/>
<path d="M247.774 626.808C286.789 626.808 318.418 593.871 318.418 553.241C318.418 512.611 286.789 479.674 247.774 479.674C208.758 479.674 177.13 512.611 177.13 553.241C177.13 593.871 208.758 626.808 247.774 626.808Z" fill="#6C63FF"/>
<path d="M1074.67 999H348.332C347.979 998.999 347.64 998.84 347.39 998.559C347.14 998.278 347 997.897 347 997.5C347 997.103 347.39 996.441 347.39 996.441C347.39 996.441 347.979 996.001 348.332 996H1074.67C1075.02 996.001 1075.36 996.16 1075.61 996.441C1075.86 996.722 1076 997.103 1076 997.5C1076 997.897 1075.86 998.278 1075.61 998.559C1075.36 998.84 1075.02 998.999 1074.67 999Z" fill="#3F3D56"/>
<path d="M439.153 344.528C440.623 344.528 441.815 343.287 441.815 341.755C441.815 340.224 440.623 338.983 439.153 338.983C437.682 338.983 436.49 340.224 436.49 341.755C436.49 343.287 437.682 344.528 439.153 344.528Z" fill="white"/>
<path d="M240.752 582.217C239.781 582.217 238.824 581.982 237.956 581.529C237.087 581.077 236.332 580.421 235.75 579.612L220.413 558.315C219.92 557.631 219.561 556.853 219.358 556.024C219.154 555.196 219.109 554.334 219.225 553.487C219.341 552.641 219.616 551.826 220.035 551.09C220.453 550.354 221.007 549.712 221.664 549.198C222.321 548.685 223.068 548.312 223.864 548.1C224.659 547.888 225.487 547.841 226.3 547.962C227.113 548.083 227.895 548.369 228.602 548.805C229.308 549.241 229.926 549.817 230.418 550.501L240.452 564.433L266.224 524.176C267.146 522.745 268.576 521.753 270.2 521.418C271.823 521.082 273.508 521.431 274.885 522.387C276.263 523.343 277.22 524.829 277.547 526.519C277.874 528.208 277.544 529.964 276.631 531.401L245.956 579.317C245.401 580.183 244.655 580.899 243.78 581.403C242.905 581.907 241.926 582.186 240.926 582.215C240.868 582.216 240.81 582.217 240.752 582.217Z" fill="white"/>
<path d="M976.879 591.225C976.149 591.225 975.43 591.048 974.778 590.708C974.125 590.368 973.558 589.875 973.12 589.267L961.598 573.266C961.228 572.752 960.958 572.167 960.805 571.545C960.652 570.922 960.618 570.275 960.705 569.638C960.793 569.002 960.999 568.39 961.314 567.838C961.628 567.285 962.044 566.802 962.538 566.416C963.031 566.031 963.593 565.75 964.19 565.591C964.788 565.431 965.41 565.396 966.021 565.487C966.632 565.578 967.219 565.793 967.75 566.12C968.281 566.448 968.745 566.881 969.115 567.395L976.653 577.862L996.015 547.616C996.708 546.541 997.782 545.795 999.002 545.543C1000.22 545.291 1001.49 545.553 1002.52 546.272C1003.56 546.99 1004.28 548.106 1004.52 549.376C1004.77 550.645 1004.52 551.965 1003.83 553.044L980.788 589.046C980.371 589.697 979.811 590.234 979.153 590.613C978.496 590.992 977.76 591.201 977.009 591.223C976.966 591.224 976.922 591.225 976.879 591.225Z" fill="white"/>
<path d="M596.224 197.233C595.599 197.233 594.983 197.081 594.424 196.79C593.864 196.499 593.378 196.076 593.003 195.555L583.127 181.84C582.809 181.399 582.578 180.898 582.447 180.364C582.316 179.831 582.287 179.276 582.362 178.73C582.437 178.185 582.614 177.661 582.883 177.187C583.153 176.713 583.509 176.299 583.932 175.968C584.355 175.638 584.837 175.398 585.349 175.261C585.861 175.124 586.394 175.094 586.918 175.172C587.441 175.25 587.945 175.434 588.4 175.715C588.855 175.996 589.253 176.367 589.57 176.807L596.031 185.779L612.627 159.854C613.221 158.932 614.142 158.293 615.187 158.077C616.233 157.861 617.318 158.086 618.205 158.702C619.092 159.317 619.708 160.274 619.919 161.362C620.129 162.45 619.917 163.581 619.329 164.507L599.575 195.365C599.218 195.923 598.738 196.384 598.174 196.709C597.61 197.033 596.98 197.213 596.336 197.231C596.299 197.232 596.262 197.233 596.224 197.233Z" fill="white"/>
<path d="M60.9451 116.248C50.267 114.399 39.2878 116.775 30.3316 122.874C21.3753 128.973 15.1447 138.317 12.9587 148.926C12.8746 149.341 12.7954 149.762 12.722 150.185C11.3107 158.307 12.3408 166.666 15.682 174.204C19.0233 181.741 24.5256 188.119 31.4932 192.531C38.4609 196.942 46.5809 199.19 54.8264 198.989C63.0719 198.788 71.0725 196.147 77.8167 191.401C84.5608 186.655 89.7454 180.017 92.715 172.325C95.6846 164.634 96.3057 156.235 94.4998 148.191C92.6939 140.146 88.5421 132.818 82.5694 127.132C76.5968 121.447 69.0714 117.659 60.9451 116.248ZM46.8774 197.213C36.297 195.365 26.8822 189.397 20.699 180.618C14.5157 171.84 12.0691 160.968 13.8959 150.389C13.9907 149.843 14.0963 149.305 14.2125 148.775C15.8882 141.016 19.809 133.919 25.4872 128.369C31.1654 122.819 38.3506 119.059 46.1493 117.558C53.948 116.056 62.0162 116.88 69.3506 119.925C76.685 122.97 82.962 128.104 87.4012 134.686C91.8403 141.269 94.2457 149.011 94.3183 156.949C94.3908 164.887 92.1273 172.671 87.8093 179.334C83.4912 185.997 77.3091 191.244 70.0316 194.422C62.7541 197.601 54.7022 198.572 46.8774 197.213Z" fill="#3F3D56"/>
<path d="M88.3659 163.312C86.7707 172.492 81.5924 180.663 73.9699 186.028C66.3474 191.392 56.9053 193.51 47.7207 191.915C38.536 190.321 30.3612 185.145 24.9946 177.526C19.6281 169.906 17.5093 160.469 19.1044 151.288C19.295 150.191 19.5353 149.12 19.8206 148.07C22.1946 139.355 27.8356 131.888 35.5722 127.221C43.3089 122.553 52.5467 121.043 61.3677 123.005C70.1887 124.966 77.915 130.248 82.9425 137.754C87.9699 145.259 89.9121 154.412 88.3659 163.312Z" fill="white"/>
<path d="M63.7225 161.408C63.0747 160.159 62.1223 159.093 60.9534 158.31C59.5052 157.38 57.9836 156.57 56.4037 155.888L58.0408 146.466C60.5088 147.288 62.6974 148.783 64.359 150.784L66.9812 147.039C66.0508 145.868 64.923 144.868 63.6485 144.085C62.2376 143.207 60.7156 142.522 59.1228 142.048L59.9526 137.272L55.5212 136.503L54.6832 141.326C52.9386 141.221 51.1917 141.488 49.5584 142.11C48.0836 142.669 46.766 143.577 45.7185 144.756C44.7139 145.909 44.0519 147.32 43.8074 148.83C43.4475 150.45 43.6408 152.143 44.3564 153.64C45.0278 154.945 46.0206 156.057 47.2412 156.872C48.7109 157.826 50.2579 158.654 51.866 159.349L50.2971 168.379C47.3457 167.634 44.6936 166.003 42.6982 163.705L40.0754 167.456C41.1885 168.756 42.5209 169.851 44.0121 170.69C45.6453 171.616 47.3987 172.311 49.2223 172.755L48.3997 177.49L52.8311 178.259L53.6691 173.437C56.1773 173.595 58.6694 172.938 60.7729 171.563C61.7027 170.937 62.4925 170.126 63.0921 169.179C63.6917 168.232 64.088 167.171 64.2561 166.063C64.6043 164.496 64.4164 162.856 63.7225 161.408ZM52.756 154.227C51.7333 153.713 50.8233 153 50.0786 152.131C49.7874 151.765 49.5809 151.339 49.474 150.883C49.3671 150.428 49.3623 149.955 49.4601 149.497C49.6096 148.447 50.1702 147.498 51.0186 146.86C51.9514 146.199 53.0679 145.845 54.2117 145.849L52.756 154.227ZM57.19 167.859C56.3078 168.496 55.2445 168.835 54.1559 168.825L55.5056 161.057C56.4702 161.504 57.3344 162.141 58.0463 162.931C58.3124 163.251 58.5027 163.628 58.603 164.033C58.7033 164.437 58.7111 164.859 58.6258 165.267C58.4916 166.281 57.9787 167.207 57.19 167.859Z" fill="#6C63FF"/>
<path d="M147.465 139.028C138.165 137.417 128.602 139.486 120.802 144.799C113.001 150.111 107.575 158.248 105.671 167.489C105.597 167.85 105.528 168.217 105.464 168.585C104.235 175.66 105.132 182.94 108.042 189.505C110.953 196.07 115.745 201.625 121.814 205.467C127.882 209.31 134.954 211.267 142.136 211.092C149.318 210.917 156.286 208.617 162.16 204.483C168.034 200.35 172.549 194.568 175.136 187.869C177.722 181.17 178.263 173.855 176.69 166.848C175.117 159.842 171.501 153.459 166.299 148.507C161.097 143.555 154.543 140.256 147.465 139.028ZM135.213 209.545C125.997 207.936 117.798 202.738 112.412 195.092C107.027 187.446 104.896 177.977 106.487 168.763C106.569 168.287 106.661 167.819 106.763 167.358C108.222 160.599 111.637 154.418 116.582 149.584C121.528 144.75 127.786 141.476 134.579 140.168C141.371 138.86 148.398 139.577 154.786 142.23C161.174 144.882 166.641 149.353 170.508 155.086C174.374 160.82 176.469 167.563 176.532 174.476C176.595 181.39 174.624 188.17 170.863 193.973C167.102 199.776 161.718 204.346 155.379 207.115C149.041 209.883 142.028 210.729 135.213 209.545Z" fill="#3F3D56"/>
<path d="M171.348 180.018C169.958 188.014 165.448 195.131 158.809 199.803C152.17 204.475 143.947 206.32 135.947 204.931C127.948 203.542 120.828 199.034 116.153 192.398C111.479 185.762 109.634 177.542 111.023 169.546C111.189 168.59 111.399 167.658 111.647 166.743C113.715 159.152 118.628 152.649 125.366 148.584C132.105 144.519 140.15 143.204 147.833 144.912C155.516 146.621 162.245 151.221 166.624 157.758C171.003 164.295 172.695 172.267 171.348 180.018Z" fill="white"/>
<path d="M149.884 178.36C149.32 177.272 148.491 176.344 147.472 175.662C146.211 174.852 144.886 174.147 143.51 173.553L144.936 165.346C147.085 166.062 148.991 167.365 150.439 169.107L152.722 165.845C151.912 164.825 150.93 163.954 149.82 163.272C148.591 162.508 147.265 161.911 145.878 161.498L146.601 157.339L142.741 156.669L142.011 160.869C140.492 160.778 138.97 161.011 137.548 161.553C136.263 162.039 135.116 162.83 134.203 163.857C133.328 164.861 132.752 166.09 132.539 167.405C132.225 168.816 132.394 170.291 133.017 171.594C133.602 172.731 134.466 173.7 135.53 174.41C136.81 175.24 138.157 175.962 139.558 176.567L138.191 184.431C135.621 183.783 133.311 182.362 131.573 180.361L129.288 183.628C130.258 184.76 131.418 185.713 132.717 186.445C134.14 187.251 135.667 187.856 137.255 188.243L136.539 192.367L140.398 193.037L141.128 188.837C143.313 188.975 145.483 188.402 147.315 187.205C148.125 186.66 148.813 185.953 149.335 185.128C149.857 184.304 150.203 183.38 150.349 182.415C150.652 181.049 150.489 179.622 149.884 178.36ZM140.333 172.106C139.442 171.658 138.649 171.037 138.001 170.28C137.747 169.961 137.567 169.59 137.474 169.194C137.381 168.797 137.377 168.385 137.462 167.986C137.592 167.071 138.081 166.245 138.82 165.69C139.632 165.113 140.604 164.806 141.601 164.809L140.333 172.106ZM144.195 183.979C143.426 184.534 142.5 184.829 141.552 184.82L142.728 178.055C143.568 178.444 144.32 178.999 144.94 179.686C145.172 179.966 145.338 180.294 145.425 180.646C145.513 180.999 145.519 181.366 145.445 181.722C145.328 182.605 144.882 183.411 144.195 183.979Z" fill="#6C63FF"/>
<path d="M199.203 211.458C193.003 210.384 186.628 211.764 181.427 215.306C176.227 218.847 172.609 224.272 171.34 230.433C171.291 230.673 171.245 230.918 171.202 231.163C170.383 235.88 170.981 240.733 172.921 245.11C174.861 249.486 178.056 253.19 182.102 255.751C186.148 258.313 190.862 259.618 195.65 259.501C200.438 259.385 205.083 257.851 208.999 255.095C212.915 252.34 215.926 248.485 217.65 244.019C219.374 239.553 219.735 234.676 218.686 230.006C217.638 225.335 215.227 221.079 211.759 217.778C208.291 214.477 203.921 212.277 199.203 211.458ZM191.035 258.47C184.891 257.397 179.424 253.932 175.834 248.835C172.244 243.737 170.823 237.425 171.884 231.282C171.939 230.965 172 230.653 172.068 230.345C173.041 225.839 175.317 221.719 178.614 218.496C181.911 215.273 186.083 213.09 190.612 212.219C195.14 211.347 199.825 211.825 204.083 213.593C208.342 215.361 211.987 218.342 214.564 222.164C217.142 225.986 218.539 230.482 218.581 235.091C218.623 239.7 217.309 244.22 214.801 248.089C212.294 251.957 208.705 255.004 204.479 256.85C200.253 258.696 195.578 259.259 191.035 258.47Z" fill="#3F3D56"/>
<path d="M215.125 238.785C214.198 244.116 211.192 248.861 206.766 251.975C202.34 255.09 196.857 256.32 191.524 255.394C186.191 254.468 181.444 251.463 178.328 247.039C175.212 242.615 173.982 237.135 174.908 231.804C175.019 231.167 175.158 230.545 175.324 229.935C176.703 224.875 179.978 220.54 184.47 217.829C188.962 215.119 194.326 214.243 199.448 215.381C204.57 216.52 209.056 219.587 211.976 223.945C214.895 228.304 216.022 233.618 215.125 238.785Z" fill="white"/>
<path d="M200.816 237.68C200.439 236.955 199.886 236.336 199.208 235.881C198.367 235.341 197.483 234.871 196.566 234.475L197.517 229.004C198.95 229.481 200.22 230.35 201.185 231.511L202.708 229.337C202.167 228.657 201.513 228.076 200.773 227.621C199.953 227.112 199.07 226.714 198.145 226.439L198.627 223.666L196.053 223.219L195.567 226.019C194.554 225.959 193.54 226.114 192.591 226.475C191.735 226.8 190.97 227.327 190.362 228.011C189.778 228.681 189.394 229.5 189.252 230.377C189.043 231.317 189.155 232.3 189.571 233.169C189.961 233.927 190.537 234.573 191.246 235.046C192.099 235.6 192.997 236.081 193.931 236.485L193.02 241.728C191.306 241.295 189.767 240.348 188.608 239.014L187.085 241.192C187.731 241.947 188.505 242.582 189.371 243.07C190.319 243.607 191.337 244.011 192.396 244.269L191.918 247.018L194.492 247.465L194.978 244.664C196.434 244.756 197.881 244.375 199.103 243.577C199.643 243.213 200.101 242.742 200.45 242.192C200.798 241.642 201.028 241.027 201.125 240.383C201.328 239.473 201.218 238.521 200.816 237.68ZM194.448 233.511C193.854 233.212 193.326 232.798 192.893 232.293C192.724 232.081 192.604 231.833 192.542 231.569C192.48 231.305 192.477 231.03 192.534 230.764C192.621 230.154 192.946 229.603 193.439 229.233C193.981 228.849 194.629 228.644 195.293 228.646L194.448 233.511ZM197.022 241.426C196.51 241.796 195.893 241.993 195.261 241.987L196.044 237.476C196.605 237.736 197.106 238.106 197.52 238.564C197.674 238.751 197.785 238.969 197.843 239.204C197.901 239.439 197.906 239.684 197.856 239.921C197.778 240.51 197.48 241.047 197.022 241.426Z" fill="#6C63FF"/>
<path d="M347.071 977.527V994.398C347.074 995.272 347.591 996.11 348.508 996.728C349.426 997.346 350.669 997.694 351.967 997.696H525.128C526.425 997.691 527.666 997.342 528.583 996.725C529.499 996.107 530.017 995.271 530.024 994.398V977.527L347.071 977.527Z" fill="#CCCCCC"/>
</svg>
