<svg width="924" height="769" viewBox="0 0 924 769" fill="none" xmlns="http://www.w3.org/2000/svg">
<path d="M589.068 305.349L524.623 118.559L526.258 117.947L514.405 83.5908L512.771 84.2035L492.984 26.853C492.245 24.7111 491.108 22.7417 489.639 21.0574C488.169 19.3731 486.396 18.0069 484.419 17.0367C482.443 16.0665 480.303 15.5113 478.121 15.403C475.938 15.2946 473.757 15.6351 471.701 16.405L355.199 60.0357C353.143 60.8056 351.253 61.9898 349.636 63.5208C348.019 65.0518 346.708 66.8995 345.777 68.9585C344.845 71.0175 344.312 73.2475 344.208 75.5211C344.104 77.7946 344.431 80.0673 345.17 82.2093L358.966 122.197L356.384 123.233L365.191 147.06L367.258 146.231L369.087 151.531L366.887 152.414L375.694 176.241L377.379 175.565L441.254 360.705C441.99 362.85 443.125 364.822 444.593 366.509C446.062 368.195 447.836 369.563 449.813 370.534C451.791 371.505 453.933 372.059 456.116 372.166C458.3 372.272 460.482 371.928 462.538 371.154L579.039 327.523C583.188 325.964 586.574 322.753 588.454 318.596C590.334 314.439 590.555 309.675 589.068 305.349Z" fill="#3F3D56"/>
<path d="M456.411 364.998C454.77 364.994 453.17 364.464 451.829 363.479C450.488 362.495 449.47 361.105 448.914 359.497L351.815 78.0614C351.1 75.9885 351.205 73.7047 352.106 71.7122C353.007 69.7197 354.631 68.1817 356.621 67.4365L381.409 58.1532L381.372 59.0568C381.308 60.6253 381.616 62.1861 382.267 63.6016C382.919 65.017 383.895 66.2438 385.109 67.1738C386.323 68.1038 387.738 68.7084 389.229 68.9345C390.72 69.1605 392.242 69.001 393.66 68.4701L448.672 47.8679C450 47.234 451.166 46.2834 452.076 45.0929C452.985 43.9024 453.614 42.5055 453.909 41.0152C454.202 39.5497 454.157 38.033 453.78 36.5887C453.402 35.1445 452.703 33.8137 451.738 32.7049L451.157 32.0323L476.761 22.4427C478.751 21.7007 480.942 21.8111 482.854 22.7497C484.766 23.6884 486.243 25.3786 486.96 27.4497L579.6 295.962C581.491 301.463 581.21 307.52 578.82 312.806C576.429 318.091 572.124 322.173 566.849 324.155L459.112 364.504C458.246 364.829 457.332 364.996 456.411 364.998Z" fill="white"/>
<path d="M446.919 165.381C464.32 165.381 478.427 150.684 478.427 132.553C478.427 114.423 464.32 99.7257 446.919 99.7257C429.517 99.7257 415.41 114.423 415.41 132.553C415.41 150.684 429.517 165.381 446.919 165.381Z" fill="#6C63FF"/>
<path d="M524.996 180.292L415.881 221.157C415.54 221.285 415.178 221.343 414.816 221.325C414.454 221.308 414.099 221.216 413.771 221.056C413.443 220.895 413.148 220.669 412.904 220.389C412.66 220.11 412.472 219.783 412.349 219.428C412.226 219.073 412.172 218.696 412.19 218.318C412.207 217.941 412.296 217.571 412.451 217.23C412.606 216.888 412.824 216.582 413.092 216.329C413.361 216.075 413.675 215.879 414.016 215.752L523.132 174.888C523.819 174.633 524.575 174.672 525.235 174.997C525.895 175.322 526.404 175.906 526.651 176.621C526.898 177.337 526.862 178.125 526.552 178.813C526.242 179.502 525.682 180.033 524.996 180.292Z" fill="#E6E6E6"/>
<path d="M492.593 206.202L456.701 219.644C456.361 219.772 455.999 219.829 455.637 219.812C455.275 219.794 454.92 219.703 454.592 219.542C454.264 219.382 453.969 219.155 453.725 218.876C453.482 218.597 453.293 218.27 453.17 217.915C453.048 217.559 452.994 217.182 453.011 216.805C453.028 216.428 453.117 216.058 453.272 215.717C453.427 215.375 453.645 215.069 453.913 214.816C454.182 214.562 454.495 214.366 454.837 214.239L490.728 200.798C491.416 200.54 492.174 200.578 492.835 200.902C493.496 201.227 494.007 201.812 494.254 202.529C494.501 203.245 494.465 204.035 494.153 204.724C493.842 205.413 493.28 205.945 492.593 206.202Z" fill="#E6E6E6"/>
<path d="M501.129 230.946L465.238 244.387C464.897 244.515 464.536 244.571 464.174 244.553C463.813 244.535 463.458 244.443 463.131 244.282C462.803 244.122 462.509 243.895 462.266 243.616C462.023 243.337 461.834 243.011 461.712 242.656C461.589 242.301 461.535 241.925 461.552 241.548C461.57 241.171 461.658 240.802 461.812 240.461C461.966 240.12 462.184 239.813 462.452 239.56C462.719 239.306 463.033 239.11 463.373 238.982L499.264 225.541C499.952 225.283 500.71 225.321 501.371 225.645C502.033 225.97 502.543 226.555 502.79 227.272C503.038 227.989 503.001 228.778 502.69 229.467C502.378 230.156 501.817 230.688 501.129 230.946Z" fill="#E6E6E6"/>
<path d="M505.502 243.619L469.611 257.06C469.27 257.189 468.908 257.246 468.546 257.229C468.184 257.212 467.828 257.12 467.5 256.96C467.172 256.799 466.877 256.573 466.633 256.293C466.389 256.014 466.201 255.687 466.078 255.332C465.955 254.976 465.901 254.599 465.919 254.222C465.936 253.845 466.025 253.475 466.18 253.133C466.335 252.792 466.553 252.486 466.822 252.232C467.09 251.979 467.405 251.783 467.746 251.656L503.637 238.214C503.978 238.086 504.34 238.029 504.702 238.046C505.064 238.063 505.419 238.155 505.747 238.315C506.075 238.476 506.37 238.702 506.614 238.982C506.858 239.261 507.046 239.588 507.169 239.943C507.291 240.299 507.346 240.676 507.328 241.053C507.311 241.43 507.222 241.8 507.067 242.141C506.912 242.483 506.694 242.789 506.426 243.043C506.157 243.296 505.843 243.492 505.502 243.619Z" fill="#E6E6E6"/>
<path d="M516.93 210.862L440.781 239.38C440.44 239.509 440.079 239.566 439.717 239.549C439.354 239.531 438.999 239.44 438.671 239.279C438.343 239.119 438.049 238.892 437.805 238.613C437.561 238.334 437.372 238.007 437.249 237.652C437.127 237.296 437.073 236.919 437.09 236.542C437.108 236.165 437.196 235.795 437.351 235.453C437.506 235.112 437.724 234.806 437.993 234.552C438.261 234.299 438.575 234.103 438.917 233.976L515.065 205.458C515.406 205.329 515.768 205.272 516.13 205.289C516.492 205.306 516.847 205.398 517.176 205.559C517.504 205.719 517.798 205.946 518.042 206.225C518.286 206.504 518.475 206.831 518.597 207.186C518.72 207.542 518.774 207.919 518.757 208.296C518.739 208.673 518.65 209.043 518.495 209.385C518.341 209.726 518.123 210.032 517.854 210.286C517.585 210.539 517.271 210.735 516.93 210.862Z" fill="#E6E6E6"/>
<path d="M501.591 274.384L488.559 279.264C487.39 279.701 486.102 279.636 484.978 279.084C483.854 278.532 482.987 277.538 482.567 276.32C482.147 275.101 482.208 273.759 482.737 272.588C483.266 271.417 484.22 270.513 485.389 270.074L498.421 265.193C499.59 264.756 500.878 264.821 502.002 265.373C503.126 265.925 503.993 266.92 504.413 268.138C504.834 269.356 504.772 270.698 504.243 271.869C503.714 273.041 502.76 273.945 501.591 274.384Z" fill="#6C63FF"/>
<path d="M398.896 59.0634C399.897 59.0634 400.709 58.218 400.709 57.1752C400.709 56.1324 399.897 55.287 398.896 55.287C397.895 55.287 397.084 56.1324 397.084 57.1752C397.084 58.218 397.895 59.0634 398.896 59.0634Z" fill="white"/>
<path d="M783.871 583.633C785.527 577.049 789.505 571.357 795.01 567.693C795.556 567.33 794.987 566.467 794.442 566.829C788.72 570.653 784.592 576.585 782.883 583.441C782.72 584.094 783.709 584.283 783.871 583.633Z" fill="white"/>
<path d="M888.811 420.372L855.038 479.583L856.322 480.288L844.886 502.878L842.505 501.565L834.99 514.733L836.857 515.851L824.604 537.955L822.48 536.679L712.282 729.9C709.392 734.957 704.694 738.612 699.22 740.064C693.746 741.516 687.943 740.646 683.084 737.645L478.221 610.821C473.367 607.81 469.858 602.916 468.464 597.213C467.07 591.509 467.906 585.463 470.787 580.4L647.316 270.872C650.206 265.816 654.903 262.16 660.377 260.708C665.851 259.256 671.655 260.126 676.514 263.127L881.377 389.951C886.229 392.964 889.736 397.858 891.13 403.561C892.523 409.263 891.689 415.309 888.811 420.372Z" fill="#3F3D56"/>
<path d="M690.385 725.697L484.8 598.427C483.304 597.499 482.223 595.99 481.794 594.232C481.364 592.474 481.621 590.61 482.509 589.05L660.209 277.463C661.101 275.904 662.549 274.778 664.236 274.33C665.923 273.883 667.712 274.151 669.21 275.076L874.795 402.345C876.29 403.274 877.372 404.782 877.801 406.54C878.231 408.298 877.973 410.162 877.086 411.722L699.385 723.31C698.494 724.868 697.046 725.995 695.359 726.442C693.672 726.89 691.883 726.622 690.385 725.697Z" fill="white"/>
<path d="M774.834 333.786C775.835 333.786 776.646 332.94 776.646 331.897C776.646 330.855 775.835 330.009 774.834 330.009C773.833 330.009 773.021 330.855 773.021 331.897C773.021 332.94 773.833 333.786 774.834 333.786Z" fill="white"/>
<path d="M763.618 556.988L592.006 450.749C591.468 450.419 590.997 449.981 590.622 449.461C590.246 448.941 589.973 448.349 589.818 447.718C589.663 447.088 589.628 446.432 589.717 445.787C589.806 445.143 590.016 444.524 590.335 443.964C590.654 443.405 591.076 442.916 591.576 442.527C592.077 442.138 592.647 441.856 593.252 441.696C593.858 441.537 594.488 441.504 595.106 441.599C595.724 441.694 596.318 441.915 596.853 442.249L768.466 548.488C769.004 548.818 769.474 549.256 769.85 549.776C770.225 550.296 770.498 550.888 770.654 551.519C770.809 552.149 770.843 552.805 770.754 553.449C770.666 554.093 770.456 554.713 770.137 555.273C769.818 555.832 769.396 556.32 768.895 556.71C768.394 557.099 767.825 557.381 767.219 557.541C766.614 557.7 765.984 557.733 765.366 557.638C764.748 557.543 764.154 557.322 763.618 556.988Z" fill="#E6E6E6"/>
<path d="M695.094 540.526L638.646 505.581C638.11 505.249 637.642 504.811 637.269 504.291C636.896 503.771 636.624 503.18 636.471 502.55C636.317 501.921 636.283 501.267 636.372 500.624C636.461 499.981 636.671 499.363 636.99 498.805C637.308 498.247 637.729 497.759 638.228 497.371C638.727 496.982 639.295 496.699 639.899 496.539C640.503 496.379 641.131 496.344 641.748 496.437C642.365 496.53 642.958 496.749 643.494 497.081L699.942 532.025C700.477 532.357 700.945 532.795 701.318 533.315C701.691 533.835 701.962 534.427 702.116 535.056C702.27 535.685 702.303 536.34 702.214 536.982C702.125 537.625 701.915 538.243 701.597 538.801C701.279 539.359 700.858 539.846 700.359 540.235C699.86 540.624 699.292 540.906 698.688 541.067C698.084 541.227 697.456 541.261 696.839 541.169C696.223 541.076 695.629 540.857 695.094 540.526Z" fill="#E6E6E6"/>
<path d="M672.9 579.441L616.452 544.496C615.371 543.826 614.589 542.736 614.278 541.466C613.968 540.195 614.155 538.848 614.798 537.721C615.44 536.594 616.487 535.779 617.706 535.456C618.925 535.132 620.218 535.326 621.3 535.996L677.748 570.941C678.284 571.272 678.752 571.711 679.125 572.231C679.498 572.751 679.769 573.342 679.923 573.971C680.076 574.6 680.11 575.255 680.021 575.898C679.932 576.54 679.722 577.158 679.403 577.716C679.085 578.274 678.665 578.762 678.165 579.15C677.666 579.539 677.099 579.822 676.495 579.982C675.891 580.142 675.263 580.177 674.646 580.084C674.029 579.991 673.436 579.773 672.9 579.441Z" fill="#E6E6E6"/>
<path d="M661.533 599.373L605.085 564.428C604.548 564.097 604.079 563.659 603.704 563.139C603.33 562.619 603.057 562.027 602.902 561.397C602.748 560.768 602.714 560.112 602.803 559.469C602.892 558.825 603.101 558.206 603.42 557.647C603.739 557.088 604.16 556.6 604.66 556.211C605.161 555.822 605.729 555.54 606.334 555.38C606.939 555.22 607.568 555.187 608.186 555.281C608.803 555.375 609.397 555.595 609.933 555.928L666.381 590.873C666.919 591.203 667.39 591.641 667.765 592.161C668.141 592.681 668.414 593.274 668.569 593.904C668.725 594.534 668.759 595.191 668.67 595.835C668.582 596.479 668.372 597.099 668.053 597.658C667.734 598.218 667.311 598.706 666.811 599.096C666.31 599.485 665.74 599.767 665.135 599.926C664.529 600.086 663.899 600.119 663.281 600.024C662.663 599.929 662.069 599.708 661.533 599.373Z" fill="#E6E6E6"/>
<path d="M715.811 579.308L596.047 505.167C594.971 504.495 594.194 503.405 593.887 502.138C593.58 500.87 593.767 499.527 594.408 498.402C595.05 497.278 596.092 496.464 597.308 496.139C598.524 495.814 599.813 496.004 600.895 496.668L720.659 570.809C721.197 571.139 721.667 571.577 722.043 572.097C722.419 572.617 722.692 573.209 722.847 573.839C723.003 574.47 723.037 575.126 722.948 575.77C722.859 576.415 722.65 577.034 722.33 577.594C722.011 578.153 721.589 578.642 721.089 579.031C720.588 579.42 720.018 579.703 719.413 579.862C718.807 580.021 718.177 580.054 717.559 579.959C716.941 579.864 716.347 579.643 715.811 579.308Z" fill="#E6E6E6"/>
<path d="M692.984 674.061L672.488 661.373C670.651 660.232 669.323 658.379 668.797 656.22C668.271 654.06 668.589 651.772 669.681 649.856C670.773 647.941 672.551 646.556 674.623 646.005C676.695 645.454 678.892 645.783 680.731 646.919L701.227 659.607C703.067 660.746 704.397 662.6 704.925 664.76C705.453 666.921 705.135 669.211 704.042 671.128C702.949 673.045 701.17 674.431 699.096 674.981C697.022 675.531 694.824 675.2 692.984 674.061Z" fill="#6C63FF"/>
<path d="M731.224 468.048C754.426 468.048 773.235 448.452 773.235 424.278C773.235 400.105 754.426 380.508 731.224 380.508C708.022 380.508 689.213 400.105 689.213 424.278C689.213 448.452 708.022 468.048 731.224 468.048Z" fill="#6C63FF"/>
<path d="M42 602H612V259.674C611.997 257.109 611.014 254.65 609.265 252.837C607.517 251.023 605.146 250.003 602.674 250H51.326C48.8535 250.003 46.4831 251.023 44.7347 252.837C42.9863 254.65 42.0029 257.109 42 259.674V602Z" fill="#3F3D56"/>
<path d="M601 258H52V585H601V258Z" fill="white"/>
<path d="M41.9375 592.865V635.183C41.9375 636.937 42.2691 638.674 42.9135 640.295C43.5578 641.916 44.5023 643.388 45.6929 644.629C46.8835 645.869 48.297 646.853 49.8526 647.525C51.4083 648.196 53.0756 648.541 54.7594 648.541H264.599V732.056H261.812C261.593 732.056 261.377 732.101 261.174 732.188C260.972 732.275 260.789 732.403 260.634 732.564C260.479 732.725 260.357 732.916 260.273 733.127C260.189 733.337 260.146 733.563 260.146 733.791V739.6C260.146 739.828 260.189 740.053 260.273 740.264C260.357 740.474 260.479 740.666 260.634 740.827C260.789 740.988 260.972 741.116 261.174 741.203C261.377 741.29 261.593 741.335 261.812 741.335H326.945H392.078C392.296 741.335 392.513 741.29 392.715 741.203C392.917 741.116 393.101 740.988 393.256 740.827C393.41 740.666 393.533 740.474 393.617 740.264C393.7 740.053 393.743 739.828 393.743 739.6V733.791C393.743 733.563 393.7 733.338 393.617 733.127C393.533 732.916 393.41 732.725 393.256 732.564C393.101 732.403 392.917 732.275 392.715 732.188C392.513 732.101 392.296 732.056 392.078 732.056H389.29V648.541H599.13C600.814 648.541 602.481 648.196 604.037 647.525C605.593 646.853 607.006 645.869 608.197 644.629C609.387 643.388 610.332 641.916 610.976 640.295C611.62 638.674 611.952 636.937 611.952 635.183V592.865L41.9375 592.865Z" fill="#2F2E41"/>
<path d="M516.214 368.447H263.616C262.024 368.447 260.497 367.788 259.371 366.615C258.245 365.442 257.612 363.85 257.612 362.191C257.612 360.532 258.245 358.941 259.371 357.768C260.497 356.595 262.024 355.936 263.616 355.936H516.214C517.806 355.936 519.333 356.595 520.459 357.768C521.585 358.941 522.218 360.532 522.218 362.191C522.218 363.85 521.585 365.442 520.459 366.615C519.333 367.788 517.806 368.447 516.214 368.447Z" fill="#E6E6E6"/>
<path d="M431.458 396.685H348.372C346.779 396.685 345.252 396.026 344.126 394.853C343 393.68 342.367 392.089 342.367 390.429C342.367 388.77 343 387.179 344.126 386.006C345.252 384.833 346.779 384.174 348.372 384.174H431.458C433.05 384.174 434.578 384.833 435.704 386.006C436.83 387.179 437.462 388.77 437.462 390.429C437.462 392.089 436.83 393.68 435.704 394.853C434.578 396.026 433.05 396.685 431.458 396.685Z" fill="#E6E6E6"/>
<path d="M431.458 453.965H348.372C346.779 453.965 345.252 453.306 344.126 452.133C343 450.96 342.367 449.368 342.367 447.709C342.367 446.05 343 444.459 344.126 443.286C345.252 442.113 346.779 441.453 348.372 441.453H431.458C433.05 441.453 434.578 442.113 435.704 443.286C436.83 444.459 437.462 446.05 437.462 447.709C437.462 449.368 436.83 450.96 435.704 452.133C434.578 453.306 433.05 453.965 431.458 453.965Z" fill="#E6E6E6"/>
<path d="M431.458 483.303H348.372C347.583 483.303 346.803 483.141 346.074 482.827C345.346 482.513 344.684 482.052 344.126 481.471C343.569 480.89 343.126 480.2 342.825 479.442C342.523 478.683 342.368 477.869 342.368 477.048C342.368 476.226 342.523 475.413 342.825 474.654C343.126 473.895 343.569 473.205 344.126 472.624C344.684 472.043 345.346 471.583 346.074 471.268C346.803 470.954 347.583 470.792 348.372 470.792H431.458C432.247 470.792 433.027 470.954 433.756 471.268C434.484 471.583 435.146 472.043 435.704 472.624C436.261 473.205 436.703 473.895 437.005 474.654C437.307 475.413 437.462 476.226 437.462 477.048C437.462 477.869 437.307 478.683 437.005 479.442C436.703 480.2 436.261 480.89 435.704 481.471C435.146 482.052 434.484 482.513 433.756 482.827C433.027 483.141 432.247 483.303 431.458 483.303Z" fill="#E6E6E6"/>
<path d="M478.056 424.923H301.775C300.182 424.923 298.655 424.264 297.529 423.091C296.403 421.918 295.771 420.327 295.771 418.668C295.771 417.009 296.403 415.418 297.529 414.244C298.655 413.071 300.182 412.412 301.775 412.412H478.056C479.648 412.412 481.175 413.071 482.301 414.244C483.427 415.418 484.06 417.009 484.06 418.668C484.06 420.327 483.427 421.918 482.301 423.091C481.175 424.264 479.648 424.923 478.056 424.923Z" fill="#E6E6E6"/>
<path d="M512.009 543.371H481.84C479.132 543.371 476.536 542.251 474.621 540.256C472.706 538.261 471.63 535.555 471.63 532.734C471.63 529.913 472.706 527.207 474.621 525.212C476.536 523.217 479.132 522.097 481.84 522.097H512.009C514.716 522.097 517.313 523.217 519.228 525.212C521.143 527.207 522.218 529.913 522.218 532.734C522.218 535.555 521.143 538.261 519.228 540.256C517.313 542.251 514.716 543.371 512.009 543.371Z" fill="#6C63FF"/>
<path d="M184.186 466.166C213.189 466.166 236.7 441.67 236.7 411.453C236.7 381.236 213.189 356.74 184.186 356.74C155.183 356.74 131.672 381.236 131.672 411.453C131.672 441.67 155.183 466.166 184.186 466.166Z" fill="#6C63FF"/>
<path d="M798.706 743.592H43.3274C42.9596 743.591 42.6072 743.438 42.3475 743.166C42.0877 742.895 41.9419 742.527 41.9419 742.144C41.9419 741.761 42.0877 741.393 42.3475 741.122C42.6072 740.85 42.9596 740.697 43.3274 740.696H798.706C799.074 740.697 799.427 740.85 799.686 741.122C799.946 741.393 800.092 741.761 800.092 742.144C800.092 742.527 799.946 742.895 799.686 743.166C799.427 743.438 799.074 743.591 798.706 743.592Z" fill="#CACACA"/>
<path d="M326.45 256.23C327.543 256.23 328.429 255.307 328.429 254.168C328.429 253.029 327.543 252.106 326.45 252.106C325.357 252.106 324.471 253.029 324.471 254.168C324.471 255.307 325.357 256.23 326.45 256.23Z" fill="white"/>
<path d="M178.966 433.003C178.245 433.003 177.533 432.828 176.887 432.491C176.242 432.155 175.681 431.667 175.248 431.065L163.847 415.227C163.48 414.718 163.214 414.139 163.062 413.523C162.911 412.907 162.877 412.266 162.964 411.636C163.05 411.006 163.255 410.401 163.566 409.853C163.877 409.306 164.288 408.828 164.777 408.446C165.265 408.065 165.821 407.787 166.412 407.629C167.003 407.472 167.619 407.437 168.223 407.527C168.827 407.617 169.409 407.83 169.934 408.154C170.459 408.478 170.918 408.906 171.284 409.415L178.743 419.776L197.901 389.837C198.587 388.773 199.65 388.035 200.856 387.786C202.063 387.536 203.316 387.795 204.34 388.506C205.363 389.218 206.075 390.322 206.318 391.579C206.561 392.836 206.316 394.142 205.637 395.21L182.835 430.846C182.422 431.49 181.867 432.022 181.217 432.397C180.566 432.772 179.839 432.979 179.096 433.001C179.053 433.002 179.009 433.003 178.966 433.003Z" fill="white"/>
<path d="M726.175 439.702C725.633 439.702 725.098 439.57 724.613 439.318C724.129 439.065 723.707 438.698 723.382 438.246L714.816 426.346C714.541 425.964 714.341 425.529 714.227 425.066C714.113 424.603 714.088 424.121 714.153 423.648C714.218 423.175 714.371 422.72 714.605 422.309C714.839 421.897 715.148 421.538 715.515 421.252C715.882 420.965 716.299 420.756 716.743 420.638C717.188 420.519 717.65 420.493 718.104 420.56C718.558 420.628 718.995 420.788 719.389 421.032C719.784 421.275 720.129 421.597 720.404 421.979L726.008 429.764L740.401 407.269C740.916 406.47 741.714 405.915 742.621 405.728C743.528 405.541 744.469 405.735 745.238 406.27C746.007 406.804 746.542 407.634 746.724 408.578C746.907 409.522 746.723 410.504 746.213 411.307L729.081 438.081C728.772 438.566 728.355 438.965 727.866 439.247C727.377 439.529 726.831 439.684 726.272 439.701C726.24 439.701 726.208 439.702 726.175 439.702Z" fill="white"/>
<path d="M443.211 146.685C442.746 146.685 442.288 146.572 441.872 146.355C441.457 146.139 441.095 145.824 440.817 145.437L433.475 135.237C433.239 134.909 433.067 134.536 432.97 134.139C432.872 133.743 432.85 133.33 432.906 132.924C432.962 132.519 433.093 132.129 433.294 131.776C433.494 131.424 433.759 131.116 434.073 130.87C434.388 130.624 434.746 130.446 435.127 130.344C435.507 130.242 435.904 130.22 436.293 130.278C436.682 130.336 437.056 130.473 437.395 130.682C437.733 130.89 438.028 131.166 438.264 131.494L443.068 138.167L455.404 118.886C455.846 118.2 456.53 117.725 457.307 117.564C458.085 117.404 458.891 117.571 459.55 118.029C460.21 118.486 460.668 119.198 460.824 120.007C460.981 120.817 460.823 121.658 460.386 122.346L445.702 145.296C445.436 145.711 445.079 146.053 444.66 146.295C444.241 146.536 443.773 146.67 443.294 146.684C443.267 146.684 443.239 146.685 443.211 146.685Z" fill="white"/>
<path d="M45.3045 86.4555C37.3667 85.08 29.2053 86.8473 22.5475 91.3833C15.8897 95.9193 11.2582 102.868 9.63315 110.759C9.57062 111.067 9.51179 111.38 9.45723 111.694C8.4081 117.735 9.17381 123.952 11.6576 129.558C14.1413 135.163 18.2316 139.907 23.4111 143.188C28.5905 146.469 34.6267 148.14 40.7561 147.991C46.8854 147.841 52.8328 145.877 57.8462 142.348C62.8595 138.818 66.7136 133.881 68.9211 128.161C71.1285 122.44 71.5902 116.194 70.2478 110.211C68.9054 104.229 65.8191 98.7787 61.3792 94.5501C56.9393 90.3216 51.3453 87.5046 45.3045 86.4555ZM34.8471 146.67C26.982 145.296 19.9834 140.857 15.387 134.328C10.7906 127.8 8.97186 119.714 10.3299 111.846C10.4003 111.44 10.4788 111.04 10.5652 110.646C11.8109 104.875 14.7254 99.5976 18.9464 95.4698C23.1674 91.3419 28.5086 88.5459 34.3058 87.4293C40.1031 86.3128 46.1007 86.925 51.5528 89.1899C57.0049 91.4548 61.671 95.2724 64.9709 100.168C68.2708 105.064 70.0589 110.821 70.1128 116.725C70.1668 122.629 68.4842 128.418 65.2743 133.373C62.0644 138.328 57.4688 142.231 52.059 144.595C46.6492 146.959 40.6638 147.681 34.8471 146.67Z" fill="#3F3D56"/>
<path d="M65.6881 121.457C64.5023 128.285 60.6529 134.362 54.9866 138.351C49.3204 142.341 42.3015 143.916 35.4739 142.73C28.6464 141.544 22.5696 137.695 18.5802 132.028C14.5909 126.362 13.0159 119.343 14.2017 112.515C14.3434 111.699 14.522 110.903 14.7341 110.122C16.4988 103.64 20.6921 98.087 26.4432 94.6157C32.1944 91.1445 39.0614 90.0216 45.6186 91.4803C52.1758 92.9391 57.9193 96.8673 61.6565 102.449C65.3937 108.031 66.8375 114.838 65.6881 121.457Z" fill="white"/>
<path d="M47.3691 120.041C46.8876 119.112 46.1796 118.32 45.3106 117.737C44.2341 117.046 43.103 116.444 41.9286 115.936L43.1456 108.929C44.9801 109.54 46.6071 110.652 47.8423 112.14L49.7915 109.355C49.0999 108.484 48.2615 107.74 47.3141 107.158C46.2653 106.505 45.1338 105.996 43.9499 105.643L44.5667 102.091L41.2726 101.519L40.6496 105.106C39.3528 105.028 38.0541 105.227 36.8401 105.689C35.7437 106.105 34.7643 106.78 33.9856 107.657C33.2388 108.515 32.7467 109.564 32.565 110.687C32.2974 111.891 32.4411 113.151 32.9731 114.264C33.4722 115.234 34.2102 116.062 35.1175 116.668C36.2101 117.377 37.36 117.993 38.5554 118.51L37.3892 125.226C35.1952 124.672 33.2237 123.459 31.7404 121.75L29.7907 124.54C30.6181 125.506 31.6086 126.32 32.7171 126.945C33.9312 127.633 35.2346 128.15 36.5902 128.481L35.9787 132.002L39.2729 132.574L39.8958 128.987C41.7602 129.105 43.6128 128.616 45.1765 127.594C45.8677 127.129 46.4548 126.525 46.9005 125.821C47.3462 125.117 47.6408 124.328 47.7657 123.504C48.0246 122.338 47.8849 121.118 47.3691 120.041ZM39.217 114.701C38.4568 114.318 37.7803 113.788 37.2268 113.142C37.0103 112.87 36.8568 112.553 36.7773 112.214C36.6978 111.875 36.6943 111.523 36.767 111.183C36.8781 110.402 37.2948 109.697 37.9255 109.222C38.6189 108.73 39.4488 108.467 40.2991 108.47L39.217 114.701ZM42.5131 124.839C41.8573 125.313 41.0669 125.565 40.2576 125.557L41.2609 119.78C41.978 120.113 42.6204 120.587 43.1496 121.174C43.3474 121.412 43.4889 121.693 43.5634 121.993C43.638 122.294 43.6438 122.608 43.5804 122.912C43.4807 123.666 43.0994 124.354 42.5131 124.839Z" fill="#6C63FF"/>
<path d="M109.62 103.397C102.707 102.199 95.5981 103.738 89.7994 107.689C84.0007 111.639 79.9668 117.691 78.5515 124.564C78.497 124.832 78.4458 125.105 78.3982 125.379C77.4845 130.641 78.1514 136.055 80.3147 140.937C82.4779 145.82 86.0404 149.951 90.5516 152.809C95.0627 155.666 100.32 157.122 105.658 156.992C110.997 156.862 116.177 155.151 120.543 152.077C124.91 149.003 128.267 144.703 130.189 139.721C132.112 134.738 132.514 129.298 131.345 124.087C130.176 118.877 127.488 114.13 123.621 110.447C119.754 106.764 114.881 104.311 109.62 103.397ZM100.512 155.842C93.6617 154.645 87.5662 150.779 83.5629 145.092C79.5596 139.406 77.9755 132.364 79.1583 125.511C79.2196 125.158 79.288 124.809 79.3633 124.466C80.4482 119.44 82.9866 114.843 86.663 111.248C90.3393 107.653 94.9913 105.217 100.041 104.245C105.09 103.272 110.314 103.806 115.062 105.778C119.811 107.751 123.875 111.076 126.749 115.34C129.623 119.604 131.18 124.619 131.227 129.761C131.274 134.902 129.809 139.945 127.013 144.261C124.217 148.576 120.215 151.975 115.503 154.034C110.791 156.093 105.578 156.722 100.512 155.842Z" fill="#3F3D56"/>
<path d="M127.373 133.882C126.341 139.829 122.988 145.122 118.053 148.596C113.118 152.071 107.004 153.443 101.058 152.41C95.1114 151.377 89.8187 148.024 86.3441 143.089C82.8695 138.154 81.4977 132.04 82.5305 126.094C82.6539 125.383 82.8095 124.69 82.9942 124.009C84.5312 118.364 88.1834 113.527 93.1925 110.504C98.2015 107.481 104.183 106.503 109.894 107.773C115.605 109.044 120.607 112.465 123.862 117.327C127.117 122.189 128.375 128.117 127.373 133.882Z" fill="white"/>
<path d="M111.418 132.649C110.999 131.84 110.382 131.15 109.625 130.642C108.688 130.04 107.703 129.515 106.68 129.073L107.74 122.97C109.338 123.502 110.755 124.471 111.83 125.767L113.528 123.341C112.926 122.583 112.196 121.935 111.37 121.428C110.457 120.859 109.471 120.416 108.44 120.109L108.977 117.015L106.108 116.517L105.566 119.641C104.436 119.573 103.305 119.746 102.248 120.149C101.293 120.511 100.44 121.099 99.7616 121.862C99.1112 122.61 98.6826 123.524 98.5243 124.502C98.2913 125.551 98.4164 126.647 98.8798 127.617C99.3145 128.462 99.9572 129.183 100.747 129.711C101.699 130.328 102.701 130.865 103.742 131.315L102.726 137.164C100.815 136.682 99.0981 135.625 97.8062 134.137L96.108 136.567C96.8287 137.409 97.6914 138.118 98.6569 138.662C99.7142 139.261 100.849 139.711 102.03 139.999L101.498 143.066L104.367 143.564L104.909 140.44C106.533 140.543 108.147 140.117 109.509 139.227C110.111 138.822 110.622 138.296 111.01 137.683C111.398 137.069 111.655 136.382 111.764 135.665C111.989 134.649 111.868 133.587 111.418 132.649ZM104.318 127.998C103.656 127.664 103.067 127.203 102.585 126.64C102.396 126.402 102.262 126.127 102.193 125.832C102.124 125.537 102.121 125.23 102.184 124.934C102.281 124.253 102.644 123.639 103.193 123.226C103.797 122.797 104.52 122.568 105.261 122.571L104.318 127.998ZM107.189 136.827C106.618 137.24 105.929 137.46 105.224 137.453L106.098 132.422C106.723 132.711 107.282 133.124 107.743 133.635C107.915 133.843 108.039 134.087 108.104 134.349C108.169 134.611 108.174 134.885 108.118 135.149C108.032 135.806 107.699 136.405 107.189 136.827Z" fill="#6C63FF"/>
<path d="M148.08 157.264C143.471 156.466 138.732 157.492 134.866 160.126C131 162.76 128.311 166.794 127.368 171.376C127.331 171.555 127.297 171.737 127.265 171.919C126.656 175.427 127.101 179.037 128.543 182.292C129.985 185.546 132.36 188.301 135.368 190.206C138.375 192.111 141.88 193.081 145.439 192.995C148.998 192.908 152.451 191.768 155.362 189.718C158.273 187.668 160.511 184.802 161.793 181.48C163.075 178.159 163.343 174.532 162.563 171.058C161.784 167.584 159.992 164.42 157.414 161.965C154.836 159.509 151.588 157.874 148.08 157.264ZM142.008 192.228C137.441 191.43 133.377 188.853 130.709 185.062C128.04 181.271 126.984 176.576 127.772 172.007C127.813 171.772 127.859 171.54 127.909 171.311C128.632 167.96 130.324 164.895 132.775 162.499C135.226 160.102 138.328 158.478 141.694 157.83C145.06 157.182 148.542 157.537 151.708 158.852C154.874 160.167 157.583 162.384 159.499 165.227C161.415 168.069 162.454 171.412 162.485 174.84C162.516 178.268 161.539 181.63 159.675 184.507C157.812 187.384 155.143 189.65 152.002 191.023C148.861 192.395 145.385 192.814 142.008 192.228Z" fill="#3F3D56"/>
<path d="M159.916 177.588C159.227 181.552 156.992 185.081 153.702 187.398C150.412 189.714 146.336 190.629 142.372 189.94C138.408 189.251 134.879 187.016 132.563 183.726C130.246 180.436 129.332 176.36 130.02 172.396C130.103 171.922 130.206 171.46 130.329 171.006C131.354 167.243 133.789 164.018 137.128 162.003C140.468 159.987 144.455 159.335 148.262 160.182C152.07 161.029 155.405 163.31 157.575 166.551C159.745 169.792 160.583 173.745 159.916 177.588Z" fill="white"/>
<path d="M149.279 176.766C148.999 176.226 148.588 175.766 148.084 175.428C147.459 175.027 146.802 174.677 146.12 174.382L146.826 170.313C147.892 170.668 148.836 171.314 149.554 172.178L150.685 170.561C150.284 170.055 149.797 169.623 149.247 169.285C148.638 168.906 147.981 168.61 147.293 168.406L147.652 166.343L145.739 166.011L145.377 168.094C144.624 168.048 143.87 168.164 143.165 168.433C142.529 168.674 141.96 169.066 141.508 169.575C141.074 170.073 140.788 170.682 140.683 171.334C140.528 172.034 140.611 172.765 140.92 173.411C141.21 173.975 141.638 174.455 142.165 174.807C142.799 175.219 143.467 175.577 144.161 175.877L143.484 179.776C142.21 179.455 141.065 178.75 140.204 177.758L139.072 179.378C139.552 179.939 140.128 180.412 140.771 180.774C141.476 181.174 142.233 181.474 143.02 181.666L142.665 183.711L144.578 184.043L144.939 181.96C146.022 182.029 147.098 181.745 148.006 181.151C148.407 180.881 148.748 180.53 149.007 180.122C149.266 179.713 149.437 179.255 149.509 178.776C149.659 178.099 149.578 177.391 149.279 176.766ZM144.545 173.665C144.104 173.443 143.711 173.135 143.39 172.76C143.264 172.602 143.175 172.418 143.129 172.221C143.083 172.024 143.081 171.82 143.123 171.622C143.187 171.169 143.429 170.759 143.795 170.484C144.198 170.198 144.68 170.045 145.174 170.047L144.545 173.665ZM146.459 179.552C146.078 179.827 145.619 179.973 145.15 179.969L145.732 176.614C146.149 176.807 146.522 177.083 146.829 177.423C146.944 177.562 147.026 177.725 147.069 177.899C147.112 178.074 147.116 178.256 147.079 178.433C147.021 178.87 146.8 179.27 146.459 179.552Z" fill="#6C63FF"/>
<path d="M258 727V739.547C258.002 740.197 258.386 740.82 259.068 741.28C259.75 741.74 260.675 741.999 261.639 742H390.361C391.325 741.997 392.247 741.737 392.929 741.278C393.61 740.819 393.995 740.197 394 739.547V727L258 727Z" fill="#CCCCCC"/>
</svg>
