<svg xmlns="http://www.w3.org/2000/svg" xmlns:xlink="http://www.w3.org/1999/xlink" width="1366" zoomAndPan="magnify" viewBox="0 0 1024.5 576" height="768" preserveAspectRatio="xMidYMid meet" version="1.0"><defs><filter x="0%" y="0%" width="100%" height="100%" id="c656a07914"><feColorMatrix values="0 0 0 0 1 0 0 0 0 1 0 0 0 0 1 0 0 0 1 0" color-interpolation-filters="sRGB"/></filter><clipPath id="3aca59768a"><path d="M 0 0.140625 L 1024 0.140625 L 1024 575.859375 L 0 575.859375 Z M 0 0.140625 " clip-rule="nonzero"/></clipPath><mask id="10b6406915"><g filter="url(#c656a07914)"><rect x="-102.45" width="1229.4" fill="#000000" y="-57.6" height="691.2" fill-opacity="0.07"/></g></mask><clipPath id="d5de011bf4"><path d="M 574 152 L 1024 152 L 1024 575.859375 L 574 575.859375 Z M 574 152 " clip-rule="nonzero"/></clipPath><clipPath id="7384840a8c"><path d="M 191 529 L 415 529 L 415 575.859375 L 191 575.859375 Z M 191 529 " clip-rule="nonzero"/></clipPath><clipPath id="9004c8c714"><path d="M 0 0.140625 L 210 0.140625 L 210 256 L 0 256 Z M 0 0.140625 " clip-rule="nonzero"/></clipPath><clipPath id="bda906f69e"><rect x="0" width="1024" y="0" height="576"/></clipPath></defs><g clip-path="url(#3aca59768a)"><g mask="url(#10b6406915)"><g transform="matrix(1, 0, 0, 1, 0, 0.000000000000055289)"><g clip-path="url(#bda906f69e)"><g clip-path="url(#d5de011bf4)"><path fill="#5d5d5d" d="M 1034.96875 152.9375 L 710.851562 152.9375 C 635.636719 152.9375 574.421875 214.152344 574.421875 289.367188 L 574.421875 613.484375 C 574.421875 688.699219 635.636719 749.914062 710.851562 749.914062 L 1034.96875 749.914062 C 1110.183594 749.914062 1171.402344 688.699219 1171.402344 613.484375 L 1171.402344 289.367188 C 1171.402344 214.152344 1110.183594 152.9375 1034.96875 152.9375 Z M 710.851562 732.105469 C 645.476562 732.105469 592.230469 678.917969 592.230469 613.484375 L 592.230469 289.367188 C 592.230469 223.992188 645.417969 170.742188 710.851562 170.742188 L 1034.96875 170.742188 C 1100.34375 170.742188 1153.59375 223.933594 1153.59375 289.367188 L 1153.59375 613.484375 C 1153.59375 678.859375 1100.402344 732.105469 1034.96875 732.105469 Z M 710.851562 732.105469 " fill-opacity="1" fill-rule="nonzero"/></g><g clip-path="url(#7384840a8c)"><path fill="#5d5d5d" d="M 360.492188 529.890625 L 245.675781 529.890625 C 215.859375 529.890625 191.605469 554.144531 191.605469 583.960938 L 191.605469 698.773438 C 191.605469 728.59375 215.859375 752.84375 245.675781 752.84375 L 360.492188 752.84375 C 390.308594 752.84375 414.558594 728.59375 414.558594 698.777344 L 414.558594 583.960938 C 414.558594 554.144531 390.308594 529.890625 360.492188 529.890625 Z M 245.675781 734.976562 C 225.699219 734.976562 209.414062 718.691406 209.414062 698.71875 L 209.414062 583.902344 C 209.414062 563.925781 225.699219 547.640625 245.675781 547.640625 L 360.492188 547.640625 C 380.464844 547.640625 396.75 563.925781 396.75 583.902344 L 396.75 698.71875 C 396.75 718.691406 380.464844 734.976562 360.492188 734.976562 Z M 245.675781 734.976562 " fill-opacity="1" fill-rule="nonzero"/></g><g clip-path="url(#9004c8c714)"><path fill="#5d5d5d" d="M 131.503906 -76.050781 L -43.9375 -76.050781 C -86.9375 -76.050781 -121.90625 -41.078125 -121.90625 1.917969 L -121.90625 177.363281 C -121.90625 220.359375 -86.9375 255.332031 -43.9375 255.332031 L 131.503906 255.332031 C 174.503906 255.332031 209.472656 220.359375 209.472656 177.363281 L 209.472656 1.917969 C 209.414062 -41.078125 174.503906 -76.050781 131.503906 -76.050781 Z M -43.9375 237.464844 C -77.09375 237.464844 -104.042969 210.519531 -104.042969 177.363281 L -104.042969 1.917969 C -104.042969 -31.238281 -77.09375 -58.183594 -43.9375 -58.183594 L 131.503906 -58.183594 C 164.660156 -58.183594 191.605469 -31.238281 191.605469 1.917969 L 191.605469 177.363281 C 191.605469 210.519531 164.660156 237.464844 131.503906 237.464844 Z M -43.9375 237.464844 " fill-opacity="1" fill-rule="nonzero"/></g></g></g></g></g></svg>