<svg width="1022" height="751" viewBox="0 0 1022 751" fill="none" xmlns="http://www.w3.org/2000/svg">
<g clip-path="url(#clip0_136_868)">
<g clip-path="url(#clip1_136_868)">
<path d="M834.308 189H485.692C477.29 188.991 469.234 185.647 463.293 179.703C457.351 173.759 454.009 165.699 454 157.293V27.7071C454.01 19.3008 457.352 11.2415 463.293 5.29737C469.234 -0.646807 477.29 -3.99044 485.692 -4H834.308C842.71 -3.99044 850.766 -0.646808 856.707 5.29737C862.648 11.2415 865.99 19.3008 866 27.7071V157.293C865.991 165.699 862.649 173.759 856.707 179.703C850.766 185.647 842.71 188.991 834.308 189Z" fill="white"/>
<path d="M834.308 189H485.692C477.29 188.991 469.234 185.647 463.293 179.703C457.351 173.759 454.009 165.699 454 157.293V27.7071C454.01 19.3008 457.352 11.2415 463.293 5.29737C469.234 -0.646807 477.29 -3.99044 485.692 -4H834.308C842.71 -3.99044 850.766 -0.646808 856.707 5.29737C862.648 11.2415 865.99 19.3008 866 27.7071V157.293C865.991 165.699 862.649 173.759 856.707 179.703C850.766 185.647 842.71 188.991 834.308 189ZM485.692 -1.24286C478.021 -1.23425 470.665 1.8186 465.241 7.24591C459.816 12.6732 456.764 20.0318 456.756 27.7071V157.293C456.765 164.968 459.816 172.327 465.241 177.754C470.666 183.181 478.021 186.234 485.692 186.243H834.308C841.979 186.234 849.335 183.181 854.759 177.754C860.184 172.327 863.235 164.968 863.244 157.293V27.7071C863.236 20.0318 860.184 12.6732 854.759 7.24591C849.335 1.8186 841.979 -1.23425 834.308 -1.24286H485.692Z" fill="#3F3D56"/>
<path d="M966.395 207H780.398C779.224 206.986 778.055 206.837 776.915 206.556C773.512 205.733 770.485 203.78 768.323 201.011C766.16 198.242 764.99 194.82 765 191.299V127.687C765.007 123.526 766.653 119.538 769.579 116.597C772.504 113.656 776.469 112.003 780.605 112H966.395C968.9 111.993 971.368 112.601 973.586 113.771C974.469 114.232 975.305 114.78 976.08 115.408C977.931 116.866 979.426 118.73 980.452 120.858C981.478 122.986 982.008 125.322 982 127.687V191.299C981.995 195.462 980.35 199.453 977.424 202.396C974.499 205.34 970.532 206.995 966.395 207Z" fill="white"/>
<path d="M954 205C962.227 184.464 970.893 164.13 980 144V178.13C973.791 187.833 966.606 196.839 958.564 205H954Z" fill="#E6E6E6"/>
<path d="M975 116.478C958.179 146.441 940.579 175.949 922.2 205H919C937.685 175.493 955.591 145.493 972.718 115C973.527 115.416 974.291 115.911 975 116.478Z" fill="#E6E6E6"/>
<path d="M853 149.207C842.088 168.498 830.045 187.128 816.936 205H798C810.403 189.892 822.816 174.783 835.238 159.675C838.801 155.325 842.669 150.768 848.014 149L853 149.207Z" fill="#E6E6E6"/>
<path d="M827 146.098C825.046 148.182 823.174 150.349 821.411 152.601C817.531 157.384 813.705 162.21 809.865 167.021C807.474 170.014 805.082 173.007 802.718 176C801.968 175.506 801.255 174.955 800.587 174.35C796.811 170.995 794.469 166.261 794.063 161.16C793.657 156.06 795.219 151 798.414 147.064C801.609 143.128 806.183 140.629 811.156 140.104C816.129 139.578 821.105 141.067 825.019 144.251C825.724 144.814 826.386 145.432 827 146.098Z" fill="#6C63FF"/>
<path d="M934.359 159.708L897.962 146.486L879.888 139.923C874.002 137.791 868.13 135.355 862.05 133.815C856.763 132.313 851.148 132.385 845.902 134.021C841.223 135.741 836.941 138.38 833.312 141.781C831.706 143.253 830.15 144.771 828.645 146.335C826.664 148.385 824.767 150.517 822.981 152.732C819.047 157.438 815.169 162.184 811.278 166.917C808.854 169.861 806.43 172.806 804.034 175.75C796.029 185.477 788.07 195.227 780.158 205C779.093 204.988 778.034 204.854 777 204.601C785.254 194.42 793.546 184.262 801.874 174.126C802.829 172.943 803.813 171.746 804.782 170.563C808.84 165.624 812.903 160.689 816.97 155.759C820.114 151.948 823.23 148.109 826.637 144.519C826.942 144.188 827.246 143.872 827.565 143.542C834.476 136.442 843.104 130.169 853.436 130.003C859.516 129.907 865.388 131.82 871.038 133.842C877.118 136.03 883.184 138.258 889.264 140.474L925.91 153.792L935.079 157.121C936.699 157.699 936.007 160.313 934.359 159.708Z" fill="#E6E6E6"/>
<path d="M966.395 207H780.398C779.224 206.986 778.055 206.837 776.915 206.556C773.512 205.733 770.485 203.78 768.323 201.011C766.16 198.242 764.99 194.82 765 191.299V127.687C765.007 123.526 766.653 119.538 769.579 116.597C772.504 113.656 776.469 112.003 780.605 112H966.395C968.9 111.993 971.368 112.601 973.586 113.771C974.469 114.232 975.305 114.78 976.08 115.408C977.931 116.866 979.426 118.73 980.452 120.858C981.478 122.986 982.008 125.322 982 127.687V191.299C981.995 195.462 980.35 199.453 977.424 202.396C974.499 205.34 970.532 206.995 966.395 207ZM780.605 114.781C777.202 114.784 773.94 116.143 771.533 118.563C769.125 120.982 767.77 124.264 767.764 127.687V191.299C767.756 194.197 768.719 197.013 770.499 199.291C772.279 201.57 774.77 203.178 777.571 203.855C778.502 204.084 779.456 204.206 780.415 204.219H966.395C969.799 204.215 973.063 202.852 975.47 200.43C977.877 198.008 979.232 194.724 979.236 191.299V127.687C979.241 125.741 978.805 123.819 977.96 122.068C977.115 120.317 975.883 118.784 974.36 117.585C973.724 117.069 973.038 116.618 972.313 116.239C970.487 115.277 968.456 114.776 966.395 114.781H780.605Z" fill="#3F3D56"/>
<path d="M597.279 267H329.721C321.311 266.991 313.248 263.656 307.301 257.727C301.354 251.798 298.009 243.76 298 235.375V188.625C298.01 180.24 301.355 172.202 307.301 166.273C313.248 160.345 321.311 157.01 329.721 157H597.279C605.689 157.01 613.752 160.345 619.699 166.273C625.645 172.202 628.99 180.24 629 188.625V235.375C628.991 243.76 625.646 251.798 619.699 257.727C613.752 263.656 605.689 266.991 597.279 267Z" fill="white"/>
<path d="M597.279 267H329.721C321.311 266.991 313.248 263.656 307.301 257.727C301.354 251.798 298.009 243.76 298 235.375V188.625C298.01 180.24 301.355 172.202 307.301 166.273C313.248 160.345 321.311 157.01 329.721 157H597.279C605.689 157.01 613.752 160.345 619.699 166.273C625.645 172.202 628.99 180.24 629 188.625V235.375C628.991 243.76 625.646 251.798 619.699 257.727C613.752 263.656 605.689 266.991 597.279 267ZM329.721 159.75C322.042 159.759 314.68 162.804 309.251 168.217C303.821 173.63 300.767 180.97 300.758 188.625V235.375C300.767 243.03 303.821 250.37 309.251 255.783C314.681 261.196 322.042 264.241 329.721 264.25H597.279C604.958 264.241 612.319 261.196 617.749 255.783C623.179 250.37 626.233 243.03 626.242 235.375V188.625C626.233 180.97 623.179 173.63 617.749 168.217C612.32 162.804 604.958 159.759 597.279 159.75H329.721Z" fill="#3F3D56"/>
<path d="M485.236 240H441.764C439.441 239.997 437.213 239.092 435.57 237.483C433.927 235.874 433.003 233.692 433 231.416V191.584C433.003 189.308 433.927 187.126 435.57 185.517C437.213 183.908 439.441 183.003 441.764 183H485.236C487.559 183.003 489.787 183.908 491.43 185.517C493.073 187.126 493.997 189.308 494 191.584V231.416C493.997 233.692 493.073 235.874 491.43 237.483C489.787 239.092 487.559 239.997 485.236 240Z" fill="#E6E6E6"/>
<path d="M561.379 240H518.621C516.335 239.997 514.144 239.092 512.528 237.483C510.912 235.874 510.003 233.692 510 231.416V191.584C510.003 189.308 510.912 187.126 512.528 185.517C514.144 183.908 516.335 183.003 518.621 183H561.379C563.665 183.003 565.856 183.908 567.472 185.517C569.088 187.126 569.997 189.308 570 191.584V231.416C569.997 233.692 569.088 235.874 567.472 237.483C565.856 239.092 563.665 239.997 561.379 240Z" fill="#E6E6E6"/>
<path d="M676.5 72H621.5C620.041 72 618.642 71.4205 617.611 70.3891C616.58 69.3576 616 67.9587 616 66.5C616 65.0413 616.58 63.6424 617.611 62.6109C618.642 61.5795 620.041 61 621.5 61H676.5C677.959 61 679.358 61.5795 680.389 62.6109C681.421 63.6424 682 65.0413 682 66.5C682 67.9587 681.421 69.3576 680.389 70.3891C679.358 71.4205 677.959 72 676.5 72Z" fill="#CCCCCC"/>
<path d="M795.489 103H620.511C619.049 103 617.648 102.421 616.614 101.389C615.581 100.358 615 98.9587 615 97.5C615 96.0413 615.581 94.6424 616.614 93.6109C617.648 92.5795 619.049 92 620.511 92H795.489C796.951 92 798.352 92.5795 799.386 93.6109C800.419 94.6424 801 96.0413 801 97.5C801 98.9587 800.419 100.358 799.386 101.389C798.352 102.421 796.951 103 795.489 103Z" fill="#CCCCCC"/>
<path d="M556 119C576.435 119 593 102.435 593 82C593 61.5655 576.435 45 556 45C535.565 45 519 61.5655 519 82C519 102.435 535.565 119 556 119Z" fill="#6C63FF"/>
<path d="M958.308 428H609.692C601.29 427.991 593.234 424.647 587.293 418.703C581.351 412.759 578.009 404.699 578 396.293V266.707C578.01 258.301 581.352 250.242 587.293 244.297C593.234 238.353 601.29 235.01 609.692 235H958.308C966.71 235.01 974.766 238.353 980.707 244.297C986.648 250.242 989.99 258.301 990 266.707V396.293C989.991 404.699 986.648 412.759 980.707 418.703C974.766 424.647 966.71 427.991 958.308 428Z" fill="white"/>
<path d="M958.308 428H609.692C601.29 427.991 593.234 424.647 587.293 418.703C581.351 412.759 578.009 404.699 578 396.293V266.707C578.01 258.301 581.352 250.242 587.293 244.297C593.234 238.353 601.29 235.01 609.692 235H958.308C966.71 235.01 974.766 238.353 980.707 244.297C986.648 250.242 989.99 258.301 990 266.707V396.293C989.991 404.699 986.648 412.759 980.707 418.703C974.766 424.647 966.71 427.991 958.308 428ZM609.692 237.757C602.021 237.766 594.665 240.819 589.241 246.246C583.816 251.673 580.764 259.032 580.756 266.707V396.293C580.765 403.968 583.816 411.327 589.241 416.754C594.666 422.181 602.021 425.234 609.692 425.243H958.308C965.979 425.234 973.334 422.181 978.759 416.754C984.184 411.327 987.235 403.968 987.244 396.293V266.707C987.236 259.032 984.184 251.673 978.759 246.246C973.335 240.819 965.979 237.766 958.308 237.757H609.692Z" fill="#3F3D56"/>
<path d="M745.396 286H686.622C685.884 286.001 685.153 285.86 684.471 285.584C683.789 285.308 683.169 284.903 682.647 284.392C682.125 283.881 681.711 283.275 681.428 282.607C681.146 281.939 681 281.223 681 280.5C681 279.777 681.146 279.061 681.428 278.393C681.711 277.725 682.125 277.119 682.647 276.608C683.169 276.097 683.789 275.692 684.471 275.416C685.153 275.14 685.884 274.999 686.622 275H745.396C746.883 275.002 748.309 275.583 749.359 276.614C750.41 277.645 751 279.043 751 280.5C751 281.957 750.41 283.355 749.359 284.386C748.309 285.417 746.883 285.998 745.396 286Z" fill="#6C63FF"/>
<path d="M876.408 309H686.592C685.109 309 683.686 308.421 682.638 307.389C681.589 306.358 681 304.959 681 303.5C681 302.041 681.589 300.642 682.638 299.611C683.686 298.579 685.109 298 686.592 298H876.408C877.891 298 879.314 298.579 880.362 299.611C881.411 300.642 882 302.041 882 303.5C882 304.959 881.411 306.358 880.362 307.389C879.314 308.421 877.891 309 876.408 309Z" fill="#E6E6E6"/>
<path d="M876.408 336H686.592C685.857 336 685.13 335.845 684.452 335.543C683.773 335.242 683.157 334.8 682.638 334.243C682.118 333.685 681.707 333.024 681.426 332.296C681.145 331.568 681 330.788 681 330C681 329.212 681.145 328.432 681.426 327.704C681.707 326.976 682.118 326.314 682.638 325.757C683.157 325.2 683.773 324.758 684.452 324.457C685.13 324.155 685.857 324 686.592 324H876.408C877.891 324 879.314 324.632 880.362 325.757C881.411 326.883 882 328.409 882 330C882 331.591 881.411 333.117 880.362 334.243C879.314 335.368 877.891 336 876.408 336Z" fill="#E6E6E6"/>
<path d="M876.417 362H686.601C685.866 362.001 685.137 361.86 684.458 361.584C683.779 361.308 683.161 360.903 682.641 360.392C682.121 359.881 681.708 359.275 681.427 358.607C681.145 357.939 681 357.223 681 356.5C681 355.777 681.145 355.061 681.427 354.393C681.708 353.725 682.121 353.119 682.641 352.608C683.161 352.097 683.779 351.692 684.458 351.416C685.137 351.14 685.866 350.999 686.601 351H876.417C877.899 351.002 879.319 351.583 880.365 352.614C881.412 353.645 882 355.043 882 356.5C882 357.957 881.412 359.355 880.365 360.386C879.319 361.417 877.899 361.998 876.417 362Z" fill="#E6E6E6"/>
<path d="M876.408 388H686.592C685.109 388 683.686 387.421 682.638 386.389C681.589 385.358 681 383.959 681 382.5C681 381.041 681.589 379.642 682.638 378.611C683.686 377.579 685.109 377 686.592 377H876.408C877.891 377 879.314 377.579 880.362 378.611C881.411 379.642 882 381.041 882 382.5C882 383.959 881.411 385.358 880.362 386.389C879.314 387.421 877.891 388 876.408 388Z" fill="#E6E6E6"/>
</g>
<path d="M286.126 155H77.5831C45.1483 155 18.8547 181.294 18.8547 213.728V690.272C18.8547 722.706 45.1483 749 77.5831 749H286.126C318.561 749 344.855 722.706 344.855 690.272V213.728C344.855 181.294 318.561 155 286.126 155Z" fill="#3F3D56"/>
<path d="M339.355 213.732V690.272C339.339 704.385 333.725 717.915 323.746 727.894C313.767 737.873 300.238 743.486 286.125 743.502H77.5852C63.4728 743.486 49.943 737.873 39.964 727.894C29.9849 717.915 24.3716 704.385 24.3552 690.272V213.732C24.3716 199.62 29.9849 186.09 39.964 176.111C49.943 166.132 63.4728 160.519 77.5852 160.502H104.855V169.922C104.855 174.187 106.55 178.277 109.565 181.292C112.581 184.308 116.671 186.002 120.935 186.002H242.775C247.04 186.002 251.13 184.308 254.145 181.292C257.161 178.277 258.855 174.187 258.855 169.922V160.502H286.125C300.238 160.519 313.767 166.132 323.746 176.111C333.725 186.09 339.339 199.62 339.355 213.732Z" fill="white"/>
<path d="M17.3547 275.5C16.2942 275.499 15.2775 275.077 14.5276 274.327C13.7778 273.577 13.356 272.56 13.3547 271.5V263.5C13.3547 262.439 13.7762 261.422 14.5263 260.672C15.2765 259.921 16.2939 259.5 17.3547 259.5C18.4156 259.5 19.433 259.921 20.1832 260.672C20.9333 261.422 21.3547 262.439 21.3547 263.5V271.5C21.3535 272.56 20.9317 273.577 20.1818 274.327C19.4319 275.077 18.4152 275.499 17.3547 275.5Z" fill="#3F3D56"/>
<path d="M17.3547 316.521C16.2942 316.52 15.2775 316.098 14.5276 315.349C13.7778 314.599 13.3559 313.582 13.3547 312.521V290.5C13.3547 289.439 13.7762 288.422 14.5263 287.672C15.2765 286.921 16.2939 286.5 17.3547 286.5C18.4156 286.5 19.433 286.921 20.1832 287.672C20.9333 288.422 21.3547 289.439 21.3547 290.5V312.521C21.3535 313.582 20.9317 314.599 20.1818 315.349C19.4319 316.098 18.4152 316.52 17.3547 316.521Z" fill="#3F3D56"/>
<path d="M17.3547 349.5C16.2942 349.499 15.2775 349.077 14.5276 348.327C13.7778 347.577 13.3559 346.56 13.3547 345.5V323.479C13.3547 322.418 13.7762 321.4 14.5263 320.65C15.2765 319.9 16.2939 319.479 17.3547 319.479C18.4156 319.479 19.433 319.9 20.1832 320.65C20.9333 321.4 21.3547 322.418 21.3547 323.479V345.5C21.3535 346.56 20.9317 347.577 20.1818 348.327C19.4319 349.077 18.4152 349.499 17.3547 349.5Z" fill="#3F3D56"/>
<path d="M345.355 331.5C344.294 331.499 343.278 331.077 342.528 330.327C341.778 329.577 341.356 328.56 341.355 327.5V273.767C341.355 272.706 341.776 271.688 342.526 270.938C343.276 270.188 344.294 269.767 345.355 269.767C346.416 269.767 347.433 270.188 348.183 270.938C348.933 271.688 349.355 272.706 349.355 273.767V327.5C349.354 328.56 348.932 329.577 348.182 330.327C347.432 331.077 346.415 331.499 345.355 331.5Z" fill="#3F3D56"/>
<path d="M190.447 173.346H159.447C158.784 173.346 158.148 173.082 157.68 172.613C157.211 172.145 156.947 171.509 156.947 170.846C156.947 170.183 157.211 169.547 157.68 169.078C158.148 168.609 158.784 168.346 159.447 168.346H190.447C191.11 168.346 191.746 168.609 192.215 169.078C192.684 169.547 192.947 170.183 192.947 170.846C192.947 171.509 192.684 172.145 192.215 172.613C191.746 173.082 191.11 173.346 190.447 173.346Z" fill="white"/>
<path d="M206.447 172.846C207.552 172.846 208.447 171.95 208.447 170.846C208.447 169.741 207.552 168.846 206.447 168.846C205.343 168.846 204.447 169.741 204.447 170.846C204.447 171.95 205.343 172.846 206.447 172.846Z" fill="white"/>
<path d="M92.9407 184.073H65.9407C64.6146 184.073 63.3428 183.546 62.4052 182.609C61.4675 181.671 60.9407 180.399 60.9407 179.073C60.9407 177.747 61.4675 176.475 62.4052 175.537C63.3428 174.6 64.6146 174.073 65.9407 174.073H92.9407C94.2668 174.073 95.5385 174.6 96.4762 175.537C97.4139 176.475 97.9407 177.747 97.9407 179.073C97.9407 180.399 97.4139 181.671 96.4762 182.609C95.5385 183.546 94.2668 184.073 92.9407 184.073Z" fill="#E6E6E6"/>
<path d="M269.941 183.573C272.426 183.573 274.441 181.558 274.441 179.073C274.441 176.588 272.426 174.573 269.941 174.573C267.455 174.573 265.441 176.588 265.441 179.073C265.441 181.558 267.455 183.573 269.941 183.573Z" fill="#E6E6E6"/>
<path d="M283.941 183.573C286.426 183.573 288.441 181.558 288.441 179.073C288.441 176.588 286.426 174.573 283.941 174.573C281.455 174.573 279.441 176.588 279.441 179.073C279.441 181.558 281.455 183.573 283.941 183.573Z" fill="#E6E6E6"/>
<path d="M297.941 183.573C300.426 183.573 302.441 181.558 302.441 179.073C302.441 176.588 300.426 174.573 297.941 174.573C295.455 174.573 293.441 176.588 293.441 179.073C293.441 181.558 295.455 183.573 297.941 183.573Z" fill="#E6E6E6"/>
<path d="M266.794 253.957H97.0943C93.807 253.962 90.6557 255.269 88.3312 257.594C86.0067 259.918 84.6989 263.07 84.6943 266.357V376.667C84.6989 379.954 86.0067 383.106 88.3312 385.43C90.6557 387.755 93.807 389.062 97.0943 389.067H266.794C270.082 389.064 273.235 387.757 275.559 385.432C277.884 383.107 279.192 379.955 279.194 376.667V266.357C279.192 263.069 277.884 259.917 275.559 257.592C273.235 255.267 270.082 253.96 266.794 253.957Z" fill="#F2F2F2"/>
<path d="M213.667 301.049C198.331 328.164 181.408 354.349 162.986 379.469H136.373C153.804 358.233 171.248 336.998 188.705 315.762C193.713 309.648 199.148 303.242 206.66 300.758L213.667 301.049Z" fill="#3F3D56"/>
<path d="M178.301 296.701C175.525 299.593 172.865 302.602 170.361 305.727C164.849 312.366 159.414 319.062 153.959 325.74C150.562 329.893 147.166 334.047 143.808 338.201C142.741 337.516 141.729 336.751 140.779 335.911C135.416 331.256 132.089 324.685 131.512 317.606C130.935 310.527 133.153 303.504 137.692 298.042C142.231 292.579 148.728 289.111 155.793 288.382C162.857 287.652 169.927 289.719 175.486 294.139C176.488 294.92 177.429 295.777 178.301 296.701Z" fill="#6C63FF"/>
<path d="M279.194 293.547V297.577L277.394 296.917L252.064 287.657C243.814 284.647 235.584 281.207 227.064 279.037C219.652 276.917 211.78 277.018 204.424 279.327C197.868 281.753 191.868 285.477 186.784 290.277C184.534 292.357 182.354 294.487 180.244 296.697C179.554 297.427 178.864 298.157 178.184 298.887C176.144 301.107 174.174 303.377 172.304 305.727C166.794 312.367 161.354 319.067 155.904 325.737C152.504 329.897 149.104 334.047 145.744 338.197C134.524 351.927 123.371 365.684 112.284 379.467C110.791 379.45 109.305 379.262 107.854 378.907C119.164 364.857 130.528 350.844 141.944 336.867C142.204 336.547 142.464 336.227 142.724 335.907C144.064 334.237 145.434 332.557 146.794 330.887C152.484 323.917 158.178 316.954 163.874 309.997C168.014 304.937 172.124 299.857 176.584 295.057C176.854 294.747 177.134 294.447 177.424 294.137C177.854 293.677 178.284 293.227 178.724 292.757C188.414 282.747 200.504 273.897 214.984 273.657C223.504 273.527 231.734 276.227 239.654 279.077C248.184 282.167 256.684 285.307 265.204 288.427L279.194 293.547Z" fill="#3F3D56"/>
<path d="M283.184 632.618H80.5259C77.2386 632.614 74.087 631.307 71.7625 628.982C69.438 626.658 68.1305 623.506 68.1267 620.219V592.906C68.1305 589.619 69.438 586.467 71.7625 584.143C74.087 581.818 77.2386 580.511 80.5259 580.507H283.184C286.472 580.511 289.623 581.818 291.948 584.143C294.272 586.467 295.58 589.619 295.584 592.906V620.219C295.58 623.506 294.272 626.658 291.948 628.982C289.623 631.307 286.472 632.614 283.184 632.618Z" fill="#F2F2F2"/>
<path d="M283.184 492.618H80.5259C77.2386 492.614 74.087 491.307 71.7625 488.982C69.438 486.658 68.1305 483.506 68.1267 480.219V452.906C68.1305 449.619 69.438 446.467 71.7625 444.143C74.087 441.818 77.2386 440.511 80.5259 440.507H283.184C286.472 440.511 289.623 441.818 291.948 444.143C294.272 446.467 295.58 449.619 295.584 452.906V480.219C295.58 483.506 294.272 486.658 291.948 488.982C289.623 491.307 286.472 492.614 283.184 492.618Z" fill="#F2F2F2"/>
<path d="M283.184 562.618H80.5259C77.2386 562.614 74.087 561.307 71.7625 558.982C69.438 556.658 68.1305 553.506 68.1267 550.219V522.906C68.1305 519.619 69.438 516.467 71.7625 514.143C74.087 511.818 77.2386 510.511 80.5259 510.507H283.184C286.472 510.511 289.623 511.818 291.948 514.143C294.272 516.467 295.58 519.619 295.584 522.906V550.219C295.58 553.506 294.272 556.658 291.948 558.982C289.623 561.307 286.472 562.614 283.184 562.618Z" fill="#F2F2F2"/>
<path d="M206.477 601.888H146.765C146.056 601.888 145.377 601.607 144.876 601.106C144.375 600.605 144.094 599.926 144.094 599.217C144.094 598.509 144.375 597.829 144.876 597.328C145.377 596.827 146.056 596.546 146.765 596.546H206.477C207.185 596.546 207.864 596.827 208.365 597.328C208.866 597.829 209.148 598.509 209.148 599.217C209.148 599.926 208.866 600.605 208.365 601.106C207.864 601.607 207.185 601.888 206.477 601.888Z" fill="white"/>
<path d="M263.907 616.58H146.097C145.389 616.58 144.709 616.298 144.208 615.797C143.707 615.296 143.426 614.617 143.426 613.909C143.426 613.2 143.707 612.521 144.208 612.02C144.709 611.519 145.389 611.237 146.097 611.237H263.907C264.615 611.237 265.294 611.519 265.795 612.02C266.296 612.521 266.578 613.2 266.578 613.909C266.578 614.617 266.296 615.296 265.795 615.797C265.294 616.298 264.615 616.58 263.907 616.58Z" fill="white"/>
<path d="M115.042 624.472C124.933 624.472 132.951 616.454 132.951 606.563C132.951 596.672 124.933 588.653 115.042 588.653C105.151 588.653 97.1326 596.672 97.1326 606.563C97.1326 616.454 105.151 624.472 115.042 624.472Z" fill="white"/>
<path d="M-337 750C-337.001 750.131 -336.948 750.262 -336.844 750.383C-336.74 750.505 -336.587 750.615 -336.394 750.708C-336.201 750.801 -335.972 750.875 -335.72 750.925C-335.468 750.975 -335.198 751 -334.926 751H911.926C912.476 751 913.003 750.895 913.392 750.707C913.781 750.52 914 750.265 914 750C914 749.735 913.781 749.48 913.392 749.293C913.003 749.105 912.476 749 911.926 749H-334.926C-335.198 749 -335.468 749.025 -335.72 749.075C-335.972 749.125 -336.201 749.199 -336.394 749.292C-336.587 749.385 -336.74 749.495 -336.844 749.617C-336.948 749.738 -337.001 749.869 -337 750Z" fill="#CCCCCC"/>
<path d="M445.184 492.618H242.526C239.239 492.614 236.087 491.307 233.762 488.982C231.438 486.658 230.13 483.506 230.127 480.219V452.906C230.13 449.619 231.438 446.467 233.762 444.143C236.087 441.818 239.239 440.511 242.526 440.507H445.184C448.472 440.511 451.623 441.818 453.948 444.143C456.272 446.467 457.58 449.619 457.584 452.906V480.219C457.58 483.506 456.272 486.658 453.948 488.982C451.623 491.307 448.472 492.614 445.184 492.618Z" fill="#E6E6E6"/>
<path d="M368.477 461.888H308.765C308.056 461.888 307.377 461.607 306.876 461.106C306.375 460.605 306.094 459.926 306.094 459.217C306.094 458.509 306.375 457.829 306.876 457.328C307.377 456.827 308.056 456.546 308.765 456.546H368.477C369.185 456.546 369.864 456.827 370.365 457.328C370.866 457.829 371.148 458.509 371.148 459.217C371.148 459.926 370.866 460.605 370.365 461.106C369.864 461.607 369.185 461.888 368.477 461.888Z" fill="white"/>
<path d="M425.907 476.58H308.097C307.389 476.58 306.709 476.298 306.208 475.797C305.707 475.296 305.426 474.617 305.426 473.908C305.426 473.2 305.707 472.521 306.208 472.02C306.709 471.519 307.389 471.237 308.097 471.237H425.907C426.615 471.237 427.294 471.519 427.795 472.02C428.296 472.521 428.578 473.2 428.578 473.908C428.578 474.617 428.296 475.296 427.795 475.797C427.294 476.298 426.615 476.58 425.907 476.58Z" fill="white"/>
<path d="M277.042 484.472C286.933 484.472 294.951 476.454 294.951 466.563C294.951 456.672 286.933 448.653 277.042 448.653C267.151 448.653 259.133 456.672 259.133 466.563C259.133 476.454 267.151 484.472 277.042 484.472Z" fill="white"/>
<path d="M380.184 562.618H177.526C174.239 562.614 171.087 561.307 168.762 558.982C166.438 556.658 165.13 553.506 165.127 550.219V522.906C165.13 519.619 166.438 516.467 168.762 514.143C171.087 511.818 174.239 510.511 177.526 510.507H380.184C383.472 510.511 386.623 511.818 388.948 514.143C391.272 516.467 392.58 519.619 392.584 522.906V550.219C392.58 553.506 391.272 556.658 388.948 558.982C386.623 561.307 383.472 562.614 380.184 562.618Z" fill="#E6E6E6"/>
<path d="M303.477 531.888H243.765C243.056 531.888 242.377 531.607 241.876 531.106C241.375 530.605 241.094 529.926 241.094 529.217C241.094 528.509 241.375 527.829 241.876 527.328C242.377 526.827 243.056 526.546 243.765 526.546H303.477C304.185 526.546 304.864 526.827 305.365 527.328C305.866 527.829 306.148 528.509 306.148 529.217C306.148 529.926 305.866 530.605 305.365 531.106C304.864 531.607 304.185 531.888 303.477 531.888Z" fill="white"/>
<path d="M360.907 546.58H243.097C242.389 546.58 241.709 546.298 241.208 545.797C240.707 545.296 240.426 544.617 240.426 543.909C240.426 543.2 240.707 542.521 241.208 542.02C241.709 541.519 242.389 541.237 243.097 541.237H360.907C361.615 541.237 362.294 541.519 362.795 542.02C363.296 542.521 363.578 543.2 363.578 543.909C363.578 544.617 363.296 545.296 362.795 545.797C362.294 546.298 361.615 546.58 360.907 546.58Z" fill="white"/>
<path d="M212.042 554.472C221.933 554.472 229.951 546.454 229.951 536.563C229.951 526.672 221.933 518.653 212.042 518.653C202.151 518.653 194.133 526.672 194.133 536.563C194.133 546.454 202.151 554.472 212.042 554.472Z" fill="white"/>
<path d="M446.281 581.764C443.666 581.764 441.111 580.989 438.937 579.536C436.763 578.084 435.069 576.019 434.069 573.604C433.068 571.189 432.806 568.531 433.316 565.967C433.827 563.403 435.085 561.048 436.934 559.199C438.783 557.351 441.138 556.092 443.702 555.582C446.266 555.072 448.924 555.333 451.339 556.334C453.754 557.334 455.819 559.028 457.271 561.202C458.723 563.376 459.499 565.931 459.499 568.546C459.499 572.051 458.106 575.413 455.627 577.892C453.148 580.371 449.786 581.764 446.281 581.764Z" fill="#E6E6E6"/>
<path d="M450.89 571.311L448.125 568.546L450.891 565.78C451.135 565.535 451.272 565.203 451.272 564.858C451.272 564.512 451.135 564.18 450.891 563.936C450.646 563.691 450.314 563.554 449.969 563.554C449.623 563.554 449.291 563.691 449.047 563.936L446.281 566.702L443.515 563.936C443.27 563.691 442.938 563.554 442.593 563.554C442.247 563.554 441.915 563.691 441.671 563.936C441.426 564.18 441.289 564.512 441.289 564.858C441.289 565.203 441.426 565.535 441.671 565.78L444.436 568.546L441.671 571.312C441.426 571.556 441.289 571.888 441.289 572.234C441.289 572.579 441.426 572.911 441.671 573.156C441.915 573.4 442.247 573.537 442.593 573.537C442.938 573.537 443.27 573.4 443.515 573.156L446.28 570.39L449.046 573.156C449.291 573.4 449.623 573.537 449.968 573.537C450.314 573.537 450.646 573.4 450.89 573.156C451.135 572.911 451.272 572.579 451.272 572.234C451.272 571.888 451.135 571.556 450.89 571.311Z" fill="white"/>
<path d="M386.305 426.609C400.832 426.609 412.609 414.832 412.609 400.304C412.609 385.777 400.832 374 386.305 374C371.777 374 360 385.777 360 400.304C360 414.832 371.777 426.609 386.305 426.609Z" fill="#6C63FF"/>
<path d="M385.102 413.057C384.648 413.057 384.2 412.951 383.793 412.748C383.387 412.545 383.034 412.25 382.761 411.886L375.585 402.318C375.355 402.01 375.187 401.66 375.092 401.288C374.996 400.916 374.975 400.529 375.029 400.148C375.084 399.768 375.212 399.402 375.408 399.071C375.604 398.741 375.863 398.452 376.17 398.221C376.478 397.991 376.828 397.823 377.2 397.728C377.572 397.632 377.959 397.611 378.34 397.666C378.72 397.72 379.086 397.849 379.417 398.044C379.747 398.24 380.036 398.499 380.267 398.807L384.962 405.066L397.02 386.979C397.233 386.659 397.507 386.384 397.827 386.17C398.146 385.956 398.504 385.807 398.881 385.732C399.258 385.657 399.646 385.656 400.023 385.731C400.4 385.805 400.759 385.953 401.078 386.166C401.398 386.38 401.673 386.654 401.887 386.973C402.1 387.292 402.249 387.651 402.325 388.028C402.4 388.405 402.4 388.793 402.326 389.17C402.251 389.547 402.103 389.905 401.889 390.225L387.537 411.754C387.277 412.143 386.928 412.465 386.519 412.691C386.109 412.918 385.651 413.043 385.183 413.056C385.156 413.056 385.129 413.057 385.102 413.057Z" fill="white"/>
<path d="M513.167 729.859L500.411 729.858L494.342 680.655L513.17 680.656L513.167 729.859Z" fill="#FFB6B6"/>
<path d="M620.987 719.174L608.805 722.959L588.407 677.773L606.387 672.187L620.987 719.174Z" fill="#FFB6B6"/>
<path d="M570.247 489L575.462 503.013V510.588L574.735 518.918L582.806 546.701L589.138 607.964L621 698.653L596.569 705.301L534.193 557.125L514.491 707L492.149 706.437C492.149 706.437 488.327 697.703 489.332 692.954C490.337 688.206 490.337 693.904 490.337 688.206C490.337 682.508 485.98 684.983 489.164 680.421C492.348 675.86 491.951 671.867 492.149 669.115C492.348 666.363 490.337 555.248 490.337 551.449C490.337 547.65 489.641 548.482 489.989 544.742C490.337 541.002 494.755 542.54 493.551 536.073C492.348 529.606 491.951 530.736 492.149 525.897C492.348 521.059 495.118 492.686 495.118 492.686L570.247 489Z" fill="#2F2E41"/>
<path d="M487.319 493.274L531.699 452.599L544 419.498L525.856 412C516.537 420.484 506.463 446.911 506.463 446.911L475.923 483.836C475.685 483.914 475.448 483.996 475.213 484.094C473.838 484.671 472.642 485.575 471.742 486.719C470.841 487.863 470.266 489.208 470.073 490.625C469.879 492.042 470.074 493.482 470.637 494.807C471.2 496.131 472.114 497.296 473.289 498.187C474.464 499.078 475.861 499.666 477.345 499.894C478.829 500.122 480.35 499.982 481.761 499.488C483.171 498.994 484.424 498.163 485.398 497.074C486.372 495.986 487.033 494.677 487.319 493.274Z" fill="#FFB8B8"/>
<path d="M521 415.097L543.854 422L543.94 421.986C552.446 420.631 559.505 407.413 563.928 396.564C565.383 392.985 565.356 389.014 563.852 385.454C562.348 381.894 559.479 379.01 555.825 377.385C553.121 376.203 550.124 375.765 547.172 376.119C544.221 376.474 541.432 377.606 539.121 379.39L527.385 388.513L521 415.097Z" fill="#6C63FF"/>
<path d="M574.107 507L574.243 506.829C581.484 497.73 571.58 475.198 570.083 471.93L576.816 470.04L575.642 457.894L575.077 452.479L580.312 447.768L580.33 447.648L583.93 423.373L588.64 407.307C590.416 401.233 590.453 394.821 588.749 388.729C587.045 382.637 583.66 377.084 578.943 372.641L569.313 363.583L557.776 346.473L538.433 346L531.477 357.707C525.009 358.958 519.208 362.319 515.087 367.206C510.965 372.092 508.783 378.193 508.92 384.447L509.575 415.614L502.635 454.231L502.44 461.245L495.628 468.056L496.887 474.942L491.791 476.865L489.298 486.65C488.346 487.779 482.057 495.31 482 497.41C481.992 497.725 482.229 498.035 482.747 498.386C486.817 501.145 509.566 507.124 519.805 503.53C530.711 499.704 573.455 506.889 573.885 506.962L574.107 507Z" fill="#6C63FF"/>
<path d="M527 407.96L517.1 389C502.73 389.943 474.209 405.904 474.209 405.904L420.247 416.894C418.648 416.304 416.916 416.128 415.224 416.386C413.533 416.643 411.942 417.324 410.611 418.359C409.281 419.395 408.258 420.749 407.645 422.285C407.032 423.822 406.852 425.486 407.122 427.111C407.392 428.735 408.102 430.263 409.182 431.54C410.262 432.817 411.673 433.798 413.273 434.384C414.873 434.971 416.606 435.142 418.296 434.881C419.987 434.62 421.577 433.936 422.905 432.897L491.548 428.17L527 407.96Z" fill="#FFB8B8"/>
<path d="M523.083 411L548.832 392.84L553.367 377.328C554.246 374.28 554.209 371.059 553.26 368.03C552.311 365.001 550.488 362.284 547.998 360.186C544.601 357.364 540.203 355.871 535.691 356.009C531.179 356.147 526.891 357.906 523.693 360.93C514.004 370.109 502.952 382.914 505.326 391.793L505.35 391.883L523.083 411Z" fill="#6C63FF"/>
<path d="M549 341C561.703 341 572 331.374 572 319.5C572 307.626 561.703 298 549 298C536.297 298 526 307.626 526 319.5C526 331.374 536.297 341 549 341Z" fill="#FFB8B8"/>
<path d="M564.38 342C560.516 340.304 556.003 341.335 551.738 341.492C547.472 341.648 542.304 340.146 541.399 336.247C540.73 333.364 542.741 330.205 541.474 327.503C540.092 324.557 535.943 324.138 532.616 323.313C528.446 322.187 524.768 319.848 522.116 316.636C519.465 313.424 517.978 309.505 517.871 305.45C517.64 307.059 520.587 307.588 521.555 306.239C522.523 304.891 521.857 303.024 520.789 301.742C519.722 300.46 518.281 299.437 517.476 297.998C516.671 296.558 516.828 294.421 518.4 293.728C519.205 295.247 520.346 296.59 521.748 297.668C523.149 298.745 524.779 299.532 526.53 299.978C525.815 297.948 526.826 295.666 528.453 294.165C530.181 292.758 532.173 291.662 534.328 290.932C539.652 288.775 545.87 286.628 551.026 289.117C552.357 289.772 553.513 290.699 554.407 291.83C555.301 292.961 555.91 294.265 556.188 295.647C565.727 296.401 575.521 306.057 574.978 314.989C574.394 324.604 573.967 325.382 565.403 341.562" fill="#2F2E41"/>
<path d="M918.694 757.342H885.508L885.365 757.083C884.941 756.314 884.531 755.498 884.148 754.661C880.73 747.342 879.285 738.972 878.01 731.587L877.05 726.021C876.934 725.347 877.021 724.653 877.301 724.029C877.582 723.405 878.042 722.879 878.623 722.518C879.204 722.157 879.879 721.977 880.563 722.002C881.247 722.027 881.907 722.256 882.46 722.659C887.504 726.329 892.549 729.995 897.596 733.658C899.508 735.048 901.69 736.658 903.78 738.397C903.982 737.417 904.193 736.435 904.404 735.466C904.549 734.797 904.891 734.187 905.386 733.714C905.88 733.24 906.504 732.925 907.179 732.808C907.853 732.692 908.547 732.779 909.172 733.059C909.796 733.339 910.323 733.799 910.685 734.38L914.568 740.619C917.4 745.174 919.899 749.664 919.39 754.505C919.392 754.564 919.388 754.623 919.377 754.681C919.275 755.476 919.086 756.258 918.813 757.012L918.694 757.342Z" fill="#57B894"/>
<path d="M510.54 727.681L496.92 722.141L496.53 721.981L489.01 727.681C484.764 727.682 480.692 729.369 477.69 732.371C474.688 735.374 473.001 739.446 473 743.691V744.211H514.13V727.681H510.54Z" fill="#2F2E41"/>
<path d="M617.138 717.285L602.488 716.037L602.068 716L596.578 723.675C592.524 724.936 589.136 727.755 587.16 731.513C585.184 735.271 584.781 739.66 586.041 743.715L586.195 744.211L625.472 732.005L620.566 716.22L617.138 717.285Z" fill="#2F2E41"/>
<path d="M776.564 740.424C778.63 740.553 779.771 737.987 778.208 736.491L778.053 735.872C778.073 735.823 778.094 735.774 778.115 735.724C780.204 730.742 787.284 730.777 789.356 735.766C791.195 740.194 793.535 744.63 794.112 749.312C794.37 751.379 794.254 753.484 793.795 755.512C798.103 746.102 800.37 735.826 800.37 725.491C800.37 722.895 800.228 720.298 799.938 717.709C799.699 715.59 799.369 713.484 798.943 711.398C796.637 700.121 791.644 689.38 784.443 680.409C780.981 678.516 778.094 675.558 776.35 672.012C775.723 670.733 775.233 669.357 775 667.956C775.394 668.008 776.486 662.007 776.188 661.639C776.737 660.806 777.72 660.392 778.32 659.579C781.302 655.535 785.411 656.241 787.556 661.736C792.138 664.049 792.183 667.884 789.371 671.573C787.582 673.92 787.336 677.095 785.767 679.608C785.928 679.814 786.096 680.015 786.258 680.221C789.219 684.019 791.78 688.101 793.939 692.39C793.329 687.624 794.23 681.882 795.765 678.18C797.513 673.963 800.79 670.411 803.676 666.765C807.142 662.386 814.249 664.297 814.86 669.849C814.866 669.902 814.871 669.956 814.877 670.01C814.448 670.252 814.029 670.508 813.618 670.78C811.279 672.327 812.087 675.954 814.859 676.381L814.922 676.391C814.767 677.935 814.502 679.466 814.115 680.97C817.817 695.286 809.825 700.5 798.413 700.735C798.162 700.864 797.916 700.993 797.664 701.116C798.82 704.371 799.744 707.71 800.429 711.095C801.042 714.085 801.468 717.108 801.707 720.144C802.005 723.974 801.979 727.823 801.656 731.647L801.675 731.511C802.495 727.3 804.782 723.367 808.102 720.641C813.047 716.578 820.035 715.082 825.37 711.817C827.938 710.245 831.229 712.276 830.781 715.254L830.759 715.396C829.965 715.719 829.19 716.094 828.441 716.514C828.012 716.755 827.592 717.012 827.182 717.284C824.843 718.831 825.651 722.457 828.423 722.885L828.486 722.895C828.531 722.901 828.57 722.908 828.615 722.914C827.252 726.15 825.353 729.154 822.976 731.744C820.662 744.241 810.72 745.426 800.086 741.787H800.08C798.917 746.851 797.218 751.798 795.035 756.513H777.015C776.951 756.313 776.892 756.106 776.834 755.906C778.501 756.01 780.18 755.913 781.821 755.609C780.484 753.969 779.147 752.315 777.81 750.675C777.777 750.642 777.751 750.61 777.726 750.578C777.047 749.738 776.363 748.905 775.685 748.065L775.684 748.064C775.642 745.487 775.951 742.917 776.564 740.424Z" fill="#6BF15F"/>
<path d="M321.243 238.811V400.388C321.243 400.922 321.138 401.451 320.934 401.944C320.73 402.438 320.43 402.886 320.053 403.264C319.675 403.642 319.227 403.941 318.734 404.146C318.241 404.35 317.712 404.456 317.178 404.456H42.8887C42.6935 404.457 42.4984 404.442 42.3057 404.41C41.3382 404.271 40.4533 403.788 39.8132 403.049C39.1731 402.31 38.8208 401.365 38.8208 400.388V238.811C38.8204 237.733 39.2485 236.698 40.0109 235.935C40.7733 235.173 41.8075 234.744 42.886 234.743H317.175C317.709 234.743 318.238 234.848 318.731 235.052C319.225 235.257 319.673 235.556 320.051 235.934C320.429 236.311 320.728 236.759 320.933 237.253C321.137 237.746 321.243 238.275 321.243 238.809V238.811Z" fill="#F2F2F2"/>
<path d="M107.961 330.814C127.671 330.814 143.649 314.836 143.649 295.126C143.649 275.415 127.671 259.437 107.961 259.437C88.2506 259.437 72.2725 275.415 72.2725 295.126C72.2725 314.836 88.2506 330.814 107.961 330.814Z" fill="#6C63FF"/>
<path d="M219.875 405.104H44.7993C44.5801 405.107 44.361 405.089 44.145 405.052L126.948 261.625C127.453 260.732 128.187 259.989 129.073 259.472C129.96 258.955 130.968 258.683 131.994 258.683C133.02 258.683 134.028 258.955 134.915 259.472C135.801 259.989 136.535 260.732 137.04 261.625L192.611 357.876L195.273 362.481L219.875 405.104Z" fill="#3F3D56"/>
<path opacity="0.2" d="M219.875 405.103H160.1L189.443 362.481L191.556 359.411L192.611 357.875L195.274 362.481L219.875 405.103Z" fill="black"/>
<path d="M317.356 405.104H165.93L195.274 362.481L197.385 359.411L235.622 303.866C238.129 300.225 244.16 299.999 247.107 303.179C247.305 303.396 247.489 303.625 247.658 303.866L317.356 405.104Z" fill="#3F3D56"/>
</g>
<defs>
<clipPath id="clip0_136_868">
<rect width="1022" height="751" fill="white"/>
</clipPath>
<clipPath id="clip1_136_868">
<rect width="691.927" height="626.302" fill="white" transform="translate(298 -28)"/>
</clipPath>
</defs>
</svg>
