<svg width="1022" height="803" viewBox="0 0 1022 803" fill="none" xmlns="http://www.w3.org/2000/svg">
<g clip-path="url(#clip0_136_868)">
<path d="M834.308 217H485.692C477.29 216.991 469.234 213.647 463.293 207.703C457.351 201.759 454.009 193.699 454 185.293V55.7071C454.01 47.3008 457.352 39.2415 463.293 33.2974C469.234 27.3532 477.29 24.0096 485.692 24H834.308C842.71 24.0096 850.766 27.3532 856.707 33.2974C862.648 39.2415 865.99 47.3008 866 55.7071V185.293C865.991 193.699 862.649 201.759 856.707 207.703C850.766 213.647 842.71 216.991 834.308 217Z" fill="white"/>
<path d="M834.308 217H485.692C477.29 216.991 469.234 213.647 463.293 207.703C457.351 201.759 454.009 193.699 454 185.293V55.7071C454.01 47.3008 457.352 39.2415 463.293 33.2974C469.234 27.3532 477.29 24.0096 485.692 24H834.308C842.71 24.0096 850.766 27.3532 856.707 33.2974C862.648 39.2415 865.99 47.3008 866 55.7071V185.293C865.991 193.699 862.649 201.759 856.707 207.703C850.766 213.647 842.71 216.991 834.308 217ZM485.692 26.7571C478.021 26.7658 470.665 29.8186 465.241 35.2459C459.816 40.6732 456.764 48.0318 456.756 55.7071V185.293C456.765 192.968 459.816 200.327 465.241 205.754C470.666 211.181 478.021 214.234 485.692 214.243H834.308C841.979 214.234 849.335 211.181 854.759 205.754C860.184 200.327 863.235 192.968 863.244 185.293V55.7071C863.236 48.0318 860.184 40.6732 854.759 35.2459C849.335 29.8186 841.979 26.7658 834.308 26.7571H485.692Z" fill="#3F3D56"/>
<path d="M966.395 235H780.398C779.224 234.986 778.055 234.837 776.915 234.556C773.512 233.733 770.485 231.78 768.323 229.011C766.16 226.242 764.99 222.82 765 219.299V155.687C765.007 151.526 766.653 147.538 769.579 144.597C772.504 141.656 776.469 140.003 780.605 140H966.395C968.9 139.993 971.368 140.601 973.586 141.771C974.469 142.232 975.305 142.78 976.08 143.408C977.931 144.866 979.426 146.73 980.452 148.858C981.478 150.986 982.008 153.322 982 155.687V219.299C981.995 223.462 980.35 227.453 977.424 230.396C974.499 233.34 970.532 234.995 966.395 235Z" fill="white"/>
<path d="M954 233C962.227 212.464 970.893 192.13 980 172V206.13C973.791 215.833 966.606 224.839 958.564 233H954Z" fill="#E6E6E6"/>
<path d="M975 144.478C958.179 174.441 940.579 203.949 922.2 233H919C937.685 203.493 955.591 173.493 972.718 143C973.527 143.416 974.291 143.911 975 144.478Z" fill="#E6E6E6"/>
<path d="M853 177.207C842.088 196.498 830.045 215.128 816.936 233H798C810.403 217.892 822.816 202.783 835.238 187.675C838.801 183.325 842.669 178.768 848.014 177L853 177.207Z" fill="#E6E6E6"/>
<path d="M827 174.098C825.046 176.182 823.174 178.349 821.411 180.601C817.531 185.384 813.705 190.21 809.865 195.021C807.474 198.014 805.082 201.007 802.718 204C801.968 203.506 801.255 202.955 800.587 202.35C796.811 198.995 794.469 194.261 794.063 189.16C793.657 184.06 795.219 179 798.414 175.064C801.609 171.128 806.183 168.629 811.156 168.104C816.129 167.578 821.105 169.067 825.019 172.251C825.724 172.814 826.386 173.432 827 174.098Z" fill="#6C63FF"/>
<path d="M934.359 187.708L897.962 174.486L879.888 167.923C874.002 165.791 868.13 163.355 862.05 161.815C856.763 160.313 851.148 160.385 845.902 162.021C841.223 163.741 836.941 166.38 833.312 169.781C831.706 171.253 830.15 172.771 828.645 174.335C826.664 176.385 824.767 178.517 822.981 180.732C819.047 185.438 815.169 190.184 811.278 194.917C808.854 197.861 806.43 200.806 804.034 203.75C796.029 213.477 788.07 223.227 780.158 233C779.093 232.988 778.034 232.854 777 232.601C785.254 222.42 793.546 212.262 801.874 202.126C802.829 200.943 803.813 199.746 804.782 198.563C808.84 193.624 812.903 188.689 816.97 183.759C820.114 179.948 823.23 176.109 826.637 172.519C826.942 172.188 827.246 171.872 827.565 171.542C834.476 164.442 843.104 158.169 853.436 158.003C859.516 157.907 865.388 159.82 871.038 161.842C877.118 164.03 883.184 166.258 889.264 168.474L925.91 181.792L935.079 185.121C936.699 185.699 936.007 188.313 934.359 187.708Z" fill="#E6E6E6"/>
<path d="M966.395 235H780.398C779.224 234.986 778.055 234.837 776.915 234.556C773.512 233.733 770.485 231.78 768.323 229.011C766.16 226.242 764.99 222.82 765 219.299V155.687C765.007 151.526 766.653 147.538 769.579 144.597C772.504 141.656 776.469 140.003 780.605 140H966.395C968.9 139.993 971.368 140.601 973.586 141.771C974.469 142.232 975.305 142.78 976.08 143.408C977.931 144.866 979.426 146.73 980.452 148.858C981.478 150.986 982.008 153.322 982 155.687V219.299C981.995 223.462 980.35 227.453 977.424 230.396C974.499 233.34 970.532 234.995 966.395 235ZM780.605 142.781C777.202 142.784 773.94 144.143 771.533 146.563C769.125 148.982 767.77 152.264 767.764 155.687V219.299C767.756 222.197 768.719 225.013 770.499 227.291C772.279 229.57 774.77 231.178 777.571 231.855C778.502 232.084 779.456 232.206 780.415 232.219H966.395C969.799 232.215 973.063 230.852 975.47 228.43C977.877 226.008 979.232 222.724 979.236 219.299V155.687C979.241 153.741 978.805 151.819 977.96 150.068C977.115 148.317 975.883 146.784 974.36 145.585C973.724 145.069 973.038 144.618 972.313 144.239C970.487 143.277 968.456 142.776 966.395 142.781H780.605Z" fill="#3F3D56"/>
<path d="M597.279 295H329.721C321.311 294.991 313.248 291.656 307.301 285.727C301.354 279.798 298.009 271.76 298 263.375V216.625C298.01 208.24 301.355 200.202 307.301 194.273C313.248 188.345 321.311 185.01 329.721 185H597.279C605.689 185.01 613.752 188.345 619.699 194.273C625.645 200.202 628.99 208.24 629 216.625V263.375C628.991 271.76 625.646 279.798 619.699 285.727C613.752 291.656 605.689 294.991 597.279 295Z" fill="white"/>
<path d="M597.279 295H329.721C321.311 294.991 313.248 291.656 307.301 285.727C301.354 279.798 298.009 271.76 298 263.375V216.625C298.01 208.24 301.355 200.202 307.301 194.273C313.248 188.345 321.311 185.01 329.721 185H597.279C605.689 185.01 613.752 188.345 619.699 194.273C625.645 200.202 628.99 208.24 629 216.625V263.375C628.991 271.76 625.646 279.798 619.699 285.727C613.752 291.656 605.689 294.991 597.279 295ZM329.721 187.75C322.042 187.759 314.68 190.804 309.251 196.217C303.821 201.63 300.767 208.97 300.758 216.625V263.375C300.767 271.03 303.821 278.37 309.251 283.783C314.681 289.196 322.042 292.241 329.721 292.25H597.279C604.958 292.241 612.319 289.196 617.749 283.783C623.179 278.37 626.233 271.03 626.242 263.375V216.625C626.233 208.97 623.179 201.63 617.749 196.217C612.32 190.804 604.958 187.759 597.279 187.75H329.721Z" fill="#3F3D56"/>
<path d="M485.236 268H441.764C439.441 267.997 437.213 267.092 435.57 265.483C433.927 263.874 433.003 261.692 433 259.416V219.584C433.003 217.308 433.927 215.126 435.57 213.517C437.213 211.908 439.441 211.003 441.764 211H485.236C487.559 211.003 489.787 211.908 491.43 213.517C493.073 215.126 493.997 217.308 494 219.584V259.416C493.997 261.692 493.073 263.874 491.43 265.483C489.787 267.092 487.559 267.997 485.236 268Z" fill="#E6E6E6"/>
<path d="M561.379 268H518.621C516.335 267.997 514.144 267.092 512.528 265.483C510.912 263.874 510.003 261.692 510 259.416V219.584C510.003 217.308 510.912 215.126 512.528 213.517C514.144 211.908 516.335 211.003 518.621 211H561.379C563.665 211.003 565.856 211.908 567.472 213.517C569.088 215.126 569.997 217.308 570 219.584V259.416C569.997 261.692 569.088 263.874 567.472 265.483C565.856 267.092 563.665 267.997 561.379 268Z" fill="#E6E6E6"/>
<path d="M676.5 100H621.5C620.041 100 618.642 99.4205 617.611 98.3891C616.58 97.3576 616 95.9587 616 94.5C616 93.0413 616.58 91.6424 617.611 90.6109C618.642 89.5795 620.041 89 621.5 89H676.5C677.959 89 679.358 89.5795 680.389 90.6109C681.421 91.6424 682 93.0413 682 94.5C682 95.9587 681.421 97.3576 680.389 98.3891C679.358 99.4205 677.959 100 676.5 100Z" fill="#CCCCCC"/>
<path d="M795.489 131H620.511C619.049 131 617.648 130.421 616.614 129.389C615.581 128.358 615 126.959 615 125.5C615 124.041 615.581 122.642 616.614 121.611C617.648 120.579 619.049 120 620.511 120H795.489C796.951 120 798.352 120.579 799.386 121.611C800.419 122.642 801 124.041 801 125.5C801 126.959 800.419 128.358 799.386 129.389C798.352 130.421 796.951 131 795.489 131Z" fill="#CCCCCC"/>
<path d="M556 147C576.435 147 593 130.435 593 110C593 89.5655 576.435 73 556 73C535.565 73 519 89.5655 519 110C519 130.435 535.565 147 556 147Z" fill="#6C63FF"/>
<path d="M958.308 456H609.692C601.29 455.991 593.234 452.647 587.293 446.703C581.351 440.759 578.009 432.699 578 424.293V294.707C578.01 286.301 581.352 278.242 587.293 272.297C593.234 266.353 601.29 263.01 609.692 263H958.308C966.71 263.01 974.766 266.353 980.707 272.297C986.648 278.242 989.99 286.301 990 294.707V424.293C989.991 432.699 986.649 440.759 980.707 446.703C974.766 452.647 966.71 455.991 958.308 456Z" fill="white"/>
<path d="M958.308 456H609.692C601.29 455.991 593.234 452.647 587.293 446.703C581.351 440.759 578.009 432.699 578 424.293V294.707C578.01 286.301 581.352 278.242 587.293 272.297C593.234 266.353 601.29 263.01 609.692 263H958.308C966.71 263.01 974.766 266.353 980.707 272.297C986.648 278.242 989.99 286.301 990 294.707V424.293C989.991 432.699 986.649 440.759 980.707 446.703C974.766 452.647 966.71 455.991 958.308 456ZM609.692 265.757C602.021 265.766 594.665 268.819 589.241 274.246C583.816 279.673 580.764 287.032 580.756 294.707V424.293C580.765 431.968 583.816 439.327 589.241 444.754C594.666 450.181 602.021 453.234 609.692 453.243H958.308C965.979 453.234 973.334 450.181 978.759 444.754C984.184 439.327 987.235 431.968 987.244 424.293V294.707C987.236 287.032 984.184 279.673 978.759 274.246C973.335 268.819 965.979 265.766 958.308 265.757H609.692Z" fill="#3F3D56"/>
<path d="M745.396 314H686.622C685.884 314.001 685.153 313.86 684.471 313.584C683.789 313.308 683.169 312.903 682.647 312.392C682.125 311.881 681.711 311.275 681.428 310.607C681.146 309.939 681 309.223 681 308.5C681 307.777 681.146 307.061 681.428 306.393C681.711 305.725 682.125 305.119 682.647 304.608C683.169 304.097 683.789 303.692 684.471 303.416C685.153 303.14 685.884 302.999 686.622 303H745.396C746.883 303.002 748.309 303.583 749.359 304.614C750.41 305.645 751 307.043 751 308.5C751 309.957 750.41 311.355 749.359 312.386C748.309 313.417 746.883 313.998 745.396 314Z" fill="#6C63FF"/>
<path d="M876.408 337H686.592C685.109 337 683.686 336.421 682.638 335.389C681.589 334.358 681 332.959 681 331.5C681 330.041 681.589 328.642 682.638 327.611C683.686 326.579 685.109 326 686.592 326H876.408C877.891 326 879.314 326.579 880.362 327.611C881.411 328.642 882 330.041 882 331.5C882 332.959 881.411 334.358 880.362 335.389C879.314 336.421 877.891 337 876.408 337Z" fill="#E6E6E6"/>
<path d="M876.408 364H686.592C685.857 364 685.13 363.845 684.452 363.543C683.773 363.242 683.157 362.8 682.638 362.243C682.118 361.685 681.707 361.024 681.426 360.296C681.145 359.568 681 358.788 681 358C681 357.212 681.145 356.432 681.426 355.704C681.707 354.976 682.118 354.314 682.638 353.757C683.157 353.2 683.773 352.758 684.452 352.457C685.13 352.155 685.857 352 686.592 352H876.408C877.891 352 879.314 352.632 880.362 353.757C881.411 354.883 882 356.409 882 358C882 359.591 881.411 361.117 880.362 362.243C879.314 363.368 877.891 364 876.408 364Z" fill="#E6E6E6"/>
<path d="M876.417 390H686.601C685.866 390.001 685.137 389.86 684.458 389.584C683.779 389.308 683.161 388.903 682.641 388.392C682.121 387.881 681.708 387.275 681.427 386.607C681.145 385.939 681 385.223 681 384.5C681 383.777 681.145 383.061 681.427 382.393C681.708 381.725 682.121 381.119 682.641 380.608C683.161 380.097 683.779 379.692 684.458 379.416C685.137 379.14 685.866 378.999 686.601 379H876.417C877.899 379.002 879.319 379.583 880.365 380.614C881.412 381.645 882 383.043 882 384.5C882 385.957 881.412 387.355 880.365 388.386C879.319 389.417 877.899 389.998 876.417 390Z" fill="#E6E6E6"/>
<path d="M876.408 416H686.592C685.109 416 683.686 415.421 682.638 414.389C681.589 413.358 681 411.959 681 410.5C681 409.041 681.589 407.642 682.638 406.611C683.686 405.579 685.109 405 686.592 405H876.408C877.891 405 879.314 405.579 880.362 406.611C881.411 407.642 882 409.041 882 410.5C882 411.959 881.411 413.358 880.362 414.389C879.314 415.421 877.891 416 876.408 416Z" fill="#E6E6E6"/>
<path d="M589.397 628.329C542.251 647.714 488.017 645.028 437.274 620.797C437.024 620.678 436.813 620.455 436.686 620.177C436.559 619.9 436.527 619.59 436.597 619.317C436.667 619.044 436.833 618.829 437.059 618.72C437.285 618.611 437.553 618.616 437.802 618.735C488.077 642.742 541.812 645.403 588.523 626.197C654.114 599.31 697.357 534.253 704.199 452.17C704.21 452.026 704.247 451.89 704.307 451.77C704.367 451.649 704.449 451.547 704.548 451.469C704.647 451.391 704.761 451.339 704.884 451.315C705.007 451.291 705.137 451.296 705.265 451.33C705.393 451.364 705.517 451.426 705.631 451.512C705.745 451.599 705.846 451.708 705.928 451.834C706.01 451.96 706.072 452.1 706.109 452.246C706.147 452.392 706.16 452.541 706.148 452.685C702.821 493.146 690.35 530.518 669.917 561.257C649.485 591.996 621.769 615.083 589.397 628.329Z" fill="#6C63FF"/>
<path d="M452.009 616L452.089 619.002L437.301 619.377L438.757 634.099L435.768 634.392L434 616.461L452.009 616Z" fill="#6C63FF"/>
</g>
<path d="M286.126 183H77.5831C45.1483 183 18.8547 209.294 18.8547 241.728V718.272C18.8547 750.706 45.1483 777 77.5831 777H286.126C318.561 777 344.855 750.706 344.855 718.272V241.728C344.855 209.294 318.561 183 286.126 183Z" fill="#3F3D56"/>
<path d="M339.355 241.732V718.272C339.339 732.385 333.725 745.915 323.746 755.894C313.767 765.873 300.238 771.486 286.125 771.502H77.5852C63.4728 771.486 49.943 765.873 39.964 755.894C29.9849 745.915 24.3716 732.385 24.3552 718.272V241.732C24.3716 227.62 29.9849 214.09 39.964 204.111C49.943 194.132 63.4728 188.519 77.5852 188.502H104.855V197.922C104.855 202.187 106.55 206.277 109.565 209.292C112.581 212.308 116.671 214.002 120.935 214.002H242.775C247.04 214.002 251.13 212.308 254.145 209.292C257.161 206.277 258.855 202.187 258.855 197.922V188.502H286.125C300.238 188.519 313.767 194.132 323.746 204.111C333.725 214.09 339.339 227.62 339.355 241.732Z" fill="white"/>
<path d="M17.3547 303.5C16.2942 303.499 15.2775 303.077 14.5276 302.327C13.7778 301.577 13.356 300.56 13.3547 299.5V291.5C13.3547 290.439 13.7762 289.422 14.5263 288.672C15.2765 287.921 16.2939 287.5 17.3547 287.5C18.4156 287.5 19.433 287.921 20.1832 288.672C20.9333 289.422 21.3547 290.439 21.3547 291.5V299.5C21.3535 300.56 20.9317 301.577 20.1818 302.327C19.4319 303.077 18.4152 303.499 17.3547 303.5Z" fill="#3F3D56"/>
<path d="M17.3547 344.521C16.2942 344.52 15.2775 344.098 14.5276 343.349C13.7778 342.599 13.3559 341.582 13.3547 340.521V318.5C13.3547 317.439 13.7762 316.422 14.5263 315.672C15.2765 314.921 16.2939 314.5 17.3547 314.5C18.4156 314.5 19.433 314.921 20.1832 315.672C20.9333 316.422 21.3547 317.439 21.3547 318.5V340.521C21.3535 341.582 20.9317 342.599 20.1818 343.349C19.4319 344.098 18.4152 344.52 17.3547 344.521Z" fill="#3F3D56"/>
<path d="M17.3547 377.5C16.2942 377.499 15.2775 377.077 14.5276 376.327C13.7778 375.577 13.3559 374.56 13.3547 373.5V351.479C13.3547 350.418 13.7762 349.4 14.5263 348.65C15.2765 347.9 16.2939 347.479 17.3547 347.479C18.4156 347.479 19.433 347.9 20.1832 348.65C20.9333 349.4 21.3547 350.418 21.3547 351.479V373.5C21.3535 374.56 20.9317 375.577 20.1818 376.327C19.4319 377.077 18.4152 377.499 17.3547 377.5Z" fill="#3F3D56"/>
<path d="M345.355 359.5C344.294 359.499 343.278 359.077 342.528 358.327C341.778 357.577 341.356 356.56 341.355 355.5V301.767C341.355 300.706 341.776 299.688 342.526 298.938C343.276 298.188 344.294 297.767 345.355 297.767C346.416 297.767 347.433 298.188 348.183 298.938C348.933 299.688 349.355 300.706 349.355 301.767V355.5C349.354 356.56 348.932 357.577 348.182 358.327C347.432 359.077 346.415 359.499 345.355 359.5Z" fill="#3F3D56"/>
<path d="M190.447 201.346H159.447C158.784 201.346 158.148 201.082 157.68 200.613C157.211 200.145 156.947 199.509 156.947 198.846C156.947 198.183 157.211 197.547 157.68 197.078C158.148 196.609 158.784 196.346 159.447 196.346H190.447C191.11 196.346 191.746 196.609 192.215 197.078C192.684 197.547 192.947 198.183 192.947 198.846C192.947 199.509 192.684 200.145 192.215 200.613C191.746 201.082 191.11 201.346 190.447 201.346Z" fill="white"/>
<path d="M206.447 200.846C207.552 200.846 208.447 199.95 208.447 198.846C208.447 197.741 207.552 196.846 206.447 196.846C205.343 196.846 204.447 197.741 204.447 198.846C204.447 199.95 205.343 200.846 206.447 200.846Z" fill="white"/>
<path d="M92.9407 212.073H65.9407C64.6146 212.073 63.3428 211.546 62.4052 210.609C61.4675 209.671 60.9407 208.399 60.9407 207.073C60.9407 205.747 61.4675 204.475 62.4052 203.537C63.3428 202.6 64.6146 202.073 65.9407 202.073H92.9407C94.2668 202.073 95.5385 202.6 96.4762 203.537C97.4139 204.475 97.9407 205.747 97.9407 207.073C97.9407 208.399 97.4139 209.671 96.4762 210.609C95.5385 211.546 94.2668 212.073 92.9407 212.073Z" fill="#E6E6E6"/>
<path d="M269.941 211.573C272.426 211.573 274.441 209.558 274.441 207.073C274.441 204.588 272.426 202.573 269.941 202.573C267.455 202.573 265.441 204.588 265.441 207.073C265.441 209.558 267.455 211.573 269.941 211.573Z" fill="#E6E6E6"/>
<path d="M283.941 211.573C286.426 211.573 288.441 209.558 288.441 207.073C288.441 204.588 286.426 202.573 283.941 202.573C281.455 202.573 279.441 204.588 279.441 207.073C279.441 209.558 281.455 211.573 283.941 211.573Z" fill="#E6E6E6"/>
<path d="M297.941 211.573C300.426 211.573 302.441 209.558 302.441 207.073C302.441 204.588 300.426 202.573 297.941 202.573C295.455 202.573 293.441 204.588 293.441 207.073C293.441 209.558 295.455 211.573 297.941 211.573Z" fill="#E6E6E6"/>
<path d="M266.794 281.957H97.0943C93.807 281.962 90.6557 283.269 88.3312 285.594C86.0067 287.918 84.6989 291.07 84.6943 294.357V404.667C84.6989 407.954 86.0067 411.106 88.3312 413.43C90.6557 415.755 93.807 417.062 97.0943 417.067H266.794C270.082 417.064 273.235 415.757 275.559 413.432C277.884 411.107 279.192 407.955 279.194 404.667V294.357C279.192 291.069 277.884 287.917 275.559 285.592C273.235 283.267 270.082 281.96 266.794 281.957Z" fill="#F2F2F2"/>
<path d="M213.667 329.049C198.331 356.164 181.408 382.349 162.986 407.469H136.373C153.804 386.233 171.248 364.998 188.705 343.762C193.713 337.648 199.148 331.242 206.66 328.758L213.667 329.049Z" fill="#3F3D56"/>
<path d="M178.301 324.701C175.525 327.593 172.865 330.602 170.361 333.727C164.849 340.366 159.414 347.062 153.959 353.74C150.562 357.893 147.166 362.047 143.808 366.201C142.741 365.516 141.729 364.751 140.779 363.911C135.416 359.256 132.089 352.685 131.512 345.606C130.935 338.527 133.153 331.504 137.692 326.042C142.231 320.579 148.728 317.111 155.793 316.382C162.857 315.652 169.927 317.719 175.486 322.139C176.488 322.92 177.429 323.777 178.301 324.701Z" fill="#6C63FF"/>
<path d="M279.194 321.547V325.577L277.394 324.917L252.064 315.657C243.814 312.647 235.584 309.207 227.064 307.037C219.652 304.917 211.78 305.018 204.424 307.327C197.868 309.753 191.868 313.477 186.784 318.277C184.534 320.357 182.354 322.487 180.244 324.697C179.554 325.427 178.864 326.157 178.184 326.887C176.144 329.107 174.174 331.377 172.304 333.727C166.794 340.367 161.354 347.067 155.904 353.737C152.504 357.897 149.104 362.047 145.744 366.197C134.524 379.927 123.371 393.684 112.284 407.467C110.791 407.45 109.305 407.262 107.854 406.907C119.164 392.857 130.528 378.844 141.944 364.867C142.204 364.547 142.464 364.227 142.724 363.907C144.064 362.237 145.434 360.557 146.794 358.887C152.484 351.917 158.178 344.954 163.874 337.997C168.014 332.937 172.124 327.857 176.584 323.057C176.854 322.747 177.134 322.447 177.424 322.137C177.854 321.677 178.284 321.227 178.724 320.757C188.414 310.747 200.504 301.897 214.984 301.657C223.504 301.527 231.734 304.227 239.654 307.077C248.184 310.167 256.684 313.307 265.204 316.427L279.194 321.547Z" fill="#3F3D56"/>
<path d="M283.184 660.618H80.5259C77.2386 660.614 74.087 659.307 71.7625 656.982C69.438 654.658 68.1305 651.506 68.1267 648.219V620.906C68.1305 617.619 69.438 614.467 71.7625 612.143C74.087 609.818 77.2386 608.511 80.5259 608.507H283.184C286.472 608.511 289.623 609.818 291.948 612.143C294.272 614.467 295.58 617.619 295.584 620.906V648.219C295.58 651.506 294.272 654.658 291.948 656.982C289.623 659.307 286.472 660.614 283.184 660.618Z" fill="#F2F2F2"/>
<path d="M283.184 520.618H80.5259C77.2386 520.614 74.087 519.307 71.7625 516.982C69.438 514.658 68.1305 511.506 68.1267 508.219V480.906C68.1305 477.619 69.438 474.467 71.7625 472.143C74.087 469.818 77.2386 468.511 80.5259 468.507H283.184C286.472 468.511 289.623 469.818 291.948 472.143C294.272 474.467 295.58 477.619 295.584 480.906V508.219C295.58 511.506 294.272 514.658 291.948 516.982C289.623 519.307 286.472 520.614 283.184 520.618Z" fill="#F2F2F2"/>
<path d="M283.184 590.618H80.5259C77.2386 590.614 74.087 589.307 71.7625 586.982C69.438 584.658 68.1305 581.506 68.1267 578.219V550.906C68.1305 547.619 69.438 544.467 71.7625 542.143C74.087 539.818 77.2386 538.511 80.5259 538.507H283.184C286.472 538.511 289.623 539.818 291.948 542.143C294.272 544.467 295.58 547.619 295.584 550.906V578.219C295.58 581.506 294.272 584.658 291.948 586.982C289.623 589.307 286.472 590.614 283.184 590.618Z" fill="#F2F2F2"/>
<path d="M206.477 629.888H146.765C146.056 629.888 145.377 629.607 144.876 629.106C144.375 628.605 144.094 627.926 144.094 627.217C144.094 626.509 144.375 625.829 144.876 625.328C145.377 624.827 146.056 624.546 146.765 624.546H206.477C207.185 624.546 207.864 624.827 208.365 625.328C208.866 625.829 209.148 626.509 209.148 627.217C209.148 627.926 208.866 628.605 208.365 629.106C207.864 629.607 207.185 629.888 206.477 629.888Z" fill="white"/>
<path d="M263.907 644.58H146.097C145.389 644.58 144.709 644.298 144.208 643.797C143.707 643.296 143.426 642.617 143.426 641.909C143.426 641.2 143.707 640.521 144.208 640.02C144.709 639.519 145.389 639.237 146.097 639.237H263.907C264.615 639.237 265.294 639.519 265.795 640.02C266.296 640.521 266.578 641.2 266.578 641.909C266.578 642.617 266.296 643.296 265.795 643.797C265.294 644.298 264.615 644.58 263.907 644.58Z" fill="white"/>
<path d="M115.042 652.472C124.933 652.472 132.951 644.454 132.951 634.563C132.951 624.672 124.933 616.653 115.042 616.653C105.151 616.653 97.1326 624.672 97.1326 634.563C97.1326 644.454 105.151 652.472 115.042 652.472Z" fill="white"/>
<path d="M445.184 520.618H242.526C239.239 520.614 236.087 519.307 233.762 516.982C231.438 514.658 230.13 511.506 230.127 508.219V480.906C230.13 477.619 231.438 474.467 233.762 472.143C236.087 469.818 239.239 468.511 242.526 468.507H445.184C448.472 468.511 451.623 469.818 453.948 472.143C456.272 474.467 457.58 477.619 457.584 480.906V508.219C457.58 511.506 456.272 514.658 453.948 516.982C451.623 519.307 448.472 520.614 445.184 520.618Z" fill="#E6E6E6"/>
<path d="M368.477 489.888H308.765C308.056 489.888 307.377 489.607 306.876 489.106C306.375 488.605 306.094 487.926 306.094 487.217C306.094 486.509 306.375 485.829 306.876 485.328C307.377 484.827 308.056 484.546 308.765 484.546H368.477C369.185 484.546 369.864 484.827 370.365 485.328C370.866 485.829 371.148 486.509 371.148 487.217C371.148 487.926 370.866 488.605 370.365 489.106C369.864 489.607 369.185 489.888 368.477 489.888Z" fill="white"/>
<path d="M425.907 504.58H308.097C307.389 504.58 306.709 504.298 306.208 503.797C305.707 503.296 305.426 502.617 305.426 501.908C305.426 501.2 305.707 500.521 306.208 500.02C306.709 499.519 307.389 499.237 308.097 499.237H425.907C426.615 499.237 427.294 499.519 427.795 500.02C428.296 500.521 428.578 501.2 428.578 501.908C428.578 502.617 428.296 503.296 427.795 503.797C427.294 504.298 426.615 504.58 425.907 504.58Z" fill="white"/>
<path d="M277.042 512.472C286.933 512.472 294.951 504.454 294.951 494.563C294.951 484.672 286.933 476.653 277.042 476.653C267.151 476.653 259.133 484.672 259.133 494.563C259.133 504.454 267.151 512.472 277.042 512.472Z" fill="white"/>
<path d="M380.184 590.618H177.526C174.239 590.614 171.087 589.307 168.762 586.982C166.438 584.658 165.13 581.506 165.127 578.219V550.906C165.13 547.619 166.438 544.467 168.762 542.143C171.087 539.818 174.239 538.511 177.526 538.507H380.184C383.472 538.511 386.623 539.818 388.948 542.143C391.272 544.467 392.58 547.619 392.584 550.906V578.219C392.58 581.506 391.272 584.658 388.948 586.982C386.623 589.307 383.472 590.614 380.184 590.618Z" fill="#E6E6E6"/>
<path d="M303.477 559.888H243.765C243.056 559.888 242.377 559.607 241.876 559.106C241.375 558.605 241.094 557.926 241.094 557.217C241.094 556.509 241.375 555.829 241.876 555.328C242.377 554.827 243.056 554.546 243.765 554.546H303.477C304.185 554.546 304.864 554.827 305.365 555.328C305.866 555.829 306.148 556.509 306.148 557.217C306.148 557.926 305.866 558.605 305.365 559.106C304.864 559.607 304.185 559.888 303.477 559.888Z" fill="white"/>
<path d="M360.907 574.58H243.097C242.389 574.58 241.709 574.298 241.208 573.797C240.707 573.296 240.426 572.617 240.426 571.909C240.426 571.2 240.707 570.521 241.208 570.02C241.709 569.519 242.389 569.237 243.097 569.237H360.907C361.615 569.237 362.294 569.519 362.795 570.02C363.296 570.521 363.578 571.2 363.578 571.909C363.578 572.617 363.296 573.296 362.795 573.797C362.294 574.298 361.615 574.58 360.907 574.58Z" fill="white"/>
<path d="M212.042 582.472C221.933 582.472 229.951 574.454 229.951 564.563C229.951 554.672 221.933 546.653 212.042 546.653C202.151 546.653 194.133 554.672 194.133 564.563C194.133 574.454 202.151 582.472 212.042 582.472Z" fill="white"/>
<path d="M385.102 441.057C384.648 441.057 384.2 440.951 383.793 440.748C383.387 440.545 383.034 440.25 382.761 439.886L375.585 430.318C375.355 430.01 375.187 429.66 375.092 429.288C374.996 428.916 374.975 428.529 375.029 428.148C375.084 427.768 375.212 427.402 375.408 427.071C375.604 426.741 375.863 426.452 376.17 426.221C376.478 425.991 376.828 425.823 377.2 425.728C377.572 425.632 377.959 425.611 378.34 425.666C378.72 425.72 379.086 425.849 379.417 426.044C379.747 426.24 380.036 426.499 380.267 426.807L384.962 433.066L397.02 414.979C397.233 414.659 397.507 414.384 397.827 414.17C398.146 413.956 398.504 413.807 398.881 413.732C399.258 413.657 399.646 413.656 400.023 413.731C400.4 413.805 400.759 413.953 401.078 414.166C401.398 414.38 401.673 414.654 401.887 414.973C402.1 415.292 402.249 415.651 402.325 416.028C402.4 416.405 402.4 416.793 402.326 417.17C402.251 417.547 402.103 417.905 401.889 418.225L387.537 439.754C387.277 440.143 386.928 440.465 386.519 440.691C386.109 440.918 385.651 441.043 385.183 441.056C385.156 441.056 385.129 441.057 385.102 441.057Z" fill="white"/>
<path d="M321.243 266.811V428.388C321.243 428.922 321.138 429.451 320.934 429.944C320.73 430.438 320.43 430.886 320.053 431.264C319.675 431.642 319.227 431.941 318.734 432.146C318.241 432.35 317.712 432.456 317.178 432.456H42.8887C42.6935 432.457 42.4984 432.442 42.3057 432.41C41.3382 432.271 40.4533 431.788 39.8132 431.049C39.1731 430.31 38.8208 429.365 38.8208 428.388V266.811C38.8204 265.733 39.2485 264.698 40.0109 263.935C40.7733 263.173 41.8075 262.744 42.886 262.743H317.175C317.709 262.743 318.238 262.848 318.731 263.052C319.225 263.257 319.673 263.556 320.051 263.934C320.429 264.311 320.728 264.759 320.933 265.253C321.137 265.746 321.243 266.275 321.243 266.809V266.811Z" fill="#F2F2F2"/>
<path d="M107.961 358.814C127.671 358.814 143.649 342.836 143.649 323.126C143.649 303.415 127.671 287.437 107.961 287.437C88.2506 287.437 72.2725 303.415 72.2725 323.126C72.2725 342.836 88.2506 358.814 107.961 358.814Z" fill="#6C63FF"/>
<path d="M219.875 433.104H44.7993C44.5801 433.107 44.361 433.089 44.145 433.052L126.948 289.625C127.453 288.732 128.187 287.989 129.073 287.472C129.96 286.955 130.968 286.683 131.994 286.683C133.02 286.683 134.028 286.955 134.915 287.472C135.801 287.989 136.535 288.732 137.04 289.625L192.611 385.876L195.273 390.481L219.875 433.104Z" fill="#3F3D56"/>
<path opacity="0.2" d="M219.875 433.103H160.1L189.443 390.481L191.556 387.411L192.611 385.875L195.274 390.481L219.875 433.103Z" fill="black"/>
<path d="M317.356 433.104H165.93L195.274 390.481L197.385 387.411L235.622 331.866C238.129 328.225 244.16 327.999 247.107 331.179C247.305 331.396 247.489 331.625 247.658 331.866L317.356 433.104Z" fill="#3F3D56"/>
<defs>
<clipPath id="clip0_136_868">
<rect width="692" height="661" fill="white" transform="translate(298)"/>
</clipPath>
</defs>
</svg>
