<svg width="1022" height="751" viewBox="0 0 1022 751" fill="none" xmlns="http://www.w3.org/2000/svg">
<g clip-path="url(#clip0_136_868)">
<g clip-path="url(#clip1_136_868)">
<path d="M910.415 587.796L868.828 597.497L868.705 596.971C867.704 592.678 868.449 588.164 870.776 584.42C873.103 580.676 876.822 578.01 881.115 577.008L881.116 577.008L887.368 569.473L902.886 571.93L906.516 571.083L910.415 587.796Z" fill="#2F2E41"/>
<path d="M840.308 193H491.692C483.29 192.991 475.234 189.647 469.293 183.703C463.351 177.759 460.009 169.699 460 161.293V31.7071C460.01 23.3008 463.352 15.2415 469.293 9.29737C475.234 3.35319 483.29 0.00955957 491.692 0H840.308C848.71 0.00955593 856.766 3.35319 862.707 9.29737C868.648 15.2415 871.99 23.3008 872 31.7071V161.293C871.991 169.699 868.649 177.759 862.707 183.703C856.766 189.647 848.71 192.991 840.308 193Z" fill="white"/>
<path d="M840.308 193H491.692C483.29 192.991 475.234 189.647 469.293 183.703C463.351 177.759 460.009 169.699 460 161.293V31.7071C460.01 23.3008 463.352 15.2415 469.293 9.29737C475.234 3.35319 483.29 0.00955957 491.692 0H840.308C848.71 0.00955593 856.766 3.35319 862.707 9.29737C868.648 15.2415 871.99 23.3008 872 31.7071V161.293C871.991 169.699 868.649 177.759 862.707 183.703C856.766 189.647 848.71 192.991 840.308 193ZM491.692 2.75714C484.021 2.76575 476.665 5.8186 471.241 11.2459C465.816 16.6732 462.764 24.0318 462.756 31.7071V161.293C462.765 168.968 465.816 176.327 471.241 181.754C476.666 187.181 484.021 190.234 491.692 190.243H840.308C847.979 190.234 855.335 187.181 860.759 181.754C866.184 176.327 869.235 168.968 869.244 161.293V31.7071C869.236 24.0318 866.184 16.6732 860.759 11.2459C855.335 5.8186 847.979 2.76575 840.308 2.75714H491.692Z" fill="#3F3D56"/>
<path d="M972.395 211H786.398C785.224 210.986 784.055 210.837 782.915 210.556C779.512 209.733 776.485 207.78 774.323 205.011C772.16 202.242 770.99 198.82 771 195.299V131.687C771.007 127.526 772.653 123.538 775.579 120.597C778.504 117.656 782.469 116.003 786.605 116H972.395C974.9 115.993 977.368 116.601 979.586 117.771C980.469 118.232 981.305 118.78 982.08 119.408C983.931 120.866 985.426 122.73 986.452 124.858C987.478 126.986 988.008 129.322 988 131.687V195.299C987.995 199.462 986.35 203.453 983.424 206.396C980.499 209.34 976.532 210.995 972.395 211Z" fill="white"/>
<path d="M960 209C968.227 188.464 976.893 168.13 986 148V182.13C979.791 191.833 972.606 200.839 964.564 209H960Z" fill="#E6E6E6"/>
<path d="M981 120.478C964.179 150.441 946.579 179.949 928.2 209H925C943.685 179.493 961.591 149.493 978.718 119C979.527 119.416 980.291 119.911 981 120.478Z" fill="#E6E6E6"/>
<path d="M859 153.207C848.088 172.498 836.045 191.128 822.936 209H804C816.403 193.892 828.816 178.783 841.238 163.675C844.801 159.325 848.669 154.768 854.014 153L859 153.207Z" fill="#E6E6E6"/>
<path d="M833 150.098C831.046 152.182 829.174 154.349 827.411 156.601C823.531 161.384 819.705 166.21 815.865 171.021C813.474 174.014 811.082 177.007 808.718 180C807.968 179.506 807.255 178.955 806.587 178.35C802.811 174.995 800.469 170.261 800.063 165.16C799.657 160.06 801.219 155 804.414 151.064C807.609 147.128 812.183 144.629 817.156 144.104C822.129 143.578 827.105 145.067 831.019 148.251C831.724 148.814 832.386 149.432 833 150.098Z" fill="#6C63FF"/>
<path d="M940.359 163.708L903.962 150.486L885.888 143.923C880.002 141.791 874.13 139.355 868.05 137.815C862.763 136.313 857.148 136.385 851.902 138.021C847.223 139.741 842.941 142.38 839.312 145.781C837.706 147.253 836.15 148.771 834.645 150.335C832.664 152.385 830.767 154.517 828.981 156.732C825.047 161.438 821.169 166.184 817.278 170.917C814.854 173.861 812.43 176.806 810.034 179.75C802.029 189.477 794.07 199.227 786.158 209C785.093 208.988 784.034 208.854 783 208.601C791.254 198.42 799.546 188.262 807.874 178.126C808.829 176.943 809.813 175.746 810.782 174.563C814.84 169.624 818.903 164.689 822.97 159.759C826.114 155.948 829.23 152.109 832.637 148.519C832.942 148.188 833.246 147.872 833.565 147.542C840.476 140.442 849.104 134.169 859.436 134.003C865.516 133.907 871.388 135.82 877.038 137.842C883.118 140.03 889.184 142.258 895.264 144.474L931.91 157.792L941.079 161.121C942.699 161.699 942.007 164.313 940.359 163.708Z" fill="#E6E6E6"/>
<path d="M972.395 211H786.398C785.224 210.986 784.055 210.837 782.915 210.556C779.512 209.733 776.485 207.78 774.323 205.011C772.16 202.242 770.99 198.82 771 195.299V131.687C771.007 127.526 772.653 123.538 775.579 120.597C778.504 117.656 782.469 116.003 786.605 116H972.395C974.9 115.993 977.368 116.601 979.586 117.771C980.469 118.232 981.305 118.78 982.08 119.408C983.931 120.866 985.426 122.73 986.452 124.858C987.478 126.986 988.008 129.322 988 131.687V195.299C987.995 199.462 986.35 203.453 983.424 206.396C980.499 209.34 976.532 210.995 972.395 211ZM786.605 118.781C783.202 118.784 779.94 120.143 777.533 122.563C775.125 124.982 773.77 128.264 773.764 131.687V195.299C773.756 198.197 774.719 201.013 776.499 203.291C778.279 205.57 780.77 207.178 783.571 207.855C784.502 208.084 785.456 208.206 786.415 208.219H972.395C975.799 208.215 979.063 206.852 981.47 204.43C983.877 202.008 985.232 198.724 985.236 195.299V131.687C985.241 129.741 984.805 127.819 983.96 126.068C983.115 124.317 981.883 122.784 980.36 121.585C979.724 121.069 979.038 120.618 978.313 120.239C976.487 119.277 974.456 118.776 972.395 118.781H786.605Z" fill="#3F3D56"/>
<path d="M603.279 271H335.721C327.311 270.991 319.248 267.656 313.301 261.727C307.354 255.798 304.009 247.76 304 239.375V192.625C304.01 184.24 307.355 176.202 313.301 170.273C319.248 164.345 327.311 161.01 335.721 161H603.279C611.689 161.01 619.752 164.345 625.699 170.273C631.645 176.202 634.99 184.24 635 192.625V239.375C634.991 247.76 631.646 255.798 625.699 261.727C619.752 267.656 611.689 270.991 603.279 271Z" fill="white"/>
<path d="M603.279 271H335.721C327.311 270.991 319.248 267.656 313.301 261.727C307.354 255.798 304.009 247.76 304 239.375V192.625C304.01 184.24 307.355 176.202 313.301 170.273C319.248 164.345 327.311 161.01 335.721 161H603.279C611.689 161.01 619.752 164.345 625.699 170.273C631.645 176.202 634.99 184.24 635 192.625V239.375C634.991 247.76 631.646 255.798 625.699 261.727C619.752 267.656 611.689 270.991 603.279 271ZM335.721 163.75C328.042 163.759 320.68 166.804 315.251 172.217C309.821 177.63 306.767 184.97 306.758 192.625V239.375C306.767 247.03 309.821 254.37 315.251 259.783C320.681 265.196 328.042 268.241 335.721 268.25H603.279C610.958 268.241 618.319 265.196 623.749 259.783C629.179 254.37 632.233 247.03 632.242 239.375V192.625C632.233 184.97 629.179 177.63 623.749 172.217C618.32 166.804 610.958 163.759 603.279 163.75H335.721Z" fill="#3F3D56"/>
<path d="M491.236 244H447.764C445.441 243.997 443.213 243.092 441.57 241.483C439.927 239.874 439.003 237.692 439 235.416V195.584C439.003 193.308 439.927 191.126 441.57 189.517C443.213 187.908 445.441 187.003 447.764 187H491.236C493.559 187.003 495.787 187.908 497.43 189.517C499.073 191.126 499.997 193.308 500 195.584V235.416C499.997 237.692 499.073 239.874 497.43 241.483C495.787 243.092 493.559 243.997 491.236 244Z" fill="#E6E6E6"/>
<path d="M567.379 244H524.621C522.335 243.997 520.144 243.092 518.528 241.483C516.912 239.874 516.003 237.692 516 235.416V195.584C516.003 193.308 516.912 191.126 518.528 189.517C520.144 187.908 522.335 187.003 524.621 187H567.379C569.665 187.003 571.856 187.908 573.472 189.517C575.088 191.126 575.997 193.308 576 195.584V235.416C575.997 237.692 575.088 239.874 573.472 241.483C571.856 243.092 569.665 243.997 567.379 244Z" fill="#E6E6E6"/>
<path d="M682.5 76H627.5C626.041 76 624.642 75.4205 623.611 74.3891C622.58 73.3576 622 71.9587 622 70.5C622 69.0413 622.58 67.6424 623.611 66.6109C624.642 65.5795 626.041 65 627.5 65H682.5C683.959 65 685.358 65.5795 686.389 66.6109C687.421 67.6424 688 69.0413 688 70.5C688 71.9587 687.421 73.3576 686.389 74.3891C685.358 75.4205 683.959 76 682.5 76Z" fill="#CCCCCC"/>
<path d="M801.489 107H626.511C625.049 107 623.648 106.421 622.614 105.389C621.581 104.358 621 102.959 621 101.5C621 100.041 621.581 98.6424 622.614 97.6109C623.648 96.5795 625.049 96 626.511 96H801.489C802.951 96 804.352 96.5795 805.386 97.6109C806.419 98.6424 807 100.041 807 101.5C807 102.959 806.419 104.358 805.386 105.389C804.352 106.421 802.951 107 801.489 107Z" fill="#CCCCCC"/>
<path d="M562 123C582.435 123 599 106.435 599 86C599 65.5655 582.435 49 562 49C541.565 49 525 65.5655 525 86C525 106.435 541.565 123 562 123Z" fill="#6C63FF"/>
<path d="M964.308 432H615.692C607.29 431.991 599.234 428.647 593.293 422.703C587.351 416.759 584.009 408.699 584 400.293V270.707C584.01 262.301 587.352 254.242 593.293 248.297C599.234 242.353 607.29 239.01 615.692 239H964.308C972.71 239.01 980.766 242.353 986.707 248.297C992.648 254.242 995.99 262.301 996 270.707V400.293C995.991 408.699 992.649 416.759 986.707 422.703C980.766 428.647 972.71 431.991 964.308 432Z" fill="white"/>
<path d="M964.308 432H615.692C607.29 431.991 599.234 428.647 593.293 422.703C587.351 416.759 584.009 408.699 584 400.293V270.707C584.01 262.301 587.352 254.242 593.293 248.297C599.234 242.353 607.29 239.01 615.692 239H964.308C972.71 239.01 980.766 242.353 986.707 248.297C992.648 254.242 995.99 262.301 996 270.707V400.293C995.991 408.699 992.649 416.759 986.707 422.703C980.766 428.647 972.71 431.991 964.308 432ZM615.692 241.757C608.021 241.766 600.665 244.819 595.241 250.246C589.816 255.673 586.764 263.032 586.756 270.707V400.293C586.765 407.968 589.816 415.327 595.241 420.754C600.666 426.181 608.021 429.234 615.692 429.243H964.308C971.979 429.234 979.334 426.181 984.759 420.754C990.184 415.327 993.235 407.968 993.244 400.293V270.707C993.236 263.032 990.184 255.673 984.759 250.246C979.335 244.819 971.979 241.766 964.308 241.757H615.692Z" fill="#3F3D56"/>
<path d="M751.396 290H692.622C691.884 290.001 691.153 289.86 690.471 289.584C689.789 289.308 689.169 288.903 688.647 288.392C688.125 287.881 687.711 287.275 687.428 286.607C687.146 285.939 687 285.223 687 284.5C687 283.777 687.146 283.061 687.428 282.393C687.711 281.725 688.125 281.119 688.647 280.608C689.169 280.097 689.789 279.692 690.471 279.416C691.153 279.14 691.884 278.999 692.622 279H751.396C752.883 279.002 754.309 279.583 755.359 280.614C756.41 281.645 757 283.043 757 284.5C757 285.957 756.41 287.355 755.359 288.386C754.309 289.417 752.883 289.998 751.396 290Z" fill="#6C63FF"/>
<path d="M882.408 313H692.592C691.109 313 689.686 312.421 688.638 311.389C687.589 310.358 687 308.959 687 307.5C687 306.041 687.589 304.642 688.638 303.611C689.686 302.579 691.109 302 692.592 302H882.408C883.891 302 885.314 302.579 886.362 303.611C887.411 304.642 888 306.041 888 307.5C888 308.959 887.411 310.358 886.362 311.389C885.314 312.421 883.891 313 882.408 313Z" fill="#E6E6E6"/>
<path d="M882.408 340H692.592C691.857 340 691.13 339.845 690.452 339.543C689.773 339.242 689.157 338.8 688.638 338.243C688.118 337.685 687.707 337.024 687.426 336.296C687.145 335.568 687 334.788 687 334C687 333.212 687.145 332.432 687.426 331.704C687.707 330.976 688.118 330.314 688.638 329.757C689.157 329.2 689.773 328.758 690.452 328.457C691.13 328.155 691.857 328 692.592 328H882.408C883.891 328 885.314 328.632 886.362 329.757C887.411 330.883 888 332.409 888 334C888 335.591 887.411 337.117 886.362 338.243C885.314 339.368 883.891 340 882.408 340Z" fill="#E6E6E6"/>
<path d="M882.417 366H692.601C691.866 366.001 691.137 365.86 690.458 365.584C689.779 365.308 689.161 364.903 688.641 364.392C688.121 363.881 687.708 363.275 687.427 362.607C687.145 361.939 687 361.223 687 360.5C687 359.777 687.145 359.061 687.427 358.393C687.708 357.725 688.121 357.119 688.641 356.608C689.161 356.097 689.779 355.692 690.458 355.416C691.137 355.14 691.866 354.999 692.601 355H882.417C883.899 355.002 885.319 355.583 886.365 356.614C887.412 357.645 888 359.043 888 360.5C888 361.957 887.412 363.355 886.365 364.386C885.319 365.417 883.899 365.998 882.417 366Z" fill="#E6E6E6"/>
<path d="M882.408 392H692.592C691.109 392 689.686 391.421 688.638 390.389C687.589 389.358 687 387.959 687 386.5C687 385.041 687.589 383.642 688.638 382.611C689.686 381.579 691.109 381 692.592 381H882.408C883.891 381 885.314 381.579 886.362 382.611C887.411 383.642 888 385.041 888 386.5C888 387.959 887.411 389.358 886.362 390.389C885.314 391.421 883.891 392 882.408 392Z" fill="#E6E6E6"/>
</g>
<path d="M286.126 155H77.5831C45.1483 155 18.8547 181.294 18.8547 213.728V690.272C18.8547 722.706 45.1483 749 77.5831 749H286.126C318.561 749 344.855 722.706 344.855 690.272V213.728C344.855 181.294 318.561 155 286.126 155Z" fill="#3F3D56"/>
<path d="M339.355 213.732V690.272C339.339 704.385 333.725 717.915 323.746 727.894C313.767 737.873 300.238 743.486 286.125 743.502H77.5852C63.4728 743.486 49.943 737.873 39.964 727.894C29.9849 717.915 24.3716 704.385 24.3552 690.272V213.732C24.3716 199.62 29.9849 186.09 39.964 176.111C49.943 166.132 63.4728 160.519 77.5852 160.502H104.855V169.922C104.855 174.187 106.55 178.277 109.565 181.292C112.581 184.308 116.671 186.002 120.935 186.002H242.775C247.04 186.002 251.13 184.308 254.145 181.292C257.161 178.277 258.855 174.187 258.855 169.922V160.502H286.125C300.238 160.519 313.767 166.132 323.746 176.111C333.725 186.09 339.339 199.62 339.355 213.732Z" fill="white"/>
<path d="M17.3547 275.5C16.2942 275.499 15.2775 275.077 14.5276 274.327C13.7778 273.577 13.356 272.56 13.3547 271.5V263.5C13.3547 262.439 13.7762 261.422 14.5263 260.672C15.2765 259.921 16.2939 259.5 17.3547 259.5C18.4156 259.5 19.433 259.921 20.1832 260.672C20.9333 261.422 21.3547 262.439 21.3547 263.5V271.5C21.3535 272.56 20.9317 273.577 20.1818 274.327C19.4319 275.077 18.4152 275.499 17.3547 275.5Z" fill="#3F3D56"/>
<path d="M17.3547 316.521C16.2942 316.52 15.2775 316.098 14.5276 315.349C13.7778 314.599 13.3559 313.582 13.3547 312.521V290.5C13.3547 289.439 13.7762 288.422 14.5263 287.672C15.2765 286.921 16.2939 286.5 17.3547 286.5C18.4156 286.5 19.433 286.921 20.1832 287.672C20.9333 288.422 21.3547 289.439 21.3547 290.5V312.521C21.3535 313.582 20.9317 314.599 20.1818 315.349C19.4319 316.098 18.4152 316.52 17.3547 316.521Z" fill="#3F3D56"/>
<path d="M17.3547 349.5C16.2942 349.499 15.2775 349.077 14.5276 348.327C13.7778 347.577 13.3559 346.56 13.3547 345.5V323.479C13.3547 322.418 13.7762 321.4 14.5263 320.65C15.2765 319.9 16.2939 319.479 17.3547 319.479C18.4156 319.479 19.433 319.9 20.1832 320.65C20.9333 321.4 21.3547 322.418 21.3547 323.479V345.5C21.3535 346.56 20.9317 347.577 20.1818 348.327C19.4319 349.077 18.4152 349.499 17.3547 349.5Z" fill="#3F3D56"/>
<path d="M345.355 331.5C344.294 331.499 343.278 331.077 342.528 330.327C341.778 329.577 341.356 328.56 341.355 327.5V273.767C341.355 272.706 341.776 271.688 342.526 270.938C343.276 270.188 344.294 269.767 345.355 269.767C346.416 269.767 347.433 270.188 348.183 270.938C348.933 271.688 349.355 272.706 349.355 273.767V327.5C349.354 328.56 348.932 329.577 348.182 330.327C347.432 331.077 346.415 331.499 345.355 331.5Z" fill="#3F3D56"/>
<path d="M190.447 173.346H159.447C158.784 173.346 158.148 173.082 157.68 172.613C157.211 172.145 156.947 171.509 156.947 170.846C156.947 170.183 157.211 169.547 157.68 169.078C158.148 168.609 158.784 168.346 159.447 168.346H190.447C191.11 168.346 191.746 168.609 192.215 169.078C192.684 169.547 192.947 170.183 192.947 170.846C192.947 171.509 192.684 172.145 192.215 172.613C191.746 173.082 191.11 173.346 190.447 173.346Z" fill="white"/>
<path d="M206.447 172.846C207.552 172.846 208.447 171.95 208.447 170.846C208.447 169.741 207.552 168.846 206.447 168.846C205.343 168.846 204.447 169.741 204.447 170.846C204.447 171.95 205.343 172.846 206.447 172.846Z" fill="white"/>
<path d="M92.9407 184.073H65.9407C64.6146 184.073 63.3428 183.546 62.4052 182.609C61.4675 181.671 60.9407 180.399 60.9407 179.073C60.9407 177.747 61.4675 176.475 62.4052 175.537C63.3428 174.6 64.6146 174.073 65.9407 174.073H92.9407C94.2668 174.073 95.5385 174.6 96.4762 175.537C97.4139 176.475 97.9407 177.747 97.9407 179.073C97.9407 180.399 97.4139 181.671 96.4762 182.609C95.5385 183.546 94.2668 184.073 92.9407 184.073Z" fill="#E6E6E6"/>
<path d="M269.941 183.573C272.426 183.573 274.441 181.558 274.441 179.073C274.441 176.588 272.426 174.573 269.941 174.573C267.455 174.573 265.441 176.588 265.441 179.073C265.441 181.558 267.455 183.573 269.941 183.573Z" fill="#E6E6E6"/>
<path d="M283.941 183.573C286.426 183.573 288.441 181.558 288.441 179.073C288.441 176.588 286.426 174.573 283.941 174.573C281.455 174.573 279.441 176.588 279.441 179.073C279.441 181.558 281.455 183.573 283.941 183.573Z" fill="#E6E6E6"/>
<path d="M297.941 183.573C300.426 183.573 302.441 181.558 302.441 179.073C302.441 176.588 300.426 174.573 297.941 174.573C295.455 174.573 293.441 176.588 293.441 179.073C293.441 181.558 295.455 183.573 297.941 183.573Z" fill="#E6E6E6"/>
<path d="M266.794 253.957H97.0943C93.807 253.962 90.6557 255.269 88.3312 257.594C86.0067 259.918 84.6989 263.07 84.6943 266.357V376.667C84.6989 379.954 86.0067 383.106 88.3312 385.43C90.6557 387.755 93.807 389.063 97.0943 389.067H266.794C270.082 389.064 273.235 387.757 275.559 385.432C277.884 383.107 279.192 379.955 279.194 376.667V266.357C279.192 263.069 277.884 259.917 275.559 257.592C273.235 255.267 270.082 253.96 266.794 253.957Z" fill="#F2F2F2"/>
<path d="M213.667 301.049C198.331 328.164 181.408 354.349 162.986 379.469H136.373C153.804 358.233 171.248 336.998 188.705 315.762C193.713 309.648 199.148 303.242 206.66 300.758L213.667 301.049Z" fill="#3F3D56"/>
<path d="M178.301 296.701C175.525 299.593 172.865 302.602 170.361 305.727C164.849 312.366 159.414 319.062 153.959 325.74C150.562 329.893 147.166 334.047 143.808 338.201C142.741 337.516 141.729 336.751 140.779 335.911C135.416 331.256 132.089 324.685 131.512 317.606C130.935 310.527 133.153 303.504 137.692 298.042C142.231 292.579 148.728 289.111 155.793 288.382C162.857 287.652 169.927 289.719 175.486 294.139C176.488 294.92 177.429 295.777 178.301 296.701Z" fill="#6C63FF"/>
<path d="M279.194 293.547V297.577L277.394 296.917L252.064 287.657C243.814 284.647 235.584 281.207 227.064 279.037C219.652 276.917 211.78 277.018 204.424 279.327C197.868 281.753 191.868 285.477 186.784 290.277C184.534 292.357 182.354 294.487 180.244 296.697C179.554 297.427 178.864 298.157 178.184 298.887C176.144 301.107 174.174 303.377 172.304 305.727C166.794 312.367 161.354 319.067 155.904 325.737C152.504 329.897 149.104 334.047 145.744 338.197C134.524 351.927 123.371 365.684 112.284 379.467C110.791 379.45 109.305 379.262 107.854 378.907C119.164 364.857 130.528 350.844 141.944 336.867C142.204 336.547 142.464 336.227 142.724 335.907C144.064 334.237 145.434 332.557 146.794 330.887C152.484 323.917 158.178 316.954 163.874 309.997C168.014 304.937 172.124 299.857 176.584 295.057C176.854 294.747 177.134 294.447 177.424 294.137C177.854 293.677 178.284 293.227 178.724 292.757C188.414 282.747 200.504 273.897 214.984 273.657C223.504 273.527 231.734 276.227 239.654 279.077C248.184 282.167 256.684 285.307 265.204 288.427L279.194 293.547Z" fill="#3F3D56"/>
<path d="M283.184 632.618H80.5259C77.2386 632.614 74.087 631.307 71.7625 628.982C69.438 626.658 68.1305 623.506 68.1267 620.219V592.906C68.1305 589.619 69.438 586.467 71.7625 584.143C74.087 581.818 77.2386 580.511 80.5259 580.507H283.184C286.472 580.511 289.623 581.818 291.948 584.143C294.272 586.467 295.58 589.619 295.584 592.906V620.219C295.58 623.506 294.272 626.658 291.948 628.982C289.623 631.307 286.472 632.614 283.184 632.618Z" fill="#F2F2F2"/>
<path d="M283.184 492.618H80.5259C77.2386 492.614 74.087 491.307 71.7625 488.982C69.438 486.658 68.1305 483.506 68.1267 480.219V452.906C68.1305 449.619 69.438 446.467 71.7625 444.143C74.087 441.818 77.2386 440.511 80.5259 440.507H283.184C286.472 440.511 289.623 441.818 291.948 444.143C294.272 446.467 295.58 449.619 295.584 452.906V480.219C295.58 483.506 294.272 486.658 291.948 488.982C289.623 491.307 286.472 492.614 283.184 492.618Z" fill="#F2F2F2"/>
<path d="M283.184 562.618H80.5259C77.2386 562.614 74.087 561.307 71.7625 558.982C69.438 556.658 68.1305 553.506 68.1267 550.219V522.906C68.1305 519.619 69.438 516.467 71.7625 514.143C74.087 511.818 77.2386 510.511 80.5259 510.507H283.184C286.472 510.511 289.623 511.818 291.948 514.143C294.272 516.467 295.58 519.619 295.584 522.906V550.219C295.58 553.506 294.272 556.658 291.948 558.982C289.623 561.307 286.472 562.614 283.184 562.618Z" fill="#F2F2F2"/>
<path d="M206.477 601.888H146.765C146.056 601.888 145.377 601.607 144.876 601.106C144.375 600.605 144.094 599.926 144.094 599.217C144.094 598.509 144.375 597.829 144.876 597.328C145.377 596.827 146.056 596.546 146.765 596.546H206.477C207.185 596.546 207.864 596.827 208.365 597.328C208.866 597.829 209.148 598.509 209.148 599.217C209.148 599.926 208.866 600.605 208.365 601.106C207.864 601.607 207.185 601.888 206.477 601.888Z" fill="white"/>
<path d="M263.907 616.58H146.097C145.389 616.58 144.709 616.298 144.208 615.797C143.707 615.296 143.426 614.617 143.426 613.909C143.426 613.2 143.707 612.521 144.208 612.02C144.709 611.519 145.389 611.237 146.097 611.237H263.907C264.615 611.237 265.294 611.519 265.795 612.02C266.296 612.521 266.578 613.2 266.578 613.909C266.578 614.617 266.296 615.296 265.795 615.797C265.294 616.298 264.615 616.58 263.907 616.58Z" fill="white"/>
<path d="M115.042 624.472C124.933 624.472 132.951 616.454 132.951 606.563C132.951 596.672 124.933 588.653 115.042 588.653C105.151 588.653 97.1326 596.672 97.1326 606.563C97.1326 616.454 105.151 624.472 115.042 624.472Z" fill="white"/>
<path d="M-337 750C-337.001 750.131 -336.948 750.262 -336.844 750.383C-336.74 750.505 -336.587 750.615 -336.394 750.708C-336.201 750.801 -335.972 750.875 -335.72 750.925C-335.468 750.975 -335.198 751 -334.926 751H911.926C912.476 751 913.003 750.895 913.392 750.707C913.781 750.52 914 750.265 914 750C914 749.735 913.781 749.48 913.392 749.293C913.003 749.105 912.476 749 911.926 749H-334.926C-335.198 749 -335.468 749.025 -335.72 749.075C-335.972 749.125 -336.201 749.199 -336.394 749.292C-336.587 749.385 -336.74 749.495 -336.844 749.617C-336.948 749.738 -337.001 749.869 -337 750Z" fill="#CCCCCC"/>
<path d="M445.184 492.618H242.526C239.239 492.614 236.087 491.307 233.762 488.982C231.438 486.658 230.13 483.506 230.127 480.219V452.906C230.13 449.619 231.438 446.467 233.762 444.143C236.087 441.818 239.239 440.511 242.526 440.507H445.184C448.472 440.511 451.623 441.818 453.948 444.143C456.272 446.467 457.58 449.619 457.584 452.906V480.219C457.58 483.506 456.272 486.658 453.948 488.982C451.623 491.307 448.472 492.614 445.184 492.618Z" fill="#E6E6E6"/>
<path d="M368.477 461.888H308.765C308.056 461.888 307.377 461.607 306.876 461.106C306.375 460.605 306.094 459.926 306.094 459.217C306.094 458.509 306.375 457.829 306.876 457.328C307.377 456.827 308.056 456.546 308.765 456.546H368.477C369.185 456.546 369.864 456.827 370.365 457.328C370.866 457.829 371.148 458.509 371.148 459.217C371.148 459.926 370.866 460.605 370.365 461.106C369.864 461.607 369.185 461.888 368.477 461.888Z" fill="white"/>
<path d="M425.907 476.58H308.097C307.389 476.58 306.709 476.298 306.208 475.797C305.707 475.296 305.426 474.617 305.426 473.908C305.426 473.2 305.707 472.521 306.208 472.02C306.709 471.519 307.389 471.237 308.097 471.237H425.907C426.615 471.237 427.294 471.519 427.795 472.02C428.296 472.521 428.578 473.2 428.578 473.908C428.578 474.617 428.296 475.296 427.795 475.797C427.294 476.298 426.615 476.58 425.907 476.58Z" fill="white"/>
<path d="M277.042 484.472C286.933 484.472 294.951 476.454 294.951 466.563C294.951 456.672 286.933 448.653 277.042 448.653C267.151 448.653 259.133 456.672 259.133 466.563C259.133 476.454 267.151 484.472 277.042 484.472Z" fill="white"/>
<path d="M380.184 562.618H177.526C174.239 562.614 171.087 561.307 168.762 558.982C166.438 556.658 165.13 553.506 165.127 550.219V522.906C165.13 519.619 166.438 516.467 168.762 514.143C171.087 511.818 174.239 510.511 177.526 510.507H380.184C383.472 510.511 386.623 511.818 388.948 514.143C391.272 516.467 392.58 519.619 392.584 522.906V550.219C392.58 553.506 391.272 556.658 388.948 558.982C386.623 561.307 383.472 562.614 380.184 562.618Z" fill="#E6E6E6"/>
<path d="M303.477 531.888H243.765C243.056 531.888 242.377 531.607 241.876 531.106C241.375 530.605 241.094 529.926 241.094 529.217C241.094 528.509 241.375 527.829 241.876 527.328C242.377 526.827 243.056 526.546 243.765 526.546H303.477C304.185 526.546 304.864 526.827 305.365 527.328C305.866 527.829 306.148 528.509 306.148 529.217C306.148 529.926 305.866 530.605 305.365 531.106C304.864 531.607 304.185 531.888 303.477 531.888Z" fill="white"/>
<path d="M360.907 546.58H243.097C242.389 546.58 241.709 546.298 241.208 545.797C240.707 545.296 240.426 544.617 240.426 543.909C240.426 543.2 240.707 542.521 241.208 542.02C241.709 541.519 242.389 541.237 243.097 541.237H360.907C361.615 541.237 362.294 541.519 362.795 542.02C363.296 542.521 363.578 543.2 363.578 543.909C363.578 544.617 363.296 545.296 362.795 545.797C362.294 546.298 361.615 546.58 360.907 546.58Z" fill="white"/>
<path d="M212.042 554.472C221.933 554.472 229.951 546.454 229.951 536.563C229.951 526.672 221.933 518.653 212.042 518.653C202.151 518.653 194.133 526.672 194.133 536.563C194.133 546.454 202.151 554.472 212.042 554.472Z" fill="white"/>
<path d="M446.281 581.764C443.666 581.764 441.111 580.989 438.937 579.536C436.763 578.084 435.069 576.019 434.069 573.604C433.068 571.189 432.806 568.531 433.316 565.967C433.827 563.403 435.085 561.048 436.934 559.199C438.783 557.351 441.138 556.092 443.702 555.582C446.266 555.072 448.924 555.333 451.339 556.334C453.754 557.334 455.819 559.028 457.271 561.202C458.723 563.376 459.499 565.931 459.499 568.546C459.499 572.051 458.106 575.413 455.627 577.892C453.148 580.371 449.786 581.764 446.281 581.764Z" fill="#E6E6E6"/>
<path d="M450.89 571.311L448.125 568.546L450.891 565.78C451.135 565.535 451.272 565.203 451.272 564.858C451.272 564.512 451.135 564.18 450.891 563.936C450.646 563.691 450.314 563.554 449.969 563.554C449.623 563.554 449.291 563.691 449.047 563.936L446.281 566.702L443.515 563.936C443.27 563.691 442.938 563.554 442.593 563.554C442.247 563.554 441.915 563.691 441.671 563.936C441.426 564.18 441.289 564.512 441.289 564.858C441.289 565.203 441.426 565.535 441.671 565.78L444.436 568.546L441.671 571.312C441.426 571.556 441.289 571.888 441.289 572.234C441.289 572.579 441.426 572.911 441.671 573.156C441.915 573.4 442.247 573.537 442.593 573.537C442.938 573.537 443.27 573.4 443.515 573.156L446.28 570.39L449.046 573.156C449.291 573.4 449.623 573.537 449.968 573.537C450.314 573.537 450.646 573.4 450.89 573.156C451.135 572.911 451.272 572.579 451.272 572.234C451.272 571.888 451.135 571.556 450.89 571.311Z" fill="white"/>
<path d="M386.305 426.609C400.832 426.609 412.609 414.832 412.609 400.304C412.609 385.777 400.832 374 386.305 374C371.777 374 360 385.777 360 400.304C360 414.832 371.777 426.609 386.305 426.609Z" fill="#6C63FF"/>
<path d="M385.102 413.057C384.648 413.057 384.2 412.951 383.793 412.748C383.387 412.545 383.034 412.25 382.761 411.886L375.585 402.318C375.355 402.01 375.187 401.66 375.092 401.288C374.996 400.916 374.975 400.529 375.029 400.148C375.084 399.768 375.212 399.402 375.408 399.071C375.604 398.741 375.863 398.452 376.17 398.221C376.478 397.991 376.828 397.823 377.2 397.728C377.572 397.632 377.959 397.611 378.34 397.666C378.72 397.72 379.086 397.849 379.417 398.044C379.747 398.24 380.036 398.499 380.267 398.807L384.962 405.066L397.02 386.979C397.233 386.659 397.507 386.384 397.827 386.17C398.146 385.956 398.504 385.807 398.881 385.732C399.258 385.657 399.646 385.656 400.023 385.731C400.4 385.805 400.759 385.953 401.078 386.166C401.398 386.38 401.673 386.654 401.887 386.973C402.1 387.292 402.249 387.651 402.325 388.028C402.4 388.405 402.4 388.793 402.326 389.17C402.251 389.547 402.103 389.905 401.889 390.225L387.537 411.754C387.277 412.143 386.928 412.465 386.519 412.691C386.109 412.918 385.651 413.043 385.183 413.056C385.156 413.056 385.129 413.057 385.102 413.057Z" fill="white"/>
<path d="M513.167 729.859L500.411 729.858L494.342 680.655L513.17 680.656L513.167 729.859Z" fill="#FFB6B6"/>
<path d="M620.987 719.174L608.805 722.959L588.407 677.773L606.387 672.187L620.987 719.174Z" fill="#FFB6B6"/>
<path d="M570.247 489L575.462 503.013V510.588L574.735 518.918L582.806 546.701L589.138 607.964L621 698.653L596.569 705.301L534.193 557.125L514.491 707L492.149 706.437C492.149 706.437 488.327 697.703 489.332 692.954C490.337 688.206 490.337 693.904 490.337 688.206C490.337 682.508 485.98 684.983 489.164 680.421C492.348 675.86 491.951 671.867 492.149 669.115C492.348 666.363 490.337 555.248 490.337 551.449C490.337 547.65 489.641 548.482 489.989 544.742C490.337 541.002 494.755 542.54 493.551 536.073C492.348 529.606 491.951 530.736 492.149 525.897C492.348 521.059 495.118 492.686 495.118 492.686L570.247 489Z" fill="#2F2E41"/>
<path d="M487.319 493.274L531.699 452.599L544 419.498L525.856 412C516.537 420.484 506.463 446.911 506.463 446.911L475.923 483.836C475.685 483.914 475.448 483.996 475.213 484.094C473.838 484.671 472.642 485.575 471.742 486.719C470.841 487.863 470.266 489.208 470.073 490.625C469.879 492.042 470.074 493.482 470.637 494.807C471.2 496.131 472.114 497.296 473.289 498.187C474.464 499.078 475.861 499.666 477.345 499.894C478.829 500.122 480.35 499.982 481.761 499.488C483.171 498.994 484.424 498.163 485.398 497.074C486.372 495.986 487.033 494.677 487.319 493.274Z" fill="#FFB8B8"/>
<path d="M521 415.097L543.854 422L543.94 421.986C552.446 420.631 559.505 407.413 563.928 396.564C565.383 392.985 565.356 389.014 563.852 385.454C562.348 381.894 559.479 379.01 555.825 377.385C553.121 376.203 550.124 375.765 547.172 376.119C544.221 376.474 541.432 377.606 539.121 379.39L527.385 388.513L521 415.097Z" fill="#6C63FF"/>
<path d="M574.107 507L574.243 506.829C581.484 497.73 571.58 475.198 570.083 471.93L576.816 470.04L575.642 457.894L575.077 452.479L580.312 447.768L580.33 447.648L583.93 423.373L588.64 407.307C590.416 401.233 590.453 394.821 588.749 388.729C587.045 382.637 583.66 377.084 578.943 372.641L569.313 363.583L557.776 346.473L538.433 346L531.477 357.707C525.009 358.958 519.208 362.319 515.087 367.206C510.965 372.092 508.783 378.193 508.92 384.447L509.575 415.614L502.635 454.231L502.44 461.245L495.628 468.056L496.887 474.942L491.791 476.865L489.298 486.65C488.346 487.779 482.057 495.31 482 497.41C481.992 497.725 482.229 498.035 482.747 498.386C486.817 501.145 509.566 507.124 519.805 503.53C530.711 499.704 573.455 506.889 573.885 506.962L574.107 507Z" fill="#6C63FF"/>
<path d="M527 407.96L517.1 389C502.73 389.943 474.209 405.904 474.209 405.904L420.247 416.894C418.648 416.304 416.916 416.128 415.224 416.386C413.533 416.643 411.942 417.324 410.611 418.359C409.281 419.395 408.258 420.749 407.645 422.285C407.032 423.822 406.852 425.486 407.122 427.111C407.392 428.735 408.102 430.263 409.182 431.54C410.262 432.817 411.673 433.798 413.273 434.384C414.873 434.971 416.606 435.142 418.296 434.881C419.987 434.62 421.577 433.936 422.905 432.897L491.548 428.17L527 407.96Z" fill="#FFB8B8"/>
<path d="M523.083 411L548.832 392.84L553.367 377.328C554.246 374.28 554.209 371.059 553.26 368.03C552.311 365.001 550.488 362.284 547.998 360.186C544.601 357.364 540.203 355.871 535.691 356.009C531.179 356.147 526.891 357.906 523.693 360.93C514.004 370.109 502.952 382.914 505.326 391.793L505.35 391.883L523.083 411Z" fill="#6C63FF"/>
<path d="M549 341C561.703 341 572 331.374 572 319.5C572 307.626 561.703 298 549 298C536.297 298 526 307.626 526 319.5C526 331.374 536.297 341 549 341Z" fill="#FFB8B8"/>
<path d="M564.38 342C560.516 340.304 556.003 341.335 551.738 341.492C547.472 341.648 542.304 340.146 541.399 336.247C540.73 333.364 542.741 330.205 541.474 327.503C540.092 324.557 535.943 324.138 532.616 323.313C528.446 322.187 524.768 319.848 522.116 316.636C519.465 313.424 517.978 309.505 517.871 305.45C517.64 307.059 520.587 307.588 521.555 306.239C522.523 304.891 521.857 303.024 520.789 301.742C519.722 300.46 518.281 299.437 517.476 297.998C516.671 296.558 516.828 294.421 518.4 293.728C519.205 295.247 520.346 296.59 521.748 297.668C523.149 298.745 524.779 299.532 526.53 299.978C525.815 297.948 526.826 295.666 528.453 294.165C530.181 292.758 532.173 291.662 534.328 290.932C539.652 288.775 545.87 286.628 551.026 289.117C552.357 289.772 553.513 290.699 554.407 291.83C555.301 292.961 555.91 294.265 556.188 295.647C565.727 296.401 575.521 306.057 574.978 314.989C574.394 324.604 573.967 325.382 565.403 341.562" fill="#2F2E41"/>
<path d="M918.694 757.342H885.508L885.365 757.083C884.941 756.314 884.531 755.498 884.148 754.661C880.73 747.342 879.285 738.972 878.01 731.587L877.05 726.021C876.934 725.347 877.021 724.653 877.301 724.029C877.582 723.405 878.042 722.879 878.623 722.518C879.204 722.157 879.879 721.977 880.563 722.002C881.247 722.027 881.907 722.256 882.46 722.659C887.504 726.329 892.549 729.995 897.596 733.658C899.508 735.048 901.69 736.658 903.78 738.397C903.982 737.417 904.193 736.435 904.404 735.466C904.549 734.797 904.891 734.187 905.386 733.714C905.88 733.24 906.504 732.925 907.179 732.808C907.853 732.692 908.547 732.779 909.172 733.059C909.796 733.339 910.323 733.799 910.685 734.38L914.568 740.619C917.4 745.174 919.899 749.664 919.39 754.505C919.392 754.564 919.388 754.623 919.377 754.681C919.275 755.476 919.086 756.258 918.813 757.012L918.694 757.342Z" fill="#F0F0F0"/>
<path d="M510.54 727.681L496.92 722.141L496.53 721.981L489.01 727.681C484.764 727.682 480.692 729.369 477.69 732.371C474.688 735.374 473.001 739.446 473 743.691V744.211H514.13V727.681H510.54Z" fill="#2F2E41"/>
<path d="M617.138 717.285L602.488 716.037L602.068 716L596.578 723.675C592.524 724.936 589.136 727.755 587.16 731.513C585.184 735.271 584.781 739.66 586.041 743.715L586.195 744.211L625.472 732.005L620.566 716.22L617.138 717.285Z" fill="#2F2E41"/>
<path d="M776.564 740.424C778.63 740.553 779.771 737.987 778.208 736.491L778.053 735.872C778.073 735.823 778.094 735.774 778.115 735.724C780.204 730.742 787.284 730.777 789.356 735.766C791.195 740.194 793.535 744.63 794.112 749.312C794.37 751.379 794.254 753.484 793.795 755.512C798.103 746.102 800.37 735.826 800.37 725.491C800.37 722.895 800.228 720.298 799.938 717.709C799.699 715.59 799.369 713.484 798.943 711.398C796.637 700.121 791.644 689.38 784.443 680.409C780.981 678.516 778.094 675.558 776.35 672.012C775.723 670.733 775.233 669.357 775 667.956C775.394 668.008 776.486 662.007 776.188 661.639C776.737 660.806 777.72 660.392 778.32 659.579C781.302 655.535 785.411 656.241 787.556 661.736C792.138 664.049 792.183 667.884 789.371 671.573C787.582 673.92 787.336 677.095 785.767 679.608C785.928 679.814 786.096 680.015 786.258 680.221C789.219 684.019 791.78 688.101 793.939 692.39C793.329 687.624 794.23 681.882 795.765 678.18C797.513 673.963 800.79 670.411 803.676 666.765C807.142 662.386 814.249 664.297 814.86 669.849C814.866 669.902 814.871 669.956 814.877 670.01C814.448 670.252 814.029 670.508 813.618 670.78C811.279 672.327 812.087 675.954 814.859 676.381L814.922 676.391C814.767 677.935 814.502 679.466 814.115 680.97C817.817 695.286 809.825 700.5 798.413 700.735C798.162 700.864 797.916 700.993 797.664 701.116C798.82 704.371 799.744 707.71 800.429 711.095C801.042 714.085 801.468 717.108 801.707 720.144C802.005 723.974 801.979 727.823 801.656 731.647L801.675 731.511C802.495 727.3 804.782 723.367 808.102 720.641C813.047 716.578 820.035 715.082 825.37 711.817C827.938 710.245 831.229 712.276 830.781 715.254L830.759 715.396C829.965 715.719 829.19 716.094 828.441 716.514C828.012 716.755 827.592 717.012 827.182 717.284C824.843 718.831 825.651 722.457 828.423 722.885L828.486 722.895C828.531 722.901 828.57 722.908 828.615 722.914C827.252 726.15 825.353 729.154 822.976 731.744C820.662 744.241 810.72 745.426 800.086 741.787H800.08C798.917 746.851 797.218 751.798 795.035 756.513H777.015C776.951 756.313 776.892 756.106 776.834 755.906C778.501 756.01 780.18 755.913 781.821 755.609C780.484 753.969 779.147 752.315 777.81 750.675C777.777 750.642 777.751 750.61 777.726 750.578C777.047 749.738 776.363 748.905 775.685 748.065L775.684 748.064C775.642 745.487 775.951 742.917 776.564 740.424Z" fill="#F2F2F2"/>
<path d="M321.243 238.811V400.388C321.243 400.922 321.138 401.451 320.934 401.944C320.73 402.438 320.43 402.886 320.053 403.264C319.675 403.642 319.227 403.941 318.734 404.146C318.241 404.35 317.712 404.456 317.178 404.456H42.8887C42.6935 404.457 42.4984 404.442 42.3057 404.41C41.3382 404.271 40.4533 403.788 39.8132 403.049C39.1731 402.31 38.8208 401.365 38.8208 400.388V238.811C38.8204 237.733 39.2485 236.698 40.0109 235.935C40.7733 235.173 41.8075 234.744 42.886 234.743H317.175C317.709 234.743 318.238 234.848 318.731 235.052C319.225 235.257 319.673 235.556 320.051 235.934C320.429 236.311 320.728 236.759 320.933 237.253C321.137 237.746 321.243 238.275 321.243 238.809V238.811Z" fill="#F2F2F2"/>
<path d="M107.961 330.814C127.671 330.814 143.649 314.836 143.649 295.126C143.649 275.415 127.671 259.437 107.961 259.437C88.2506 259.437 72.2725 275.415 72.2725 295.126C72.2725 314.836 88.2506 330.814 107.961 330.814Z" fill="#6C63FF"/>
<path d="M219.875 405.104H44.7993C44.5801 405.107 44.361 405.089 44.145 405.052L126.948 261.625C127.453 260.732 128.187 259.989 129.073 259.472C129.96 258.955 130.968 258.683 131.994 258.683C133.02 258.683 134.028 258.955 134.915 259.472C135.801 259.989 136.535 260.732 137.04 261.625L192.611 357.876L195.273 362.481L219.875 405.104Z" fill="#3F3D56"/>
<path opacity="0.2" d="M219.875 405.103H160.1L189.443 362.481L191.556 359.411L192.611 357.875L195.274 362.481L219.875 405.103Z" fill="black"/>
<path d="M317.356 405.104H165.93L195.274 362.481L197.385 359.411L235.622 303.866C238.129 300.225 244.16 299.999 247.107 303.179C247.305 303.396 247.489 303.625 247.658 303.866L317.356 405.104Z" fill="#3F3D56"/>
</g>
<defs>
<clipPath id="clip0_136_868">
<rect width="1022" height="751" fill="white"/>
</clipPath>
<clipPath id="clip1_136_868">
<rect width="691.927" height="626.302" fill="white" transform="translate(304 -24)"/>
</clipPath>
</defs>
</svg>
