<svg width="1692" height="1124" viewBox="0 0 1692 1124" fill="none" xmlns="http://www.w3.org/2000/svg">
<path d="M870.839 1119.66L34.1581 1120C33.8506 1120 33.5561 1119.86 33.339 1119.61C33.1219 1119.36 33 1119.02 33 1118.67C33 1118.32 33.1219 1117.98 33.339 1117.73C33.5561 1117.48 33.8506 1117.34 34.1581 1117.34L870.839 1117C871.147 1117 871.442 1117.14 871.66 1117.39C871.878 1117.64 872 1117.98 872 1118.33C872 1118.68 871.878 1119.02 871.66 1119.27C871.442 1119.52 871.147 1119.66 870.839 1119.66Z" fill="#2F2E41"/>
<path d="M1033.12 767.556H833V769.126H1033.12V767.556Z" fill="#3F3D56"/>
<g clip-path="url(#clip0_384_525)">
<path d="M937.685 558.423H91.501C85.7247 558.417 80.1869 556.181 76.1024 552.206C72.0179 548.231 69.7204 542.841 69.7139 537.22V29.4204C69.7186 25.3019 71.4017 21.3535 74.394 18.4412C77.3863 15.529 81.4433 13.8908 85.6751 13.886H943.235C947.54 13.8908 951.667 15.5573 954.712 18.5199C957.756 21.4825 959.468 25.4993 959.473 29.689V537.22C959.466 542.841 957.169 548.231 953.084 552.206C949 556.181 943.462 558.417 937.685 558.423Z" fill="#F2F2F2"/>
<path d="M910.326 531.652H121.705C110.144 531.652 100.739 523.081 100.739 512.546V70.3476C100.739 62.5342 107.709 56.1773 116.275 56.1773H915.498C924.207 56.1773 931.292 62.639 931.292 70.581V512.546C931.292 523.081 921.886 531.652 910.326 531.652Z" fill="white"/>
<path d="M959.169 32.0627H69.4077V21.2676C69.4161 15.6273 71.723 10.2206 75.8223 6.23351C79.9216 2.24645 85.4786 0.00467684 91.2741 0H937.302C943.098 0.00462927 948.655 2.24638 952.754 6.23345C956.854 10.2205 959.16 15.6273 959.169 21.2676V32.0627Z" fill="#3F3D56"/>
<path d="M109.147 21.5678C112.27 21.5678 114.803 19.1034 114.803 16.0633C114.803 13.0233 112.27 10.5588 109.147 10.5588C106.023 10.5588 103.491 13.0233 103.491 16.0633C103.491 19.1034 106.023 21.5678 109.147 21.5678Z" fill="white"/>
<path d="M130.615 21.5678C133.739 21.5678 136.271 19.1034 136.271 16.0633C136.271 13.0233 133.739 10.5588 130.615 10.5588C127.492 10.5588 124.959 13.0233 124.959 16.0633C124.959 19.1034 127.492 21.5678 130.615 21.5678Z" fill="white"/>
<path d="M152.084 21.5678C155.208 21.5678 157.74 19.1034 157.74 16.0633C157.74 13.0233 155.208 10.5588 152.084 10.5588C148.96 10.5588 146.428 13.0233 146.428 16.0633C146.428 19.1034 148.96 21.5678 152.084 21.5678Z" fill="white"/>
<path d="M497.306 152.864H343.069C340.769 152.864 338.564 151.976 336.938 150.393C335.312 148.811 334.398 146.664 334.398 144.427C334.398 142.189 335.312 140.042 336.938 138.46C338.564 136.878 340.769 135.989 343.069 135.989H497.306C499.605 135.989 501.811 136.878 503.437 138.46C505.063 140.042 505.976 142.189 505.976 144.427C505.976 146.664 505.063 148.811 503.437 150.393C501.811 151.976 499.605 152.864 497.306 152.864Z" fill="#CCCCCC"/>
<path d="M688.962 152.864H534.724C532.425 152.864 530.22 151.976 528.594 150.393C526.968 148.811 526.054 146.664 526.054 144.427C526.054 142.189 526.968 140.042 528.594 138.46C530.22 136.878 532.425 135.989 534.724 135.989H688.962C691.261 135.989 693.466 136.878 695.092 138.46C696.718 140.042 697.632 142.189 697.632 144.427C697.632 146.664 696.718 148.811 695.092 150.393C693.466 151.976 691.261 152.864 688.962 152.864Z" fill="#CCCCCC"/>
<path d="M688.962 184.84H420.644C418.344 184.84 416.139 183.951 414.513 182.368C412.887 180.786 411.974 178.64 411.974 176.402C411.974 174.164 412.887 172.018 414.513 170.435C416.139 168.853 418.344 167.964 420.644 167.964H688.962C691.261 167.964 693.467 168.853 695.093 170.435C696.719 172.018 697.632 174.164 697.632 176.402C697.632 178.64 696.719 180.786 695.093 182.368C693.467 183.951 691.261 184.84 688.962 184.84Z" fill="#CCCCCC"/>
<path d="M497.306 120.445H343.069C340.771 120.442 338.569 119.552 336.945 117.97C335.321 116.388 334.409 114.243 334.409 112.007C334.409 109.771 335.321 107.626 336.945 106.044C338.569 104.462 340.771 103.572 343.069 103.569H497.306C498.445 103.568 499.574 103.785 500.627 104.209C501.68 104.632 502.637 105.253 503.444 106.037C504.25 106.821 504.889 107.751 505.326 108.776C505.762 109.8 505.987 110.898 505.987 112.007C505.987 113.116 505.762 114.214 505.326 115.239C504.889 116.263 504.25 117.194 503.444 117.977C502.637 118.761 501.68 119.382 500.627 119.806C499.574 120.229 498.445 120.446 497.306 120.445Z" fill="#CCCCCC"/>
<path d="M582.182 120.889H538.375C536.076 120.889 533.87 120 532.244 118.418C530.619 116.835 529.705 114.689 529.705 112.451C529.705 110.213 530.619 108.067 532.244 106.485C533.87 104.902 536.076 104.013 538.375 104.013H582.182C584.482 104.013 586.687 104.902 588.313 106.485C589.939 108.067 590.852 110.213 590.852 112.451C590.852 114.689 589.939 116.835 588.313 118.418C586.687 120 584.482 120.889 582.182 120.889Z" fill="#CCCCCC"/>
<path d="M386.876 184.84H343.069C340.771 184.837 338.569 183.947 336.945 182.365C335.321 180.783 334.409 178.638 334.409 176.402C334.409 174.166 335.321 172.021 336.945 170.439C338.569 168.857 340.771 167.967 343.069 167.964H386.876C388.015 167.963 389.144 168.18 390.197 168.603C391.25 169.027 392.207 169.648 393.013 170.432C393.82 171.215 394.459 172.146 394.896 173.17C395.332 174.195 395.557 175.293 395.557 176.402C395.557 177.511 395.332 178.609 394.896 179.633C394.459 180.658 393.82 181.588 393.013 182.372C392.207 183.156 391.25 183.777 390.197 184.201C389.144 184.624 388.015 184.841 386.876 184.84Z" fill="#CCCCCC"/>
<path d="M497.306 452.285H343.069C340.769 452.285 338.564 451.396 336.938 449.814C335.312 448.231 334.398 446.085 334.398 443.847C334.398 441.609 335.312 439.463 336.938 437.881C338.564 436.298 340.769 435.409 343.069 435.409H497.306C498.444 435.409 499.572 435.628 500.624 436.052C501.676 436.476 502.632 437.097 503.437 437.881C504.242 438.664 504.88 439.595 505.316 440.618C505.752 441.642 505.976 442.739 505.976 443.847C505.976 444.955 505.752 446.053 505.316 447.076C504.88 448.1 504.242 449.03 503.437 449.814C502.632 450.597 501.676 451.219 500.624 451.643C499.572 452.067 498.444 452.285 497.306 452.285Z" fill="#CCCCCC"/>
<path d="M688.962 452.285H534.724C532.425 452.285 530.22 451.396 528.594 449.814C526.968 448.231 526.054 446.085 526.054 443.847C526.054 441.609 526.968 439.463 528.594 437.881C530.22 436.298 532.425 435.409 534.724 435.409H688.962C690.1 435.409 691.228 435.628 692.28 436.052C693.332 436.476 694.287 437.097 695.092 437.881C695.897 438.664 696.536 439.595 696.972 440.618C697.408 441.642 697.632 442.739 697.632 443.847C697.632 444.955 697.408 446.053 696.972 447.076C696.536 448.1 695.897 449.03 695.092 449.814C694.287 450.597 693.332 451.219 692.28 451.643C691.228 452.067 690.1 452.285 688.962 452.285Z" fill="#CCCCCC"/>
<path d="M688.962 484.261H420.644C418.344 484.261 416.139 483.372 414.513 481.789C412.887 480.207 411.974 478.061 411.974 475.823C411.974 473.585 412.887 471.439 414.513 469.856C416.139 468.274 418.344 467.385 420.644 467.385H688.962C690.101 467.383 691.23 467.601 692.283 468.024C693.336 468.448 694.293 469.069 695.1 469.852C695.906 470.636 696.545 471.567 696.982 472.591C697.418 473.616 697.643 474.714 697.643 475.823C697.643 476.932 697.418 478.03 696.982 479.054C696.545 480.079 695.906 481.009 695.1 481.793C694.293 482.577 693.336 483.198 692.283 483.621C691.23 484.045 690.101 484.262 688.962 484.261Z" fill="#CCCCCC"/>
<path d="M497.306 419.866H343.069C340.769 419.866 338.564 418.977 336.938 417.394C335.312 415.812 334.398 413.666 334.398 411.428C334.398 409.19 335.312 407.044 336.938 405.461C338.564 403.879 340.769 402.99 343.069 402.99H497.306C499.605 402.99 501.811 403.879 503.437 405.461C505.063 407.044 505.976 409.19 505.976 411.428C505.976 413.666 505.063 415.812 503.437 417.394C501.811 418.977 499.605 419.866 497.306 419.866Z" fill="#CCCCCC"/>
<path d="M582.182 420.31H538.375C536.076 420.31 533.87 419.421 532.244 417.839C530.619 416.256 529.705 414.11 529.705 411.872C529.705 409.634 530.619 407.488 532.244 405.906C533.87 404.323 536.076 403.434 538.375 403.434H582.182C584.482 403.434 586.687 404.323 588.313 405.906C589.939 407.488 590.852 409.634 590.852 411.872C590.852 414.11 589.939 416.256 588.313 417.839C586.687 419.421 584.482 420.31 582.182 420.31Z" fill="#CCCCCC"/>
<path d="M386.876 484.261H343.069C340.769 484.261 338.564 483.372 336.938 481.789C335.312 480.207 334.398 478.061 334.398 475.823C334.398 473.585 335.312 471.439 336.938 469.856C338.564 468.274 340.769 467.385 343.069 467.385H386.876C388.015 467.383 389.144 467.601 390.197 468.024C391.25 468.448 392.207 469.069 393.013 469.852C393.819 470.636 394.459 471.567 394.895 472.591C395.332 473.616 395.556 474.714 395.556 475.823C395.556 476.932 395.332 478.03 394.895 479.054C394.459 480.079 393.819 481.009 393.013 481.793C392.207 482.577 391.25 483.198 390.197 483.621C389.144 484.045 388.015 484.262 386.876 484.261Z" fill="#CCCCCC"/>
<path d="M457.024 361.697C453.751 361.705 450.607 360.453 448.278 358.215L390.3 302.495C389.161 301.401 388.258 300.098 387.641 298.662C387.024 297.225 386.707 295.684 386.707 294.127C386.707 292.57 387.024 291.029 387.641 289.592C388.258 288.156 389.161 286.853 390.3 285.759L448.044 230.264C450.45 227.964 453.69 226.679 457.063 226.689C460.436 226.7 463.669 228.004 466.059 230.32C468.452 232.654 469.796 235.816 469.796 239.114C469.796 242.411 468.452 245.574 466.059 247.908L423.151 289.668C421.814 290.972 421.063 292.739 421.063 294.581C421.063 296.424 421.814 298.19 423.151 299.495L465.827 341.028C467.569 342.721 468.757 344.879 469.238 347.229C469.719 349.579 469.473 352.015 468.53 354.229C467.587 356.442 465.991 358.334 463.942 359.663C461.894 360.993 459.486 361.701 457.024 361.697Z" fill="#6C63FF"/>
<path d="M549.409 361.697C546.947 361.701 544.539 360.993 542.491 359.663C540.443 358.334 538.846 356.442 537.903 354.229C536.96 352.015 536.714 349.579 537.195 347.229C537.677 344.879 538.864 342.721 540.607 341.028L583.283 299.495C584.619 298.191 585.37 296.424 585.37 294.581C585.37 292.739 584.619 290.972 583.283 289.668L540.374 247.908C539.187 246.753 538.246 245.382 537.604 243.873C536.961 242.364 536.631 240.747 536.631 239.114C536.631 237.48 536.961 235.863 537.604 234.354C538.246 232.845 539.187 231.474 540.374 230.32C542.765 228.004 545.997 226.7 549.37 226.689C552.743 226.679 555.984 227.964 558.389 230.264L616.134 285.759C617.272 286.853 618.175 288.156 618.792 289.592C619.409 291.029 619.727 292.57 619.727 294.127C619.727 295.684 619.409 297.225 618.792 298.662C618.175 300.098 617.272 301.401 616.134 302.495L558.155 358.215C555.826 360.453 552.682 361.704 549.409 361.697Z" fill="#6C63FF"/>
</g>
<g clip-path="url(#clip1_384_525)">
<path d="M1535.5 563.519H1186.11C1177.69 563.51 1169.61 560.196 1163.66 554.304C1157.71 548.413 1154.36 540.425 1154.35 532.093V403.655C1154.36 395.323 1157.71 387.335 1163.66 381.444C1169.61 375.552 1177.69 372.238 1186.11 372.229H1535.5C1543.92 372.238 1551.99 375.552 1557.95 381.444C1563.9 387.335 1567.25 395.323 1567.26 403.655V532.093C1567.25 540.425 1563.9 548.413 1557.95 554.304C1551.99 560.196 1543.92 563.51 1535.5 563.519Z" fill="white"/>
<path d="M1297.94 640.828H1029.79C1021.36 640.819 1013.28 637.513 1007.32 631.637C1001.36 625.761 998.009 617.794 998 609.483V563.147C998.01 554.837 1001.36 546.87 1007.32 540.994C1013.28 535.117 1021.36 531.812 1029.79 531.802H1297.94C1306.37 531.812 1314.45 535.117 1320.41 540.994C1326.37 546.87 1329.73 554.837 1329.74 563.147V609.483C1329.73 617.794 1326.37 625.761 1320.41 631.637C1314.45 637.513 1306.37 640.819 1297.94 640.828Z" fill="white"/>
<path d="M1185.65 614.067H1142.08C1139.75 614.065 1137.52 613.168 1135.88 611.573C1134.23 609.978 1133.3 607.815 1133.3 605.559V566.081C1133.3 563.825 1134.23 561.662 1135.88 560.067C1137.52 558.472 1139.75 557.575 1142.08 557.572H1185.65C1187.98 557.575 1190.21 558.472 1191.86 560.067C1193.51 561.662 1194.43 563.825 1194.44 566.081V605.559C1194.43 607.815 1193.51 609.978 1191.86 611.573C1190.21 613.168 1187.98 614.065 1185.65 614.067Z" fill="#E6E6E6"/>
<path d="M1261.96 614.067H1219.11C1216.82 614.065 1214.62 613.168 1213 611.573C1211.38 609.978 1210.47 607.815 1210.47 605.559V566.081C1210.47 563.825 1211.38 561.662 1213 560.067C1214.62 558.472 1216.82 557.575 1219.11 557.572H1261.96C1264.25 557.575 1266.45 558.472 1268.07 560.067C1269.69 561.662 1270.6 563.825 1270.6 566.081V605.559C1270.6 607.815 1269.69 609.978 1268.07 611.573C1266.45 613.168 1264.25 614.065 1261.96 614.067Z" fill="#E6E6E6"/>
<path d="M1377.34 447.555H1322.22C1320.76 447.555 1319.35 446.981 1318.32 445.959C1317.29 444.936 1316.71 443.55 1316.71 442.104C1316.71 440.658 1317.29 439.272 1318.32 438.249C1319.35 437.227 1320.76 436.653 1322.22 436.653H1377.34C1378.8 436.653 1380.2 437.227 1381.24 438.249C1382.27 439.272 1382.85 440.658 1382.85 442.104C1382.85 443.55 1382.27 444.936 1381.24 445.959C1380.2 446.981 1378.8 447.555 1377.34 447.555Z" fill="#CCCCCC"/>
<path d="M1496.59 478.281H1321.23C1319.76 478.281 1318.36 477.706 1317.32 476.684C1316.29 475.662 1315.7 474.275 1315.7 472.83C1315.7 471.384 1316.29 469.997 1317.32 468.975C1318.36 467.953 1319.76 467.378 1321.23 467.378H1496.59C1498.06 467.378 1499.46 467.953 1500.5 468.975C1501.54 469.997 1502.12 471.384 1502.12 472.83C1502.12 474.275 1501.54 475.662 1500.5 476.684C1499.46 477.706 1498.06 478.281 1496.59 478.281Z" fill="#CCCCCC"/>
<path d="M1256.57 494.139C1277.05 494.139 1293.66 477.72 1293.66 457.467C1293.66 437.213 1277.05 420.794 1256.57 420.794C1236.09 420.794 1219.49 437.213 1219.49 457.467C1219.49 477.72 1236.09 494.139 1256.57 494.139Z" fill="#6C63FF"/>
<path d="M1659.77 800.402H1310.38C1301.96 800.393 1293.89 797.079 1287.94 791.187C1281.98 785.296 1278.63 777.308 1278.62 768.976V640.538C1278.63 632.206 1281.98 624.218 1287.94 618.327C1293.89 612.435 1301.96 609.121 1310.38 609.112H1659.77C1668.2 609.121 1676.27 612.435 1682.22 618.327C1688.18 624.218 1691.53 632.206 1691.54 640.538V768.976C1691.53 777.308 1688.18 785.296 1682.22 791.187C1676.27 797.079 1668.2 800.393 1659.77 800.402Z" fill="white"/>
<path d="M1446.39 659.66H1387.48C1386.75 659.661 1386.01 659.521 1385.33 659.247C1384.65 658.974 1384.02 658.573 1383.5 658.066C1382.98 657.56 1382.56 656.959 1382.28 656.297C1382 655.635 1381.85 654.925 1381.85 654.209C1381.85 653.492 1382 652.782 1382.28 652.121C1382.56 651.459 1382.98 650.857 1383.5 650.351C1384.02 649.845 1384.65 649.443 1385.33 649.17C1386.01 648.896 1386.75 648.756 1387.48 648.757H1446.39C1447.88 648.76 1449.31 649.335 1450.36 650.357C1451.41 651.379 1452.01 652.764 1452.01 654.209C1452.01 655.653 1451.41 657.038 1450.36 658.06C1449.31 659.082 1447.88 659.658 1446.39 659.66Z" fill="#6C63FF"/>
<path d="M1577.69 682.456H1387.45C1385.97 682.456 1384.54 681.882 1383.49 680.86C1382.44 679.837 1381.85 678.451 1381.85 677.005C1381.85 675.559 1382.44 674.173 1383.49 673.15C1384.54 672.128 1385.97 671.554 1387.45 671.554H1577.69C1579.18 671.554 1580.6 672.128 1581.66 673.15C1582.71 674.173 1583.3 675.559 1583.3 677.005C1583.3 678.451 1582.71 679.837 1581.66 680.86C1580.6 681.882 1579.18 682.456 1577.69 682.456Z" fill="#E6E6E6"/>
<path d="M1577.69 709.217H1387.45C1386.72 709.217 1385.99 709.063 1385.31 708.764C1384.63 708.465 1384.01 708.027 1383.49 707.475C1382.97 706.923 1382.56 706.267 1382.28 705.546C1382 704.824 1381.85 704.051 1381.85 703.27C1381.85 702.489 1382 701.716 1382.28 700.994C1382.56 700.273 1382.97 699.617 1383.49 699.065C1384.01 698.513 1384.63 698.075 1385.31 697.776C1385.99 697.477 1386.72 697.323 1387.45 697.323H1577.69C1579.18 697.323 1580.6 697.95 1581.66 699.065C1582.71 700.18 1583.3 701.693 1583.3 703.27C1583.3 704.847 1582.71 706.36 1581.66 707.475C1580.6 708.59 1579.18 709.217 1577.69 709.217Z" fill="#E6E6E6"/>
<path d="M1577.7 734.987H1387.46C1386.73 734.988 1386 734.848 1385.32 734.574C1384.64 734.301 1384.02 733.9 1383.5 733.393C1382.97 732.887 1382.56 732.286 1382.28 731.624C1382 730.962 1381.85 730.252 1381.85 729.536C1381.85 728.819 1382 728.109 1382.28 727.447C1382.56 726.785 1382.97 726.184 1383.5 725.678C1384.02 725.172 1384.64 724.77 1385.32 724.497C1386 724.223 1386.73 724.083 1387.46 724.084H1577.7C1579.19 724.087 1580.61 724.662 1581.66 725.684C1582.71 726.706 1583.3 728.091 1583.3 729.536C1583.3 730.98 1582.71 732.365 1581.66 733.387C1580.61 734.409 1579.19 734.985 1577.7 734.987Z" fill="#E6E6E6"/>
<path d="M1577.69 760.756H1387.45C1385.97 760.756 1384.54 760.182 1383.49 759.16C1382.44 758.137 1381.85 756.751 1381.85 755.305C1381.85 753.859 1382.44 752.473 1383.49 751.45C1384.54 750.428 1385.97 749.854 1387.45 749.854H1577.69C1579.18 749.854 1580.6 750.428 1581.66 751.45C1582.71 752.473 1583.3 753.859 1583.3 755.305C1583.3 756.751 1582.71 758.137 1581.66 759.16C1580.6 760.182 1579.18 760.756 1577.69 760.756Z" fill="#E6E6E6"/>
<path d="M1277.94 845.647L1052.72 924.241L1054.49 928.663L1279.71 850.069L1277.94 845.647Z" fill="#3F3D56"/>
<path d="M1026.21 936.038C1037.24 926.82 1050.06 913.198 1056.61 901.237L1057.2 925.156L1073.41 943.586C1060.13 938.588 1040.96 936.199 1026.21 936.038Z" fill="#3F3D56"/>
</g>
<path d="M878.563 532.631H669.557C637.05 532.631 610.698 558.808 610.698 591.099V1065.53C610.698 1097.82 637.05 1124 669.557 1124H878.563C911.07 1124 937.422 1097.82 937.422 1065.53V591.099C937.422 558.808 911.07 532.631 878.563 532.631Z" fill="#3F3D56"/>
<path d="M931.91 591.103V1065.53C931.894 1079.58 926.268 1093.05 916.267 1102.99C906.266 1112.92 892.706 1118.51 878.562 1118.53H774.061H669.559C655.415 1118.51 641.856 1112.92 631.854 1102.99C621.853 1093.05 616.227 1079.58 616.211 1065.53V591.103C616.227 577.053 621.853 563.583 631.854 553.648C641.856 543.714 655.415 538.125 669.559 538.109H696.89V547.487C696.89 551.733 698.588 555.805 701.61 558.807C704.632 561.809 708.731 563.496 713.005 563.496H835.116C839.39 563.496 843.489 561.809 846.511 558.807C849.533 555.805 851.231 551.733 851.232 547.487V538.109H878.562C892.706 538.125 906.266 543.714 916.267 553.648C926.268 563.583 931.894 577.053 931.91 591.103Z" fill="white"/>
<path d="M609.194 652.597C608.132 652.596 607.113 652.176 606.361 651.429C605.61 650.683 605.187 649.67 605.186 648.615V640.65C605.186 639.594 605.608 638.581 606.36 637.834C607.112 637.087 608.131 636.668 609.194 636.668C610.258 636.668 611.277 637.087 612.029 637.834C612.781 638.581 613.203 639.594 613.203 640.65V648.615C613.202 649.67 612.779 650.683 612.028 651.429C611.276 652.176 610.257 652.596 609.194 652.597Z" fill="#3F3D56"/>
<path d="M609.194 693.437C608.132 693.436 607.113 693.016 606.361 692.269C605.61 691.523 605.187 690.51 605.186 689.455V667.531C605.186 666.474 605.608 665.462 606.36 664.715C607.112 663.968 608.131 663.548 609.194 663.548C610.258 663.548 611.277 663.968 612.029 664.715C612.781 665.462 613.203 666.474 613.203 667.531V689.455C613.202 690.51 612.779 691.523 612.028 692.269C611.276 693.016 610.257 693.436 609.194 693.437Z" fill="#3F3D56"/>
<path d="M609.194 726.269C608.132 726.268 607.113 725.848 606.361 725.102C605.61 724.355 605.187 723.343 605.186 722.287V700.363C605.186 699.307 605.608 698.294 606.36 697.547C607.112 696.8 608.131 696.381 609.194 696.381C610.258 696.381 611.277 696.8 612.029 697.547C612.781 698.294 613.203 699.307 613.203 700.363V722.287C613.202 723.343 612.779 724.355 612.028 725.102C611.276 725.848 610.257 726.268 609.194 726.269Z" fill="#3F3D56"/>
<path d="M937.923 708.349C936.86 708.348 935.841 707.928 935.09 707.181C934.338 706.435 933.915 705.422 933.914 704.367V650.871C933.914 649.815 934.336 648.802 935.088 648.055C935.84 647.308 936.86 646.889 937.923 646.889C938.986 646.889 940.006 647.308 940.758 648.055C941.509 648.802 941.932 649.815 941.932 650.871V704.367C941.931 705.422 941.508 706.435 940.756 707.181C940.005 707.928 938.986 708.348 937.923 708.349Z" fill="#3F3D56"/>
<path d="M782.672 550.895H751.603C750.938 550.895 750.301 550.633 749.831 550.166C749.361 549.699 749.097 549.066 749.097 548.406C749.097 547.746 749.361 547.113 749.831 546.646C750.301 546.179 750.938 545.917 751.603 545.917H782.672C783.336 545.917 783.973 546.179 784.443 546.646C784.913 547.113 785.177 547.746 785.177 548.406C785.177 549.066 784.913 549.699 784.443 550.166C783.973 550.633 783.336 550.895 782.672 550.895Z" fill="white"/>
<path d="M798.707 550.397C799.814 550.397 800.712 549.506 800.712 548.406C800.712 547.307 799.814 546.415 798.707 546.415C797.6 546.415 796.703 547.307 796.703 548.406C796.703 549.506 797.6 550.397 798.707 550.397Z" fill="white"/>
<path d="M684.949 561.575H657.889C656.56 561.575 655.285 561.05 654.345 560.117C653.405 559.183 652.877 557.917 652.877 556.597C652.877 555.277 653.405 554.011 654.345 553.077C655.285 552.144 656.56 551.619 657.889 551.619H684.949C686.278 551.619 687.552 552.144 688.492 553.077C689.432 554.011 689.96 555.277 689.96 556.597C689.96 557.917 689.432 559.183 688.492 560.117C687.552 561.05 686.278 561.575 684.949 561.575Z" fill="#E6E6E6"/>
<path d="M862.342 561.077C864.832 561.077 866.852 559.071 866.852 556.597C866.852 554.123 864.832 552.117 862.342 552.117C859.851 552.117 857.832 554.123 857.832 556.597C857.832 559.071 859.851 561.077 862.342 561.077Z" fill="#E6E6E6"/>
<path d="M876.373 561.077C878.864 561.077 880.883 559.071 880.883 556.597C880.883 554.123 878.864 552.117 876.373 552.117C873.882 552.117 871.863 554.123 871.863 556.597C871.863 559.071 873.882 561.077 876.373 561.077Z" fill="#E6E6E6"/>
<path d="M890.404 561.077C892.894 561.077 894.914 559.071 894.914 556.597C894.914 554.123 892.894 552.117 890.404 552.117C887.913 552.117 885.894 554.123 885.894 556.597C885.894 559.071 887.913 561.077 890.404 561.077Z" fill="#E6E6E6"/>
<path d="M859.188 631.149H689.111C685.817 631.154 682.658 632.456 680.329 634.77C677.999 637.084 676.688 640.222 676.684 643.495V753.316C676.688 756.589 677.999 759.726 680.329 762.04C682.658 764.354 685.817 765.657 689.111 765.661H859.188C862.483 765.658 865.642 764.357 867.972 762.042C870.302 759.728 871.613 756.589 871.616 753.316V643.495C871.613 640.221 870.302 637.083 867.972 634.768C865.642 632.454 862.483 631.152 859.188 631.149Z" fill="#F2F2F2"/>
<path d="M875.615 1008.13H672.506C669.212 1008.13 666.053 1006.83 663.723 1004.51C661.394 1002.2 660.083 999.062 660.08 995.789V968.598C660.083 965.325 661.394 962.187 663.723 959.873C666.053 957.559 669.212 956.257 672.506 956.253H875.615C878.91 956.257 882.068 957.559 884.398 959.873C886.727 962.187 888.038 965.325 888.042 968.598V995.789C888.038 999.062 886.727 1002.2 884.398 1004.51C882.068 1006.83 878.91 1008.13 875.615 1008.13Z" fill="#F2F2F2"/>
<path d="M875.615 868.754H672.506C669.212 868.75 666.053 867.448 663.723 865.134C661.394 862.82 660.083 859.682 660.08 856.409V829.218C660.083 825.945 661.394 822.807 663.723 820.493C666.053 818.179 669.212 816.877 672.506 816.873H875.615C878.91 816.877 882.068 818.179 884.398 820.493C886.727 822.807 888.038 825.945 888.042 829.218V856.409C888.038 859.682 886.727 862.82 884.398 865.134C882.068 867.448 878.91 868.75 875.615 868.754Z" fill="#F2F2F2"/>
<path d="M875.615 938.444H672.506C669.212 938.44 666.053 937.138 663.723 934.824C661.394 932.51 660.083 929.372 660.08 926.099V898.907C660.083 895.635 661.394 892.497 663.723 890.183C666.053 887.869 669.212 886.567 672.506 886.563H875.615C878.91 886.567 882.068 887.869 884.398 890.183C886.727 892.497 888.038 895.635 888.042 898.907V926.099C888.038 929.372 886.727 932.51 884.398 934.824C882.068 937.138 878.91 938.44 875.615 938.444Z" fill="#F2F2F2"/>
<path d="M798.737 977.54H738.892C738.182 977.54 737.501 977.26 736.999 976.761C736.497 976.262 736.215 975.586 736.215 974.88C736.215 974.175 736.497 973.499 736.999 973C737.501 972.501 738.182 972.221 738.892 972.221H798.737C799.447 972.221 800.128 972.501 800.63 973C801.132 973.499 801.414 974.175 801.414 974.88C801.414 975.586 801.132 976.262 800.63 976.761C800.128 977.26 799.447 977.54 798.737 977.54Z" fill="white"/>
<path d="M856.294 992.166H738.223C737.513 992.166 736.832 991.886 736.33 991.387C735.828 990.888 735.546 990.212 735.546 989.507C735.546 988.801 735.828 988.125 736.33 987.626C736.832 987.128 737.513 986.847 738.223 986.847H856.294C857.004 986.847 857.685 987.128 858.187 987.626C858.689 988.125 858.971 988.801 858.971 989.507C858.971 990.212 858.689 990.888 858.187 991.387C857.685 991.886 857.004 992.166 856.294 992.166Z" fill="white"/>
<path d="M707.099 1000.02C717.012 1000.02 725.048 992.041 725.048 982.193C725.048 972.346 717.012 964.363 707.099 964.363C697.186 964.363 689.15 972.346 689.15 982.193C689.15 992.041 697.186 1000.02 707.099 1000.02Z" fill="white"/>
<path d="M1037.97 868.754H834.866C831.572 868.75 828.413 867.448 826.083 865.134C823.754 862.82 822.443 859.682 822.439 856.409V829.218C822.443 825.945 823.754 822.807 826.083 820.493C828.413 818.179 831.572 816.877 834.866 816.873H1037.97C1041.27 816.877 1044.43 818.179 1046.76 820.493C1049.09 822.807 1050.4 825.945 1050.4 829.218V856.409C1050.4 859.682 1049.09 862.82 1046.76 865.134C1044.43 867.448 1041.27 868.75 1037.97 868.754Z" fill="#E6E6E6"/>
<path d="M961.097 838.16H901.252C900.542 838.16 899.861 837.88 899.359 837.381C898.857 836.882 898.575 836.206 898.575 835.5C898.575 834.795 898.857 834.119 899.359 833.62C899.861 833.121 900.542 832.841 901.252 832.841H961.097C961.807 832.841 962.487 833.121 962.99 833.62C963.492 834.119 963.774 834.795 963.774 835.5C963.774 836.206 963.492 836.882 962.99 837.381C962.487 837.88 961.807 838.16 961.097 838.16Z" fill="white"/>
<path d="M1018.65 852.786H900.582C899.872 852.786 899.191 852.506 898.689 852.007C898.187 851.508 897.905 850.832 897.905 850.127C897.905 849.421 898.187 848.745 898.689 848.246C899.191 847.748 899.872 847.467 900.582 847.467H1018.65C1019.36 847.467 1020.04 847.748 1020.55 848.246C1021.05 848.745 1021.33 849.421 1021.33 850.127C1021.33 850.832 1021.05 851.508 1020.55 852.007C1020.04 852.506 1019.36 852.786 1018.65 852.786Z" fill="white"/>
<path d="M869.459 860.644C879.372 860.644 887.408 852.661 887.408 842.814C887.408 832.966 879.372 824.983 869.459 824.983C859.546 824.983 851.51 832.966 851.51 842.814C851.51 852.661 859.546 860.644 869.459 860.644Z" fill="white"/>
<path d="M972.83 938.444H769.722C766.427 938.44 763.268 937.138 760.939 934.824C758.609 932.51 757.299 929.372 757.295 926.099V898.907C757.299 895.635 758.609 892.497 760.939 890.183C763.268 887.869 766.427 886.567 769.722 886.563H972.83C976.125 886.567 979.283 887.869 981.613 890.183C983.943 892.497 985.253 895.635 985.257 898.907V926.099C985.253 929.372 983.943 932.51 981.613 934.824C979.283 937.138 976.125 938.44 972.83 938.444Z" fill="#E6E6E6"/>
<path d="M895.952 907.85H836.108C835.398 907.85 834.717 907.57 834.215 907.071C833.713 906.572 833.431 905.896 833.431 905.19C833.431 904.485 833.713 903.809 834.215 903.31C834.717 902.811 835.398 902.531 836.108 902.531H895.952C896.662 902.531 897.343 902.811 897.845 903.31C898.347 903.809 898.629 904.485 898.629 905.19C898.629 905.896 898.347 906.572 897.845 907.071C897.343 907.57 896.662 907.85 895.952 907.85Z" fill="white"/>
<path d="M953.51 922.476H835.438C834.728 922.476 834.047 922.196 833.545 921.697C833.043 921.199 832.761 920.522 832.761 919.817C832.761 919.112 833.043 918.435 833.545 917.936C834.047 917.438 834.728 917.157 835.438 917.157H953.51C954.22 917.157 954.9 917.438 955.403 917.936C955.905 918.435 956.187 919.112 956.187 919.817C956.187 920.522 955.905 921.199 955.403 921.697C954.9 922.196 954.22 922.476 953.51 922.476Z" fill="white"/>
<path d="M804.314 930.334C814.228 930.334 822.264 922.351 822.264 912.504C822.264 902.656 814.228 894.673 804.314 894.673C794.401 894.673 786.365 902.656 786.365 912.504C786.365 922.351 794.401 930.334 804.314 930.334Z" fill="white"/>
<path d="M774.206 735.727C794.686 735.727 811.288 719.235 811.288 698.891C811.288 678.547 794.686 662.055 774.206 662.055C753.726 662.055 737.124 678.547 737.124 698.891C737.124 719.235 753.726 735.727 774.206 735.727Z" fill="#6C63FF"/>
<path d="M985.064 178.924L1166.22 333.497L1169.24 329.733L988.081 175.159L985.064 178.924Z" fill="#3F3D56"/>
<path d="M1189.74 350.437C1176.19 345.555 1157.91 341.343 1144.19 341.704L1164.82 329.167L1172.89 305.916C1175.11 319.886 1182.55 337.629 1189.74 350.437Z" fill="#3F3D56"/>
<path d="M162.611 591.332L78.25 814.461L82.7753 815.945L167.136 592.816L162.611 591.332Z" fill="#3F3D56"/>
<path d="M70.2739 842.358C70.2879 827.984 68.0745 809.411 63.1101 796.71L81.8289 811.613L106.366 811.02C94.0085 817.991 79.8681 831.154 70.2739 842.358Z" fill="#3F3D56"/>
<path d="M1019.64 759.276H997.669V781.264H1019.64V759.276Z" fill="#E6E6E6"/>
<path d="M1032.98 768.7H1006.3V742H1032.98V768.7ZM1007.46 767.539H1031.82V743.161H1007.46V767.539Z" fill="#3F3D56"/>
<path d="M1032.5 749C1047.14 749 1059 737.136 1059 722.5C1059 707.864 1047.14 696 1032.5 696C1017.86 696 1006 707.864 1006 722.5C1006 737.136 1017.86 749 1032.5 749Z" fill="#6C63FF"/>
<path d="M1028.7 737C1028.22 737 1027.74 736.888 1027.31 736.673C1026.88 736.458 1026.51 736.145 1026.22 735.76L1018.62 725.626C1018.38 725.301 1018.2 724.93 1018.1 724.536C1018 724.142 1017.97 723.731 1018.03 723.329C1018.09 722.926 1018.23 722.538 1018.43 722.188C1018.64 721.838 1018.91 721.532 1019.24 721.288C1019.57 721.044 1019.94 720.866 1020.33 720.765C1020.72 720.664 1021.13 720.642 1021.54 720.699C1021.94 720.757 1022.33 720.893 1022.68 721.1C1023.03 721.308 1023.33 721.582 1023.58 721.908L1028.55 728.537L1041.32 709.381C1041.55 709.042 1041.84 708.751 1042.18 708.524C1042.51 708.298 1042.89 708.14 1043.29 708.06C1043.69 707.98 1044.1 707.98 1044.5 708.059C1044.9 708.138 1045.28 708.295 1045.62 708.52C1045.96 708.746 1046.25 709.037 1046.48 709.375C1046.7 709.713 1046.86 710.093 1046.94 710.492C1047.02 710.891 1047.02 711.302 1046.94 711.701C1046.86 712.1 1046.7 712.48 1046.48 712.819L1031.28 735.62C1031 736.032 1030.63 736.373 1030.2 736.613C1029.77 736.853 1029.28 736.985 1028.79 736.999C1028.76 736.999 1028.73 737 1028.7 737Z" fill="white"/>
<path d="M425.119 782.556H225V784.126H425.119V782.556Z" fill="#3F3D56"/>
<path d="M411.643 774.276H389.669V796.264H411.643V774.276Z" fill="#E6E6E6"/>
<path d="M424.984 783.7H398.302V757H424.984V783.7ZM399.462 782.539H423.824V758.161H399.462V782.539Z" fill="#3F3D56"/>
<path d="M424.5 764C439.136 764 451 752.136 451 737.5C451 722.864 439.136 711 424.5 711C409.864 711 398 722.864 398 737.5C398 752.136 409.864 764 424.5 764Z" fill="#6C63FF"/>
<path d="M420.699 752C420.218 752 419.744 751.888 419.313 751.673C418.883 751.458 418.509 751.145 418.22 750.76L410.62 740.626C410.376 740.301 410.198 739.93 410.097 739.536C409.996 739.142 409.974 738.731 410.031 738.329C410.089 737.926 410.225 737.538 410.432 737.188C410.64 736.838 410.914 736.532 411.24 736.288C411.565 736.044 411.936 735.866 412.33 735.765C412.724 735.664 413.134 735.642 413.537 735.699C413.94 735.757 414.328 735.893 414.678 736.1C415.028 736.308 415.334 736.582 415.578 736.908L420.551 743.537L433.322 724.381C433.548 724.042 433.838 723.751 434.176 723.524C434.514 723.298 434.894 723.14 435.293 723.06C435.692 722.98 436.103 722.98 436.502 723.059C436.901 723.138 437.281 723.295 437.62 723.52C437.959 723.746 438.25 724.037 438.476 724.375C438.703 724.713 438.86 725.093 438.94 725.492C439.02 725.891 439.02 726.302 438.941 726.701C438.862 727.1 438.705 727.48 438.479 727.819L423.278 750.62C423.003 751.032 422.633 751.373 422.199 751.613C421.766 751.853 421.281 751.985 420.785 751.999C420.757 751.999 420.728 752 420.699 752Z" fill="white"/>
<path d="M73.5651 1103.28C73.3962 1103.67 73.2063 1104.05 72.9963 1104.42C71.8937 1106.38 70.3358 1108.08 68.4441 1109.37C66.2042 1110.89 63.5744 1111.79 60.8415 1111.97C58.1087 1112.15 55.3778 1111.59 52.9467 1110.37C50.5157 1109.15 48.4779 1107.31 47.0556 1105.05C45.6334 1102.79 44.8813 1100.19 44.8813 1097.54V1095.21H46.9297C54.8881 1100.18 64.0943 1102.97 73.5651 1103.28Z" fill="#6C63FF"/>
<path d="M101.55 1095.91V1097.56C101.551 1100.77 100.471 1103.88 98.4815 1106.42C96.4917 1108.95 93.7052 1110.76 90.5621 1111.55C87.419 1112.35 84.0986 1112.08 81.1254 1110.8C78.1522 1109.51 75.6957 1107.29 74.1441 1104.47C73.9303 1104.09 73.7371 1103.7 73.5654 1103.31C73.9922 1103.32 74.4129 1103.32 74.84 1103.32C84.2637 1103.33 93.5071 1100.77 101.55 1095.91Z" fill="#6C63FF"/>
<path d="M121.734 918.345C121.306 918.28 120.873 918.239 120.439 918.209C125.365 929.978 125.706 943.265 121.392 955.289C121.825 955.235 122.253 955.164 122.68 955.082C126.857 954.243 130.611 951.894 133.274 948.454C135.937 945.015 137.337 940.707 137.223 936.298C137.109 931.888 135.49 927.664 132.654 924.377C129.817 921.089 125.948 918.952 121.734 918.345Z" fill="#6C63FF"/>
<path d="M29.4901 918.209C29.0385 918.239 28.5871 918.28 28.1415 918.345C23.7519 918.952 19.721 921.089 16.7663 924.377C13.8117 927.664 12.1251 931.888 12.0067 936.298C11.8883 940.707 13.3459 945.015 16.1199 948.454C18.894 951.894 22.8044 954.243 27.1552 955.082C27.6008 955.164 28.0464 955.235 28.4977 955.289C24.004 943.265 24.3596 929.978 29.4901 918.209Z" fill="#6C63FF"/>
<path d="M121.428 917.862C116.603 906.254 107.664 896.868 96.35 891.526C85.0356 886.183 72.153 885.266 60.205 888.954C48.2569 892.641 38.0965 900.668 31.6976 911.477C25.2987 922.285 23.1182 935.103 25.5798 947.44C28.0414 959.776 34.9692 970.751 45.0174 978.232C55.0656 985.714 67.5167 989.167 79.9519 987.921C92.387 986.675 103.918 980.819 112.305 971.491C120.693 962.162 125.337 950.028 125.336 937.445C125.333 930.721 124.005 924.065 121.428 917.862ZM121.077 954.715C116.792 966.314 108.351 975.877 97.4151 981.523C86.4792 987.169 73.8406 988.488 61.9869 985.222C50.1333 981.956 39.9231 974.34 33.3659 963.874C26.8088 953.407 24.3796 940.849 26.5566 928.67C28.7335 916.491 35.359 905.573 45.1288 898.066C54.8986 890.559 67.1052 887.006 79.3461 888.106C91.5869 889.207 102.975 894.881 111.27 904.012C119.564 913.143 124.164 925.07 124.164 937.445C124.162 943.341 123.117 949.189 121.077 954.715Z" fill="#6C63FF"/>
<path d="M100.992 925.905H48.9368C46.1913 925.905 43.5583 927.011 41.6169 928.979C39.6756 930.947 38.585 933.616 38.585 936.399C38.585 939.182 39.6756 941.852 41.6169 943.82C43.5583 945.788 46.1913 946.893 48.9368 946.893H100.992C103.737 946.893 106.37 945.788 108.312 943.82C110.253 941.852 111.344 939.182 111.344 936.399C111.344 933.616 110.253 930.947 108.312 928.979C106.37 927.011 103.737 925.905 100.992 925.905Z" fill="#6C63FF"/>
<path d="M121.474 1025.89C121.284 1025.54 121.089 1025.2 120.889 1024.87C120.883 1024.86 120.877 1024.85 120.871 1024.84C116.221 1016.93 109.581 1010.36 101.602 1005.77C93.6242 1001.18 84.582 998.735 75.3633 998.666C66.1446 998.597 57.0662 1000.91 49.0192 1005.38C40.9723 1009.85 34.2332 1016.32 29.4635 1024.16C24.6938 1031.99 22.0575 1040.93 21.8131 1050.08C21.5688 1059.24 23.7248 1068.3 28.0698 1076.38C32.4147 1084.45 38.7991 1091.27 46.5964 1096.16C54.3937 1101.04 63.3359 1103.83 72.5453 1104.25C73.1066 1104.27 73.674 1104.29 74.2413 1104.29C74.478 1104.3 74.7082 1104.3 74.9448 1104.3C84.4459 1104.32 93.7746 1101.78 101.947 1096.97C110.824 1091.75 117.995 1084.1 122.597 1074.93C122.602 1074.91 122.608 1074.91 122.614 1074.9C122.792 1074.54 122.963 1074.19 123.135 1073.82C126.689 1066.27 128.392 1057.99 128.103 1049.66C127.814 1041.33 125.542 1033.18 121.474 1025.89ZM121.982 1073.5C121.811 1073.86 121.633 1074.22 121.45 1074.57C117.054 1083.26 110.298 1090.54 101.947 1095.6C93.8166 1100.54 84.4719 1103.14 74.9448 1103.13C74.5131 1103.13 74.0878 1103.12 73.6564 1103.11C73.4731 1103.11 73.2899 1103.11 73.1066 1103.09C64.0831 1102.78 55.2971 1100.14 47.6132 1095.43C39.9293 1090.72 33.6123 1084.1 29.2836 1076.23C24.9549 1068.36 22.7637 1059.5 22.9257 1050.54C23.0877 1041.57 25.5973 1032.8 30.2075 1025.08C34.8177 1017.37 41.3696 1010.98 49.2187 1006.55C57.0677 1002.12 65.9435 999.791 74.9725 999.8C84.0015 999.808 92.8728 1002.15 100.713 1006.6C108.554 1011.05 115.094 1017.45 119.689 1025.17C119.695 1025.18 119.701 1025.19 119.707 1025.2C119.913 1025.53 120.114 1025.87 120.304 1026.21C124.36 1033.39 126.628 1041.43 126.92 1049.65C127.212 1057.88 125.519 1066.06 121.982 1073.5Z" fill="#6C63FF"/>
<path d="M115.116 1027.12C114.094 1026.36 112.871 1025.95 111.617 1025.95H88.6836C87.086 1025.95 85.554 1026.61 84.4243 1027.79C83.2947 1028.97 82.6602 1030.58 82.6602 1032.25C82.6602 1033.91 83.2947 1035.52 84.4243 1036.7C85.554 1037.88 87.086 1038.54 88.6836 1038.54H111.617C112.026 1038.54 112.435 1038.5 112.836 1038.41C113.235 1038.32 113.625 1038.19 114.002 1038.03C114.982 1037.59 115.833 1036.88 116.466 1035.98C117.099 1035.09 117.493 1034.03 117.606 1032.92C117.72 1031.81 117.549 1030.69 117.111 1029.67C116.673 1028.65 115.985 1027.77 115.116 1027.12Z" fill="#6C63FF"/>
<path d="M90.3555 1035.04C91.9011 1035.04 93.154 1033.63 93.154 1031.9C93.154 1030.16 91.9011 1028.75 90.3555 1028.75C88.81 1028.75 87.5571 1030.16 87.5571 1031.9C87.5571 1033.63 88.81 1035.04 90.3555 1035.04Z" fill="#F1F1F1"/>
<path d="M100.5 1035.04C102.238 1035.04 103.648 1033.63 103.648 1031.9C103.648 1030.16 102.238 1028.75 100.5 1028.75C98.7611 1028.75 97.3516 1030.16 97.3516 1031.9C97.3516 1033.63 98.7611 1035.04 100.5 1035.04Z" fill="#F1F1F1"/>
<path d="M110.295 1035.04C112.033 1035.04 113.443 1033.63 113.443 1031.9C113.443 1030.16 112.033 1028.75 110.295 1028.75C108.556 1028.75 107.146 1030.16 107.146 1031.9C107.146 1033.63 108.556 1035.04 110.295 1035.04Z" fill="#6C63FF"/>
<path d="M226.712 930.787C218.669 935.611 204.338 941.655 189.694 935.444L180.227 931.428L199.197 910.163C184.059 893.472 175.685 871.739 175.708 849.206C175.731 826.673 184.15 804.957 199.322 788.297C214.494 771.637 235.33 761.228 257.763 759.104C280.195 756.979 302.615 763.29 320.645 776.804C338.676 790.319 351.023 810.068 355.276 832.196C359.53 854.324 355.385 877.243 343.65 896.48C331.915 915.716 313.433 929.89 291.811 936.233C270.189 942.576 246.979 940.635 226.712 930.787Z" fill="white"/>
<path d="M226.896 931.578C219.193 936.098 204.52 942.345 189.561 936.002L178.832 931.453L198.073 909.893C186.101 896.433 178.382 879.732 175.887 861.895C173.392 844.058 176.234 825.881 184.053 809.655C191.873 793.429 204.321 779.878 219.83 770.709C235.339 761.541 253.216 757.165 271.209 758.132C289.201 759.099 306.505 765.366 320.941 776.144C335.377 786.922 346.3 801.729 352.334 818.7C358.367 835.671 359.242 854.047 354.848 871.514C350.454 888.981 340.988 904.758 327.641 916.858C314.237 929.083 297.479 937.018 279.524 939.641C261.569 942.265 243.24 939.456 226.896 931.578ZM332.441 789.304C324.565 780.62 315.055 773.571 304.453 768.561C293.851 763.551 282.366 760.677 270.654 760.105C258.941 759.532 247.23 761.271 236.19 765.223C225.15 769.175 214.997 775.262 206.311 783.137C197.624 791.011 190.575 800.519 185.565 811.117C180.556 821.716 177.684 833.197 177.114 844.904C176.544 856.612 178.287 868.318 182.243 879.352C186.2 890.386 192.292 900.534 200.172 909.214L200.781 909.885L182.208 930.696L190.348 934.148C204.796 940.274 219.092 933.91 226.329 929.572L226.796 929.291L227.287 929.53C245.941 938.59 267.168 940.876 287.324 935.996C307.481 931.116 325.309 919.374 337.748 902.786C350.187 886.199 356.46 865.8 355.492 845.092C354.524 824.385 346.373 804.66 332.441 789.304Z" fill="#6C63FF"/>
<path opacity="0.1" d="M342.29 848.599C342.288 827.881 334.524 807.914 320.525 792.63C306.527 777.346 287.309 767.854 266.656 766.022C269.073 765.81 271.518 765.696 273.989 765.696C295.984 765.709 317.074 774.449 332.623 789.995C348.171 805.541 356.905 826.62 356.905 848.599C356.905 870.577 348.171 891.657 332.623 907.203C317.074 922.748 295.984 931.489 273.989 931.502C271.521 931.502 269.081 931.386 266.668 931.175C287.318 929.34 306.533 919.847 320.529 904.564C334.525 889.28 342.288 869.315 342.29 848.599Z" fill="black"/>
<path d="M277.85 832.158H218.383V837.755H277.85V832.158Z" fill="#6C63FF"/>
<path d="M322.624 851.047H218.383V857.344H322.624V851.047Z" fill="#6C63FF"/>
<path d="M322.624 869.937H218.383V876.233H322.624V869.937Z" fill="#6C63FF"/>
<defs>
<clipPath id="clip0_384_525">
<rect width="889.972" height="561.502" fill="white" transform="translate(70)"/>
</clipPath>
<clipPath id="clip1_384_525">
<rect width="693.537" height="658.073" fill="white" transform="translate(998 350)"/>
</clipPath>
</defs>
</svg>
