<svg width="1692" height="1124" viewBox="0 0 1692 1124" fill="none" xmlns="http://www.w3.org/2000/svg">
<path d="M870.839 1119.66L34.1581 1120C33.8506 1120 33.5561 1119.86 33.339 1119.61C33.1219 1119.36 33 1119.02 33 1118.67C33 1118.32 33.1219 1117.98 33.339 1117.73C33.5561 1117.48 33.8506 1117.34 34.1581 1117.34L870.839 1117C871.147 1117 871.442 1117.14 871.66 1117.39C871.878 1117.64 872 1117.98 872 1118.33C872 1118.68 871.878 1119.02 871.66 1119.27C871.442 1119.52 871.147 1119.66 870.839 1119.66Z" fill="#2F2E41"/>
<path d="M1033.12 767.556H833V769.126H1033.12V767.556Z" fill="#3F3D56"/>
<g clip-path="url(#clip0_384_525)">
<path d="M937.685 558.423H91.501C85.7247 558.417 80.1869 556.181 76.1024 552.206C72.0179 548.231 69.7204 542.841 69.7139 537.22V29.4204C69.7186 25.3019 71.4017 21.3534 74.394 18.4412C77.3863 15.5289 81.4433 13.8907 85.6751 13.886H943.235C947.54 13.8907 951.667 15.5572 954.712 18.5198C957.756 21.4825 959.468 25.4992 959.473 29.6889V537.22C959.466 542.841 957.169 548.231 953.084 552.206C949 556.181 943.462 558.417 937.685 558.423Z" fill="#F2F2F2"/>
<path d="M910.326 531.652H121.705C110.144 531.652 100.739 523.081 100.739 512.546V70.3476C100.739 62.5342 107.709 56.1773 116.275 56.1773H915.498C924.207 56.1773 931.292 62.639 931.292 70.581V512.546C931.292 523.081 921.886 531.652 910.326 531.652Z" fill="white"/>
<path d="M959.169 32.0627H69.4077V21.2676C69.4161 15.6273 71.723 10.2206 75.8223 6.23351C79.9216 2.24645 85.4786 0.00467684 91.2741 0H937.302C943.098 0.00462927 948.655 2.24638 952.754 6.23345C956.854 10.2205 959.16 15.6273 959.169 21.2676V32.0627Z" fill="#3F3D56"/>
<path d="M109.147 21.5678C112.27 21.5678 114.803 19.1034 114.803 16.0633C114.803 13.0233 112.27 10.5588 109.147 10.5588C106.023 10.5588 103.491 13.0233 103.491 16.0633C103.491 19.1034 106.023 21.5678 109.147 21.5678Z" fill="white"/>
<path d="M130.615 21.5678C133.739 21.5678 136.271 19.1034 136.271 16.0633C136.271 13.0233 133.739 10.5588 130.615 10.5588C127.492 10.5588 124.959 13.0233 124.959 16.0633C124.959 19.1034 127.492 21.5678 130.615 21.5678Z" fill="white"/>
<path d="M152.084 21.5678C155.208 21.5678 157.74 19.1034 157.74 16.0633C157.74 13.0233 155.208 10.5588 152.084 10.5588C148.96 10.5588 146.428 13.0233 146.428 16.0633C146.428 19.1034 148.96 21.5678 152.084 21.5678Z" fill="white"/>
<path d="M497.306 152.864H343.069C340.769 152.864 338.564 151.976 336.938 150.393C335.312 148.811 334.398 146.664 334.398 144.427C334.398 142.189 335.312 140.042 336.938 138.46C338.564 136.878 340.769 135.989 343.069 135.989H497.306C499.605 135.989 501.811 136.878 503.437 138.46C505.063 140.042 505.976 142.189 505.976 144.427C505.976 146.664 505.063 148.811 503.437 150.393C501.811 151.976 499.605 152.864 497.306 152.864Z" fill="#CCCCCC"/>
<path d="M688.962 152.864H534.724C532.425 152.864 530.22 151.976 528.594 150.393C526.968 148.811 526.054 146.664 526.054 144.427C526.054 142.189 526.968 140.042 528.594 138.46C530.22 136.878 532.425 135.989 534.724 135.989H688.962C691.261 135.989 693.466 136.878 695.092 138.46C696.718 140.042 697.632 142.189 697.632 144.427C697.632 146.664 696.718 148.811 695.092 150.393C693.466 151.976 691.261 152.864 688.962 152.864Z" fill="#CCCCCC"/>
<path d="M688.962 184.84H420.644C418.344 184.84 416.139 183.951 414.513 182.368C412.887 180.786 411.974 178.64 411.974 176.402C411.974 174.164 412.887 172.018 414.513 170.435C416.139 168.853 418.344 167.964 420.644 167.964H688.962C691.261 167.964 693.467 168.853 695.093 170.435C696.719 172.018 697.632 174.164 697.632 176.402C697.632 178.64 696.719 180.786 695.093 182.368C693.467 183.951 691.261 184.84 688.962 184.84Z" fill="#CCCCCC"/>
<path d="M497.306 120.445H343.069C340.771 120.442 338.569 119.552 336.945 117.97C335.321 116.388 334.409 114.243 334.409 112.007C334.409 109.771 335.321 107.626 336.945 106.044C338.569 104.462 340.771 103.572 343.069 103.569H497.306C498.445 103.568 499.574 103.785 500.627 104.209C501.68 104.632 502.637 105.253 503.444 106.037C504.25 106.821 504.889 107.751 505.326 108.776C505.762 109.8 505.987 110.898 505.987 112.007C505.987 113.116 505.762 114.214 505.326 115.239C504.889 116.263 504.25 117.194 503.444 117.977C502.637 118.761 501.68 119.382 500.627 119.806C499.574 120.229 498.445 120.446 497.306 120.445Z" fill="#CCCCCC"/>
<path d="M582.182 120.889H538.375C536.076 120.889 533.87 120 532.244 118.418C530.619 116.835 529.705 114.689 529.705 112.451C529.705 110.213 530.619 108.067 532.244 106.485C533.87 104.902 536.076 104.013 538.375 104.013H582.182C584.482 104.013 586.687 104.902 588.313 106.485C589.939 108.067 590.852 110.213 590.852 112.451C590.852 114.689 589.939 116.835 588.313 118.418C586.687 120 584.482 120.889 582.182 120.889Z" fill="#CCCCCC"/>
<path d="M386.876 184.84H343.069C340.771 184.837 338.569 183.947 336.945 182.365C335.321 180.783 334.409 178.638 334.409 176.402C334.409 174.166 335.321 172.021 336.945 170.439C338.569 168.857 340.771 167.967 343.069 167.964H386.876C388.015 167.963 389.144 168.18 390.197 168.603C391.25 169.027 392.207 169.648 393.013 170.432C393.82 171.215 394.459 172.146 394.896 173.17C395.332 174.195 395.557 175.293 395.557 176.402C395.557 177.511 395.332 178.609 394.896 179.633C394.459 180.658 393.82 181.588 393.013 182.372C392.207 183.156 391.25 183.777 390.197 184.201C389.144 184.624 388.015 184.841 386.876 184.84Z" fill="#CCCCCC"/>
<path d="M497.306 452.285H343.069C340.769 452.285 338.564 451.396 336.938 449.814C335.312 448.231 334.398 446.085 334.398 443.847C334.398 441.609 335.312 439.463 336.938 437.881C338.564 436.298 340.769 435.409 343.069 435.409H497.306C498.444 435.409 499.572 435.628 500.624 436.052C501.676 436.476 502.632 437.097 503.437 437.881C504.242 438.664 504.88 439.595 505.316 440.618C505.752 441.642 505.976 442.739 505.976 443.847C505.976 444.955 505.752 446.053 505.316 447.076C504.88 448.1 504.242 449.03 503.437 449.814C502.632 450.597 501.676 451.219 500.624 451.643C499.572 452.067 498.444 452.285 497.306 452.285Z" fill="#CCCCCC"/>
<path d="M688.962 452.285H534.724C532.425 452.285 530.22 451.396 528.594 449.814C526.968 448.231 526.054 446.085 526.054 443.847C526.054 441.609 526.968 439.463 528.594 437.881C530.22 436.298 532.425 435.409 534.724 435.409H688.962C690.1 435.409 691.228 435.628 692.28 436.052C693.332 436.476 694.287 437.097 695.092 437.881C695.897 438.664 696.536 439.595 696.972 440.618C697.408 441.642 697.632 442.739 697.632 443.847C697.632 444.955 697.408 446.053 696.972 447.076C696.536 448.1 695.897 449.03 695.092 449.814C694.287 450.597 693.332 451.219 692.28 451.643C691.228 452.067 690.1 452.285 688.962 452.285Z" fill="#CCCCCC"/>
<path d="M688.962 484.261H420.644C418.344 484.261 416.139 483.372 414.513 481.789C412.887 480.207 411.974 478.061 411.974 475.823C411.974 473.585 412.887 471.439 414.513 469.856C416.139 468.274 418.344 467.385 420.644 467.385H688.962C690.101 467.383 691.23 467.601 692.283 468.024C693.336 468.448 694.293 469.069 695.1 469.852C695.906 470.636 696.545 471.567 696.982 472.591C697.418 473.616 697.643 474.714 697.643 475.823C697.643 476.932 697.418 478.03 696.982 479.054C696.545 480.079 695.906 481.009 695.1 481.793C694.293 482.577 693.336 483.198 692.283 483.621C691.23 484.045 690.101 484.262 688.962 484.261Z" fill="#CCCCCC"/>
<path d="M497.306 419.866H343.069C340.769 419.866 338.564 418.977 336.938 417.394C335.312 415.812 334.398 413.666 334.398 411.428C334.398 409.19 335.312 407.044 336.938 405.461C338.564 403.879 340.769 402.99 343.069 402.99H497.306C499.605 402.99 501.811 403.879 503.437 405.461C505.063 407.044 505.976 409.19 505.976 411.428C505.976 413.666 505.063 415.812 503.437 417.394C501.811 418.977 499.605 419.866 497.306 419.866Z" fill="#CCCCCC"/>
<path d="M582.182 420.31H538.375C536.076 420.31 533.87 419.421 532.244 417.839C530.619 416.256 529.705 414.11 529.705 411.872C529.705 409.634 530.619 407.488 532.244 405.906C533.87 404.323 536.076 403.434 538.375 403.434H582.182C584.482 403.434 586.687 404.323 588.313 405.906C589.939 407.488 590.852 409.634 590.852 411.872C590.852 414.11 589.939 416.256 588.313 417.839C586.687 419.421 584.482 420.31 582.182 420.31Z" fill="#CCCCCC"/>
<path d="M386.876 484.261H343.069C340.769 484.261 338.564 483.372 336.938 481.789C335.312 480.207 334.398 478.061 334.398 475.823C334.398 473.585 335.312 471.439 336.938 469.856C338.564 468.274 340.769 467.385 343.069 467.385H386.876C388.015 467.383 389.144 467.601 390.197 468.024C391.25 468.448 392.207 469.069 393.013 469.852C393.819 470.636 394.459 471.567 394.895 472.591C395.332 473.616 395.556 474.714 395.556 475.823C395.556 476.932 395.332 478.03 394.895 479.054C394.459 480.079 393.819 481.009 393.013 481.793C392.207 482.577 391.25 483.198 390.197 483.621C389.144 484.045 388.015 484.262 386.876 484.261Z" fill="#CCCCCC"/>
<path d="M457.024 361.697C453.751 361.705 450.607 360.453 448.278 358.215L390.3 302.495C389.161 301.401 388.258 300.098 387.641 298.662C387.024 297.225 386.707 295.684 386.707 294.127C386.707 292.57 387.024 291.029 387.641 289.592C388.258 288.156 389.161 286.853 390.3 285.759L448.044 230.264C450.45 227.964 453.69 226.679 457.063 226.689C460.436 226.7 463.669 228.004 466.059 230.32C468.452 232.654 469.796 235.816 469.796 239.114C469.796 242.411 468.452 245.574 466.059 247.908L423.151 289.668C421.814 290.972 421.063 292.739 421.063 294.581C421.063 296.424 421.814 298.19 423.151 299.495L465.827 341.028C467.569 342.721 468.757 344.879 469.238 347.229C469.719 349.579 469.473 352.015 468.53 354.229C467.587 356.442 465.991 358.334 463.942 359.663C461.894 360.993 459.486 361.701 457.024 361.697Z" fill="#6C63FF"/>
<path d="M549.409 361.697C546.947 361.701 544.539 360.993 542.491 359.663C540.443 358.334 538.846 356.442 537.903 354.229C536.96 352.015 536.714 349.579 537.195 347.229C537.677 344.879 538.864 342.721 540.607 341.028L583.283 299.495C584.619 298.191 585.37 296.424 585.37 294.581C585.37 292.739 584.619 290.972 583.283 289.668L540.374 247.908C539.187 246.753 538.246 245.382 537.604 243.873C536.961 242.364 536.631 240.747 536.631 239.114C536.631 237.48 536.961 235.863 537.604 234.354C538.246 232.845 539.187 231.474 540.374 230.32C542.765 228.004 545.997 226.7 549.37 226.689C552.743 226.679 555.984 227.964 558.389 230.264L616.134 285.759C617.272 286.853 618.175 288.156 618.792 289.592C619.409 291.029 619.727 292.57 619.727 294.127C619.727 295.684 619.409 297.225 618.792 298.662C618.175 300.098 617.272 301.401 616.134 302.495L558.155 358.215C555.826 360.453 552.682 361.704 549.409 361.697Z" fill="#6C63FF"/>
</g>
<g clip-path="url(#clip1_384_525)">
<path d="M1535.5 563.519H1186.11C1177.69 563.51 1169.61 560.196 1163.66 554.304C1157.71 548.413 1154.36 540.425 1154.35 532.093V403.655C1154.36 395.323 1157.71 387.335 1163.66 381.444C1169.61 375.552 1177.69 372.238 1186.11 372.229H1535.5C1543.92 372.238 1551.99 375.552 1557.95 381.444C1563.9 387.335 1567.25 395.323 1567.26 403.655V532.093C1567.25 540.425 1563.9 548.413 1557.95 554.304C1551.99 560.196 1543.92 563.51 1535.5 563.519Z" fill="white"/>
<path d="M1297.94 640.828H1029.79C1021.36 640.819 1013.28 637.513 1007.32 631.637C1001.36 625.761 998.009 617.794 998 609.483V563.147C998.01 554.837 1001.36 546.87 1007.32 540.994C1013.28 535.117 1021.36 531.812 1029.79 531.802H1297.94C1306.37 531.812 1314.45 535.117 1320.41 540.994C1326.37 546.87 1329.73 554.837 1329.74 563.147V609.483C1329.73 617.794 1326.37 625.761 1320.41 631.637C1314.45 637.513 1306.37 640.819 1297.94 640.828Z" fill="white"/>
<path d="M1185.65 614.067H1142.08C1139.75 614.065 1137.52 613.168 1135.88 611.573C1134.23 609.978 1133.3 607.815 1133.3 605.559V566.081C1133.3 563.825 1134.23 561.662 1135.88 560.067C1137.52 558.472 1139.75 557.575 1142.08 557.572H1185.65C1187.98 557.575 1190.21 558.472 1191.86 560.067C1193.51 561.662 1194.43 563.825 1194.44 566.081V605.559C1194.43 607.815 1193.51 609.978 1191.86 611.573C1190.21 613.168 1187.98 614.065 1185.65 614.067Z" fill="#E6E6E6"/>
<path d="M1261.96 614.067H1219.11C1216.82 614.065 1214.62 613.168 1213 611.573C1211.38 609.978 1210.47 607.815 1210.47 605.559V566.081C1210.47 563.825 1211.38 561.662 1213 560.067C1214.62 558.472 1216.82 557.575 1219.11 557.572H1261.96C1264.25 557.575 1266.45 558.472 1268.07 560.067C1269.69 561.662 1270.6 563.825 1270.6 566.081V605.559C1270.6 607.815 1269.69 609.978 1268.07 611.573C1266.45 613.168 1264.25 614.065 1261.96 614.067Z" fill="#E6E6E6"/>
<path d="M1377.34 447.555H1322.22C1320.76 447.555 1319.35 446.981 1318.32 445.959C1317.29 444.936 1316.71 443.55 1316.71 442.104C1316.71 440.658 1317.29 439.272 1318.32 438.249C1319.35 437.227 1320.76 436.653 1322.22 436.653H1377.34C1378.8 436.653 1380.2 437.227 1381.24 438.249C1382.27 439.272 1382.85 440.658 1382.85 442.104C1382.85 443.55 1382.27 444.936 1381.24 445.959C1380.2 446.981 1378.8 447.555 1377.34 447.555Z" fill="#CCCCCC"/>
<path d="M1496.59 478.281H1321.23C1319.76 478.281 1318.36 477.706 1317.32 476.684C1316.29 475.662 1315.7 474.275 1315.7 472.829C1315.7 471.384 1316.29 469.997 1317.32 468.975C1318.36 467.952 1319.76 467.378 1321.23 467.378H1496.59C1498.06 467.378 1499.46 467.952 1500.5 468.975C1501.54 469.997 1502.12 471.384 1502.12 472.829C1502.12 474.275 1501.54 475.662 1500.5 476.684C1499.46 477.706 1498.06 478.281 1496.59 478.281Z" fill="#CCCCCC"/>
<path d="M1256.57 494.139C1277.05 494.139 1293.66 477.72 1293.66 457.467C1293.66 437.213 1277.05 420.794 1256.57 420.794C1236.09 420.794 1219.49 437.213 1219.49 457.467C1219.49 477.72 1236.09 494.139 1256.57 494.139Z" fill="#6C63FF"/>
<path d="M1659.77 800.402H1310.38C1301.96 800.393 1293.89 797.079 1287.94 791.187C1281.98 785.296 1278.63 777.308 1278.62 768.976V640.538C1278.63 632.206 1281.98 624.218 1287.94 618.327C1293.89 612.435 1301.96 609.121 1310.38 609.112H1659.77C1668.2 609.121 1676.27 612.435 1682.22 618.327C1688.18 624.218 1691.53 632.206 1691.54 640.538V768.976C1691.53 777.308 1688.18 785.296 1682.22 791.187C1676.27 797.079 1668.2 800.393 1659.77 800.402Z" fill="white"/>
<path d="M1446.39 659.66H1387.48C1386.75 659.661 1386.01 659.521 1385.33 659.247C1384.65 658.974 1384.02 658.573 1383.5 658.066C1382.98 657.56 1382.56 656.959 1382.28 656.297C1382 655.635 1381.85 654.925 1381.85 654.209C1381.85 653.492 1382 652.782 1382.28 652.121C1382.56 651.459 1382.98 650.857 1383.5 650.351C1384.02 649.845 1384.65 649.443 1385.33 649.17C1386.01 648.896 1386.75 648.756 1387.48 648.757H1446.39C1447.88 648.76 1449.31 649.335 1450.36 650.357C1451.41 651.379 1452.01 652.764 1452.01 654.209C1452.01 655.653 1451.41 657.038 1450.36 658.06C1449.31 659.082 1447.88 659.658 1446.39 659.66Z" fill="#6C63FF"/>
<path d="M1577.69 682.456H1387.45C1385.97 682.456 1384.54 681.882 1383.49 680.86C1382.44 679.837 1381.85 678.451 1381.85 677.005C1381.85 675.559 1382.44 674.173 1383.49 673.15C1384.54 672.128 1385.97 671.554 1387.45 671.554H1577.69C1579.18 671.554 1580.6 672.128 1581.66 673.15C1582.71 674.173 1583.3 675.559 1583.3 677.005C1583.3 678.451 1582.71 679.837 1581.66 680.86C1580.6 681.882 1579.18 682.456 1577.69 682.456Z" fill="#E6E6E6"/>
<path d="M1577.69 709.217H1387.45C1386.72 709.217 1385.99 709.063 1385.31 708.764C1384.63 708.465 1384.01 708.027 1383.49 707.475C1382.97 706.923 1382.56 706.267 1382.28 705.546C1382 704.824 1381.85 704.051 1381.85 703.27C1381.85 702.489 1382 701.716 1382.28 700.994C1382.56 700.273 1382.97 699.617 1383.49 699.065C1384.01 698.513 1384.63 698.075 1385.31 697.776C1385.99 697.477 1386.72 697.323 1387.45 697.323H1577.69C1579.18 697.323 1580.6 697.95 1581.66 699.065C1582.71 700.18 1583.3 701.693 1583.3 703.27C1583.3 704.847 1582.71 706.36 1581.66 707.475C1580.6 708.59 1579.18 709.217 1577.69 709.217Z" fill="#E6E6E6"/>
<path d="M1577.7 734.987H1387.46C1386.73 734.988 1386 734.848 1385.32 734.574C1384.64 734.301 1384.02 733.9 1383.5 733.393C1382.97 732.887 1382.56 732.286 1382.28 731.624C1382 730.962 1381.85 730.252 1381.85 729.536C1381.85 728.819 1382 728.109 1382.28 727.447C1382.56 726.785 1382.97 726.184 1383.5 725.678C1384.02 725.172 1384.64 724.77 1385.32 724.497C1386 724.223 1386.73 724.083 1387.46 724.084H1577.7C1579.19 724.087 1580.61 724.662 1581.66 725.684C1582.71 726.706 1583.3 728.091 1583.3 729.536C1583.3 730.98 1582.71 732.365 1581.66 733.387C1580.61 734.409 1579.19 734.985 1577.7 734.987Z" fill="#E6E6E6"/>
<path d="M1577.69 760.756H1387.45C1385.97 760.756 1384.54 760.182 1383.49 759.16C1382.44 758.137 1381.85 756.751 1381.85 755.305C1381.85 753.859 1382.44 752.473 1383.49 751.45C1384.54 750.428 1385.97 749.854 1387.45 749.854H1577.69C1579.18 749.854 1580.6 750.428 1581.66 751.45C1582.71 752.473 1583.3 753.859 1583.3 755.305C1583.3 756.751 1582.71 758.137 1581.66 759.16C1580.6 760.182 1579.18 760.756 1577.69 760.756Z" fill="#E6E6E6"/>
<path d="M1277.94 845.647L1052.72 924.241L1054.49 928.663L1279.71 850.069L1277.94 845.647Z" fill="#3F3D56"/>
<path d="M1026.21 936.038C1037.24 926.82 1050.06 913.198 1056.61 901.237L1057.2 925.156L1073.41 943.586C1060.13 938.588 1040.96 936.199 1026.21 936.038Z" fill="#3F3D56"/>
</g>
<path d="M878.563 532.631H669.557C637.05 532.631 610.698 558.808 610.698 591.099V1065.53C610.698 1097.82 637.05 1124 669.557 1124H878.563C911.07 1124 937.422 1097.82 937.422 1065.53V591.099C937.422 558.808 911.07 532.631 878.563 532.631Z" fill="#3F3D56"/>
<path d="M931.91 591.103V1065.53C931.894 1079.58 926.268 1093.05 916.267 1102.99C906.266 1112.92 892.706 1118.51 878.562 1118.53H774.061H669.559C655.415 1118.51 641.856 1112.92 631.854 1102.99C621.853 1093.05 616.227 1079.58 616.211 1065.53V591.103C616.227 577.053 621.853 563.583 631.854 553.648C641.856 543.714 655.415 538.125 669.559 538.109H696.89V547.487C696.89 551.733 698.588 555.805 701.61 558.807C704.632 561.809 708.731 563.496 713.005 563.496H835.116C839.39 563.496 843.489 561.809 846.511 558.807C849.533 555.805 851.231 551.733 851.232 547.487V538.109H878.562C892.706 538.125 906.266 543.714 916.267 553.648C926.268 563.583 931.894 577.053 931.91 591.103Z" fill="white"/>
<path d="M609.194 652.597C608.132 652.596 607.113 652.176 606.361 651.429C605.61 650.683 605.187 649.67 605.186 648.615V640.65C605.186 639.594 605.608 638.581 606.36 637.834C607.112 637.087 608.131 636.668 609.194 636.668C610.258 636.668 611.277 637.087 612.029 637.834C612.781 638.581 613.203 639.594 613.203 640.65V648.615C613.202 649.67 612.779 650.683 612.028 651.429C611.276 652.176 610.257 652.596 609.194 652.597Z" fill="#3F3D56"/>
<path d="M609.194 693.437C608.132 693.436 607.113 693.016 606.361 692.269C605.61 691.523 605.187 690.51 605.186 689.455V667.531C605.186 666.474 605.608 665.462 606.36 664.715C607.112 663.968 608.131 663.548 609.194 663.548C610.258 663.548 611.277 663.968 612.029 664.715C612.781 665.462 613.203 666.474 613.203 667.531V689.455C613.202 690.51 612.779 691.523 612.028 692.269C611.276 693.016 610.257 693.436 609.194 693.437Z" fill="#3F3D56"/>
<path d="M609.194 726.269C608.132 726.268 607.113 725.848 606.361 725.102C605.61 724.355 605.187 723.343 605.186 722.287V700.363C605.186 699.307 605.608 698.294 606.36 697.547C607.112 696.8 608.131 696.381 609.194 696.381C610.258 696.381 611.277 696.8 612.029 697.547C612.781 698.294 613.203 699.307 613.203 700.363V722.287C613.202 723.343 612.779 724.355 612.028 725.102C611.276 725.848 610.257 726.268 609.194 726.269Z" fill="#3F3D56"/>
<path d="M937.923 708.349C936.86 708.348 935.841 707.928 935.09 707.181C934.338 706.435 933.915 705.422 933.914 704.367V650.871C933.914 649.815 934.336 648.802 935.088 648.055C935.84 647.308 936.86 646.889 937.923 646.889C938.986 646.889 940.006 647.308 940.758 648.055C941.509 648.802 941.932 649.815 941.932 650.871V704.367C941.931 705.422 941.508 706.435 940.756 707.181C940.005 707.928 938.986 708.348 937.923 708.349Z" fill="#3F3D56"/>
<path d="M782.672 550.895H751.603C750.938 550.895 750.301 550.633 749.831 550.166C749.361 549.699 749.097 549.066 749.097 548.406C749.097 547.746 749.361 547.113 749.831 546.646C750.301 546.179 750.938 545.917 751.603 545.917H782.672C783.336 545.917 783.973 546.179 784.443 546.646C784.913 547.113 785.177 547.746 785.177 548.406C785.177 549.066 784.913 549.699 784.443 550.166C783.973 550.633 783.336 550.895 782.672 550.895Z" fill="white"/>
<path d="M798.707 550.397C799.814 550.397 800.712 549.506 800.712 548.406C800.712 547.307 799.814 546.415 798.707 546.415C797.6 546.415 796.703 547.307 796.703 548.406C796.703 549.506 797.6 550.397 798.707 550.397Z" fill="white"/>
<path d="M684.949 561.575H657.889C656.56 561.575 655.285 561.05 654.345 560.117C653.405 559.183 652.877 557.917 652.877 556.597C652.877 555.277 653.405 554.011 654.345 553.077C655.285 552.144 656.56 551.619 657.889 551.619H684.949C686.278 551.619 687.552 552.144 688.492 553.077C689.432 554.011 689.96 555.277 689.96 556.597C689.96 557.917 689.432 559.183 688.492 560.117C687.552 561.05 686.278 561.575 684.949 561.575Z" fill="#E6E6E6"/>
<path d="M862.342 561.077C864.832 561.077 866.852 559.071 866.852 556.597C866.852 554.123 864.832 552.117 862.342 552.117C859.851 552.117 857.832 554.123 857.832 556.597C857.832 559.071 859.851 561.077 862.342 561.077Z" fill="#E6E6E6"/>
<path d="M876.373 561.077C878.864 561.077 880.883 559.071 880.883 556.597C880.883 554.123 878.864 552.117 876.373 552.117C873.882 552.117 871.863 554.123 871.863 556.597C871.863 559.071 873.882 561.077 876.373 561.077Z" fill="#E6E6E6"/>
<path d="M890.404 561.077C892.894 561.077 894.914 559.071 894.914 556.597C894.914 554.123 892.894 552.117 890.404 552.117C887.913 552.117 885.894 554.123 885.894 556.597C885.894 559.071 887.913 561.077 890.404 561.077Z" fill="#E6E6E6"/>
<path d="M859.188 631.149H689.111C685.817 631.154 682.658 632.456 680.329 634.77C677.999 637.084 676.688 640.222 676.684 643.495V753.316C676.688 756.589 677.999 759.726 680.329 762.04C682.658 764.354 685.817 765.657 689.111 765.661H859.188C862.483 765.658 865.642 764.357 867.972 762.042C870.302 759.728 871.613 756.589 871.616 753.316V643.495C871.613 640.221 870.302 637.083 867.972 634.768C865.642 632.454 862.483 631.152 859.188 631.149Z" fill="#F2F2F2"/>
<path d="M875.615 1008.13H672.506C669.212 1008.13 666.053 1006.83 663.723 1004.51C661.394 1002.2 660.083 999.062 660.08 995.789V968.598C660.083 965.325 661.394 962.187 663.723 959.873C666.053 957.559 669.212 956.257 672.506 956.253H875.615C878.91 956.257 882.068 957.559 884.398 959.873C886.727 962.187 888.038 965.325 888.042 968.598V995.789C888.038 999.062 886.727 1002.2 884.398 1004.51C882.068 1006.83 878.91 1008.13 875.615 1008.13Z" fill="#F2F2F2"/>
<path d="M875.615 868.754H672.506C669.212 868.75 666.053 867.448 663.723 865.134C661.394 862.82 660.083 859.682 660.08 856.409V829.218C660.083 825.945 661.394 822.807 663.723 820.493C666.053 818.179 669.212 816.877 672.506 816.873H875.615C878.91 816.877 882.068 818.179 884.398 820.493C886.727 822.807 888.038 825.945 888.042 829.218V856.409C888.038 859.682 886.727 862.82 884.398 865.134C882.068 867.448 878.91 868.75 875.615 868.754Z" fill="#F2F2F2"/>
<path d="M875.615 938.444H672.506C669.212 938.44 666.053 937.138 663.723 934.824C661.394 932.51 660.083 929.372 660.08 926.099V898.907C660.083 895.635 661.394 892.497 663.723 890.183C666.053 887.869 669.212 886.567 672.506 886.563H875.615C878.91 886.567 882.068 887.869 884.398 890.183C886.727 892.497 888.038 895.635 888.042 898.907V926.099C888.038 929.372 886.727 932.51 884.398 934.824C882.068 937.138 878.91 938.44 875.615 938.444Z" fill="#F2F2F2"/>
<path d="M798.737 977.54H738.892C738.182 977.54 737.501 977.26 736.999 976.761C736.497 976.262 736.215 975.586 736.215 974.88C736.215 974.175 736.497 973.499 736.999 973C737.501 972.501 738.182 972.221 738.892 972.221H798.737C799.447 972.221 800.128 972.501 800.63 973C801.132 973.499 801.414 974.175 801.414 974.88C801.414 975.586 801.132 976.262 800.63 976.761C800.128 977.26 799.447 977.54 798.737 977.54Z" fill="white"/>
<path d="M856.294 992.166H738.223C737.513 992.166 736.832 991.886 736.33 991.387C735.828 990.888 735.546 990.212 735.546 989.507C735.546 988.801 735.828 988.125 736.33 987.626C736.832 987.128 737.513 986.847 738.223 986.847H856.294C857.004 986.847 857.685 987.128 858.187 987.626C858.689 988.125 858.971 988.801 858.971 989.507C858.971 990.212 858.689 990.888 858.187 991.387C857.685 991.886 857.004 992.166 856.294 992.166Z" fill="white"/>
<path d="M707.099 1000.02C717.012 1000.02 725.048 992.041 725.048 982.193C725.048 972.346 717.012 964.363 707.099 964.363C697.186 964.363 689.15 972.346 689.15 982.193C689.15 992.041 697.186 1000.02 707.099 1000.02Z" fill="white"/>
<path d="M1037.97 868.754H834.866C831.572 868.75 828.413 867.448 826.083 865.134C823.754 862.82 822.443 859.682 822.439 856.409V829.218C822.443 825.945 823.754 822.807 826.083 820.493C828.413 818.179 831.572 816.877 834.866 816.873H1037.97C1041.27 816.877 1044.43 818.179 1046.76 820.493C1049.09 822.807 1050.4 825.945 1050.4 829.218V856.409C1050.4 859.682 1049.09 862.82 1046.76 865.134C1044.43 867.448 1041.27 868.75 1037.97 868.754Z" fill="#E6E6E6"/>
<path d="M961.097 838.16H901.252C900.542 838.16 899.861 837.88 899.359 837.381C898.857 836.882 898.575 836.206 898.575 835.5C898.575 834.795 898.857 834.119 899.359 833.62C899.861 833.121 900.542 832.841 901.252 832.841H961.097C961.807 832.841 962.487 833.121 962.99 833.62C963.492 834.119 963.774 834.795 963.774 835.5C963.774 836.206 963.492 836.882 962.99 837.381C962.487 837.88 961.807 838.16 961.097 838.16Z" fill="white"/>
<path d="M1018.65 852.786H900.582C899.872 852.786 899.191 852.506 898.689 852.007C898.187 851.508 897.905 850.832 897.905 850.127C897.905 849.421 898.187 848.745 898.689 848.246C899.191 847.748 899.872 847.467 900.582 847.467H1018.65C1019.36 847.467 1020.04 847.748 1020.55 848.246C1021.05 848.745 1021.33 849.421 1021.33 850.127C1021.33 850.832 1021.05 851.508 1020.55 852.007C1020.04 852.506 1019.36 852.786 1018.65 852.786Z" fill="white"/>
<path d="M869.459 860.644C879.372 860.644 887.408 852.661 887.408 842.814C887.408 832.966 879.372 824.983 869.459 824.983C859.546 824.983 851.51 832.966 851.51 842.814C851.51 852.661 859.546 860.644 869.459 860.644Z" fill="white"/>
<path d="M972.83 938.444H769.722C766.427 938.44 763.268 937.138 760.939 934.824C758.609 932.51 757.299 929.372 757.295 926.099V898.907C757.299 895.635 758.609 892.497 760.939 890.183C763.268 887.869 766.427 886.567 769.722 886.563H972.83C976.125 886.567 979.283 887.869 981.613 890.183C983.943 892.497 985.253 895.635 985.257 898.907V926.099C985.253 929.372 983.943 932.51 981.613 934.824C979.283 937.138 976.125 938.44 972.83 938.444Z" fill="#E6E6E6"/>
<path d="M895.952 907.85H836.108C835.398 907.85 834.717 907.57 834.215 907.071C833.713 906.572 833.431 905.896 833.431 905.19C833.431 904.485 833.713 903.809 834.215 903.31C834.717 902.811 835.398 902.531 836.108 902.531H895.952C896.662 902.531 897.343 902.811 897.845 903.31C898.347 903.809 898.629 904.485 898.629 905.19C898.629 905.896 898.347 906.572 897.845 907.071C897.343 907.57 896.662 907.85 895.952 907.85Z" fill="white"/>
<path d="M953.51 922.476H835.438C834.728 922.476 834.047 922.196 833.545 921.697C833.043 921.199 832.761 920.522 832.761 919.817C832.761 919.112 833.043 918.435 833.545 917.936C834.047 917.438 834.728 917.157 835.438 917.157H953.51C954.22 917.157 954.9 917.438 955.403 917.936C955.905 918.435 956.187 919.112 956.187 919.817C956.187 920.522 955.905 921.199 955.403 921.697C954.9 922.196 954.22 922.476 953.51 922.476Z" fill="white"/>
<path d="M804.314 930.334C814.228 930.334 822.264 922.351 822.264 912.504C822.264 902.656 814.228 894.673 804.314 894.673C794.401 894.673 786.365 902.656 786.365 912.504C786.365 922.351 794.401 930.334 804.314 930.334Z" fill="white"/>
<path d="M774.206 735.727C794.686 735.727 811.288 719.235 811.288 698.891C811.288 678.547 794.686 662.055 774.206 662.055C753.726 662.055 737.124 678.547 737.124 698.891C737.124 719.235 753.726 735.727 774.206 735.727Z" fill="#6C63FF"/>
<path d="M985.064 178.924L1166.22 333.497L1169.24 329.733L988.081 175.159L985.064 178.924Z" fill="#3F3D56"/>
<path d="M1189.74 350.437C1176.19 345.555 1157.91 341.343 1144.19 341.704L1164.82 329.167L1172.89 305.916C1175.11 319.886 1182.55 337.629 1189.74 350.437Z" fill="#3F3D56"/>
<path d="M162.611 591.332L78.25 814.461L82.7753 815.945L167.136 592.816L162.611 591.332Z" fill="#3F3D56"/>
<path d="M70.2739 842.358C70.2879 827.984 68.0745 809.411 63.1101 796.71L81.8289 811.613L106.366 811.02C94.0085 817.991 79.8681 831.154 70.2739 842.358Z" fill="#3F3D56"/>
<path d="M1019.64 759.276H997.669V781.264H1019.64V759.276Z" fill="#E6E6E6"/>
<path d="M1032.98 768.7H1006.3V742H1032.98V768.7ZM1007.46 767.539H1031.82V743.161H1007.46V767.539Z" fill="#3F3D56"/>
<path d="M1032.5 749C1047.14 749 1059 737.136 1059 722.5C1059 707.864 1047.14 696 1032.5 696C1017.86 696 1006 707.864 1006 722.5C1006 737.136 1017.86 749 1032.5 749Z" fill="#6C63FF"/>
<path d="M1028.7 737C1028.22 737 1027.74 736.888 1027.31 736.673C1026.88 736.458 1026.51 736.145 1026.22 735.76L1018.62 725.626C1018.38 725.301 1018.2 724.93 1018.1 724.536C1018 724.142 1017.97 723.731 1018.03 723.329C1018.09 722.926 1018.23 722.538 1018.43 722.188C1018.64 721.838 1018.91 721.532 1019.24 721.288C1019.57 721.044 1019.94 720.866 1020.33 720.765C1020.72 720.664 1021.13 720.642 1021.54 720.699C1021.94 720.757 1022.33 720.893 1022.68 721.1C1023.03 721.308 1023.33 721.582 1023.58 721.908L1028.55 728.537L1041.32 709.381C1041.55 709.042 1041.84 708.751 1042.18 708.524C1042.51 708.298 1042.89 708.14 1043.29 708.06C1043.69 707.98 1044.1 707.98 1044.5 708.059C1044.9 708.138 1045.28 708.295 1045.62 708.52C1045.96 708.746 1046.25 709.037 1046.48 709.375C1046.7 709.713 1046.86 710.093 1046.94 710.492C1047.02 710.891 1047.02 711.302 1046.94 711.701C1046.86 712.1 1046.7 712.48 1046.48 712.819L1031.28 735.62C1031 736.032 1030.63 736.373 1030.2 736.613C1029.77 736.853 1029.28 736.985 1028.79 736.999C1028.76 736.999 1028.73 737 1028.7 737Z" fill="white"/>
<path d="M1043.94 754.818C1066 754.818 1083.88 736.95 1083.88 714.909C1083.88 692.868 1066 675 1043.94 675C1021.88 675 1004 692.868 1004 714.909C1004 736.95 1021.88 754.818 1043.94 754.818Z" fill="#6C63FF"/>
<path d="M1038.49 735.68C1037.8 735.68 1037.12 735.52 1036.5 735.211C1035.89 734.903 1035.35 734.455 1034.94 733.904L1024.04 719.387C1023.69 718.92 1023.44 718.389 1023.29 717.825C1023.15 717.26 1023.11 716.672 1023.2 716.095C1023.28 715.518 1023.47 714.963 1023.77 714.461C1024.07 713.96 1024.46 713.521 1024.93 713.172C1025.4 712.822 1025.93 712.567 1026.49 712.423C1027.06 712.278 1027.65 712.246 1028.22 712.328C1028.8 712.411 1029.36 712.606 1029.86 712.903C1030.36 713.2 1030.8 713.593 1031.15 714.06L1038.28 723.557L1056.59 696.114C1056.91 695.629 1057.33 695.212 1057.81 694.888C1058.3 694.563 1058.84 694.337 1059.41 694.223C1059.98 694.108 1060.57 694.108 1061.15 694.221C1061.72 694.334 1062.26 694.559 1062.75 694.882C1063.23 695.205 1063.65 695.621 1063.98 696.106C1064.3 696.59 1064.53 697.134 1064.64 697.706C1064.76 698.278 1064.76 698.866 1064.64 699.438C1064.53 700.01 1064.3 700.554 1063.98 701.039L1042.19 733.703C1041.79 734.294 1041.26 734.781 1040.64 735.125C1040.02 735.469 1039.32 735.659 1038.61 735.679C1038.57 735.679 1038.53 735.68 1038.49 735.68Z" fill="white"/>
<g clip-path="url(#clip2_384_525)">
<path d="M425.119 787.556H225V789.126H425.119V787.556Z" fill="#3F3D56"/>
<path d="M411.644 779.276H389.67V801.264H411.644V779.276Z" fill="#E6E6E6"/>
<path d="M424.984 788.7H398.302V762H424.984V788.7ZM399.462 787.539H423.824V763.161H399.462V787.539Z" fill="#3F3D56"/>
<path d="M424.941 770.818C446.999 770.818 464.881 752.95 464.881 730.909C464.881 708.868 446.999 691 424.941 691C402.882 691 385 708.868 385 730.909C385 752.95 402.882 770.818 424.941 770.818Z" fill="#6C63FF"/>
<path d="M419.491 751.68C418.801 751.68 418.121 751.52 417.504 751.211C416.887 750.903 416.351 750.455 415.937 749.904L405.041 735.387C404.691 734.92 404.436 734.389 404.291 733.825C404.146 733.26 404.115 732.672 404.197 732.095C404.28 731.518 404.475 730.963 404.772 730.461C405.07 729.96 405.463 729.521 405.93 729.172C406.396 728.822 406.927 728.567 407.493 728.423C408.058 728.278 408.646 728.246 409.224 728.328C409.801 728.411 410.357 728.606 410.859 728.903C411.361 729.2 411.799 729.593 412.149 730.06L419.278 739.557L437.588 712.114C437.911 711.629 438.327 711.212 438.812 710.888C439.297 710.563 439.841 710.337 440.413 710.223C440.985 710.108 441.575 710.108 442.147 710.221C442.719 710.334 443.264 710.559 443.75 710.882C444.235 711.205 444.652 711.621 444.977 712.106C445.302 712.59 445.527 713.134 445.642 713.706C445.756 714.278 445.757 714.866 445.643 715.438C445.53 716.01 445.305 716.554 444.981 717.039L423.188 749.703C422.794 750.294 422.264 750.781 421.642 751.125C421.02 751.469 420.325 751.659 419.615 751.679C419.574 751.679 419.532 751.68 419.491 751.68Z" fill="white"/>
<path d="M257 1117H33V1119H257V1117Z" fill="#3F3D56"/>
<path d="M73.5656 1108.28C73.3967 1108.67 73.2068 1109.05 72.9968 1109.41C71.8942 1111.38 70.3363 1113.08 68.4446 1114.37C66.2047 1115.89 63.5749 1116.79 60.842 1116.97C58.1092 1117.14 55.3783 1116.59 52.9472 1115.37C50.5162 1114.15 48.4784 1112.31 47.0561 1110.05C45.6339 1107.79 44.8817 1105.19 44.8818 1102.54V1100.21H46.9302C54.8886 1105.18 64.0948 1107.97 73.5656 1108.28Z" fill="#6C63FF"/>
<path d="M101.55 1100.91V1102.56C101.551 1105.77 100.471 1108.88 98.4815 1111.42C96.4917 1113.95 93.7052 1115.76 90.5621 1116.55C87.419 1117.34 84.0986 1117.08 81.1254 1115.8C78.1522 1114.51 75.6957 1112.29 74.1441 1109.47C73.9303 1109.09 73.7371 1108.7 73.5654 1108.31C73.9922 1108.32 74.4129 1108.32 74.84 1108.32C84.2637 1108.33 93.5071 1105.77 101.55 1100.91Z" fill="#6C63FF"/>
<path d="M121.733 923.345C121.305 923.28 120.872 923.239 120.438 923.209C125.364 934.978 125.705 948.265 121.391 960.289C121.824 960.235 122.252 960.164 122.68 960.082C126.857 959.243 130.611 956.894 133.274 953.454C135.937 950.015 137.336 945.707 137.223 941.298C137.109 936.888 135.49 932.664 132.653 929.377C129.817 926.089 125.947 923.952 121.733 923.345Z" fill="#6C63FF"/>
<path d="M29.4901 923.209C29.0385 923.239 28.5871 923.28 28.1415 923.345C23.7519 923.952 19.721 926.089 16.7663 929.377C13.8117 932.664 12.1251 936.888 12.0067 941.298C11.8883 945.707 13.3459 950.015 16.1199 953.454C18.8939 956.894 22.8044 959.243 27.1552 960.082C27.6008 960.164 28.0464 960.235 28.4977 960.289C24.004 948.265 24.3596 934.978 29.4901 923.209Z" fill="#6C63FF"/>
<path d="M121.428 922.862C116.603 911.254 107.664 901.868 96.35 896.526C85.0356 891.183 72.153 890.266 60.205 893.954C48.2569 897.641 38.0965 905.668 31.6976 916.477C25.2987 927.285 23.1182 940.103 25.5798 952.44C28.0414 964.776 34.9692 975.751 45.0174 983.232C55.0656 990.714 67.5167 994.167 79.9519 992.921C92.387 991.675 103.918 985.819 112.305 976.491C120.693 967.162 125.337 955.028 125.336 942.445C125.333 935.721 124.005 929.065 121.428 922.862ZM121.077 959.715C116.792 971.314 108.351 980.877 97.4151 986.523C86.4792 992.169 73.8406 993.488 61.9869 990.222C50.1333 986.956 39.9231 979.34 33.3659 968.874C26.8088 958.407 24.3796 945.849 26.5566 933.67C28.7335 921.491 35.359 910.573 45.1288 903.066C54.8986 895.559 67.1052 892.006 79.3461 893.106C91.5869 894.207 102.975 899.881 111.27 909.012C119.564 918.143 124.164 930.07 124.164 942.445C124.162 948.341 123.117 954.189 121.077 959.715Z" fill="#6C63FF" stroke="#6C63FF" stroke-width="3"/>
<path d="M100.992 930.905H48.9368C46.1913 930.905 43.5583 932.011 41.6169 933.979C39.6756 935.947 38.585 938.616 38.585 941.399C38.585 944.182 39.6756 946.852 41.6169 948.82C43.5583 950.788 46.1913 951.893 48.9368 951.893H100.992C103.737 951.893 106.37 950.788 108.312 948.82C110.253 946.852 111.344 944.182 111.344 941.399C111.344 938.616 110.253 935.947 108.312 933.979C106.37 932.011 103.737 930.905 100.992 930.905Z" fill="#6C63FF"/>
<path d="M121.474 1030.89C121.285 1030.54 121.09 1030.2 120.889 1029.87C120.883 1029.86 120.877 1029.85 120.871 1029.84C116.221 1021.93 109.581 1015.36 101.603 1010.77C93.6247 1006.18 84.5825 1003.74 75.3638 1003.67C66.1451 1003.6 57.0667 1005.91 49.0197 1010.38C40.9727 1014.85 34.2337 1021.32 29.464 1029.16C24.6943 1036.99 22.058 1045.93 21.8136 1055.08C21.5693 1064.24 23.7253 1073.3 28.0703 1081.38C32.4152 1089.45 38.7996 1096.27 46.5969 1101.16C54.3942 1106.04 63.3364 1108.83 72.5458 1109.25C73.1071 1109.28 73.6745 1109.29 74.2418 1109.29C74.4784 1109.3 74.7087 1109.3 74.9453 1109.3C84.4464 1109.32 93.7751 1106.79 101.948 1101.97C110.825 1096.75 117.995 1089.1 122.597 1079.93C122.603 1079.91 122.609 1079.91 122.615 1079.9C122.792 1079.54 122.964 1079.19 123.135 1078.82C126.689 1071.27 128.392 1062.99 128.103 1054.66C127.815 1046.33 125.543 1038.18 121.474 1030.89ZM121.982 1078.5C121.811 1078.86 121.634 1079.22 121.451 1079.57C117.055 1088.26 110.298 1095.54 101.948 1100.6C93.8171 1105.54 84.4724 1108.14 74.9453 1108.13C74.5136 1108.13 74.0883 1108.12 73.6568 1108.11C73.4736 1108.11 73.2904 1108.11 73.1071 1108.1C64.0836 1107.78 55.2976 1105.14 47.6137 1100.43C39.9298 1095.72 33.6128 1089.1 29.2841 1081.23C24.9554 1073.36 22.7642 1064.5 22.9262 1055.54C23.0882 1046.57 25.5978 1037.8 30.208 1030.08C34.8182 1022.37 41.3701 1015.99 49.2192 1011.55C57.0682 1007.12 65.944 1004.79 74.973 1004.8C84.002 1004.81 92.8732 1007.15 100.714 1011.6C108.554 1016.05 115.094 1022.45 119.689 1030.17C119.695 1030.18 119.701 1030.19 119.707 1030.2C119.914 1030.53 120.115 1030.87 120.304 1031.21C124.36 1038.39 126.629 1046.43 126.921 1054.65C127.213 1062.88 125.519 1071.06 121.982 1078.5Z" fill="#6C63FF" stroke="#6C63FF" stroke-width="3"/>
<path d="M115.116 1032.12C114.094 1031.36 112.871 1030.95 111.617 1030.95H88.6836C87.086 1030.95 85.554 1031.61 84.4243 1032.79C83.2947 1033.97 82.6602 1035.57 82.6602 1037.24C82.6602 1038.91 83.2947 1040.52 84.4243 1041.7C85.554 1042.88 87.086 1043.54 88.6836 1043.54H111.617C112.026 1043.54 112.435 1043.5 112.836 1043.41C113.235 1043.32 113.625 1043.19 114.002 1043.03C114.982 1042.59 115.833 1041.88 116.466 1040.98C117.099 1040.08 117.493 1039.03 117.606 1037.92C117.72 1036.81 117.549 1035.69 117.111 1034.67C116.673 1033.65 115.985 1032.77 115.116 1032.12Z" fill="#6C63FF"/>
<path d="M90.356 1040.04C91.9016 1040.04 93.1545 1038.63 93.1545 1036.9C93.1545 1035.16 91.9016 1033.75 90.356 1033.75C88.8105 1033.75 87.5576 1035.16 87.5576 1036.9C87.5576 1038.63 88.8105 1040.04 90.356 1040.04Z" fill="#F1F1F1"/>
<path d="M100.5 1040.04C102.238 1040.04 103.648 1038.63 103.648 1036.9C103.648 1035.16 102.238 1033.75 100.5 1033.75C98.7611 1033.75 97.3516 1035.16 97.3516 1036.9C97.3516 1038.63 98.7611 1040.04 100.5 1040.04Z" fill="#F1F1F1"/>
<path d="M110.295 1040.04C112.033 1040.04 113.443 1038.63 113.443 1036.9C113.443 1035.16 112.033 1033.75 110.295 1033.75C108.556 1033.75 107.146 1035.16 107.146 1036.9C107.146 1038.63 108.556 1040.04 110.295 1040.04Z" fill="#6C63FF"/>
<path d="M226.711 935.787C218.668 940.611 204.337 946.655 189.693 940.444L180.227 936.428L199.197 915.163C184.059 898.472 175.684 876.739 175.707 854.206C175.73 831.673 184.149 809.957 199.321 793.297C214.493 776.637 235.329 766.228 257.762 764.104C280.195 761.979 302.615 768.29 320.645 781.804C338.675 795.319 351.022 815.068 355.276 837.196C359.529 859.324 355.384 882.243 343.649 901.48C331.915 920.716 313.433 934.89 291.811 941.233C270.189 947.576 246.979 945.635 226.711 935.787Z" fill="white"/>
<path d="M226.896 936.578C219.193 941.098 204.52 947.345 189.561 941.002L178.832 936.453L198.073 914.893C186.101 901.433 178.382 884.732 175.887 866.895C173.392 849.058 176.234 830.881 184.053 814.655C191.873 798.429 204.321 784.878 219.83 775.709C235.339 766.541 253.216 762.165 271.209 763.132C289.201 764.099 306.505 770.366 320.941 781.144C335.377 791.922 346.3 806.729 352.334 823.7C358.367 840.671 359.242 859.047 354.848 876.514C350.454 893.981 340.988 909.758 327.641 921.858C314.237 934.083 297.479 942.018 279.524 944.641C261.569 947.265 243.24 944.456 226.896 936.578ZM332.441 794.304C324.565 785.62 315.055 778.571 304.453 773.561C293.851 768.551 282.366 765.677 270.654 765.105C258.941 764.532 247.23 766.271 236.19 770.223C225.15 774.175 214.997 780.262 206.311 788.137C197.624 796.011 190.575 805.519 185.565 816.117C180.556 826.716 177.684 838.197 177.114 849.904C176.544 861.612 178.287 873.318 182.243 884.352C186.2 895.386 192.292 905.534 200.172 914.214L200.781 914.885L182.208 935.696L190.348 939.148C204.796 945.274 219.092 938.91 226.329 934.572L226.796 934.291L227.287 934.53C245.941 943.59 267.168 945.876 287.324 940.996C307.481 936.116 325.309 924.374 337.748 907.786C350.187 891.199 356.46 870.8 355.492 850.092C354.524 829.385 346.373 809.66 332.441 794.304Z" fill="#6C63FF" stroke="#6C63FF" stroke-width="3"/>
<path opacity="0.1" d="M342.29 853.599C342.288 832.881 334.524 812.914 320.525 797.63C306.527 782.346 287.309 772.854 266.656 771.022C269.073 770.81 271.518 770.696 273.989 770.696C295.984 770.709 317.074 779.449 332.623 794.995C348.171 810.541 356.905 831.62 356.905 853.599C356.905 875.577 348.171 896.657 332.623 912.203C317.074 927.748 295.984 936.489 273.989 936.502C271.521 936.502 269.081 936.386 266.668 936.175C287.318 934.34 306.533 924.847 320.529 909.564C334.525 894.28 342.288 874.315 342.29 853.599Z" fill="black"/>
<path d="M277.85 837.158H218.384V842.755H277.85V837.158Z" fill="#6C63FF"/>
<path d="M322.625 856.047H218.384V862.344H322.625V856.047Z" fill="#6C63FF"/>
<path d="M322.625 874.937H218.384V881.233H322.625V874.937Z" fill="#6C63FF"/>
</g>
<defs>
<clipPath id="clip0_384_525">
<rect width="889.972" height="561.502" fill="white" transform="translate(70)"/>
</clipPath>
<clipPath id="clip1_384_525">
<rect width="693.537" height="658.073" fill="white" transform="translate(998 350)"/>
</clipPath>
<clipPath id="clip2_384_525">
<rect width="453" height="428" fill="white" transform="translate(12 691)"/>
</clipPath>
</defs>
</svg>
