<svg width="1080" height="1080" viewBox="0 0 1080 1080" fill="none" xmlns="http://www.w3.org/2000/svg">
<path d="M812.854 216.828C812.854 265.38 773.51 304.729 724.969 304.729C676.438 304.729 637.094 265.38 637.094 216.828C637.094 168.281 676.438 128.927 724.969 128.927C773.51 128.927 812.854 168.281 812.854 216.828Z" fill="#6C63FF"/>
<path d="M646.656 213.563H646.609C646.12 213.531 645.734 213.115 645.761 212.62C645.938 209.276 646.323 205.927 646.912 202.651C647.005 202.161 647.469 201.839 647.958 201.927C648.448 202.021 648.771 202.484 648.682 202.969C648.099 206.172 647.729 209.443 647.552 212.708C647.526 213.193 647.136 213.563 646.656 213.563Z" fill="#6C63FF"/>
<path d="M726.828 290.604C687.115 290.604 654.922 258.401 654.922 218.677C654.922 178.953 687.115 146.75 726.828 146.75C766.542 146.75 798.734 178.953 798.734 218.677C798.734 258.401 766.542 290.604 726.828 290.604Z" fill="#F2F2F2"/>
<path d="M747.911 190.24C747.911 202.833 737.693 216.437 725.099 216.437C712.5 216.437 702.292 202.833 702.292 190.24C702.292 177.641 712.5 168.698 725.099 168.698C737.693 168.698 747.911 177.641 747.911 190.24Z" fill="#6C63FF"/>
<path d="M696.792 264.953H752.474C758.334 264.953 763.516 261.161 765.307 255.573L768.297 246.214C770.495 239.354 766.927 231.927 760.172 229.458C737.516 221.167 714.078 222.234 690.084 230.224C683.36 232.458 679.625 239.651 681.479 246.495L683.787 255C685.38 260.87 690.714 264.953 696.792 264.953Z" fill="#6C63FF"/>
<path d="M593.099 909.359C593.099 959.031 552.844 999.302 503.182 999.302C453.521 999.302 413.26 959.031 413.26 909.359C413.26 859.688 453.521 819.417 503.182 819.417C552.844 819.417 593.099 859.688 593.099 909.359Z" fill="#6BF15F"/>
<path d="M590.115 909.359C590.115 957.38 551.193 996.312 503.182 996.312C455.172 996.312 416.25 957.38 416.25 909.359C416.25 861.333 455.172 822.406 503.182 822.406C551.193 822.406 590.115 861.333 590.115 909.359Z" fill="#6BF15F"/>
<path d="M431.5 874.193C431.354 874.193 431.209 874.161 431.073 874.094C430.599 873.854 430.406 873.276 430.646 872.807C444.552 845.255 472.349 828.135 503.182 828.135C508.104 828.135 513.031 828.578 517.828 829.453C518.349 829.547 518.693 830.042 518.599 830.563C518.5 831.083 518.005 831.438 517.485 831.333C512.802 830.479 507.99 830.052 503.182 830.052C473.073 830.052 445.932 846.76 432.354 873.667C432.188 874 431.849 874.193 431.5 874.193Z" fill="white"/>
<path d="M505.073 984.849C464.443 984.849 431.5 951.901 431.5 911.255C431.5 886.573 443.646 864.729 462.281 851.375C466.927 861.87 474.641 870.698 484.286 876.714C476.859 881.297 472.792 888.375 472.792 896.776C472.792 910.813 484.234 917.76 500.177 922.12C511.339 925.12 515.974 928.115 515.974 933.156C515.974 938.745 509.979 941.474 501.943 941.474C494.198 941.474 487.021 939.536 481.203 937.099C480.599 936.849 479.979 936.729 479.37 936.729C477.339 936.729 475.448 938.052 474.87 940.156L472.833 947.615C472.234 949.818 473.302 952.172 475.391 953.089C481.255 955.651 489.51 957.625 497.854 957.958V965.964C497.854 968.542 499.948 970.63 502.521 970.63H507.224C509.797 970.63 511.885 968.542 511.885 965.964V957C529.328 954.276 538.318 943.38 538.318 931.25C538.318 918.031 530.958 910.677 513.25 905.359C500.854 901.547 495.13 898.547 495.13 894.188C495.13 890.641 497.854 886.693 507.396 886.693C514.938 886.693 520.745 888.307 524.854 889.859C525.401 890.068 525.958 890.172 526.5 890.172C528.536 890.172 530.422 888.818 530.995 886.719L532.13 882.516C543.417 878.823 553.146 871.708 560.099 862.391C571.641 875.391 578.651 892.5 578.651 911.255C578.651 951.901 545.714 984.849 505.073 984.849Z" fill="#6BF15F"/>
<path d="M497.854 965.964V957.958C489.51 957.625 481.255 955.651 475.391 953.089C473.302 952.172 472.234 949.818 472.833 947.615L474.87 940.156C475.615 937.422 478.594 936.005 481.203 937.099C487.021 939.536 494.198 941.474 501.943 941.474C509.979 941.474 515.974 938.745 515.974 933.156C515.974 928.115 511.339 925.12 500.177 922.12C484.234 917.76 472.792 910.813 472.792 896.776C472.792 884.104 482.052 874.427 498.13 871.844V863.833C498.13 861.255 500.214 859.167 502.792 859.167H507.495C510.068 859.167 512.161 861.255 512.161 863.833V871.021C519.88 871.333 525.5 872.651 529.964 874.219C532.25 875.026 533.495 877.484 532.865 879.828L530.995 886.719C530.276 889.38 527.427 890.839 524.854 889.859C520.745 888.307 514.938 886.693 507.396 886.693C497.854 886.693 495.13 890.641 495.13 894.188C495.13 898.547 500.854 901.547 513.25 905.359C530.958 910.677 538.318 918.031 538.318 931.25C538.318 943.38 529.328 954.276 511.885 957V965.964C511.885 968.542 509.797 970.63 507.224 970.63H502.521C499.948 970.63 497.854 968.542 497.854 965.964Z" fill="#F2F2F2"/>
<path d="M943.453 771.417C943.552 819.557 904.609 858.656 856.489 858.745C808.364 858.844 769.271 819.896 769.177 771.755C769.088 723.62 808.021 684.521 856.146 684.427C904.271 684.333 943.359 723.276 943.453 771.417Z" fill="#6BF15F"/>
<path d="M940.552 771.427C940.64 817.964 903 855.76 856.474 855.849C809.953 855.943 772.161 818.292 772.068 771.755C771.979 725.214 809.62 687.422 856.146 687.328C902.672 687.24 940.463 724.891 940.552 771.427Z" fill="#6BF15F"/>
<path d="M786.781 737.651C786.64 737.651 786.5 737.62 786.359 737.552C785.906 737.323 785.718 736.76 785.953 736.307C799.375 709.578 826.276 692.943 856.161 692.875C856.208 692.875 856.26 692.875 856.312 692.875C861.031 692.875 865.75 693.302 870.354 694.13C870.859 694.219 871.192 694.698 871.104 695.208C871.026 695.656 870.635 695.974 870.198 695.974C870.146 695.974 870.083 695.969 870.031 695.958C865.536 695.146 860.922 694.734 856.312 694.734C856.265 694.734 856.213 694.734 856.161 694.734C826.984 694.792 800.718 711.042 787.609 737.135C787.448 737.458 787.12 737.651 786.781 737.651Z" fill="#6BF15F"/>
<path d="M858.151 844.74C818.838 844.74 786.927 812.901 786.849 773.563C786.776 734.177 818.635 702.182 858.015 702.104C858.062 702.104 858.109 702.104 858.156 702.104C897.469 702.104 929.375 733.943 929.448 773.286C929.531 812.672 897.666 844.667 858.291 844.74C858.245 844.74 858.193 844.74 858.151 844.74Z" fill="#6BF15F"/>
<path d="M851.255 826.453L851.24 818.698C843.156 818.391 835.151 816.495 829.469 814.016C827.438 813.13 826.396 810.859 826.979 808.719L828.932 801.49C829.651 798.839 832.537 797.458 835.068 798.516C840.708 800.87 847.667 802.724 855.167 802.708C862.964 802.693 868.761 800.042 868.75 794.63C868.745 789.745 864.245 786.844 853.417 783.964C837.969 779.766 826.865 773.057 826.839 759.458C826.813 747.172 835.771 737.781 851.344 735.24L851.328 727.484C851.318 724.99 853.339 722.958 855.844 722.953L860.396 722.943C862.896 722.937 864.917 724.958 864.927 727.458L864.938 734.422C872.422 734.714 877.875 735.974 882.198 737.49C884.417 738.26 885.625 740.646 885.021 742.917L883.214 749.599C882.526 752.182 879.771 753.594 877.276 752.656C873.292 751.156 867.662 749.604 860.349 749.615C851.104 749.635 848.479 753.469 848.485 756.901C848.49 761.13 854.042 764.021 866.063 767.698C883.229 772.812 890.375 779.932 890.396 792.74C890.422 804.49 881.729 815.073 864.833 817.745L864.854 826.427C864.86 828.927 862.839 830.953 860.344 830.958L855.787 830.969C853.292 830.974 851.261 828.953 851.255 826.453Z" fill="white"/>
<path d="M1036.64 548.521C1040.65 610.828 993.412 664.589 931.115 668.604C868.828 672.615 815.078 625.354 811.063 563.047C807.057 500.74 854.307 446.979 916.594 442.969C978.886 438.953 1032.63 486.214 1036.64 548.521Z" fill="#6BF15F"/>
<path d="M1032.89 548.76C1036.77 608.995 991.089 660.974 930.87 664.849C870.651 668.724 818.688 623.042 814.818 562.802C810.938 502.568 856.615 450.599 916.834 446.719C977.052 442.839 1029.01 488.526 1032.89 548.76Z" fill="#6BF15F"/>
<path d="M831.026 517.464C830.875 517.464 830.714 517.432 830.557 517.37C829.943 517.115 829.662 516.401 829.917 515.797C845.135 480.109 878.62 456.396 917.297 453.901C919.51 453.755 921.724 453.693 923.943 453.693C927.906 453.693 931.865 453.917 935.781 454.37C936.438 454.448 936.912 455.042 936.833 455.703C936.766 456.313 936.255 456.766 935.651 456.766C935.604 456.766 935.547 456.766 935.495 456.76C931.682 456.318 927.813 456.094 923.948 456.094C921.781 456.094 919.62 456.162 917.448 456.302C879.688 458.734 846.984 481.891 832.125 516.734C831.948 517.172 831.542 517.432 831.104 517.464C831.078 517.464 831.052 517.464 831.026 517.464Z" fill="#6BF15F"/>
<path d="M926.287 650.516C877.922 650.516 837.24 612.911 834.089 563.948C830.818 512.969 869.469 468.979 920.438 465.693C922.464 465.563 924.474 465.5 926.469 465.5C974.833 465.5 1015.52 503.104 1018.67 552.062C1021.95 603.047 983.287 647.036 932.318 650.318C930.302 650.448 928.281 650.516 926.287 650.516Z" fill="#6BF15F"/>
<path d="M921.75 627.214L921.094 617.172C910.604 617.427 900.088 615.62 892.531 612.875C889.828 611.896 888.302 609.036 888.875 606.224L890.828 596.698C891.542 593.208 895.156 591.193 898.526 592.359C906.016 594.943 915.182 596.792 924.891 596.167C934.974 595.51 942.271 591.604 941.818 584.604C941.411 578.276 935.365 574.896 921.104 572.031C900.76 567.849 885.849 560.057 884.713 542.453C883.698 526.563 894.526 513.682 914.49 509.13L913.844 499.083C913.635 495.849 916.083 493.068 919.312 492.859L925.219 492.479C928.443 492.276 931.229 494.724 931.437 497.958L932.016 506.969C941.729 506.74 948.885 507.943 954.609 509.542C957.536 510.37 959.302 513.359 958.703 516.344L956.911 525.146C956.213 528.536 952.771 530.599 949.463 529.578C944.187 527.964 936.771 526.406 927.302 527.016C915.344 527.781 912.25 532.958 912.531 537.406C912.885 542.875 920.307 546.172 936.156 549.953C958.802 555.188 968.625 563.823 969.693 580.406C970.667 595.62 960.276 610.016 938.615 614.844L939.344 626.078C939.547 629.313 937.104 632.099 933.87 632.313L927.963 632.688C924.734 632.901 921.953 630.448 921.75 627.214Z" fill="white"/>
<path d="M571.391 828.328C571.391 859.807 545.88 885.328 514.412 885.328C482.943 885.328 457.427 859.807 457.427 828.328C457.427 796.854 482.943 771.333 514.412 771.333C545.88 771.333 571.391 796.854 571.391 828.328Z" fill="#6BF15F"/>
<path d="M569.495 828.328C569.495 858.76 544.833 883.427 514.411 883.427C483.99 883.427 459.328 858.76 459.328 828.328C459.328 797.896 483.99 773.229 514.411 773.229C544.833 773.229 569.495 797.896 569.495 828.328Z" fill="#6BF15F"/>
<path d="M468.989 806.047C468.901 806.047 468.802 806.026 468.713 805.984C468.416 805.828 468.297 805.464 468.448 805.167C477.255 787.708 494.87 776.859 514.411 776.859C517.526 776.859 520.656 777.141 523.692 777.693C524.021 777.755 524.239 778.068 524.182 778.396C524.13 778.688 523.875 778.896 523.588 778.896C523.552 778.896 523.515 778.896 523.479 778.885C520.505 778.344 517.458 778.073 514.411 778.073C495.333 778.073 478.13 788.661 469.526 805.714C469.422 805.922 469.213 806.047 468.989 806.047Z" fill="#FDF8DA"/>
<path d="M515.61 876.167C489.86 876.167 468.99 855.286 468.99 829.531C468.99 803.776 489.86 782.896 515.61 782.896C541.36 782.896 562.24 803.776 562.24 829.531C562.24 855.286 541.36 876.167 515.61 876.167Z" fill="#FDF8DA"/>
<path d="M511.036 864.198V859.125C505.745 858.911 500.515 857.667 496.807 856.042C495.474 855.458 494.802 853.969 495.182 852.568L496.469 847.849C496.943 846.109 498.828 845.214 500.484 845.906C504.167 847.458 508.719 848.682 513.625 848.682C518.719 848.682 522.521 846.953 522.521 843.406C522.521 840.219 519.583 838.318 512.505 836.417C502.406 833.651 495.151 829.25 495.151 820.359C495.151 812.328 501.021 806.193 511.208 804.552V799.479C511.208 797.849 512.531 796.526 514.167 796.526H517.146C518.781 796.526 520.104 797.849 520.104 799.479V804.036C524.989 804.234 528.557 805.073 531.38 806.063C532.833 806.573 533.625 808.135 533.219 809.615L532.031 813.984C531.578 815.667 529.776 816.594 528.146 815.979C525.542 814.99 521.859 813.969 517.078 813.969C511.036 813.969 509.312 816.469 509.312 818.714C509.312 821.479 512.937 823.38 520.792 825.797C532.01 829.161 536.672 833.828 536.672 842.198C536.672 849.891 530.979 856.792 519.927 858.521V864.198C519.927 865.833 518.604 867.156 516.974 867.156H513.995C512.359 867.156 511.036 865.833 511.036 864.198Z" fill="#6BF15F"/>
<path d="M798.261 914.109C795.636 954.411 760.839 984.958 720.552 982.333C680.255 979.714 649.719 944.911 652.344 904.609C654.964 864.307 689.755 833.76 730.047 836.38C770.339 839.005 800.88 873.807 798.261 914.109Z" fill="#6BF15F"/>
<path d="M795.828 913.953C793.292 952.917 759.656 982.448 720.698 979.911C681.75 977.37 652.224 943.729 654.766 904.771C657.297 865.802 690.927 836.271 729.886 838.807C768.839 841.349 798.36 874.99 795.828 913.953Z" fill="#6BF15F"/>
<path d="M669.047 877.047C669.026 877.047 669.01 877.047 668.995 877.036C668.875 877.036 668.755 877 668.651 876.932C668.281 876.714 668.151 876.24 668.375 875.87C680.364 855.516 701.854 843.312 725.208 843.312C726.661 843.312 728.12 843.359 729.588 843.458C733.583 843.714 737.552 844.333 741.401 845.302C741.818 845.406 742.073 845.823 741.969 846.24C741.875 846.594 741.562 846.839 741.213 846.839C741.151 846.839 741.088 846.828 741.026 846.807C737.271 845.87 733.385 845.26 729.484 845.01C728.057 844.917 726.625 844.87 725.213 844.87C702.406 844.87 681.422 856.781 669.719 876.656C669.568 876.906 669.307 877.047 669.047 877.047Z" fill="#6BF15F"/>
<path d="M726.792 970.839C725.479 970.839 724.172 970.797 722.844 970.708C689.875 968.562 664.891 940.089 667.037 907.109C669.099 875.453 695.406 851.156 726.672 851.156C727.985 851.156 729.297 851.198 730.62 851.281C763.589 853.427 788.578 881.901 786.427 914.885C784.37 946.536 758.058 970.839 726.792 970.839Z" fill="#6BF15F"/>
<path d="M717.984 955.005L718.411 948.505C711.656 947.797 705.068 945.766 700.443 943.37C698.792 942.516 698.052 940.557 698.656 938.797L700.703 932.854C701.448 930.672 703.937 929.682 706.005 930.708C710.594 932.995 716.318 934.938 722.594 935.344C729.115 935.771 734.13 933.88 734.417 929.344C734.682 925.255 731.088 922.578 722.182 919.557C709.479 915.172 700.562 908.932 701.307 897.547C701.969 887.26 710 879.901 723.177 878.651L723.599 872.156C723.74 870.063 725.542 868.474 727.63 868.615L731.448 868.865C733.542 869 735.125 870.802 734.984 872.896L734.604 878.729C740.854 879.385 745.349 880.755 748.88 882.266C750.693 883.036 751.578 885.099 750.943 886.964L749.057 892.458C748.328 894.583 745.953 895.609 743.911 894.682C740.656 893.208 736.031 891.589 729.911 891.193C722.172 890.688 719.755 893.745 719.562 896.625C719.338 900.161 723.818 902.896 733.677 906.646C747.771 911.896 753.344 918.255 752.646 928.979C752.005 938.818 744.141 947.182 729.849 948.479L729.37 955.745C729.24 957.839 727.432 959.422 725.344 959.286L721.526 959.036C719.437 958.901 717.854 957.099 717.984 955.005Z" fill="white"/>
<path d="M661.26 707.021C544.917 707.021 428.573 707.021 312.229 707.021C243.901 567.99 175.573 426.161 107.245 285.729C360.245 285.729 613.245 285.729 866.245 285.729C797.917 426.161 729.588 567.99 661.26 707.021Z" fill="#D9D9D9"/>
<path d="M890.823 290.948C890.823 295.818 886.87 299.766 882.005 299.766H92.3646C87.4948 299.766 83.5469 295.818 83.5469 290.948V277.688C83.5469 272.823 87.4948 268.875 92.3646 268.875H882.005C886.87 268.875 890.823 272.823 890.823 277.688V290.948Z" fill="#F2F2F2"/>
<path d="M637.11 871.13C537.474 871.13 437.839 871.13 338.203 871.13C329.537 819.172 320.875 761.594 312.208 706.828C429.172 706.828 544.646 706.516 661.604 706.516C652.948 761.281 645.771 819.172 637.11 871.13Z" fill="#2F2E41"/>
<path d="M645.125 872.688C645.125 878.75 641.39 882.557 636.984 882.557H334.219C329.818 882.557 326.432 878.75 326.432 872.688V865.943C326.432 859.88 329.818 854.474 334.219 854.474H636.984C641.39 854.474 645.125 859.88 645.125 865.943V872.688Z" fill="#F2F2F2"/>
<path d="M477.115 626.391C476.255 626.391 475.412 626.021 474.828 625.307C473.823 624.073 472.818 622.797 471.854 621.495C470.88 620.198 471.146 618.349 472.443 617.375C473.75 616.401 475.594 616.661 476.568 617.969C477.49 619.198 478.438 620.417 479.401 621.583C480.427 622.849 480.235 624.703 478.974 625.729C478.427 626.177 477.766 626.391 477.115 626.391Z" fill="white" fill-opacity="0.5"/>
<path d="M559.042 440.286C557.49 440.286 556.193 439.073 556.104 437.51C556.011 435.88 557.25 434.49 558.875 434.391C561.104 434.266 563.365 434.198 565.578 434.198H565.615C566.698 434.198 567.787 434.214 568.87 434.245C570.495 434.292 571.776 435.651 571.729 437.276C571.682 438.901 570.333 440.156 568.703 440.135C567.672 440.109 566.641 440.094 565.615 440.094H565.578C563.474 440.094 561.333 440.156 559.214 440.281C559.162 440.281 559.099 440.286 559.042 440.286ZM533.886 444.62C532.61 444.62 531.427 443.781 531.057 442.49C530.599 440.927 531.505 439.297 533.068 438.839C536.261 437.917 539.526 437.115 542.776 436.464C544.354 436.146 545.922 437.177 546.24 438.776C546.557 440.37 545.526 441.927 543.927 442.245C540.844 442.859 537.74 443.625 534.708 444.5C534.432 444.583 534.156 444.62 533.886 444.62ZM510.307 454.396C509.276 454.396 508.271 453.844 507.729 452.87C506.943 451.448 507.458 449.656 508.88 448.87C511.781 447.271 514.792 445.771 517.828 444.411C519.307 443.755 521.057 444.417 521.719 445.906C522.38 447.391 521.714 449.135 520.224 449.797C517.344 451.083 514.479 452.51 511.735 454.026C511.281 454.276 510.797 454.396 510.307 454.396ZM489.5 469.167C488.693 469.167 487.886 468.839 487.307 468.187C486.219 466.974 486.323 465.109 487.537 464.031C490.011 461.807 492.61 459.677 495.261 457.687C496.563 456.714 498.406 456.969 499.386 458.276C500.36 459.578 500.099 461.422 498.797 462.401C496.281 464.286 493.813 466.312 491.464 468.417C490.906 468.922 490.198 469.167 489.5 469.167ZM472.516 488.219C471.927 488.219 471.333 488.042 470.818 487.677C469.49 486.734 469.177 484.896 470.115 483.568C472.031 480.865 474.083 478.203 476.229 475.672C477.281 474.427 479.141 474.266 480.38 475.318C481.625 476.37 481.781 478.224 480.735 479.469C478.698 481.88 476.745 484.406 474.922 486.979C474.349 487.786 473.438 488.219 472.516 488.219ZM460.172 510.568C459.797 510.568 459.417 510.495 459.047 510.339C457.547 509.719 456.833 507.99 457.458 506.495C458.729 503.432 460.141 500.375 461.672 497.432C462.422 495.984 464.198 495.422 465.641 496.172C467.089 496.917 467.651 498.698 466.901 500.141C465.448 502.943 464.104 505.844 462.896 508.75C462.427 509.885 461.328 510.568 460.172 510.568ZM453.083 535.094C452.922 535.094 452.755 535.078 452.583 535.052C450.985 534.776 449.901 533.255 450.177 531.651C450.74 528.38 451.448 525.099 452.287 521.88C452.693 520.302 454.307 519.365 455.875 519.771C457.448 520.177 458.401 521.792 457.985 523.365C457.193 526.422 456.521 529.542 455.99 532.646C455.74 534.083 454.495 535.094 453.083 535.094ZM451.63 560.594C450.078 560.594 448.776 559.38 448.688 557.812C448.568 555.656 448.505 553.474 448.505 551.307C448.505 550.135 448.526 548.974 448.557 547.807C448.61 546.182 449.932 544.932 451.594 544.953C453.219 545 454.5 546.359 454.448 547.99C454.417 549.094 454.401 550.203 454.401 551.307C454.401 553.359 454.458 555.437 454.568 557.484C454.667 559.109 453.417 560.495 451.792 560.589C451.74 560.594 451.682 560.594 451.63 560.594ZM455.917 585.766C454.636 585.766 453.453 584.927 453.078 583.635C452.167 580.443 451.37 577.172 450.729 573.922C450.412 572.323 451.448 570.776 453.047 570.458C454.636 570.141 456.188 571.177 456.511 572.776C457.115 575.87 457.87 578.969 458.745 582.005C459.193 583.568 458.292 585.198 456.729 585.651C456.453 585.729 456.177 585.766 455.917 585.766ZM465.646 609.375C464.61 609.375 463.594 608.823 463.057 607.844C461.469 604.943 459.974 601.927 458.625 598.885C457.964 597.396 458.636 595.661 460.125 595.005C461.61 594.339 463.354 595.016 464.016 596.5C465.292 599.391 466.708 602.25 468.224 605.005C469.011 606.432 468.485 608.229 467.057 609.016C466.61 609.255 466.12 609.375 465.646 609.375Z" fill="white" fill-opacity="0.5"/>
<path d="M589.219 442.578C589.016 442.578 588.813 442.557 588.604 442.516C587.099 442.193 585.578 441.901 584.094 441.651C582.49 441.38 581.406 439.859 581.688 438.255C581.953 436.651 583.479 435.568 585.083 435.838C586.646 436.104 588.245 436.411 589.828 436.745C591.417 437.083 592.432 438.646 592.094 440.245C591.802 441.625 590.578 442.578 589.219 442.578Z" fill="white" fill-opacity="0.5"/>
<path d="M662.437 493.828C661.453 493.828 660.495 493.333 659.932 492.443C659.114 491.125 658.276 489.833 657.427 488.594C656.51 487.25 656.854 485.422 658.198 484.495C659.541 483.578 661.375 483.927 662.291 485.271C663.182 486.578 664.073 487.943 664.932 489.323C665.797 490.703 665.37 492.521 663.989 493.385C663.505 493.687 662.969 493.828 662.437 493.828Z" fill="white" fill-opacity="0.5"/>
<path d="M673.281 516.49C672.068 516.49 670.932 515.734 670.5 514.521C669.474 511.583 668.312 508.661 667.052 505.833C666.385 504.349 667.052 502.609 668.542 501.943C670.026 501.281 671.766 501.948 672.427 503.438C673.76 506.406 674.979 509.484 676.062 512.573C676.604 514.104 675.792 515.786 674.255 516.328C673.932 516.438 673.604 516.49 673.281 516.49ZM678.953 540.969C677.484 540.969 676.208 539.865 676.036 538.365C675.672 535.286 675.167 532.182 674.547 529.146C674.219 527.552 675.245 525.995 676.844 525.667C678.432 525.339 679.995 526.37 680.323 527.964C680.974 531.161 681.505 534.427 681.885 537.672C682.083 539.286 680.927 540.755 679.312 540.948C679.187 540.964 679.073 540.969 678.953 540.969ZM679.13 566.094C679.031 566.094 678.922 566.089 678.818 566.078C677.203 565.906 676.026 564.458 676.198 562.839C676.521 559.75 676.713 556.615 676.776 553.521C676.807 551.891 678.198 550.609 679.781 550.63C681.406 550.661 682.698 552.01 682.667 553.635C682.604 556.901 682.396 560.203 682.057 563.453C681.901 564.969 680.62 566.094 679.13 566.094ZM673.771 590.641C673.458 590.641 673.146 590.594 672.833 590.49C671.292 589.969 670.458 588.297 670.979 586.755C671.974 583.813 672.849 580.792 673.588 577.786C673.974 576.208 675.568 575.24 677.156 575.625C678.734 576.016 679.698 577.615 679.312 579.193C678.531 582.359 677.604 585.542 676.562 588.641C676.146 589.87 675.005 590.641 673.771 590.641ZM663.193 613.427C662.672 613.427 662.146 613.292 661.672 613C660.276 612.161 659.833 610.349 660.672 608.953C662.276 606.302 663.786 603.547 665.172 600.766C665.891 599.313 667.656 598.719 669.115 599.438C670.573 600.161 671.172 601.932 670.448 603.391C668.995 606.318 667.401 609.219 665.719 612.005C665.161 612.922 664.187 613.427 663.193 613.427ZM647.911 633.359C647.182 633.359 646.448 633.083 645.875 632.542C644.703 631.411 644.661 629.547 645.786 628.37C647.927 626.141 650.005 623.781 651.958 621.37C652.984 620.104 654.838 619.906 656.099 620.927C657.37 621.953 657.562 623.813 656.542 625.073C654.479 627.62 652.292 630.099 650.042 632.448C649.458 633.052 648.687 633.359 647.911 633.359ZM628.641 649.448C627.682 649.448 626.745 648.984 626.177 648.13C625.281 646.771 625.656 644.943 627.01 644.042C629.594 642.333 632.135 640.495 634.568 638.568C635.849 637.557 637.698 637.776 638.713 639.052C639.719 640.328 639.5 642.182 638.229 643.193C635.661 645.219 632.984 647.156 630.26 648.958C629.76 649.286 629.198 649.448 628.641 649.448ZM606.292 660.906C605.104 660.906 603.984 660.188 603.536 659.01C602.958 657.49 603.724 655.792 605.245 655.208C608.146 654.104 611.026 652.865 613.823 651.526C615.292 650.818 617.052 651.443 617.75 652.906C618.453 654.375 617.838 656.135 616.37 656.839C613.432 658.25 610.391 659.552 607.338 660.719C606.995 660.849 606.641 660.906 606.292 660.906ZM581.979 667.25C580.547 667.25 579.286 666.198 579.068 664.729C578.833 663.12 579.948 661.62 581.557 661.385C584.62 660.943 587.708 660.349 590.734 659.646C592.328 659.276 593.901 660.26 594.271 661.844C594.641 663.432 593.656 665.016 592.073 665.385C588.885 666.13 585.635 666.745 582.411 667.219C582.266 667.24 582.125 667.25 581.979 667.25ZM565.599 668.443C562.625 668.443 559.62 668.328 556.656 668.099C555.031 667.979 553.823 666.557 553.948 664.938C554.068 663.313 555.516 662.104 557.109 662.224C559.922 662.438 562.771 662.552 565.588 662.552L566.437 662.547H566.458C568.078 662.547 569.396 663.849 569.406 665.469C569.422 667.099 568.115 668.427 566.484 668.438L565.599 668.443Z" fill="white" fill-opacity="0.5"/>
<path d="M541.422 665.839C541.213 665.839 541 665.818 540.786 665.766C539.203 665.422 537.62 665.047 536.088 664.646C534.515 664.229 533.573 662.62 533.984 661.047C534.401 659.474 536.01 658.531 537.583 658.943C539.036 659.323 540.541 659.688 542.047 660.016C543.635 660.359 544.646 661.927 544.297 663.516C543.995 664.901 542.776 665.839 541.422 665.839Z" fill="#C6C9D3"/>
<path d="M532.984 632.714C533.505 632.99 534.135 632.906 534.562 632.51L546.755 621.13C554.281 623.12 562.182 623.917 570.172 623.38L579.979 636.854C580.323 637.323 580.927 637.526 581.489 637.354L600.609 631.495C601.161 631.318 601.552 630.818 601.573 630.229L602.151 613.578C609.073 609.542 615.166 604.458 620.286 598.589L636.755 601.182C637.333 601.271 637.906 600.984 638.177 600.474L647.552 582.807C647.828 582.286 647.745 581.656 647.344 581.224L635.969 569.031C637.958 561.505 638.76 553.604 638.219 545.609L651.682 535.802C652.156 535.458 652.364 534.854 652.187 534.286L646.328 515.167C646.156 514.609 645.651 514.219 645.068 514.203L628.416 513.625C624.385 506.698 619.297 500.609 613.437 495.484L616.021 479.01C616.12 478.432 615.833 477.859 615.312 477.589L597.651 468.208C597.135 467.932 596.5 468.021 596.078 468.417L583.89 479.792C576.359 477.807 568.463 477.005 560.469 477.547L550.661 464.068C550.318 463.599 549.708 463.396 549.156 463.568L530.036 469.432C529.479 469.604 529.088 470.115 529.068 470.693L528.489 487.349C521.573 491.38 515.474 496.469 510.349 502.333L493.885 499.74C493.307 499.651 492.739 499.937 492.458 500.458L483.088 518.12C482.818 518.635 482.901 519.271 483.297 519.698L494.672 531.891C492.682 539.422 491.885 547.323 492.416 555.318L478.953 565.125C478.484 565.469 478.281 566.073 478.448 566.635L484.307 585.755C484.484 586.312 484.984 586.703 485.573 586.724L502.219 587.297C506.255 594.224 511.338 600.323 517.203 605.443L514.614 621.917C514.526 622.495 514.812 623.068 515.323 623.339L532.984 632.714Z" fill="#F2F2F2"/>
<path d="M568.276 536.724C564.891 535.99 561.229 536.5 558.036 538.432C554.828 540.38 552.562 543.464 551.672 547.109C550.776 550.76 551.354 554.536 553.297 557.75C555.24 560.958 558.323 563.219 561.969 564.115C565.635 565.036 569.391 564.432 572.604 562.49V562.484C575.818 560.542 578.078 557.458 578.974 553.818C579.865 550.167 579.292 546.385 577.349 543.177C575.26 539.734 571.927 537.51 568.276 536.724ZM560.812 571.443C560.604 571.396 560.406 571.349 560.203 571.302C554.641 569.938 549.943 566.479 546.974 561.578C544.005 556.677 543.12 550.911 544.484 545.349C545.854 539.781 549.302 535.078 554.208 532.109C564.318 525.979 577.536 529.224 583.667 539.344C586.635 544.245 587.516 550.01 586.156 555.573C584.792 561.146 581.338 565.844 576.437 568.818C571.708 571.677 566.182 572.599 560.812 571.443Z" fill="#CBCCCE"/>
<path d="M569.151 599.979C568.38 599.812 567.766 599.156 567.698 598.333C567.682 598.141 567.693 597.953 567.734 597.781C567.901 597.005 568.552 596.401 569.385 596.328C572.646 596.052 575.911 595.417 579.083 594.448C579.229 594.401 579.375 594.359 579.521 594.307C590.583 590.802 599.771 583.432 605.583 573.437C605.708 573.208 605.839 572.984 605.969 572.755C606.141 572.453 606.307 572.146 606.474 571.833C608.516 567.984 609.99 563.937 610.88 559.786C612.526 552.141 612.203 544.156 609.849 536.474C602.354 512.005 576.354 498.198 551.891 505.698C535.26 510.797 523.557 524.453 520.125 540.359C518.51 547.849 518.724 555.839 521.125 563.672C523.589 571.714 528.177 578.932 534.391 584.526C534.901 584.99 535.099 585.667 534.964 586.292C534.901 586.599 534.755 586.891 534.526 587.141C533.844 587.896 532.677 587.953 531.917 587.276C525.203 581.234 520.25 573.443 517.594 564.755C515 556.302 514.76 547.677 516.51 539.589C520.214 522.411 532.849 507.661 550.807 502.161C577.219 494.068 605.292 508.974 613.385 535.385C615.927 543.682 616.276 552.307 614.495 560.562C613.531 565.036 611.943 569.411 609.734 573.562C603.464 585.391 592.964 594.057 580.167 597.979C580 598.031 579.833 598.083 579.667 598.135C576.401 599.094 573.052 599.729 569.698 600.016C569.51 600.031 569.328 600.016 569.151 599.979Z" fill="#CBCCCE"/>
<path d="M360.672 450.656C359.531 450.656 358.448 449.99 357.964 448.875C357.318 447.37 356.708 445.839 356.156 444.333C355.604 442.802 356.391 441.109 357.922 440.557C359.453 440.005 361.141 440.786 361.698 442.323C362.203 443.719 362.771 445.135 363.375 446.536C364.021 448.031 363.333 449.766 361.839 450.411C361.458 450.573 361.063 450.656 360.672 450.656Z" fill="white" fill-opacity="0.5"/>
<path d="M419.688 338.969C418.302 338.969 417.068 337.99 416.797 336.573C416.49 334.979 417.537 333.432 419.136 333.125C422.333 332.516 425.615 332.078 428.88 331.844C430.521 331.714 431.917 332.943 432.037 334.563C432.156 336.193 430.938 337.599 429.313 337.724C426.271 337.948 423.219 338.344 420.24 338.917C420.057 338.953 419.87 338.969 419.688 338.969ZM453.865 339.714C453.636 339.714 453.406 339.688 453.177 339.63C450.224 338.927 447.193 338.391 444.172 338.036C442.557 337.844 441.396 336.38 441.583 334.766C441.771 333.151 443.229 331.99 444.854 332.177C448.11 332.563 451.365 333.141 454.547 333.896C456.125 334.276 457.104 335.87 456.724 337.453C456.401 338.802 455.193 339.714 453.865 339.714ZM396.313 347.344C395.271 347.344 394.261 346.786 393.724 345.807C392.948 344.38 393.474 342.589 394.901 341.807C397.776 340.245 400.771 338.833 403.807 337.615C405.313 337.01 407.031 337.75 407.636 339.26C408.24 340.771 407.505 342.484 405.995 343.089C403.177 344.219 400.391 345.531 397.719 346.984C397.271 347.229 396.792 347.344 396.313 347.344ZM376.583 362.438C375.854 362.438 375.12 362.167 374.547 361.615C373.37 360.49 373.333 358.625 374.458 357.448C376.719 355.094 379.146 352.839 381.667 350.76C382.927 349.724 384.781 349.901 385.818 351.156C386.854 352.411 386.672 354.271 385.417 355.302C383.073 357.24 380.813 359.333 378.714 361.531C378.13 362.135 377.36 362.438 376.583 362.438ZM362.328 382.781C361.891 382.781 361.448 382.688 361.026 382.479C359.568 381.76 358.969 379.995 359.688 378.531C361.13 375.604 362.766 372.719 364.542 369.969C365.432 368.609 367.255 368.219 368.62 369.099C369.985 369.984 370.375 371.813 369.49 373.177C367.833 375.734 366.313 378.411 364.974 381.141C364.458 382.182 363.417 382.781 362.328 382.781ZM354.927 406.5C354.781 406.5 354.636 406.49 354.49 406.469C352.88 406.229 351.771 404.729 352.005 403.12C352.49 399.875 353.172 396.635 354.031 393.474C354.458 391.906 356.083 390.979 357.646 391.411C359.219 391.839 360.146 393.458 359.714 395.031C358.917 397.958 358.281 400.974 357.839 403.984C357.62 405.453 356.36 406.5 354.927 406.5ZM355.057 431.349C353.636 431.349 352.38 430.312 352.151 428.859C351.693 425.974 351.375 423.01 351.219 420.047C351.198 419.724 351.188 419.391 351.172 419.062C351.104 417.438 352.37 416.068 353.995 416C355.615 415.943 356.995 417.203 357.063 418.828C357.073 419.125 357.083 419.427 357.104 419.729C357.25 422.484 357.542 425.245 357.969 427.932C358.229 429.542 357.13 431.047 355.526 431.307C355.37 431.339 355.208 431.349 355.057 431.349Z" fill="white" fill-opacity="0.5"/>
<path d="M472.719 346.813C472.255 346.813 471.786 346.703 471.349 346.469C470.016 345.771 468.646 345.099 467.271 344.474C465.792 343.797 465.135 342.052 465.807 340.568C466.484 339.089 468.229 338.432 469.713 339.104C471.187 339.776 472.667 340.505 474.094 341.255C475.536 342.021 476.088 343.797 475.328 345.24C474.797 346.245 473.776 346.813 472.719 346.813Z" fill="#C6C9D3"/>
<path d="M513.182 397.281C511.88 397.281 510.693 396.417 510.339 395.104C509.948 393.641 509.505 392.177 509.026 390.755C508.511 389.214 509.339 387.542 510.886 387.021C512.432 386.51 514.099 387.339 514.615 388.88C515.13 390.417 515.604 391.995 516.031 393.557C516.453 395.135 515.526 396.75 513.953 397.172C513.698 397.245 513.438 397.281 513.182 397.281Z" fill="white" fill-opacity="0.5"/>
<path d="M515.953 421.573H515.833C514.208 421.505 512.937 420.141 513 418.51C513.036 417.557 513.052 416.594 513.052 415.63C513.052 414.229 513.015 412.807 512.937 411.391C512.911 410.766 512.87 410.135 512.818 409.51C512.693 407.891 513.901 406.469 515.526 406.349C517.151 406.214 518.568 407.427 518.687 409.052C518.745 409.719 518.791 410.396 518.828 411.073C518.906 412.594 518.948 414.125 518.948 415.63C518.948 416.672 518.927 417.703 518.89 418.729C518.833 420.318 517.521 421.573 515.953 421.573ZM511.364 445.578C511.036 445.578 510.703 445.526 510.375 445.406C508.849 444.865 508.041 443.177 508.588 441.646C509.588 438.823 510.437 435.917 511.099 433C511.463 431.417 513.041 430.422 514.63 430.781C516.213 431.146 517.203 432.729 516.844 434.312C516.13 437.448 515.219 440.583 514.14 443.62C513.708 444.823 512.578 445.578 511.364 445.578ZM499.797 467.115C499.182 467.115 498.562 466.922 498.036 466.526C496.729 465.542 496.469 463.698 497.443 462.396C499.25 459.995 500.922 457.474 502.432 454.891C503.25 453.49 505.057 453.016 506.458 453.839C507.864 454.661 508.338 456.469 507.515 457.87C505.896 460.641 504.094 463.354 502.161 465.932C501.578 466.703 500.693 467.115 499.797 467.115ZM482.37 484.234C481.453 484.234 480.552 483.807 479.974 483.016C479.021 481.693 479.318 479.849 480.64 478.896C483.062 477.146 485.411 475.234 487.62 473.219C488.823 472.12 490.687 472.203 491.781 473.406C492.88 474.604 492.797 476.469 491.599 477.568C489.219 479.74 486.698 481.797 484.094 483.677C483.568 484.052 482.963 484.234 482.37 484.234ZM460.62 495.375C459.385 495.375 458.234 494.599 457.823 493.354C457.307 491.818 458.146 490.146 459.687 489.63C462.526 488.687 465.338 487.562 468.047 486.302C469.515 485.609 471.271 486.25 471.963 487.724C472.656 489.198 472.015 490.953 470.541 491.641C467.625 493 464.599 494.214 461.552 495.229C461.239 495.328 460.927 495.375 460.62 495.375ZM421.416 498.375C421.25 498.375 421.088 498.359 420.916 498.333C417.745 497.792 414.573 497.062 411.484 496.161C409.922 495.703 409.026 494.068 409.484 492.505C409.937 490.943 411.573 490.047 413.135 490.5C416.005 491.344 418.958 492.021 421.906 492.521C423.51 492.792 424.594 494.318 424.318 495.917C424.073 497.359 422.828 498.375 421.416 498.375ZM436.531 499.495C434.932 499.495 433.62 498.208 433.588 496.604C433.562 494.974 434.849 493.635 436.479 493.599C437.38 493.589 438.286 493.552 439.193 493.5C441.281 493.391 443.39 493.193 445.458 492.917C447.068 492.698 448.552 493.833 448.771 495.443C448.984 497.062 447.854 498.547 446.234 498.755C444.015 499.052 441.75 499.266 439.51 499.385C438.536 499.437 437.562 499.479 436.588 499.495H436.531Z" fill="white" fill-opacity="0.5"/>
<path d="M398.167 490.651C397.713 490.651 397.255 490.542 396.828 490.328C395.38 489.583 393.937 488.792 392.547 487.974C391.146 487.146 390.677 485.339 391.5 483.943C392.323 482.536 394.13 482.068 395.536 482.891C396.828 483.656 398.167 484.385 399.51 485.083C400.958 485.823 401.531 487.599 400.792 489.047C400.271 490.062 399.234 490.651 398.167 490.651Z" fill="white" fill-opacity="0.5"/>
<path d="M397.031 464.833C397.328 465.12 397.776 465.187 398.146 465L408.667 459.588C413.422 462.396 418.661 464.469 424.224 465.651L428.312 476.74C428.458 477.135 428.833 477.385 429.25 477.375L443.432 477.068C443.849 477.057 444.213 476.786 444.338 476.396L447.953 465.135C453.458 463.719 458.599 461.422 463.229 458.406L473.974 463.359C474.349 463.531 474.797 463.453 475.078 463.151L484.896 452.901C485.182 452.599 485.245 452.146 485.062 451.781L479.651 441.26C482.458 436.5 484.531 431.26 485.708 425.698L496.802 421.609C497.187 421.458 497.443 421.088 497.432 420.667L497.13 406.484C497.12 406.068 496.849 405.703 496.458 405.578L485.198 401.963C483.781 396.458 481.484 391.312 478.474 386.682L483.422 375.937C483.594 375.557 483.51 375.109 483.213 374.823L472.963 365.01C472.667 364.719 472.213 364.656 471.849 364.849L461.328 370.255C456.573 367.448 451.333 365.37 445.771 364.193L441.677 353.104C441.531 352.713 441.161 352.458 440.745 352.469L426.557 352.776C426.146 352.781 425.781 353.052 425.656 353.448L422.042 364.708C416.536 366.125 411.396 368.422 406.76 371.432L396.021 366.484C395.641 366.307 395.198 366.396 394.911 366.698L385.099 376.943C384.807 377.245 384.745 377.693 384.932 378.062L390.344 388.588C387.531 393.344 385.463 398.583 384.286 404.141L373.193 408.24C372.807 408.38 372.552 408.76 372.557 409.172L372.864 423.359C372.875 423.776 373.146 424.141 373.542 424.266L384.797 427.88C386.213 433.385 388.51 438.531 391.521 443.161L386.573 453.906C386.401 454.286 386.484 454.729 386.781 455.021L397.031 464.833Z" fill="#F2F2F2"/>
<path d="M436.479 408.021C435.38 407.781 434.239 407.813 433.125 408.12C431.307 408.62 429.791 409.797 428.864 411.438C427.932 413.078 427.698 414.979 428.198 416.797C428.698 418.615 429.88 420.13 431.515 421.057C433.151 421.99 435.052 422.219 436.87 421.724C440.62 420.693 442.828 416.802 441.797 413.047C441.291 411.234 440.12 409.719 438.479 408.792C437.844 408.427 437.172 408.167 436.479 408.021ZM431.192 432.677C429.406 432.297 427.666 431.63 426.036 430.703C421.823 428.313 418.791 424.417 417.505 419.74C416.219 415.068 416.828 410.172 419.219 405.958C421.614 401.74 425.5 398.714 430.182 397.422C434.849 396.141 439.745 396.75 443.958 399.141C448.166 401.536 451.203 405.422 452.489 410.104C455.146 419.745 449.463 429.76 439.817 432.422C436.958 433.203 434.01 433.286 431.192 432.677Z" fill="#CBCCCE"/>
<path d="M428.271 450.12C427.292 449.906 426.656 448.953 426.849 447.964L426.854 447.922C427.062 446.943 428.026 446.307 429.016 446.5C431.26 446.932 433.573 447.125 435.885 447.078C435.943 447.078 435.995 447.073 436.057 447.073C453.406 446.609 467.271 432.49 467.568 415.266C467.578 414.839 467.578 414.417 467.568 413.984C467.182 396.13 452.338 381.917 434.489 382.297C425.833 382.484 417.781 386.031 411.797 392.276C407.599 396.662 404.776 402.005 403.526 407.787C402.995 410.255 402.75 412.802 402.807 415.385C402.932 421.26 404.641 426.974 407.75 431.917C408.021 432.344 408.094 432.833 407.995 433.292C407.896 433.76 407.609 434.193 407.172 434.469C406.307 435.01 405.167 434.755 404.625 433.891C401.156 428.38 399.25 422.01 399.109 415.464C399.047 412.583 399.323 409.75 399.917 407.005C401.307 400.563 404.453 394.604 409.125 389.719C415.792 382.755 424.771 378.807 434.406 378.604C454.302 378.172 470.833 394.01 471.266 413.906C471.323 416.792 471.047 419.599 470.463 422.302C467.021 438.255 452.979 450.406 435.963 450.776C435.745 450.781 435.531 450.781 435.318 450.781C433.104 450.792 430.896 450.604 428.739 450.208L428.682 450.198C428.557 450.177 428.432 450.151 428.312 450.13L428.271 450.12Z" fill="#CBCCCE"/>
<path d="M605.63 142.807C605.63 195.219 563.151 237.714 510.755 237.714C458.349 237.714 415.87 195.219 415.87 142.807C415.87 90.3958 458.349 47.901 510.755 47.901C563.151 47.901 605.63 90.3958 605.63 142.807Z" fill="#6C63FF"/>
<path d="M511.302 223.656C466.948 223.656 431 187.693 431 143.328C431 98.9635 466.948 63 511.302 63C555.651 63 591.609 98.9635 591.609 143.328C591.609 187.693 555.651 223.656 511.302 223.656Z" fill="#F2F2F2"/>
<path d="M536.359 112.109C536.359 126.177 524.958 141.37 510.885 141.37C496.823 141.37 485.417 126.177 485.417 112.109C485.417 98.0416 496.823 88.0573 510.885 88.0573C524.958 88.0573 536.359 98.0416 536.359 112.109Z" fill="#6C63FF"/>
<path d="M479.276 196.552H541.458C547.995 196.552 553.792 192.323 555.786 186.089L559.14 175.625C561.583 167.969 557.604 159.677 550.052 156.911C524.745 147.656 498.578 148.844 471.776 157.766C464.265 160.271 460.099 168.302 462.172 175.943L464.75 185.438C466.531 191.995 472.479 196.552 479.276 196.552Z" fill="#6C63FF"/>
</svg>
