<svg width="1080" height="1080" viewBox="0 0 1080 1080" fill="none" xmlns="http://www.w3.org/2000/svg">
<path d="M403.052 472.271H168.63C161.354 472.271 155.172 466.948 154.094 459.75L126.792 278.036C126.146 273.734 129.479 269.859 133.828 269.859H403.052V472.271Z" fill="#7B41FB" fill-opacity="0.99"/>
<path d="M309.875 386.245H178.698C177.74 386.245 176.927 385.557 176.771 384.62L172.208 357.615C172.005 356.417 172.922 355.333 174.136 355.333H301.896C302.844 355.333 303.662 356.021 303.818 356.958L311.333 384.328C311.599 385.297 310.87 386.245 309.875 386.245Z" fill="#FBF0BD"/>
<path d="M184.104 420.208C183.323 420.208 182.651 419.646 182.521 418.87L178.797 396.677C178.635 395.693 179.39 394.802 180.38 394.802H310.208C311.187 394.802 312.042 395.448 312.312 396.391L318.578 418.156C318.87 419.187 318.099 420.208 317.031 420.208H184.114C184.114 420.208 184.109 420.208 184.104 420.208Z" fill="#FBF0BD"/>
<path d="M301.516 347.323H172.86C171.318 347.323 169.99 346.219 169.709 344.698L166.401 326.63C166.042 324.662 167.552 322.854 169.552 322.854H295.307C296.865 322.854 298.203 323.974 298.464 325.516L303.365 344.953C303.672 346.156 302.761 347.323 301.516 347.323Z" fill="#FBF0BD"/>
<path d="M488.208 730.146H253.781C246.505 730.146 240.328 724.823 239.245 717.63L211.943 535.911C211.297 531.609 214.63 527.734 218.979 527.734H488.208V730.146Z" fill="#A8ABB2"/>
<path d="M378.765 644.073H247.588C246.635 644.073 245.823 643.385 245.661 642.443L241.099 615.437C240.901 614.245 241.817 613.161 243.026 613.161H370.786C371.739 613.161 372.552 613.849 372.713 614.786L380.224 642.156C380.489 643.125 379.765 644.073 378.765 644.073Z" fill="#C6C9D3"/>
<path d="M387.469 675.984C387.765 677.016 386.995 678.036 385.927 678.036H253.01C252.219 678.042 251.542 677.479 251.417 676.698L247.693 654.505C247.526 653.521 248.281 652.63 249.276 652.63H379.104C380.078 652.63 380.937 653.276 381.208 654.219L387.469 675.984Z" fill="#C6C9D3"/>
<path d="M370.411 605.151H241.755C240.208 605.151 238.885 604.047 238.604 602.526L235.297 584.458C234.937 582.49 236.448 580.677 238.448 580.677H364.198C365.76 580.677 367.094 581.802 367.359 583.344L372.26 602.781C372.562 603.984 371.656 605.151 370.411 605.151Z" fill="#C3C6D0"/>
<path d="M560.896 988.021H329.578C320.516 988.021 312.818 981.396 311.474 972.432L285.313 798.307C284.307 791.625 289.485 785.615 296.235 785.615H560.896V988.021Z" fill="#5C5E61"/>
<path d="M454.911 901.537H323.734C322.781 901.537 321.963 900.849 321.807 899.906L317.245 872.896C317.047 871.708 317.963 870.62 319.172 870.62H446.932C447.885 870.62 448.698 871.307 448.859 872.25L456.37 899.615C456.635 900.583 455.911 901.537 454.911 901.537Z" fill="#ACADAE"/>
<path d="M329.146 935.5C328.359 935.5 327.688 934.938 327.557 934.156L323.833 911.964C323.672 910.984 324.427 910.089 325.422 910.089H455.25C456.224 910.089 457.083 910.734 457.354 911.677L463.615 933.448C463.911 934.479 463.141 935.5 462.068 935.5H329.151H329.146Z" fill="#ACADAE"/>
<path d="M446.552 862.615H317.901C316.354 862.615 315.026 861.51 314.75 859.99L311.443 841.917C311.083 839.953 312.594 838.141 314.594 838.141H440.344C441.906 838.141 443.24 839.266 443.5 840.802L448.406 860.245C448.708 861.448 447.797 862.615 446.552 862.615Z" fill="#ACADAE"/>
<path d="M784.864 770.193C784.864 775.958 705.625 787.219 606.729 787.219C507.823 787.219 431.073 774.662 431.073 768.896C431.073 763.135 506.896 759.76 605.792 759.76C704.693 759.76 784.864 764.432 784.864 770.193Z" fill="#5C5E61"/>
<path d="M858.76 512.63C858.76 519.906 734.552 537.88 594.995 537.88C455.432 537.88 359.76 520.344 359.76 513.063C359.76 505.786 467.505 500.531 607.062 500.531C746.625 500.531 858.76 505.344 858.76 512.63Z" fill="#A8ABB2"/>
<path d="M767.865 739.682C657.063 752.078 549.078 751.594 443.646 739.464C430.391 737.943 419.307 728.693 415.485 715.912L356.016 516.865C355.328 514.568 357.448 512.411 359.766 513.063C439.427 535.359 787.651 537.193 856.307 512.729C857.729 512.229 859.115 513.542 858.688 514.984L799.021 713.719C794.781 727.833 782.511 738.042 767.865 739.682Z" fill="#C6C9D3"/>
<path d="M694.265 997.422C634.661 1005.81 575.536 1005.63 516.89 997.115C503.75 995.208 492.864 985.912 489.062 973.182L429.083 772.412C428.5 770.458 430.151 768.573 432.166 768.896C544.396 786.849 678.724 785.932 780.245 769.156C782.885 768.724 785.057 771.208 784.291 773.766L725.083 970.979C720.859 985.052 708.823 995.375 694.265 997.422Z" fill="#888B8F"/>
<path d="M926.891 254.479C926.891 262.974 786.177 269.859 607.443 269.859C428.714 269.859 288.021 262.974 288.021 254.479C288.021 245.984 428.714 239.104 607.443 239.104C786.177 239.104 926.891 245.984 926.891 254.479Z" fill="#3F3D56"/>
<path d="M419.833 288.37C438.682 295.87 459.891 298 481.193 293.302C520.307 284.677 549.469 255.276 559.662 219.255L458.573 190.74L419.833 288.37Z" fill="#A8ABB2"/>
<path d="M559.661 219.255C564.229 203.115 564.995 185.651 561.125 168.125C559.568 161.036 557.323 154.276 554.474 147.896L458.573 190.745L559.661 219.255Z" fill="#74767B"/>
<path d="M554.474 147.901C544.625 125.766 527.573 108.213 506.849 97.4739L458.573 190.74L554.474 147.901Z" fill="#A8ABB2"/>
<path d="M449.625 192.719L386.875 108.474C354.792 132.401 337.896 173.713 347.073 215.344C354.865 250.682 379.615 277.901 410.88 290.349L449.625 192.719Z" fill="#48494B"/>
<path d="M506.844 97.4791C497.568 92.6718 487.552 89.2291 477.115 87.3489C470.906 126.797 458.568 190.745 458.568 190.745L506.844 97.4791Z" fill="#74767B"/>
<path d="M477.114 87.3491C463.854 84.9688 449.927 85.0991 435.958 88.1876C420.948 91.5001 407.396 97.8699 395.823 106.5L458.568 190.745C458.568 190.745 470.906 126.792 477.114 87.3491Z" fill="#74767B"/>
<path d="M699.229 210.995C699.229 210.995 724.161 276.75 732.042 290.432C741.182 306.313 767.885 296.198 766.562 282.906C765.229 269.615 734.026 214.688 734.026 214.688L699.229 210.995Z" fill="#333435"/>
<path d="M732.922 163.089L887.875 109.359L886.245 254.766L728.682 219.604L732.922 163.089Z" fill="#888B8F"/>
<path d="M903.245 182.484C903.245 223.755 896.432 257.214 888.026 257.214C879.615 257.214 872.802 223.755 872.802 182.484C872.802 141.219 879.615 107.76 888.026 107.76C896.432 107.76 903.245 141.219 903.245 182.484Z" fill="#D7D9E0"/>
<path d="M889.172 252.104C887.797 250.703 884.802 245.302 882.234 231.344C879.745 217.854 878.385 200.349 878.385 182.068C878.385 163.781 879.745 146.286 882.234 132.786C884.802 118.833 887.797 113.432 889.172 112.031C890.552 113.432 893.547 118.833 896.12 132.786C898.599 146.286 899.974 163.781 899.974 182.068C899.974 200.349 898.599 217.854 896.12 231.344C893.547 245.302 890.552 250.703 889.172 252.104Z" fill="#888B8F"/>
<mask id="mask0_318_413" style="mask-type:luminance" maskUnits="userSpaceOnUse" x="878" y="158" width="31" height="48">
<path d="M878.349 158.068H908.761V205.016H878.349V158.068Z" fill="white"/>
</mask>
<g mask="url(#mask0_318_413)">
<mask id="mask1_318_413" style="mask-type:luminance" maskUnits="userSpaceOnUse" x="878" y="112" width="41" height="141">
<path d="M889.172 252.099C887.797 250.703 884.802 245.307 882.235 231.344C879.75 217.849 878.38 200.349 878.38 182.068C878.38 163.781 879.75 146.281 882.235 132.786C884.802 118.828 887.797 113.427 889.172 112.031C890.552 113.427 893.547 118.828 896.12 132.786C898.599 146.281 918.198 163.781 918.198 182.068C918.198 200.349 898.599 217.849 896.12 231.344C893.547 245.307 890.552 250.703 889.172 252.099Z" fill="white"/>
</mask>
<g mask="url(#mask1_318_413)">
<path d="M908.688 181.51C908.688 194.203 901.854 204.5 888.318 204.5C874.781 204.5 863.802 194.203 863.802 181.51C863.802 168.812 874.781 158.521 888.318 158.521C901.854 158.521 908.688 168.812 908.688 181.51Z" fill="#333435"/>
</g>
</g>
<path d="M707.927 159.964C715.219 159.12 725.667 158.818 736.974 161.406C733.25 180.859 733.812 201.13 738.109 222.13H706.239C701.156 222.13 696.823 218.438 696.026 213.417C694.432 203.349 692.495 186.438 694.573 172.849C695.604 166.037 701.073 160.76 707.927 159.964Z" fill="#333435"/>
<path d="M727.057 174.865H702.224C701.385 174.865 700.635 174.422 700.234 173.682C699.828 172.937 699.864 172.078 700.323 171.37C700.516 171.068 700.906 170.984 701.203 171.182C701.495 171.37 701.583 171.766 701.391 172.062C701.198 172.37 701.177 172.745 701.354 173.068C701.526 173.396 701.854 173.583 702.224 173.583H727.057C727.609 173.583 728.052 173.146 728.052 172.599V170.828C728.052 170.286 727.609 169.844 727.057 169.844H702.036C701.682 169.844 701.401 169.552 701.401 169.203C701.401 168.854 701.682 168.568 702.036 168.568H727.057C728.312 168.568 729.328 169.578 729.328 170.828V172.599C729.328 173.844 728.312 174.865 727.057 174.865Z" fill="#5C5E61"/>
<path d="M724.844 185.865H700.01C699.172 185.865 698.422 185.422 698.021 184.687C697.615 183.943 697.646 183.078 698.104 182.37C698.297 182.073 698.693 181.984 698.99 182.177C699.281 182.37 699.37 182.766 699.177 183.062C698.979 183.37 698.969 183.75 699.141 184.073C699.318 184.391 699.641 184.583 700.01 184.583H724.844C725.385 184.583 725.828 184.146 725.828 183.599V181.833C725.828 181.286 725.385 180.849 724.844 180.849H699.823C699.474 180.849 699.182 180.557 699.182 180.203C699.182 179.854 699.474 179.568 699.823 179.568H724.844C726.094 179.568 727.109 180.583 727.109 181.833V183.599C727.109 184.854 726.094 185.865 724.844 185.865Z" fill="#5C5E61"/>
<path d="M755.433 159.161C755.157 159.161 754.907 158.99 754.823 158.713C754.719 158.38 754.901 158.021 755.24 157.917L872.599 120.562C872.933 120.458 873.297 120.641 873.401 120.979C873.511 121.318 873.318 121.677 872.985 121.781L755.62 159.135C755.558 159.156 755.495 159.161 755.433 159.161Z" fill="#A8ABB2"/>
<path d="M739.563 165.651C739.307 165.651 739.068 165.5 738.969 165.255C738.839 164.927 738.99 164.557 739.323 164.417L745.36 161.948C745.688 161.818 746.057 161.974 746.193 162.302C746.323 162.63 746.172 163 745.839 163.135L739.802 165.604C739.719 165.635 739.641 165.651 739.563 165.651Z" fill="#A8ABB2"/>
<path d="M727.057 198.755H702.224C701.38 198.755 700.625 198.313 700.229 197.568C699.823 196.828 699.864 195.964 700.318 195.26C700.505 194.958 700.901 194.875 701.203 195.068C701.495 195.26 701.583 195.656 701.385 195.948C701.187 196.26 701.172 196.635 701.349 196.958C701.526 197.281 701.849 197.479 702.224 197.479H727.057C727.604 197.479 728.047 197.031 728.047 196.49V194.724C728.047 194.177 727.604 193.734 727.057 193.734H702.036C701.677 193.734 701.396 193.443 701.396 193.094C701.396 192.74 701.677 192.453 702.036 192.453H727.057C728.307 192.453 729.323 193.469 729.323 194.724V196.49C729.323 197.734 728.307 198.755 727.057 198.755Z" fill="#5C5E61"/>
<path d="M729.38 213.052H704.547C703.708 213.052 702.958 212.604 702.557 211.865C702.151 211.13 702.182 210.26 702.646 209.552C702.833 209.255 703.229 209.172 703.531 209.365C703.823 209.557 703.912 209.948 703.719 210.245C703.521 210.557 703.5 210.932 703.677 211.255C703.859 211.583 704.182 211.776 704.547 211.776H729.38C729.922 211.776 730.375 211.328 730.375 210.786V209.016C730.375 208.474 729.922 208.031 729.38 208.031H704.365C704.005 208.031 703.724 207.745 703.724 207.391C703.724 207.042 704.005 206.75 704.365 206.75H729.38C730.625 206.75 731.651 207.771 731.651 209.016V210.786C731.651 212.031 730.625 213.052 729.38 213.052Z" fill="#5C5E61"/>
<path d="M751.562 290.807C750.417 290.807 749.26 290.677 748.109 290.427C743.057 289.328 738.943 286 736.833 281.292L716.984 237.203C716.839 236.88 716.984 236.51 717.307 236.365C717.63 236.219 718 236.365 718.146 236.682L737.995 280.771C739.937 285.099 743.729 288.167 748.38 289.182C752.943 290.177 757.573 288.995 761.062 285.932C761.25 285.771 761.443 285.604 761.63 285.432C761.891 285.193 762.292 285.214 762.536 285.474C762.776 285.729 762.75 286.141 762.49 286.375C762.297 286.552 762.104 286.729 761.911 286.901C758.99 289.453 755.344 290.807 751.562 290.807Z" fill="#5C5E61"/>
<path d="M714.635 231.063C714.391 231.063 714.161 230.922 714.052 230.688L711.838 225.766C711.693 225.448 711.838 225.073 712.156 224.922C712.474 224.781 712.859 224.922 713 225.25L715.213 230.167C715.365 230.484 715.219 230.865 714.891 231.005C714.812 231.047 714.719 231.063 714.635 231.063Z" fill="#5C5E61"/>
<path d="M905.062 180.849C904.729 180.849 904.448 180.583 904.427 180.25C903.984 174.031 901.828 169.396 898.016 166.469C891.427 161.411 882.026 163.146 881.927 163.161C881.583 163.234 881.25 163 881.177 162.656C881.114 162.307 881.338 161.974 881.682 161.911C882.099 161.833 891.75 160.047 898.792 165.453C902.906 168.615 905.234 173.562 905.698 180.161C905.724 180.516 905.453 180.818 905.109 180.844L905.062 180.849Z" fill="#5C5E61"/>
<path d="M647.276 227.594C647.511 226.5 646.693 225.239 645.057 223.937C647.406 223.427 648.886 222.568 649.136 221.364C649.906 217.739 639.281 212.411 625.412 209.453C611.537 206.5 599.667 207.047 598.896 210.672C598.662 211.771 599.484 213.026 601.12 214.333C598.761 214.844 597.292 215.698 597.031 216.896C596.797 218 597.62 219.26 599.255 220.557C596.906 221.062 595.432 221.927 595.177 223.125C594.943 224.224 595.755 225.479 597.396 226.781C595.047 227.292 593.568 228.156 593.318 229.354C592.974 230.953 594.865 232.896 598.276 234.807C597.886 235.953 597.526 237.229 597.229 238.667C595.807 245.349 601.62 252.656 611.328 255.562C621.031 258.458 631.521 253.989 633.573 247.469C634.073 245.875 634.422 244.443 634.651 243.146C639.766 242.979 643.156 241.927 643.557 240.052C643.792 238.948 642.969 237.687 641.333 236.385C643.693 235.88 645.162 235.021 645.422 233.823C645.651 232.719 644.833 231.469 643.198 230.167C645.547 229.651 647.021 228.792 647.276 227.594Z" fill="#74767B"/>
<path d="M609.547 239.714C605.526 238.511 601.927 237.12 599.063 235.63C598.896 235.542 598.828 235.333 598.922 235.172C599.005 235 599.208 234.938 599.37 235.026C603.865 237.359 610.161 239.458 617.104 240.938C622.792 242.146 628.25 242.797 632.896 242.828C633.083 242.833 633.234 242.984 633.234 243.172C633.229 243.359 633.083 243.511 632.896 243.505C628.203 243.479 622.698 242.823 616.969 241.599C614.385 241.047 611.891 240.417 609.547 239.714Z" fill="#979AA0"/>
<path d="M611.479 233.5C606.25 231.943 601.729 230.052 598.703 228.13C598.552 228.031 598.505 227.823 598.604 227.667C598.703 227.505 598.917 227.458 599.078 227.557C603.37 230.297 610.807 232.969 618.969 234.708C627.037 236.432 634.87 237.026 639.912 236.302C640.094 236.276 640.271 236.406 640.302 236.589C640.323 236.781 640.193 236.948 640.011 236.974C634.896 237.703 626.974 237.109 618.828 235.375C616.287 234.833 613.813 234.203 611.479 233.5Z" fill="#979AA0"/>
<path d="M613.265 227.266C607.62 225.578 602.859 223.526 599.854 221.437C599.703 221.328 599.667 221.115 599.771 220.958C599.88 220.807 600.094 220.771 600.25 220.875C604.411 223.786 612.109 226.63 620.823 228.49C628.896 230.203 636.724 230.797 641.771 230.078C641.953 230.052 642.125 230.177 642.151 230.37C642.177 230.552 642.047 230.724 641.864 230.75C636.75 231.484 628.828 230.885 620.682 229.151C618.099 228.599 615.609 227.963 613.265 227.266Z" fill="#979AA0"/>
<path d="M615.172 221.047C610.698 219.708 606.729 218.13 603.776 216.484C603.609 216.391 603.547 216.182 603.646 216.016C603.734 215.854 603.943 215.797 604.104 215.885C608.547 218.37 615.318 220.687 622.688 222.26C630.688 223.958 638.474 224.562 643.516 223.87C643.698 223.838 643.87 223.969 643.896 224.156C643.927 224.338 643.787 224.516 643.609 224.536C638.495 225.25 630.62 224.641 622.542 222.922C619.99 222.38 617.516 221.745 615.172 221.047Z" fill="#979AA0"/>
<path d="M598.505 178.797C598.599 172.484 597.432 166.203 595.083 160.328C590.052 147.755 583.073 123.151 589.88 94.4583C599.771 52.7083 642.307 43.0313 674.682 55.7396C707.057 68.4479 732.448 102.964 717.458 140.078C708.234 162.906 689.765 176.807 676.922 184.109C668.765 188.755 661.958 195.391 656.963 203.344C650.864 213.068 639.927 224.203 623.068 220.042C601.255 214.661 598.307 191.953 598.505 178.797Z" fill="#F3D33F"/>
<path d="M631.005 213.495L665.193 141.375C665.906 139.886 666.989 139.068 667.614 139.542C668.245 140.026 668.182 141.625 667.469 143.109L667.406 143.24L631.812 214.177C631.547 214.708 631.151 214.979 630.937 214.771C630.729 214.583 630.76 214.016 631.005 213.495Z" fill="#E5B731"/>
<path d="M618.755 210.5L629.714 131.443C629.932 129.807 629.484 128.526 628.693 128.583C627.906 128.646 627.089 130.01 626.859 131.641L626.839 131.787L617.719 210.625C617.646 211.214 617.828 211.656 618.12 211.609C618.401 211.563 618.687 211.068 618.755 210.5Z" fill="#E5B731"/>
<path d="M646.057 138.787C645.74 138.787 645.422 138.672 645.172 138.443C644.953 138.26 644.833 138.021 644.802 137.781V137.776L642.828 122.87L634.094 128.219C633.906 128.333 633.698 128.385 633.469 128.385C633.099 128.385 632.703 128.219 632.458 127.917C632.094 127.474 632.156 126.875 632.583 126.547L643.083 118.531C643.401 118.287 643.786 118.167 644.193 118.167C644.724 118.167 645.266 118.38 645.667 118.776C645.979 119.089 646.141 119.469 646.167 119.844V119.87L646.974 135.156L655.203 127.037L655.213 127.026C655.49 126.75 655.875 126.609 656.276 126.609C656.667 126.609 657.062 126.745 657.385 127.005C657.734 127.281 657.917 127.662 657.932 128.031L658.271 135.104L665.646 134.01C665.703 134.005 665.771 134 665.828 134C666.385 134 666.911 134.359 667.052 134.865C667.208 135.422 666.818 135.953 666.198 136.047L657.448 137.349C657.385 137.354 657.323 137.359 657.26 137.359C656.703 137.359 656.177 137 656.042 136.495L656.021 136.38L656.01 136.339L655.245 131.078L646.823 138.51C646.62 138.693 646.344 138.787 646.057 138.787Z" fill="#F9E99D"/>
<path d="M680.536 175.135C680.318 175.135 680.115 175.104 679.911 175.042C679.479 174.917 679.083 174.651 678.786 174.26C678.073 173.302 678.276 171.943 679.234 171.224C681.984 169.161 684.604 166.964 687.01 164.688C687.432 164.292 687.969 164.094 688.5 164.094C689.078 164.094 689.656 164.323 690.083 164.776C690.906 165.651 690.87 167.026 689.995 167.849C687.469 170.234 684.719 172.542 681.833 174.703C681.448 174.99 680.99 175.135 680.536 175.135Z" fill="#F9E99D"/>
<path d="M694.985 161.583C694.781 161.583 694.568 161.557 694.37 161.495C694.089 161.412 693.828 161.271 693.589 161.078C692.672 160.297 692.557 158.927 693.328 158.01C713.87 133.609 710.406 106.984 710.37 106.719C710.203 105.537 711.031 104.432 712.224 104.266C712.323 104.255 712.422 104.245 712.516 104.245C713.594 104.245 714.521 105.031 714.677 106.115C714.839 107.281 718.427 134.938 696.656 160.807C696.224 161.323 695.604 161.583 694.985 161.583Z" fill="#F9E99D"/>
<path d="M808.281 91.8542C808.281 119.859 785.583 142.552 757.583 142.552C729.583 142.552 706.891 119.859 706.891 91.8542C706.891 63.849 729.583 41.1511 757.583 41.1511C785.583 41.1511 808.281 63.849 808.281 91.8542Z" fill="#74767B"/>
<path d="M757.583 65.3906C742.989 65.3906 731.12 77.2604 731.12 91.849C731.12 106.448 742.989 118.323 757.583 118.323C772.177 118.323 784.052 106.448 784.052 91.849C784.052 77.2604 772.177 65.3906 757.583 65.3906ZM757.583 123.651C740.057 123.651 725.792 109.385 725.792 91.849C725.792 74.3281 740.057 60.0625 757.583 60.0625C775.114 60.0625 789.375 74.3281 789.375 91.849C789.375 109.385 775.114 123.651 757.583 123.651Z" fill="white"/>
<path fill-rule="evenodd" clip-rule="evenodd" d="M747.62 104.099V81.2396C747.62 78.8021 750.281 77.2865 752.385 78.5313L771.635 89.9636C773.698 91.1876 773.698 94.1667 771.635 95.3855L752.385 106.813C750.281 108.057 747.62 106.542 747.62 104.099Z" fill="white"/>
<path d="M328.974 168.422C328.974 197.849 305.125 221.703 275.703 221.703C246.281 221.703 222.432 197.849 222.432 168.422C222.432 139 246.281 115.141 275.703 115.141C305.125 115.141 328.974 139 328.974 168.422Z" fill="#74767B"/>
<path d="M275.703 134.792C262.307 134.792 251.412 144.719 251.412 156.932C251.412 163.271 258.589 178.776 271.104 199.464C272.089 201.083 273.807 202.052 275.703 202.052C277.599 202.052 279.318 201.083 280.302 199.464C292.818 178.776 300 163.271 300 156.932C300 144.719 289.099 134.792 275.703 134.792ZM275.703 205.641C272.542 205.641 269.677 204.026 268.037 201.318C258.813 186.073 247.818 166.01 247.818 156.932C247.818 142.74 260.328 131.198 275.703 131.198C291.078 131.198 303.589 142.74 303.589 156.932C303.589 166.01 292.594 186.073 283.37 201.318C281.735 204.026 278.865 205.641 275.703 205.641Z" fill="white"/>
<path d="M273.547 174.901C264.01 174.901 256.25 167.141 256.25 157.604C256.25 156.615 257.057 155.813 258.047 155.813C259.036 155.813 259.844 156.615 259.844 157.604C259.844 165.161 265.99 171.313 273.547 171.313C281.099 171.313 287.25 165.161 287.25 157.604C287.25 150.052 281.099 143.901 273.547 143.901C269.177 143.901 265.172 145.911 262.552 149.422C261.958 150.219 260.833 150.38 260.042 149.786C259.245 149.193 259.083 148.073 259.677 147.271C262.927 142.917 268.115 140.312 273.547 140.312C283.078 140.312 290.839 148.073 290.839 157.604C290.839 167.141 283.078 174.901 273.547 174.901Z" fill="white"/>
<path d="M826.193 481.62C679.49 491.177 529.833 490.526 377.537 480.766C359.979 479.641 345.031 467.562 340.198 450.635L285.662 259.807C284.781 256.729 287.276 253.724 290.474 254.031C497.719 273.974 709.104 273.448 924.38 253.995C927.594 253.708 930.099 256.734 929.203 259.828L876.885 440.838C870.26 463.755 849.99 480.068 826.193 481.62Z" fill="#7B41FB" fill-opacity="0.99"/>
<path d="M830.864 752.859C830.864 793.781 797.698 826.948 756.781 826.948C715.864 826.948 682.698 793.781 682.698 752.859C682.698 711.943 715.864 678.766 756.781 678.766C797.698 678.766 830.864 711.943 830.864 752.859Z" fill="#57B894"/>
<path d="M828.396 752.859C828.396 792.422 796.339 824.484 756.776 824.484C717.229 824.484 685.162 792.422 685.162 752.859C685.162 713.302 717.229 681.234 756.776 681.234C796.339 681.234 828.396 713.302 828.396 752.859Z" fill="#6BF15F"/>
<path d="M697.724 724.75C697.469 724.75 697.224 724.693 696.984 724.573C696.172 724.167 695.844 723.177 696.255 722.359C707.865 699.38 731.052 685.094 756.781 685.094C760.885 685.094 764.995 685.469 769 686.193C769.891 686.359 770.484 687.214 770.323 688.109C770.182 688.906 769.484 689.453 768.698 689.453C768.604 689.453 768.51 689.448 768.417 689.427C764.599 688.734 760.693 688.385 756.781 688.385C732.297 688.385 710.234 701.969 699.193 723.844C698.901 724.417 698.323 724.75 697.724 724.75Z" fill="#FBEFA9"/>
<path d="M758.339 815.042C724.86 815.042 697.724 787.901 697.724 754.422C697.724 720.938 724.86 693.797 758.339 693.797C791.813 693.797 818.953 720.938 818.953 754.422C818.953 787.901 791.813 815.042 758.339 815.042Z" fill="#FDF8DA"/>
<path d="M752.396 799.49V792.896C745.521 792.615 738.719 790.995 733.886 788.88C732.167 788.125 731.287 786.188 731.781 784.375L733.458 778.229C734.073 775.974 736.521 774.807 738.672 775.714C743.464 777.724 749.38 779.307 755.761 779.307C762.38 779.307 767.323 777.068 767.323 772.464C767.323 768.307 763.5 765.839 754.302 763.375C741.172 759.776 731.74 754.052 731.74 742.495C731.74 732.057 739.37 724.083 752.62 721.958V715.359C752.62 713.234 754.333 711.516 756.458 711.516H760.333C762.453 711.516 764.177 713.234 764.177 715.359V721.276C770.537 721.536 775.167 722.625 778.844 723.917C780.724 724.573 781.761 726.604 781.234 728.531L779.693 734.214C779.099 736.406 776.761 737.604 774.636 736.802C771.255 735.521 766.469 734.193 760.25 734.193C752.396 734.193 750.151 737.443 750.151 740.365C750.151 743.953 754.859 746.427 765.078 749.568C779.672 753.943 785.729 760.005 785.729 770.891C785.729 780.885 778.318 789.865 763.953 792.104V799.49C763.953 801.609 762.234 803.333 760.109 803.333H756.24C754.115 803.333 752.396 801.609 752.396 799.49Z" fill="#57B894"/>
<path d="M825.115 873.813H688.453C686.104 873.813 684.203 871.912 684.203 869.563V850.406C684.203 848.057 686.104 846.162 688.453 846.162H825.115C827.464 846.162 829.359 848.057 829.359 850.406V869.563C829.359 871.912 827.464 873.813 825.115 873.813Z" fill="#6BF15F"/>
<path d="M825.224 906.656H688.563C686.219 906.656 684.312 904.75 684.312 902.401V883.25C684.312 880.901 686.219 879 688.563 879H825.224C827.568 879 829.474 880.901 829.474 883.25V902.401C829.474 904.75 827.568 906.656 825.224 906.656Z" fill="#6BF15F"/>
<path d="M825.344 939.485H688.677C686.333 939.485 684.432 937.589 684.432 935.24V916.089C684.432 913.74 686.333 911.833 688.677 911.833H825.344C827.687 911.833 829.588 913.74 829.588 916.089V935.24C829.588 937.589 827.687 939.485 825.344 939.485Z" fill="#6BF15F"/>
<path d="M825.448 972.328H688.786C686.443 972.328 684.542 970.427 684.542 968.078V948.927C684.542 946.578 686.443 944.672 688.786 944.672H825.448C827.792 944.672 829.703 946.578 829.703 948.927V968.078C829.703 970.427 827.792 972.328 825.448 972.328Z" fill="#6BF15F"/>
<path d="M825.563 1005.17H688.906C686.557 1005.17 684.656 1003.26 684.656 1000.92V981.76C684.656 979.411 686.557 977.516 688.906 977.516H825.563C827.906 977.516 829.813 979.411 829.813 981.76V1000.92C829.813 1003.26 827.906 1005.17 825.563 1005.17Z" fill="#6BF15F"/>
<path d="M993.047 785.979C993.047 826.896 959.875 860.073 918.969 860.073C878.047 860.073 844.88 826.896 844.88 785.979C844.88 745.057 878.047 711.891 918.969 711.891C959.875 711.891 993.047 745.057 993.047 785.979Z" fill="#57B894"/>
<path d="M990.583 785.979C990.583 825.536 958.516 857.609 918.969 857.609C879.411 857.609 847.344 825.536 847.344 785.979C847.344 746.422 879.411 714.359 918.969 714.359C958.516 714.359 990.583 746.422 990.583 785.979Z" fill="#6BF15F"/>
<path d="M859.906 757.87C859.656 757.87 859.406 757.813 859.172 757.693C858.365 757.281 858.031 756.297 858.443 755.484C870.042 732.5 893.229 718.219 918.964 718.219C923.073 718.219 927.182 718.583 931.182 719.318C932.078 719.479 932.672 720.339 932.505 721.229C932.359 722.021 931.672 722.578 930.896 722.578C930.797 722.578 930.698 722.573 930.599 722.547C926.787 721.859 922.875 721.505 918.964 721.505C894.484 721.505 872.422 735.094 861.375 756.969C861.089 757.542 860.51 757.87 859.906 757.87Z" fill="#FBEFA9"/>
<path d="M920.521 848.161C887.047 848.161 859.906 821.021 859.906 787.542C859.906 754.063 887.047 726.922 920.521 726.922C954.005 726.922 981.141 754.063 981.141 787.542C981.141 821.021 954.005 848.161 920.521 848.161Z" fill="#FDF8DA"/>
<path d="M914.578 832.615V826.01C907.698 825.74 900.901 824.12 896.068 822C894.344 821.25 893.469 819.313 893.963 817.495L895.641 811.349C896.255 809.099 898.703 807.932 900.864 808.839C905.651 810.844 911.568 812.432 917.943 812.432C924.562 812.432 929.505 810.188 929.505 805.583C929.505 801.432 925.687 798.964 916.484 796.495C903.354 792.901 893.922 787.177 893.922 775.615C893.922 765.177 901.557 757.208 914.797 755.073V748.479C914.797 746.354 916.521 744.641 918.646 744.641H922.516C924.641 744.641 926.359 746.354 926.359 748.479V754.401C932.719 754.661 937.354 755.745 941.026 757.036C942.906 757.698 943.937 759.729 943.411 761.651L941.875 767.333C941.281 769.526 938.937 770.724 936.812 769.922C933.432 768.641 928.646 767.307 922.432 767.307C914.578 767.307 912.328 770.563 912.328 773.479C912.328 777.078 917.047 779.542 927.26 782.693C941.844 787.063 947.906 793.125 947.906 804.016C947.906 814.005 940.5 822.984 926.135 825.229V832.615C926.135 834.729 924.422 836.453 922.297 836.453H918.417C916.302 836.453 914.578 834.729 914.578 832.615Z" fill="#57B894"/>
<path d="M987.302 906.938H850.641C848.292 906.938 846.391 905.031 846.391 902.682V883.531C846.391 881.182 848.292 879.281 850.641 879.281H987.302C989.646 879.281 991.547 881.182 991.547 883.531V902.682C991.547 905.031 989.646 906.938 987.302 906.938Z" fill="#6BF15F"/>
<path d="M987.417 939.766H850.75C848.401 939.766 846.505 937.87 846.505 935.521V916.37C846.505 914.021 848.401 912.115 850.75 912.115H987.417C989.766 912.115 991.662 914.021 991.662 916.37V935.521C991.662 937.87 989.766 939.766 987.417 939.766Z" fill="#6BF15F"/>
<path d="M987.521 972.609H850.86C848.516 972.609 846.615 970.708 846.615 968.359V949.203C846.615 946.859 848.516 944.953 850.86 944.953H987.521C989.87 944.953 991.776 946.859 991.776 949.203V968.359C991.776 970.708 989.87 972.609 987.521 972.609Z" fill="#6BF15F"/>
<path d="M987.646 1005.45H850.979C848.63 1005.45 846.724 1003.54 846.724 1001.19V982.042C846.724 979.698 848.63 977.797 850.979 977.797H987.646C989.985 977.797 991.891 979.698 991.891 982.042V1001.19C991.891 1003.54 989.985 1005.45 987.646 1005.45Z" fill="#6BF15F"/>
<path d="M185.797 990.224C177.229 990.969 162.354 992.172 150.625 992.688C143.578 993 139.515 992.307 137.182 991.37C137.182 991.636 137.193 991.886 137.203 992.115C137.26 993.344 138.26 994.339 139.505 994.406C161.667 995.641 179.286 994.839 185.562 994.448C186.859 994.37 187.63 992.964 186.969 991.86C186.635 991.302 186.234 990.766 185.797 990.224Z" fill="#333435"/>
<path d="M150.625 992.688C162.354 992.172 177.229 990.969 185.797 990.224C177.37 979.885 150.625 972.917 150.625 972.917H143.073C137.875 980.406 137.125 987.542 137.182 991.37C139.515 992.307 143.578 993 150.625 992.688Z" fill="#48494B"/>
<mask id="mask2_318_413" style="mask-type:luminance" maskUnits="userSpaceOnUse" x="141" y="960" width="15" height="18">
<path d="M141.802 960.583H155.891V977.823H141.802V960.583Z" fill="white"/>
</mask>
<g mask="url(#mask2_318_413)">
<mask id="mask3_318_413" style="mask-type:luminance" maskUnits="userSpaceOnUse" x="141" y="960" width="15" height="18">
<path d="M141.802 960.583L142.505 974.578C142.583 976.094 143.719 977.365 145.235 977.583C146.745 977.797 148.766 977.823 150.906 977.11C152.229 976.667 153.208 975.557 153.448 974.203L155.891 960.583H141.802Z" fill="white"/>
</mask>
<g mask="url(#mask3_318_413)">
<mask id="mask4_318_413" style="mask-type:luminance" maskUnits="userSpaceOnUse" x="141" y="960" width="15" height="18">
<path d="M141.802 960.583L142.505 974.578C142.583 976.094 143.719 977.365 145.235 977.583C146.745 977.797 148.766 977.823 150.906 977.11C152.229 976.667 153.208 975.557 153.448 974.203L155.891 960.583H141.802Z" fill="white"/>
</mask>
<g mask="url(#mask4_318_413)">
<path d="M141.802 977.823H155.891V960.583H141.802V977.823Z" fill="url(#paint0_linear_318_413)"/>
</g>
</g>
</g>
<mask id="mask5_318_413" style="mask-type:luminance" maskUnits="userSpaceOnUse" x="46" y="1000" width="22" height="10">
<path d="M46.6665 1000H67.9998V1009.86H46.6665V1000Z" fill="white"/>
</mask>
<g mask="url(#mask5_318_413)">
<path d="M54.125 1006.36C50.4115 1005.7 48.7292 1003.2 48.0209 1000.54L48.0104 1000.6C47.4636 1003.42 48.7292 1006.33 51.2657 1007.72C54.3282 1009.4 57.6771 1009.68 60.2761 1009.55C63.0677 1009.4 65.625 1007.91 67.0365 1005.52L67.0573 1005.48C64.2552 1007.27 60.3229 1007.48 54.125 1006.36Z" fill="#333435"/>
</g>
<path d="M71.6512 964.896H65.422C55.9325 964.646 49.9741 990.516 48.021 1000.54C48.7293 1003.2 50.4116 1005.7 54.1252 1006.36C60.3231 1007.48 64.2554 1007.27 67.0575 1005.48C72.1825 996.76 74.7241 983.99 75.9481 976.536C77.3335 968.063 71.6512 964.896 71.6512 964.896Z" fill="#48494B"/>
<mask id="mask6_318_413" style="mask-type:luminance" maskUnits="userSpaceOnUse" x="62" y="951" width="18" height="21">
<path d="M62.1509 951.422H79.755V971.698H62.1509V951.422Z" fill="white"/>
</mask>
<g mask="url(#mask6_318_413)">
<mask id="mask7_318_413" style="mask-type:luminance" maskUnits="userSpaceOnUse" x="62" y="951" width="18" height="21">
<path d="M66.2236 951.906L62.7601 965.667C62.3382 967.359 63.1455 969.104 64.7028 969.906C66.6403 970.896 69.3642 971.943 71.8694 971.641C73.0465 971.495 74.0257 970.667 74.4163 969.557L79.4945 955.083L66.2236 951.906Z" fill="white"/>
</mask>
<g mask="url(#mask7_318_413)">
<mask id="mask8_318_413" style="mask-type:luminance" maskUnits="userSpaceOnUse" x="62" y="951" width="18" height="21">
<path d="M66.2236 951.906L62.7601 965.667C62.3382 967.359 63.1455 969.104 64.7028 969.906C66.6403 970.896 69.3642 971.943 71.8694 971.641C73.0465 971.495 74.0257 970.667 74.4163 969.557L79.4945 955.083L66.2236 951.906Z" fill="white"/>
</mask>
<g mask="url(#mask8_318_413)">
<mask id="mask9_318_413" style="mask-type:luminance" maskUnits="userSpaceOnUse" x="61" y="951" width="19" height="22">
<path d="M61.8589 971.932L79.4839 972.349L79.9683 951.917L62.3485 951.5L61.8589 971.932Z" fill="white"/>
</mask>
<g mask="url(#mask9_318_413)">
<path d="M61.8691 971.688L79.4837 972.104L79.9629 951.917L62.3483 951.5L61.8691 971.688Z" fill="url(#paint1_linear_318_413)"/>
</g>
</g>
</g>
</g>
<path d="M187.912 770.682C187.912 770.682 156.995 963.938 157.505 965C157.505 965 148.964 968.885 139.662 965.495C139.662 965.495 142.453 862.182 149.005 822.573C149.005 822.573 96.245 914.911 79.495 960.922C79.495 960.922 70.7554 959.885 63.521 955.12C63.521 955.12 120.328 788.917 135.479 766.781L187.912 770.682Z" fill="#979AA0"/>
<path d="M150.239 821.568C150.073 821.568 149.906 821.526 149.755 821.427C149.328 821.161 149.198 820.604 149.463 820.177L161.021 801.719C161.151 801.505 161.364 801.359 161.609 801.307L170.114 799.594C170.609 799.495 171.088 799.812 171.187 800.312C171.286 800.807 170.969 801.286 170.474 801.391L162.359 803.021L151.015 821.141C150.838 821.417 150.541 821.568 150.239 821.568Z" fill="#74767B"/>
<mask id="mask10_318_413" style="mask-type:luminance" maskUnits="userSpaceOnUse" x="253" y="581" width="78" height="84">
<path d="M253.333 581.333H330.479V664.917H253.333V581.333Z" fill="white"/>
</mask>
<g mask="url(#mask10_318_413)">
<mask id="mask11_318_413" style="mask-type:luminance" maskUnits="userSpaceOnUse" x="253" y="581" width="77" height="84">
<path d="M329.766 581.443C329.766 581.443 308.906 586.047 296.219 591.906C293.698 593.068 291.693 595.099 290.547 597.609C286.75 605.922 275.396 626.771 253.38 636.713C256.552 640.927 261.656 649.682 263.88 664.396C277.104 654.552 288.521 638.115 294 611.156C294 611.156 298.177 613.422 303.38 610.891C306.13 609.557 309.307 607.661 311.693 606.172C314.068 604.687 315.839 602.38 316.526 599.682C317.432 596.12 316.896 592.995 316.896 589.63L327.62 586.307C327.62 586.307 330.844 585.088 329.766 581.443Z" fill="white"/>
</mask>
<g mask="url(#mask11_318_413)">
<mask id="mask12_318_413" style="mask-type:luminance" maskUnits="userSpaceOnUse" x="253" y="581" width="77" height="84">
<path d="M329.766 581.443C329.766 581.443 308.906 586.047 296.219 591.906C293.698 593.068 291.693 595.099 290.547 597.609C286.75 605.922 275.396 626.771 253.38 636.713C256.552 640.927 261.656 649.682 263.88 664.396C277.104 654.552 288.521 638.115 294 611.156C294 611.156 298.177 613.422 303.38 610.891C306.13 609.557 309.307 607.661 311.693 606.172C314.068 604.687 315.839 602.38 316.526 599.682C317.432 596.12 316.896 592.995 316.896 589.63L327.62 586.307C327.62 586.307 330.844 585.088 329.766 581.443Z" fill="white"/>
</mask>
<g mask="url(#mask12_318_413)">
<mask id="mask13_318_413" style="mask-type:luminance" maskUnits="userSpaceOnUse" x="212" y="543" width="160" height="160">
<path d="M212.656 615.094L284.807 702.437L371.573 630.739L299.417 543.401L212.656 615.094Z" fill="white"/>
</mask>
<g mask="url(#mask13_318_413)">
<path d="M212.656 615.094L284.661 702.255L371.208 630.739L299.203 543.578L212.656 615.094Z" fill="url(#paint2_linear_318_413)"/>
</g>
</g>
</g>
</g>
<path d="M263.88 664.396C261.656 649.682 256.552 640.927 253.38 636.713C239.703 642.896 221.912 644.875 199.255 637.021C197.172 636.297 194.99 635.87 192.781 635.745C180.724 635.036 140.979 633.745 108.094 644.615C101.167 646.901 95.5626 652.016 92.6772 658.651C83.7814 679.068 69.3751 725.568 109.359 749.042C112.432 741.411 115.979 735.281 119.011 730.776C112.568 719.911 110.662 705.078 122.089 685.755C130.422 708.255 134.333 741.088 135.146 755.62C135.417 760.401 134.578 765.177 132.698 769.594L132.495 770.078C132.094 771.021 132.646 772.109 133.656 772.333C156.167 777.391 179.578 776.016 186.573 775.437C187.823 775.338 188.859 774.443 189.146 773.234C200.089 727.109 200.115 695.646 197.438 675.755C207.672 678.042 238.984 682.927 263.88 664.396Z" fill="#7B41FB" fill-opacity="0.99"/>
<path d="M197.479 676.99C197.031 676.99 196.635 676.661 196.578 676.203C194.005 656.781 188.771 648.302 188.719 648.224C188.448 647.797 188.578 647.234 189.005 646.958C189.427 646.693 189.989 646.818 190.26 647.245C190.484 647.594 195.755 656.083 198.385 675.963C198.453 676.463 198.099 676.922 197.599 676.99H197.479Z" fill="#74767B"/>
<mask id="mask14_318_413" style="mask-type:luminance" maskUnits="userSpaceOnUse" x="137" y="608" width="28" height="38">
<path d="M137.37 608.365H164.573V645.713H137.37V608.365Z" fill="white"/>
</mask>
<g mask="url(#mask14_318_413)">
<mask id="mask15_318_413" style="mask-type:luminance" maskUnits="userSpaceOnUse" x="137" y="608" width="28" height="38">
<path d="M141.932 608.87C141.932 608.87 139.651 632.953 137.651 640.078C137.344 641.156 137.812 642.297 138.797 642.854C142.198 644.797 150.359 647.974 161.521 642.5C163.333 641.614 164.422 639.729 164.333 637.734L163.349 614.463L141.932 608.87Z" fill="white"/>
</mask>
<g mask="url(#mask15_318_413)">
<mask id="mask16_318_413" style="mask-type:luminance" maskUnits="userSpaceOnUse" x="137" y="608" width="28" height="38">
<path d="M141.932 608.87C141.932 608.87 139.651 632.953 137.651 640.078C137.344 641.156 137.812 642.297 138.797 642.854C142.198 644.797 150.359 647.974 161.521 642.5C163.333 641.614 164.422 639.729 164.333 637.734L163.349 614.463L141.932 608.87Z" fill="white"/>
</mask>
<g mask="url(#mask16_318_413)">
<mask id="mask17_318_413" style="mask-type:luminance" maskUnits="userSpaceOnUse" x="128" y="603" width="45" height="51">
<path d="M128.927 646.068L163.099 653.802L172.833 610.776L138.662 603.042L128.927 646.068Z" fill="white"/>
</mask>
<g mask="url(#mask17_318_413)">
<path d="M129.438 643.916L163.104 651.536L172.349 610.666L138.688 603.047L129.438 643.916Z" fill="url(#paint3_linear_318_413)"/>
</g>
</g>
</g>
</g>
<mask id="mask18_318_413" style="mask-type:luminance" maskUnits="userSpaceOnUse" x="134" y="577" width="39" height="44">
<path d="M134.167 577.953H172.578V620.635H134.167V577.953Z" fill="white"/>
</mask>
<g mask="url(#mask18_318_413)">
<mask id="mask19_318_413" style="mask-type:luminance" maskUnits="userSpaceOnUse" x="134" y="578" width="39" height="43">
<path d="M163.844 578.068C163.844 578.068 171.125 594.802 171.615 603.583C172.104 612.365 173.995 618.062 163.844 619.833C153.688 621.599 145.135 616.542 140.5 607.792C140.5 607.792 133.24 594.318 134.87 588.797C136.5 583.271 163.844 578.068 163.844 578.068Z" fill="white"/>
</mask>
<g mask="url(#mask19_318_413)">
<mask id="mask20_318_413" style="mask-type:luminance" maskUnits="userSpaceOnUse" x="134" y="578" width="39" height="43">
<path d="M163.844 578.068C163.844 578.068 171.125 594.802 171.615 603.583C172.104 612.365 173.995 618.062 163.844 619.833C153.688 621.599 145.135 616.542 140.5 607.792C140.5 607.792 133.24 594.318 134.87 588.797C136.5 583.271 163.844 578.068 163.844 578.068Z" fill="white"/>
</mask>
<g mask="url(#mask20_318_413)">
<mask id="mask21_318_413" style="mask-type:luminance" maskUnits="userSpaceOnUse" x="116" y="562" width="76" height="76">
<path d="M166.271 562.088L116.177 586.318L140.964 637.578L191.057 613.349L166.271 562.088Z" fill="white"/>
</mask>
<g mask="url(#mask21_318_413)">
<path d="M165.297 563.01L117.484 586.135L141.448 635.693L189.26 612.562L165.297 563.01Z" fill="url(#paint4_linear_318_413)"/>
</g>
</g>
</g>
</g>
<path d="M143.969 601.505L144.547 601.255C145.281 600.927 145.599 600.052 145.229 599.333C143.797 596.568 141.005 590.229 144.615 588.745C149.261 586.844 167.667 583.089 171.641 576.552C175.458 570.276 172.073 562.172 166.99 559.87C166.651 559.714 166.25 559.833 166.073 560.167L165.651 560.964C165.359 561.516 164.552 561.432 164.38 560.839C164.214 560.266 163.453 560.156 163.136 560.661C161.917 562.615 158.62 565.786 149.807 567.411C137.281 569.719 129 574.792 128.792 583.448C128.776 583.995 128.193 584.302 127.724 584.021C126.797 583.453 125.318 583.188 123.339 584.849C119.901 587.745 121.307 595.25 128.849 601.422C129.208 601.714 129.203 602.276 128.818 602.526C127.448 603.417 125.412 605.536 130.693 608.359C136.156 611.276 140.234 611.042 141.802 610.781C142.198 610.719 142.448 610.339 142.365 609.953L140.682 602.339C140.589 601.911 140.917 601.505 141.359 601.505H143.969Z" fill="#333435"/>
<mask id="mask22_318_413" style="mask-type:luminance" maskUnits="userSpaceOnUse" x="134" y="594" width="11" height="14">
<path d="M134.698 594.667H144.302V607.828H134.698V594.667Z" fill="white"/>
</mask>
<g mask="url(#mask22_318_413)">
<mask id="mask23_318_413" style="mask-type:luminance" maskUnits="userSpaceOnUse" x="135" y="594" width="10" height="14">
<path d="M144.286 603.109C144.286 603.109 141.51 592.422 136.714 595.422C131.922 598.417 139.203 607.391 143.052 607.792L144.286 603.109Z" fill="white"/>
</mask>
<g mask="url(#mask23_318_413)">
<mask id="mask24_318_413" style="mask-type:luminance" maskUnits="userSpaceOnUse" x="135" y="594" width="10" height="14">
<path d="M144.286 603.109C144.286 603.109 141.51 592.422 136.714 595.422C131.922 598.417 139.203 607.391 143.052 607.792L144.286 603.109Z" fill="white"/>
</mask>
<g mask="url(#mask24_318_413)">
<mask id="mask25_318_413" style="mask-type:luminance" maskUnits="userSpaceOnUse" x="125" y="587" width="26" height="26">
<path d="M141.943 587.573L125.901 595.339L134.265 612.641L150.312 604.88L141.943 587.573Z" fill="white"/>
</mask>
<g mask="url(#mask25_318_413)">
<path d="M142.468 590.734L129.489 597.016L136.515 611.552L149.5 605.271L142.468 590.734Z" fill="url(#paint5_linear_318_413)"/>
</g>
</g>
</g>
</g>
<mask id="mask26_318_413" style="mask-type:luminance" maskUnits="userSpaceOnUse" x="296" y="591" width="18" height="18">
<path d="M296.338 591.292H313.333V608.896H296.338V591.292Z" fill="white"/>
</mask>
<g mask="url(#mask26_318_413)">
<mask id="mask27_318_413" style="mask-type:luminance" maskUnits="userSpaceOnUse" x="296" y="591" width="17" height="18">
<path d="M299.567 608.667C299.359 608.667 299.161 608.599 298.989 608.458C298.599 608.146 298.536 607.568 298.859 607.182C299.645 606.208 306.645 597.646 309.343 596.125C310.323 595.568 310.911 594.995 311.031 594.464C311.093 594.214 311.052 593.932 310.911 593.604L302.687 595.255L298.026 599.255C297.645 599.589 297.067 599.542 296.739 599.162C296.411 598.776 296.453 598.198 296.838 597.87L301.677 593.714C301.797 593.615 301.937 593.542 302.093 593.516L311.198 591.688C311.562 591.615 311.927 591.766 312.135 592.073C312.802 593.063 313.02 593.984 312.812 594.885C312.557 595.953 311.718 596.875 310.239 597.714C308.213 598.865 302.359 605.766 300.276 608.333C300.093 608.552 299.828 608.667 299.567 608.667Z" fill="white"/>
</mask>
<g mask="url(#mask27_318_413)">
<mask id="mask28_318_413" style="mask-type:luminance" maskUnits="userSpaceOnUse" x="296" y="591" width="17" height="18">
<path d="M299.567 608.667C299.359 608.667 299.161 608.599 298.989 608.458C298.599 608.146 298.536 607.568 298.859 607.182C299.645 606.208 306.645 597.646 309.343 596.125C310.323 595.568 310.911 594.995 311.031 594.464C311.093 594.214 311.052 593.932 310.911 593.604L302.687 595.255L298.026 599.255C297.645 599.589 297.067 599.542 296.739 599.162C296.411 598.776 296.453 598.198 296.838 597.87L301.677 593.714C301.797 593.615 301.937 593.542 302.093 593.516L311.198 591.688C311.562 591.615 311.927 591.766 312.135 592.073C312.802 593.063 313.02 593.984 312.812 594.885C312.557 595.953 311.718 596.875 310.239 597.714C308.213 598.865 302.359 605.766 300.276 608.333C300.093 608.552 299.828 608.667 299.567 608.667Z" fill="white"/>
</mask>
<g mask="url(#mask28_318_413)">
<mask id="mask29_318_413" style="mask-type:luminance" maskUnits="userSpaceOnUse" x="288" y="583" width="34" height="34">
<path d="M321.359 601.938L306.468 583.495L288.078 598.349L302.968 616.792L321.359 601.938Z" fill="white"/>
</mask>
<g mask="url(#mask29_318_413)">
<path d="M321.359 601.938L306.463 583.495L288.078 598.349L302.968 616.792L321.359 601.938Z" fill="url(#paint6_linear_318_413)"/>
</g>
</g>
</g>
</g>
<mask id="mask30_318_413" style="mask-type:luminance" maskUnits="userSpaceOnUse" x="109" y="730" width="68" height="32">
<path d="M109.333 730.667H176.313V761.333H109.333V730.667Z" fill="white"/>
</mask>
<g mask="url(#mask30_318_413)">
<mask id="mask31_318_413" style="mask-type:luminance" maskUnits="userSpaceOnUse" x="109" y="730" width="68" height="32">
<path d="M143.932 760.609L176.125 761.01L164.859 750.406C162.057 747.771 157.781 747.344 154.552 749.443C152.656 750.667 150.604 752.333 148.828 754.542C148.828 754.542 128.745 747.198 119.01 730.776C115.979 735.281 112.432 741.412 109.359 749.042C118.089 754.167 129.401 758.193 143.932 760.609Z" fill="white"/>
</mask>
<g mask="url(#mask31_318_413)">
<mask id="mask32_318_413" style="mask-type:luminance" maskUnits="userSpaceOnUse" x="109" y="730" width="68" height="32">
<path d="M143.932 760.609L176.125 761.01L164.859 750.406C162.057 747.771 157.781 747.344 154.552 749.443C152.656 750.667 150.604 752.333 148.828 754.542C148.828 754.542 128.745 747.198 119.01 730.776C115.979 735.281 112.432 741.412 109.359 749.042C118.089 754.167 129.401 758.193 143.932 760.609Z" fill="white"/>
</mask>
<g mask="url(#mask32_318_413)">
<path d="M101.844 732.776L113.776 777.609L183.641 759.01L171.708 714.182L101.844 732.776Z" fill="#74767B"/>
</g>
</g>
</g>
<path d="M147.401 764.766C147.464 764.766 147.526 764.766 147.589 764.766L229.307 764.682C231.328 764.677 232.964 763.057 232.964 761.057C232.964 759.057 231.318 757.406 229.302 757.443L147.578 757.526C145.563 757.531 143.927 759.156 143.927 761.156C143.927 763.094 145.469 764.672 147.401 764.766Z" fill="#333435"/>
<path d="M302.771 691.344H234.714C229.693 691.344 225.125 694.208 222.985 698.703L191.521 764.719H276.099C279.333 764.719 282.24 762.766 283.427 759.792L307.828 698.693C309.235 695.167 306.61 691.344 302.771 691.344Z" fill="#333435"/>
<path d="M254.823 725.188C253.349 729.724 254.438 734.136 257.261 735.031C260.078 735.927 263.557 732.979 265.031 728.448C266.505 723.912 265.417 719.511 262.599 718.604C259.781 717.708 256.297 720.662 254.823 725.188Z" fill="#74767B"/>
<defs>
<linearGradient id="paint0_linear_318_413" x1="148.847" y1="977.822" x2="148.847" y2="960.584" gradientUnits="userSpaceOnUse">
<stop stop-color="#686A6E"/>
<stop offset="0.03125" stop-color="#686A6E"/>
<stop offset="0.0625" stop-color="#686A6D"/>
<stop offset="0.078125" stop-color="#67696D"/>
<stop offset="0.09375" stop-color="#66686C"/>
<stop offset="0.109375" stop-color="#66686C"/>
<stop offset="0.125" stop-color="#66686B"/>
<stop offset="0.140625" stop-color="#66686B"/>
<stop offset="0.15625" stop-color="#65676B"/>
<stop offset="0.1875" stop-color="#64676B"/>
<stop offset="0.203125" stop-color="#64666A"/>
<stop offset="0.21875" stop-color="#636569"/>
<stop offset="0.234375" stop-color="#636569"/>
<stop offset="0.25" stop-color="#636568"/>
<stop offset="0.265625" stop-color="#636568"/>
<stop offset="0.28125" stop-color="#626467"/>
<stop offset="0.3125" stop-color="#616367"/>
<stop offset="0.328125" stop-color="#616367"/>
<stop offset="0.34375" stop-color="#616366"/>
<stop offset="0.359375" stop-color="#616366"/>
<stop offset="0.375" stop-color="#606265"/>
<stop offset="0.390625" stop-color="#606265"/>
<stop offset="0.40625" stop-color="#5F6164"/>
<stop offset="0.4375" stop-color="#5F6064"/>
<stop offset="0.453125" stop-color="#5E6064"/>
<stop offset="0.46875" stop-color="#5E6063"/>
<stop offset="0.484375" stop-color="#5E6063"/>
<stop offset="0.5" stop-color="#5D5F62"/>
<stop offset="0.75" stop-color="#5D5F62"/>
<stop offset="1" stop-color="#5C5E61"/>
</linearGradient>
<linearGradient id="paint1_linear_318_413" x1="70.8019" y1="971.898" x2="71.2826" y2="951.712" gradientUnits="userSpaceOnUse">
<stop stop-color="#717378"/>
<stop offset="0.03125" stop-color="#717377"/>
<stop offset="0.0625" stop-color="#707277"/>
<stop offset="0.078125" stop-color="#6F7176"/>
<stop offset="0.09375" stop-color="#6F7176"/>
<stop offset="0.109375" stop-color="#6F7175"/>
<stop offset="0.125" stop-color="#6F7175"/>
<stop offset="0.140625" stop-color="#6E7074"/>
<stop offset="0.15625" stop-color="#6E7074"/>
<stop offset="0.1875" stop-color="#6D6F74"/>
<stop offset="0.203125" stop-color="#6D6F73"/>
<stop offset="0.21875" stop-color="#6D6F73"/>
<stop offset="0.234375" stop-color="#6C6E72"/>
<stop offset="0.25" stop-color="#6C6E72"/>
<stop offset="0.28125" stop-color="#6B6D72"/>
<stop offset="0.3125" stop-color="#6B6D71"/>
<stop offset="0.328125" stop-color="#6B6C70"/>
<stop offset="0.34375" stop-color="#6A6C70"/>
<stop offset="0.375" stop-color="#696B6F"/>
<stop offset="0.40625" stop-color="#696B6F"/>
<stop offset="0.4375" stop-color="#686A6E"/>
<stop offset="0.46875" stop-color="#67696D"/>
<stop offset="0.5" stop-color="#67696D"/>
<stop offset="0.515625" stop-color="#67696D"/>
<stop offset="0.53125" stop-color="#66686C"/>
<stop offset="0.5625" stop-color="#65676B"/>
<stop offset="0.59375" stop-color="#65676B"/>
<stop offset="0.609375" stop-color="#65676A"/>
<stop offset="0.625" stop-color="#64666A"/>
<stop offset="0.640625" stop-color="#64666A"/>
<stop offset="0.65625" stop-color="#636569"/>
<stop offset="0.6875" stop-color="#636568"/>
<stop offset="0.703125" stop-color="#636568"/>
<stop offset="0.71875" stop-color="#626467"/>
<stop offset="0.75" stop-color="#616367"/>
<stop offset="0.765625" stop-color="#616367"/>
<stop offset="0.78125" stop-color="#616366"/>
<stop offset="0.8125" stop-color="#606265"/>
<stop offset="0.84375" stop-color="#5F6165"/>
<stop offset="0.859375" stop-color="#5F6165"/>
<stop offset="0.875" stop-color="#5F6164"/>
<stop offset="0.890625" stop-color="#5F6164"/>
<stop offset="0.90625" stop-color="#5E6063"/>
<stop offset="0.9375" stop-color="#5E5F62"/>
<stop offset="0.96875" stop-color="#5D5F62"/>
<stop offset="0.984375" stop-color="#5D5F62"/>
<stop offset="1" stop-color="#5C5E61"/>
</linearGradient>
<linearGradient id="paint2_linear_318_413" x1="246.308" y1="655.833" x2="332.865" y2="584.326" gradientUnits="userSpaceOnUse">
<stop stop-color="#6D6F74"/>
<stop offset="0.03125" stop-color="#6D6F74"/>
<stop offset="0.0625" stop-color="#6D6F74"/>
<stop offset="0.078125" stop-color="#6D6F73"/>
<stop offset="0.09375" stop-color="#6C6E73"/>
<stop offset="0.109375" stop-color="#6C6E73"/>
<stop offset="0.125" stop-color="#6C6E72"/>
<stop offset="0.140625" stop-color="#6C6E72"/>
<stop offset="0.15625" stop-color="#6B6D72"/>
<stop offset="0.1875" stop-color="#6B6D71"/>
<stop offset="0.203125" stop-color="#6B6D71"/>
<stop offset="0.21875" stop-color="#6A6C71"/>
<stop offset="0.234375" stop-color="#6A6C71"/>
<stop offset="0.25" stop-color="#6A6C70"/>
<stop offset="0.265625" stop-color="#6A6C70"/>
<stop offset="0.28125" stop-color="#696B70"/>
<stop offset="0.3125" stop-color="#696B6F"/>
<stop offset="0.328125" stop-color="#696B6F"/>
<stop offset="0.34375" stop-color="#686A6E"/>
<stop offset="0.375" stop-color="#686A6E"/>
<stop offset="0.390625" stop-color="#686A6E"/>
<stop offset="0.40625" stop-color="#67696D"/>
<stop offset="0.4375" stop-color="#67696D"/>
<stop offset="0.5" stop-color="#67696D"/>
<stop offset="0.515625" stop-color="#66686C"/>
<stop offset="0.53125" stop-color="#66686B"/>
<stop offset="0.5625" stop-color="#66686B"/>
<stop offset="0.59375" stop-color="#65676B"/>
<stop offset="0.625" stop-color="#64676A"/>
<stop offset="0.65625" stop-color="#64666A"/>
<stop offset="0.6875" stop-color="#636669"/>
<stop offset="0.71875" stop-color="#636569"/>
<stop offset="0.75" stop-color="#626468"/>
<stop offset="0.78125" stop-color="#626468"/>
<stop offset="0.8125" stop-color="#616367"/>
<stop offset="0.84375" stop-color="#616367"/>
<stop offset="0.875" stop-color="#606266"/>
<stop offset="0.90625" stop-color="#606266"/>
<stop offset="0.9375" stop-color="#606165"/>
<stop offset="0.96875" stop-color="#5F6165"/>
<stop offset="1" stop-color="#5F6064"/>
</linearGradient>
<linearGradient id="paint3_linear_318_413" x1="147.589" y1="648.024" x2="156.838" y2="607.154" gradientUnits="userSpaceOnUse">
<stop stop-color="#6D6F74"/>
<stop offset="0.03125" stop-color="#6D6F74"/>
<stop offset="0.0625" stop-color="#6D6F73"/>
<stop offset="0.09375" stop-color="#6C6E73"/>
<stop offset="0.125" stop-color="#6C6E72"/>
<stop offset="0.15625" stop-color="#6B6D71"/>
<stop offset="0.1875" stop-color="#6A6C71"/>
<stop offset="0.21875" stop-color="#6A6C70"/>
<stop offset="0.25" stop-color="#696B6F"/>
<stop offset="0.28125" stop-color="#696B6F"/>
<stop offset="0.3125" stop-color="#686B6E"/>
<stop offset="0.34375" stop-color="#686A6E"/>
<stop offset="0.375" stop-color="#676A6D"/>
<stop offset="0.40625" stop-color="#67696D"/>
<stop offset="0.4375" stop-color="#66686C"/>
<stop offset="0.46875" stop-color="#66686C"/>
<stop offset="0.5" stop-color="#65676B"/>
<stop offset="0.53125" stop-color="#65676A"/>
<stop offset="0.5625" stop-color="#64666A"/>
<stop offset="0.59375" stop-color="#646669"/>
<stop offset="0.625" stop-color="#636569"/>
<stop offset="0.65625" stop-color="#626468"/>
<stop offset="0.6875" stop-color="#626467"/>
<stop offset="0.71875" stop-color="#616367"/>
<stop offset="0.75" stop-color="#616366"/>
<stop offset="0.78125" stop-color="#606266"/>
<stop offset="0.8125" stop-color="#606265"/>
<stop offset="0.84375" stop-color="#5F6164"/>
<stop offset="0.875" stop-color="#5E6064"/>
<stop offset="0.90625" stop-color="#5E6063"/>
<stop offset="0.9375" stop-color="#5E5F62"/>
<stop offset="0.96875" stop-color="#5D5F62"/>
<stop offset="1" stop-color="#5D5F61"/>
</linearGradient>
<linearGradient id="paint4_linear_318_413" x1="142.912" y1="573.835" x2="166.882" y2="623.389" gradientUnits="userSpaceOnUse">
<stop stop-color="#717377"/>
<stop offset="0.0625" stop-color="#707277"/>
<stop offset="0.125" stop-color="#707277"/>
<stop offset="0.1875" stop-color="#6F7176"/>
<stop offset="0.25" stop-color="#6F7176"/>
<stop offset="0.3125" stop-color="#6E7075"/>
<stop offset="0.375" stop-color="#6D7074"/>
<stop offset="0.4375" stop-color="#6D6F74"/>
<stop offset="0.5" stop-color="#6D6E73"/>
<stop offset="0.5625" stop-color="#6C6E72"/>
<stop offset="0.625" stop-color="#6B6D72"/>
<stop offset="0.6875" stop-color="#6B6D71"/>
<stop offset="0.75" stop-color="#6A6C70"/>
<stop offset="0.8125" stop-color="#6A6C70"/>
<stop offset="0.875" stop-color="#696B6F"/>
<stop offset="1" stop-color="#686A6E"/>
</linearGradient>
<linearGradient id="paint5_linear_318_413" x1="136.24" y1="593.747" x2="143.271" y2="608.284" gradientUnits="userSpaceOnUse">
<stop stop-color="#6E7075"/>
<stop offset="0.25" stop-color="#6E7075"/>
<stop offset="0.5" stop-color="#6D6F74"/>
<stop offset="0.75" stop-color="#6C6E73"/>
<stop offset="1" stop-color="#6C6E72"/>
</linearGradient>
<linearGradient id="paint6_linear_318_413" x1="312.87" y1="591.427" x2="294.479" y2="606.277" gradientUnits="userSpaceOnUse">
<stop stop-color="#74767B"/>
<stop offset="0.125" stop-color="#74767B"/>
<stop offset="0.1875" stop-color="#74767B"/>
<stop offset="0.21875" stop-color="#74767B"/>
<stop offset="0.25" stop-color="#73757A"/>
<stop offset="0.3125" stop-color="#73757A"/>
<stop offset="0.328125" stop-color="#737579"/>
<stop offset="0.34375" stop-color="#727479"/>
<stop offset="0.359375" stop-color="#727479"/>
<stop offset="0.375" stop-color="#717378"/>
<stop offset="0.390625" stop-color="#717378"/>
<stop offset="0.40625" stop-color="#717377"/>
<stop offset="0.4375" stop-color="#707277"/>
<stop offset="0.453125" stop-color="#707277"/>
<stop offset="0.46875" stop-color="#6F7176"/>
<stop offset="0.484375" stop-color="#6F7176"/>
<stop offset="0.5" stop-color="#6F7175"/>
<stop offset="0.515625" stop-color="#6F7175"/>
<stop offset="0.53125" stop-color="#6E7074"/>
<stop offset="0.5625" stop-color="#6D6F74"/>
<stop offset="0.578125" stop-color="#6D6F73"/>
<stop offset="0.59375" stop-color="#6C6E72"/>
<stop offset="0.601562" stop-color="#6C6E72"/>
<stop offset="0.609375" stop-color="#6B6D72"/>
<stop offset="0.625" stop-color="#6B6D71"/>
<stop offset="0.640625" stop-color="#6B6D71"/>
<stop offset="0.648438" stop-color="#6A6C71"/>
<stop offset="0.65625" stop-color="#6A6C70"/>
<stop offset="0.6875" stop-color="#6A6C6F"/>
<stop offset="0.695313" stop-color="#696B6F"/>
<stop offset="0.703125" stop-color="#686A6E"/>
<stop offset="0.71875" stop-color="#686A6E"/>
<stop offset="0.726563" stop-color="#686A6E"/>
<stop offset="0.734375" stop-color="#67696D"/>
<stop offset="0.75" stop-color="#67696D"/>
<stop offset="0.765625" stop-color="#67696D"/>
<stop offset="0.773437" stop-color="#66686C"/>
<stop offset="0.78125" stop-color="#66686B"/>
<stop offset="0.796875" stop-color="#65686B"/>
<stop offset="0.8125" stop-color="#64676B"/>
<stop offset="0.820312" stop-color="#64666A"/>
<stop offset="0.828125" stop-color="#646669"/>
<stop offset="0.84375" stop-color="#636569"/>
<stop offset="0.851562" stop-color="#636569"/>
<stop offset="0.859375" stop-color="#636568"/>
<stop offset="0.875" stop-color="#626468"/>
<stop offset="0.890625" stop-color="#616367"/>
<stop offset="0.898438" stop-color="#616367"/>
<stop offset="0.90625" stop-color="#616366"/>
<stop offset="0.921875" stop-color="#606265"/>
<stop offset="0.9375" stop-color="#606165"/>
<stop offset="0.945312" stop-color="#5F6165"/>
<stop offset="0.953125" stop-color="#5F6164"/>
<stop offset="0.96875" stop-color="#5F6063"/>
<stop offset="0.976562" stop-color="#5E6063"/>
<stop offset="0.984375" stop-color="#5D5F62"/>
<stop offset="1" stop-color="#5D5F62"/>
</linearGradient>
</defs>
</svg>
