<svg width="948" height="925" viewBox="0 0 948 925" fill="none" xmlns="http://www.w3.org/2000/svg">
<g clip-path="url(#clip0_316_65)">
<path d="M743 387.977C743 374.894 643.16 364.292 520.003 364.292C396.84 364.292 297 374.894 297 387.977C297 401.059 396.84 411.662 520.003 411.662C643.16 411.662 743 401.059 743 387.977Z" fill="black"/>
<path d="M676 526.704L633.035 615.227C626.566 615.738 619.966 616.21 613.252 616.633C609.999 616.84 606.72 617.047 603.426 617.224C602.546 617.283 601.693 617.337 600.818 617.371C599.205 617.44 597.586 617.529 595.962 617.622C594.359 617.711 592.741 617.799 591.106 617.853C589.639 617.942 588.145 618.001 586.656 618.055C585.537 618.114 584.418 618.178 583.273 618.202C579.88 618.355 576.471 618.502 573.036 618.616C569.585 618.734 566.119 618.842 562.621 618.925C558.499 619.043 554.361 619.132 550.187 619.221C547.705 619.28 545.201 619.309 542.698 619.334C540.522 619.368 538.362 619.398 536.166 619.422H535.172C532.668 619.457 530.149 619.486 527.609 619.486C525.08 619.511 522.54 619.511 519.964 619.511C517.418 619.511 514.889 619.511 512.375 619.486C509.835 619.486 507.306 619.457 504.808 619.422H503.777C501.601 619.398 499.426 619.368 497.276 619.334C494.778 619.309 492.269 619.28 489.797 619.221C486.081 619.147 482.386 619.058 478.711 618.955C478.248 618.955 477.769 618.94 477.301 618.925C473.798 618.807 470.3 618.734 466.839 618.616C463.435 618.502 460.037 618.355 456.654 618.202C455.535 618.178 454.426 618.114 453.302 618.055C451.767 618.001 450.21 617.942 448.665 617.853C447.946 617.824 447.244 617.799 446.525 617.735C445.708 617.711 444.87 617.676 444.064 617.622C442.419 617.529 440.79 617.44 439.145 617.371C438.271 617.337 437.391 617.283 436.538 617.224C433.222 617.047 429.928 616.84 426.685 616.633C421.241 616.284 415.844 615.915 410.556 615.502C409.348 615.428 408.151 615.34 406.949 615.241L364 526.704C366.311 526.999 368.637 527.265 370.99 527.54C372.786 527.732 374.607 527.938 376.444 528.145C382.008 528.735 387.666 529.276 393.432 529.803C396.05 530.039 398.705 530.27 401.354 530.496C402.588 530.585 403.821 530.698 405.06 530.786C406.897 530.963 408.713 531.111 410.556 531.229C415.844 531.627 421.241 532.006 426.685 532.355C429.928 532.562 433.222 532.768 436.538 532.931C437.391 532.99 438.271 533.049 439.145 533.078C440.79 533.167 442.419 533.255 444.064 533.344C444.87 533.398 445.708 533.432 446.525 533.457C447.244 533.521 447.946 533.545 448.665 533.575C449.94 533.649 451.22 533.708 452.495 533.752C452.755 533.762 453.037 533.762 453.302 533.782C454.426 533.841 455.535 533.9 456.654 533.929C460.037 534.077 463.435 534.209 466.839 534.323C470.3 534.441 473.798 534.529 477.301 534.647C481.428 534.765 485.597 534.854 489.797 534.942C492.269 535.001 494.778 535.031 497.276 535.055C499.426 535.09 501.601 535.119 503.777 535.144H504.808C507.306 535.178 509.835 535.208 512.375 535.208C514.889 535.233 517.418 535.233 519.964 535.233C522.54 535.233 525.08 535.233 527.609 535.208C530.149 535.208 532.668 535.178 535.172 535.144H536.166C538.362 535.119 540.522 535.09 542.698 535.055C545.201 535.031 547.705 535.001 550.187 534.942C554.361 534.854 558.499 534.765 562.621 534.647C566.119 534.564 569.585 534.441 573.036 534.323C576.471 534.209 579.88 534.077 583.273 533.929C584.418 533.9 585.537 533.841 586.656 533.782C588.145 533.723 589.639 533.664 591.106 533.575C592.741 533.521 594.359 533.432 595.962 533.344C597.586 533.255 599.205 533.167 600.818 533.078C601.693 533.049 602.546 532.99 603.426 532.931C606.72 532.768 609.999 532.562 613.252 532.355C621.876 531.799 630.303 531.199 638.542 530.496C641.212 530.27 643.861 530.039 646.495 529.803C654.187 529.099 661.661 528.352 668.948 527.54C671.326 527.265 673.663 526.984 676 526.704Z" fill="white"/>
<path d="M743 388.46L694.047 489.697C691.047 490.136 687.984 490.565 684.905 490.93C679.659 491.61 674.282 492.242 668.806 492.888C661.526 493.702 654.059 494.466 646.373 495.157C643.742 495.388 641.095 495.625 638.428 495.867C630.196 496.557 621.777 497.174 613.161 497.717C609.911 497.924 606.635 498.131 603.343 498.308C602.464 498.363 601.612 498.422 600.738 498.451C599.126 498.525 597.509 498.614 595.886 498.703C594.285 498.792 592.668 498.881 591.035 498.94C589.568 499.029 588.076 499.088 586.589 499.142C585.471 499.206 584.353 499.265 583.209 499.295C579.818 499.443 576.412 499.586 572.98 499.704C569.533 499.823 566.07 499.926 562.575 500.015C558.457 500.133 554.323 500.222 550.152 500.311C547.672 500.365 545.171 500.4 542.669 500.429C540.496 500.454 538.338 500.489 536.143 500.513H535.15C532.649 500.543 530.132 500.577 527.595 500.577C525.067 500.602 522.53 500.602 519.956 500.602C517.413 500.602 514.886 500.602 512.374 500.577C509.837 500.577 507.309 500.543 504.813 500.513H503.784C501.61 500.489 499.437 500.454 497.289 500.429C494.793 500.4 492.287 500.365 489.817 500.311C485.62 500.222 481.455 500.133 477.331 500.015C473.832 499.897 470.337 499.823 466.879 499.704C463.478 499.586 460.083 499.443 456.703 499.295C455.585 499.265 454.477 499.206 453.354 499.142C451.82 499.088 450.265 499.029 448.721 498.94C448.003 498.91 447.301 498.881 446.584 498.826C445.767 498.792 444.93 498.762 444.124 498.703C443.256 498.664 442.403 498.614 441.545 498.575C440.775 498.525 439.985 498.486 439.21 498.451C438.336 498.422 437.458 498.363 436.605 498.308C433.292 498.131 430.001 497.924 426.761 497.717C421.322 497.366 415.93 496.996 410.646 496.587C408.806 496.469 406.991 496.321 405.155 496.143C403.917 496.054 402.685 495.941 401.453 495.867C398.806 495.625 396.154 495.388 393.538 495.157C387.777 494.629 382.124 494.081 376.565 493.494C374.73 493.287 372.91 493.095 371.116 492.888C365.307 492.212 359.598 491.522 354.034 490.787C351.293 490.446 348.61 490.081 345.927 489.697L297 388.47C300.526 389.254 304.16 390.019 307.904 390.754C308.227 390.813 308.56 390.867 308.913 390.956C312.096 391.592 315.356 392.214 318.668 392.781C322.35 393.437 326.12 394.068 329.958 394.715C332.526 395.124 335.132 395.523 337.768 395.933C339.079 396.145 340.42 396.318 341.762 396.51C343.088 396.712 344.455 396.89 345.787 397.097C348.511 397.482 351.252 397.847 354.034 398.202C359.598 398.942 365.307 399.632 371.116 400.308C372.91 400.5 374.73 400.707 376.565 400.91C382.124 401.501 387.777 402.044 393.538 402.572C396.154 402.808 398.806 403.045 401.453 403.262C402.685 403.351 403.917 403.474 405.155 403.563C406.991 403.741 408.806 403.884 410.646 404.002C411.276 404.047 411.91 404.091 412.55 404.15C417.219 404.485 421.972 404.826 426.761 405.137C430.001 405.344 433.292 405.546 436.605 405.709C437.458 405.768 438.336 405.832 439.21 405.857C440.853 405.945 442.481 406.034 444.124 406.123C444.93 406.182 445.767 406.212 446.584 406.236C447.301 406.301 448.003 406.325 448.721 406.36C450.265 406.449 451.82 406.503 453.354 406.562C454.477 406.621 455.585 406.68 456.703 406.71C460.083 406.863 463.478 406.991 466.879 407.109C470.337 407.228 473.832 407.317 477.331 407.435C481.455 407.548 485.62 407.637 489.817 407.726C492.287 407.785 494.793 407.815 497.289 407.844C499.437 407.874 501.61 407.899 503.784 407.933H504.813C507.309 407.963 509.837 407.987 512.374 407.987C514.886 408.022 517.413 408.022 519.956 408.022C522.53 408.022 525.067 408.022 527.595 407.987C530.132 407.987 532.649 407.963 535.15 407.933H536.143C538.338 407.899 540.496 407.874 542.669 407.844C545.171 407.815 547.672 407.785 550.152 407.726C554.323 407.637 558.457 407.548 562.575 407.435C566.07 407.346 569.533 407.228 572.98 407.109C576.412 406.991 579.818 406.863 583.209 406.71C584.353 406.68 585.471 406.621 586.589 406.562C588.076 406.503 589.568 406.449 591.035 406.36C592.668 406.301 594.285 406.212 595.886 406.123C597.509 406.034 599.126 405.945 600.738 405.857C601.612 405.832 602.464 405.768 603.343 405.709C606.635 405.546 609.911 405.344 613.161 405.137C621.777 404.574 630.196 403.973 638.428 403.262C641.095 403.045 643.742 402.808 646.373 402.572C654.059 401.866 661.526 401.117 668.806 400.308C674.282 399.662 679.659 399.03 684.905 398.35C688.01 397.97 691.099 397.541 694.125 397.097C695.493 396.89 696.845 396.712 698.16 396.51C702.195 395.967 706.116 395.346 709.98 394.715C713.812 394.068 717.582 393.437 721.28 392.781C724.602 392.214 727.847 391.592 731.03 390.956C731.362 390.867 731.706 390.813 732.044 390.754C735.798 389.999 739.454 389.24 743 388.46Z" fill="white"/>
<path d="M815 241.634L811.715 248.392L762.712 348.838C753.585 351.333 743.411 353.687 732.337 355.865C731.999 355.919 731.655 355.982 731.322 356.066C728.136 356.692 724.887 357.309 721.56 357.891C717.858 358.517 714.083 359.163 710.246 359.794C706.378 360.436 702.452 361.033 698.412 361.59C697.095 361.791 695.741 361.953 694.372 362.158C691.342 362.598 688.249 363.039 685.141 363.401C679.887 364.071 674.504 364.703 669.022 365.344C661.733 366.141 654.256 366.905 646.561 367.59C643.927 367.825 641.276 368.06 638.606 368.29C630.364 368.98 621.934 369.591 613.307 370.13C610.053 370.34 606.773 370.541 603.478 370.717C602.598 370.776 601.744 370.834 600.869 370.864C599.255 370.937 597.636 371.025 596.012 371.113C594.408 371.201 592.789 371.29 591.154 371.343C589.686 371.431 588.191 371.49 586.702 371.549C585.583 371.608 584.464 371.666 583.318 371.701C579.924 371.843 576.513 371.989 573.077 372.102C569.625 372.224 566.158 372.327 562.659 372.415C558.536 372.528 554.396 372.616 550.221 372.704C547.737 372.763 545.233 372.792 542.729 372.821C540.552 372.851 538.392 372.88 536.195 372.909H535.2C532.696 372.939 530.176 372.968 527.635 372.968C525.105 372.993 522.564 372.993 519.987 372.993C517.441 372.993 514.911 372.993 512.396 372.968C509.855 372.968 507.325 372.939 504.826 372.909H503.795C501.619 372.88 499.442 372.851 497.292 372.821C494.793 372.792 492.283 372.763 489.81 372.704C485.609 372.616 481.438 372.528 477.31 372.415C473.806 372.293 470.307 372.224 466.845 372.102C463.44 371.989 460.04 371.843 456.656 371.701C455.536 371.666 454.427 371.608 453.303 371.549C451.767 371.49 450.21 371.431 448.664 371.343C447.945 371.319 447.242 371.29 446.524 371.226C445.707 371.201 444.868 371.167 444.061 371.113C442.416 371.025 440.786 370.937 439.141 370.864C438.267 370.834 437.387 370.776 436.533 370.717C433.216 370.541 429.921 370.34 426.677 370.13C421.231 369.782 415.832 369.415 410.542 369.004C408.699 368.892 406.882 368.745 405.044 368.569C403.805 368.481 402.571 368.363 401.337 368.29H401.296C398.651 368.06 396.027 367.825 393.413 367.59C387.644 367.066 381.985 366.528 376.419 365.941C374.581 365.74 372.759 365.549 370.963 365.344C365.147 364.668 359.431 363.983 353.86 363.254C351.074 362.917 348.33 362.54 345.602 362.158C344.269 361.953 342.9 361.791 341.572 361.59C340.229 361.385 338.886 361.209 337.574 361.003C334.934 360.592 332.326 360.201 329.754 359.794C325.911 359.163 322.137 358.517 318.451 357.891C315.134 357.309 311.87 356.692 308.683 356.066C308.329 355.982 307.996 355.919 307.673 355.865C296.62 353.702 286.467 351.353 277.356 348.852L228.426 248.543L225 241.516L318.565 241.545H365.913L674.572 241.604L815 241.634Z" fill="white"/>
<path d="M815 239.566C815 242.571 813.767 245.514 811.38 248.373C805.899 255.005 794.276 261.266 777.675 266.891C777.524 266.92 777.368 266.979 777.218 267.033C774.737 267.898 772.126 268.739 769.432 269.516C758.62 272.776 746.081 275.806 732.087 278.548C731.759 278.601 731.416 278.66 731.083 278.748C727.9 279.383 724.66 279.989 721.321 280.566C717.639 281.197 713.869 281.832 710.036 282.472C706.177 283.103 702.245 283.714 698.21 284.261C696.899 284.461 695.537 284.632 694.179 284.833C691.152 285.268 688.063 285.703 684.948 286.074C679.706 286.739 674.334 287.379 668.852 288.005C661.571 288.816 654.098 289.569 646.422 290.258C643.79 290.487 641.138 290.717 638.465 290.957C630.238 291.646 621.818 292.252 613.2 292.799C609.96 293 606.668 293.2 603.376 293.376C602.497 293.43 601.65 293.488 600.771 293.518C599.169 293.606 597.541 293.694 595.919 293.782C594.322 293.87 592.699 293.953 591.077 294.011C589.605 294.099 588.113 294.153 586.625 294.212C585.507 294.27 584.389 294.329 583.25 294.358C579.854 294.5 576.453 294.647 573.01 294.759C569.567 294.876 566.104 294.994 562.614 295.077C558.49 295.194 554.35 295.282 550.179 295.365C547.704 295.424 545.202 295.453 542.706 295.478C540.532 295.512 538.363 295.536 536.174 295.565H535.181C532.684 295.595 530.162 295.624 527.624 295.624C525.097 295.653 522.554 295.653 519.984 295.653C517.441 295.653 514.924 295.653 512.397 295.624C509.859 295.624 507.336 295.595 504.835 295.565H503.8C501.631 295.536 499.463 295.512 497.315 295.478C494.819 295.453 492.317 295.424 489.842 295.365C485.65 295.282 481.484 295.194 477.36 295.077C473.855 294.964 470.365 294.876 466.902 294.759C463.506 294.647 460.104 294.5 456.729 294.358C455.611 294.329 454.493 294.27 453.37 294.212C451.841 294.153 450.28 294.099 448.746 294.011C448.023 293.982 447.321 293.953 446.598 293.899C445.787 293.87 444.95 293.835 444.144 293.782C442.5 293.694 440.878 293.606 439.229 293.518C438.355 293.488 437.477 293.43 436.618 293.376C433.311 293.2 430.019 293 426.774 292.799C421.339 292.452 415.941 292.076 410.657 291.67C408.816 291.558 407.001 291.416 405.176 291.24C403.927 291.152 402.7 291.035 401.467 290.957C398.82 290.717 396.163 290.487 393.552 290.258C387.79 289.74 382.132 289.192 376.582 288.616C374.741 288.415 372.921 288.21 371.122 288.005C365.313 287.345 359.613 286.656 354.043 285.932C351.255 285.585 348.52 285.209 345.8 284.833C344.458 284.632 343.101 284.461 341.764 284.261C340.423 284.056 339.086 283.885 337.775 283.679C335.139 283.279 332.533 282.873 329.969 282.472C326.131 281.832 322.356 281.197 318.674 280.566C315.361 279.989 312.095 279.383 308.917 278.748C308.564 278.66 308.236 278.601 307.908 278.548C293.919 275.806 281.375 272.776 270.563 269.516C267.869 268.739 265.258 267.898 262.783 267.033C262.626 266.979 262.476 266.92 262.32 266.891C245.854 261.295 234.299 255.093 228.75 248.514C226.274 245.602 225 242.63 225 239.566C225 230.25 236.972 221.453 258.154 213.721C307.315 195.774 406.122 183.512 520.01 183.512C682.93 183.512 815 208.614 815 239.566Z" fill="#CBCCCE"/>
<path d="M785 264.234C736.598 282.876 636.114 295.653 520 295.653C403.886 295.653 303.402 282.876 255 264.234C303.402 245.598 403.886 232.815 520 232.815C636.114 232.815 736.598 245.598 785 264.234Z" fill="black"/>
<path d="M307.705 355.726C296.691 353.562 286.574 351.212 277.494 348.71L228.736 248.339C226.261 245.411 225 242.449 225 239.384C225 230.041 236.933 221.227 258.07 213.481L318.559 241.337L329.475 246.351L368.491 264.322C369.435 267.044 372.143 275.535 376.211 288.482C376.211 288.482 376.211 288.482 376.211 288.511C382.073 307.157 390.748 335.043 401 368.159C398.364 367.929 395.75 367.694 393.145 367.459C387.396 366.935 381.757 366.396 376.211 365.808C374.379 365.608 372.563 365.417 370.773 365.211C364.978 364.535 359.282 363.85 353.73 363.12C350.954 362.782 348.22 362.405 345.502 362.023C344.173 361.818 342.809 361.656 341.486 361.455C340.147 361.25 338.809 361.073 337.501 360.868C334.871 360.457 332.272 360.065 329.709 359.658C325.88 359.027 322.118 358.38 318.445 357.754C315.14 357.171 311.887 356.554 308.712 355.927C308.359 355.844 308.027 355.78 307.705 355.726Z" fill="#CBCCCE"/>
<path d="M370.836 492.059C365.05 491.389 359.362 490.704 353.819 489.975C351.089 489.637 348.416 489.275 345.743 488.893L297 388.46C300.512 389.238 304.133 389.997 307.863 390.726C308.185 390.785 308.516 390.839 308.868 390.927C312.039 391.558 315.287 392.175 318.587 392.737C322.255 393.388 326.01 394.015 329.833 394.656C332.393 395.062 334.988 395.458 337.614 395.864C338.92 396.075 340.256 396.246 341.593 396.437C342.914 396.638 344.276 396.814 345.603 397.019C348.317 397.401 351.047 397.763 353.819 398.116C359.362 398.85 365.05 399.535 370.836 400.205C372.624 400.396 374.437 400.602 376.266 400.802C381.803 401.389 387.435 401.928 393.174 402.451C395.78 402.686 398.422 402.921 401.059 403.136C402.287 403.225 403.515 403.347 404.747 403.435C406.576 403.611 408.384 403.753 410.218 403.87C410.845 403.915 411.477 403.959 412.114 404.017C421.195 433.418 431.048 465.359 441 497.702C440.233 497.653 439.446 497.614 438.674 497.579C437.804 497.55 436.928 497.491 436.079 497.437C432.779 497.261 429.499 497.056 426.272 496.85C420.853 496.503 415.481 496.136 410.218 495.73C408.384 495.612 406.576 495.465 404.747 495.289C403.515 495.201 402.287 495.089 401.059 495.015C398.422 494.775 395.78 494.54 393.174 494.31C387.435 493.787 381.803 493.244 376.266 492.661C374.437 492.456 372.624 492.265 370.836 492.059Z" fill="#CBCCCE"/>
<path d="M426.843 616.233C421.385 615.885 415.974 615.518 410.673 615.107C409.463 615.033 408.262 614.945 407.057 614.847L364 526.704C366.317 526.998 368.649 527.262 371.007 527.536C372.808 527.727 374.634 527.933 376.476 528.139C382.054 528.726 387.725 529.265 393.507 529.789C396.131 530.024 398.792 530.254 401.448 530.479C402.685 530.567 403.921 530.68 405.163 530.768C407.005 530.944 408.826 531.091 410.673 531.209C415.974 531.605 421.385 531.982 426.843 532.33C430.094 532.536 433.397 532.741 436.72 532.903C437.576 532.962 438.458 533.02 439.334 533.05C440.983 533.138 442.616 533.226 444.265 533.314C445.074 533.368 445.914 533.402 446.733 533.427C447.453 533.491 448.158 533.515 448.878 533.544C450.156 533.618 451.44 533.677 452.718 533.721C461.74 562.821 470.657 591.623 479 618.544C478.536 618.544 478.056 618.529 477.586 618.515C474.074 618.397 470.568 618.324 467.098 618.206C463.686 618.094 460.279 617.947 456.887 617.795C455.765 617.77 454.654 617.707 453.527 617.648C451.988 617.594 450.427 617.535 448.878 617.447C448.158 617.418 447.453 617.393 446.733 617.33C445.914 617.305 445.074 617.271 444.265 617.217C442.616 617.124 440.983 617.036 439.334 616.967C438.458 616.933 437.576 616.879 436.72 616.82C433.397 616.644 430.094 616.438 426.843 616.233Z" fill="#CBCCCE"/>
<path d="M785 264.234C736.598 282.876 636.114 295.653 520 295.653C403.886 295.653 303.402 282.876 255 264.234C303.402 245.598 403.886 232.815 520 232.815C636.114 232.815 736.598 245.598 785 264.234Z" fill="black"/>
<path d="M676 525.737C676 516.125 606.159 508.336 520.003 508.336C433.846 508.336 364 516.125 364 525.737C364 535.345 433.846 543.138 520.003 543.138C606.159 543.138 676 535.345 676 525.737Z" fill="black"/>
<path d="M637.799 760.489C668.489 780.512 676.229 820.244 655.075 849.239C633.921 878.233 591.894 885.511 561.199 865.488C530.509 845.465 522.774 805.732 543.923 776.738C565.077 747.743 607.109 740.47 637.799 760.489Z" fill="black"/>
<path d="M631.803 764.359C662.494 784.378 670.223 824.111 649.08 853.105C627.925 882.1 585.893 889.378 555.203 869.355C524.507 849.336 516.772 809.599 537.926 780.604C559.075 751.609 601.103 744.336 631.803 764.359Z" fill="#4ADA85"/>
<path d="M617.945 848.558L611.625 841.795C606.606 845.912 600.73 848.832 596.529 849.725L590.906 839.45C595.459 838.375 601.097 836.054 605.774 831.848C609.878 828.163 611.216 824.07 608.555 821.224C606.028 818.52 602.131 818.878 595.138 821.886C585.045 826.239 576.466 827.397 570.011 820.493C564.155 814.226 564.021 805.305 570.321 796.889L564 790.121L571.055 783.781L576.905 790.048C581.923 785.931 586.099 784.017 589.536 783.021L594.968 792.943C592.363 793.841 587.526 795.181 582.347 799.838C577.67 804.043 578.021 807.39 579.887 809.387C582.083 811.738 586.001 810.972 594.244 807.748C605.599 803.042 612.715 803.857 618.7 810.271C624.628 816.606 625.15 826.092 618.209 834.95L625 842.217L617.945 848.558Z" fill="white"/>
<path d="M502.801 698.093C533.491 718.112 541.226 757.844 520.077 786.839C498.923 815.834 456.895 823.112 426.204 803.089C395.508 783.07 387.773 743.332 408.923 714.338C430.077 685.343 472.105 678.07 502.801 698.093Z" fill="black"/>
<path d="M496.8 700.993C527.495 721.017 535.225 760.744 514.076 789.744C492.922 818.734 450.894 826.012 420.199 805.988C389.509 785.97 381.774 746.232 402.923 717.238C424.077 688.243 466.104 680.97 496.8 700.993Z" fill="#4ADA85"/>
<path d="M445.618 790.46L447.689 781.643C441.202 780.202 435.239 777.405 432 774.701L437.481 764.36C441.088 767.226 446.402 770.199 452.755 771.331C458.329 772.321 462.621 770.954 463.488 767.241C464.318 763.719 461.707 760.936 455.023 757.331C445.343 752.133 439.292 746.226 441.404 737.222C443.325 729.056 450.886 723.731 461.806 723.638L463.877 714.821L473.452 716.521L471.537 724.691C478.025 726.132 482.12 728.214 485 730.266L479.701 740.249C477.397 738.775 473.406 735.846 466.363 734.596C460.01 733.465 457.343 735.699 456.741 738.3C456.019 741.361 458.983 743.918 466.596 748.366C477.319 754.328 480.812 760.265 478.85 768.617C476.909 776.876 469.098 782.833 457.42 782.696L455.199 792.16L445.618 790.46Z" fill="white"/>
<path d="M549.368 626.542C572.105 641.405 577.836 670.902 562.164 692.432C546.498 713.957 515.367 719.358 492.629 704.494C469.892 689.626 464.167 660.129 479.833 638.599C495.495 617.074 526.636 611.678 549.368 626.542Z" fill="black"/>
<path d="M545.149 629.44C568.119 644.303 573.902 673.808 558.079 695.332C542.255 716.857 510.813 722.258 487.843 707.395C464.884 692.532 459.096 663.031 474.924 641.507C490.748 619.977 522.19 614.577 545.149 629.44Z" fill="white"/>
<path d="M516.559 622.11C513.575 622.11 510.564 622.365 507.569 622.879C494.609 625.104 483.352 631.934 475.869 642.11C460.428 663.114 466.099 692.007 488.504 706.509C499.353 713.535 512.47 716.181 525.435 713.947C538.394 711.727 549.652 704.897 557.134 694.726C572.57 673.717 566.905 644.824 544.499 630.322C536.153 624.923 526.477 622.11 516.559 622.11ZM516.439 716.754C506.082 716.754 495.976 713.819 487.268 708.18C463.878 693.041 457.962 662.884 474.079 640.959C481.891 630.332 493.641 623.203 507.176 620.885C520.712 618.558 534.404 621.317 545.735 628.651C569.125 643.791 575.037 673.947 558.92 695.877C551.113 706.495 539.363 713.628 525.822 715.956C522.691 716.49 519.554 716.754 516.439 716.754Z" fill="black"/>
<path d="M514.931 696.453L514.455 689.778C509.469 690.032 504.557 689.212 501.624 687.928L503.263 679.506C506.494 680.834 510.977 681.908 515.801 681.459C520.027 681.068 522.813 679.257 522.609 676.444C522.421 673.778 519.922 672.314 514.303 671.064C506.191 669.272 500.519 666.259 500.032 659.448C499.587 653.272 503.839 648.004 511.679 645.797L511.197 639.127L518.467 638.448L518.912 644.63C523.897 644.381 527.307 645.055 529.836 645.953L528.255 654.087C526.27 653.492 522.74 652.193 517.398 652.686C512.575 653.13 511.161 655.239 511.297 657.207C511.464 659.521 514.167 660.762 520.635 662.427C529.674 664.555 533.518 668.09 533.969 674.408C534.414 680.658 530.124 686.429 521.687 688.616L522.201 695.784L514.931 696.453Z" fill="#4ADA85"/>
<path d="M117 119.314C129.999 120.843 140.3 130.602 141.915 142.909H215C213.157 92.4397 170.294 51.8517 117 50.1019V119.314Z" fill="#2F2E41"/>
<path d="M174.604 194.146C185.558 181.756 192.364 165.971 193 148.709H135.836C135.377 152.188 134.022 155.406 132 158.152L174.604 194.146Z" fill="white"/>
<path d="M98.9348 130.341C102.249 127.634 106.414 125.816 111 125.275V71.3701C89.4013 72.0679 69.9772 80.7654 56 94.3964L98.9348 130.341Z" fill="#3F3D56"/>
<path d="M128.494 162.244C124.558 165.476 119.426 167.432 113.81 167.432C109.058 167.432 104.654 166.031 101.03 163.649L63 203.822C76.7632 214.675 94.4781 221.215 113.81 221.215C136.283 221.215 156.566 212.381 171 198.187L128.494 162.244Z" fill="#7B41FB" fill-opacity="0.99"/>
<path d="M58.5962 199.946L97 159.969C93.5507 156.269 91.4612 151.444 91.4612 146.164C91.4612 141.721 92.9417 137.605 95.4617 134.207L52.5377 98.4388C40.9667 111.374 34 128.009 34 146.164C34 167.292 43.4342 186.371 58.5962 199.946Z" fill="white"/>
<path d="M52.6961 99.9498C41.3926 112.985 35.1728 129.357 35.1728 146.168C35.1728 165.997 43.4763 184.522 58.5652 198.432L95.481 159.936C92.1355 156.029 90.3083 151.179 90.3083 146.168C90.3083 141.967 91.5648 137.914 93.9575 134.387L52.6961 99.9498ZM58.6175 200.913C58.3348 200.913 58.0678 200.81 57.8636 200.625C41.8324 186.246 33 166.905 33 146.168C33 128.531 39.6596 111.369 51.7433 97.8399C51.9317 97.625 52.204 97.498 52.4972 97.4736C52.7851 97.459 53.0836 97.5469 53.2982 97.7325L96.104 133.464C96.5124 133.806 96.5857 134.378 96.2768 134.793C93.7899 138.148 92.4758 142.08 92.4758 146.168C92.4758 150.988 94.3449 155.648 97.7323 159.296C98.0936 159.677 98.0883 160.253 97.7218 160.634L59.429 200.576C59.2301 200.781 58.9526 200.903 58.6594 200.913C58.6437 200.913 58.6332 200.913 58.6175 200.913Z" fill="black"/>
<path d="M376.764 266.651L284.781 204.951C255.721 176.194 265.769 129.095 304.382 113.059C342.999 97.0227 386.88 121.73 390 161.26L376.764 266.651Z" fill="#4ADA85"/>
<path d="M362.832 152.03C371.09 169.61 362.65 190.156 343.962 197.932C325.284 205.702 303.437 197.761 295.174 180.186C286.905 162.611 295.35 142.065 314.033 134.29C332.721 126.519 354.564 134.461 362.832 152.03Z" fill="white"/>
<path d="M503.075 263.202C493.059 284.36 466.991 293.744 444.856 284.167C422.727 274.59 412.908 249.683 422.924 228.526C432.946 207.373 459.009 197.989 481.143 207.566C503.277 217.138 513.091 242.05 503.075 263.202Z" fill="white"/>
<path d="M478 252.125L459.849 227.982L447 255.05L478 252.125Z" fill="white"/>
<path d="M460.489 230.012L448.841 253.848L476.945 251.273L460.489 230.012ZM447.078 256.017C446.739 256.017 446.411 255.863 446.202 255.597C445.978 255.307 445.936 254.925 446.098 254.602L459.289 227.602C459.451 227.278 459.784 227.051 460.165 227.022C460.551 226.979 460.927 227.138 461.156 227.433L479.798 251.515C480.022 251.809 480.064 252.186 479.902 252.515C479.741 252.838 479.407 253.061 479.026 253.094L447.188 256.012C447.157 256.017 447.12 256.017 447.078 256.017Z" fill="black"/>
<path d="M718.89 118.549C718.89 170.969 674.953 213.46 620.755 213.46C566.542 213.46 522.604 170.969 522.604 118.549C522.604 66.1386 566.542 23.6475 620.755 23.6475C674.953 23.6475 718.89 66.1386 718.89 118.549Z" fill="#5C5E61"/>
<path d="M715.63 118.554C715.63 169.222 673.151 210.304 620.755 210.304C568.349 210.304 525.87 169.222 525.87 118.554C525.87 67.8859 568.349 26.8046 620.755 26.8046C673.151 26.8046 715.63 67.8859 715.63 118.554Z" fill="#74767B"/>
<path d="M542.516 81.4052C542.365 81.4052 542.203 81.375 542.063 81.2994C541.568 81.0578 541.37 80.4737 541.615 80.0004C556.786 50.9378 587.115 32.882 620.755 32.882C626.115 32.882 631.495 33.3553 636.729 34.2716C637.276 34.3723 637.641 34.8759 637.536 35.3995C637.443 35.9282 636.922 36.2806 636.37 36.1799C631.255 35.2787 626 34.8205 620.755 34.8205C587.875 34.8205 558.234 52.4685 543.411 80.8715C543.234 81.2038 542.875 81.4052 542.516 81.4052Z" fill="#979AA0"/>
<path d="M622.818 198.204C578.464 198.204 542.516 163.437 542.516 120.548C542.516 77.6589 578.464 42.8916 622.818 42.8916C667.167 42.8916 703.125 77.6589 703.125 120.548C703.125 163.437 667.167 198.204 622.818 198.204Z" fill="#E8E8E9"/>
<path d="M646.359 89.8439C646.359 103.444 634.958 118.131 620.885 118.131C606.823 118.131 595.417 103.444 595.417 89.8439C595.417 76.2441 606.823 66.5918 620.885 66.5918C634.958 66.5918 646.359 76.2441 646.359 89.8439Z" fill="#74767B"/>
<path d="M589.276 170.511H651.458C657.995 170.511 663.792 166.423 665.786 160.396L669.14 150.28C671.583 142.879 667.604 134.863 660.052 132.189C634.745 123.242 608.578 124.39 581.776 133.015C574.265 135.437 570.099 143.201 572.172 150.587L574.75 159.766C576.531 166.106 582.479 170.511 589.276 170.511Z" fill="#74767B"/>
<path d="M770 198.494C770 227.061 743.81 250.217 711.505 250.217C679.19 250.217 653 227.061 653 198.494C653 169.932 679.19 146.776 711.505 146.776C743.81 146.776 770 169.932 770 198.494Z" fill="#5C5E61"/>
<path d="M768 198.013C768 225.774 742.704 248.283 711.503 248.283C680.296 248.283 655 225.774 655 198.013C655 170.251 680.296 147.742 711.503 147.742C742.704 147.742 768 170.251 768 198.013Z" fill="#74767B"/>
<path d="M664.597 177.711C664.507 177.711 664.411 177.695 664.328 177.655C664.034 177.525 663.917 177.21 664.062 176.956C673.066 161.322 691.065 151.609 711.03 151.609C714.211 151.609 717.404 151.864 720.51 152.357C720.835 152.411 721.051 152.682 720.989 152.964C720.934 153.248 720.625 153.438 720.297 153.384C717.262 152.899 714.143 152.652 711.03 152.652C691.517 152.652 673.926 162.146 665.129 177.424C665.024 177.603 664.81 177.711 664.597 177.711Z" fill="#979AA0"/>
<path d="M712.498 241.516C686.263 241.516 665 222.472 665 198.98C665 175.487 686.263 156.443 712.498 156.443C738.731 156.443 760 175.487 760 198.98C760 222.472 738.731 241.516 712.498 241.516Z" fill="#E8E8E9"/>
<path d="M727 182.626C727 190.023 720.062 198.013 711.498 198.013C702.941 198.013 696 190.023 696 182.626C696 175.228 702.941 169.977 711.498 169.977C720.062 169.977 727 175.228 727 182.626Z" fill="#74767B"/>
<path d="M692.593 226.048H729.947C733.873 226.048 737.356 223.829 738.554 220.557L740.569 215.065C742.036 211.047 739.646 206.696 735.109 205.244C719.907 200.387 704.188 201.01 688.088 205.693C683.576 207.007 681.074 211.222 682.319 215.232L683.867 220.215C684.937 223.657 688.51 226.048 692.593 226.048Z" fill="#74767B"/>
<path d="M664 531C663.491 531.753 662.982 532.493 662.473 533.233C661.85 534.164 661.201 535.082 660.552 536H242V531H664Z" fill="#3F3D56"/>
<path d="M125.003 850H138.553L145 800L125 800.001L125.003 850Z" fill="#FFB8B8"/>
<path d="M159.979 850.283C158.395 848.803 156.508 847.63 154.429 846.832C152.348 846.043 150.121 845.638 147.872 845.637L139.831 840L139.405 840.155L124.846 845.637H121V862H165V861.486C165.007 859.404 164.566 857.342 163.704 855.419C162.842 853.496 161.576 851.75 159.979 850.283Z" fill="#2F2E41"/>
<path d="M187.003 850H200.553L207 800L187 800.001L187.003 850Z" fill="#FFB8B8"/>
<path d="M222.106 850.283C220.555 848.8 218.707 847.627 216.669 846.832C214.636 846.041 212.459 845.635 210.262 845.637L202.416 840L201.987 840.167L187.759 845.637H184L184.013 862H227V861.486C227.006 859.406 226.576 857.344 225.736 855.421C224.896 853.499 223.662 851.752 222.106 850.283Z" fill="#2F2E41"/>
<path d="M198.047 579L92 581.629L93.8443 630.701C93.8443 630.701 92 643.845 95.6886 647.351C99.3772 650.856 101.221 650.856 99.3772 656.99C97.5329 663.124 107.277 673.142 106.094 674.267C104.91 675.392 102.144 681.526 102.144 681.526L111.365 731.474C111.365 731.474 117.82 818.227 119.664 819.979C121.509 821.732 123.353 819.979 121.509 824.361C119.664 828.742 117.82 826.99 119.664 828.742C121.298 830.416 122.837 832.171 124.275 834H146.57C146.57 834 148.251 825.237 148.251 824.361C148.251 823.485 150.095 818.227 150.095 817.35C150.095 816.474 148.465 814.925 148.465 814.925C147.902 813.144 147.521 811.315 147.329 809.464C147.329 807.711 141.796 740.237 141.796 740.237L152.862 652.608L179.604 738.485C179.604 738.485 179.604 813.845 181.448 815.598C183.293 817.35 183.293 816.474 182.371 819.979C181.448 823.484 177.76 822.608 180.526 825.237C183.293 827.866 184.215 823.484 183.293 827.866L182.371 832.247L210.035 832.623C210.035 832.623 213.724 825.237 211.879 822.608C210.035 819.979 210.146 820.697 212.396 816.395C214.646 812.093 215.568 811.216 214.646 810.34C213.724 809.464 213.724 804.803 213.724 804.803L209.113 720.959C209.113 720.959 208.191 632.454 208.191 629.825C208.121 628.472 208.383 627.122 208.957 625.882V622.314L205.424 609.67L198.047 579Z" fill="#2F2E41"/>
<path d="M317.366 388.217C316.856 389.562 316.042 390.785 314.981 391.799C313.92 392.813 312.637 393.594 311.224 394.086C309.81 394.579 308.3 394.771 306.8 394.65C305.3 394.528 303.846 394.096 302.541 393.383L256.502 430L254 412.102L299.03 379.377C300.436 377.375 302.567 375.932 305.019 375.321C307.471 374.711 310.074 374.976 312.334 376.066C314.594 377.155 316.355 378.994 317.282 381.234C318.21 383.474 318.239 385.958 317.366 388.217Z" fill="#FFB8B8"/>
<path d="M115.5 404C131.24 404 144 391.912 144 377C144 362.088 131.24 350 115.5 350C99.7599 350 87 362.088 87 377C87 391.912 99.7599 404 115.5 404Z" fill="#FFB8B8"/>
<path d="M138.533 349.968C135.871 344.041 124.467 340.523 106.42 341.052C88.3726 341.582 85.2121 361.691 85.2121 361.691C75.2719 370.348 91.3202 397.376 94.1045 393.65C96.8887 389.923 101.563 393.445 101.563 393.445L97.1085 370.033C101.813 371.724 106.873 372.859 111.298 370.889L103.966 367.226L122.195 369.345L114.677 363.941C114.86 363.885 115.042 363.827 115.224 363.769C118.239 364.984 121.468 365.669 124.748 365.79C128.581 365.763 132.654 364.085 134.26 360.833C134.687 359.941 134.919 358.977 134.941 357.999C140.225 359.602 143 365.386 143 365.386C141.997 360.135 140.502 354.975 138.533 349.968Z" fill="#2F2E41"/>
<path d="M138.057 405.176C131.693 405.176 127.595 406.011 117.693 407.595C99.4152 410.523 110.361 427.028 110.361 427.028C110.361 427.028 111.189 426.629 108.948 427.028C106.708 427.427 99.0715 433.705 99.0715 433.705L85.4143 445.233C64.8332 460.584 69.4407 484.535 69.4407 484.535L99.4533 513.24L86.3053 570.832C86.3053 570.832 91.8928 579.384 89.0036 583.219C86.1143 587.054 114.46 585.953 114.46 585.953C134.023 594.239 202.945 587.235 202.945 587.235C201.99 584.864 192.762 566.489 192.762 566.489C196.772 559.909 192.953 550.401 192.953 550.401C192.953 550.401 188.969 505.426 186.424 499.208C183.878 492.99 192.94 459.301 198.897 459.664C204.854 460.027 243.331 441.374 243.331 441.374C243.331 441.374 242.363 439.911 255.066 434.975C262.362 432.251 269.051 428.241 274.782 423.157L280 413.25C277.493 414.169 269.028 399 269.028 399L265.337 400.337L263.199 399.75C263.199 399.75 246.513 404.262 243.101 407.552C239.69 410.843 238.545 409.923 235.465 410.661C232.384 411.399 232.003 413.455 231.035 413.226C230.068 412.996 228.35 415.778 227.001 415.415C225.651 415.052 222.762 416.516 220.84 416.879C218.918 417.242 205.261 422.733 205.261 422.733C196.81 418.669 173.899 420.314 173.899 420.314C173.899 420.314 166.402 416.117 164.277 420.314C163.705 421.507 162.787 422.519 161.63 423.233C160.473 423.946 159.126 424.331 157.747 424.342L148.609 420.629C148.078 422.471 138.11 403.266 138.057 405.176Z" fill="#3F3D56"/>
<path d="M36.0379 796.484L34.775 769.348C21.6105 762.623 6.92709 759.071 -8 759C12.5441 775.052 9.97669 805.994 23.9051 827.58C28.3033 834.28 34.2228 839.949 41.2251 844.166C48.2274 848.383 56.1329 851.04 64.3558 851.941L81.5479 862C83.9069 849.432 83.3868 836.524 80.0234 824.167C76.66 811.809 70.5332 800.295 62.0652 790.418C57.2572 784.922 51.7442 780.027 45.6562 775.847C41.5387 786.223 36.0379 796.484 36.0379 796.484Z" fill="#F2F2F2"/>
<path d="M-37 862.5C-37.0007 862.697 -36.9573 862.892 -36.8726 863.075C-36.7878 863.257 -36.6633 863.423 -36.5061 863.562C-36.3489 863.701 -36.1622 863.812 -35.9567 863.887C-35.7512 863.962 -35.5309 864.001 -35.3087 864H367.309C367.757 864 368.187 863.842 368.505 863.561C368.822 863.279 369 862.898 369 862.5C369 862.102 368.822 861.721 368.505 861.439C368.187 861.158 367.757 861 367.309 861H-35.3087C-35.5309 860.999 -35.7512 861.038 -35.9567 861.113C-36.1622 861.188 -36.3489 861.299 -36.5061 861.438C-36.6633 861.577 -36.7878 861.743 -36.8726 861.925C-36.9573 862.108 -37.0006 862.303 -37 862.5Z" fill="#CCCCCC"/>
<path d="M354 387V389H369.441V387H354ZM384.882 387V389H400.31V387H384.882ZM415.752 387V389H431.193V387H415.752ZM446.621 387V389H462.062V387H446.621ZM477.503 387V389H492.931V387H477.503ZM508.373 387V389H523.814V387H508.373ZM539.242 387V389H554.683V387H539.242ZM570.124 387V389H585.552V387H570.124ZM600.994 387V389H616.435V387H600.994ZM631.863 387V389H647.304V387H631.863ZM662.732 387V389H678.173V387H662.732ZM693.615 387V389H709.043V387H693.615ZM724.484 387V389H725.631C725.669 388.79 725.707 388.59 725.745 388.39C725.834 387.93 725.911 387.47 726 387H724.484Z" fill="#3F3D56"/>
<path d="M158 627.039V548.961C158.002 547.38 158.658 545.865 159.825 544.748C160.991 543.63 162.573 543.002 164.222 543H225.778C227.427 543.002 229.009 543.63 230.176 544.748C231.342 545.865 231.998 547.38 232 548.961V627.039C231.998 628.62 231.342 630.135 230.175 631.252C229.009 632.37 227.427 632.998 225.778 633H164.222C162.573 632.998 160.991 632.37 159.825 631.252C158.658 630.135 158.002 628.62 158 627.039Z" fill="#E6E6E6"/>
<path d="M163 603.333V553.538C163.002 552.07 163.611 550.662 164.694 549.624C165.777 548.586 167.245 548.002 168.777 548H221.223C222.754 548.002 224.223 548.586 225.306 549.624C226.389 550.662 226.998 552.069 227 553.538V622.462C226.998 623.931 226.389 625.338 225.306 626.376C224.223 627.414 222.754 627.998 221.223 628H188.734C181.911 627.993 175.37 625.391 170.546 620.767C165.722 616.143 163.008 609.873 163 603.333Z" fill="white"/>
<path d="M171 567.5C171.002 566.042 171.614 564.644 172.701 563.613C173.789 562.581 175.264 562.002 176.803 562H214.197C215.736 562 217.212 562.579 218.3 563.611C219.389 564.642 220 566.041 220 567.5C220 568.959 219.389 570.358 218.3 571.389C217.212 572.42 215.736 573 214.197 573H176.803C175.264 572.998 173.789 572.418 172.701 571.387C171.614 570.356 171.002 568.958 171 567.5Z" fill="#E6E6E6"/>
<path d="M171 584.5C171.002 583.042 171.614 581.644 172.701 580.613C173.789 579.581 175.264 579.002 176.803 579H214.197C215.736 579 217.212 579.579 218.3 580.611C219.389 581.642 220 583.041 220 584.5C220 585.959 219.389 587.358 218.3 588.389C217.212 589.42 215.736 590 214.197 590H176.803C175.264 589.998 173.789 589.418 172.701 588.387C171.614 587.356 171.002 585.958 171 584.5Z" fill="#E6E6E6"/>
<path d="M171 601.5C171.002 600.042 171.614 598.644 172.701 597.613C173.789 596.581 175.264 596.002 176.803 596H214.197C215.736 596 217.212 596.579 218.3 597.611C219.389 598.642 220 600.041 220 601.5C220 602.959 219.389 604.358 218.3 605.389C217.212 606.42 215.736 607 214.197 607H176.803C175.264 606.998 173.789 606.418 172.701 605.387C171.614 604.356 171.002 602.958 171 601.5Z" fill="#E6E6E6"/>
<path d="M159.526 599.998C158.132 600.023 156.75 599.757 155.476 599.218C154.201 598.68 153.067 597.883 152.152 596.883C151.238 595.883 150.565 594.704 150.181 593.43C149.797 592.156 149.712 590.817 149.931 589.509L97 561.963L112.492 554L161.543 582C163.832 582.496 165.849 583.773 167.214 585.588C168.578 587.404 169.195 589.632 168.946 591.85C168.697 594.069 167.601 596.124 165.865 597.626C164.129 599.127 161.874 599.972 159.526 599.998Z" fill="#FFB8B8"/>
<path d="M128.804 579L110.035 575.851L103.314 570.574L98.7942 568.399L83.2165 558.072L83.17 557.942L58.4177 488.835C57.2811 483.16 58.4844 477.289 61.7813 472.424C65.0782 467.56 70.2192 464.07 76.1517 462.669C79.4322 461.898 82.8484 461.792 86.1753 462.358C89.5023 462.924 92.6646 464.149 95.4541 465.953C98.2436 467.757 100.597 470.098 102.359 472.822C104.122 475.547 105.254 478.593 105.68 481.761L113.646 540.989L126.85 553.868L132.628 554.925L133.957 560.801L139 568.166L128.804 579Z" fill="#3F3D56"/>
</g>
<defs>
<clipPath id="clip0_316_65">
<rect width="948" height="925" fill="white"/>
</clipPath>
</defs>
</svg>
