<svg width="732" height="602" viewBox="0 0 732 602" fill="none" xmlns="http://www.w3.org/2000/svg">
<g clip-path="url(#clip0_136_1007)">
<path d="M79.9631 177.364H48.7748C47.1077 177.362 45.5094 176.699 44.3306 175.52C43.1517 174.342 42.4887 172.743 42.4868 171.076V141.9C42.4887 140.233 43.1517 138.635 44.3306 137.456C45.5094 136.277 47.1077 135.614 48.7748 135.612H79.9631C81.6302 135.614 83.2285 136.277 84.4073 137.456C85.5862 138.635 86.2493 140.233 86.2511 141.9V171.076C86.2493 172.743 85.5862 174.342 84.4073 175.52C83.2285 176.699 81.6302 177.362 79.9631 177.364Z" fill="#6C63FF"/>
<path d="M730.19 601.447L451.44 601.755C451.124 601.755 450.821 601.629 450.598 601.406C450.374 601.183 450.249 600.88 450.249 600.564C450.249 600.248 450.374 599.945 450.598 599.722C450.821 599.499 451.124 599.373 451.44 599.373L730.19 599.066C730.346 599.065 730.502 599.096 730.646 599.156C730.791 599.215 730.923 599.303 731.034 599.413C731.145 599.524 731.233 599.655 731.293 599.8C731.353 599.945 731.384 600.1 731.384 600.257C731.384 600.413 731.353 600.568 731.293 600.713C731.233 600.858 731.145 600.989 731.034 601.1C730.923 601.21 730.791 601.298 730.646 601.358C730.502 601.417 730.346 601.448 730.19 601.447Z" fill="#CACACA"/>
<g clip-path="url(#clip1_136_1007)">
<path d="M530.321 129.882C545.068 129.882 557.022 117.928 557.022 103.182C557.022 88.4353 545.068 76.481 530.321 76.481C515.575 76.481 503.621 88.4353 503.621 103.182C503.621 117.928 515.575 129.882 530.321 129.882Z" fill="#F2F2F2"/>
<path d="M737.448 526.152C777.135 495.923 796.091 445.127 784.224 396.67C783.929 395.466 783.618 394.264 783.29 393.066C775.423 364.302 755.959 336.965 727.59 327.775C703.771 320.058 677.771 325.992 652.921 322.923C604.139 316.899 566.32 277.429 539.71 236.104C513.099 194.778 492.648 148.52 457.288 114.38C399.003 58.1043 303.926 45.9881 231.661 82.6192C159.397 119.25 113.365 200.52 115.328 281.514C117.291 362.509 165.374 439.946 235.203 481.031C260.855 496.124 290.524 506.817 320.051 503.075C345.671 499.829 368.95 486.063 394.45 481.976C434.541 475.55 474.377 493.676 509.052 514.799C543.728 535.922 577.223 560.959 616.627 570.752C654.888 580.26 702.29 552.93 737.448 526.152Z" fill="#F2F2F2"/>
<path d="M680.426 84.32C679.556 83.74 678.676 83.19 677.806 82.63C652.657 66.5458 625.701 53.4791 597.496 43.7L590.956 133.92H549.496V30.53C546.886 29.99 544.256 29.48 541.626 29V133.92H492.356C465.232 133.92 439.219 123.145 420.04 103.966C400.861 84.7865 390.086 58.7738 390.086 31.6501C387.446 32.2201 384.826 32.83 382.206 33.48V133.92H342.076L335.846 47.89C306.861 59.0063 279.343 73.6248 253.906 91.42C253.466 91.72 253.026 92.03 252.596 92.33C250.386 93.88 248.206 95.46 246.036 97.06V441.25H364.306L362.216 412.3L350.716 253.35H582.306L570.806 412.3L568.716 441.25H685.676V87.8C683.936 86.62 682.186 85.46 680.426 84.32ZM382.206 227.1H348.816L342.646 141.8H382.206V227.1ZM541.626 227.1H485.546V225.41C485.546 224.598 485.386 223.793 485.075 223.043C484.763 222.292 484.307 221.61 483.732 221.036C483.157 220.462 482.475 220.007 481.724 219.697C480.973 219.388 480.168 219.229 479.356 219.23H454.976C454.164 219.23 453.361 219.389 452.611 219.7C451.861 220.01 451.179 220.465 450.605 221.039C450.031 221.613 449.576 222.295 449.266 223.045C448.955 223.795 448.796 224.598 448.796 225.41V227.1H390.086V141.8H541.626V227.1ZM549.496 227.1V141.8H590.386L584.216 227.1H549.496Z" fill="#3F3D56"/>
<path d="M72 463.291C80.6873 473.584 90.0835 483.258 100.12 492.241L830.7 493.241C840.736 484.258 850.133 474.584 858.82 464.291L72 463.291Z" fill="#3F3D56"/>
<path d="M567.43 370.591V456.295C567.431 457.387 567.865 458.435 568.637 459.207C569.41 459.979 570.457 460.414 571.549 460.414H698.553C699.646 460.414 700.693 459.979 701.465 459.207C702.237 458.435 702.672 457.387 702.673 456.295V370.591C702.67 369.5 702.235 368.454 701.463 367.683C700.691 366.912 699.645 366.478 698.553 366.477H571.549C570.458 366.478 569.412 366.912 568.639 367.683C567.867 368.454 567.433 369.5 567.43 370.591Z" fill="#3F3D56"/>
<path d="M570.409 371.658V455.238C570.41 455.822 570.643 456.381 571.055 456.794C571.468 457.206 572.027 457.438 572.611 457.439H697.496C698.08 457.438 698.639 457.206 699.052 456.794C699.464 456.381 699.697 455.822 699.698 455.238V371.658C699.698 371.073 699.466 370.513 699.053 370.099C698.64 369.686 698.081 369.453 697.496 369.452H572.611C572.027 369.453 571.467 369.686 571.054 370.099C570.641 370.513 570.409 371.073 570.409 371.658Z" fill="#6C63FF"/>
<path d="M564.774 473.01C565.006 473.301 565.302 473.537 565.639 473.698C565.975 473.859 566.344 473.942 566.717 473.94H702.709C703.081 473.939 703.448 473.856 703.784 473.696C704.119 473.535 704.415 473.302 704.649 473.014C704.884 472.725 705.051 472.387 705.138 472.026C705.226 471.664 705.232 471.288 705.155 470.924L703.044 460.897C702.957 460.488 702.768 460.107 702.496 459.79C702.224 459.472 701.877 459.228 701.486 459.079C701.203 458.968 700.902 458.911 700.598 458.911H568.82C568.516 458.911 568.215 458.968 567.932 459.079C567.541 459.228 567.194 459.472 566.922 459.79C566.65 460.107 566.461 460.488 566.374 460.897L564.263 470.924C564.188 471.288 564.195 471.664 564.283 472.025C564.371 472.385 564.539 472.722 564.774 473.01Z" fill="#2F2E41"/>
<path d="M695.932 463.23H699.144C699.414 463.23 699.632 463.012 699.632 462.742V461.206C699.632 460.936 699.414 460.717 699.144 460.717H695.932C695.662 460.717 695.444 460.936 695.444 461.206V462.742C695.444 463.012 695.662 463.23 695.932 463.23Z" fill="#3F3D56"/>
<path d="M687.555 463.23H690.767C691.037 463.23 691.255 463.012 691.255 462.742V461.206C691.255 460.936 691.037 460.717 690.767 460.717H687.555C687.285 460.717 687.067 460.936 687.067 461.206V462.742C687.067 463.012 687.285 463.23 687.555 463.23Z" fill="#3F3D56"/>
<path d="M679.178 463.23H682.39C682.66 463.23 682.878 463.012 682.878 462.742V461.206C682.878 460.936 682.66 460.717 682.39 460.717H679.178C678.908 460.717 678.69 460.936 678.69 461.206V462.742C678.69 463.012 678.908 463.23 679.178 463.23Z" fill="#3F3D56"/>
<path d="M670.801 463.23H674.013C674.283 463.23 674.501 463.012 674.501 462.742V461.206C674.501 460.936 674.283 460.717 674.013 460.717H670.801C670.531 460.717 670.313 460.936 670.313 461.206V462.742C670.313 463.012 670.531 463.23 670.801 463.23Z" fill="#3F3D56"/>
<path d="M662.424 463.23H665.636C665.906 463.23 666.124 463.012 666.124 462.742V461.206C666.124 460.936 665.906 460.717 665.636 460.717H662.424C662.154 460.717 661.936 460.936 661.936 461.206V462.742C661.936 463.012 662.154 463.23 662.424 463.23Z" fill="#3F3D56"/>
<path d="M654.047 463.23H657.259C657.529 463.23 657.747 463.012 657.747 462.742V461.206C657.747 460.936 657.529 460.717 657.259 460.717H654.047C653.777 460.717 653.559 460.936 653.559 461.206V462.742C653.559 463.012 653.777 463.23 654.047 463.23Z" fill="#3F3D56"/>
<path d="M645.67 463.23H648.882C649.152 463.23 649.37 463.012 649.37 462.742V461.206C649.37 460.936 649.152 460.717 648.882 460.717H645.67C645.4 460.717 645.182 460.936 645.182 461.206V462.742C645.182 463.012 645.4 463.23 645.67 463.23Z" fill="#3F3D56"/>
<path d="M637.293 463.23H640.505C640.775 463.23 640.993 463.012 640.993 462.742V461.206C640.993 460.936 640.775 460.717 640.505 460.717H637.293C637.023 460.717 636.805 460.936 636.805 461.206V462.742C636.805 463.012 637.023 463.23 637.293 463.23Z" fill="#3F3D56"/>
<path d="M628.916 463.23H632.128C632.398 463.23 632.616 463.012 632.616 462.742V461.206C632.616 460.936 632.398 460.717 632.128 460.717H628.916C628.647 460.717 628.428 460.936 628.428 461.206V462.742C628.428 463.012 628.647 463.23 628.916 463.23Z" fill="#3F3D56"/>
<path d="M620.539 463.23H623.751C624.021 463.23 624.24 463.012 624.24 462.742V461.206C624.24 460.936 624.021 460.717 623.751 460.717H620.539C620.27 460.717 620.051 460.936 620.051 461.206V462.742C620.051 463.012 620.27 463.23 620.539 463.23Z" fill="#3F3D56"/>
<path d="M612.162 463.23H615.374C615.644 463.23 615.862 463.012 615.862 462.742V461.206C615.862 460.936 615.644 460.717 615.374 460.717H612.162C611.892 460.717 611.674 460.936 611.674 461.206V462.742C611.674 463.012 611.892 463.23 612.162 463.23Z" fill="#3F3D56"/>
<path d="M603.785 463.23H606.997C607.267 463.23 607.485 463.012 607.485 462.742V461.206C607.485 460.936 607.267 460.717 606.997 460.717H603.785C603.516 460.717 603.297 460.936 603.297 461.206V462.742C603.297 463.012 603.516 463.23 603.785 463.23Z" fill="#3F3D56"/>
<path d="M595.408 463.23H598.62C598.89 463.23 599.108 463.012 599.108 462.742V461.206C599.108 460.936 598.89 460.717 598.62 460.717H595.408C595.138 460.717 594.92 460.936 594.92 461.206V462.742C594.92 463.012 595.138 463.23 595.408 463.23Z" fill="#3F3D56"/>
<path d="M587.031 463.23H590.243C590.513 463.23 590.731 463.012 590.731 462.742V461.206C590.731 460.936 590.513 460.717 590.243 460.717H587.031C586.762 460.717 586.543 460.936 586.543 461.206V462.742C586.543 463.012 586.762 463.23 587.031 463.23Z" fill="#3F3D56"/>
<path d="M578.654 463.23H581.866C582.136 463.23 582.354 463.012 582.354 462.742V461.206C582.354 460.936 582.136 460.717 581.866 460.717H578.654C578.385 460.717 578.166 460.936 578.166 461.206V462.742C578.166 463.012 578.385 463.23 578.654 463.23Z" fill="#3F3D56"/>
<path d="M570.277 463.23H573.489C573.759 463.23 573.978 463.012 573.978 462.742V461.206C573.978 460.936 573.759 460.717 573.489 460.717H570.277C570.008 460.717 569.789 460.936 569.789 461.206V462.742C569.789 463.012 570.008 463.23 570.277 463.23Z" fill="#3F3D56"/>
<path d="M696.031 467.419H699.243C699.513 467.419 699.731 467.2 699.731 466.931V465.394C699.731 465.124 699.513 464.906 699.243 464.906H696.031C695.761 464.906 695.543 465.124 695.543 465.394V466.931C695.543 467.2 695.761 467.419 696.031 467.419Z" fill="#3F3D56"/>
<path d="M687.654 467.419H690.866C691.136 467.419 691.354 467.2 691.354 466.931V465.394C691.354 465.124 691.136 464.906 690.866 464.906H687.654C687.384 464.906 687.166 465.124 687.166 465.394V466.931C687.166 467.2 687.384 467.419 687.654 467.419Z" fill="#3F3D56"/>
<path d="M679.277 467.419H682.489C682.759 467.419 682.977 467.2 682.977 466.931V465.394C682.977 465.124 682.759 464.906 682.489 464.906H679.277C679.007 464.906 678.789 465.124 678.789 465.394V466.931C678.789 467.2 679.007 467.419 679.277 467.419Z" fill="#3F3D56"/>
<path d="M670.9 467.419H674.112C674.382 467.419 674.6 467.2 674.6 466.931V465.394C674.6 465.124 674.382 464.906 674.112 464.906H670.9C670.63 464.906 670.412 465.124 670.412 465.394V466.931C670.412 467.2 670.63 467.419 670.9 467.419Z" fill="#3F3D56"/>
<path d="M662.523 467.419H665.735C666.005 467.419 666.223 467.2 666.223 466.931V465.394C666.223 465.124 666.005 464.906 665.735 464.906H662.523C662.253 464.906 662.035 465.124 662.035 465.394V466.931C662.035 467.2 662.253 467.419 662.523 467.419Z" fill="#3F3D56"/>
<path d="M654.146 467.419H657.358C657.628 467.419 657.846 467.2 657.846 466.931V465.394C657.846 465.124 657.628 464.906 657.358 464.906H654.146C653.876 464.906 653.658 465.124 653.658 465.394V466.931C653.658 467.2 653.876 467.419 654.146 467.419Z" fill="#3F3D56"/>
<path d="M645.769 467.419H648.981C649.251 467.419 649.469 467.2 649.469 466.931V465.394C649.469 465.124 649.251 464.906 648.981 464.906H645.769C645.499 464.906 645.281 465.124 645.281 465.394V466.931C645.281 467.2 645.499 467.419 645.769 467.419Z" fill="#3F3D56"/>
<path d="M637.392 467.419H640.604C640.874 467.419 641.092 467.2 641.092 466.931V465.394C641.092 465.124 640.874 464.906 640.604 464.906H637.392C637.122 464.906 636.904 465.124 636.904 465.394V466.931C636.904 467.2 637.122 467.419 637.392 467.419Z" fill="#3F3D56"/>
<path d="M629.015 467.419H632.227C632.497 467.419 632.715 467.2 632.715 466.931V465.394C632.715 465.124 632.497 464.906 632.227 464.906H629.015C628.745 464.906 628.527 465.124 628.527 465.394V466.931C628.527 467.2 628.745 467.419 629.015 467.419Z" fill="#3F3D56"/>
<path d="M620.638 467.419H623.85C624.12 467.419 624.338 467.2 624.338 466.931V465.394C624.338 465.124 624.12 464.906 623.85 464.906H620.638C620.368 464.906 620.15 465.124 620.15 465.394V466.931C620.15 467.2 620.368 467.419 620.638 467.419Z" fill="#3F3D56"/>
<path d="M612.261 467.419H615.473C615.743 467.419 615.961 467.2 615.961 466.931V465.394C615.961 465.124 615.743 464.906 615.473 464.906H612.261C611.992 464.906 611.773 465.124 611.773 465.394V466.931C611.773 467.2 611.992 467.419 612.261 467.419Z" fill="#3F3D56"/>
<path d="M603.884 467.419H607.096C607.366 467.419 607.584 467.2 607.584 466.931V465.394C607.584 465.124 607.366 464.906 607.096 464.906H603.884C603.615 464.906 603.396 465.124 603.396 465.394V466.931C603.396 467.2 603.615 467.419 603.884 467.419Z" fill="#3F3D56"/>
<path d="M595.507 467.419H598.719C598.989 467.419 599.208 467.2 599.208 466.931V465.394C599.208 465.124 598.989 464.906 598.719 464.906H595.507C595.238 464.906 595.019 465.124 595.019 465.394V466.931C595.019 467.2 595.238 467.419 595.507 467.419Z" fill="#3F3D56"/>
<path d="M587.13 467.419H590.342C590.612 467.419 590.831 467.2 590.831 466.931V465.394C590.831 465.124 590.612 464.906 590.342 464.906H587.13C586.861 464.906 586.642 465.124 586.642 465.394V466.931C586.642 467.2 586.861 467.419 587.13 467.419Z" fill="#3F3D56"/>
<path d="M578.753 467.419H581.965C582.235 467.419 582.453 467.2 582.453 466.931V465.394C582.453 465.124 582.235 464.906 581.965 464.906H578.753C578.484 464.906 578.265 465.124 578.265 465.394V466.931C578.265 467.2 578.484 467.419 578.753 467.419Z" fill="#3F3D56"/>
<path d="M570.376 467.419H573.588C573.858 467.419 574.077 467.2 574.077 466.931V465.394C574.077 465.124 573.858 464.906 573.588 464.906H570.376C570.107 464.906 569.888 465.124 569.888 465.394V466.931C569.888 467.2 570.107 467.419 570.376 467.419Z" fill="#3F3D56"/>
<path d="M626.502 472.445H659.034C659.303 472.445 659.522 472.226 659.522 471.957V470.42C659.522 470.151 659.303 469.932 659.034 469.932H626.502C626.232 469.932 626.014 470.151 626.014 470.42V471.957C626.014 472.226 626.232 472.445 626.502 472.445Z" fill="#3F3D56"/>
<path d="M592.036 387.737H589.192C588.33 387.737 587.631 388.436 587.631 389.298C587.631 390.16 588.33 390.859 589.192 390.859H592.036C592.898 390.859 593.597 390.16 593.597 389.298C593.597 388.436 592.898 387.737 592.036 387.737Z" fill="white"/>
<path d="M624.559 387.737H621.715C620.853 387.737 620.154 388.436 620.154 389.298C620.154 390.16 620.853 390.859 621.715 390.859H624.559C625.421 390.859 626.12 390.16 626.12 389.298C626.12 388.436 625.421 387.737 624.559 387.737Z" fill="white"/>
<path d="M633.774 387.737H630.93C630.068 387.737 629.369 388.436 629.369 389.298C629.369 390.16 630.068 390.859 630.93 390.859H633.774C634.636 390.859 635.335 390.16 635.335 389.298C635.335 388.436 634.636 387.737 633.774 387.737Z" fill="white"/>
<path d="M615.712 387.477H598.039C597.176 387.477 596.477 388.176 596.477 389.038C596.477 389.9 597.176 390.599 598.039 390.599H615.712C616.575 390.599 617.274 389.9 617.274 389.038C617.274 388.176 616.575 387.477 615.712 387.477Z" fill="white"/>
<path d="M659.076 387.477H641.403C640.54 387.477 639.841 388.176 639.841 389.038C639.841 389.9 640.54 390.599 641.403 390.599H659.076C659.939 390.599 660.638 389.9 660.638 389.038C660.638 388.176 659.939 387.477 659.076 387.477Z" fill="white"/>
<path d="M600.709 394.784H597.865C597.003 394.784 596.304 395.483 596.304 396.345C596.304 397.207 597.003 397.906 597.865 397.906H600.709C601.571 397.906 602.27 397.207 602.27 396.345C602.27 395.483 601.571 394.784 600.709 394.784Z" fill="white"/>
<path d="M633.232 394.784H630.388C629.526 394.784 628.827 395.483 628.827 396.345C628.827 397.207 629.526 397.906 630.388 397.906H633.232C634.094 397.906 634.793 397.207 634.793 396.345C634.793 395.483 634.094 394.784 633.232 394.784Z" fill="white"/>
<path d="M642.446 394.784H639.603C638.741 394.784 638.042 395.483 638.042 396.345C638.042 397.207 638.741 397.906 639.603 397.906H642.446C643.309 397.906 644.008 397.207 644.008 396.345C644.008 395.483 643.309 394.784 642.446 394.784Z" fill="white"/>
<path d="M624.385 394.523H606.711C605.849 394.523 605.15 395.222 605.15 396.085C605.15 396.947 605.849 397.646 606.711 397.646H624.385C625.247 397.646 625.946 396.947 625.946 396.085C625.946 395.222 625.247 394.523 624.385 394.523Z" fill="white"/>
<path d="M667.749 394.523H650.075C649.213 394.523 648.514 395.222 648.514 396.085C648.514 396.947 649.213 397.646 650.075 397.646H667.749C668.611 397.646 669.31 396.947 669.31 396.085C669.31 395.222 668.611 394.523 667.749 394.523Z" fill="white"/>
<path d="M609.381 401.83H606.538C605.676 401.83 604.977 402.529 604.977 403.391C604.977 404.254 605.676 404.952 606.538 404.952H609.381C610.244 404.952 610.943 404.254 610.943 403.391C610.943 402.529 610.244 401.83 609.381 401.83Z" fill="white"/>
<path d="M641.904 401.83H639.061C638.199 401.83 637.5 402.529 637.5 403.391C637.5 404.254 638.199 404.952 639.061 404.952H641.904C642.767 404.952 643.466 404.254 643.466 403.391C643.466 402.529 642.767 401.83 641.904 401.83Z" fill="white"/>
<path d="M651.119 401.83H648.276C647.414 401.83 646.715 402.529 646.715 403.391C646.715 404.254 647.414 404.952 648.276 404.952H651.119C651.982 404.952 652.68 404.254 652.68 403.391C652.68 402.529 651.982 401.83 651.119 401.83Z" fill="white"/>
<path d="M633.058 401.57H615.384C614.522 401.57 613.823 402.269 613.823 403.131C613.823 403.993 614.522 404.692 615.384 404.692H633.058C633.92 404.692 634.619 403.993 634.619 403.131C634.619 402.269 633.92 401.57 633.058 401.57Z" fill="white"/>
<path d="M676.422 401.57H658.748C657.886 401.57 657.187 402.269 657.187 403.131C657.187 403.993 657.886 404.692 658.748 404.692H676.422C677.284 404.692 677.983 403.993 677.983 403.131C677.983 402.269 677.284 401.57 676.422 401.57Z" fill="white"/>
<path d="M618.054 408.877H615.211C614.348 408.877 613.649 409.576 613.649 410.438C613.649 411.3 614.348 411.999 615.211 411.999H618.054C618.916 411.999 619.615 411.3 619.615 410.438C619.615 409.576 618.916 408.877 618.054 408.877Z" fill="white"/>
<path d="M650.577 408.877H647.734C646.871 408.877 646.172 409.576 646.172 410.438C646.172 411.3 646.871 411.999 647.734 411.999H650.577C651.439 411.999 652.138 411.3 652.138 410.438C652.138 409.576 651.439 408.877 650.577 408.877Z" fill="white"/>
<path d="M659.792 408.877H656.948C656.086 408.877 655.387 409.576 655.387 410.438C655.387 411.3 656.086 411.999 656.948 411.999H659.792C660.654 411.999 661.353 411.3 661.353 410.438C661.353 409.576 660.654 408.877 659.792 408.877Z" fill="white"/>
<path d="M641.731 408.617H624.057C623.195 408.617 622.496 409.316 622.496 410.178C622.496 411.04 623.195 411.739 624.057 411.739H641.731C642.593 411.739 643.292 411.04 643.292 410.178C643.292 409.316 642.593 408.617 641.731 408.617Z" fill="white"/>
<path d="M624.559 436.897H621.715C620.853 436.897 620.154 437.596 620.154 438.459C620.154 439.321 620.853 440.02 621.715 440.02H624.559C625.421 440.02 626.12 439.321 626.12 438.459C626.12 437.596 625.421 436.897 624.559 436.897Z" fill="white"/>
<path d="M633.774 436.897H630.93C630.068 436.897 629.369 437.596 629.369 438.459C629.369 439.321 630.068 440.02 630.93 440.02H633.774C634.636 440.02 635.335 439.321 635.335 438.459C635.335 437.596 634.636 436.897 633.774 436.897Z" fill="white"/>
<path d="M659.076 437.158H641.403C640.54 437.158 639.841 437.857 639.841 438.719C639.841 439.581 640.54 440.28 641.403 440.28H659.076C659.939 440.28 660.638 439.581 660.638 438.719C660.638 437.857 659.939 437.158 659.076 437.158Z" fill="white"/>
<path d="M592.036 436.897H589.192C588.33 436.897 587.631 437.596 587.631 438.459C587.631 439.321 588.33 440.02 589.192 440.02H592.036C592.898 440.02 593.597 439.321 593.597 438.459C593.597 437.596 592.898 436.897 592.036 436.897Z" fill="white"/>
<path d="M615.712 437.158H598.039C597.176 437.158 596.477 437.857 596.477 438.719C596.477 439.581 597.176 440.28 598.039 440.28H615.712C616.575 440.28 617.274 439.581 617.274 438.719C617.274 437.857 616.575 437.158 615.712 437.158Z" fill="white"/>
<path d="M600.709 429.851H597.865C597.003 429.851 596.304 430.55 596.304 431.412C596.304 432.274 597.003 432.973 597.865 432.973H600.709C601.571 432.973 602.27 432.274 602.27 431.412C602.27 430.55 601.571 429.851 600.709 429.851Z" fill="white"/>
<path d="M633.232 429.851H630.388C629.526 429.851 628.827 430.55 628.827 431.412C628.827 432.274 629.526 432.973 630.388 432.973H633.232C634.094 432.973 634.793 432.274 634.793 431.412C634.793 430.55 634.094 429.851 633.232 429.851Z" fill="white"/>
<path d="M642.446 429.851H639.603C638.741 429.851 638.042 430.55 638.042 431.412C638.042 432.274 638.741 432.973 639.603 432.973H642.446C643.309 432.973 644.008 432.274 644.008 431.412C644.008 430.55 643.309 429.851 642.446 429.851Z" fill="white"/>
<path d="M624.385 430.111H606.711C605.849 430.111 605.15 430.81 605.15 431.672C605.15 432.534 605.849 433.233 606.711 433.233H624.385C625.247 433.233 625.946 432.534 625.946 431.672C625.946 430.81 625.247 430.111 624.385 430.111Z" fill="white"/>
<path d="M609.381 422.804H606.538C605.676 422.804 604.977 423.503 604.977 424.365C604.977 425.227 605.676 425.926 606.538 425.926H609.381C610.244 425.926 610.943 425.227 610.943 424.365C610.943 423.503 610.244 422.804 609.381 422.804Z" fill="white"/>
<path d="M641.904 422.804H639.061C638.199 422.804 637.5 423.503 637.5 424.365C637.5 425.227 638.199 425.926 639.061 425.926H641.904C642.767 425.926 643.466 425.227 643.466 424.365C643.466 423.503 642.767 422.804 641.904 422.804Z" fill="white"/>
<path d="M651.119 422.804H648.276C647.414 422.804 646.715 423.503 646.715 424.365C646.715 425.227 647.414 425.926 648.276 425.926H651.119C651.982 425.926 652.68 425.227 652.68 424.365C652.68 423.503 651.982 422.804 651.119 422.804Z" fill="white"/>
<path d="M633.058 423.064H615.384C614.522 423.064 613.823 423.763 613.823 424.626C613.823 425.488 614.522 426.187 615.384 426.187H633.058C633.92 426.187 634.619 425.488 634.619 424.626C634.619 423.763 633.92 423.064 633.058 423.064Z" fill="white"/>
<path d="M618.054 415.758H615.211C614.348 415.758 613.649 416.457 613.649 417.319C613.649 418.181 614.348 418.88 615.211 418.88H618.054C618.916 418.88 619.615 418.181 619.615 417.319C619.615 416.457 618.916 415.758 618.054 415.758Z" fill="white"/>
<path d="M650.577 415.758H647.734C646.871 415.758 646.172 416.457 646.172 417.319C646.172 418.181 646.871 418.88 647.734 418.88H650.577C651.439 418.88 652.138 418.181 652.138 417.319C652.138 416.457 651.439 415.758 650.577 415.758Z" fill="white"/>
<path d="M659.792 415.758H656.948C656.086 415.758 655.387 416.457 655.387 417.319C655.387 418.181 656.086 418.88 656.948 418.88H659.792C660.654 418.88 661.353 418.181 661.353 417.319C661.353 416.457 660.654 415.758 659.792 415.758Z" fill="white"/>
<path d="M641.731 416.018H624.057C623.195 416.018 622.496 416.717 622.496 417.579C622.496 418.441 623.195 419.14 624.057 419.14H641.731C642.593 419.14 643.292 418.441 643.292 417.579C643.292 416.717 642.593 416.018 641.731 416.018Z" fill="white"/>
<path d="M576.917 519.482L563.568 498.38L605.47 464.977L622.765 445.816C625.012 443.327 627.873 441.471 631.062 440.433C634.251 439.396 637.656 439.214 640.938 439.905C644.22 440.596 647.262 442.136 649.762 444.372C652.262 446.607 654.131 449.46 655.183 452.644C656.742 457.363 656.407 462.502 654.248 466.979C652.089 471.455 648.276 474.917 643.613 476.635L616.264 486.71L576.917 519.482Z" fill="#FFB6B6"/>
<path d="M263.69 366.481V469.041H335.54V366.481C335.541 365.743 335.306 365.024 334.868 364.43C334.431 363.837 333.815 363.398 333.11 363.181C332.778 363.071 332.43 363.017 332.08 363.021H267.16C266.705 363.02 266.254 363.109 265.833 363.282C265.413 363.456 265.03 363.71 264.708 364.032C264.386 364.353 264.13 364.735 263.955 365.155C263.78 365.575 263.69 366.026 263.69 366.481ZM291.73 401.721C291.749 399.699 292.565 397.766 294.001 396.343C295.438 394.92 297.378 394.121 299.4 394.121C301.422 394.121 303.362 394.92 304.798 396.343C306.235 397.766 307.051 399.699 307.07 401.721V413.621C307.06 415.648 306.247 417.589 304.81 419.019C303.372 420.449 301.427 421.252 299.4 421.252C297.372 421.252 295.428 420.449 293.99 419.019C292.553 417.589 291.74 415.648 291.73 413.621V401.721Z" fill="#2F2E41"/>
<path d="M263.47 465.761V475.651C263.472 476.163 263.675 476.654 264.036 477.017C264.398 477.381 264.888 477.587 265.4 477.591H333.83C334.343 477.588 334.834 477.383 335.195 477.019C335.557 476.656 335.76 476.164 335.76 475.651V465.761H263.47Z" fill="#3F3D56"/>
<path d="M150.66 211.961V399.221C150.662 401.607 151.611 403.895 153.298 405.583C154.985 407.27 157.274 408.219 159.66 408.221H437.16C439.546 408.219 441.834 407.27 443.522 405.583C445.209 403.895 446.158 401.607 446.16 399.221V211.961C446.154 209.577 445.204 207.292 443.517 205.607C441.83 203.922 439.544 202.974 437.16 202.971H159.66C157.276 202.974 154.99 203.922 153.303 205.607C151.616 207.292 150.666 209.577 150.66 211.961Z" fill="#3F3D56"/>
<path d="M157.17 214.291V396.911C157.172 398.186 157.68 399.408 158.581 400.309C159.483 401.211 160.705 401.719 161.98 401.721H434.85C436.125 401.719 437.347 401.211 438.249 400.309C439.15 399.408 439.658 398.186 439.66 396.911V214.291C439.66 213.014 439.153 211.79 438.252 210.886C437.35 209.983 436.126 209.473 434.85 209.471H161.98C160.703 209.473 159.48 209.983 158.578 210.886C157.677 211.79 157.17 213.014 157.17 214.291Z" fill="white"/>
<path d="M207.81 476.921C208.088 477.269 208.441 477.55 208.843 477.742C209.244 477.934 209.685 478.033 210.13 478.031H372.47C372.914 478.03 373.352 477.931 373.753 477.74C374.154 477.548 374.507 477.27 374.786 476.925C375.066 476.581 375.265 476.178 375.37 475.746C375.474 475.315 375.481 474.865 375.39 474.431L372.87 462.461C372.765 461.973 372.541 461.518 372.216 461.139C371.891 460.76 371.476 460.469 371.01 460.291C370.672 460.158 370.313 460.09 369.95 460.091H212.64C212.277 460.09 211.918 460.158 211.58 460.291C211.114 460.469 210.699 460.76 210.374 461.139C210.049 461.518 209.824 461.973 209.72 462.461L207.2 474.431C207.11 474.865 207.119 475.314 207.224 475.745C207.33 476.175 207.53 476.577 207.81 476.921Z" fill="#2F2E41"/>
<path d="M425.994 234.628H170.671C170.406 234.622 170.153 234.512 169.967 234.322C169.782 234.133 169.678 233.878 169.678 233.612C169.678 233.347 169.782 233.092 169.967 232.902C170.153 232.712 170.406 232.603 170.671 232.597H425.994C426.26 232.603 426.512 232.712 426.698 232.902C426.884 233.092 426.987 233.347 426.987 233.612C426.987 233.878 426.884 234.133 426.698 234.322C426.512 234.512 426.26 234.622 425.994 234.628Z" fill="#3F3D56"/>
<path d="M188.051 227.413C191.338 227.413 194.002 224.689 194.002 221.33C194.002 217.97 191.338 215.247 188.051 215.247C184.765 215.247 182.101 217.97 182.101 221.33C182.101 224.689 184.765 227.413 188.051 227.413Z" fill="#3F3D56"/>
<path d="M208.607 227.413C211.894 227.413 214.558 224.689 214.558 221.33C214.558 217.97 211.894 215.247 208.607 215.247C205.321 215.247 202.657 217.97 202.657 221.33C202.657 224.689 205.321 227.413 208.607 227.413Z" fill="#3F3D56"/>
<path d="M229.163 227.413C232.45 227.413 235.114 224.689 235.114 221.33C235.114 217.97 232.45 215.247 229.163 215.247C225.877 215.247 223.213 217.97 223.213 221.33C223.213 224.689 225.877 227.413 229.163 227.413Z" fill="#3F3D56"/>
<path d="M413.616 216.751H399.016C398.728 216.758 398.453 216.877 398.251 217.084C398.05 217.29 397.937 217.567 397.937 217.856C397.937 218.145 398.05 218.422 398.251 218.628C398.453 218.835 398.728 218.954 399.016 218.961H413.616C413.907 218.957 414.184 218.839 414.388 218.632C414.592 218.425 414.706 218.146 414.706 217.856C414.706 217.566 414.592 217.287 414.388 217.08C414.184 216.873 413.907 216.755 413.616 216.751Z" fill="#3F3D56"/>
<path d="M413.616 220.901H399.016C398.728 220.907 398.453 221.027 398.251 221.233C398.049 221.44 397.936 221.717 397.936 222.006C397.936 222.295 398.049 222.572 398.251 222.779C398.453 222.985 398.728 223.104 399.016 223.111H413.616C413.907 223.107 414.185 222.989 414.389 222.783C414.594 222.576 414.708 222.297 414.708 222.006C414.708 221.715 414.594 221.436 414.389 221.229C414.185 221.022 413.907 220.904 413.616 220.901Z" fill="#3F3D56"/>
<path d="M413.616 225.051H399.016C398.728 225.058 398.453 225.177 398.251 225.383C398.05 225.59 397.937 225.867 397.937 226.156C397.937 226.444 398.05 226.722 398.251 226.928C398.453 227.135 398.728 227.254 399.016 227.261H413.616C413.907 227.257 414.184 227.138 414.388 226.932C414.592 226.725 414.706 226.446 414.706 226.156C414.706 225.865 414.592 225.587 414.388 225.38C414.184 225.173 413.907 225.055 413.616 225.051Z" fill="#3F3D56"/>
<path d="M328.84 289.827H284.649C282.846 289.827 281.385 291.289 281.385 293.091V297.409C281.385 299.211 282.846 300.673 284.649 300.673H328.84C330.642 300.673 332.104 299.211 332.104 297.409V293.091C332.104 291.289 330.642 289.827 328.84 289.827Z" fill="#6C63FF"/>
<path d="M354.598 311.519H258.89C257.087 311.519 255.626 312.98 255.626 314.783V319.1C255.626 320.903 257.087 322.364 258.89 322.364H354.598C356.401 322.364 357.862 320.903 357.862 319.1V314.783C357.862 312.98 356.401 311.519 354.598 311.519Z" fill="#E6E6E6"/>
<path d="M354.598 333.21H258.89C257.087 333.21 255.626 334.671 255.626 336.474V340.792C255.626 342.594 257.087 344.056 258.89 344.056H354.598C356.401 344.056 357.862 342.594 357.862 340.792V336.474C357.862 334.671 356.401 333.21 354.598 333.21Z" fill="#E6E6E6"/>
<path d="M362.711 405.846L362.928 406.53L362.939 406.553L369.464 426.391L376.971 449.252L391.093 492.213L391.23 498.887V498.91L392.28 552.594L389.371 559.872L392.645 571.805C392.645 571.805 391.139 553.768 383.062 564.126C378.488 570.012 373.138 576.036 368.746 581.682C375.146 584.272 381.648 586.614 388.253 588.709C389.679 589.166 391.116 589.599 392.554 590.033C392.862 590.124 393.17 590.215 393.478 590.307C415.372 596.781 438.008 600.42 460.829 601.132C462.015 601.167 463.179 601.189 464.308 601.212C464.707 601.224 465.095 601.235 465.483 601.235C466.761 601.247 468.027 601.258 469.304 601.258C471.883 601.258 474.449 601.22 477.005 601.144C495.918 600.611 514.721 598.068 533.096 593.558C532.971 585.972 532.628 577.108 532.138 567.64C531.91 562.997 526.788 557.966 526.48 553.106C526.263 549.456 530.86 546.022 530.621 542.314C529.069 519.488 527.13 528.25 525.693 512.086C525.544 510.5 525.407 508.983 525.282 507.534C524.358 497.153 523.719 490.662 523.719 490.662L529.856 451.979L539.496 391.244L538.754 390.024L537.922 389.613L487.078 364.448L484.317 357.375C483.513 355.337 482.117 353.587 480.31 352.349C478.502 351.111 476.366 350.442 474.176 350.428L440.683 350.291C438.944 350.283 437.229 350.69 435.68 351.477C434.13 352.265 432.791 353.411 431.773 354.82L422.704 367.379L362.711 405.846Z" fill="#3F3D56"/>
<path d="M398.816 482.654L391.23 498.887L386.051 509.975L377.142 556.621L372.682 561.355L368.86 544.596L328.862 553.477C327.55 546.187 328.511 553.723 327.701 545.727C327.929 545.498 328.169 545.27 328.408 545.042C329.047 544.449 329.583 543.89 329.572 543.354C329.116 515.77 330.485 468.827 341.915 440.388C343.705 435.745 346.066 431.342 348.942 427.281C349.17 426.973 349.387 426.665 349.604 426.357C354.874 418.976 358.205 411.709 362.928 406.542V406.53C362.957 406.507 362.984 406.48 363.008 406.45C363.025 406.442 363.04 406.43 363.053 406.416L395.497 389.213L396.889 428.319L397.881 456.427L398.816 482.654Z" fill="#3F3D56"/>
<path d="M515.801 487.264L525.277 507.539L528.585 514.6L537.492 561.242L541.937 565.964L545.768 549.209L547.568 548.84L580.026 542.118L589.487 572.164C591.619 568.611 592.459 564.431 591.865 560.33C591.271 556.23 589.278 552.46 586.225 549.658C585.579 549.074 585.041 548.505 585.056 547.966C585.595 515.523 583.61 456.283 565.689 431.9C559.997 424.163 556.582 416.456 551.613 411.072C551.598 411.056 551.598 411.041 551.583 411.041L539.491 391.243L538.753 390.027L537.922 389.612L515.801 487.264Z" fill="#3F3D56"/>
<path d="M458.397 340.759C483.005 340.759 502.955 320.809 502.955 296.201C502.955 271.592 483.005 251.642 458.397 251.642C433.788 251.642 413.838 271.592 413.838 296.201C413.838 320.809 433.788 340.759 458.397 340.759Z" fill="#FFB6B6"/>
<path d="M518.622 265.077C518.277 264.708 517.861 264.412 517.398 264.208C516.936 264.003 516.438 263.894 515.932 263.887L516.602 262.027C516.821 261.441 516.88 260.807 516.773 260.191C516.667 259.575 516.398 258.998 515.995 258.52C515.592 258.042 515.069 257.679 514.48 257.47C513.891 257.26 513.257 257.211 512.642 257.327L510.202 257.797L510.432 256.167C510.52 255.56 510.449 254.94 510.225 254.369C510.001 253.798 509.633 253.295 509.155 252.909C508.678 252.524 508.109 252.269 507.503 252.171C506.898 252.072 506.277 252.133 505.702 252.347C505.179 252.553 504.617 252.639 504.056 252.599C503.496 252.559 502.951 252.395 502.462 252.117C501.972 251.848 501.546 251.475 501.214 251.024C500.882 250.573 500.653 250.055 500.542 249.507L499.692 245.407L499.602 245.187C495.462 238.287 487.502 233.267 477.762 231.427C469.092 229.777 460.202 230.617 451.632 231.407C448.232 231.727 444.392 232.087 441.192 234.047C438.472 235.727 436.172 239.087 436.642 242.477C428.192 239.887 419.132 245.057 414.642 251.577C409.322 259.337 408.452 269.057 408.312 276.657C407.932 294.637 411.642 309.347 419.312 320.387C419.872 321.187 420.012 322.857 421.122 323.417L420.892 323.047C422.132 323.667 423.392 324.667 422.922 325.737C421.572 328.817 430.542 335.627 436.862 337.877C448.392 341.987 463.722 341.637 474.502 340.157L474.882 337.607C478.772 337.077 481.512 336.067 482.282 334.487C483.642 333.327 484.802 332.287 485.812 331.327L485.822 331.317C485.842 331.297 485.882 331.267 485.902 331.247C490.772 326.577 491.902 323.917 492.412 319.867C492.902 315.897 492.032 311.867 491.142 308.237C509.882 311.137 483.762 288.277 501.222 283.857C501.422 283.795 501.626 283.745 501.832 283.707C502.342 283.587 502.852 283.467 503.342 283.327C505.704 282.686 507.966 281.72 510.062 280.457C514.942 277.487 516.552 273.547 519.072 269.107C519.436 268.475 519.588 267.743 519.507 267.018C519.426 266.293 519.116 265.613 518.622 265.077Z" fill="#2F2E41"/>
<path d="M615.992 490.437C615.982 492.187 615.962 494.637 615.882 497.667C615.872 498.087 615.862 498.517 615.852 498.957C615.722 504.527 615.592 509.197 615.382 514.387C615.372 514.747 615.362 515.097 615.342 515.457C615.062 522.697 614.622 531.127 613.862 544.477C612.452 569.137 609.992 547.867 607.522 556.517C607.402 556.947 607.272 557.457 607.152 558.057C606.778 560.234 606.147 562.359 605.272 564.387C603.962 565.167 602.612 565.917 601.282 566.667C597.492 568.777 593.642 570.807 589.762 572.737C587.582 573.817 585.392 574.877 583.192 575.897C582.842 576.057 582.502 576.217 582.162 576.367C570.896 581.578 559.286 586.008 547.412 589.627C545.092 590.327 542.782 591.007 540.442 591.637C538.002 592.317 535.562 592.957 533.092 593.557C514.717 598.068 495.915 600.612 477.002 601.147C474.452 601.227 471.882 601.257 469.302 601.257C468.022 601.257 466.762 601.247 465.482 601.237C465.092 601.237 464.702 601.227 464.312 601.217C463.182 601.187 462.012 601.167 460.832 601.137C438.011 600.425 415.376 596.785 393.482 590.307L392.552 590.037C391.112 589.597 389.682 589.167 388.252 588.707C381.652 586.617 375.149 584.277 368.742 581.687C363.852 579.717 359.019 577.604 354.242 575.347C354.199 575.335 354.158 575.315 354.122 575.287C353.122 574.827 352.112 574.347 351.112 573.857C350.982 573.787 350.842 573.717 350.702 573.647C346.972 571.827 343.282 569.92 339.632 567.927C336.562 560.877 332.242 559.527 329.562 553.327C328.782 551.485 328.218 549.559 327.882 547.587C327.882 547.567 327.872 547.547 327.872 547.517C328.152 551.237 326.682 540.917 327.862 547.477C327.852 547.357 327.842 547.227 327.832 547.077C327.802 546.717 327.762 546.277 327.702 545.727C324.272 512.237 324.492 473.937 323.002 442.377C322.902 440.337 322.799 438.384 322.692 436.517C322.662 435.897 322.622 435.287 322.582 434.687C322.652 434.507 322.732 434.317 322.822 434.137C322.841 434.085 322.865 434.035 322.892 433.987C322.922 433.925 322.955 433.865 322.992 433.807C323.012 433.777 323.042 433.737 323.062 433.707C323.077 433.673 323.094 433.639 323.112 433.607C323.202 433.467 323.302 433.317 323.412 433.177C323.462 433.117 323.502 433.067 323.552 433.017C323.587 432.966 323.627 432.919 323.672 432.877C323.703 432.829 323.74 432.785 323.782 432.747C323.822 432.707 323.862 432.657 323.912 432.607C323.934 432.575 323.961 432.548 323.992 432.527C324.071 432.436 324.158 432.352 324.252 432.277C324.609 431.949 324.99 431.648 325.392 431.377C325.532 431.287 325.682 431.197 325.822 431.097C326.83 430.494 327.891 429.985 328.992 429.577C329.372 429.437 329.752 429.307 330.162 429.167C330.312 429.127 330.452 429.077 330.602 429.027C330.822 428.957 331.042 428.887 331.272 428.837C332.412 428.497 333.642 428.207 334.972 427.937C335.132 427.907 335.302 427.877 335.472 427.837C335.712 427.787 335.962 427.747 336.212 427.707C336.552 427.647 336.902 427.587 337.252 427.527C340.222 427.057 343.592 426.707 347.312 426.477C347.662 426.457 348.012 426.437 348.362 426.417C348.772 426.397 349.182 426.377 349.602 426.357C349.952 426.337 350.312 426.327 350.672 426.317C351.022 426.297 351.382 426.287 351.752 426.277C352.762 426.247 353.802 426.217 354.862 426.197C357.882 426.137 361.062 426.157 364.402 426.227C365.952 426.267 367.532 426.307 369.152 426.377C369.262 426.377 369.362 426.387 369.462 426.387C370.872 426.437 372.292 426.497 373.752 426.577C374.772 426.627 375.802 426.677 376.832 426.737C377.802 426.797 378.782 426.857 379.772 426.927C380.542 426.967 381.312 427.027 382.092 427.077C382.752 427.127 383.412 427.177 384.072 427.217L384.972 427.277C385.462 427.317 385.952 427.347 386.452 427.397C387.552 427.487 388.652 427.577 389.772 427.667C390.882 427.767 392.012 427.867 393.142 427.967C394.272 428.067 395.412 428.177 396.552 428.287C396.672 428.297 396.782 428.307 396.892 428.317C397.932 428.427 398.972 428.527 400.022 428.637C400.262 428.657 400.512 428.677 400.752 428.707C401.753 428.807 402.774 428.925 403.784 429.033C404.094 429.066 404.403 429.098 404.714 429.132C405.505 429.219 406.285 429.293 407.082 429.387C408.132 429.507 409.202 429.617 410.242 429.757C411.052 429.847 411.862 429.937 412.672 430.037C413.942 430.187 415.232 430.347 416.522 430.517C417.012 430.577 417.502 430.637 417.992 430.707C421.672 431.167 425.392 431.677 429.172 432.207C434.902 433.017 440.722 433.897 446.582 434.847C452.452 435.797 458.356 436.8 464.292 437.857C465.792 438.127 467.292 438.397 468.802 438.677C469.482 438.807 470.162 438.937 470.842 439.067C472.002 439.277 473.162 439.497 474.322 439.717C475.482 439.937 476.642 440.157 477.802 440.387C479.182 440.657 480.572 440.927 481.952 441.197C491.042 442.997 500.082 444.917 508.902 446.927C510.352 447.257 511.802 447.597 513.242 447.927C516.122 448.597 518.975 449.277 521.802 449.967C522.582 450.147 523.352 450.337 524.122 450.527C526.042 451.007 527.962 451.487 529.852 451.977L530.182 452.067C531.572 452.407 532.932 452.757 534.292 453.117C537.502 453.957 540.659 454.807 543.762 455.667C545.822 456.237 547.859 456.814 549.872 457.397C552.882 458.267 555.832 459.147 558.702 460.037C559.412 460.257 560.122 460.477 560.822 460.687C562.922 461.337 564.992 461.997 567.002 462.657C568.602 463.177 570.162 463.707 571.702 464.237C573.242 464.767 574.752 465.297 576.232 465.827C577.182 466.167 578.122 466.527 579.062 466.867C580.412 467.367 581.742 467.867 583.042 468.367C583.442 468.517 583.832 468.677 584.222 468.827C584.472 468.937 584.712 469.027 584.952 469.127C585.422 469.317 585.902 469.497 586.362 469.687C586.832 469.867 587.292 470.057 587.752 470.257C588.202 470.437 588.662 470.627 589.102 470.817C589.552 470.997 589.992 471.187 590.432 471.387C590.802 471.537 591.162 471.697 591.512 471.857C592.222 472.167 592.932 472.477 593.622 472.797C593.962 472.957 594.302 473.107 594.642 473.267L595.422 473.627C595.532 473.687 595.642 473.737 595.752 473.787C596.002 473.907 596.262 474.037 596.512 474.157C597.092 474.427 597.662 474.717 598.222 474.987C598.972 475.367 599.702 475.747 600.402 476.117C601.112 476.497 601.802 476.877 602.462 477.247C602.572 477.307 602.672 477.367 602.782 477.427C602.932 477.507 603.082 477.597 603.232 477.677C603.742 477.967 604.232 478.267 604.722 478.557C605.682 479.147 606.592 479.727 607.442 480.307C607.632 480.437 607.812 480.567 608.002 480.687C608.632 481.137 609.232 481.577 609.792 482.027C609.792 482.037 609.792 482.037 609.802 482.037C609.992 482.177 610.172 482.327 610.352 482.467C610.502 482.607 610.662 482.727 610.812 482.867C611.332 483.317 611.812 483.747 612.252 484.187C612.4 484.323 612.54 484.466 612.672 484.617C612.73 484.665 612.784 484.719 612.832 484.777C613.032 484.977 613.212 485.177 613.382 485.377C613.408 485.404 613.432 485.434 613.452 485.467C613.692 485.747 613.912 486.027 614.122 486.307C614.222 486.447 614.332 486.587 614.422 486.727C614.542 486.897 614.662 487.077 614.762 487.247C614.852 487.387 614.932 487.537 615.012 487.677C615.224 488.037 615.405 488.415 615.552 488.807C615.665 489.072 615.755 489.346 615.822 489.627C615.898 489.892 615.955 490.163 615.992 490.437Z" fill="#2F2E41"/>
<path opacity="0.2" d="M615.992 490.437C615.982 492.187 615.962 494.637 615.882 497.667C615.872 498.087 615.852 498.517 615.842 498.957C615.742 503.207 615.592 508.457 615.382 514.387C615.372 514.747 615.362 515.097 615.342 515.457C615.062 522.697 614.622 531.127 613.862 544.477C612.452 569.137 609.992 547.867 607.522 556.517C600.662 552.297 593.142 547.877 585.102 543.337C583.652 542.517 582.189 541.693 580.712 540.867C564.632 531.897 546.672 522.497 527.922 513.187C527.182 512.817 526.432 512.447 525.692 512.087C482.742 490.857 435.862 470.207 397.882 456.427C390.552 453.767 383.552 451.367 376.972 449.257C363.112 444.827 351.132 441.727 341.912 440.387C332.312 438.987 325.682 439.487 323.002 442.377C322.902 440.337 322.799 438.383 322.692 436.517C322.652 435.897 322.612 435.287 322.572 434.687C322.634 434.522 322.714 434.365 322.792 434.207C322.803 434.183 322.811 434.16 322.822 434.137C322.841 434.085 322.865 434.035 322.892 433.987C322.922 433.925 322.955 433.865 322.992 433.807C323.025 433.736 323.065 433.669 323.112 433.607C323.202 433.467 323.302 433.317 323.412 433.177C323.493 433.072 323.58 432.972 323.672 432.877C323.703 432.829 323.74 432.785 323.782 432.747C323.822 432.707 323.862 432.657 323.912 432.607C323.934 432.575 323.961 432.548 323.992 432.527C324.071 432.436 324.158 432.352 324.252 432.277C324.609 431.948 324.99 431.648 325.392 431.377C325.532 431.287 325.682 431.197 325.822 431.097C326.83 430.494 327.891 429.985 328.992 429.577C329.372 429.437 329.752 429.307 330.162 429.167C330.312 429.127 330.452 429.077 330.602 429.027C330.822 428.957 331.042 428.887 331.272 428.837C332.412 428.497 333.642 428.207 334.972 427.937C335.372 427.857 335.792 427.777 336.212 427.707C336.552 427.647 336.902 427.587 337.252 427.527C340.222 427.057 343.592 426.707 347.312 426.477C347.662 426.457 348.012 426.437 348.362 426.417C348.772 426.397 349.182 426.377 349.602 426.357C349.952 426.337 350.312 426.327 350.672 426.317C351.022 426.297 351.382 426.287 351.752 426.277C352.762 426.247 353.802 426.217 354.862 426.197C357.882 426.147 361.062 426.167 364.402 426.237C365.952 426.267 367.532 426.317 369.152 426.387C369.252 426.387 369.362 426.397 369.462 426.397C370.872 426.437 372.302 426.507 373.752 426.577C374.772 426.627 375.802 426.677 376.832 426.737C377.802 426.797 378.782 426.857 379.772 426.927C380.542 426.967 381.312 427.027 382.092 427.077C382.752 427.127 383.412 427.177 384.072 427.217C384.862 427.277 385.652 427.337 386.452 427.397C387.552 427.487 388.652 427.577 389.772 427.667C390.882 427.767 392.012 427.867 393.142 427.967C394.272 428.067 395.412 428.177 396.552 428.287C396.672 428.297 396.782 428.307 396.892 428.317C397.932 428.427 398.972 428.527 400.022 428.637C405.842 429.227 411.832 429.917 417.992 430.707C421.672 431.177 425.399 431.68 429.172 432.217C434.902 433.027 440.722 433.907 446.582 434.847C452.452 435.797 458.356 436.8 464.292 437.857C465.792 438.127 467.292 438.397 468.802 438.677C470.642 439.017 472.482 439.363 474.322 439.717C475.482 439.937 476.642 440.157 477.802 440.387C479.182 440.657 480.572 440.927 481.952 441.197C491.042 442.997 500.082 444.917 508.902 446.927C510.352 447.257 511.802 447.597 513.242 447.927C516.122 448.597 518.976 449.277 521.802 449.967C522.582 450.157 523.352 450.347 524.122 450.537C526.052 451.017 527.962 451.497 529.852 451.977V451.987C529.962 452.007 530.072 452.037 530.182 452.067C531.562 452.417 532.932 452.767 534.292 453.127C537.502 453.967 540.659 454.813 543.762 455.667C545.822 456.247 547.862 456.817 549.872 457.397C552.882 458.277 555.832 459.157 558.702 460.037C559.412 460.257 560.122 460.477 560.822 460.687C562.922 461.347 564.982 462.003 567.002 462.657C568.602 463.177 570.162 463.707 571.702 464.237C573.242 464.767 574.752 465.297 576.232 465.827C577.192 466.167 578.132 466.517 579.062 466.857C580.422 467.357 581.742 467.857 583.042 468.367C583.442 468.517 583.832 468.677 584.222 468.827C584.952 469.107 585.662 469.397 586.362 469.687C586.832 469.867 587.292 470.057 587.752 470.257C588.202 470.437 588.662 470.627 589.102 470.817C589.552 470.997 589.992 471.187 590.432 471.387C590.802 471.537 591.162 471.697 591.512 471.857C592.222 472.167 592.932 472.477 593.622 472.797C593.962 472.957 594.302 473.107 594.642 473.267L595.422 473.627C595.532 473.687 595.642 473.737 595.752 473.787C596.602 474.187 597.422 474.587 598.222 474.987C598.972 475.367 599.702 475.747 600.402 476.117C601.232 476.557 602.022 476.987 602.782 477.427C602.932 477.507 603.082 477.597 603.232 477.677C603.742 477.967 604.232 478.267 604.722 478.557C605.682 479.147 606.592 479.727 607.442 480.307C608.282 480.887 609.062 481.457 609.792 482.027C609.792 482.037 609.792 482.037 609.802 482.037C610.152 482.317 610.492 482.597 610.812 482.867C611.332 483.317 611.812 483.747 612.252 484.187C612.4 484.322 612.54 484.466 612.672 484.617C612.73 484.665 612.784 484.718 612.832 484.777C613.042 485.007 613.252 485.237 613.452 485.467C613.692 485.747 613.912 486.027 614.122 486.307C614.222 486.447 614.332 486.587 614.422 486.727C614.542 486.897 614.662 487.077 614.762 487.247C614.852 487.387 614.932 487.537 615.012 487.677C615.225 488.037 615.405 488.415 615.552 488.807C615.662 489.073 615.752 489.347 615.822 489.627C615.898 489.892 615.955 490.163 615.992 490.437Z" fill="black"/>
</g>
</g>
<defs>
<clipPath id="clip0_136_1007">
<rect width="731.38" height="601.755" fill="white"/>
</clipPath>
<clipPath id="clip1_136_1007">
<rect width="786.82" height="572.258" fill="white" transform="translate(72 29)"/>
</clipPath>
</defs>
</svg>
