<svg width="525" height="459" viewBox="0 0 525 459" fill="none" xmlns="http://www.w3.org/2000/svg">
<g clip-path="url(#clip0_148_180)">
<path d="M366.925 451.646L358.968 451.646L355.183 420.955L366.927 420.955L366.925 451.646Z" fill="#FFB6B6"/>
<path d="M339.664 451.466C339.416 451.883 339.286 453.23 339.286 453.715C339.286 455.207 340.495 456.416 341.986 456.416H366.628C367.645 456.416 368.47 455.591 368.47 454.573V453.548C368.47 453.548 369.689 450.464 367.179 446.664C367.179 446.664 364.06 449.64 359.399 444.979L358.025 442.489L348.076 449.765L342.561 450.444C341.355 450.592 340.285 450.421 339.664 451.466Z" fill="#2F2E41"/>
<path d="M450.921 441.693L443.65 444.925L427.723 418.418L438.454 413.648L450.921 441.693Z" fill="#FFB6B6"/>
<path d="M425.937 452.603C425.88 453.085 426.308 454.368 426.505 454.812C427.111 456.175 428.707 456.788 430.07 456.182L452.586 446.172C453.516 445.758 453.935 444.67 453.521 443.74L453.105 442.802C453.105 442.802 452.966 439.49 449.129 437.037C449.129 437.037 447.487 441.023 441.335 438.658L439.068 436.941L432.932 447.631L428.169 450.492C427.127 451.118 426.08 451.396 425.937 452.603Z" fill="#2F2E41"/>
<path d="M349.633 259.605L342.558 274.462L354.585 428.684H369.625L375.808 327.52L429.785 428.684H448.234L420.377 356.525L401.276 262.435L349.633 259.605Z" fill="#2F2E41"/>
<path d="M387.512 164.331H368.857L362.016 175.066L346.584 182.446L349.939 228.742L348.256 262.497L350.562 262.43C367.025 261.949 383.48 264.627 398.759 270.779C402.678 272.357 406.787 273.238 410.324 272.353C410.324 272.353 408.982 266.986 407.64 265.644C406.298 264.302 405.627 263.193 406.298 262.405C406.969 261.618 408.311 260.947 406.969 259.605C405.627 258.264 405.627 256.573 405.627 256.573L401.602 226.729L409.653 184.459L392.879 175.066L387.512 164.331Z" fill="#6C63FF"/>
<path d="M419.568 222.859L419.059 262.452L409.207 297.747L401.332 294.81L404.829 262.458L404.369 218.678L419.568 222.859Z" fill="#FFB6B6"/>
<path d="M409.174 303.439C410.098 298.364 408.404 293.804 405.39 293.256C402.377 292.707 399.185 296.377 398.261 301.452C397.337 306.527 399.031 311.086 402.044 311.635C405.058 312.183 408.249 308.514 409.174 303.439Z" fill="#FFB6B6"/>
<path d="M405.627 182.446C405.627 182.446 416.743 184.169 416.888 193.707C417.033 203.246 427.769 218.678 421.059 230.755L403.614 233.438L394.221 199.22L404.956 181.104" fill="#6C63FF"/>
<path d="M354.891 215.886L332.74 248.707L305.136 272.807L300.164 266.03L320.84 240.903L344.48 204.051L354.891 215.886Z" fill="#FFB6B6"/>
<path d="M301.985 277.547C305.542 273.811 306.628 269.07 304.41 266.958C302.192 264.846 297.51 266.162 293.952 269.897C290.395 273.633 289.309 278.374 291.527 280.486C293.745 282.598 298.427 281.282 301.985 277.547Z" fill="#FFB6B6"/>
<path d="M365.413 174.452C365.413 174.452 373.761 181.991 368.648 190.045C363.535 198.099 364.042 216.891 351.805 223.305L335.749 215.976C337.102 202.745 337.891 189.027 346.673 182.216L365.589 172.962" fill="#6C63FF"/>
<path d="M375.29 161.566C384.508 161.566 391.981 154.093 391.981 144.874C391.981 135.655 384.508 128.182 375.29 128.182C366.071 128.182 358.598 135.655 358.598 144.874C358.598 154.093 366.071 161.566 375.29 161.566Z" fill="#FFB6B6"/>
<path d="M387.549 158.589C388.468 158.745 389.548 156.517 390.579 154.346C392.738 149.803 394.111 146.914 394.215 142.832C394.304 139.352 393.338 140.265 392.397 132.529C392.087 129.977 387.728 129.982 386.841 128.771C385.342 126.724 387.641 125.88 383.913 124.651C376.929 122.348 373.77 125.925 369.335 126.233C369.223 126.241 367.024 128.391 365.796 128.503C363.645 128.697 360.541 128.362 359.149 125.084C357.848 122.019 356.986 130.976 358.149 132.084C359.137 133.025 360.84 135.387 360.883 135.559C360.932 135.754 356.834 131.213 356.149 133.084C355.657 134.431 357.207 141.359 358.459 141.62C359.506 141.837 362.067 138.386 361.489 139.801C360.149 143.084 368.207 145.179 377.852 138.589C378.194 138.356 377.871 138.728 379.064 141.62C380.569 145.266 380.909 145.463 380.882 146.468C380.826 148.642 379.193 149.282 379.67 150.71C380.057 151.867 381.567 152.762 382.701 152.528C383.98 152.264 384.199 150.682 385.125 150.71C385.918 150.734 386.859 151.929 386.943 153.134C387.119 155.674 383.359 156.373 382.701 159.801C382.329 161.735 386.704 158.445 387.549 158.589Z" fill="#2F2E41"/>
<path d="M255.412 457.176H111.987C90.4755 457.176 72.9741 439.675 72.9741 418.162V39.0133C72.9741 17.5014 90.4755 0 111.987 0H255.412C276.924 0 294.425 17.5014 294.425 39.0133C297.095 191.268 301.648 361.769 294.425 418.162C294.425 439.675 276.924 457.176 255.412 457.176Z" fill="#3F3D56"/>
<path d="M296.425 139.463C295.515 139.463 294.775 140.204 294.775 141.114V193.928C294.775 194.839 295.515 195.579 296.425 195.579C297.336 195.579 298.076 194.839 298.076 193.928V141.114C298.076 140.204 297.336 139.463 296.425 139.463Z" fill="#3F3D56"/>
<path d="M290.712 39.0136V418.156C290.712 436.88 276.139 452.197 257.711 453.385H257.703C257.431 453.401 257.158 453.418 256.878 453.426C256.391 453.451 255.904 453.459 255.409 453.459C255.409 453.459 253.593 453.327 250.276 453.08C246.925 452.832 242.048 452.461 235.966 451.974C234.143 451.833 232.22 451.677 230.19 451.512C226.146 451.182 221.707 450.818 216.945 450.406C215.047 450.249 213.083 450.076 211.078 449.902C200.828 449.019 189.349 447.988 177.243 446.816C175.197 446.626 173.134 446.428 171.054 446.222C170.509 446.164 76.688 422.579 76.688 418.156V39.0136C76.688 19.5136 92.4911 3.71045 111.991 3.71045H133.068C136.434 3.71045 139.141 6.33467 139.43 9.69335C139.455 9.91618 139.48 10.1389 139.521 10.3618C140.131 13.737 143.226 16.0889 146.659 16.0889H220.741C224.174 16.0889 227.269 13.737 227.879 10.3618C227.92 10.1389 227.945 9.91618 227.97 9.69335C228.259 6.33467 230.966 3.71045 234.332 3.71045H255.409C274.909 3.71045 290.712 19.5136 290.712 39.0136Z" fill="white"/>
<path d="M72.149 99.8525C71.2387 99.8525 70.4985 100.593 70.4985 101.503V114.707C70.4985 115.617 71.2387 116.357 72.149 116.357C73.0592 116.357 73.7994 115.617 73.7994 114.707V101.503C73.7994 100.593 73.0592 99.8525 72.149 99.8525Z" fill="#3F3D56"/>
<path d="M72.149 139.463C71.2387 139.463 70.4985 140.204 70.4985 141.114V166.696C70.4985 167.606 71.2387 168.346 72.149 168.346C73.0592 168.346 73.7994 167.606 73.7994 166.696V141.114C73.7994 140.204 73.0592 139.463 72.149 139.463Z" fill="#3F3D56"/>
<path d="M72.149 175.773C71.2387 175.773 70.4985 176.514 70.4985 177.424V203.006C70.4985 203.916 71.2387 204.656 72.149 204.656C73.0592 204.656 73.7994 203.916 73.7994 203.006V177.424C73.7994 176.514 73.0592 175.773 72.149 175.773Z" fill="#3F3D56"/>
<path d="M132.493 9.49023H100.929C100.758 9.49023 100.619 9.62912 100.619 9.80044V13.3062C100.619 13.4775 100.758 13.6164 100.929 13.6164H132.493C132.664 13.6164 132.803 13.4775 132.803 13.3062V9.80044C132.803 9.62912 132.664 9.49023 132.493 9.49023Z" fill="#E6E6E6"/>
<path d="M239.547 13.6165C241.371 13.6165 242.848 12.1386 242.848 10.3156C242.848 8.49252 241.371 7.01465 239.547 7.01465C237.724 7.01465 236.247 8.49252 236.247 10.3156C236.247 12.1386 237.724 13.6165 239.547 13.6165Z" fill="#E6E6E6"/>
<path d="M248.625 13.6165C250.448 13.6165 251.926 12.1386 251.926 10.3156C251.926 8.49252 250.448 7.01465 248.625 7.01465C246.802 7.01465 245.324 8.49252 245.324 10.3156C245.324 12.1386 246.802 13.6165 248.625 13.6165Z" fill="#E6E6E6"/>
<path d="M257.703 13.6165C259.526 13.6165 261.004 12.1386 261.004 10.3156C261.004 8.49252 259.526 7.01465 257.703 7.01465C255.88 7.01465 254.402 8.49252 254.402 10.3156C254.402 12.1386 255.88 13.6165 257.703 13.6165Z" fill="#E6E6E6"/>
<path d="M258.752 303.725C258.752 266.1 226.952 245.402 190.626 235.599C144.053 223.03 109.944 248.463 122.499 303.725C130.835 340.416 173.148 395.171 190.626 361.852C210.626 323.725 258.752 341.351 258.752 303.725Z" fill="#F2F2F2"/>
<path d="M0 457.276C0 457.936 0.53003 458.466 1.19006 458.466H523.48C524.14 458.466 524.67 457.936 524.67 457.276C524.67 456.616 524.14 456.086 523.48 456.086H1.19006C0.53003 456.086 0 456.616 0 457.276Z" fill="#CCCCCC"/>
<path d="M167.211 297.009L158.981 293.111C162.357 297.821 165.265 305.179 166.822 311.033C169.459 305.58 173.709 298.907 177.916 294.921L169.218 297.159C174.578 270.891 194.737 252.033 217.822 252.033L218.149 251.084C194.036 251.084 172.683 269.681 167.211 297.009Z" fill="#3F3D56"/>
<path d="M205.09 337.033H153.09C150.885 337.033 149.09 335.239 149.09 333.033C149.09 330.827 150.885 329.033 153.09 329.033H205.09C207.296 329.033 209.09 330.827 209.09 333.033C209.09 335.239 207.296 337.033 205.09 337.033Z" fill="#6C63FF"/>
<path d="M253.7 129.725V235.725C253.7 245.099 246.074 252.725 236.7 252.725H130.7C121.326 252.725 113.7 245.099 113.7 235.725V129.725C113.7 120.351 121.326 112.725 130.7 112.725H236.7C246.074 112.725 253.7 120.351 253.7 129.725ZM236.7 250.725C244.984 250.725 251.7 244.01 251.7 235.725V182.284C251.7 144.973 221.452 114.725 184.141 114.725H130.7C122.415 114.725 115.7 121.441 115.7 129.725V235.725C115.7 244.01 122.415 250.725 130.7 250.725H236.7Z" fill="#3F3D56"/>
<path d="M197.81 156.018H163.59C162.727 156.018 162.025 155.316 162.025 154.453C162.025 153.59 162.727 152.888 163.59 152.888H197.81C198.673 152.888 199.375 153.59 199.375 154.453C199.375 155.316 198.673 156.018 197.81 156.018Z" fill="#3F3D56"/>
<path d="M197.81 189.381H163.59C162.727 189.381 162.025 188.679 162.025 187.816C162.025 186.954 162.727 186.252 163.59 186.252H197.81C198.673 186.252 199.375 186.954 199.375 187.816C199.375 188.679 198.673 189.381 197.81 189.381Z" fill="#3F3D56"/>
<path d="M180.81 235.381H146.59C145.727 235.381 145.025 234.679 145.025 233.816C145.025 232.954 145.727 232.252 146.59 232.252H180.81C181.673 232.252 182.375 232.954 182.375 233.816C182.375 234.679 181.673 235.381 180.81 235.381Z" fill="#3F3D56"/>
<path d="M216.173 172.71H145.226C144.364 172.71 143.662 172.008 143.662 171.145C143.662 170.283 144.364 169.581 145.226 169.581H216.173C217.036 169.581 217.738 170.283 217.738 171.145C217.738 172.008 217.036 172.71 216.173 172.71Z" fill="#3F3D56"/>
</g>
<defs>
<clipPath id="clip0_148_180">
<rect width="524.67" height="458.466" fill="white"/>
</clipPath>
</defs>
</svg>
