<svg width="1299" height="901" viewBox="0 0 1299 901" fill="none" xmlns="http://www.w3.org/2000/svg">
<path d="M1191.19 846.491C1194.06 844.094 1190.19 834.759 1182.55 825.641C1174.92 816.522 1166.41 811.073 1163.55 813.47C1160.68 815.867 1164.55 825.202 1172.19 834.32C1179.82 843.439 1188.33 848.888 1191.19 846.491Z" fill="#2F2E41"/>
<path d="M1172.42 836.121C1179.94 813.557 1167.75 789.167 1145.18 781.645C1122.62 774.123 1098.23 786.318 1090.71 808.883C1083.18 831.448 1095.38 855.838 1117.94 863.36C1140.51 870.881 1164.9 858.686 1172.42 836.121Z" fill="#2F2E41"/>
<path d="M1149.79 856.302H1136.71V879.744H1149.79V856.302Z" fill="#2F2E41"/>
<path d="M1123.62 856.302H1110.54V879.744H1123.62V856.302Z" fill="#2F2E41"/>
<path d="M1138.89 884.105C1144.91 884.105 1149.79 882.275 1149.79 880.016C1149.79 877.758 1144.91 875.928 1138.89 875.928C1132.87 875.928 1127.98 877.758 1127.98 880.016C1127.98 882.275 1132.87 884.105 1138.89 884.105Z" fill="#2F2E41"/>
<path d="M1112.72 883.56C1118.74 883.56 1123.62 881.729 1123.62 879.471C1123.62 877.213 1118.74 875.382 1112.72 875.382C1106.7 875.382 1101.82 877.213 1101.82 879.471C1101.82 881.729 1106.7 883.56 1112.72 883.56Z" fill="#2F2E41"/>
<path d="M1122.04 772.365C1125.88 756.878 1142.86 747.765 1159.95 752.009C1177.05 756.254 1187.79 772.25 1183.94 787.737C1180.1 803.224 1167.34 803.273 1150.24 799.029C1133.15 794.784 1118.19 787.852 1122.04 772.365Z" fill="#CCCCCC"/>
<path d="M1102.51 811.747C1104.11 808.373 1096.7 801.507 1085.95 796.411C1075.21 791.315 1065.2 789.918 1063.6 793.291C1062 796.664 1069.41 803.53 1080.16 808.627C1090.9 813.723 1100.91 815.12 1102.51 811.747Z" fill="#2F2E41"/>
<path d="M1125.12 827.773C1133.05 827.773 1139.48 821.345 1139.48 813.415C1139.48 805.485 1133.05 799.056 1125.12 799.056C1117.19 799.056 1110.77 805.485 1110.77 813.415C1110.77 821.345 1117.19 827.773 1125.12 827.773Z" fill="white"/>
<path d="M1119.22 813.054C1121.87 813.054 1124.01 810.911 1124.01 808.268C1124.01 805.625 1121.87 803.482 1119.22 803.482C1116.58 803.482 1114.44 805.625 1114.44 808.268C1114.44 810.911 1116.58 813.054 1119.22 813.054Z" fill="#3F3D56"/>
<path d="M1125 849.394C1128.31 849.394 1131 846.708 1131 843.394C1131 840.08 1128.31 837.394 1125 837.394C1121.69 837.394 1119 840.08 1119 843.394C1119 846.708 1121.69 849.394 1125 849.394Z" fill="white"/>
<path d="M1085 170.804C1038.38 163.364 985.29 159.394 930 159.394C879.4 159.394 830.65 162.714 787.02 168.974C787.03 168.304 787.04 167.634 787.07 166.964C788.226 128.074 804.549 91.1782 832.55 64.1638C860.55 37.1495 898.007 22.1591 936.914 22.3968C975.821 22.6345 1013.09 38.0814 1040.76 65.4359C1068.43 92.7903 1084.3 129.882 1084.98 168.784C1084.99 169.464 1085 170.134 1085 170.804Z" fill="#6C63FF"/>
<g opacity="0.1">
<path d="M955.55 22.3413C934.857 19.5463 913.808 21.1304 893.766 26.9911C873.724 32.8518 855.138 42.8583 839.211 56.362C823.284 69.8656 810.372 86.5652 801.312 105.378C792.252 124.192 787.246 144.698 786.619 165.57C786.589 166.24 786.579 166.91 786.569 167.58C799.531 165.72 812.954 164.127 826.734 162.796C828.42 128.025 842.225 94.9407 865.755 69.2849C889.285 43.6292 921.054 27.0206 955.55 22.3413Z" fill="white"/>
</g>
<path d="M1150.18 182.624C1128.72 176.806 1106.95 172.186 1084.98 168.784C1048.97 163.203 1012.66 159.714 976.24 158.334C961.07 157.714 945.62 157.394 930 157.394C917.62 157.394 905.34 157.594 893.23 157.994C857.706 159.044 822.266 162.038 787.07 166.964C761.016 170.552 735.214 175.782 709.82 182.624C650.61 198.994 618 220.934 618 244.394C618 267.854 650.61 289.794 709.82 306.164C751.46 317.684 802.8 325.534 858.74 329.134C881.83 330.634 905.7 331.394 930 331.394C954.38 331.394 978.33 330.624 1001.49 329.124C1052.4 325.834 1099.5 319.024 1138.92 309.124C1139.13 309.064 1139.33 309.014 1139.54 308.964C1142.2 308.304 1144.82 307.614 1147.41 306.924C1148.34 306.664 1149.26 306.414 1150.18 306.164C1150.23 306.143 1150.29 306.126 1150.34 306.114C1151.22 305.874 1152.09 305.624 1152.96 305.384C1154.7 304.884 1156.42 304.394 1158.11 303.884C1158.19 303.864 1158.26 303.844 1158.33 303.824C1159.8 303.384 1161.24 302.944 1162.67 302.504C1163.84 302.134 1165 301.774 1166.15 301.404C1166.99 301.134 1167.82 300.864 1168.64 300.594C1169.24 300.394 1169.83 300.204 1170.41 300.004C1171.2 299.744 1171.99 299.474 1172.77 299.204C1173.1 299.094 1173.43 298.984 1173.75 298.864C1174.5 298.614 1175.23 298.354 1175.96 298.094C1176.75 297.814 1177.54 297.524 1178.32 297.244C1178.97 297.014 1179.62 296.774 1180.26 296.534C1180.8 296.324 1181.33 296.124 1181.87 295.924C1183.34 295.374 1184.78 294.804 1186.2 294.244C1186.91 293.954 1187.62 293.674 1188.32 293.384C1189.01 293.104 1189.71 292.814 1190.39 292.524C1191.51 292.054 1192.61 291.584 1193.69 291.114C1194.21 290.874 1194.74 290.644 1195.25 290.424C1195.64 290.244 1196.02 290.074 1196.41 289.894C1196.69 289.774 1196.97 289.644 1197.24 289.514C1198.25 289.054 1199.25 288.584 1200.23 288.114C1203.99 286.314 1207.5 284.474 1210.76 282.594C1231.21 270.884 1242 257.894 1242 244.394C1242 220.934 1209.39 198.994 1150.18 182.624ZM1149.64 304.244C1107.95 315.774 1056.47 323.624 1000.38 327.194C977.57 328.644 953.99 329.394 930 329.394C906.09 329.394 882.59 328.654 859.85 327.204C803.67 323.644 752.11 315.794 710.36 304.244C652.09 288.124 620 266.874 620 244.394C620.003 242.408 620.252 240.429 620.74 238.504C625.84 218.224 657.21 199.244 710.36 184.544C735.562 177.755 761.166 172.555 787.02 168.974C822.428 164.02 858.082 161.016 893.82 159.974C905.74 159.584 917.8 159.391 930 159.394C945.41 159.394 960.65 159.704 975.63 160.304C1012.26 161.672 1048.78 165.178 1085 170.804C1106.78 174.191 1128.36 178.778 1149.64 184.544C1202.78 199.244 1234.14 218.214 1239.25 238.484C1239.75 240.415 1240 242.4 1240 244.394C1240 266.874 1207.91 288.124 1149.64 304.244Z" fill="#3F3D56"/>
<path d="M1241.43 245.304C1241.43 258.664 1230.42 271.304 1210.76 282.594C1207.49 284.474 1203.97 286.314 1200.23 288.114C1199.25 288.584 1198.25 289.054 1197.24 289.514C1196.97 289.644 1196.69 289.774 1196.41 289.894C1196.02 290.074 1195.64 290.244 1195.25 290.424C1194.74 290.644 1194.21 290.874 1193.69 291.114C1192.61 291.584 1191.51 292.054 1190.39 292.524C1189.71 292.814 1189.01 293.104 1188.32 293.384C1187.62 293.674 1186.91 293.954 1186.2 294.244C1184.78 294.804 1183.34 295.374 1181.87 295.924C1181.33 296.124 1180.8 296.324 1180.26 296.534C1179.62 296.774 1178.97 297.014 1178.32 297.244C1177.54 297.524 1176.75 297.814 1175.96 298.094C1175.23 298.354 1174.5 298.614 1173.75 298.864C1173.43 298.984 1173.1 299.094 1172.77 299.204C1171.99 299.474 1171.2 299.744 1170.41 300.004C1169.83 300.204 1169.24 300.394 1168.64 300.594C1167.82 300.864 1166.99 301.134 1166.15 301.404C1165 301.774 1163.84 302.134 1162.67 302.504C1161.24 302.944 1159.8 303.384 1158.33 303.824C1158.26 303.844 1158.19 303.864 1158.11 303.884C1156.42 304.394 1154.7 304.884 1152.96 305.384C1152.09 305.624 1151.22 305.874 1150.34 306.114C1150.29 306.126 1150.23 306.143 1150.18 306.164C1149.26 306.414 1148.34 306.664 1147.41 306.924C1144.83 307.604 1142.2 308.294 1139.54 308.964C1139.33 309.014 1139.13 309.064 1138.92 309.124C1100.57 318.704 1053.52 325.684 1001.45 329.054C978.64 330.524 954.86 331.304 930.43 331.304C905.78 331.304 881.8 330.514 858.81 329.014C721.57 320.064 619.43 285.984 619.43 245.304C619.441 242.829 619.818 240.369 620.55 238.004C620.61 238.174 620.67 238.334 620.74 238.504C635.01 275.984 736.28 306.274 867.68 313.664C887.81 314.804 908.66 315.394 930 315.394C951.43 315.394 972.36 314.794 992.57 313.654C1123.86 306.234 1225.03 275.934 1239.25 238.484C1239.49 237.884 1239.7 237.284 1239.88 236.684C1240.89 239.445 1241.42 242.362 1241.43 245.304Z" fill="#3F3D56"/>
<path d="M709.67 234.54C693.027 234.54 675.339 230.959 675.339 224.323C675.339 217.687 693.027 214.106 709.67 214.106C726.312 214.106 744 217.687 744 224.323C744 230.959 726.312 234.54 709.67 234.54ZM709.67 216.106C690.617 216.106 677.339 220.437 677.339 224.323C677.339 228.209 690.617 232.54 709.67 232.54C728.723 232.54 742 228.209 742 224.323C742 220.437 728.723 216.106 709.67 216.106Z" fill="#3F3D56"/>
<path d="M780.669 281.54C764.027 281.54 746.339 277.959 746.339 271.323C746.339 264.687 764.027 261.106 780.669 261.106C797.312 261.106 815 264.687 815 271.323C815 277.959 797.312 281.54 780.669 281.54ZM780.669 263.106C761.617 263.106 748.339 267.437 748.339 271.323C748.339 275.209 761.617 279.54 780.669 279.54C799.722 279.54 813 275.209 813 271.323C813 267.437 799.722 263.106 780.669 263.106Z" fill="#3F3D56"/>
<path d="M1149.67 234.54C1133.03 234.54 1115.34 230.959 1115.34 224.323C1115.34 217.687 1133.03 214.106 1149.67 214.106C1166.31 214.106 1184 217.687 1184 224.323C1184 230.959 1166.31 234.54 1149.67 234.54ZM1149.67 216.106C1130.62 216.106 1117.34 220.437 1117.34 224.323C1117.34 228.209 1130.62 232.54 1149.67 232.54C1168.72 232.54 1182 228.209 1182 224.323C1182 220.437 1168.72 216.106 1149.67 216.106Z" fill="#3F3D56"/>
<path d="M1078.67 281.54C1062.03 281.54 1044.34 277.959 1044.34 271.323C1044.34 264.687 1062.03 261.106 1078.67 261.106C1095.31 261.106 1113 264.687 1113 271.323C1113 277.959 1095.31 281.54 1078.67 281.54ZM1078.67 263.106C1059.62 263.106 1046.34 267.437 1046.34 271.323C1046.34 275.209 1059.62 279.54 1078.67 279.54C1097.72 279.54 1111 275.209 1111 271.323C1111 267.437 1097.72 263.106 1078.67 263.106Z" fill="#3F3D56"/>
<path d="M929.669 303.54C913.027 303.54 895.339 299.959 895.339 293.323C895.339 286.687 913.027 283.106 929.669 283.106C946.312 283.106 964 286.687 964 293.323C964 299.959 946.312 303.54 929.669 303.54ZM929.669 285.106C910.616 285.106 897.339 289.437 897.339 293.323C897.339 297.209 910.616 301.54 929.669 301.54C948.722 301.54 962 297.209 962 293.323C962 289.437 948.722 285.106 929.669 285.106Z" fill="#3F3D56"/>
<path d="M954.978 513.717C978.18 513.717 996.99 494.907 996.99 471.704C996.99 448.501 978.18 429.692 954.978 429.692C931.775 429.692 912.965 448.501 912.965 471.704C912.965 494.907 931.775 513.717 954.978 513.717Z" fill="#2F2E41"/>
<path d="M939.002 499.307L918.555 509.546L924.27 520.958L944.717 510.719L939.002 499.307Z" fill="#2F2E41"/>
<path d="M926.966 519.8C928.179 517.961 925.186 513.849 920.282 510.615C915.378 507.382 910.419 506.252 909.207 508.091C907.994 509.93 910.987 514.042 915.891 517.275C920.795 520.509 925.753 521.639 926.966 519.8Z" fill="#2F2E41"/>
<path d="M970.954 499.307L965.239 510.719L985.686 520.959L991.401 509.546L970.954 499.307Z" fill="#2F2E41"/>
<path d="M994.065 517.275C998.969 514.042 1001.96 509.93 1000.75 508.091C999.537 506.252 994.578 507.382 989.674 510.615C984.77 513.849 981.777 517.961 982.99 519.8C984.203 521.639 989.161 520.509 994.065 517.275Z" fill="#2F2E41"/>
<path d="M952.036 475.786C959.966 475.786 966.395 469.358 966.395 461.428C966.395 453.498 959.966 447.069 952.036 447.069C944.106 447.069 937.678 453.498 937.678 461.428C937.678 469.358 944.106 475.786 952.036 475.786Z" fill="white"/>
<path d="M955.53 458.675C957.391 456.814 957.38 453.785 955.506 451.911C953.631 450.036 950.603 450.026 948.741 451.887C946.88 453.748 946.891 456.777 948.765 458.651C950.64 460.526 953.668 460.536 955.53 458.675Z" fill="#3F3D56"/>
<path d="M988.12 425.999C988.752 410.446 975.347 397.272 958.179 396.574C941.011 395.877 926.582 407.92 925.95 423.474C925.318 439.028 937.252 442.562 954.42 443.259C971.587 443.956 987.488 441.553 988.12 425.999Z" fill="#6C63FF"/>
<path d="M1012.34 493.703C1015.1 491.331 1011.21 482.272 1003.66 473.469C996.101 464.667 987.734 459.454 984.971 461.826C982.207 464.198 986.093 473.258 993.65 482.06C1001.21 490.863 1009.57 496.076 1012.34 493.703Z" fill="#2F2E41"/>
<path d="M916.423 482.06C923.98 473.258 927.866 464.199 925.102 461.826C922.339 459.454 913.973 464.667 906.416 473.469C898.859 482.272 894.973 491.331 897.737 493.703C900.5 496.076 908.866 490.863 916.423 482.06Z" fill="#2F2E41"/>
<path d="M966.517 488.261C966.971 490.759 966.415 493.335 964.97 495.422C963.526 497.51 961.311 498.938 958.813 499.393C956.316 499.848 953.74 499.291 951.652 497.847C949.564 496.402 948.136 494.187 947.681 491.69L947.678 491.671C946.736 486.469 950.758 484.628 955.96 483.686C961.163 482.745 965.575 483.059 966.517 488.261Z" fill="white"/>
<path d="M884 516.394C883.47 516.394 882.961 516.183 882.586 515.808C882.211 515.433 882 514.924 882 514.394V396.394C882 395.864 882.211 395.355 882.586 394.98C882.961 394.605 883.47 394.394 884 394.394C884.53 394.394 885.039 394.605 885.414 394.98C885.789 395.355 886 395.864 886 396.394V514.394C886 514.924 885.789 515.433 885.414 515.808C885.039 516.183 884.53 516.394 884 516.394Z" fill="#CCCCCC"/>
<path d="M854 622.394C853.47 622.394 852.961 622.183 852.586 621.808C852.211 621.433 852 620.924 852 620.394V534.394C852 533.864 852.211 533.355 852.586 532.98C852.961 532.605 853.47 532.394 854 532.394C854.53 532.394 855.039 532.605 855.414 532.98C855.789 533.355 856 533.864 856 534.394V620.394C856 620.924 855.789 621.433 855.414 621.808C855.039 622.183 854.53 622.394 854 622.394Z" fill="#CCCCCC"/>
<path d="M931 551.394C930.47 551.394 929.961 551.183 929.586 550.808C929.211 550.433 929 549.924 929 549.394V431.394C929 430.864 929.211 430.355 929.586 429.98C929.961 429.605 930.47 429.394 931 429.394C931.53 429.394 932.039 429.605 932.414 429.98C932.789 430.355 933 430.864 933 431.394V549.394C933 549.924 932.789 550.433 932.414 550.808C932.039 551.183 931.53 551.394 931 551.394Z" fill="#CCCCCC"/>
<path d="M902 636.394C901.47 636.394 900.961 636.183 900.586 635.808C900.211 635.433 900 634.924 900 634.394V586.394C900 585.864 900.211 585.355 900.586 584.98C900.961 584.605 901.47 584.394 902 584.394C902.53 584.394 903.039 584.605 903.414 584.98C903.789 585.355 904 585.864 904 586.394V634.394C904 634.924 903.789 635.433 903.414 635.808C903.039 636.183 902.53 636.394 902 636.394Z" fill="#CCCCCC"/>
<path d="M943 390.394C942.47 390.394 941.961 390.183 941.586 389.808C941.211 389.433 941 388.924 941 388.394V340.394C941 339.864 941.211 339.355 941.586 338.98C941.961 338.605 942.47 338.394 943 338.394C943.53 338.394 944.039 338.605 944.414 338.98C944.789 339.355 945 339.864 945 340.394V388.394C945 388.924 944.789 389.433 944.414 389.808C944.039 390.183 943.53 390.394 943 390.394Z" fill="#CCCCCC"/>
<path d="M843 411.394C842.47 411.394 841.961 411.183 841.586 410.808C841.211 410.433 841 409.924 841 409.394V361.394C841 360.864 841.211 360.355 841.586 359.98C841.961 359.605 842.47 359.394 843 359.394C843.53 359.394 844.039 359.605 844.414 359.98C844.789 360.355 845 360.864 845 361.394V409.394C845 409.924 844.789 410.433 844.414 410.808C844.039 411.183 843.53 411.394 843 411.394Z" fill="#CCCCCC"/>
<path d="M1017 416.394C1016.47 416.394 1015.96 416.183 1015.59 415.808C1015.21 415.433 1015 414.924 1015 414.394V366.394C1015 365.864 1015.21 365.355 1015.59 364.98C1015.96 364.605 1016.47 364.394 1017 364.394C1017.53 364.394 1018.04 364.605 1018.41 364.98C1018.79 365.355 1019 365.864 1019 366.394V414.394C1019 414.924 1018.79 415.433 1018.41 415.808C1018.04 416.183 1017.53 416.394 1017 416.394Z" fill="#CCCCCC"/>
<path d="M1013 566.394C1012.47 566.394 1011.96 566.183 1011.59 565.808C1011.21 565.433 1011 564.924 1011 564.394V506.394C1011 505.864 1011.21 505.355 1011.59 504.98C1011.96 504.605 1012.47 504.394 1013 504.394C1013.53 504.394 1014.04 504.605 1014.41 504.98C1014.79 505.355 1015 505.864 1015 506.394V564.394C1015 564.924 1014.79 565.433 1014.41 565.808C1014.04 566.183 1013.53 566.394 1013 566.394Z" fill="#CCCCCC"/>
<path d="M973 617.394C972.47 617.394 971.961 617.183 971.586 616.808C971.211 616.433 971 615.924 971 615.394V529.394C971 528.864 971.211 528.355 971.586 527.98C971.961 527.605 972.47 527.394 973 527.394C973.53 527.394 974.039 527.605 974.414 527.98C974.789 528.355 975 528.864 975 529.394V615.394C975 615.924 974.789 616.433 974.414 616.808C974.039 617.183 973.53 617.394 973 617.394Z" fill="#CCCCCC"/>
<path d="M981 470.394C980.47 470.394 979.961 470.183 979.586 469.808C979.211 469.433 979 468.924 979 468.394V350.394C979 349.864 979.211 349.355 979.586 348.98C979.961 348.605 980.47 348.394 981 348.394C981.53 348.394 982.039 348.605 982.414 348.98C982.789 349.355 983 349.864 983 350.394V468.394C983 468.924 982.789 469.433 982.414 469.808C982.039 470.183 981.53 470.394 981 470.394Z" fill="#CCCCCC"/>
<path d="M206.502 719.706C206.158 718.653 205.578 717.702 204.811 716.93C204.528 716.656 204.221 716.409 203.895 716.192C201.298 714.383 197.417 713.978 194.95 716.192C194.701 716.417 194.471 716.664 194.263 716.93C193.527 717.876 192.771 718.801 191.994 719.706C190.721 721.224 189.417 722.69 188.054 724.114C187.666 724.509 187.278 724.914 186.88 725.309C186.651 725.548 186.422 725.777 186.193 726.006C185.317 726.879 184.422 727.721 183.516 728.553C183.039 729 182.561 729.436 182.074 729.863C181.347 730.497 180.621 731.131 179.884 731.744C179.815 731.796 179.745 731.848 179.675 731.911C179.656 731.921 179.646 731.942 179.626 731.952C179.616 731.952 179.606 731.952 179.596 731.973C179.569 731.984 179.545 732.002 179.526 732.025C179.307 732.181 179.158 732.285 179.049 732.378C179.088 732.358 179.128 732.326 179.168 732.306C178.989 732.451 178.8 732.597 178.621 732.742C176.879 734.083 175.098 735.372 173.277 736.578C168.772 739.591 164.04 742.216 159.127 744.427C158.799 744.562 158.461 744.708 158.122 744.843C145.261 750.348 131.309 752.496 117.474 751.101C116.061 750.987 114.648 750.831 113.235 750.633C111.603 750.384 109.981 750.082 108.369 749.739C102.232 748.46 96.2271 746.566 90.4377 744.084C83.1957 740.619 76.3079 736.398 69.8796 731.484C68.8845 730.746 67.8795 730.008 66.8745 729.291C68.0188 726.359 69.1433 723.428 70.2378 720.475C70.7851 719.051 71.3125 717.627 71.83 716.192C75.8998 705.141 79.7208 693.987 83.3827 682.79C87.0843 671.449 90.577 660.041 93.8607 648.568C94.1991 647.403 94.5275 646.239 94.8459 645.075C96.5674 639.014 98.2191 632.939 99.8013 626.851C99.9506 626.258 100.11 625.676 100.249 625.083C100.707 623.337 101.155 621.59 101.592 619.844C102.588 615.904 100.339 611.195 96.3783 610.249C94.4715 609.738 92.4493 610.02 90.7379 611.037C89.0265 612.053 87.7594 613.723 87.2037 615.696C86.7759 617.38 86.348 619.054 85.9102 620.738C83.8106 628.878 81.6015 636.99 79.283 645.075C78.9447 646.239 78.6064 647.403 78.268 648.568C73.1534 666.178 67.5379 683.612 61.4215 700.869C60.6852 702.958 59.9389 705.041 59.1826 707.117C58.8144 708.135 58.4463 709.154 58.0681 710.173C57.3417 712.179 56.5955 714.186 55.8492 716.192C55.4212 717.367 54.9834 718.542 54.5456 719.706C54.2571 720.444 53.9784 721.182 53.6998 721.91C50.8627 720.846 47.9233 720.107 44.9333 719.706L44.4556 719.644C42.1375 719.352 39.7932 719.373 37.4802 719.706C34.0184 720.128 30.6876 721.339 27.7233 723.254C24.7589 725.169 22.2334 727.741 20.3252 730.788C15.5788 738.595 15.6385 749.76 22.2955 756.393C29.1515 763.223 39.53 763.171 47.6 758.898C51.8766 756.481 55.4826 752.95 58.0681 748.648C59.0587 747.088 59.9688 745.475 60.7947 743.814C61.0036 743.959 61.2126 744.105 61.4215 744.261C62.2176 744.843 63.0136 745.435 63.7998 746.018C68.3801 749.484 73.2069 752.581 78.2382 755.28C89.0565 760.899 100.702 764.578 112.687 766.165C112.956 766.196 113.215 766.238 113.483 766.269C114.807 766.445 116.14 766.581 117.474 766.695C136.601 768.201 155.752 764.111 172.78 754.885C174.222 754.106 175.652 753.288 177.068 752.432C179.267 751.101 181.417 749.687 183.516 748.19C184.661 747.38 185.775 746.558 186.88 745.695C191.706 741.981 196.205 737.824 200.323 733.272C201.885 731.557 203.381 729.786 204.811 727.96C206.163 726.466 206.942 724.505 207 722.45C206.992 721.512 206.824 720.582 206.502 719.706ZM41.7292 744.469C41.9381 744.313 42.1471 744.146 42.3461 743.98C42.2864 744.136 41.9978 744.313 41.7292 744.469ZM44.9233 741.111C44.6944 741.381 44.4855 741.651 44.2566 741.922C43.5603 742.736 42.8123 743.5 42.0177 744.209C41.9082 744.313 41.7889 744.417 41.6694 744.51C41.6681 744.51 41.6668 744.511 41.6656 744.511C41.6644 744.512 41.6633 744.512 41.6623 744.513C41.6614 744.514 41.6607 744.515 41.6602 744.517C41.6597 744.518 41.6595 744.519 41.6595 744.521C41.5157 744.588 41.3762 744.664 41.2415 744.749C40.8136 745.02 40.3758 745.269 39.9281 745.498C39.0513 745.835 38.1494 746.096 37.2315 746.278C36.5261 746.331 35.8182 746.338 35.112 746.298H35.092C34.6047 746.185 34.1231 746.047 33.6492 745.883C33.4104 745.758 33.1815 745.612 32.9526 745.467C32.8631 745.384 32.7834 745.3 32.7337 745.248C32.6365 745.156 32.5467 745.055 32.4651 744.947C32.4652 744.946 32.4649 744.944 32.4644 744.943C32.4639 744.942 32.4632 744.94 32.4623 744.94C32.4613 744.939 32.4602 744.938 32.459 744.937C32.4578 744.937 32.4565 744.936 32.4552 744.937C32.3457 744.729 32.2263 744.521 32.1168 744.313C32.1112 744.307 32.1076 744.3 32.1069 744.292C32.0273 744.032 31.9576 743.762 31.8979 743.491C31.8763 743.017 31.8796 742.541 31.9079 742.067C32.0414 741.403 32.221 740.75 32.4452 740.113C32.6467 739.661 32.876 739.224 33.1318 738.803C33.1517 738.761 33.2512 738.595 33.3607 738.408C33.3706 738.398 33.3706 738.398 33.3706 738.387C33.5199 738.21 33.6692 738.023 33.8284 737.857C34.097 737.545 34.3856 737.275 34.6742 736.994C35.2354 736.61 35.8168 736.26 36.4156 735.944C37.3655 735.592 38.3403 735.317 39.3311 735.123C40.7922 735.002 42.2606 735.016 43.7193 735.164C45.101 735.415 46.4642 735.766 47.7991 736.214C46.99 737.855 46.0689 739.432 45.0428 740.934C45.0029 740.996 44.9632 741.059 44.9233 741.111ZM33.8582 737.691C33.7705 737.838 33.667 737.974 33.5497 738.096C33.6286 737.943 33.7331 737.806 33.8582 737.691Z" fill="#3F3D56"/>
<path d="M177 612.818C176.91 616.091 176.819 619.365 176.729 622.638C176.538 629.904 176.34 637.173 176.136 644.445C175.925 652.629 175.704 660.808 175.473 668.984C175.363 673.206 175.249 677.428 175.131 681.65C174.82 693.023 174.512 704.392 174.207 715.758C174.177 716.936 174.137 718.103 174.107 719.281C173.956 724.921 173.805 730.56 173.655 736.2C173.484 742.319 173.317 748.438 173.152 754.557C173.032 759.144 172.908 763.734 172.781 768.328C171.877 801.612 170.973 834.897 170.068 868.182C170.03 870.243 169.224 872.209 167.82 873.666C166.415 875.124 164.521 875.96 162.534 876C160.541 875.983 158.634 875.154 157.224 873.692C155.815 872.229 155.016 870.25 155 868.182C155.502 849.46 156.011 830.738 156.527 812.016C156.979 795.087 157.438 778.158 157.903 761.229C158.054 755.652 158.205 750.071 158.355 744.487C158.586 736.085 158.814 727.683 159.038 719.281C159.068 718.103 159.109 716.936 159.139 715.758C159.159 714.726 159.189 713.704 159.219 712.672C159.661 696.358 160.103 680.041 160.545 663.72C160.726 657.299 160.9 650.874 161.068 644.445C161.268 637.117 161.469 629.792 161.67 622.471C161.761 619.25 161.841 616.039 161.932 612.818C161.97 610.757 162.776 608.791 164.18 607.334C165.585 605.876 167.479 605.04 169.466 605C171.459 605.017 173.366 605.846 174.776 607.308C176.185 608.771 176.984 610.75 177 612.818Z" fill="#3F3D56"/>
<path d="M588.572 615.697C580.705 646.662 571.303 677.183 560.403 707.138C557.395 715.4 554.318 723.647 551.029 731.793L551.785 729.93C550.317 733.811 548.442 737.511 546.194 740.964C546.041 741.187 545.885 741.408 545.727 741.626C546.504 740.593 546.652 740.389 546.17 741.014C545.915 741.326 545.664 741.64 545.402 741.945C544.702 742.759 543.95 743.525 543.152 744.236C542.951 744.414 542.747 744.589 542.54 744.76L543.478 744.002C543.369 744.269 542.605 744.623 542.367 744.774C541.596 745.258 540.792 745.681 539.962 746.041L541.754 745.255C540.392 745.825 538.972 746.23 537.521 746.462L539.516 746.184C538.09 746.388 536.646 746.404 535.217 746.231L537.211 746.51C536.042 746.343 534.897 746.022 533.805 745.557L535.597 746.343C535.015 746.079 534.453 745.767 533.918 745.411C533.646 745.227 532.812 744.57 533.903 745.436C535.037 746.337 534.049 745.514 533.815 745.274C533.621 745.075 533.446 744.858 533.255 744.656C532.373 743.715 534.252 746.274 533.652 745.174C533.332 744.623 533.039 744.055 532.774 743.472L533.53 745.335C533.186 744.449 532.942 743.523 532.802 742.578L533.07 744.651C532.927 743.476 532.926 742.287 533.067 741.111L532.799 743.184C532.982 741.872 533.316 740.587 533.794 739.358L533.038 741.22C533.371 740.393 533.765 739.594 534.216 738.831C534.424 738.436 534.668 738.063 534.945 737.717C534.994 737.733 533.676 739.29 534.375 738.504C534.558 738.298 534.729 738.082 534.914 737.878C535.211 737.551 535.528 737.253 535.84 736.944C536.885 735.91 534.378 737.948 535.584 737.13C536.458 736.533 537.377 736.012 538.334 735.571L536.542 736.358C538.143 735.674 539.822 735.206 541.538 734.964L539.544 735.243C541.693 734.986 543.864 735.013 546.006 735.322L544.012 735.044C546.725 735.471 549.377 736.247 551.906 737.352L550.114 736.566C555.505 738.972 560.28 742.544 565.046 746.047C569.65 749.512 574.501 752.608 579.557 755.308C590.433 760.929 602.14 764.61 614.19 766.198C631.47 768.399 649.006 766.053 665.187 759.376C681.369 752.699 695.678 741.905 706.803 727.984C708.16 726.487 708.942 724.525 709 722.469C708.986 720.404 708.197 718.426 706.803 716.955C704.05 714.329 698.851 713.587 696.193 716.955C693.674 720.152 690.966 723.183 688.084 726.029C686.738 727.356 685.357 728.642 683.94 729.887C683.131 730.598 682.31 731.295 681.479 731.978C681.085 732.301 679.86 733.161 681.742 731.773C681.31 732.091 680.897 732.439 680.471 732.766C674.171 737.593 667.344 741.629 660.133 744.79L661.925 744.004C654.186 747.379 646.059 749.693 637.746 750.89L639.741 750.612C631.19 751.781 622.527 751.768 613.98 750.572L615.974 750.851C607.428 749.631 599.07 747.264 591.11 743.811L592.902 744.597C585.22 741.064 577.929 736.674 571.159 731.505C567.635 728.793 563.919 726.362 560.042 724.233C555.526 721.835 550.636 720.29 545.6 719.67C536.159 718.515 526.538 722.337 521.347 730.816C516.57 738.62 516.632 749.786 523.321 756.421C530.211 763.256 540.645 763.198 548.764 758.923C556.584 754.806 561.281 746.253 564.584 738.187C572.017 720.038 578.598 701.469 584.73 682.805C590.796 664.34 596.297 645.689 601.233 626.85C601.845 624.517 602.447 622.182 603.041 619.844C604.042 615.904 601.779 611.193 597.801 610.251C595.883 609.738 593.849 610.019 592.127 611.035C590.406 612.051 589.131 613.723 588.572 615.697Z" fill="#3F3D56"/>
<path d="M662.934 612.818L660.222 712.675L657.525 812.012L656 868.182C656.017 870.25 656.816 872.228 658.225 873.691C659.634 875.153 661.54 875.982 663.533 876C665.519 875.96 667.413 875.124 668.817 873.666C670.222 872.208 671.028 870.243 671.066 868.182L673.778 768.325L676.475 668.988L678 612.818C677.983 610.75 677.184 608.772 675.775 607.309C674.366 605.847 672.46 605.018 670.467 605C668.481 605.04 666.587 605.876 665.183 607.334C663.778 608.792 662.972 610.757 662.934 612.818Z" fill="#3F3D56"/>
<path opacity="0.2" d="M403.34 840H405.669V729.729H460V727.314H405.669V680.785H447.626C447.011 679.971 446.378 679.168 445.727 678.375H405.669V647.644C404.898 647.302 404.122 646.973 403.34 646.663V678.375H357.685V639C356.903 639.037 356.133 639.093 355.356 639.161V678.375H318.934V648.998C318.152 649.358 317.382 649.736 316.617 650.134V678.375H286V680.785H316.617V727.314H286V729.729H316.617V840H318.934V729.729C323.718 729.728 328.454 730.707 332.874 732.61C337.293 734.513 341.308 737.303 344.691 740.82C348.073 744.337 350.756 748.512 352.586 753.107C354.416 757.703 355.357 762.628 355.356 767.602V840H357.685V729.729H403.34V840ZM318.934 727.314V680.785H355.356V727.314H318.934ZM357.685 727.314V680.785H358.599C364.475 680.785 370.293 681.989 375.721 684.327C381.15 686.666 386.082 690.093 390.237 694.414C394.391 698.735 397.687 703.864 399.935 709.509C402.183 715.154 403.34 721.204 403.34 727.314H357.685Z" fill="black"/>
<path d="M464.311 688.559C455.676 671.073 442.299 656.36 426.566 645.548C410.782 634.752 392.67 628.177 373.845 626.409C371.377 626.176 368.903 626.04 366.423 626C363.493 625.955 319.416 639.154 304.651 649.932C289.894 660.578 277.754 674.678 269.212 691.092C260.684 707.596 256.49 726.139 257.05 744.859C257.781 763.691 262.837 782.069 271.796 798.461C280.634 814.8 293.182 828.65 308.35 838.808C323.734 848.999 339.188 876.02 357.352 876.974C375.653 877.935 396.524 852.445 413.215 844.706C429.906 836.903 444.336 824.694 455.066 809.296C465.493 794.207 472.238 776.717 474.724 758.326C477.305 739.496 476.102 720.076 469.908 702.078C468.319 697.454 466.449 692.938 464.311 688.559C462.526 684.909 457.294 683.564 454.019 685.757C452.331 686.835 451.109 688.548 450.607 690.538C450.104 692.528 450.36 694.643 451.32 696.442C452.368 698.586 453.343 700.765 454.244 702.979L453.486 701.113C456.896 709.626 459.215 718.567 460.383 727.707L460.114 725.631C461.357 735.546 461.334 745.589 460.048 755.498L460.317 753.422C459.016 763.331 456.469 773.019 452.739 782.239L453.498 780.374C451.579 785.078 449.343 789.636 446.806 794.013C445.52 796.225 444.156 798.384 442.713 800.492C442.079 801.417 441.426 802.326 440.768 803.232C439.909 804.414 441.939 801.687 441.051 802.847C440.9 803.045 440.75 803.243 440.598 803.44C440.143 804.031 439.681 804.617 439.212 805.197C436.085 809.071 432.672 812.686 429.005 816.01C428.092 816.838 427.163 817.647 426.219 818.437C425.749 818.831 425.284 819.242 424.794 819.609C424.812 819.595 426.378 818.36 425.451 819.076C425.16 819.302 424.871 819.531 424.579 819.755C422.633 821.252 420.636 822.672 418.587 824.016C413.869 827.102 408.92 829.788 403.787 832.048L405.584 831.261C396.729 835.131 387.423 837.775 377.904 839.124L379.904 838.845C370.39 840.18 360.747 840.198 351.229 838.898L353.228 839.177C344.577 837.971 336.116 835.596 328.058 832.112L329.855 832.9C325.187 830.854 320.687 828.419 316.398 825.62C314.276 824.231 312.208 822.757 310.196 821.197C309.909 820.974 309.624 820.749 309.338 820.525C308.42 819.805 309.998 821.055 310.011 821.064C309.477 820.666 308.963 820.241 308.471 819.789C307.499 818.967 306.542 818.126 305.601 817.267C301.834 813.823 298.316 810.095 295.076 806.115C294.265 805.12 293.471 804.109 292.695 803.084C292.359 802.64 291.746 801.741 293.101 803.635C292.922 803.386 292.737 803.141 292.557 802.893C292.125 802.298 291.698 801.698 291.278 801.094C289.805 798.978 288.405 796.81 287.077 794.59C284.078 789.565 281.461 784.305 279.248 778.857L280.007 780.723C276.387 771.782 273.912 762.387 272.644 752.777L272.913 754.854C271.769 745.996 271.753 737.021 272.864 728.158L272.596 730.235C273.735 721.653 275.959 713.264 279.21 705.286L278.452 707.151C280.497 702.157 282.91 697.333 285.669 692.723C287.05 690.415 288.513 688.165 290.059 685.97C290.411 685.471 290.766 684.976 291.125 684.483C291.45 684.037 292.344 682.928 290.819 684.888C290.968 684.695 291.112 684.498 291.26 684.304C292.108 683.188 292.977 682.089 293.867 681.008C297.235 676.915 300.883 673.08 304.783 669.532C305.769 668.635 306.77 667.758 307.787 666.899C308.249 666.508 308.714 666.122 309.182 665.74C309.369 665.587 309.559 665.437 309.745 665.283C307.742 666.938 309.188 665.734 309.643 665.38C311.739 663.75 313.89 662.201 316.098 660.734C321.005 657.476 326.168 654.652 331.531 652.291L329.734 653.079C337.517 649.686 372.002 641.677 378.273 642.551L376.274 642.272C385.492 643.608 394.502 646.193 403.074 649.959L401.277 649.172C405.621 651.087 409.842 653.288 413.915 655.763C415.95 657.001 417.945 658.307 419.9 659.681C420.826 660.331 421.741 660.996 422.647 661.675C423.1 662.015 423.55 662.358 423.997 662.705C424.246 662.897 424.492 663.093 424.741 663.286C425.783 664.097 423.305 662.111 424.398 663.008C428.055 665.991 431.528 669.209 434.797 672.644C436.402 674.341 437.952 676.092 439.447 677.897C440.214 678.824 440.965 679.763 441.701 680.717C442.066 681.19 443.311 682.905 441.785 680.805C442.158 681.318 442.535 681.828 442.903 682.345C446.073 686.799 448.888 691.514 451.32 696.442C453.119 700.084 458.328 701.442 461.612 699.244C463.3 698.166 464.523 696.453 465.025 694.463C465.528 692.473 465.272 690.358 464.311 688.559Z" fill="#3F3D56"/>
<path d="M39 751C45.0751 751 50 745.851 50 739.5C50 733.149 45.0751 728 39 728C32.9249 728 28 733.149 28 739.5C28 745.851 32.9249 751 39 751Z" fill="#3F3D56"/>
<path d="M171 876C177.075 876 182 870.851 182 864.5C182 858.149 177.075 853 171 853C164.925 853 160 858.149 160 864.5C160 870.851 164.925 876 171 876Z" fill="#3F3D56"/>
<path d="M672 876C678.075 876 683 870.851 683 864.5C683 858.149 678.075 853 672 853C665.925 853 661 858.149 661 864.5C661 870.851 665.925 876 672 876Z" fill="#3F3D56"/>
<path d="M699 730C705.075 730 710 724.851 710 718.5C710 712.149 705.075 707 699 707C692.925 707 688 712.149 688 718.5C688 724.851 692.925 730 699 730Z" fill="#3F3D56"/>
<path d="M667 624C673.075 624 678 618.851 678 612.5C678 606.149 673.075 601 667 601C660.925 601 656 606.149 656 612.5C656 618.851 660.925 624 667 624Z" fill="#3F3D56"/>
<path d="M208 718.527C207.993 721.478 206.902 724.314 204.951 726.447C203 728.58 200.34 729.848 197.52 729.987C194.7 730.127 191.937 729.127 189.802 727.196C187.668 725.265 186.325 722.55 186.052 719.613C185.778 716.675 186.596 713.741 188.335 711.416C190.074 709.091 192.601 707.554 195.394 707.123C198.186 706.692 201.031 707.4 203.338 709.101C205.645 710.801 207.239 713.364 207.789 716.258C207.931 717.005 208.001 717.765 208 718.527Z" fill="#3F3D56"/>
<path d="M428 657C434.075 657 439 651.851 439 645.5C439 639.149 434.075 634 428 634C421.925 634 417 639.149 417 645.5C417 651.851 421.925 657 428 657Z" fill="#3F3D56"/>
<path d="M319 645.527C318.993 648.478 317.902 651.314 315.951 653.447C314 655.58 311.34 656.848 308.52 656.987C305.7 657.127 302.937 656.127 300.802 654.196C298.668 652.265 297.325 649.55 297.052 646.613C296.778 643.675 297.596 640.741 299.335 638.416C301.074 636.091 303.601 634.554 306.394 634.123C309.186 633.692 312.031 634.4 314.338 636.101C316.645 637.801 318.239 640.364 318.789 643.258C318.931 644.005 319.001 644.765 319 645.527Z" fill="#3F3D56"/>
<path d="M177 612.527C176.993 615.478 175.902 618.314 173.951 620.447C172 622.58 169.34 623.848 166.52 623.987C163.7 624.127 160.937 623.127 158.802 621.196C156.668 619.265 155.325 616.55 155.052 613.613C154.778 610.675 155.596 607.741 157.335 605.416C159.074 603.091 161.601 601.554 164.394 601.123C167.186 600.692 170.031 601.4 172.338 603.101C174.645 604.801 176.239 607.364 176.789 610.258C176.931 611.005 177.001 611.765 177 612.527Z" fill="#3F3D56"/>
<path d="M543 755C549.075 755 554 749.851 554 743.5C554 737.149 549.075 732 543 732C536.925 732 532 737.149 532 743.5C532 749.851 536.925 755 543 755Z" fill="#3F3D56"/>
<path d="M370 651C378.837 651 386 643.613 386 634.5C386 625.387 378.837 618 370 618C361.163 618 354 625.387 354 634.5C354 643.613 361.163 651 370 651Z" fill="#3F3D56"/>
<path d="M1286.28 889.657L45.7221 890C45.4959 890 45.272 889.966 45.0631 889.899C44.8541 889.832 44.6643 889.734 44.5044 889.611C44.3445 889.487 44.2176 889.341 44.1311 889.18C44.0445 889.019 44 888.846 44 888.671C44 888.497 44.0445 888.324 44.1311 888.163C44.2176 888.002 44.3445 887.855 44.5044 887.732C44.6643 887.609 44.8541 887.511 45.0631 887.444C45.272 887.377 45.4959 887.343 45.7221 887.343L1286.28 887C1286.74 887.001 1287.18 887.141 1287.5 887.39C1287.82 887.639 1288 887.977 1288 888.329C1288 888.68 1287.82 889.018 1287.5 889.267C1287.18 889.516 1286.74 889.656 1286.28 889.657Z" fill="#CACACA"/>
</svg>
