<svg width="1727" height="1591" viewBox="0 0 1727 1591" fill="none" xmlns="http://www.w3.org/2000/svg">
<g clip-path="url(#clip0_136_2486)">
<path d="M182.076 58H129.676C124.638 58.0046 119.808 60.0078 116.246 63.57C112.684 67.1322 110.681 71.9623 110.676 77V133.81C110.006 133.77 109.336 133.71 108.676 133.63C96.2622 132.324 84.4599 127.576 74.6 119.921C64.7401 112.266 57.2148 102.009 52.8723 90.3065C48.5299 78.6036 47.5432 65.9204 50.0233 53.6868C52.5035 41.4532 58.3519 30.1557 66.9093 21.068C75.4666 11.9804 86.3925 5.46408 98.4551 2.25374C110.518 -0.9566 123.237 -0.733287 135.18 2.89852C147.122 6.53032 157.813 13.4262 166.046 22.8086C174.279 32.191 179.727 43.6869 181.776 56C181.886 56.66 181.986 57.33 182.076 58Z" fill="#D9D9D9"/>
<rect x="109" y="56" width="713" height="396" rx="19" fill="white"/>
<path d="M800.677 56H129.677C124.109 56.0061 118.771 58.2205 114.834 62.1575C110.897 66.0944 108.683 71.4323 108.677 77V431C108.683 436.568 110.897 441.906 114.834 445.842C118.771 449.779 124.109 451.994 129.677 452H800.677C806.244 451.994 811.582 449.779 815.519 445.842C819.456 441.906 821.671 436.568 821.677 431V77C821.671 71.4323 819.456 66.0944 815.519 62.1575C811.582 58.2205 806.244 56.0061 800.677 56ZM819.677 431C819.672 436.038 817.669 440.868 814.107 444.43C810.545 447.992 805.714 449.995 800.677 450H129.677C124.639 449.995 119.809 447.992 116.247 444.43C112.685 440.868 110.681 436.038 110.677 431V77C110.681 71.9623 112.685 67.1322 116.247 63.57C119.809 60.0078 124.639 58.0046 129.677 58H800.677C805.714 58.0046 810.545 60.0078 814.107 63.57C817.669 67.1322 819.672 71.9623 819.677 77V431Z" fill="#3F3D56"/>
<path d="M800.677 56H129.677C124.109 56.0061 118.771 58.2205 114.834 62.1575C110.897 66.0944 108.683 71.4323 108.677 77V431C108.683 436.568 110.897 441.906 114.834 445.842C118.771 449.779 124.109 451.994 129.677 452H800.677C806.244 451.994 811.582 449.779 815.519 445.842C819.456 441.906 821.671 436.568 821.677 431V77C821.671 71.4323 819.456 66.0944 815.519 62.1575C811.582 58.2205 806.244 56.0061 800.677 56ZM819.677 431C819.672 436.038 817.669 440.868 814.107 444.43C810.545 447.992 805.714 449.995 800.677 450H129.677C124.639 449.995 119.809 447.992 116.247 444.43C112.685 440.868 110.681 436.038 110.677 431V77C110.681 71.9623 112.685 67.1322 116.247 63.57C119.809 60.0078 124.639 58.0046 129.677 58H800.677C805.714 58.0046 810.545 60.0078 814.107 63.57C817.669 67.1322 819.672 71.9623 819.677 77V431Z" fill="#E6E6E6"/>
<path d="M767.676 113.37H162.676C162.411 113.37 162.156 113.264 161.969 113.077C161.781 112.889 161.676 112.635 161.676 112.37C161.676 112.104 161.781 111.85 161.969 111.663C162.156 111.475 162.411 111.37 162.676 111.37H767.676C767.941 111.37 768.195 111.475 768.383 111.663C768.57 111.85 768.676 112.104 768.676 112.37C768.676 112.635 768.57 112.889 768.383 113.077C768.195 113.264 767.941 113.37 767.676 113.37Z" fill="#3F3D56"/>
<path d="M333.676 409C333.411 409 333.156 408.895 332.969 408.707C332.781 408.52 332.676 408.265 332.676 408V79C332.676 78.7348 332.781 78.4804 332.969 78.2929C333.156 78.1054 333.411 78 333.676 78C333.941 78 334.195 78.1054 334.383 78.2929C334.57 78.4804 334.676 78.7348 334.676 79V408C334.676 408.265 334.57 408.52 334.383 408.707C334.195 408.895 333.941 409 333.676 409Z" fill="#3F3D56"/>
<path d="M484.676 409C484.411 409 484.156 408.895 483.969 408.707C483.781 408.52 483.676 408.265 483.676 408V79C483.676 78.7348 483.781 78.4804 483.969 78.2929C484.156 78.1054 484.411 78 484.676 78C484.941 78 485.195 78.1054 485.383 78.2929C485.57 78.4804 485.676 78.7348 485.676 79V408C485.676 408.265 485.57 408.52 485.383 408.707C485.195 408.895 484.941 409 484.676 409Z" fill="#3F3D56"/>
<path d="M635.676 409C635.411 409 635.156 408.895 634.969 408.707C634.781 408.52 634.676 408.265 634.676 408V79C634.676 78.7348 634.781 78.4804 634.969 78.2929C635.156 78.1054 635.411 78 635.676 78C635.941 78 636.195 78.1054 636.383 78.2929C636.57 78.4804 636.676 78.7348 636.676 79V408C636.676 408.265 636.57 408.52 636.383 408.707C636.195 408.895 635.941 409 635.676 409Z" fill="#3F3D56"/>
<path d="M236.592 216.587H200.052C198.859 216.586 197.715 216.112 196.871 215.268C196.028 214.424 195.553 213.28 195.552 212.087V168.968C195.553 167.775 196.028 166.631 196.871 165.787C197.715 164.944 198.859 164.469 200.052 164.468H236.592C237.785 164.469 238.929 164.944 239.772 165.787C240.616 166.631 241.09 167.775 241.092 168.968V212.087C241.09 213.28 240.616 214.424 239.772 215.268C238.929 216.112 237.785 216.586 236.592 216.587Z" fill="#6C63FF"/>
<path d="M288.592 339.587H252.052C250.859 339.586 249.715 339.112 248.871 338.268C248.028 337.424 247.553 336.28 247.552 335.087V291.968C247.553 290.775 248.028 289.631 248.871 288.787C249.715 287.944 250.859 287.469 252.052 287.468H288.592C289.785 287.469 290.929 287.944 291.772 288.787C292.616 289.631 293.09 290.775 293.092 291.968V335.087C293.09 336.28 292.616 337.424 291.772 338.268C290.929 339.112 289.785 339.586 288.592 339.587Z" fill="#6C63FF"/>
<path d="M406.592 242.587H370.052C368.859 242.586 367.715 242.111 366.871 241.268C366.028 240.424 365.553 239.28 365.552 238.087V194.968C365.553 193.775 366.028 192.631 366.871 191.787C367.715 190.944 368.859 190.469 370.052 190.468H406.592C407.785 190.469 408.929 190.944 409.772 191.787C410.616 192.631 411.09 193.775 411.092 194.968V238.087C411.09 239.28 410.616 240.424 409.772 241.268C408.929 242.112 407.785 242.586 406.592 242.587Z" fill="#6C63FF"/>
<path d="M559.592 195.587H523.052C521.859 195.586 520.715 195.111 519.871 194.268C519.028 193.424 518.553 192.28 518.552 191.087V147.968C518.553 146.775 519.028 145.631 519.871 144.787C520.715 143.944 521.859 143.469 523.052 143.468H559.592C560.785 143.469 561.929 143.944 562.772 144.787C563.616 145.631 564.09 146.775 564.092 147.968V191.087C564.09 192.28 563.616 193.424 562.772 194.268C561.929 195.112 560.785 195.586 559.592 195.587Z" fill="#6C63FF"/>
<path d="M700.592 195.587H664.052C662.859 195.586 661.715 195.111 660.871 194.268C660.028 193.424 659.553 192.28 659.552 191.087V147.968C659.553 146.775 660.028 145.631 660.871 144.787C661.715 143.944 662.859 143.469 664.052 143.468H700.592C701.785 143.469 702.929 143.944 703.772 144.787C704.616 145.631 705.09 146.775 705.092 147.968V191.087C705.09 192.28 704.616 193.424 703.772 194.268C702.929 195.112 701.785 195.586 700.592 195.587Z" fill="#6C63FF"/>
<path d="M765.592 207.587H729.052C727.859 207.586 726.715 207.111 725.871 206.268C725.028 205.424 724.553 204.28 724.552 203.087V159.968C724.553 158.775 725.028 157.631 725.871 156.787C726.715 155.944 727.859 155.469 729.052 155.468H765.592C766.785 155.469 767.929 155.944 768.772 156.787C769.616 157.631 770.09 158.775 770.092 159.968V203.087C770.09 204.28 769.616 205.424 768.772 206.268C767.929 207.112 766.785 207.586 765.592 207.587Z" fill="#E6E6E6"/>
<path d="M736.592 284.587H700.052C698.859 284.586 697.715 284.111 696.871 283.268C696.028 282.424 695.553 281.28 695.552 280.087V236.968C695.553 235.775 696.028 234.631 696.871 233.787C697.715 232.944 698.859 232.469 700.052 232.468H736.592C737.785 232.469 738.929 232.944 739.772 233.787C740.616 234.631 741.09 235.775 741.092 236.968V280.087C741.09 281.28 740.616 282.424 739.772 283.268C738.929 284.112 737.785 284.586 736.592 284.587Z" fill="#E6E6E6"/>
<path d="M612.592 268.587H576.052C574.859 268.586 573.715 268.111 572.871 267.268C572.028 266.424 571.553 265.28 571.552 264.087V220.968C571.553 219.775 572.028 218.631 572.871 217.787C573.715 216.944 574.859 216.469 576.052 216.468H612.592C613.785 216.469 614.929 216.944 615.772 217.787C616.616 218.631 617.09 219.775 617.092 220.968V264.087C617.09 265.28 616.616 266.424 615.772 267.268C614.929 268.112 613.785 268.586 612.592 268.587Z" fill="#FF6584"/>
<path d="M541.592 284.587H505.052C503.859 284.586 502.715 284.111 501.871 283.268C501.028 282.424 500.553 281.28 500.552 280.087V236.968C500.553 235.775 501.028 234.631 501.871 233.787C502.715 232.944 503.859 232.469 505.052 232.468H541.592C542.785 232.469 543.929 232.944 544.772 233.787C545.616 234.631 546.09 235.775 546.092 236.968V280.087C546.09 281.28 545.616 282.424 544.772 283.268C543.929 284.112 542.785 284.586 541.592 284.587Z" fill="#E6E6E6"/>
<path d="M388.592 352.587H352.052C350.859 352.586 349.715 352.111 348.871 351.268C348.028 350.424 347.553 349.28 347.552 348.087V304.968C347.553 303.775 348.028 302.631 348.871 301.787C349.715 300.944 350.859 300.469 352.052 300.468H388.592C389.785 300.469 390.929 300.944 391.772 301.787C392.616 302.631 393.09 303.775 393.092 304.968V348.087C393.09 349.28 392.616 350.424 391.772 351.268C390.929 352.112 389.785 352.586 388.592 352.587Z" fill="#E6E6E6"/>
<path d="M203.592 295.587H167.052C165.859 295.586 164.715 295.112 163.871 294.268C163.028 293.424 162.553 292.28 162.552 291.087V247.968C162.553 246.775 163.028 245.631 163.871 244.787C164.715 243.944 165.859 243.469 167.052 243.468H203.592C204.785 243.469 205.929 243.944 206.772 244.787C207.616 245.631 208.09 246.775 208.092 247.968V291.087C208.09 292.28 207.616 293.424 206.772 294.268C205.929 295.112 204.785 295.586 203.592 295.587Z" fill="#FF6584"/>
<path d="M306.592 216.587H270.052C268.859 216.586 267.715 216.112 266.871 215.268C266.028 214.424 265.553 213.28 265.552 212.087V168.968C265.553 167.775 266.028 166.631 266.871 165.787C267.715 164.944 268.859 164.469 270.052 164.468H306.592C307.785 164.469 308.929 164.944 309.772 165.787C310.616 166.631 311.09 167.775 311.092 168.968V212.087C311.09 213.28 310.616 214.424 309.772 215.268C308.929 216.112 307.785 216.586 306.592 216.587Z" fill="#E6E6E6"/>
<path d="M276.676 97H219.676C218.615 97 217.597 96.5786 216.847 95.8284C216.097 95.0783 215.676 94.0609 215.676 93C215.676 91.9391 216.097 90.9217 216.847 90.1716C217.597 89.4214 218.615 89 219.676 89H276.676C277.737 89 278.754 89.4214 279.504 90.1716C280.254 90.9217 280.676 91.9391 280.676 93C280.676 94.0609 280.254 95.0783 279.504 95.8284C278.754 96.5786 277.737 97 276.676 97Z" fill="#CCCCCC"/>
<path d="M437.676 97H380.676C379.615 97 378.597 96.5786 377.847 95.8284C377.097 95.0783 376.676 94.0609 376.676 93C376.676 91.9391 377.097 90.9217 377.847 90.1716C378.597 89.4214 379.615 89 380.676 89H437.676C438.737 89 439.754 89.4214 440.504 90.1716C441.254 90.9217 441.676 91.9391 441.676 93C441.676 94.0609 441.254 95.0783 440.504 95.8284C439.754 96.5786 438.737 97 437.676 97Z" fill="#CCCCCC"/>
<path d="M588.676 97H531.676C530.615 97 529.597 96.5786 528.847 95.8284C528.097 95.0783 527.676 94.0609 527.676 93C527.676 91.9391 528.097 90.9217 528.847 90.1716C529.597 89.4214 530.615 89 531.676 89H588.676C589.737 89 590.754 89.4214 591.504 90.1716C592.254 90.9217 592.676 91.9391 592.676 93C592.676 94.0609 592.254 95.0783 591.504 95.8284C590.754 96.5786 589.737 97 588.676 97Z" fill="#CCCCCC"/>
<path d="M729.676 97H672.676C671.615 97 670.597 96.5786 669.847 95.8284C669.097 95.0783 668.676 94.0609 668.676 93C668.676 91.9391 669.097 90.9217 669.847 90.1716C670.597 89.4214 671.615 89 672.676 89H729.676C730.737 89 731.754 89.4214 732.504 90.1716C733.254 90.9217 733.676 91.9391 733.676 93C733.676 94.0609 733.254 95.0783 732.504 95.8284C731.754 96.5786 730.737 97 729.676 97Z" fill="#CCCCCC"/>
<path d="M149.01 389.891C147.547 389.748 146.133 389.286 144.868 388.537C143.603 387.788 142.517 386.771 141.688 385.557C140.858 384.343 140.305 382.963 140.067 381.512C139.829 380.061 139.912 378.576 140.31 377.161L114.677 353.3L128.23 349.862L153.435 370.305C155.768 371.132 157.717 372.785 158.913 374.952C160.108 377.119 160.467 379.65 159.922 382.064C159.376 384.478 157.964 386.608 155.953 388.051C153.942 389.494 151.471 390.148 149.01 389.891Z" fill="#FFB8B8"/>
<path d="M184.404 566.253H196.664L202.496 518.965H184.402L184.404 566.253Z" fill="#FFB8B8"/>
<path d="M220.308 577.635L181.777 577.637L181.776 562.75L205.42 562.749C209.368 562.749 213.155 564.317 215.947 567.109C218.739 569.901 220.307 573.687 220.308 577.635Z" fill="#2F2E41"/>
<path d="M100.345 557.401L112.193 560.555L129.994 516.359L112.509 511.705L100.345 557.401Z" fill="#FFB8B8"/>
<path d="M132.113 577.639L94.8791 567.729L98.7083 553.343L121.557 559.424C125.372 560.44 128.628 562.929 130.607 566.345C132.587 569.761 133.129 573.824 132.113 577.639Z" fill="#2F2E41"/>
<path d="M199.961 557.3H181.253C180.072 557.304 178.931 556.866 178.057 556.071C177.182 555.277 176.636 554.183 176.527 553.007L165.171 435.075C165.088 434.21 164.706 433.401 164.092 432.786C163.478 432.171 162.67 431.789 161.805 431.704C160.94 431.62 160.072 431.838 159.351 432.323C158.629 432.808 158.099 433.528 157.85 434.36L124.876 544.56C124.528 545.731 123.74 546.722 122.678 547.327C121.616 547.932 120.362 548.103 119.176 547.806L101.773 543.454C101.166 543.302 100.595 543.032 100.092 542.658C99.5896 542.285 99.166 541.816 98.8456 541.278C98.5252 540.74 98.3143 540.144 98.2251 539.524C98.136 538.905 98.1703 538.273 98.3261 537.667C98.6102 536.557 126.737 426.639 126.982 425.509C133.355 378.541 140.979 365.955 145.075 359.194C145.414 358.635 145.726 358.12 146.006 357.634C146.358 357.025 148.519 350.989 149.89 347.069C150.068 346.432 150.376 345.838 150.796 345.325C151.215 344.813 151.735 344.393 152.325 344.092C169.536 335.29 189.672 341.383 195.434 343.46C196.389 343.796 197.21 344.433 197.772 345.275C215.057 371.347 206.575 522.767 204.699 552.856C204.62 554.06 204.087 555.189 203.208 556.014C202.328 556.839 201.167 557.299 199.961 557.3Z" fill="#2F2E41"/>
<path d="M151.684 258.585C165.249 258.585 176.245 247.589 176.245 234.024C176.245 220.459 165.249 209.463 151.684 209.463C138.119 209.463 127.123 220.459 127.123 234.024C127.123 247.589 138.119 258.585 151.684 258.585Z" fill="#FFB8B8"/>
<path d="M149.081 351.838L148.905 351.667C148.574 351.347 115.849 319.287 120.084 289.643C121.896 276.963 132.155 268.861 149.752 266.212C156.217 265.252 162.811 266.657 168.323 270.17C173.834 273.683 177.892 279.067 179.752 285.333L197.152 344.817L149.081 351.838Z" fill="#CCCCCC"/>
<path d="M132.333 374.641L109.015 351.47C107.42 349.876 106.263 347.899 105.653 345.729C105.044 343.559 105.003 341.269 105.535 339.078L116.824 293.159C117.162 291.783 117.779 290.491 118.636 289.363C119.494 288.235 120.574 287.295 121.809 286.602C123.045 285.908 124.409 285.475 125.819 285.33C127.228 285.185 128.653 285.331 130.003 285.759C132.578 286.589 134.729 288.388 136 290.776C137.271 293.164 137.562 295.953 136.813 298.553L124.928 338.949L144.146 359.586L132.333 374.641Z" fill="#CCCCCC"/>
<path d="M257.405 295.562C256.788 296.897 255.887 298.08 254.763 299.028C253.64 299.977 252.322 300.667 250.903 301.052C249.484 301.436 247.998 301.504 246.55 301.252C245.102 300.999 243.727 300.432 242.521 299.591L211.392 315.726L212.767 302.02L240.364 284.941C241.912 283.009 244.114 281.713 246.554 281.297C248.994 280.88 251.502 281.374 253.602 282.683C255.703 283.992 257.25 286.026 257.951 288.4C258.652 290.774 258.457 293.322 257.405 295.562Z" fill="#FFB8B8"/>
<path d="M239.122 305.765L208.775 318.878C206.755 319.744 204.547 320.076 202.362 319.841C200.177 319.607 198.088 318.814 196.298 317.54L157.709 289.891C156.558 289.065 155.588 288.013 154.859 286.797C154.131 285.582 153.659 284.23 153.474 282.826C153.289 281.421 153.395 279.993 153.784 278.631C154.173 277.268 154.837 276 155.736 274.905C157.463 272.822 159.933 271.494 162.622 271.202C165.312 270.909 168.01 271.675 170.144 273.337L203.233 299.379L229.533 289.204L239.122 305.765Z" fill="#CCCCCC"/>
<path d="M155.756 241.895C158.786 238.098 164.447 237.894 168.609 235.39C174.061 232.109 176.315 224.779 174.558 218.664C172.801 212.549 167.62 207.783 161.68 205.503C155.739 203.224 149.13 203.196 142.864 204.298C133.534 205.938 124.348 210.293 118.657 217.867C112.967 225.441 111.519 236.533 116.676 244.479C119.046 248.132 122.705 251.146 123.651 255.396C124.894 260.976 120.98 266.357 116.787 270.242C112.01 274.669 106.53 278.376 102.345 283.365C98.1602 288.355 95.3695 295.171 97.2791 301.397C98.8791 306.614 103.535 310.457 108.641 312.381C113.746 314.306 119.307 314.584 124.762 314.691C130.059 314.794 135.685 314.666 140.148 311.809C144.925 308.752 147.476 302.951 147.664 297.282C147.852 291.614 145.958 286.06 143.419 280.988C141.906 277.965 140.147 275.035 139.141 271.808C138.136 268.58 137.961 264.917 139.572 261.945C141.264 258.82 144.689 256.936 148.176 256.251C148.357 256.215 148.549 256.183 148.749 256.155C149.741 256.026 150.697 255.698 151.559 255.189C152.42 254.681 153.17 254.002 153.762 253.196C154.354 252.39 154.776 251.471 155.003 250.497C155.23 249.523 155.257 248.512 155.082 247.527C154.685 245.313 154.72 243.193 155.756 241.895Z" fill="#2F2E41"/>
<path d="M483.229 567.3H470.969L465.137 520.012L483.231 520.013L483.229 567.3Z" fill="#A0616A"/>
<path d="M462.212 563.797H485.856V578.684H447.325C447.325 576.729 447.71 574.793 448.458 572.987C449.207 571.181 450.303 569.54 451.685 568.157C453.068 566.775 454.709 565.678 456.515 564.93C458.321 564.182 460.257 563.797 462.212 563.797Z" fill="#2F2E41"/>
<path d="M572.184 553.413L561.033 558.506L536.079 517.917L552.538 510.399L572.184 553.413Z" fill="#A0616A"/>
<path d="M551.612 558.958L573.118 549.135L579.303 562.676L544.255 578.685C543.443 576.906 542.989 574.985 542.919 573.032C542.849 571.078 543.165 569.13 543.848 567.298C544.531 565.466 545.568 563.787 546.9 562.356C548.232 560.925 549.833 559.771 551.612 558.958Z" fill="#2F2E41"/>
<path d="M536.481 407.857C537.656 406.973 538.622 405.842 539.313 404.544C540.003 403.246 540.4 401.813 540.477 400.345C540.553 398.877 540.307 397.41 539.755 396.047C539.203 394.685 538.359 393.46 537.282 392.458L551.694 359.759L533.385 362.861L522.507 393.438C520.945 395.358 520.141 397.784 520.249 400.257C520.356 402.73 521.367 405.077 523.089 406.854C524.812 408.632 527.127 409.716 529.595 409.9C532.063 410.085 534.513 409.358 536.481 407.857Z" fill="#A0616A"/>
<path d="M482.448 554.831H470.736C469.6 554.827 468.507 554.396 467.675 553.622C466.844 552.849 466.334 551.79 466.247 550.658L459.86 380.099C459.813 379.445 459.909 378.789 460.141 378.177C460.374 377.564 460.737 377.009 461.206 376.552C461.675 376.094 462.239 375.744 462.857 375.527C463.475 375.31 464.134 375.231 464.786 375.294L532.521 382.488C533.618 382.595 534.639 383.102 535.387 383.912C536.136 384.722 536.562 385.778 536.583 386.881L538.002 462.117C538.01 462.525 538.089 462.929 538.236 463.31L566.021 535.363C566.236 535.919 566.338 536.513 566.321 537.109C566.304 537.706 566.169 538.293 565.923 538.836C565.677 539.38 565.325 539.869 564.888 540.275C564.451 540.682 563.938 540.997 563.378 541.203L551.51 545.576C550.479 545.956 549.345 545.945 548.321 545.547C547.298 545.148 546.455 544.389 545.953 543.412L511.82 477.043C511.634 476.682 511.498 476.298 511.416 475.901L505.585 447.807C505.416 446.992 504.962 446.265 504.305 445.754C503.648 445.244 502.831 444.984 502 445.022C501.169 445.059 500.378 445.392 499.77 445.96C499.162 446.527 498.776 447.293 498.681 448.119L486.919 550.843C486.793 551.941 486.268 552.954 485.444 553.69C484.619 554.425 483.553 554.832 482.448 554.831Z" fill="#2F2E41"/>
<path d="M488.28 246.739C501.844 246.739 512.841 235.742 512.841 222.178C512.841 208.613 501.844 197.617 488.28 197.617C474.715 197.617 463.719 208.613 463.719 222.178C463.719 235.742 474.715 246.739 488.28 246.739Z" fill="#A0616A"/>
<path d="M505.124 395.694C488.468 395.511 472.209 390.586 458.251 381.496L458.012 381.331L458.036 381.041L467.431 271.626C467.755 267.913 469.412 264.444 472.096 261.859C474.78 259.274 478.309 257.748 482.03 257.564C494.206 257.004 510.561 257.71 519.316 264.23C532.547 274.085 538.924 288.924 536.812 304.943C532.432 338.162 537.394 382.972 537.974 387.972L538.016 388.333L537.686 388.484C527.486 393.229 516.373 395.69 505.124 395.694Z" fill="#6C63FF"/>
<path d="M537.86 388.158C537.168 388.156 536.483 388.012 535.85 387.732C535.216 387.453 534.647 387.046 534.179 386.536L528.807 380.674C528.226 380.037 527.819 379.262 527.625 378.422C527.431 377.582 527.456 376.707 527.698 375.879L539.948 334.415L521.309 295.272C520.438 293.44 520.225 291.364 520.705 289.393C521.128 287.662 522.065 286.101 523.394 284.915C524.722 283.728 526.379 282.972 528.146 282.747C529.912 282.521 531.706 282.836 533.29 283.65C534.874 284.465 536.174 285.74 537.018 287.309L562.313 328.351C563.34 330.016 563.943 331.907 564.069 333.86C564.194 335.812 563.839 337.766 563.033 339.549L542.423 385.214C542.083 385.969 541.561 386.627 540.904 387.13C540.246 387.633 539.474 387.964 538.657 388.094C538.393 388.136 538.127 388.157 537.86 388.158Z" fill="#6C63FF"/>
<path d="M364.738 308.953C365.918 309.83 367.275 310.438 368.715 310.734C370.155 311.03 371.643 311.006 373.073 310.665C374.503 310.324 375.841 309.674 376.992 308.76C378.143 307.846 379.08 306.69 379.737 305.375L415.175 309.971L407.031 293.283L374.627 291.477C372.344 290.52 369.79 290.434 367.448 291.235C365.106 292.036 363.139 293.668 361.92 295.823C360.701 297.977 360.315 300.503 360.835 302.923C361.354 305.343 362.743 307.488 364.738 308.953Z" fill="#A0616A"/>
<path d="M442.85 318.067C442.233 318.067 441.616 318.024 441.005 317.939L385.254 310.207C384.343 310.082 383.477 309.732 382.735 309.189C381.993 308.646 381.398 307.926 381.003 307.096C380.876 306.828 380.769 306.551 380.685 306.267C380.47 305.528 380.409 304.753 380.508 303.991C380.607 303.228 380.863 302.494 381.26 301.835L385.874 294.186C386.37 293.369 387.068 292.692 387.901 292.222C388.734 291.752 389.673 291.503 390.63 291.5H390.637L439.233 291.556L475.527 259.039C477.216 257.529 479.372 256.647 481.634 256.539C483.62 256.447 485.588 256.959 487.277 258.008C488.966 259.057 490.298 260.593 491.097 262.414C491.895 264.235 492.123 266.256 491.75 268.209C491.376 270.162 490.42 271.956 489.007 273.355L452.792 313.633C451.538 315.028 450.005 316.144 448.293 316.908C446.58 317.672 444.725 318.067 442.85 318.067Z" fill="#6C63FF"/>
<path d="M491.072 244.028C493.317 238.833 495.216 231.915 490.911 228.243C488.414 226.112 484.817 226.108 481.545 225.843C472.328 225.096 462.84 220.855 458.335 212.78C453.829 204.704 456.345 192.695 464.845 189.052C470.574 186.596 477.142 188.269 483.139 189.969L501.145 195.075C506.495 196.592 512.112 198.265 515.964 202.277C522.107 208.674 521.648 219.488 516.769 226.895C511.89 234.301 504.542 242.025 496.131 244.837L491.072 244.028Z" fill="#2F2E41"/>
<path d="M739.484 579.01H1.19023C1.03358 579.01 0.87838 578.98 0.733521 578.92C0.588661 578.86 0.457001 578.773 0.346069 578.662C0.235138 578.551 0.14712 578.42 0.0870667 578.275C0.0270129 578.131 -0.00390625 577.976 -0.00390625 577.819C-0.00390625 577.662 0.0270129 577.507 0.0870667 577.362C0.14712 577.218 0.235138 577.086 0.346069 576.976C0.457001 576.865 0.588661 576.777 0.733521 576.718C0.87838 576.658 1.03358 576.628 1.19023 576.628H739.484C739.641 576.628 739.796 576.658 739.941 576.718C740.086 576.777 740.217 576.865 740.328 576.976C740.439 577.086 740.527 577.218 740.587 577.362C740.647 577.507 740.678 577.662 740.678 577.819C740.678 577.976 740.647 578.131 740.587 578.275C740.527 578.42 740.439 578.551 740.328 578.662C740.217 578.773 740.086 578.86 739.941 578.92C739.796 578.98 739.641 579.01 739.484 579.01Z" fill="#3F3D56"/>
</g>
<g clip-path="url(#clip1_136_2486)">
<path d="M570.741 1319.24C572.2 1319.24 573.599 1319.82 574.63 1320.85C575.662 1321.88 576.241 1323.28 576.241 1324.74V1377.94H681.741C683.2 1377.94 684.599 1378.52 685.63 1379.55C686.662 1380.59 687.241 1381.99 687.241 1383.44C687.241 1384.9 686.662 1386.3 685.63 1387.33C684.599 1388.36 683.2 1388.94 681.741 1388.94H576.241V1572.94H565.241V1324.74C565.241 1323.28 565.821 1321.88 566.852 1320.85C567.884 1319.82 569.283 1319.24 570.741 1319.24Z" fill="white"/>
<path d="M277.147 1571.69L257.315 1572.24C254.302 1572.4 251.322 1571.56 248.829 1569.86C246.675 1568.26 245.687 1566.1 246.12 1563.92L250.023 1544.31C250.758 1540.61 255.293 1537.81 260.803 1537.66L271.755 1537.36C277.266 1537.2 281.947 1539.75 282.886 1543.4L287.865 1562.77C288.417 1564.92 287.55 1567.13 285.489 1568.85C283.093 1570.68 280.163 1571.68 277.147 1571.69Z" fill="#3F3D56"/>
<path d="M397.778 1571.13L377.946 1571.68C374.933 1571.84 371.953 1571 369.46 1569.3C367.306 1567.7 366.318 1565.53 366.751 1563.36L370.654 1543.75C371.389 1540.05 375.923 1537.25 381.434 1537.1L392.386 1536.8C397.897 1536.64 402.578 1539.19 403.517 1542.84L408.496 1562.21C409.048 1564.35 408.181 1566.57 406.119 1568.29C403.724 1570.12 400.794 1571.12 397.778 1571.13Z" fill="#3F3D56"/>
<path d="M208.281 1404.63C207.375 1404.24 206.63 1403.55 206.168 1402.68C205.706 1401.81 205.556 1400.8 205.742 1399.83C205.928 1398.87 206.439 1397.99 207.191 1397.35C207.943 1396.71 208.89 1396.35 209.876 1396.32L435.344 1390.1C435.913 1390.08 436.478 1390.18 437.01 1390.38C437.541 1390.58 438.027 1390.89 438.44 1391.28C438.853 1391.67 439.185 1392.14 439.417 1392.66C439.649 1393.18 439.777 1393.74 439.793 1394.3C439.823 1395.45 439.397 1396.56 438.608 1397.4C437.819 1398.23 436.731 1398.72 435.584 1398.75L210.115 1404.98C209.486 1405 208.86 1404.88 208.281 1404.63Z" fill="#3F3D56"/>
<path d="M291.491 1329.99L227.042 1331.77L233.051 1549.37L297.5 1547.59L291.491 1329.99Z" fill="white"/>
<path d="M293.126 1326.08L280.737 1359.83L280.748 1513.59L295.844 1517.92L293.126 1326.08Z" fill="#CCCCCC"/>
<path d="M258.93 1273.12C246.873 1273.46 237.673 1294.33 237.895 1302.47L238.302 1317.22L281.961 1316.01L281.554 1301.27C281.325 1293.13 270.988 1272.8 258.93 1273.12Z" fill="#3F3D56"/>
<path d="M227.878 1421.88C225.625 1421.94 223.44 1421.1 221.804 1419.56C220.167 1418.01 219.211 1415.87 219.146 1413.62L218.484 1389.63C218.421 1387.37 219.257 1385.19 220.806 1383.55C222.356 1381.91 224.492 1380.96 226.746 1380.9C228.999 1380.83 231.185 1381.67 232.823 1383.22C234.46 1384.77 235.415 1386.9 235.477 1389.16L236.14 1413.15C236.199 1415.4 235.363 1417.59 233.814 1419.22C232.265 1420.86 230.13 1421.82 227.878 1421.88Z" fill="#3F3D56"/>
<path d="M244.233 1332.28L243.928 1316.43L248.086 1316.33L248.391 1332.13L252.16 1562.48L248.001 1562.59" fill="#3F3D56"/>
<path d="M298.881 1369.36L224.143 1371.42C217.004 1362.72 216.356 1325.63 231.253 1318.57L237.096 1308.65L282.138 1306.45L287.402 1316.9C294.813 1323.21 298.634 1360.06 298.881 1369.36Z" fill="white"/>
<path d="M270.751 1351.57L251.851 1352.1C248.203 1352.2 245.103 1347.46 244.939 1341.55C244.776 1335.63 247.611 1330.74 251.258 1330.64L270.158 1330.12C273.805 1330.01 276.906 1334.75 277.069 1340.66C277.233 1346.58 274.398 1351.47 270.751 1351.57Z" fill="#6C63FF"/>
<path d="M234.151 1458.57L195.192 1486.09L188.386 1548.14L233.834 1532.95L234.151 1458.57Z" fill="white"/>
<path d="M415.901 1327.32L351.452 1329.1L357.461 1546.7L421.91 1544.92L415.901 1327.32Z" fill="white"/>
<path d="M352.996 1326.81L366.257 1360.22L370.236 1513.93L355.257 1518.65L352.996 1326.81Z" fill="#CCCCCC"/>
<path d="M448.132 1266.91C452.797 1266.91 456.579 1261.84 456.579 1255.58C456.579 1249.33 452.797 1244.26 448.132 1244.26C443.467 1244.26 439.685 1249.33 439.685 1255.58C439.685 1261.84 443.467 1266.91 448.132 1266.91Z" fill="white"/>
<path d="M382.084 1270.49C370.026 1270.83 360.827 1291.7 361.048 1299.84L361.455 1314.59L405.114 1313.38L404.707 1298.64C404.478 1290.5 394.141 1270.17 382.084 1270.49Z" fill="#3F3D56"/>
<path d="M394.567 1337.25L394.262 1321.39L398.42 1321.29L398.725 1337.09L402.494 1567.44L398.335 1567.55" fill="#3F3D56"/>
<path d="M422.034 1366.73L347.296 1368.79C345.992 1360.92 347.678 1324.16 354.407 1315.94L360.249 1306.02L405.291 1303.82L410.555 1314.27C423.854 1315.35 428.506 1351.47 422.034 1366.73Z" fill="white"/>
<path d="M393.995 1352.25L375.095 1352.78C371.448 1352.88 368.326 1347.4 368.138 1340.57C367.949 1333.75 370.764 1328.11 374.411 1328.01L393.311 1327.49C396.958 1327.38 400.079 1332.86 400.268 1339.69C400.456 1346.51 397.642 1352.15 393.995 1352.25Z" fill="#6C63FF"/>
<path d="M419.086 1442.66L456.749 1471.93L460.715 1534.23L416.009 1516.98L419.086 1442.66Z" fill="white"/>
<path d="M408.568 1154.12C368.155 1154.12 321.711 1109.27 280.619 1130.58C156.204 1195.1 173.33 1087.14 137.587 1046.99L138.76 1044.64C165.82 1147.86 190.303 1312.33 281.159 1127.84C303.918 1081.63 378.614 1153.06 422.583 1150.96L422.659 1153.79C418.015 1154.01 413.318 1154.12 408.568 1154.12Z" fill="white"/>
<path d="M505.565 1160.47C473.35 1184.87 409.249 1177.16 389.357 1218.95C329.129 1345.5 277.603 1249.1 224.869 1238.68L224.384 1236.09C277.174 1240.47 333.798 1233.68 388.135 1216.45C437.239 1200.87 481.049 1177.71 514.827 1149.48L516.596 1151.69C513.03 1154.67 509.353 1157.6 505.565 1160.47Z" fill="white"/>
<path d="M155.132 1154.91C159.797 1154.91 163.579 1149.84 163.579 1143.58C163.579 1137.33 159.797 1132.26 155.132 1132.26C150.467 1132.26 146.685 1137.33 146.685 1143.58C146.685 1149.84 150.467 1154.91 155.132 1154.91Z" fill="#E6E6E6"/>
<path d="M417.132 1062.91C421.797 1062.91 425.579 1057.84 425.579 1051.58C425.579 1045.33 421.797 1040.26 417.132 1040.26C412.467 1040.26 408.685 1045.33 408.685 1051.58C408.685 1057.84 412.467 1062.91 417.132 1062.91Z" fill="white"/>
<path d="M232.47 1200.63C228.608 1203.2 224.656 1197.08 228.592 1194.62C232.454 1192.05 236.406 1198.17 232.47 1200.63Z" fill="#E6E6E6"/>
<path d="M375.47 999.629C371.608 1002.2 367.656 996.078 371.592 993.619C375.454 991.046 379.406 997.17 375.47 999.629Z" fill="#E6E6E6"/>
<path d="M459.749 1118.8L457.292 1118.26L457.83 1115.8L456.192 1115.44L455.653 1117.9L453.196 1117.36L452.837 1119L455.294 1119.54L454.756 1122L456.394 1122.36L456.933 1119.9L459.39 1120.44L459.749 1118.8Z" fill="#E6E6E6"/>
<path d="M234.535 1036.44C240.446 1036.44 245.238 1031.65 245.238 1025.74C245.238 1019.83 240.446 1015.03 234.535 1015.03C228.625 1015.03 223.833 1019.83 223.833 1025.74C223.833 1031.65 228.625 1036.44 234.535 1036.44Z" fill="#FF6584"/>
<path d="M312.816 1012.19C300.759 1012.53 291.559 1033.4 291.78 1041.54L292.187 1056.28L335.846 1055.08L335.439 1040.34C335.211 1032.19 324.874 1011.87 312.816 1012.19Z" fill="#3F3D56"/>
<path d="M338.813 1570.41L318.981 1570.96C315.968 1571.11 312.988 1570.28 310.495 1568.58C308.341 1566.98 307.353 1564.81 307.786 1562.64L311.689 1543.02C312.425 1539.32 316.959 1536.53 322.469 1536.37L333.422 1536.07C338.932 1535.92 343.613 1538.46 344.552 1542.12L349.531 1561.48C350.083 1563.63 349.216 1565.85 347.155 1567.57C344.759 1569.4 341.829 1570.4 338.813 1570.41Z" fill="#3F3D56"/>
<path d="M347.656 1106.04L283.207 1107.82L295.353 1547.66L359.802 1545.88L347.656 1106.04Z" fill="white"/>
<path d="M321.868 1318.95L321.562 1303.09L325.721 1302.99L326.026 1318.79L329.795 1549.14L325.635 1549.26" fill="#3F3D56"/>
<path d="M360.345 1146.29L273.019 1148.7C271.497 1139.5 273.466 1096.55 281.328 1086.95L283.482 1075.49L343.779 1073.82L346.933 1084.99C355.592 1092.36 360.057 1135.43 360.345 1146.29Z" fill="white"/>
<path d="M345.685 1075.18L283.462 1076.89C281.165 1076.96 279.269 1075.75 279.226 1074.2C279.221 1073.98 279.253 1073.75 279.323 1073.54L288.988 1043.77C289.402 1042.49 291.049 1041.56 292.972 1041.5L334.236 1040.36C336.159 1040.31 337.856 1041.15 338.34 1042.4L349.633 1071.6C350.21 1073.09 348.876 1074.65 346.653 1075.07C346.334 1075.13 346.01 1075.17 345.685 1075.18Z" fill="white"/>
<path d="M289.6 1316.93C289.038 1316.69 288.507 1316.38 288.019 1316.01C287.319 1315.52 286.741 1314.88 286.328 1314.13C285.916 1313.38 285.68 1312.54 285.64 1311.69L283.379 1229.81C283.286 1226.42 286.604 1223.57 290.777 1223.46L346.48 1221.92C350.653 1221.8 354.123 1224.47 354.217 1227.86L356.478 1309.73C356.484 1310.59 356.295 1311.43 355.925 1312.2C355.554 1312.98 355.013 1313.65 354.341 1314.18C352.853 1315.39 350.998 1316.07 349.079 1316.09L293.377 1317.63C292.082 1317.67 290.793 1317.43 289.6 1316.93Z" fill="#3F3D56"/>
<path d="M325.252 1069.91L306.352 1070.43C302.705 1070.53 299.621 1066.41 299.479 1061.24C299.336 1056.08 302.188 1051.8 305.835 1051.69L324.735 1051.17C328.382 1051.07 331.466 1055.19 331.609 1060.36C331.751 1065.52 328.9 1069.81 325.252 1069.91Z" fill="#6C63FF"/>
<path d="M772.009 1555.53H750.009V1395.65C768.411 1394.33 782.241 1388.7 782.241 1381.94C782.241 1374.21 764.109 1367.94 741.741 1367.94C719.374 1367.94 701.241 1374.21 701.241 1381.94C701.241 1388.76 715.341 1394.44 734.009 1395.69V1555.53H712.009C709.887 1555.53 707.852 1556.37 706.352 1557.87C704.851 1559.37 704.009 1561.41 704.009 1563.53C704.009 1565.65 704.851 1567.68 706.352 1569.19C707.852 1570.69 709.887 1571.53 712.009 1571.53H772.009C774.13 1571.53 776.165 1570.69 777.665 1569.19C779.166 1567.68 780.009 1565.65 780.009 1563.53C780.009 1561.41 779.166 1559.37 777.665 1557.87C776.165 1556.37 774.13 1555.53 772.009 1555.53Z" fill="white"/>
<path d="M727.847 1474.36L720.62 1482.24L686.806 1458.11L697.471 1446.49L727.847 1474.36Z" fill="#A0616A"/>
<path d="M709.369 1495.15C709.44 1496.91 709.86 1498.64 710.604 1500.24C711.348 1501.83 712.402 1503.27 713.704 1504.46L714.023 1504.75L723.5 1494.42L737.321 1479.36L727.118 1469.99L725.276 1472.01L725.084 1472.21L715.902 1476.56L713.956 1477.48L713.623 1477.64L712.891 1485.5V1485.51C711.693 1486.8 710.766 1488.32 710.161 1489.97C709.556 1491.63 709.287 1493.39 709.369 1495.15Z" fill="#2F2E41"/>
<path d="M765.287 1552.92L755.06 1556.03L738.21 1518.06L753.304 1513.48L765.287 1552.92Z" fill="#A0616A"/>
<path d="M737.802 1571.64L737.927 1572.06L770.903 1562.05L766.878 1548.8L764.274 1549.59L764 1549.67L751.741 1548.54L751.378 1548.51L746.739 1554.91C743.336 1555.95 740.482 1558.29 738.806 1561.43C737.13 1564.56 736.769 1568.24 737.802 1571.64Z" fill="#2F2E41"/>
<path d="M680.957 1354.13C680.957 1354.13 615.663 1417.17 656.941 1436.68H669.699C672.472 1427.67 676.735 1419.18 682.311 1411.58C683.516 1410 688.032 1410.32 689.286 1408.78C696.943 1399.4 705.244 1391.33 710.977 1391.65L709.605 1435.21L707.386 1450.75C706.22 1458.78 739.113 1528.91 739.113 1528.91L759.787 1520.78C759.787 1520.78 738.247 1463.02 737.995 1454.7L755.257 1363.13L680.957 1354.13Z" fill="#2F2E41"/>
<path d="M675.513 1357.24C675.845 1357.71 676.28 1358.11 676.785 1358.39C677.617 1358.86 678.519 1359.2 679.456 1359.38C694.157 1362.72 742.182 1369.64 754.648 1366.34C756.18 1365.94 757.179 1365.38 757.504 1364.64C758.548 1362.3 758.414 1352.42 757.8 1340.49C757.689 1338.26 755.226 1335.84 755.078 1333.5C754.974 1331.75 757.186 1330.1 757.068 1328.32C756.254 1316.26 755.203 1303.97 754.501 1296.2C754.057 1291.2 753.753 1288.08 753.753 1288.08L761.337 1240.26L760.982 1239.68L760.582 1239.48L736.13 1227.38L734.798 1223.97C734.412 1222.99 733.741 1222.15 732.872 1221.56C732.003 1220.96 730.975 1220.64 729.922 1220.64L713.815 1220.57C712.98 1220.56 712.155 1220.76 711.41 1221.14C710.665 1221.52 710.021 1222.07 709.532 1222.74L705.166 1228.79L676.312 1247.29L676.423 1247.63L689.962 1288.83L690.029 1292.04V1292.05L690.532 1317.87L689.134 1321.37L690.709 1327.11C690.709 1327.11 689.984 1333.82 686.1 1338.81C682.578 1343.34 678.095 1348.06 676.067 1351.89V1351.9C674.943 1354.01 674.566 1355.85 675.513 1357.24Z" fill="#6C63FF"/>
<path d="M653.806 1432.94L657.296 1437.35C657.296 1437.35 689.393 1459.8 690.496 1461.9L695.568 1466.7L707.842 1453.58L701.459 1445.58C696.351 1439.18 689.752 1434.13 682.238 1430.87L672.456 1422.19L653.806 1432.94Z" fill="#2F2E41"/>
<path d="M769.425 1372.13L763.58 1315.55L762.037 1292.27L778.397 1289.31C778.397 1289.31 777.749 1305.96 779.893 1315.35C782.008 1324.62 780.173 1370.89 780.042 1372.13C781.244 1373.2 782.091 1374.61 782.471 1376.18C782.852 1377.75 782.748 1379.39 782.173 1380.9C781.598 1382.4 780.58 1383.7 779.253 1384.61C777.926 1385.53 776.352 1386.02 774.74 1386.02C773.129 1386.02 771.554 1385.53 770.226 1384.62C768.898 1383.71 767.879 1382.41 767.303 1380.9C766.726 1379.4 766.621 1377.75 767 1376.19C767.379 1374.62 768.225 1373.21 769.425 1372.13Z" fill="#A0616A"/>
<path d="M749.942 1286.45L754.5 1296.2L756.091 1299.59L760.374 1322.03L762.513 1324.3L764.355 1331.63L765.221 1331.45L780.832 1328.22L785.382 1327.28C786.407 1325.57 786.811 1323.56 786.526 1321.59C786.24 1319.62 785.282 1317.8 783.813 1316.46C783.503 1316.17 783.244 1315.9 783.251 1315.64C783.51 1300.04 782.556 1271.55 773.936 1259.82C771.199 1256.1 769.556 1252.39 767.166 1249.8C767.159 1249.79 767.159 1249.79 767.152 1249.79L761.336 1240.26L760.981 1239.68L760.582 1239.48L749.942 1286.45Z" fill="#6C63FF"/>
<path d="M723.128 1216.56C734.964 1216.56 744.559 1206.97 744.559 1195.13C744.559 1183.3 734.964 1173.7 723.128 1173.7C711.292 1173.7 701.697 1183.3 701.697 1195.13C701.697 1206.97 711.292 1216.56 723.128 1216.56Z" fill="#A0616A"/>
<path d="M748.575 1190.52C749.203 1186.92 749.692 1182.25 747.894 1178.1C746.374 1174.61 742.574 1171.33 738.349 1171.77C738.549 1170.99 738.527 1170.16 738.285 1169.38C738.042 1168.6 737.589 1167.91 736.976 1167.37C735.601 1166.29 733.997 1165.54 732.288 1165.17C728.317 1164 724.204 1162.79 719.957 1162.77C715.19 1162.74 710.966 1164.38 708.376 1167.26L708.313 1167.35L707.537 1169.2C707.433 1169.45 707.276 1169.68 707.078 1169.86C706.88 1170.04 706.644 1170.18 706.388 1170.26C706.131 1170.35 705.858 1170.37 705.59 1170.34C705.321 1170.31 705.063 1170.21 704.834 1170.07C704.583 1169.92 704.296 1169.83 704.001 1169.82C703.706 1169.81 703.414 1169.88 703.154 1170.02C702.893 1170.15 702.673 1170.36 702.515 1170.61C702.357 1170.86 702.267 1171.14 702.254 1171.44L702.212 1172.23L701.1 1171.78C700.821 1171.67 700.517 1171.64 700.22 1171.68C699.922 1171.72 699.642 1171.85 699.408 1172.03C699.173 1172.22 698.994 1172.47 698.887 1172.75C698.781 1173.03 698.751 1173.34 698.802 1173.63L698.95 1174.58C698.71 1174.53 698.465 1174.54 698.228 1174.59C697.991 1174.64 697.767 1174.75 697.57 1174.89C697.287 1175.09 697.078 1175.39 696.972 1175.72C696.866 1176.06 696.869 1176.41 696.98 1176.75C697.843 1179.21 699.317 1181.41 701.264 1183.15C702.138 1183.94 703.117 1184.6 704.173 1185.12C704.392 1185.23 704.62 1185.34 704.857 1185.44C713.398 1189.1 722.536 1191.17 731.821 1191.55C730.943 1193.22 730.375 1195.04 730.146 1196.92C730.019 1197.98 730.187 1199.06 730.63 1200.04C731.073 1201.02 731.775 1201.85 732.66 1202.46C733.044 1202.68 733.447 1202.86 733.864 1203.01C734.263 1203.16 734.649 1203.34 735.019 1203.55C735.561 1203.87 736.007 1204.34 736.312 1204.89C736.616 1205.45 736.769 1206.08 736.754 1206.71C736.739 1207.34 736.557 1207.96 736.226 1208.5C735.895 1209.04 735.428 1209.49 734.871 1209.79C734.871 1209.79 736.465 1211.74 736.721 1211.7C737.737 1211.47 738.655 1210.93 739.346 1210.15C743.987 1205.64 747.092 1199.04 748.575 1190.52Z" fill="#2F2E41"/>
<path d="M842.398 1521.79L843.329 1500.85C853.039 1495.66 863.869 1492.92 874.879 1492.86C859.726 1505.25 861.62 1529.13 851.346 1545.79C848.103 1550.96 843.736 1555.34 838.572 1558.59C833.407 1561.85 827.576 1563.9 821.511 1564.59L808.831 1572.36C807.091 1562.66 807.474 1552.7 809.955 1543.16C812.436 1533.62 816.955 1524.73 823.201 1517.11C826.747 1512.87 830.813 1509.09 835.303 1505.87C838.34 1513.87 842.398 1521.79 842.398 1521.79Z" fill="white"/>
<path d="M906.157 1573.35C906.157 1573.56 906.118 1573.76 906.04 1573.95C905.962 1574.14 905.847 1574.31 905.703 1574.45C905.559 1574.6 905.387 1574.71 905.198 1574.79C905.01 1574.87 904.808 1574.91 904.603 1574.91H52.5532C52.1413 1574.91 51.7462 1574.74 51.4549 1574.45C51.1636 1574.16 51 1573.77 51 1573.35C51 1572.94 51.1636 1572.55 51.4549 1572.26C51.7462 1571.96 52.1413 1571.8 52.5532 1571.8H904.603C904.808 1571.8 905.01 1571.84 905.198 1571.92C905.387 1572 905.559 1572.11 905.703 1572.25C905.847 1572.4 905.962 1572.57 906.04 1572.76C906.118 1572.95 906.157 1573.15 906.157 1573.35Z" fill="#CCCCCC"/>
<path d="M417.498 1416.57C415.246 1416.63 413.061 1415.79 411.424 1414.24C409.788 1412.69 408.832 1410.56 408.767 1408.3L408.105 1384.31C408.045 1382.06 408.882 1379.88 410.431 1378.24C411.981 1376.61 414.115 1375.65 416.367 1375.59C418.619 1375.53 420.803 1376.36 422.44 1377.91C424.077 1379.46 425.033 1381.59 425.098 1383.84L425.761 1407.83C425.82 1410.09 424.984 1412.27 423.435 1413.91C421.886 1415.55 419.751 1416.5 417.498 1416.57Z" fill="#3F3D56"/>
<path d="M792.354 1504.25C779.442 1504.25 765.29 1503.76 749.898 1502.78C670.284 1497.73 567.16 1480.15 459.522 1453.29C351.884 1426.43 252.591 1393.5 179.936 1360.56C144.544 1344.51 117.38 1329.32 99.2008 1315.41C79.9537 1300.68 71.5348 1287.85 74.1768 1277.26C79.3248 1256.63 124.908 1252.12 162.241 1251.96L162.254 1254.96C110.985 1255.17 80.7399 1263.35 77.088 1277.98C72.4361 1296.62 110.375 1325.72 181.175 1357.83C253.671 1390.69 352.78 1423.56 460.248 1450.38C567.715 1477.2 670.65 1494.75 750.088 1499.79C827.667 1504.72 874.831 1496.85 879.483 1478.21C883.344 1462.74 857.884 1439.94 807.793 1414.01L809.172 1411.35C845.569 1430.19 887.818 1457.2 882.394 1478.94C879.751 1489.53 866.288 1496.9 842.379 1500.86C828.749 1503.12 812.008 1504.25 792.354 1504.25Z" fill="#CCCCCC"/>
<path d="M107.059 1484.6C96.8127 1484.6 90.1515 1482.05 87.2033 1476.99C81.3893 1467.01 91.1266 1449.49 116.144 1424.94L118.246 1427.08C95.007 1449.89 84.903 1467.08 89.7951 1475.48C92.8908 1480.79 102.104 1482.69 116.444 1480.98C130.679 1479.28 149.544 1474.22 172.515 1465.93C219.806 1448.86 279.138 1420.07 339.58 1384.86C400.021 1349.66 454.331 1312.25 492.507 1279.53C499.84 1273.24 506.494 1267.2 512.286 1261.56C519.889 1254.33 526.904 1246.52 533.262 1238.18C541.825 1226.55 544.715 1217.6 541.62 1212.28C536.45 1203.41 514.732 1204.24 480.464 1214.64L479.593 1211.77C516.36 1200.62 538.101 1200.28 544.212 1210.77C548.009 1217.29 545.138 1227.11 535.678 1239.96C529.222 1248.43 522.1 1256.37 514.379 1263.71C508.542 1269.39 501.84 1275.48 494.459 1281.81C456.15 1314.64 401.682 1352.16 341.09 1387.45C280.496 1422.75 220.99 1451.62 173.534 1468.75C150.349 1477.12 131.26 1482.23 116.799 1483.96C113.568 1484.36 110.315 1484.58 107.059 1484.6Z" fill="#CCCCCC"/>
<path d="M654.602 1361.42C647.188 1361.27 607.362 1360.13 600.832 1360.41C600.462 1359.12 588.082 1374.99 587.781 1375.08C587.58 1375.3 587.434 1375.55 587.354 1375.83C587.274 1376.11 587.264 1376.41 587.323 1376.7C587.382 1376.98 587.51 1377.25 587.695 1377.47C587.88 1377.7 588.117 1377.88 588.385 1377.99C589.113 1378.43 653.317 1377.25 654.095 1377.4C654.432 1377.4 654.76 1377.3 655.042 1377.11C655.324 1376.93 655.548 1376.67 655.689 1376.36L656.118 1375.4C656.163 1373.76 656.701 1365.35 656.218 1363.92C656.336 1363.65 656.386 1363.35 656.362 1363.06C656.339 1362.76 656.243 1362.48 656.082 1362.23C655.922 1361.99 655.703 1361.78 655.445 1361.64C655.186 1361.5 654.897 1361.42 654.602 1361.42Z" fill="#E6E6E6"/>
<path opacity="0.17" d="M656.117 1375.4C655.74 1376.31 655.258 1377.44 654.094 1377.4L589.063 1378.13C588.755 1378.13 588.454 1378.05 588.187 1377.89C587.921 1377.74 587.698 1377.52 587.541 1377.25C587.384 1376.99 587.297 1376.69 587.29 1376.38C587.282 1376.07 587.354 1375.77 587.497 1375.5L656.117 1375.4Z" fill="black"/>
<path d="M601.135 1360.22C600.435 1359.01 583.048 1272.98 581.597 1272.26L569.727 1257.74L568.666 1256.94C567.191 1256.13 563.652 1256.68 563.97 1258.93C566.759 1272.3 584.696 1348.45 585.089 1360.32L587.248 1375.45C587.287 1375.7 587.379 1375.95 587.518 1376.17C587.658 1376.39 587.842 1376.58 588.059 1376.72C588.275 1376.87 588.52 1376.96 588.776 1377.01C589.033 1377.05 589.296 1377.04 589.548 1376.98C590.167 1376.91 590.758 1376.68 591.262 1376.32C591.767 1375.95 592.168 1375.46 592.425 1374.9C592.587 1374.36 601.947 1360.53 601.135 1360.22Z" fill="white"/>
<path opacity="0.17" d="M569.724 1257.74L592.428 1374.9C591.668 1376.82 588.116 1378.17 587.288 1375.65C587.274 1375.64 563.997 1259 563.973 1258.93C563.725 1256.13 568.364 1256.04 569.724 1257.74Z" fill="black"/>
<path d="M570.409 1262.53L581.939 1278.6L594.881 1340.07L588.865 1345.32L570.409 1262.53Z" fill="#6C63FF"/>
<path d="M647.159 1369.71L650.349 1369.84C650.399 1368.91 650.553 1367.98 650.809 1367.08C651.289 1364.8 651.719 1362.09 649.729 1362.1C648.379 1361.97 647.919 1363.68 647.679 1365.54C647.617 1366.94 647.443 1368.34 647.159 1369.71Z" fill="#2F2E41"/>
<path d="M628.858 1365.42L631.008 1365.5L632.048 1365.54C632.028 1364.4 632.558 1362.05 631.268 1361.47C631.063 1361.38 630.842 1361.34 630.618 1361.34C629.408 1361.27 629.048 1362.19 628.938 1363.25C628.868 1363.89 628.898 1364.57 628.878 1365.1C628.878 1365.21 628.868 1365.32 628.858 1365.42Z" fill="#2F2E41"/>
<path d="M622.489 1365.16L624.649 1365.25L625.679 1365.29C625.659 1363.98 626.349 1361.12 624.249 1361.08C622.309 1360.97 622.559 1363.44 622.509 1364.84C622.509 1364.95 622.499 1365.06 622.489 1365.16Z" fill="#2F2E41"/>
<path d="M616.119 1364.91L618.269 1364.99L619.309 1365.03C619.289 1363.73 619.979 1360.87 617.879 1360.83C615.939 1360.71 616.189 1363.18 616.139 1364.59C616.139 1364.7 616.129 1364.81 616.119 1364.91Z" fill="#2F2E41"/>
<path d="M609.749 1364.65L611.909 1364.74L612.939 1364.78C612.919 1363.47 613.609 1360.62 611.509 1360.57C609.569 1360.46 609.819 1362.93 609.769 1364.33C609.769 1364.44 609.759 1364.55 609.749 1364.65Z" fill="#2F2E41"/>
<path d="M603.379 1364.4L605.529 1364.48L606.569 1364.52C606.549 1363.32 607.129 1360.81 605.589 1360.38H605.579C605.436 1360.34 605.288 1360.32 605.139 1360.32C604.957 1360.3 604.774 1360.32 604.599 1360.37H604.589C603.249 1360.72 603.439 1362.82 603.399 1364.08C603.399 1364.19 603.389 1364.3 603.379 1364.4Z" fill="#2F2E41"/>
<path d="M640.729 1363.72L643.919 1363.85C643.919 1363.73 643.918 1363.6 643.928 1363.45C644.007 1362.69 644.021 1361.92 643.969 1361.16C643.859 1360.32 643.498 1359.66 642.488 1359.64C641.458 1359.58 641.048 1360.24 640.888 1361.09C640.851 1361.23 640.825 1361.38 640.808 1361.53V1361.54C640.728 1362.32 640.779 1363.16 640.729 1363.72Z" fill="#2F2E41"/>
<path d="M634.358 1363.46L637.548 1363.59C637.616 1362.73 637.636 1361.87 637.608 1361.01C637.518 1360.13 637.168 1359.41 636.118 1359.39C635.058 1359.32 634.648 1360.04 634.488 1360.93C634.338 1361.79 634.418 1362.82 634.358 1363.46Z" fill="#2F2E41"/>
<path d="M627.989 1363.21L628.939 1363.25L631.179 1363.34C631.169 1362.86 631.259 1362.16 631.269 1361.47C631.278 1361.26 631.271 1361.06 631.249 1360.85C631.169 1359.92 630.839 1359.15 629.749 1359.13C628.639 1359.07 628.249 1359.84 628.109 1360.78C627.969 1361.62 628.049 1362.59 627.989 1363.21Z" fill="#2F2E41"/>
<path d="M640.789 1369.46L643.979 1369.58C643.969 1368.28 644.649 1365.42 642.549 1365.38C640.449 1365.25 640.909 1368.15 640.789 1369.46Z" fill="#2F2E41"/>
<path d="M634.419 1369.2L637.609 1369.33C637.599 1368.02 638.279 1365.16 636.179 1365.12C634.079 1365 634.539 1367.9 634.419 1369.2Z" fill="#2F2E41"/>
<path d="M628.049 1368.95L631.239 1369.07C631.229 1368.14 631.579 1366.42 631.009 1365.5C630.884 1365.3 630.707 1365.13 630.496 1365.02C630.285 1364.91 630.047 1364.86 629.809 1364.87C629.481 1364.84 629.152 1364.92 628.879 1365.1C627.859 1365.77 628.149 1367.89 628.049 1368.95Z" fill="#2F2E41"/>
<path d="M621.679 1368.69L624.869 1368.82C624.859 1367.89 625.199 1366.18 624.649 1365.25C624.524 1365.04 624.346 1364.87 624.133 1364.76C623.92 1364.65 623.68 1364.6 623.439 1364.61C623.111 1364.57 622.782 1364.66 622.509 1364.84C621.489 1365.53 621.779 1367.64 621.679 1368.69Z" fill="#2F2E41"/>
<path d="M615.309 1368.44L618.499 1368.56C618.489 1367.63 618.839 1365.91 618.269 1364.99C618.144 1364.79 617.967 1364.62 617.756 1364.51C617.544 1364.4 617.307 1364.35 617.069 1364.36C616.741 1364.33 616.412 1364.41 616.139 1364.59C615.119 1365.26 615.409 1367.38 615.309 1368.44Z" fill="#2F2E41"/>
<path d="M608.938 1368.18L612.128 1368.31C612.119 1367.38 612.458 1365.67 611.908 1364.74C611.785 1364.53 611.607 1364.36 611.393 1364.25C611.18 1364.14 610.939 1364.09 610.698 1364.1C610.371 1364.06 610.041 1364.15 609.768 1364.33C608.748 1365.02 609.039 1367.13 608.938 1368.18Z" fill="#2F2E41"/>
<path d="M602.568 1367.93L605.758 1368.05C605.748 1367.12 606.088 1365.41 605.528 1364.48C605.405 1364.28 605.228 1364.11 605.016 1364C604.805 1363.89 604.567 1363.84 604.328 1363.85C604.001 1363.82 603.672 1363.9 603.398 1364.08C602.378 1364.76 602.668 1366.87 602.568 1367.93Z" fill="#2F2E41"/>
<path d="M638.595 1358.69L662.908 1307.27L672.1 1285.82L657.653 1277.59C657.653 1277.59 652.731 1293.51 647.588 1301.66C642.513 1309.7 628.87 1353.94 628.582 1355.15C627.092 1355.77 625.823 1356.82 624.944 1358.17C624.065 1359.52 623.616 1361.11 623.658 1362.72C623.7 1364.33 624.229 1365.89 625.177 1367.19C626.125 1368.5 627.447 1369.48 628.967 1370.02C630.486 1370.56 632.133 1370.62 633.69 1370.2C635.246 1369.78 636.638 1368.89 637.681 1367.67C638.725 1366.44 639.371 1364.92 639.534 1363.32C639.697 1361.71 639.369 1360.1 638.595 1358.69Z" fill="#A0616A"/>
<path d="M638.447 1311.08L656.834 1322.17L661.004 1315.87L663.782 1314.44L675.276 1294.7L685.439 1284.35L698.866 1241.43L681.396 1244.05L681.373 1244.05C678.261 1245.71 675.477 1248.66 671.66 1251.26C659.634 1259.45 649.265 1286.01 644.325 1300.82C644.244 1301.06 643.911 1301.23 643.524 1301.39C641.692 1302.18 640.187 1303.57 639.262 1305.33C638.337 1307.1 638.049 1309.13 638.447 1311.08Z" fill="#6C63FF"/>
</g>
<g clip-path="url(#clip2_136_2486)">
<path d="M1425.88 590.947H1421.88V481.402C1421.88 464.587 1415.2 448.46 1403.31 436.57C1391.42 424.68 1375.3 418 1358.48 418H1126.4C1118.07 418 1109.83 419.64 1102.13 422.826C1094.44 426.012 1087.45 430.682 1081.56 436.57C1075.68 442.457 1071.01 449.447 1067.82 457.139C1064.63 464.831 1062.99 473.076 1062.99 481.402V1082.38C1062.99 1090.7 1064.63 1098.95 1067.82 1106.64C1071.01 1114.33 1075.68 1121.32 1081.56 1127.21C1087.45 1133.1 1094.44 1137.77 1102.13 1140.95C1109.83 1144.14 1118.07 1145.78 1126.4 1145.78H1358.48C1375.3 1145.78 1391.42 1139.1 1403.31 1127.21C1415.2 1115.32 1421.88 1099.19 1421.88 1082.38V668.923H1425.88L1425.88 590.947Z" fill="#E6E6E6"/>
<path d="M1726 1146.86H960C959.735 1146.86 959.48 1146.75 959.293 1146.57C959.105 1146.38 959 1146.12 959 1145.86C959 1145.59 959.105 1145.34 959.293 1145.15C959.48 1144.96 959.735 1144.86 960 1144.86H1726C1726.27 1144.86 1726.52 1144.96 1726.71 1145.15C1726.89 1145.34 1727 1145.59 1727 1145.86C1727 1146.12 1726.89 1146.38 1726.71 1146.57C1726.52 1146.75 1726.27 1146.86 1726 1146.86Z" fill="#3F3D56"/>
<path d="M1385.82 600.504H1102.95C1101.56 600.502 1100.23 599.95 1099.24 598.968C1098.26 597.986 1097.71 596.654 1097.71 595.265V525.096C1097.71 523.708 1098.26 522.376 1099.24 521.394C1100.23 520.412 1101.56 519.86 1102.95 519.858H1385.82C1387.21 519.86 1388.54 520.412 1389.52 521.394C1390.5 522.376 1391.06 523.708 1391.06 525.096V595.265C1391.06 596.654 1390.5 597.986 1389.52 598.968C1388.54 599.95 1387.21 600.502 1385.82 600.504ZM1102.95 521.953C1102.11 521.954 1101.31 522.286 1100.72 522.875C1100.14 523.464 1099.8 524.263 1099.8 525.096V595.265C1099.8 596.099 1100.14 596.898 1100.72 597.487C1101.31 598.076 1102.11 598.408 1102.95 598.408H1385.82C1386.65 598.408 1387.45 598.076 1388.04 597.487C1388.63 596.898 1388.96 596.099 1388.96 595.265V525.096C1388.96 524.263 1388.63 523.464 1388.04 522.875C1387.45 522.286 1386.65 521.954 1385.82 521.953H1102.95Z" fill="#3F3D56"/>
<path d="M1383.73 709.462H1258C1256.61 709.461 1255.28 708.908 1254.3 707.926C1253.32 706.944 1252.77 705.613 1252.76 704.224V634.055C1252.77 632.666 1253.32 631.335 1254.3 630.353C1255.28 629.371 1256.61 628.818 1258 628.817H1383.73C1385.11 628.818 1386.45 629.371 1387.43 630.353C1388.41 631.335 1388.96 632.666 1388.96 634.055V704.224C1388.96 705.613 1388.41 706.944 1387.43 707.926C1386.45 708.908 1385.11 709.461 1383.73 709.462ZM1258 630.912C1257.17 630.913 1256.37 631.244 1255.78 631.834C1255.19 632.423 1254.86 633.222 1254.86 634.055V704.224C1254.86 705.057 1255.19 705.856 1255.78 706.445C1256.37 707.035 1257.17 707.366 1258 707.367H1383.73C1384.56 707.366 1385.36 707.035 1385.95 706.445C1386.54 705.856 1386.87 705.057 1386.87 704.224V634.055C1386.87 633.222 1386.54 632.423 1385.95 631.833C1385.36 631.244 1384.56 630.913 1383.73 630.912L1258 630.912Z" fill="#E6E6E6"/>
<path d="M1228.67 1047.86H1102.95C1101.56 1047.86 1100.23 1047.31 1099.24 1046.33C1098.26 1045.34 1097.71 1044.01 1097.71 1042.62V911.69C1097.71 910.301 1098.26 908.97 1099.24 907.988C1100.23 907.006 1101.56 906.453 1102.95 906.452H1228.67C1230.06 906.453 1231.39 907.006 1232.37 907.988C1233.35 908.97 1233.91 910.301 1233.91 911.69V1042.62C1233.91 1044.01 1233.35 1045.34 1232.37 1046.33C1231.39 1047.31 1230.06 1047.86 1228.67 1047.86ZM1102.95 908.547C1102.11 908.548 1101.31 908.879 1100.72 909.469C1100.14 910.058 1099.8 910.857 1099.8 911.69V1042.62C1099.8 1043.46 1100.14 1044.26 1100.72 1044.85C1101.31 1045.44 1102.11 1045.77 1102.95 1045.77H1228.67C1229.5 1045.77 1230.3 1045.44 1230.89 1044.85C1231.48 1044.26 1231.81 1043.46 1231.81 1042.62V911.69C1231.81 910.857 1231.48 910.058 1230.89 909.469C1230.3 908.879 1229.5 908.548 1228.67 908.547H1102.95Z" fill="#E6E6E6"/>
<path d="M1383.73 1047.86H1258C1256.61 1047.86 1255.28 1047.31 1254.3 1046.33C1253.32 1045.34 1252.77 1044.01 1252.76 1042.62V911.69C1252.77 910.301 1253.32 908.97 1254.3 907.988C1255.28 907.006 1256.61 906.453 1258 906.452H1383.73C1385.11 906.453 1386.45 907.006 1387.43 907.988C1388.41 908.97 1388.96 910.301 1388.96 911.69V1042.62C1388.96 1044.01 1388.41 1045.34 1387.43 1046.33C1386.45 1047.31 1385.11 1047.86 1383.73 1047.86ZM1258 908.547C1257.17 908.548 1256.37 908.879 1255.78 909.469C1255.19 910.058 1254.86 910.857 1254.86 911.69V1042.62C1254.86 1043.46 1255.19 1044.26 1255.78 1044.85C1256.37 1045.44 1257.17 1045.77 1258 1045.77H1383.73C1384.56 1045.77 1385.36 1045.44 1385.95 1044.85C1386.54 1044.26 1386.87 1043.46 1386.87 1042.62V911.69C1386.87 910.857 1386.54 910.058 1385.95 909.469C1385.36 908.879 1384.56 908.548 1383.73 908.547H1258Z" fill="#E6E6E6"/>
<path d="M1146.9 578.827C1158.68 578.827 1168.24 569.273 1168.24 557.488C1168.24 545.704 1158.68 536.15 1146.9 536.15C1135.11 536.15 1125.56 545.704 1125.56 557.488C1125.56 569.273 1135.11 578.827 1146.9 578.827Z" fill="#6C63FF"/>
<path d="M1196.18 543.263C1195.24 543.265 1194.34 543.641 1193.67 544.307C1193.01 544.974 1192.63 545.877 1192.63 546.819C1192.63 547.761 1193.01 548.664 1193.67 549.331C1194.34 549.998 1195.24 550.373 1196.18 550.376H1363.84C1364.31 550.377 1364.77 550.286 1365.2 550.109C1365.64 549.931 1366.03 549.67 1366.36 549.341C1366.69 549.011 1366.95 548.619 1367.13 548.188C1367.31 547.757 1367.41 547.294 1367.41 546.827C1367.41 546.359 1367.32 545.896 1367.14 545.464C1366.96 545.032 1366.7 544.639 1366.37 544.308C1366.04 543.977 1365.65 543.715 1365.22 543.535C1364.79 543.356 1364.32 543.263 1363.86 543.263C1363.85 543.263 1363.85 543.263 1363.84 543.263H1196.18Z" fill="#6C63FF"/>
<path d="M1361.04 434.495H1330.75C1332.14 437.911 1332.67 441.617 1332.3 445.286C1331.92 448.956 1330.65 452.476 1328.59 455.538C1326.53 458.6 1323.75 461.109 1320.5 462.843C1317.24 464.578 1313.61 465.485 1309.92 465.486H1176.96C1173.27 465.485 1169.64 464.578 1166.38 462.843C1163.13 461.109 1160.35 458.6 1158.29 455.538C1156.23 452.477 1154.96 448.956 1154.58 445.286C1154.21 441.617 1154.74 437.911 1156.13 434.495H1127.84C1115.28 434.495 1103.24 439.484 1094.36 448.363C1085.48 457.242 1080.49 469.285 1080.49 481.843V1081.94C1080.49 1088.15 1081.71 1094.31 1084.09 1100.05C1086.47 1105.8 1089.96 1111.02 1094.36 1115.42C1098.75 1119.81 1103.97 1123.3 1109.72 1125.68C1115.46 1128.06 1121.62 1129.28 1127.84 1129.28H1361.04C1367.26 1129.28 1373.42 1128.06 1379.16 1125.68C1384.91 1123.3 1390.12 1119.81 1394.52 1115.42C1398.92 1111.02 1402.41 1105.8 1404.79 1100.05C1407.16 1094.31 1408.39 1088.15 1408.39 1081.94V481.843C1408.39 475.625 1407.16 469.468 1404.79 463.724C1402.41 457.979 1398.92 452.76 1394.52 448.363C1390.12 443.966 1384.91 440.479 1379.16 438.099C1373.42 435.72 1367.26 434.495 1361.04 434.495Z" fill="white"/>
<rect x="1174" y="740" width="293" height="138" fill="white"/>
<path d="M1462.11 878.364H1179.24C1177.85 878.362 1176.52 877.809 1175.54 876.827C1174.55 875.845 1174 874.514 1174 873.125V743.238C1174 741.85 1174.55 740.518 1175.54 739.536C1176.52 738.554 1177.85 738.002 1179.24 738H1462.11C1463.5 738.002 1464.83 738.554 1465.81 739.536C1466.8 740.518 1467.35 741.85 1467.35 743.238V873.125C1467.35 874.514 1466.8 875.845 1465.81 876.827C1464.83 877.809 1463.5 878.362 1462.11 878.364ZM1179.24 740.095C1178.41 740.096 1177.61 740.428 1177.02 741.017C1176.43 741.606 1176.1 742.405 1176.1 743.238V873.125C1176.1 873.958 1176.43 874.757 1177.02 875.347C1177.61 875.936 1178.41 876.267 1179.24 876.268H1462.11C1462.95 876.267 1463.74 875.936 1464.33 875.347C1464.92 874.757 1465.25 873.958 1465.26 873.125V743.238C1465.25 742.405 1464.92 741.606 1464.33 741.017C1463.74 740.428 1462.95 740.096 1462.11 740.095L1179.24 740.095Z" fill="#3F3D56"/>
<path d="M1221.1 805.35C1232.88 805.35 1242.43 795.797 1242.43 784.012C1242.43 772.227 1232.88 762.673 1221.1 762.673C1209.31 762.673 1199.76 772.227 1199.76 784.012C1199.76 795.797 1209.31 805.35 1221.1 805.35Z" fill="#6C63FF"/>
<path d="M1270.38 769.786C1269.43 769.786 1268.53 770.161 1267.86 770.828C1267.2 771.495 1266.82 772.399 1266.82 773.343C1266.82 774.286 1267.2 775.19 1267.86 775.857C1268.53 776.524 1269.43 776.899 1270.38 776.899H1438.04C1438.98 776.897 1439.88 776.521 1440.55 775.854C1441.21 775.188 1441.59 774.284 1441.59 773.343C1441.59 772.401 1441.21 771.498 1440.55 770.831C1439.88 770.164 1438.98 769.788 1438.04 769.786H1270.38Z" fill="#6C63FF"/>
<path d="M1204.73 825.239C1202.02 825.239 1199.82 826.834 1199.82 828.795C1199.82 830.756 1202.02 832.352 1204.73 832.352H1436.05C1438.75 832.352 1440.95 830.756 1440.95 828.795C1440.95 826.834 1438.75 825.239 1436.05 825.239H1204.73Z" fill="#CCCCCC"/>
<path d="M1204.73 846.577C1202.02 846.577 1199.82 848.173 1199.82 850.134C1199.82 852.095 1202.02 853.69 1204.73 853.69H1436.05C1438.75 853.69 1440.95 852.094 1440.95 850.134C1440.95 848.173 1438.75 846.577 1436.05 846.577H1204.73Z" fill="#CCCCCC"/>
<path d="M1270.38 791.125C1269.91 791.124 1269.45 791.215 1269.02 791.393C1268.58 791.57 1268.19 791.832 1267.86 792.161C1267.53 792.491 1267.27 792.882 1267.09 793.313C1266.91 793.744 1266.81 794.207 1266.81 794.674C1266.81 795.141 1266.9 795.603 1267.08 796.035C1267.26 796.467 1267.52 796.86 1267.85 797.191C1268.18 797.522 1268.57 797.784 1269 797.964C1269.43 798.144 1269.9 798.237 1270.36 798.238H1342.52C1342.99 798.238 1343.45 798.147 1343.88 797.969C1344.32 797.79 1344.71 797.528 1345.04 797.198C1345.37 796.868 1345.63 796.475 1345.81 796.044C1345.99 795.612 1346.08 795.149 1346.08 794.681C1346.08 794.214 1345.99 793.751 1345.81 793.319C1345.63 792.887 1345.37 792.495 1345.04 792.164C1344.71 791.834 1344.32 791.572 1343.88 791.394C1343.45 791.215 1342.99 791.124 1342.52 791.125H1270.38Z" fill="#6C63FF"/>
<path d="M1196.18 564.601C1195.24 564.604 1194.34 564.979 1193.67 565.646C1193.01 566.313 1192.63 567.216 1192.63 568.158C1192.63 569.099 1193.01 570.003 1193.67 570.67C1194.34 571.336 1195.24 571.712 1196.18 571.714H1268.33C1268.79 571.716 1269.26 571.625 1269.69 571.447C1270.12 571.27 1270.51 571.009 1270.84 570.679C1271.18 570.35 1271.44 569.958 1271.62 569.527C1271.8 569.095 1271.89 568.633 1271.89 568.165C1271.89 567.698 1271.8 567.235 1271.62 566.803C1271.45 566.371 1271.19 565.978 1270.86 565.647C1270.53 565.316 1270.13 565.053 1269.7 564.874C1269.27 564.694 1268.81 564.602 1268.34 564.601C1268.34 564.601 1268.33 564.601 1268.33 564.601H1196.18Z" fill="#6C63FF"/>
<path d="M1228.56 709.475H1110.62L1138.37 661.402C1138.87 660.54 1139.59 659.824 1140.45 659.327C1141.31 658.83 1142.29 658.568 1143.28 658.568C1144.28 658.568 1145.25 658.83 1146.12 659.327C1146.98 659.824 1147.69 660.54 1148.19 661.402L1160.05 681.938L1180.21 647.02C1180.83 645.941 1181.73 645.045 1182.8 644.422C1183.88 643.799 1185.11 643.471 1186.35 643.471C1187.6 643.471 1188.82 643.799 1189.9 644.422C1190.98 645.045 1191.88 645.941 1192.5 647.02L1228.56 709.475ZM1114.25 707.38H1224.93L1190.68 648.067C1190.24 647.307 1189.61 646.676 1188.85 646.237C1188.09 645.798 1187.23 645.567 1186.35 645.567C1185.48 645.567 1184.61 645.798 1183.85 646.237C1183.09 646.676 1182.46 647.307 1182.02 648.067L1160.05 686.128L1146.38 662.449C1146.06 661.906 1145.61 661.455 1145.07 661.142C1144.53 660.828 1143.91 660.663 1143.28 660.663C1142.66 660.663 1142.04 660.828 1141.5 661.142C1140.95 661.455 1140.5 661.906 1140.19 662.449L1114.25 707.38Z" fill="#E6E6E6"/>
<path d="M1379.42 709.475H1261.48L1289.24 661.402C1289.74 660.54 1290.45 659.825 1291.31 659.327C1292.18 658.83 1293.15 658.568 1294.15 658.568C1295.14 658.568 1296.12 658.83 1296.98 659.327C1297.84 659.825 1298.56 660.54 1299.06 661.402L1310.91 681.938L1331.07 647.02C1331.7 645.941 1332.59 645.045 1333.67 644.422C1334.75 643.799 1335.97 643.472 1337.22 643.472C1338.46 643.472 1339.69 643.799 1340.77 644.422C1341.84 645.045 1342.74 645.941 1343.36 647.02L1379.42 709.475ZM1265.11 707.38H1375.79L1341.55 648.067C1341.11 647.307 1340.48 646.676 1339.72 646.237C1338.96 645.798 1338.1 645.567 1337.22 645.567C1336.34 645.567 1335.48 645.798 1334.72 646.237C1333.96 646.676 1333.33 647.307 1332.89 648.067L1310.91 686.129L1297.24 662.449C1296.93 661.906 1296.48 661.455 1295.93 661.142C1295.39 660.828 1294.77 660.663 1294.15 660.663C1293.52 660.663 1292.9 660.828 1292.36 661.142C1291.82 661.455 1291.37 661.906 1291.05 662.449L1265.11 707.38Z" fill="#E6E6E6"/>
<path d="M1228.67 709.462H1102.95C1101.56 709.461 1100.23 708.908 1099.24 707.926C1098.26 706.944 1097.71 705.613 1097.71 704.224V634.055C1097.71 632.666 1098.26 631.335 1099.24 630.353C1100.23 629.371 1101.56 628.818 1102.95 628.817H1228.67C1230.06 628.818 1231.39 629.371 1232.37 630.353C1233.35 631.335 1233.91 632.666 1233.91 634.055V704.224C1233.91 705.613 1233.35 706.944 1232.37 707.926C1231.39 708.908 1230.06 709.461 1228.67 709.462ZM1102.95 630.912C1102.11 630.913 1101.31 631.244 1100.72 631.834C1100.14 632.423 1099.8 633.222 1099.8 634.055V704.224C1099.8 705.057 1100.14 705.856 1100.72 706.445C1101.31 707.035 1102.11 707.366 1102.95 707.367H1228.67C1229.5 707.366 1230.3 707.035 1230.89 706.445C1231.48 705.856 1231.81 705.057 1231.81 704.224V634.055C1231.81 633.222 1231.48 632.423 1230.89 631.833C1230.3 631.244 1229.5 630.913 1228.67 630.912L1102.95 630.912Z" fill="#E6E6E6"/>
<path d="M1129.74 933.453C1129.27 933.452 1128.8 933.543 1128.37 933.722C1127.94 933.9 1127.55 934.162 1127.22 934.492C1126.89 934.823 1126.62 935.215 1126.44 935.647C1126.27 936.079 1126.17 936.542 1126.17 937.009C1126.17 937.477 1126.27 937.94 1126.44 938.372C1126.62 938.804 1126.89 939.196 1127.22 939.526C1127.55 939.857 1127.94 940.118 1128.37 940.297C1128.8 940.475 1129.27 940.567 1129.74 940.566H1201.88C1202.82 940.566 1203.73 940.191 1204.39 939.524C1205.06 938.857 1205.44 937.953 1205.44 937.009C1205.44 936.066 1205.06 935.161 1204.39 934.495C1203.73 933.828 1202.82 933.453 1201.88 933.453H1129.74Z" fill="#E6E6E6"/>
<path d="M1129.74 954.406C1129.27 954.406 1128.8 954.497 1128.37 954.675C1127.94 954.854 1127.55 955.116 1127.22 955.446C1126.89 955.776 1126.62 956.169 1126.44 956.6C1126.27 957.032 1126.17 957.495 1126.17 957.963C1126.17 958.43 1126.27 958.893 1126.44 959.325C1126.62 959.757 1126.89 960.149 1127.22 960.48C1127.55 960.81 1127.94 961.072 1128.37 961.25C1128.8 961.429 1129.27 961.52 1129.74 961.519H1201.88C1202.82 961.518 1203.72 961.142 1204.39 960.475C1205.06 959.809 1205.43 958.905 1205.43 957.963C1205.43 957.021 1205.06 956.117 1204.39 955.45C1203.72 954.783 1202.82 954.408 1201.88 954.406H1129.74Z" fill="#E6E6E6"/>
<path d="M1165.81 1020.86C1161.38 1020.86 1157.05 1019.55 1153.37 1017.09C1149.69 1014.63 1146.82 1011.13 1145.13 1007.04C1143.43 1002.95 1142.99 998.451 1143.85 994.109C1144.72 989.766 1146.85 985.777 1149.98 982.647C1153.11 979.516 1157.1 977.384 1161.44 976.52C1165.78 975.656 1170.28 976.1 1174.37 977.794C1178.47 979.488 1181.96 982.358 1184.42 986.039C1186.88 989.72 1188.19 994.048 1188.19 998.476C1188.19 1004.41 1185.83 1010.1 1181.63 1014.3C1177.43 1018.49 1171.74 1020.86 1165.81 1020.86ZM1165.81 978.185C1161.79 978.185 1157.87 979.375 1154.54 981.605C1151.2 983.834 1148.6 987.003 1147.06 990.711C1145.53 994.419 1145.12 998.498 1145.91 1002.43C1146.69 1006.37 1148.62 1009.99 1151.46 1012.82C1154.3 1015.66 1157.91 1017.59 1161.85 1018.38C1165.79 1019.16 1169.87 1018.76 1173.57 1017.22C1177.28 1015.69 1180.45 1013.09 1182.68 1009.75C1184.91 1006.41 1186.1 1002.49 1186.1 998.476C1186.09 993.096 1183.95 987.939 1180.15 984.135C1176.34 980.331 1171.19 978.192 1165.81 978.185Z" fill="#E6E6E6"/>
<path d="M1356.94 1020.86C1357.4 1020.86 1357.87 1020.77 1358.3 1020.59C1358.73 1020.41 1359.12 1020.15 1359.45 1019.82C1359.79 1019.49 1360.05 1019.1 1360.23 1018.67C1360.41 1018.24 1360.5 1017.77 1360.5 1017.31C1360.5 1016.84 1360.41 1016.37 1360.23 1015.94C1360.05 1015.51 1359.79 1015.12 1359.45 1014.79C1359.12 1014.46 1358.73 1014.2 1358.3 1014.02C1357.87 1013.84 1357.4 1013.75 1356.94 1013.75H1284.79C1283.85 1013.75 1282.94 1014.12 1282.28 1014.79C1281.61 1015.46 1281.24 1016.36 1281.24 1017.31C1281.24 1018.25 1281.61 1019.15 1282.28 1019.82C1282.94 1020.49 1283.85 1020.86 1284.79 1020.86H1356.94Z" fill="#E6E6E6"/>
<path d="M1356.94 999.908C1357.4 999.909 1357.87 999.818 1358.3 999.639C1358.73 999.461 1359.12 999.199 1359.45 998.869C1359.79 998.538 1360.05 998.146 1360.23 997.714C1360.41 997.282 1360.5 996.819 1360.5 996.352C1360.5 995.884 1360.41 995.421 1360.23 994.989C1360.05 994.558 1359.79 994.165 1359.45 993.835C1359.12 993.505 1358.73 993.243 1358.3 993.064C1357.87 992.886 1357.4 992.795 1356.94 992.795H1284.79C1283.85 992.795 1282.94 993.17 1282.28 993.837C1281.61 994.504 1281.24 995.409 1281.24 996.352C1281.24 997.295 1281.61 998.2 1282.28 998.867C1282.94 999.534 1283.85 999.908 1284.79 999.908H1356.94Z" fill="#E6E6E6"/>
<path d="M1320.86 933.453C1325.29 933.453 1329.62 934.766 1333.3 937.226C1336.98 939.685 1339.85 943.182 1341.55 947.272C1343.24 951.363 1343.68 955.864 1342.82 960.206C1341.96 964.549 1339.82 968.537 1336.69 971.668C1333.56 974.799 1329.57 976.931 1325.23 977.795C1320.89 978.659 1316.39 978.215 1312.3 976.521C1308.21 974.827 1304.71 971.957 1302.25 968.276C1299.79 964.595 1298.48 960.266 1298.48 955.839C1298.48 949.904 1300.84 944.214 1305.04 940.017C1309.24 935.82 1314.93 933.46 1320.86 933.453ZM1320.86 976.129C1324.88 976.129 1328.8 974.94 1332.14 972.71C1335.47 970.48 1338.07 967.311 1339.61 963.604C1341.15 959.896 1341.55 955.816 1340.76 951.88C1339.98 947.944 1338.05 944.329 1335.21 941.491C1332.37 938.654 1328.76 936.721 1324.82 935.938C1320.89 935.155 1316.81 935.557 1313.1 937.093C1309.39 938.628 1306.22 941.229 1303.99 944.566C1301.76 947.903 1300.57 951.826 1300.57 955.839C1300.58 961.218 1302.72 966.376 1306.52 970.18C1310.33 973.983 1315.48 976.123 1320.86 976.129Z" fill="#E6E6E6"/>
<path d="M1516.47 1127.1H1552.46V1146.76H1501.58V1141.99C1501.58 1138.04 1503.15 1134.25 1505.94 1131.46C1508.74 1128.67 1512.52 1127.1 1516.47 1127.1Z" fill="#2F2E41"/>
<path d="M1581.16 1127.1H1617.15V1146.76H1566.28V1141.99C1566.28 1138.04 1567.85 1134.25 1570.64 1131.46C1573.43 1128.67 1577.22 1127.1 1581.16 1127.1Z" fill="#2F2E41"/>
<path d="M1653.34 1090.24L1654.34 1067.81C1664.74 1062.25 1676.34 1059.31 1688.13 1059.26C1671.9 1072.53 1673.93 1098.11 1662.92 1115.95C1659.45 1121.49 1654.77 1126.18 1649.24 1129.66C1643.71 1133.15 1637.46 1135.35 1630.97 1136.09L1617.38 1144.41C1615.52 1134.02 1615.93 1123.35 1618.59 1113.13C1621.24 1102.91 1626.08 1093.39 1632.77 1085.23C1636.57 1080.69 1640.93 1076.64 1645.74 1073.18C1648.99 1081.76 1653.34 1090.24 1653.34 1090.24Z" fill="#F2F2F2"/>
<path d="M1618.34 1132.86L1606.04 1132.86L1600.19 1085.42L1618.34 1085.42L1618.34 1132.86Z" fill="#FFB6B6"/>
<path d="M1621.48 1144.79L1581.82 1144.78V1144.28C1581.82 1140.19 1583.45 1136.26 1586.34 1133.37C1589.24 1130.47 1593.16 1128.85 1597.25 1128.85L1604.5 1123.35L1618.02 1128.85L1621.48 1128.85L1621.48 1144.79Z" fill="#2F2E41"/>
<path d="M1561.2 1132.86L1548.9 1132.86L1543.05 1085.42L1561.2 1085.42L1561.2 1132.86Z" fill="#FFB6B6"/>
<path d="M1564.34 1144.79L1524.68 1144.78V1144.28C1524.68 1140.19 1526.31 1136.26 1529.2 1133.37C1532.09 1130.47 1536.02 1128.85 1540.11 1128.85L1547.36 1123.35L1560.88 1128.85L1564.34 1128.85L1564.34 1144.79Z" fill="#2F2E41"/>
<path d="M1555.88 873.504L1635.88 875.504C1651.07 883.757 1651.3 901.618 1646.32 922.825C1646.32 922.825 1648 935.429 1644.64 938.79C1641.28 942.151 1639.6 942.151 1641.28 948.033C1642.96 953.916 1634.08 963.523 1635.16 964.601C1636.24 965.68 1638.76 971.562 1638.76 971.562L1630.36 1019.46C1630.36 1019.46 1624.47 1102.65 1622.79 1104.33C1621.11 1106.01 1619.43 1104.33 1621.11 1108.53C1622.79 1112.73 1624.47 1111.05 1622.79 1112.73C1621.31 1114.34 1619.9 1116.02 1618.59 1117.77H1598.28C1598.28 1117.77 1596.74 1109.37 1596.74 1108.53C1596.74 1107.69 1595.06 1102.65 1595.06 1101.81C1595.06 1100.97 1596.55 1099.48 1596.55 1099.48C1597.06 1097.77 1597.41 1096.02 1597.59 1094.25C1597.59 1092.56 1602.63 1027.86 1602.63 1027.86L1592.54 943.832L1568.17 1026.18C1568.17 1026.18 1568.17 1098.45 1566.49 1100.13C1564.81 1101.81 1564.81 1100.97 1565.65 1104.33C1566.49 1107.69 1569.86 1106.85 1567.33 1109.37C1564.81 1111.89 1563.97 1107.69 1564.81 1111.89L1565.65 1116.09L1540.44 1116.45C1540.44 1116.45 1537.08 1109.37 1538.76 1106.85C1540.44 1104.33 1540.34 1105.02 1538.29 1100.89C1536.24 1096.77 1535.4 1095.93 1536.24 1095.09C1537.08 1094.25 1537.08 1089.78 1537.08 1089.78L1541.29 1009.38C1541.29 1009.38 1542.13 924.505 1542.13 921.984C1542.19 920.687 1541.95 919.393 1541.43 918.204V914.782L1544.65 902.657L1555.88 873.504Z" fill="#2F2E41"/>
<path d="M1603.93 707.157C1617.66 707.157 1628.79 696.028 1628.79 682.3C1628.79 668.573 1617.66 657.444 1603.93 657.444C1590.21 657.444 1579.08 668.573 1579.08 682.3C1579.08 696.028 1590.21 707.157 1603.93 707.157Z" fill="#FFB6B6"/>
<path d="M1591.51 723.585C1586.15 726.769 1582.95 732.618 1581.11 738.57C1577.7 749.59 1575.65 760.984 1575.01 772.499L1573.06 806.975L1549.01 880.382C1569.86 898.022 1648.22 884.391 1648.22 884.391C1648.22 884.391 1650.62 883.59 1648.22 881.184C1645.81 878.779 1643.47 880.91 1645.88 878.504C1648.28 876.099 1646.62 878.779 1645.82 876.373C1645.02 873.968 1645.82 875.571 1646.62 874.77C1647.43 873.968 1640.42 866.751 1640.42 866.751L1646.83 824.615L1654.85 739.622C1645.23 727.594 1625.88 720.504 1625.88 720.504L1620.88 711.504L1595.88 713.504L1591.51 723.585Z" fill="#E6E6E6"/>
<path d="M1588.1 667.713C1589.06 667.72 1590.01 667.846 1590.95 668.087C1592.78 668.528 1594.65 668.841 1596.53 669.022C1602.28 669.564 1607.69 672.018 1611.88 675.993C1616.08 679.967 1618.82 685.234 1619.67 690.95C1621.12 689.691 1624.4 687.374 1627.1 689.527C1627.14 689.561 1627.16 689.579 1627.26 689.534C1629.05 688.685 1632.22 678.239 1632.32 669.041C1632.37 664.16 1631.6 657.926 1627.65 655.952L1627.44 655.848L1627.39 655.621C1627.13 654.523 1624.18 652.649 1619.06 651.19C1609.75 648.538 1595.87 643.374 1588.06 650.975C1587.47 653.537 1585.54 659.021 1583.6 659.642C1581.45 660.33 1579.59 660.924 1579.3 663.564C1579.05 667.32 1579.07 671.089 1579.35 674.843C1580.08 672.546 1581.51 670.536 1583.44 669.095C1584.82 668.17 1586.44 667.688 1588.1 667.713Z" fill="#2F2E41"/>
<path d="M1541.83 805.055L1582.43 779.052L1561.98 751.867L1541.79 776.707L1478.87 780.566C1477.22 778.93 1475.12 777.811 1472.84 777.345C1470.56 776.879 1468.2 777.087 1466.03 777.943C1463.87 778.799 1462 780.266 1460.65 782.165C1459.31 784.064 1458.55 786.313 1458.46 788.638C1458.37 790.964 1458.96 793.265 1460.16 795.26C1461.35 797.256 1463.11 798.86 1465.2 799.878C1467.29 800.895 1469.63 801.282 1471.94 800.99C1474.25 800.699 1476.43 799.742 1478.2 798.236L1541.83 805.055Z" fill="#FFB6B6"/>
<path d="M1620.12 742.757C1622.48 757.018 1577.97 784.252 1577.97 784.252C1577.97 780.905 1551.41 806.175 1550.21 803.399C1546.81 795.509 1544.41 776.82 1539.65 773.829C1536.93 772.118 1556.05 756.048 1556.05 756.048C1556.05 756.048 1566.06 745.964 1579.19 733.245C1582.84 729.58 1587.35 726.898 1592.32 725.447C1597.28 723.997 1602.53 723.825 1607.57 724.949C1607.57 724.949 1617.76 728.495 1620.12 742.757Z" fill="#E6E6E6"/>
<path d="M1703.81 811.881L1676.95 771.838L1650.21 792.859L1675.47 812.522L1680.66 875.345C1679.06 877.034 1677.98 879.153 1677.57 881.442C1677.15 883.731 1677.41 886.092 1678.31 888.238C1679.21 890.383 1680.71 892.22 1682.64 893.524C1684.57 894.828 1686.83 895.543 1689.16 895.582C1691.49 895.621 1693.77 894.982 1695.74 893.744C1697.71 892.505 1699.28 890.72 1700.25 888.606C1701.23 886.492 1701.56 884.141 1701.22 881.839C1700.88 879.537 1699.88 877.384 1698.34 875.642L1703.81 811.881Z" fill="#FFB6B6"/>
<path d="M1639.87 734.929C1654.07 732.271 1682.24 776.187 1682.24 776.187C1678.9 776.259 1704.73 802.279 1701.98 803.536C1694.16 807.11 1675.53 809.901 1672.64 814.724C1670.98 817.483 1654.51 798.705 1654.51 798.705C1654.51 798.705 1644.22 788.911 1631.22 776.048C1627.48 772.48 1624.7 768.023 1623.15 763.092C1621.59 758.162 1621.31 752.917 1622.33 747.848C1622.33 747.848 1625.66 737.587 1639.87 734.929Z" fill="#E6E6E6"/>
<path d="M1710.67 1144.98C1710.67 1145.14 1710.64 1145.29 1710.58 1145.44C1710.52 1145.58 1710.43 1145.71 1710.32 1145.83C1710.21 1145.94 1710.08 1146.02 1709.94 1146.08C1709.79 1146.14 1709.64 1146.17 1709.48 1146.17H1429.19C1428.87 1146.17 1428.57 1146.05 1428.35 1145.82C1428.13 1145.6 1428 1145.3 1428 1144.98C1428 1144.67 1428.13 1144.36 1428.35 1144.14C1428.57 1143.92 1428.87 1143.79 1429.19 1143.79H1709.48C1709.64 1143.79 1709.79 1143.82 1709.94 1143.88C1710.08 1143.94 1710.21 1144.03 1710.32 1144.14C1710.43 1144.25 1710.52 1144.38 1710.58 1144.53C1710.64 1144.67 1710.67 1144.83 1710.67 1144.98Z" fill="#CCCCCC"/>
</g>
<path d="M1149.35 1442.98C1074.71 1497.29 987.341 1528.49 904.288 1530.5C903.879 1530.51 903.526 1530.37 903.305 1530.1C903.084 1529.84 903.014 1529.47 903.11 1529.08C903.206 1528.7 903.461 1528.32 903.817 1528.04C904.174 1527.76 904.604 1527.6 905.013 1527.58C987.301 1525.59 1073.86 1494.67 1147.82 1440.87C1251.66 1365.42 1317.27 1256.45 1323.32 1149.37C1323.33 1149.18 1323.38 1148.98 1323.47 1148.8C1323.56 1148.61 1323.69 1148.43 1323.84 1148.27C1324 1148.11 1324.18 1147.97 1324.37 1147.86C1324.57 1147.75 1324.78 1147.67 1324.99 1147.63C1325.2 1147.6 1325.4 1147.59 1325.59 1147.63C1325.78 1147.67 1325.94 1147.74 1326.08 1147.84C1326.22 1147.95 1326.33 1148.08 1326.4 1148.24C1326.47 1148.4 1326.5 1148.58 1326.49 1148.77C1323.58 1201.52 1305.78 1256.24 1274.78 1307.73C1243.78 1359.22 1200.6 1405.78 1149.35 1442.98Z" fill="#6C63FF"/>
<path d="M1142.1 217.414C1210.74 274.956 1264.6 345.149 1293.18 414.299C1293.32 414.639 1293.31 414.947 1293.17 415.154C1293.02 415.362 1292.74 415.452 1292.4 415.406C1292.05 415.36 1291.66 415.18 1291.32 414.907C1290.97 414.634 1290.7 414.289 1290.56 413.949C1262.24 345.437 1208.87 275.891 1140.87 218.879C1045.47 138.81 935.032 93.5954 845.461 97.9308C845.304 97.9388 845.129 97.9131 844.946 97.8553C844.763 97.7974 844.575 97.7085 844.393 97.5937C844.212 97.4788 844.04 97.3401 843.888 97.1857C843.735 97.0313 843.606 96.8642 843.506 96.6939C843.406 96.5236 843.339 96.3534 843.307 96.1931C843.275 96.0329 843.279 95.8858 843.32 95.7601C843.361 95.6344 843.437 95.5327 843.545 95.4607C843.652 95.3888 843.788 95.3481 843.946 95.3408C888.051 93.1458 938.589 103.207 990.769 124.571C1042.95 145.935 1095.04 177.892 1142.1 217.414Z" fill="#6C63FF"/>
<defs>
<clipPath id="clip0_136_2486">
<rect width="821.676" height="579.01" fill="white"/>
</clipPath>
<clipPath id="clip1_136_2486">
<rect width="855.157" height="581.907" fill="white" transform="translate(51 993)"/>
</clipPath>
<clipPath id="clip2_136_2486">
<rect width="768" height="728.858" fill="white" transform="translate(959 418)"/>
</clipPath>
</defs>
</svg>
