<svg width="822" height="602" viewBox="0 0 822 602" fill="none" xmlns="http://www.w3.org/2000/svg">
<g clip-path="url(#clip0_136_2487)">
<path d="M800.344 584.002L792.2 586.607L778.279 556.436L790.298 552.591L800.344 584.002Z" fill="#FFB6B6"/>
<path d="M804.945 591.232L778.687 599.63L778.581 599.298C777.714 596.587 777.96 593.643 779.263 591.114C780.567 588.584 782.822 586.676 785.532 585.808L789.165 580.635L799.278 581.412L801.57 580.679L804.945 591.232Z" fill="#2F2E41"/>
<path d="M723.134 592.124H714.584L710.517 559.146H723.135L723.134 592.124Z" fill="#FFB6B6"/>
<path d="M725.314 600.412L697.746 600.411V600.062C697.746 597.217 698.877 594.487 700.889 592.475C702.901 590.463 705.631 589.332 708.476 589.332L713.513 585.512L722.908 589.333L725.315 589.333L725.314 600.412Z" fill="#2F2E41"/>
<path d="M682.298 251.324C681.657 252.123 681.199 253.054 680.956 254.05C680.713 255.047 680.692 256.084 680.893 257.089C681.095 258.094 681.514 259.043 682.122 259.869C682.73 260.694 683.512 261.377 684.412 261.868L680.311 286.45L692.148 281.197L694.228 258.658C694.952 257.091 695.077 255.313 694.578 253.661C694.079 252.008 692.991 250.596 691.521 249.692C690.05 248.788 688.299 248.455 686.599 248.755C684.9 249.056 683.369 249.97 682.298 251.324Z" fill="#FFB6B6"/>
<path d="M790.222 455.247C790.222 455.247 792.217 429.277 785.149 424.454C778.081 419.631 719.809 417.203 719.809 417.203L716.191 421.962C716.191 421.962 715.863 424.184 710.375 442.288L708.14 543.341C707.918 553.193 706.2 565.571 710.315 568.101L712.315 578.101H723.315L729.392 561.289C732.011 557.059 733.127 552.069 732.559 547.126L735.877 532.284C735.645 532.05 735.482 531.757 735.405 531.437C735.03 529.226 735.527 526.955 736.792 525.102C737.085 524.669 737.408 524.257 737.759 523.869L749.916 469.487L766.315 533.101L776.436 555.697C775.441 558.066 776.102 560.212 777.916 562.203C777.242 564.055 780.155 565.356 781.405 567.751L785.315 575.101L796.315 569.101L797.315 563.101C797.981 561.322 796.19 560.143 794.87 556.447C797.333 553.832 797.199 551.285 794.825 548.797L790.667 530.866L790.619 522.646L790.567 513.86L790.222 455.247Z" fill="#2F2E41"/>
<path d="M744.229 300.854C754.783 300.854 763.338 292.298 763.338 281.745C763.338 271.191 754.783 262.636 744.229 262.636C733.676 262.636 725.12 271.191 725.12 281.745C725.12 292.298 733.676 300.854 744.229 300.854Z" fill="#FFB6B6"/>
<path d="M763.454 284.736L763.138 284.105C762.65 283.129 758.61 275.015 758.102 272.929L753.017 273.527L739.775 273.529L741.615 270.769L736.75 271.404C734.972 271.62 733.272 272.261 731.793 273.272C730.886 273.875 730.119 274.666 729.545 275.591C727.807 278.566 725.152 283.434 725.125 283.483L724.871 283.948L722.665 280.237C722.636 280.093 719.902 265.832 729.052 260.996C730.357 258.448 732.375 256.335 734.861 254.916C737.347 253.497 740.193 252.834 743.05 253.007C744.095 251.816 745.567 251.084 747.147 250.97C749.318 250.857 751.571 251.997 753.834 254.373C756.839 257.529 760.956 261.851 763.446 266.65L764.132 267.63C765.108 269.032 765.591 270.719 765.507 272.425C766.035 275.148 765.847 277.962 764.961 280.591L763.454 284.736Z" fill="#2F2E41"/>
<path d="M790.133 318.109L769.363 312.293L758.789 304.449L738.018 307.763L737.928 307.88C734.291 312.604 728.685 317.271 722.726 317.457C721.193 317.507 719.67 317.726 718.184 318.109L716.19 354.569V387.168C716.502 387.272 716.781 387.456 717.001 387.7C717.22 387.944 717.374 388.24 717.446 388.561C718.031 391.884 717.976 395.288 717.283 398.591C717.037 399.743 716.671 400.865 716.19 401.94C716.77 403.14 717.071 404.456 717.071 405.789C717.071 407.121 716.77 408.437 716.19 409.637C714.415 411.329 714.644 413.174 716.19 415.117V421.962C749.903 450.09 785.061 426.005 785.061 426.005L783.933 372.464L790.133 318.109Z" fill="#3F3D56"/>
<path d="M722.843 323.117L718.185 318.109L692.512 315.201L694.921 275.771L680.924 265.785L674.585 300.002C672.406 301.888 672.001 303.745 673.554 305.571C671.808 309.061 671.36 311.899 671.953 314.213L670.641 321.296L718.144 354.569L722.843 323.117Z" fill="#3F3D56"/>
<path d="M786.343 452.048C785.791 451.184 785.434 450.21 785.299 449.194C785.163 448.177 785.252 447.144 785.56 446.165C785.867 445.187 786.385 444.288 787.077 443.532C787.77 442.776 788.619 442.181 789.566 441.788L788.103 416.909L799.315 423.391L798.986 446.024C799.539 447.659 799.474 449.44 798.802 451.03C798.13 452.62 796.899 453.908 795.34 454.651C793.782 455.393 792.005 455.539 790.347 455.059C788.689 454.579 787.264 453.508 786.343 452.048Z" fill="#FFB6B6"/>
<path d="M782.33 324.331L790.133 318.109C790.133 318.109 798.112 322.51 800.54 330.401C802.968 338.292 807.217 383.211 807.217 383.211L807.872 399.936C808.712 402.589 808.492 404.955 806.492 406.841C809.498 409.951 809.05 412.541 804.943 414.581L800.684 440.877L787.315 438.101L789.007 386.246L778.081 352.861L782.33 324.331Z" fill="#3F3D56"/>
<path d="M248.315 118.343H245.579V43.3841C245.579 37.6869 244.457 32.0454 242.276 26.7818C240.096 21.5182 236.9 16.7355 232.872 12.7069C228.843 8.67835 224.061 5.48269 218.797 3.30243C213.533 1.12217 207.892 3.93975e-06 202.195 0H43.3842C31.878 -2.38694e-05 20.8431 4.57077 12.707 12.7068C4.57086 20.8429 2.65216e-05 31.8778 0 43.384V454.614C-5.30433e-06 466.12 4.57079 477.155 12.7069 485.291C20.843 493.427 31.8779 497.998 43.3841 497.998H202.194C207.892 497.998 213.533 496.876 218.797 494.696C224.06 492.515 228.843 489.32 232.872 485.291C236.9 481.263 240.096 476.48 242.276 471.216C244.456 465.953 245.579 460.311 245.579 454.614V171.7H248.315V118.343Z" fill="#3F3D56"/>
<path d="M203.945 11.2872H183.215C184.168 13.6244 184.532 16.1602 184.274 18.6712C184.017 21.1822 183.146 23.5913 181.738 25.6863C180.33 27.7813 178.428 29.498 176.2 30.685C173.973 31.872 171.487 32.4929 168.963 32.4931H77.9828C75.4586 32.4929 72.9732 31.872 70.7455 30.685C68.5179 29.498 66.6163 27.7814 65.2083 25.6863C63.8004 23.5913 62.9293 21.1822 62.6717 18.6712C62.4141 16.1602 62.7781 13.6243 63.7314 11.2871H44.3695C35.7768 11.2871 27.5361 14.7005 21.4601 20.7765C15.3842 26.8524 11.9707 35.0932 11.9707 43.6858V454.312C11.9707 458.567 12.8087 462.78 14.4369 466.711C16.0651 470.642 18.4516 474.213 21.4601 477.222C24.4686 480.23 28.0402 482.617 31.971 484.245C35.9018 485.873 40.1148 486.711 44.3694 486.711H203.945C208.199 486.711 212.412 485.873 216.343 484.245C220.274 482.617 223.846 480.23 226.854 477.222C229.863 474.213 232.249 470.642 233.877 466.711C235.505 462.78 236.343 458.567 236.343 454.312V43.6859C236.343 39.4312 235.505 35.2182 233.877 31.2874C232.249 27.3566 229.863 23.785 226.854 20.7765C223.846 17.768 220.274 15.3815 216.343 13.7534C212.412 12.1252 208.199 11.2872 203.945 11.2872Z" fill="white"/>
<path d="M202.41 165.082C202.422 174.41 200.758 183.664 197.499 192.404C196.019 196.407 194.204 200.278 192.072 203.975C185.219 215.934 175.329 225.871 163.404 232.781C151.478 239.692 137.94 243.331 124.157 243.331C110.374 243.331 96.8351 239.692 84.9097 232.781C72.9843 225.871 63.095 215.934 56.2418 203.975C55.548 202.773 54.8901 201.552 54.2681 200.313C48.9488 189.762 46.0881 178.142 45.9005 166.327C45.7129 154.512 48.2034 142.807 53.1852 132.092C58.1669 121.377 65.5105 111.928 74.665 104.456C83.8195 96.9844 94.5473 91.6825 106.043 88.9484C117.54 86.2144 129.506 86.1192 141.044 88.6701C152.582 91.2209 163.393 96.3514 172.665 103.677C181.937 111.002 189.43 120.332 194.582 130.967C199.733 141.602 202.41 153.265 202.41 165.082Z" fill="#F1F1F1"/>
<path d="M128.226 178.293C136.488 178.293 143.186 171.595 143.186 163.332C143.186 155.07 136.488 148.372 128.226 148.372C119.964 148.372 113.266 155.07 113.266 163.332C113.266 171.595 119.964 178.293 128.226 178.293Z" fill="#FF6582"/>
<path d="M54.2686 200.313C60.86 193.19 69.6717 181.881 77.9361 190.052C82.0837 193.907 88.5749 203.459 94.7886 197.214L143.311 148.692C144.224 147.79 145.309 147.08 146.501 146.603C147.693 146.126 148.968 145.893 150.251 145.916C151.535 145.939 152.8 146.218 153.974 146.737C155.148 147.256 156.207 148.005 157.087 148.939L197.499 192.404C196.019 196.407 194.204 200.278 192.072 203.975H56.2422L54.2686 200.313Z" fill="#6C63FF"/>
<path d="M160.875 323.99C160.339 323.991 159.826 324.205 159.448 324.584C159.07 324.963 158.857 325.476 158.857 326.012C158.857 326.547 159.07 327.061 159.448 327.44C159.826 327.819 160.339 328.032 160.875 328.033H182.089C182.625 328.033 183.139 327.82 183.518 327.441C183.897 327.062 184.11 326.548 184.11 326.012C184.11 325.475 183.897 324.961 183.518 324.582C183.139 324.203 182.625 323.99 182.089 323.99H160.875Z" fill="#6C63FF"/>
<path d="M65.298 294.297C64.7618 294.297 64.2476 294.51 63.8685 294.889C63.4894 295.268 63.2764 295.782 63.2764 296.318C63.2764 296.854 63.4894 297.369 63.8685 297.748C64.2476 298.127 64.7618 298.34 65.298 298.34H183.016C183.552 298.34 184.066 298.127 184.445 297.748C184.825 297.369 185.038 296.854 185.038 296.318C185.038 295.782 184.825 295.268 184.445 294.889C184.066 294.51 183.552 294.297 183.016 294.297H65.298Z" fill="#E5E5E5"/>
<path d="M65.2984 309.143C64.763 309.144 64.2499 309.358 63.8718 309.737C63.4936 310.116 63.2812 310.629 63.2812 311.165C63.2812 311.7 63.4936 312.214 63.8718 312.593C64.2499 312.972 64.763 313.185 65.2984 313.186H183.016C183.282 313.187 183.546 313.135 183.791 313.034C184.037 312.933 184.261 312.784 184.449 312.596C184.637 312.408 184.786 312.185 184.888 311.94C184.99 311.694 185.042 311.431 185.042 311.165C185.042 310.899 184.99 310.636 184.888 310.39C184.786 310.145 184.637 309.922 184.449 309.734C184.261 309.546 184.037 309.397 183.791 309.296C183.546 309.194 183.282 309.143 183.016 309.143H65.2984Z" fill="#E5E5E5"/>
<path d="M160.874 419.257C160.338 419.257 159.824 419.47 159.445 419.849C159.066 420.228 158.853 420.742 158.853 421.278C158.853 421.814 159.066 422.329 159.445 422.708C159.824 423.087 160.338 423.3 160.874 423.3H182.088C182.624 423.3 183.139 423.087 183.518 422.708C183.897 422.329 184.11 421.814 184.11 421.278C184.11 420.742 183.897 420.228 183.518 419.849C183.139 419.47 182.624 419.257 182.088 419.257H160.874Z" fill="#6C63FF"/>
<path d="M65.298 389.563C64.7618 389.563 64.2476 389.776 63.8685 390.155C63.4894 390.534 63.2764 391.048 63.2764 391.585C63.2764 392.121 63.4894 392.635 63.8685 393.014C64.2476 393.393 64.7618 393.606 65.298 393.606H183.016C183.282 393.607 183.545 393.555 183.791 393.454C184.037 393.352 184.26 393.203 184.448 393.016C184.637 392.828 184.786 392.605 184.888 392.359C184.99 392.114 185.042 391.85 185.042 391.585C185.042 391.319 184.99 391.056 184.888 390.81C184.786 390.564 184.637 390.341 184.448 390.154C184.26 389.966 184.037 389.817 183.791 389.716C183.545 389.614 183.282 389.562 183.016 389.563H65.298Z" fill="#E5E5E5"/>
<path d="M65.298 404.41C64.7618 404.41 64.2476 404.623 63.8685 405.002C63.4894 405.381 63.2764 405.895 63.2764 406.431C63.2764 406.968 63.4894 407.482 63.8685 407.861C64.2476 408.24 64.7618 408.453 65.298 408.453H183.016C183.552 408.453 184.066 408.24 184.445 407.861C184.825 407.482 185.038 406.968 185.038 406.431C185.038 405.895 184.825 405.381 184.445 405.002C184.066 404.623 183.552 404.41 183.016 404.41H65.298Z" fill="#E5E5E5"/>
<path d="M671.08 227.887L654.927 220.583C654.847 222.74 654.237 224.844 653.151 226.71C652.066 228.576 650.538 230.146 648.703 231.283C646.868 232.419 644.782 233.087 642.628 233.227C640.474 233.367 638.318 232.975 636.351 232.086L565.46 200.031C563.493 199.141 561.775 197.782 560.458 196.072C559.14 194.362 558.263 192.355 557.904 190.226C557.546 188.098 557.716 185.913 558.4 183.866C559.084 181.819 560.261 179.971 561.827 178.486L546.74 171.664C540.045 168.637 532.421 168.393 525.546 170.987C518.671 173.58 513.108 178.799 510.08 185.494L365.405 505.451C363.906 508.766 363.075 512.344 362.958 515.981C362.842 519.617 363.443 523.241 364.728 526.645C366.012 530.05 367.954 533.167 370.443 535.821C372.932 538.475 375.92 540.612 379.235 542.111L503.575 598.334C510.27 601.361 517.894 601.605 524.769 599.011C531.644 596.418 537.207 591.199 540.235 584.504L684.91 264.547C686.409 261.232 687.24 257.654 687.357 254.017C687.473 250.381 686.872 246.757 685.587 243.353C684.303 239.949 682.361 236.831 679.872 234.177C677.383 231.523 674.395 229.386 671.08 227.887Z" fill="#E4E4E4"/>
<path d="M527.177 380.234C516.289 375.289 506.895 367.565 499.938 357.839C492.981 348.113 488.706 336.727 487.544 324.826C487.427 323.646 487.342 322.432 487.292 321.222C486.819 310.61 488.869 300.036 493.276 290.37C497.374 281.318 503.408 273.275 510.954 266.809C518.499 260.343 527.371 255.611 536.944 252.948C546.517 250.285 556.558 249.754 566.359 251.395C576.159 253.035 585.48 256.805 593.665 262.44C601.849 268.076 608.697 275.438 613.726 284.008C618.755 292.578 621.842 302.148 622.77 312.041C623.697 321.934 622.443 331.911 619.095 341.266C615.746 350.622 610.386 359.129 603.392 366.187C600.789 368.823 597.968 371.236 594.96 373.399C585.256 380.386 573.883 384.696 561.984 385.896C550.086 387.096 538.081 385.143 527.177 380.234ZM582.319 258.285C566.386 251.103 548.255 250.535 531.904 256.704C515.552 262.874 502.316 275.277 495.098 291.194C490.821 300.575 488.831 310.837 489.291 321.137C489.339 322.312 489.421 323.487 489.534 324.632C490.644 336.189 494.785 347.249 501.54 356.692C508.295 366.136 517.423 373.628 528.003 378.412C538.582 383.196 550.237 385.102 561.789 383.936C573.341 382.771 584.381 378.576 593.791 371.776C596.709 369.678 599.445 367.337 601.971 364.78C609.459 357.222 615.007 347.965 618.142 337.799C621.278 327.633 621.907 316.859 619.976 306.396C618.046 295.934 613.612 286.094 607.055 277.717C600.498 269.339 592.011 262.672 582.319 258.285Z" fill="white"/>
<path d="M533.874 254.872L532.006 255.588L579.527 379.645L581.395 378.93L533.874 254.872Z" fill="white"/>
<path d="M615.727 293.567L491.666 341.08L492.381 342.947L616.442 295.435L615.727 293.567Z" fill="white"/>
<path d="M554.201 477.161L436.845 424.096C435.975 423.702 435.298 422.978 434.961 422.085C434.624 421.191 434.655 420.2 435.047 419.33L446.087 394.915C446.481 394.045 447.205 393.367 448.098 393.03C448.992 392.693 449.983 392.724 450.854 393.116L568.209 446.181C569.079 446.576 569.757 447.299 570.094 448.193C570.431 449.086 570.4 450.077 570.007 450.948L558.968 475.363C558.573 476.233 557.85 476.911 556.956 477.248C556.063 477.585 555.072 477.554 554.201 477.161ZM450.03 394.939C449.642 394.764 449.201 394.75 448.804 394.9C448.406 395.05 448.085 395.352 447.909 395.739L436.87 420.154C436.695 420.541 436.681 420.982 436.831 421.379C436.981 421.777 437.282 422.099 437.669 422.274L555.025 475.339C555.412 475.514 555.853 475.527 556.251 475.377C556.648 475.227 556.97 474.926 557.145 474.539L568.185 450.124C568.36 449.737 568.374 449.296 568.224 448.898C568.074 448.501 567.772 448.179 567.385 448.004L450.03 394.939Z" fill="white"/>
<path d="M525.772 540.033L408.417 486.968C407.547 486.573 406.869 485.85 406.532 484.956C406.195 484.063 406.226 483.072 406.618 482.201L417.658 457.786C418.053 456.916 418.776 456.239 419.67 455.901C420.563 455.564 421.554 455.595 422.425 455.988L539.781 509.053C540.65 509.447 541.328 510.171 541.665 511.064C542.002 511.958 541.971 512.949 541.579 513.819L530.539 538.234C530.144 539.104 529.421 539.782 528.527 540.119C527.634 540.456 526.643 540.425 525.772 540.033ZM421.601 457.81C421.213 457.636 420.773 457.622 420.375 457.772C419.978 457.922 419.656 458.223 419.481 458.61L408.441 483.025C408.266 483.412 408.252 483.853 408.402 484.251C408.552 484.648 408.854 484.97 409.241 485.145L526.596 538.21C526.984 538.385 527.424 538.399 527.822 538.249C528.219 538.099 528.541 537.797 528.717 537.41L539.756 512.995C539.931 512.608 539.945 512.167 539.795 511.77C539.645 511.372 539.344 511.05 538.957 510.875L421.601 457.81Z" fill="white"/>
<path d="M480.415 380.95C478.002 368.929 472.788 357.646 465.198 348.016C457.483 338.238 448.06 329.938 437.385 323.519C426.354 316.82 414.338 311.893 401.779 308.92C386.169 305.17 370.048 303.948 354.027 304.102C337.89 304.258 321.806 305.769 305.769 307.454C303.73 307.668 301.692 307.884 299.654 308.102C297.755 308.305 297.734 311.307 299.654 311.102C315.455 309.415 331.278 307.757 347.169 307.247C362.93 306.741 378.809 307.361 394.32 310.369C407.238 312.766 419.701 317.172 431.256 323.428C442.018 329.258 451.672 336.936 459.775 346.11C467.713 355.077 473.454 365.769 476.542 377.34C476.916 378.799 477.239 380.269 477.522 381.748C477.885 383.642 480.776 382.84 480.415 380.95Z" fill="#6C63FF"/>
<path d="M310.369 286.634L286.407 312.122C286.248 312.285 286.127 312.483 286.055 312.699C285.982 312.916 285.96 313.146 285.989 313.373C286.018 313.6 286.098 313.817 286.223 314.008C286.348 314.199 286.515 314.36 286.711 314.477L308.329 324.811C310.062 325.64 311.586 323.054 309.843 322.221L288.225 311.887L288.529 314.243L312.491 288.755C313.812 287.349 311.695 285.224 310.369 286.634Z" fill="#6C63FF"/>
<path d="M820.569 601.733H363.275C362.959 601.733 362.656 601.608 362.433 601.384C362.209 601.161 362.084 600.858 362.084 600.542C362.084 600.227 362.209 599.924 362.433 599.7C362.656 599.477 362.959 599.352 363.275 599.352H820.569C820.884 599.352 821.187 599.477 821.411 599.7C821.634 599.924 821.759 600.227 821.759 600.542C821.759 600.858 821.634 601.161 821.411 601.384C821.187 601.608 820.884 601.733 820.569 601.733Z" fill="#CACACA"/>
</g>
<defs>
<clipPath id="clip0_136_2487">
<rect width="821.759" height="601.733" fill="white"/>
</clipPath>
</defs>
</svg>
