<svg width="934" height="528" viewBox="0 0 934 528" fill="none" xmlns="http://www.w3.org/2000/svg">
<g clip-path="url(#clip0_148_113)">
<path d="M809.424 259H206.424C197.675 258.99 189.287 255.51 183.1 249.324C176.914 243.137 173.434 234.749 173.424 226V33C173.434 24.2509 176.914 15.863 183.1 9.67639C189.287 3.48983 197.675 0.00988299 206.424 0H809.424C818.173 0.00988299 826.561 3.48983 832.747 9.67639C838.934 15.863 842.414 24.2509 842.424 33V226C842.414 234.749 838.934 243.137 832.747 249.324C826.561 255.51 818.173 258.99 809.424 259Z" fill="#E6E6E6"/>
<path d="M207.424 13C202.121 13.006 197.038 15.1151 193.288 18.8645C189.539 22.614 187.43 27.6975 187.424 33V226C187.43 231.302 189.539 236.386 193.288 240.135C197.038 243.885 202.121 245.994 207.424 246H810.424C815.726 245.994 820.81 243.885 824.559 240.135C828.309 236.386 830.418 231.302 830.424 226V33C830.418 27.6975 828.309 22.6139 824.559 18.8645C820.81 15.1151 815.726 13.006 810.424 13H207.424Z" fill="white"/>
<path d="M283.067 93.739C278.734 93.739 274.499 92.4542 270.896 90.047C267.294 87.6399 264.486 84.2185 262.828 80.2156C261.17 76.2127 260.736 71.808 261.581 67.5585C262.426 63.309 264.513 59.4056 267.576 56.3419C270.64 53.2782 274.544 51.1918 278.793 50.3465C283.043 49.5012 287.447 49.935 291.45 51.5931C295.453 53.2512 298.874 56.059 301.282 59.6615C303.689 63.2641 304.974 67.4995 304.974 71.8322C304.967 77.6403 302.657 83.2086 298.55 87.3155C294.443 91.4224 288.875 93.7325 283.067 93.739ZM283.067 52.8464C279.312 52.8464 275.641 53.9599 272.519 56.0461C269.397 58.1323 266.963 61.0975 265.526 64.5667C264.089 68.0359 263.713 71.8533 264.446 75.5362C265.178 79.2191 266.987 82.602 269.642 85.2573C272.297 87.9125 275.68 89.7207 279.363 90.4533C283.046 91.1859 286.863 90.8099 290.332 89.3729C293.802 87.9359 296.767 85.5024 298.853 82.3802C300.939 79.258 302.053 75.5873 302.053 71.8323C302.047 66.7987 300.045 61.9729 296.486 58.4136C292.926 54.8543 288.101 52.8522 283.067 52.8464Z" fill="#CCCCCC"/>
<path d="M282.582 66.8606H282.541L280.229 68.1085L279.882 66.7379L282.786 65.1833H284.321V78.4813H282.582V66.8606Z" fill="#CCCCCC"/>
<path d="M253.161 129.105C253.677 129.123 254.186 128.985 254.623 128.709C255.059 128.434 255.403 128.033 255.608 127.56C255.814 127.087 255.873 126.562 255.776 126.055C255.68 125.548 255.433 125.082 255.068 124.717C254.703 124.352 254.237 124.105 253.73 124.009C253.223 123.912 252.698 123.971 252.225 124.177C251.752 124.383 251.351 124.726 251.076 125.162C250.8 125.599 250.662 126.108 250.68 126.624C250.703 127.275 250.971 127.893 251.432 128.353C251.892 128.814 252.51 129.082 253.161 129.105Z" fill="#E6E6E6"/>
<path d="M253.161 145.17C253.677 145.188 254.186 145.05 254.623 144.774C255.059 144.499 255.403 144.098 255.608 143.625C255.814 143.152 255.873 142.627 255.776 142.12C255.68 141.613 255.433 141.147 255.068 140.782C254.703 140.417 254.237 140.17 253.73 140.074C253.223 139.977 252.698 140.036 252.225 140.242C251.752 140.447 251.351 140.791 251.076 141.227C250.8 141.664 250.662 142.173 250.68 142.689C250.703 143.34 250.971 143.958 251.432 144.418C251.892 144.879 252.51 145.147 253.161 145.17Z" fill="#E6E6E6"/>
<path d="M253.161 161.235C253.677 161.253 254.186 161.115 254.623 160.839C255.059 160.564 255.403 160.163 255.608 159.69C255.814 159.216 255.873 158.692 255.776 158.185C255.68 157.678 255.433 157.212 255.068 156.847C254.703 156.482 254.237 156.235 253.73 156.139C253.223 156.042 252.698 156.101 252.225 156.307C251.752 156.512 251.351 156.856 251.076 157.292C250.8 157.729 250.662 158.238 250.68 158.754C250.703 159.405 250.971 160.023 251.432 160.483C251.892 160.944 252.51 161.212 253.161 161.235Z" fill="#E6E6E6"/>
<path d="M313.994 127.996H267.259C266.872 127.996 266.5 127.842 266.227 127.568C265.953 127.294 265.799 126.922 265.799 126.535C265.799 126.148 265.953 125.776 266.227 125.502C266.5 125.229 266.872 125.075 267.259 125.075H313.994C314.381 125.075 314.752 125.229 315.026 125.502C315.3 125.776 315.454 126.148 315.454 126.535C315.454 126.922 315.3 127.294 315.026 127.568C314.752 127.842 314.381 127.996 313.994 127.996Z" fill="#E6E6E6"/>
<path d="M313.993 144.061H267.259C266.872 144.061 266.5 143.907 266.226 143.634C265.952 143.36 265.797 142.989 265.797 142.602C265.796 142.214 265.95 141.843 266.224 141.568C266.497 141.294 266.868 141.14 267.256 141.14H313.993C314.381 141.139 314.752 141.293 315.026 141.566C315.301 141.84 315.455 142.211 315.455 142.599C315.456 142.986 315.302 143.358 315.029 143.632C314.755 143.906 314.384 144.06 313.996 144.061H313.993Z" fill="#E6E6E6"/>
<path d="M313.994 160.125H267.259C266.872 160.125 266.5 159.972 266.227 159.698C265.953 159.424 265.799 159.052 265.799 158.665C265.799 158.278 265.953 157.906 266.227 157.632C266.5 157.358 266.872 157.205 267.259 157.205H313.994C314.185 157.204 314.375 157.242 314.553 157.315C314.73 157.388 314.891 157.496 315.027 157.631C315.162 157.767 315.27 157.928 315.344 158.105C315.417 158.282 315.455 158.472 315.456 158.663C315.456 158.855 315.418 159.045 315.345 159.223C315.272 159.4 315.164 159.561 315.029 159.697C314.893 159.832 314.733 159.94 314.555 160.014C314.378 160.087 314.188 160.125 313.997 160.125H313.994Z" fill="#E6E6E6"/>
<path d="M418.758 90.739C414.425 90.739 410.19 89.4541 406.588 87.047C402.985 84.6398 400.177 81.2185 398.519 77.2156C396.861 73.2126 396.427 68.8079 397.273 64.5585C398.118 60.309 400.204 56.4056 403.268 53.3419C406.332 50.2782 410.235 48.1918 414.484 47.3465C418.734 46.5012 423.139 46.935 427.142 48.5931C431.145 50.2512 434.566 53.059 436.973 56.6615C439.38 60.2641 440.665 64.4995 440.665 68.8323C440.665 71.7091 440.098 74.5578 438.997 77.2156C437.897 79.8735 436.283 82.2884 434.249 84.3227C432.214 86.3569 429.799 87.9705 427.142 89.0714C424.484 90.1724 421.635 90.739 418.758 90.739ZM418.758 49.8464C415.003 49.8464 411.332 50.9599 408.21 53.0461C405.088 55.1323 402.655 58.0975 401.218 61.5667C399.781 65.0359 399.405 68.8533 400.137 72.5362C400.87 76.2191 402.678 79.602 405.333 82.2573C407.988 84.9125 411.371 86.7207 415.054 87.4533C418.737 88.1859 422.555 87.8099 426.024 86.3729C429.493 84.9359 432.458 82.5025 434.544 79.3803C436.631 76.2581 437.744 72.5874 437.744 68.8323C437.738 63.7988 435.736 58.973 432.177 55.4137C428.618 51.8544 423.792 49.8523 418.758 49.8464Z" fill="#CCCCCC"/>
<path d="M414.884 75.594V74.4887L416.294 73.1181C419.692 69.8863 421.226 68.1663 421.246 66.1624C421.282 65.8088 421.239 65.4516 421.118 65.1171C420.998 64.7826 420.804 64.4795 420.551 64.2301C420.297 63.9807 419.991 63.7915 419.655 63.6764C419.319 63.5613 418.961 63.5234 418.608 63.5653C417.565 63.6036 416.568 64.0006 415.784 64.6891L415.21 63.4212C416.267 62.5418 417.601 62.0635 418.976 62.0706C419.505 62.0236 420.038 62.0897 420.539 62.2646C421.04 62.4394 421.499 62.719 421.884 63.0848C422.269 63.4505 422.572 63.894 422.772 64.3858C422.972 64.8776 423.066 65.4064 423.046 65.9371C423.046 68.3916 421.266 70.3769 418.464 73.0767L417.4 74.0594V74.0993H423.374V75.594H414.884Z" fill="#CCCCCC"/>
<path d="M476.759 207.965H360.759C358.373 207.963 356.085 207.014 354.398 205.326C352.711 203.639 351.762 201.351 351.759 198.965V129.965C351.762 127.579 352.711 125.292 354.398 123.604C356.085 121.917 358.373 120.968 360.759 120.965H476.759C479.145 120.968 481.432 121.917 483.12 123.604C484.807 125.292 485.756 127.579 485.759 129.965V198.965C485.756 201.351 484.807 203.639 483.12 205.326C481.432 207.014 479.145 207.963 476.759 207.965Z" fill="white"/>
<path d="M458.19 139.638H379.326C378.939 139.638 378.567 139.485 378.293 139.211C378.019 138.937 377.865 138.566 377.864 138.179C377.864 137.791 378.017 137.42 378.291 137.146C378.565 136.871 378.936 136.717 379.323 136.717H458.19C458.578 136.716 458.949 136.87 459.224 137.143C459.498 137.417 459.652 137.788 459.652 138.176C459.653 138.563 459.499 138.935 459.226 139.209C458.952 139.483 458.581 139.637 458.194 139.638H458.19Z" fill="#E6E6E6"/>
<path d="M458.19 152.782H379.326C378.939 152.782 378.567 152.629 378.293 152.355C378.019 152.081 377.865 151.71 377.864 151.323C377.864 150.936 378.017 150.564 378.291 150.29C378.565 150.015 378.936 149.861 379.323 149.861H458.19C458.578 149.861 458.949 150.015 459.223 150.289C459.497 150.562 459.651 150.934 459.651 151.321C459.651 151.709 459.497 152.08 459.223 152.354C458.949 152.628 458.578 152.782 458.19 152.782Z" fill="#E6E6E6"/>
<path d="M458.19 165.926H379.326C378.939 165.926 378.567 165.773 378.293 165.499C378.019 165.226 377.865 164.854 377.864 164.467C377.864 164.08 378.017 163.708 378.291 163.434C378.565 163.16 378.936 163.005 379.323 163.005H458.19C458.578 163.004 458.949 163.158 459.224 163.432C459.498 163.705 459.652 164.076 459.652 164.464C459.653 164.851 459.499 165.223 459.226 165.497C458.952 165.771 458.581 165.925 458.194 165.926H458.19Z" fill="#E6E6E6"/>
<path d="M458.191 179.07H379.327C378.94 179.069 378.569 178.915 378.296 178.642C378.022 178.368 377.869 177.998 377.868 177.611C377.868 177.224 378.021 176.853 378.294 176.579C378.566 176.305 378.937 176.15 379.324 176.149H458.191C458.577 176.15 458.948 176.304 459.221 176.578C459.494 176.852 459.647 177.223 459.647 177.609C459.647 177.996 459.494 178.367 459.221 178.641C458.948 178.914 458.578 179.069 458.191 179.07Z" fill="#E6E6E6"/>
<path d="M458.191 192.214H379.327C378.939 192.214 378.568 192.06 378.294 191.786C378.02 191.512 377.866 191.141 377.866 190.753C377.866 190.366 378.02 189.995 378.294 189.721C378.568 189.447 378.939 189.293 379.327 189.293H458.191C458.578 189.293 458.95 189.446 459.224 189.72C459.498 189.993 459.652 190.365 459.653 190.752C459.653 191.139 459.5 191.511 459.226 191.785C458.953 192.059 458.581 192.213 458.194 192.214H458.191Z" fill="#E6E6E6"/>
<path d="M476.759 207.965H360.759C358.373 207.963 356.085 207.014 354.398 205.326C352.711 203.639 351.762 201.351 351.759 198.965V129.965C351.762 127.579 352.711 125.292 354.398 123.604C356.085 121.917 358.373 120.968 360.759 120.965H476.759C479.145 120.968 481.432 121.917 483.12 123.604C484.807 125.292 485.756 127.579 485.759 129.965V198.965C485.756 201.351 484.807 203.639 483.12 205.326C481.432 207.014 479.145 207.963 476.759 207.965ZM360.759 122.965C358.903 122.967 357.124 123.706 355.811 125.018C354.499 126.33 353.761 128.109 353.759 129.965V198.965C353.761 200.821 354.499 202.6 355.811 203.913C357.124 205.225 358.903 205.963 360.759 205.965H476.759C478.615 205.963 480.394 205.225 481.706 203.913C483.019 202.6 483.757 200.821 483.759 198.965V129.965C483.757 128.109 483.019 126.33 481.706 125.018C480.394 123.706 478.615 122.967 476.759 122.965H360.759Z" fill="#E6E6E6"/>
<path d="M565.531 90.739C561.198 90.739 556.963 89.4541 553.36 87.047C549.757 84.6398 546.95 81.2185 545.292 77.2156C543.634 73.2126 543.2 68.8079 544.045 64.5585C544.89 60.309 546.977 56.4056 550.04 53.3419C553.104 50.2782 557.008 48.1918 561.257 47.3465C565.506 46.5012 569.911 46.935 573.914 48.5931C577.917 50.2512 581.338 53.059 583.746 56.6615C586.153 60.2641 587.437 64.4995 587.437 68.8323C587.437 74.6423 585.129 80.2144 581.021 84.3227C576.913 88.431 571.341 90.739 565.531 90.739ZM565.531 49.8464C561.776 49.8464 558.105 50.9599 554.983 53.0461C551.861 55.1323 549.427 58.0975 547.99 61.5667C546.553 65.0359 546.177 68.8533 546.91 72.5362C547.642 76.2191 549.45 79.602 552.106 82.2573C554.761 84.9125 558.144 86.7207 561.827 87.4533C565.51 88.1859 569.327 87.8099 572.796 86.3729C576.265 84.9359 579.231 82.5025 581.317 79.3803C583.403 76.2581 584.517 72.5874 584.517 68.8323C584.511 63.7988 582.509 58.973 578.949 55.4137C575.39 51.8544 570.564 49.8523 565.531 49.8464Z" fill="#CCCCCC"/>
<path d="M561.868 73.4144C562.762 73.9427 563.776 74.2316 564.814 74.253C567.127 74.253 567.843 72.7797 567.821 71.6758C567.801 69.8131 566.123 69.0159 564.386 69.0159H563.382V67.6653H564.386C565.695 67.6653 567.352 66.9907 567.352 65.4147C567.352 64.3507 566.676 63.4095 565.019 63.4095C564.066 63.4363 563.141 63.7428 562.361 64.2909L561.89 62.9816C562.924 62.3076 564.133 61.9516 565.367 61.9576C567.986 61.9576 569.172 63.5121 569.172 65.1295C569.158 65.8471 568.911 66.5407 568.468 67.1053C568.025 67.6699 567.41 68.0748 566.716 68.2586V68.3C567.538 68.419 568.29 68.8294 568.835 69.4564C569.379 70.0834 569.68 70.8853 569.683 71.7158C569.683 73.8437 568.026 75.7063 564.835 75.7063C563.623 75.722 562.428 75.4106 561.378 74.805L561.868 73.4144Z" fill="#CCCCCC"/>
<path d="M533.161 188.692C533.677 188.71 534.186 188.573 534.623 188.297C535.059 188.022 535.403 187.621 535.608 187.148C535.814 186.674 535.873 186.15 535.776 185.643C535.68 185.136 535.433 184.669 535.068 184.304C534.703 183.939 534.237 183.693 533.73 183.596C533.223 183.5 532.698 183.559 532.225 183.764C531.752 183.97 531.351 184.314 531.076 184.75C530.8 185.187 530.662 185.696 530.68 186.212C530.703 186.862 530.971 187.48 531.432 187.941C531.892 188.401 532.51 188.67 533.161 188.692Z" fill="#E6E6E6"/>
<path d="M593.994 187.583H547.259C546.872 187.583 546.501 187.429 546.227 187.155C545.953 186.881 545.799 186.51 545.799 186.123C545.799 185.735 545.953 185.364 546.227 185.09C546.501 184.816 546.872 184.662 547.259 184.662H593.994C594.185 184.662 594.375 184.699 594.553 184.773C594.73 184.846 594.891 184.953 595.027 185.089C595.162 185.224 595.27 185.385 595.344 185.562C595.417 185.739 595.455 185.929 595.456 186.121C595.456 186.313 595.418 186.503 595.345 186.68C595.272 186.857 595.164 187.018 595.029 187.154C594.893 187.29 594.733 187.398 594.555 187.471C594.378 187.545 594.188 187.583 593.997 187.583H593.994Z" fill="#E6E6E6"/>
<path d="M606.53 167.965H524.53C522.674 167.963 520.895 167.225 519.583 165.913C518.271 164.6 517.532 162.821 517.53 160.965V127.965C517.532 126.109 518.271 124.33 519.583 123.018C520.895 121.706 522.674 120.967 524.53 120.965H606.53C608.386 120.967 610.165 121.706 611.478 123.018C612.79 124.33 613.528 126.109 613.53 127.965V160.965C613.528 162.821 612.79 164.6 611.478 165.913C610.165 167.225 608.386 167.963 606.53 167.965ZM524.53 122.965C523.205 122.967 521.934 123.494 520.996 124.431C520.059 125.369 519.532 126.64 519.53 127.965V160.965C519.532 162.291 520.059 163.562 520.996 164.499C521.934 165.437 523.205 165.964 524.53 165.965H606.53C607.856 165.964 609.127 165.437 610.064 164.499C611.002 163.562 611.529 162.291 611.53 160.965V127.965C611.529 126.64 611.002 125.369 610.064 124.431C609.127 123.494 607.856 122.967 606.53 122.965H524.53Z" fill="#E6E6E6"/>
<path d="M610.658 123.131L519.712 164.123L520.534 165.946L611.479 124.955L610.658 123.131Z" fill="#E6E6E6"/>
<path d="M520.914 122.623L520.08 124.441L610.522 165.941L611.356 164.123L520.914 122.623Z" fill="#E6E6E6"/>
<path d="M673.903 145.815C673.847 145.698 673.775 145.59 673.69 145.494L662.736 134.54C662.601 134.405 662.44 134.297 662.263 134.223C662.085 134.149 661.895 134.111 661.703 134.111C661.511 134.111 661.321 134.149 661.144 134.222C660.967 134.296 660.805 134.403 660.67 134.539C660.534 134.675 660.426 134.836 660.353 135.013C660.28 135.191 660.242 135.381 660.242 135.573C660.242 135.765 660.28 135.955 660.354 136.132C660.427 136.309 660.535 136.47 660.671 136.606L669.132 145.066H631.765C631.377 145.066 631.006 145.22 630.732 145.494C630.458 145.768 630.304 146.139 630.304 146.526C630.304 146.914 630.458 147.285 630.732 147.559C631.006 147.833 631.377 147.987 631.765 147.987H669.132L661.401 155.717C661.265 155.852 661.157 156.013 661.083 156.191C661.01 156.368 660.972 156.558 660.971 156.75C660.971 156.942 661.009 157.132 661.082 157.31C661.156 157.487 661.263 157.649 661.399 157.784C661.535 157.92 661.696 158.028 661.874 158.101C662.051 158.175 662.241 158.212 662.433 158.212C662.625 158.212 662.815 158.174 662.993 158.1C663.17 158.026 663.331 157.918 663.467 157.782L673.689 147.56L673.69 147.559C673.913 147.332 674.055 147.039 674.093 146.723C674.132 146.407 674.065 146.088 673.903 145.815Z" fill="#CCCCCC"/>
<path d="M767.169 117.109H766.485V98.3595C766.485 96.9344 766.204 95.5232 765.659 94.2066C765.113 92.89 764.314 91.6937 763.306 90.686C762.298 89.6783 761.102 88.879 759.785 88.3336C758.469 87.7883 757.058 87.5076 755.633 87.5076H715.909C714.483 87.5076 713.072 87.7883 711.756 88.3336C710.439 88.879 709.243 89.6783 708.235 90.686C707.227 91.6937 706.428 92.89 705.883 94.2066C705.337 95.5232 705.057 96.9343 705.057 98.3594V201.223C705.057 204.101 706.2 206.861 708.235 208.896C710.27 210.931 713.03 212.074 715.909 212.074H755.633C757.058 212.074 758.469 211.794 759.785 211.248C761.102 210.703 762.298 209.904 763.306 208.896C764.314 207.888 765.113 206.692 765.658 205.375C766.204 204.059 766.484 202.648 766.484 201.223V130.456H767.169V117.109Z" fill="#3F3D56"/>
<path d="M764.175 98.4353V201.147C764.175 203.296 763.321 205.358 761.801 206.878C760.281 208.398 758.22 209.251 756.07 209.251H716.156C714.006 209.251 711.945 208.398 710.425 206.878C708.905 205.358 708.051 203.296 708.051 201.147V98.4353C708.051 96.2859 708.905 94.2245 710.425 92.7046C711.945 91.1847 714.006 90.3309 716.156 90.3308H720.998C720.76 90.9155 720.669 91.5497 720.734 92.1776C720.799 92.8055 721.017 93.4079 721.369 93.9318C721.721 94.4557 722.196 94.885 722.753 95.182C723.31 95.479 723.932 95.6346 724.563 95.6351H747.321C747.952 95.6346 748.573 95.479 749.13 95.182C749.687 94.885 750.163 94.4557 750.515 93.9318C750.867 93.4079 751.085 92.8055 751.15 92.1776C751.214 91.5497 751.124 90.9155 750.886 90.3308H756.07C758.22 90.3309 760.281 91.1847 761.801 92.7046C763.321 94.2245 764.175 96.2859 764.175 98.4353Z" fill="white"/>
<path d="M241.029 217.1C240.615 216.576 240.326 215.965 240.184 215.312C240.042 214.659 240.05 213.983 240.209 213.334C244 197.455 244 180.907 240.208 165.028C240.05 164.379 240.042 163.703 240.184 163.05C240.326 162.398 240.615 161.786 241.03 161.262C241.435 160.746 241.953 160.328 242.544 160.042C243.135 159.756 243.783 159.608 244.44 159.61H284.967C286.003 159.612 287.004 159.981 287.793 160.652C288.581 161.324 289.106 162.253 289.274 163.275C291.917 180.445 291.917 197.918 289.274 215.088C289.106 216.11 288.581 217.039 287.793 217.71C287.004 218.381 286.003 218.751 284.967 218.753H244.44C243.783 218.755 243.135 218.607 242.544 218.321C241.953 218.034 241.435 217.617 241.029 217.1Z" fill="#6C63FF"/>
<path d="M277.147 181.432H255.798C255.002 181.431 254.24 181.114 253.677 180.552C253.115 179.99 252.799 179.227 252.798 178.432V177.158C252.799 176.362 253.115 175.6 253.677 175.037C254.24 174.475 255.002 174.159 255.798 174.158H277.147C277.943 174.159 278.705 174.475 279.268 175.037C279.83 175.6 280.146 176.362 280.147 177.158V178.432C280.146 179.227 279.83 179.99 279.268 180.552C278.705 181.114 277.943 181.431 277.147 181.432Z" fill="white"/>
<path d="M277.147 193.979H255.798C255.002 193.978 254.24 193.662 253.677 193.099C253.115 192.537 252.799 191.774 252.798 190.979V189.705C252.799 188.91 253.115 188.147 253.677 187.585C254.24 187.022 255.002 186.706 255.798 186.705H277.147C277.943 186.706 278.705 187.022 279.268 187.585C279.83 188.147 280.146 188.91 280.147 189.705V190.979C280.146 191.774 279.83 192.537 279.268 193.099C278.705 193.662 277.943 193.978 277.147 193.979Z" fill="white"/>
<path d="M615.857 254.031C613.256 237.139 613.256 219.948 615.857 203.056C616.022 202.05 616.538 201.136 617.314 200.476C618.09 199.815 619.075 199.452 620.094 199.45H659.966C660.612 199.448 661.25 199.593 661.832 199.875C662.413 200.157 662.923 200.568 663.321 201.076C663.729 201.592 664.013 202.193 664.153 202.835C664.293 203.477 664.285 204.143 664.129 204.781C660.399 220.403 660.399 236.684 664.129 252.306C664.285 252.944 664.293 253.61 664.153 254.252C664.014 254.893 663.729 255.495 663.321 256.01C662.923 256.519 662.413 256.93 661.832 257.212C661.25 257.493 660.612 257.639 659.966 257.637H620.094C619.075 257.635 618.09 257.271 617.314 256.611C616.538 255.951 616.022 255.036 615.857 254.031Z" fill="#6C63FF"/>
<path d="M648.424 225.361H627.5C626.705 225.36 625.943 225.044 625.38 224.482C624.818 223.919 624.501 223.157 624.5 222.361V221.189C624.501 220.394 624.818 219.631 625.38 219.069C625.943 218.506 626.705 218.19 627.5 218.189H648.424C649.219 218.19 649.982 218.506 650.544 219.069C651.107 219.631 651.423 220.394 651.424 221.189V222.361C651.423 223.157 651.107 223.919 650.544 224.482C649.982 225.044 649.219 225.36 648.424 225.361Z" fill="white"/>
<path d="M36.8758 365.036C45.2497 350.137 55.8545 336.607 68.322 324.916C69.0721 324.227 70.0425 323.826 71.0605 323.785C72.0785 323.744 73.078 324.065 73.8811 324.692L105.263 349.289C105.773 349.686 106.185 350.194 106.469 350.775C106.753 351.355 106.9 351.993 106.9 352.639C106.903 353.296 106.756 353.945 106.47 354.537C106.184 355.128 105.767 355.647 105.25 356.053C92.6778 366.047 82.6342 378.861 75.9324 393.457C75.6617 394.056 75.2578 394.585 74.7517 395.004C74.2456 395.423 73.6506 395.721 73.0119 395.875C72.3844 396.029 71.7301 396.038 71.0986 395.901C70.4671 395.764 69.8752 395.485 69.3679 395.085L37.9863 370.488C37.1857 369.858 36.6347 368.964 36.4313 367.966C36.228 366.967 36.3855 365.929 36.8758 365.036Z" fill="#CCCCCC"/>
<path d="M80.3825 361.141L63.9146 348.234C63.2892 347.742 62.8841 347.023 62.7884 346.233C62.6927 345.444 62.9142 344.648 63.4042 344.022L64.1271 343.1C64.6184 342.474 65.3378 342.069 66.1274 341.973C66.917 341.878 67.7123 342.099 68.3389 342.589L84.8068 355.497C85.4322 355.988 85.8373 356.708 85.933 357.497C86.0287 358.287 85.8072 359.082 85.3172 359.709L84.5943 360.631C84.103 361.256 83.3836 361.661 82.594 361.757C81.8044 361.853 81.009 361.631 80.3825 361.141Z" fill="white"/>
<path d="M72.7673 370.857L56.2994 357.95C55.6739 357.458 55.2689 356.739 55.1732 355.949C55.0775 355.16 55.2989 354.364 55.7889 353.738L56.5121 352.815C57.0035 352.19 57.7229 351.785 58.5125 351.689C59.3021 351.593 60.0974 351.815 60.7239 352.305L77.1919 365.212C77.8173 365.704 78.2224 366.423 78.3181 367.213C78.4138 368.002 78.1923 368.798 77.7024 369.424L76.9791 370.347C76.4878 370.972 75.7684 371.377 74.9788 371.473C74.1892 371.569 73.3938 371.347 72.7673 370.857Z" fill="white"/>
<path d="M884.857 378.031C882.256 361.139 882.256 343.948 884.857 327.056C885.022 326.05 885.538 325.136 886.314 324.476C887.09 323.815 888.075 323.452 889.094 323.45H928.966C929.612 323.448 930.25 323.593 930.832 323.875C931.413 324.157 931.923 324.568 932.321 325.076C932.729 325.592 933.013 326.193 933.153 326.835C933.293 327.477 933.285 328.143 933.129 328.781C929.399 344.403 929.399 360.684 933.129 376.306C933.285 376.944 933.293 377.61 933.153 378.252C933.014 378.894 932.729 379.495 932.321 380.01C931.923 380.519 931.413 380.93 930.832 381.212C930.25 381.493 929.612 381.639 928.966 381.637H889.094C888.075 381.635 887.09 381.271 886.314 380.611C885.538 379.951 885.022 379.036 884.857 378.031Z" fill="#CCCCCC"/>
<path d="M917.424 349.361H896.5C895.705 349.36 894.943 349.044 894.38 348.482C893.818 347.919 893.501 347.157 893.5 346.361V345.189C893.501 344.394 893.818 343.631 894.38 343.069C894.943 342.506 895.705 342.19 896.5 342.189H917.424C918.219 342.19 918.982 342.506 919.544 343.069C920.107 343.631 920.423 344.394 920.424 345.189V346.361C920.423 347.157 920.107 347.919 919.544 348.482C918.982 349.044 918.219 349.36 917.424 349.361Z" fill="white"/>
<path d="M896.568 331.4C897.757 328.995 897.997 326.23 897.24 323.656C896.483 321.082 894.785 318.887 892.483 317.508C892.018 317.25 891.532 317.033 891.03 316.857L890.209 280.547L875.706 291.227L878.708 324.07C878.172 326.274 878.356 328.592 879.235 330.683C880.114 332.774 881.641 334.528 883.591 335.687C884.714 336.312 885.953 336.697 887.232 336.817C888.511 336.938 889.8 336.793 891.02 336.39C892.239 335.987 893.362 335.335 894.317 334.477C895.272 333.618 896.038 332.57 896.568 331.4Z" fill="#A0616A"/>
<path d="M890.457 315.277L880.061 315.904C878.952 315.932 877.873 315.541 877.039 314.81C876.205 314.078 875.677 313.06 875.559 311.956L866.927 247.01L852.977 207.393C851.799 204.092 851.929 200.466 853.338 197.258C853.993 195.712 854.956 194.316 856.17 193.157C857.383 191.997 858.821 191.098 860.395 190.514C866.748 188.205 873.704 191.861 875.9 198.663L890.087 244.084L894.462 310.417C894.55 311.619 894.174 312.81 893.412 313.744C892.935 314.331 892.308 314.78 891.598 315.042C891.231 315.175 890.847 315.255 890.457 315.277Z" fill="#3F3D56"/>
<path d="M829.849 514.9L817.589 514.899L811.757 467.611L829.851 467.612L829.849 514.9Z" fill="#A0616A"/>
<path d="M832.975 526.784L793.444 526.782V526.282C793.444 524.262 793.842 522.261 794.615 520.394C795.389 518.528 796.522 516.831 797.951 515.403C799.38 513.974 801.076 512.841 802.943 512.067C804.809 511.294 806.81 510.896 808.831 510.896L832.976 510.897L832.975 526.784Z" fill="#2F2E41"/>
<path d="M865.849 514.9L853.589 514.899L847.757 467.611L865.851 467.612L865.849 514.9Z" fill="#A0616A"/>
<path d="M868.975 526.784L829.444 526.782V526.282C829.444 524.262 829.842 522.261 830.615 520.394C831.389 518.528 832.522 516.831 833.951 515.403C835.38 513.974 837.076 512.841 838.943 512.067C840.809 511.294 842.81 510.896 844.831 510.896L868.976 510.897L868.975 526.784Z" fill="#2F2E41"/>
<path d="M874.076 323.792L871.149 497.486C871.139 498.036 871.017 498.578 870.788 499.079C870.56 499.579 870.231 500.027 869.822 500.395C869.412 500.762 868.932 501.042 868.409 501.215C867.887 501.388 867.335 501.452 866.787 501.402L852.441 500.098C851.5 500.012 850.62 499.596 849.956 498.924C849.292 498.251 848.888 497.365 848.815 496.423L840.416 388.078C840.396 387.824 840.28 387.586 840.091 387.415C839.902 387.243 839.655 387.151 839.399 387.156C839.144 387.161 838.901 387.263 838.718 387.442C838.536 387.621 838.43 387.863 838.42 388.118L834.222 498.943C834.183 499.977 833.745 500.956 832.999 501.673C832.254 502.391 831.259 502.792 830.225 502.792H814.839C813.821 502.792 812.84 502.403 812.098 501.705C811.356 501.007 810.909 500.053 810.847 499.036L800.076 322.792L864.076 306.792L874.076 323.792Z" fill="#2F2E41"/>
<path d="M827.655 160.696C841.22 160.696 852.216 149.699 852.216 136.135C852.216 122.57 841.22 111.573 827.655 111.573C814.091 111.573 803.094 122.57 803.094 136.135C803.094 149.699 814.091 160.696 827.655 160.696Z" fill="#A0616A"/>
<path d="M797.885 328.959C797.459 328.548 797.12 328.057 796.885 327.513C796.651 326.97 796.527 326.386 796.521 325.794L794.864 207.352C794.764 201.327 796.577 195.425 800.041 190.494C803.505 185.564 808.444 181.859 814.146 179.91C816.447 169.471 828.694 168.163 835.833 168.319C837.615 168.358 839.361 168.825 840.924 169.682C842.487 170.539 843.82 171.76 844.811 173.242L849.928 180.919L861.209 187.531C866.429 190.578 870.547 195.205 872.968 200.743C875.389 206.282 875.988 212.447 874.679 218.348L872.942 226.247C866.827 254.206 867.409 283.216 874.64 310.907L878.135 324.232C878.317 324.925 878.33 325.653 878.174 326.353C878.018 327.053 877.696 327.706 877.237 328.257C876.777 328.807 876.192 329.24 875.531 329.519C874.87 329.798 874.152 329.915 873.437 329.859L869.378 329.547C868.325 329.467 867.333 329.019 866.577 328.28C865.821 327.542 865.35 326.56 865.246 325.509L864.574 318.792C864.562 318.669 864.504 318.554 864.412 318.471C864.32 318.388 864.2 318.342 864.076 318.342C863.952 318.342 863.833 318.388 863.741 318.471C863.649 318.554 863.591 318.669 863.579 318.792L862.929 325.295C862.819 326.394 862.309 327.413 861.496 328.161C860.683 328.908 859.624 329.33 858.52 329.347L801.089 330.231C801.065 330.231 801.042 330.232 801.018 330.232C799.847 330.234 798.722 329.777 797.885 328.959Z" fill="#3F3D56"/>
<path d="M829.576 150.292C829.677 153.764 832.087 155.773 835.047 157.591C838.006 159.41 841.465 160.198 844.855 160.959C845.31 161.201 845.82 161.321 846.335 161.309C846.85 161.296 847.353 161.151 847.796 160.887C848.239 160.623 848.606 160.25 848.863 159.803C849.119 159.355 849.256 158.85 849.26 158.334L852.368 146.511C853.468 142.734 854.268 138.877 854.761 134.974C855.51 127.465 853.73 119.387 848.489 113.958C843.248 108.529 834.158 106.6 827.878 110.783C820.424 101.263 786.354 122.296 794.758 128.916C796.253 130.094 798.539 128.603 800.437 128.459C802.335 128.315 804.461 128.648 805.667 130.121C807.242 132.045 806.556 134.912 807.205 137.312C807.473 138.157 807.906 138.94 808.479 139.616C809.051 140.293 809.752 140.849 810.541 141.253C811.33 141.657 812.191 141.901 813.074 141.971C813.957 142.041 814.846 141.936 815.688 141.66C817.258 140.887 818.734 139.938 820.088 138.832C821.544 137.862 823.383 137.146 825.022 137.757C827.182 138.563 827.949 141.208 828.144 143.505C828.474 145.796 828.952 148.063 829.576 150.292Z" fill="#2F2E41"/>
<path opacity="0.2" d="M823.84 216.118L819.84 265.118L798.84 316.118L829.84 266.118L823.84 216.118Z" fill="black"/>
<path d="M793.93 335.11C795.076 334.19 796.006 333.029 796.656 331.71C797.305 330.391 797.657 328.946 797.687 327.476C797.718 326.007 797.425 324.548 796.831 323.203C796.237 321.859 795.355 320.661 794.247 319.694L807.626 286.558L789.423 290.234L779.51 321.137C778.009 323.105 777.282 325.555 777.467 328.023C777.652 330.491 778.736 332.806 780.513 334.528C782.291 336.251 784.638 337.261 787.111 337.369C789.584 337.476 792.01 336.672 793.93 335.11Z" fill="#A0616A"/>
<path d="M793.539 320.496L783.235 316.783C782.174 316.394 781.296 315.623 780.775 314.62C780.254 313.617 780.128 312.455 780.42 311.363L797.418 249.144L800.009 192.911C800.087 191.214 800.502 189.549 801.229 188.013C801.957 186.478 802.982 185.102 804.246 183.966C805.509 182.831 806.986 181.957 808.59 181.398C810.195 180.838 811.894 180.602 813.59 180.705C815.286 180.808 816.945 181.247 818.47 181.996C819.994 182.746 821.355 183.791 822.472 185.071C823.59 186.352 824.441 187.841 824.978 189.453C825.514 191.065 825.725 192.768 825.597 194.463L820.969 256.036L799.311 317.754C798.983 318.687 798.357 319.485 797.53 320.027C796.703 320.569 795.721 320.824 794.735 320.754C794.327 320.722 793.924 320.636 793.539 320.496Z" fill="#3F3D56"/>
<path d="M51.3584 500.7L62.3674 506.096L88.4194 466.203L72.1724 458.239L51.3584 500.7Z" fill="#FFB8B8"/>
<path d="M50.3118 495.729L71.9911 506.356C73.8054 507.246 75.4277 508.484 76.7635 510C78.0993 511.516 79.1235 513.281 79.7775 515.192C80.4315 517.104 80.7025 519.126 80.5751 521.143C80.4476 523.159 79.9242 525.131 79.0348 526.945L78.8147 527.394L43.3193 509.995L50.3118 495.729Z" fill="#2F2E41"/>
<path d="M160.452 519.51L172.712 519.509L178.544 472.221L160.45 472.222L160.452 519.51Z" fill="#FFB8B8"/>
<path d="M157.324 511.507L181.468 511.506H181.469C183.49 511.506 185.49 511.904 187.357 512.677C189.224 513.451 190.92 514.584 192.349 516.013C193.778 517.442 194.911 519.138 195.684 521.004C196.458 522.871 196.855 524.872 196.855 526.893V527.393L157.325 527.394L157.324 511.507Z" fill="#2F2E41"/>
<path d="M134.118 193.156C147.682 193.156 158.679 182.16 158.679 168.595C158.679 155.031 147.682 144.034 134.118 144.034C120.553 144.034 109.557 155.031 109.557 168.595C109.557 182.16 120.553 193.156 134.118 193.156Z" fill="#FFB8B8"/>
<path d="M158.575 503.913C157.417 503.911 156.303 503.463 155.467 502.662C154.63 501.86 154.135 500.767 154.085 499.609L144.591 373.248C144.58 372.917 144.46 372.598 144.249 372.343C144.038 372.087 143.749 371.909 143.426 371.835C143.103 371.761 142.765 371.796 142.464 371.935C142.163 372.073 141.917 372.307 141.763 372.601L81.0312 488.543C80.4799 489.583 79.545 490.367 78.4249 490.729C77.3047 491.091 76.0878 491.001 75.0324 490.48L58.1025 482.015C57.0404 481.481 56.2321 480.55 55.8533 479.423C55.4745 478.296 55.5559 477.066 56.0798 475.999L92.3185 402.567L116.321 347.562C125.586 329.313 135.424 319.908 146.398 318.811C157.656 317.687 169.678 325.428 183.159 342.478L183.269 342.617L183.267 342.795L181.267 497.152C181.27 498.273 180.853 499.355 180.098 500.183C179.342 501.011 178.304 501.526 177.187 501.626L159.016 503.892C158.868 503.906 158.721 503.913 158.575 503.913Z" fill="#2F2E41"/>
<path d="M108.195 356.445C109.532 355.62 110.671 354.513 111.533 353.2C112.395 351.887 112.959 350.401 113.185 348.847C113.411 347.293 113.293 345.708 112.84 344.204C112.387 342.701 111.61 341.315 110.564 340.144L114.267 242.288L96.2672 244.531L94.7494 339.731C92.8988 341.619 91.8053 344.121 91.676 346.762C91.5468 349.403 92.3908 352 94.0481 354.06C95.7055 356.12 98.061 357.501 100.668 357.941C103.276 358.38 105.954 357.848 108.195 356.445Z" fill="#FFB8B8"/>
<path d="M119.582 259.589L95.4097 256.842C94.7219 256.764 94.0591 256.538 93.4663 256.181C92.8735 255.823 92.3647 255.342 91.9746 254.771C91.5845 254.199 91.3222 253.55 91.2056 252.867C91.089 252.185 91.1208 251.486 91.2988 250.817L97.5394 227.379C97.959 223.863 99.7561 220.656 102.537 218.462C105.317 216.268 108.854 215.267 112.372 215.677C115.89 216.087 119.101 217.876 121.303 220.65C123.504 223.425 124.515 226.959 124.114 230.478L124.94 254.64C124.963 255.331 124.837 256.02 124.571 256.659C124.304 257.298 123.903 257.871 123.394 258.341C122.886 258.811 122.282 259.165 121.624 259.381C120.966 259.596 120.27 259.667 119.582 259.589Z" fill="#2F2E41"/>
<path d="M223.708 197.989C223.585 198.528 223.505 199.077 223.469 199.629L180.511 224.411L170.07 218.4L158.938 232.972L176.389 245.41C177.799 246.415 179.496 246.935 181.227 246.893C182.958 246.851 184.628 246.248 185.987 245.176L230.284 210.23C232.283 210.97 234.46 211.084 236.525 210.556C238.59 210.029 240.446 208.885 241.846 207.277C243.245 205.669 244.122 203.673 244.359 201.555C244.597 199.437 244.184 197.296 243.175 195.418C242.166 193.54 240.61 192.014 238.712 191.043C236.815 190.071 234.667 189.7 232.553 189.979C230.44 190.258 228.462 191.174 226.882 192.605C225.302 194.035 224.195 195.913 223.708 197.989Z" fill="#FFB8B8"/>
<path d="M179.075 225.585L165.191 243.579C164.796 244.091 164.296 244.512 163.723 244.813C163.151 245.114 162.521 245.288 161.875 245.323C161.229 245.358 160.583 245.254 159.982 245.018C159.38 244.781 158.836 244.417 158.388 243.951L142.67 227.63C140.061 225.595 138.365 222.607 137.956 219.323C137.546 216.04 138.455 212.727 140.485 210.113C142.514 207.499 145.497 205.796 148.78 205.379C152.063 204.961 155.378 205.863 157.997 207.886L177.71 218.909C178.274 219.225 178.764 219.658 179.145 220.18C179.527 220.702 179.792 221.301 179.921 221.934C180.051 222.568 180.042 223.222 179.896 223.852C179.75 224.482 179.47 225.073 179.075 225.585Z" fill="#2F2E41"/>
<path d="M190.401 350.13L163.747 220.301C162.48 214.131 158.871 208.691 153.678 205.126C148.484 201.561 142.111 200.148 135.897 201.183L127.008 202.665C123.92 203.179 120.964 204.297 118.308 205.954C115.652 207.612 113.348 209.776 111.529 212.323C108.637 216.371 106.69 221.015 105.829 225.914C104.969 230.813 105.217 235.842 106.555 240.633L121.268 293.288L110.349 349.7C110.227 350.326 110.257 350.971 110.435 351.583C110.614 352.195 110.936 352.756 111.375 353.218C111.814 353.68 112.358 354.03 112.96 354.239C113.562 354.448 114.205 354.511 114.836 354.42C120.302 353.638 129.313 352.522 139.661 351.914L145.268 330.288L147.548 351.57C160.261 351.215 174.06 351.837 185.445 354.795C186.103 354.971 186.796 354.976 187.457 354.809C188.118 354.643 188.725 354.31 189.222 353.843C189.718 353.376 190.087 352.789 190.293 352.14C190.5 351.49 190.537 350.798 190.401 350.13Z" fill="#6C63FF"/>
<path d="M162.403 147.859C160.937 139.332 154.092 132.264 145.938 129.372C137.785 126.48 128.59 127.421 120.605 130.751C112.083 134.216 105.028 140.533 100.645 148.622C99.6062 148.158 98.6075 147.608 97.6592 146.979C92.9307 143.832 89.0937 139.35 83.978 136.883C74.9585 132.533 64.0542 135.425 55.2764 140.243C46.4985 145.061 38.7173 151.718 29.4448 155.499C20.1728 159.28 8.34131 159.467 1.32031 152.328C-0.40754 157.333 -0.548834 162.75 0.915691 167.839C2.38022 172.929 5.37923 177.442 9.50355 180.764C13.6279 184.085 18.6766 186.054 23.9609 186.4C29.2452 186.746 34.5077 185.454 39.0303 182.699C49.1895 176.511 54.8013 163.535 66.1963 160.12C72.5015 158.23 79.2725 159.752 85.6455 161.401C89.3996 162.48 93.2305 163.273 97.105 163.771C97.1504 170.763 99.7842 177.492 104.498 182.657C112.362 190.935 124.704 193.142 136.121 193.008L136.359 192.765C132.864 187.533 130.105 180.277 133.954 175.299C137.753 170.385 145.246 171.109 151.064 168.934C159.168 165.906 163.869 156.385 162.403 147.859Z" fill="#2F2E41"/>
<path d="M205.916 528H35.916C35.6508 528 35.3964 527.895 35.2089 527.707C35.0214 527.52 34.916 527.265 34.916 527C34.916 526.735 35.0214 526.48 35.2089 526.293C35.3964 526.105 35.6508 526 35.916 526H205.916C206.181 526 206.436 526.105 206.623 526.293C206.811 526.48 206.916 526.735 206.916 527C206.916 527.265 206.811 527.52 206.623 527.707C206.436 527.895 206.181 528 205.916 528Z" fill="#CCCCCC"/>
<path d="M908.916 528H738.916C738.651 528 738.396 527.895 738.209 527.707C738.021 527.52 737.916 527.265 737.916 527C737.916 526.735 738.021 526.48 738.209 526.293C738.396 526.105 738.651 526 738.916 526H908.916C909.181 526 909.436 526.105 909.623 526.293C909.811 526.48 909.916 526.735 909.916 527C909.916 527.265 909.811 527.52 909.623 527.707C909.436 527.895 909.181 528 908.916 528Z" fill="#CCCCCC"/>
</g>
<defs>
<clipPath id="clip0_148_113">
<rect width="933.251" height="528" fill="white"/>
</clipPath>
</defs>
</svg>
