<svg width="687" height="694" viewBox="0 0 687 694" fill="none" xmlns="http://www.w3.org/2000/svg">
<g clip-path="url(#clip0_384_538)">
<path d="M248.315 210.343H245.579V135.384C245.579 129.687 244.457 124.045 242.276 118.782C240.096 113.518 236.9 108.736 232.872 104.707C228.843 100.678 224.061 97.4827 218.797 95.3024C213.533 93.1222 207.892 92 202.195 92H43.3842C31.878 92 20.8431 96.5708 12.707 104.707C4.57086 112.843 2.65216e-05 123.878 0 135.384V546.614C-5.30433e-06 558.12 4.57079 569.155 12.7069 577.291C20.843 585.427 31.8779 589.998 43.3841 589.998H202.194C207.892 589.998 213.533 588.876 218.797 586.696C224.06 584.515 228.843 581.32 232.872 577.291C236.9 573.263 240.096 568.48 242.276 563.216C244.456 557.953 245.579 552.311 245.579 546.614V263.7H248.315V210.343Z" fill="#3F3D56"/>
<path d="M203.945 103.287H183.215C184.168 105.624 184.532 108.16 184.274 110.671C184.017 113.182 183.146 115.591 181.738 117.686C180.33 119.781 178.428 121.498 176.2 122.685C173.973 123.872 171.487 124.493 168.963 124.493H77.9828C75.4586 124.493 72.9732 123.872 70.7455 122.685C68.5179 121.498 66.6163 119.781 65.2083 117.686C63.8004 115.591 62.9293 113.182 62.6717 110.671C62.4141 108.16 62.7781 105.624 63.7314 103.287H44.3695C35.7768 103.287 27.5361 106.701 21.4601 112.776C15.3842 118.852 11.9707 127.093 11.9707 135.686V546.312C11.9707 550.567 12.8087 554.78 14.4369 558.711C16.0651 562.642 18.4516 566.213 21.4601 569.222C24.4686 572.23 28.0402 574.617 31.971 576.245C35.9018 577.873 40.1148 578.711 44.3694 578.711H203.945C208.199 578.711 212.412 577.873 216.343 576.245C220.274 574.617 223.846 572.23 226.854 569.222C229.863 566.213 232.249 562.642 233.877 558.711C235.505 554.78 236.343 550.567 236.343 546.312V135.686C236.343 131.431 235.505 127.218 233.877 123.287C232.249 119.357 229.863 115.785 226.854 112.777C223.846 109.768 220.274 107.382 216.343 105.753C212.412 104.125 208.199 103.287 203.945 103.287Z" fill="white"/>
<path d="M202.41 257.082C202.422 266.41 200.758 275.664 197.499 284.404C196.019 288.407 194.204 292.278 192.072 295.975C185.219 307.934 175.329 317.871 163.404 324.781C151.478 331.692 137.94 335.331 124.157 335.331C110.374 335.331 96.8351 331.692 84.9097 324.781C72.9843 317.871 63.095 307.934 56.2418 295.975C55.548 294.773 54.8901 293.552 54.2681 292.313C48.9488 281.762 46.0881 270.142 45.9005 258.327C45.7129 246.512 48.2034 234.807 53.1852 224.092C58.1669 213.377 65.5105 203.928 74.665 196.456C83.8195 188.984 94.5473 183.682 106.043 180.948C117.54 178.214 129.506 178.119 141.044 180.67C152.582 183.221 163.393 188.351 172.665 195.677C181.937 203.002 189.43 212.332 194.582 222.967C199.733 233.602 202.41 245.265 202.41 257.082Z" fill="#F1F1F1"/>
<path d="M54.2686 292.314C60.86 285.19 69.6717 273.881 77.9361 282.052C82.0837 285.907 88.5749 295.459 94.7886 289.214L143.311 240.692C144.224 239.79 145.309 239.08 146.501 238.603C147.693 238.127 148.968 237.893 150.251 237.916C151.535 237.939 152.8 238.218 153.974 238.737C155.148 239.256 156.207 240.005 157.087 240.939L197.499 284.404C196.019 288.407 194.204 292.278 192.072 295.975H56.2422L54.2686 292.314Z" fill="#6C63FF"/>
<path d="M160.875 415.99C160.339 415.991 159.826 416.205 159.448 416.584C159.07 416.963 158.857 417.476 158.857 418.012C158.857 418.547 159.07 419.061 159.448 419.44C159.826 419.819 160.339 420.032 160.875 420.033H182.089C182.625 420.033 183.139 419.82 183.518 419.441C183.897 419.062 184.11 418.548 184.11 418.012C184.11 417.475 183.897 416.961 183.518 416.582C183.139 416.203 182.625 415.99 182.089 415.99H160.875Z" fill="#6C63FF"/>
<path d="M65.298 386.297C64.7618 386.297 64.2476 386.51 63.8685 386.889C63.4894 387.268 63.2764 387.782 63.2764 388.318C63.2764 388.854 63.4894 389.369 63.8685 389.748C64.2476 390.127 64.7618 390.34 65.298 390.34H183.016C183.552 390.34 184.066 390.127 184.445 389.748C184.825 389.369 185.038 388.854 185.038 388.318C185.038 387.782 184.825 387.268 184.445 386.889C184.066 386.51 183.552 386.297 183.016 386.297H65.298Z" fill="#E5E5E5"/>
<path d="M65.2984 401.143C64.763 401.144 64.2499 401.358 63.8718 401.737C63.4936 402.116 63.2812 402.629 63.2812 403.165C63.2812 403.7 63.4936 404.214 63.8718 404.593C64.2499 404.972 64.763 405.185 65.2984 405.186H183.016C183.282 405.187 183.546 405.135 183.791 405.034C184.037 404.933 184.261 404.784 184.449 404.596C184.637 404.408 184.786 404.185 184.888 403.94C184.99 403.694 185.042 403.431 185.042 403.165C185.042 402.899 184.99 402.636 184.888 402.39C184.786 402.145 184.637 401.922 184.449 401.734C184.261 401.546 184.037 401.397 183.791 401.296C183.546 401.194 183.282 401.143 183.016 401.143H65.2984Z" fill="#E5E5E5"/>
<path d="M160.874 511.257C160.338 511.257 159.824 511.47 159.445 511.849C159.066 512.228 158.853 512.742 158.853 513.278C158.853 513.814 159.066 514.329 159.445 514.708C159.824 515.087 160.338 515.3 160.874 515.3H182.088C182.624 515.3 183.139 515.087 183.518 514.708C183.897 514.329 184.11 513.814 184.11 513.278C184.11 512.742 183.897 512.228 183.518 511.849C183.139 511.47 182.624 511.257 182.088 511.257H160.874Z" fill="#6C63FF"/>
<path d="M65.298 481.563C64.7618 481.563 64.2476 481.776 63.8685 482.155C63.4894 482.534 63.2764 483.048 63.2764 483.585C63.2764 484.121 63.4894 484.635 63.8685 485.014C64.2476 485.393 64.7618 485.606 65.298 485.606H183.016C183.282 485.607 183.545 485.555 183.791 485.454C184.037 485.352 184.26 485.203 184.448 485.016C184.637 484.828 184.786 484.605 184.888 484.359C184.99 484.114 185.042 483.85 185.042 483.585C185.042 483.319 184.99 483.056 184.888 482.81C184.786 482.564 184.637 482.341 184.448 482.154C184.26 481.966 184.037 481.817 183.791 481.716C183.545 481.614 183.282 481.562 183.016 481.563H65.298Z" fill="#E5E5E5"/>
<path d="M65.298 496.41C64.7618 496.41 64.2476 496.623 63.8685 497.002C63.4894 497.381 63.2764 497.895 63.2764 498.431C63.2764 498.968 63.4894 499.482 63.8685 499.861C64.2476 500.24 64.7618 500.453 65.298 500.453H183.016C183.552 500.453 184.066 500.24 184.445 499.861C184.825 499.482 185.038 498.968 185.038 498.431C185.038 497.895 184.825 497.381 184.445 497.002C184.066 496.623 183.552 496.41 183.016 496.41H65.298Z" fill="#E5E5E5"/>
<path d="M655.133 312.128L654.456 311.821L654.428 312.565C654.35 314.64 653.763 316.664 652.719 318.459C651.675 320.254 650.206 321.764 648.44 322.858C646.675 323.951 644.667 324.593 642.595 324.728C640.523 324.862 638.449 324.485 636.557 323.63L565.666 291.575C563.774 290.719 562.121 289.412 560.854 287.767C559.586 286.122 558.743 284.191 558.398 282.143C558.052 280.095 558.216 277.994 558.874 276.025C559.532 274.055 560.664 272.278 562.171 270.849L562.711 270.337L562.033 270.03L546.946 263.209C540.13 260.127 532.369 259.878 525.37 262.519C518.37 265.159 512.707 270.472 509.625 277.288L364.95 597.245C363.423 600.62 362.577 604.263 362.459 607.965C362.34 611.667 362.952 615.356 364.26 618.822C365.567 622.288 367.544 625.462 370.078 628.163C372.613 630.865 375.654 633.041 379.029 634.567L503.369 690.789C510.185 693.871 517.946 694.12 524.946 691.479C531.945 688.839 537.608 683.526 540.69 676.71L685.366 356.753C686.892 353.378 687.738 349.735 687.856 346.033C687.975 342.331 687.363 338.642 686.055 335.176C684.748 331.711 682.771 328.536 680.237 325.835C677.702 323.133 674.661 320.958 671.286 319.431L655.133 312.128Z" fill="white" stroke="#3F3D56"/>
<path d="M527.177 472.234C516.289 467.289 506.895 459.565 499.938 449.839C492.981 440.113 488.706 428.727 487.544 416.826C487.427 415.646 487.342 414.432 487.292 413.222C486.819 402.61 488.869 392.036 493.276 382.37C497.374 373.318 503.408 365.275 510.954 358.809C518.499 352.343 527.371 347.611 536.944 344.948C546.517 342.285 556.558 341.754 566.359 343.395C576.159 345.035 585.48 348.805 593.665 354.44C601.849 360.076 608.697 367.438 613.726 376.008C618.755 384.578 621.842 394.148 622.77 404.041C623.697 413.934 622.443 423.911 619.095 433.266C615.746 442.622 610.386 451.129 603.392 458.187C600.789 460.823 597.968 463.236 594.96 465.399C585.256 472.386 573.883 476.696 561.984 477.896C550.086 479.096 538.081 477.143 527.177 472.234ZM582.319 350.285C566.386 343.103 548.255 342.535 531.904 348.704C515.552 354.874 502.316 367.277 495.098 383.194C490.821 392.575 488.831 402.837 489.291 413.137C489.339 414.312 489.421 415.487 489.534 416.632C490.644 428.189 494.785 439.249 501.54 448.692C508.295 458.136 517.423 465.628 528.003 470.412C538.582 475.196 550.237 477.102 561.789 475.936C573.341 474.771 584.381 470.576 593.791 463.776C596.709 461.678 599.445 459.337 601.971 456.78C609.459 449.222 615.007 439.965 618.142 429.799C621.278 419.633 621.907 408.859 619.976 398.396C618.046 387.934 613.612 378.094 607.055 369.717C600.498 361.339 592.011 354.672 582.319 350.285Z" fill="#CBCCCE"/>
<path d="M533.874 346.872L532.006 347.588L579.527 471.645L581.395 470.93L533.874 346.872Z" fill="#CBCCCE"/>
<path d="M615.727 385.567L491.666 433.08L492.381 434.947L616.442 387.435L615.727 385.567Z" fill="#CBCCCE"/>
<path d="M554.201 569.161L436.845 516.096C435.975 515.702 435.298 514.978 434.961 514.085C434.624 513.191 434.655 512.2 435.047 511.33L446.087 486.915C446.481 486.045 447.205 485.367 448.098 485.03C448.992 484.693 449.983 484.724 450.854 485.116L568.209 538.181C569.079 538.576 569.757 539.299 570.094 540.193C570.431 541.086 570.4 542.077 570.007 542.948L558.968 567.363C558.573 568.233 557.85 568.911 556.956 569.248C556.063 569.585 555.072 569.554 554.201 569.161ZM450.03 486.939C449.642 486.764 449.201 486.75 448.804 486.9C448.406 487.05 448.085 487.352 447.909 487.739L436.87 512.154C436.695 512.541 436.681 512.982 436.831 513.379C436.981 513.777 437.282 514.099 437.669 514.274L555.025 567.339C555.412 567.514 555.853 567.527 556.251 567.377C556.648 567.227 556.97 566.926 557.145 566.539L568.185 542.124C568.36 541.737 568.374 541.296 568.224 540.898C568.074 540.501 567.772 540.179 567.385 540.004L450.03 486.939Z" fill="#CBCCCE"/>
<path d="M525.772 632.033L408.417 578.968C407.547 578.573 406.869 577.85 406.532 576.956C406.195 576.063 406.226 575.072 406.618 574.201L417.658 549.786C418.053 548.916 418.776 548.239 419.67 547.901C420.563 547.564 421.554 547.595 422.425 547.988L539.781 601.053C540.65 601.447 541.328 602.171 541.665 603.064C542.002 603.958 541.971 604.949 541.579 605.819L530.539 630.234C530.144 631.104 529.421 631.782 528.527 632.119C527.634 632.456 526.643 632.425 525.772 632.033ZM421.601 549.81C421.213 549.636 420.773 549.622 420.375 549.772C419.978 549.922 419.656 550.223 419.481 550.61L408.441 575.025C408.266 575.412 408.252 575.853 408.402 576.251C408.552 576.648 408.854 576.97 409.241 577.145L526.596 630.21C526.984 630.385 527.424 630.399 527.822 630.249C528.219 630.099 528.541 629.797 528.717 629.41L539.756 604.995C539.931 604.608 539.945 604.167 539.795 603.77C539.645 603.372 539.344 603.05 538.957 602.875L421.601 549.81Z" fill="#CBCCCE"/>
<path d="M407.325 392.815L292.23 319.286L291.11 321.884L406.204 395.412L407.325 392.815Z" fill="#3F3D56"/>
<path d="M277.682 311.626C285.448 313.099 295.634 313.653 302.833 311.946L293.513 321.745L292.172 336.64C289.242 328.459 283.087 318.568 277.682 311.626Z" fill="#3F3D56"/>
</g>
<path d="M347.119 96.5555H147V98.1261H347.119V96.5555Z" fill="#3F3D56"/>
<path d="M333.643 88.2761H311.669V110.264H333.643V88.2761Z" fill="#E6E6E6"/>
<path d="M346.984 97.6995H320.302V71H346.984V97.6995ZM321.462 96.5387H345.824V72.1609H321.462V96.5387Z" fill="#3F3D56"/>
<path d="M346.941 79.8185C368.999 79.8185 386.881 61.9505 386.881 39.9092C386.881 17.868 368.999 0 346.941 0C324.882 0 307 17.868 307 39.9092C307 61.9505 324.882 79.8185 346.941 79.8185Z" fill="#6C63FF"/>
<path d="M341.491 60.6801C340.801 60.6801 340.121 60.5196 339.504 60.2113C338.887 59.9031 338.351 59.4555 337.937 58.904L327.041 44.3866C326.691 43.9202 326.436 43.3895 326.291 42.8248C326.146 42.26 326.115 41.6723 326.197 41.0952C326.28 40.5181 326.475 39.9629 326.772 39.4613C327.07 38.9597 327.463 38.5214 327.93 38.1717C328.396 37.8219 328.927 37.5674 329.493 37.4227C330.058 37.2781 330.646 37.2461 331.224 37.3285C331.801 37.411 332.357 37.6063 332.859 37.9034C333.361 38.2004 333.799 38.5933 334.149 39.0597L341.278 48.5566L359.588 21.1144C359.911 20.6291 360.327 20.2123 360.812 19.8878C361.297 19.5632 361.841 19.3372 362.413 19.2228C362.985 19.1084 363.575 19.1077 364.147 19.2208C364.719 19.3339 365.264 19.5586 365.75 19.8821C366.235 20.2055 366.652 20.6214 366.977 21.1059C367.302 21.5904 367.527 22.1341 367.642 22.7059C367.756 23.2777 367.757 23.8664 367.643 24.4384C367.53 25.0104 367.305 25.5544 366.981 26.0395L345.188 58.7031C344.794 59.2938 344.264 59.7815 343.642 60.1252C343.02 60.4689 342.325 60.6587 341.615 60.6786C341.574 60.6794 341.532 60.6801 341.491 60.6801Z" fill="white"/>
<defs>
<clipPath id="clip0_384_538">
<rect width="687" height="602" fill="white" transform="translate(0 92)"/>
</clipPath>
</defs>
</svg>
