<svg width="904" height="579" viewBox="0 0 904 579" fill="none" xmlns="http://www.w3.org/2000/svg">
<path d="M555.336 129.897V526.906C555.334 531.636 553.454 536.171 550.108 539.515C546.763 542.858 542.227 544.737 537.498 544.737H376.32C373.977 544.741 371.656 544.282 369.49 543.388C367.325 542.493 365.357 541.18 363.7 539.524C362.043 537.867 360.729 535.9 359.833 533.735C358.938 531.57 358.478 529.249 358.481 526.906V129.897C358.481 127.554 358.943 125.234 359.839 123.07C360.736 120.906 362.05 118.939 363.706 117.283C365.362 115.626 367.329 114.312 369.493 113.416C371.658 112.519 373.977 112.058 376.32 112.058H400.443V115.153C400.444 119.049 401.991 122.785 404.746 125.539C407.5 128.294 411.236 129.842 415.132 129.842H497.103C500.998 129.842 504.734 128.294 507.489 125.539C510.243 122.785 511.791 119.049 511.791 115.153V112.058H537.498C539.84 112.057 542.16 112.518 544.325 113.414C546.49 114.311 548.456 115.625 550.113 117.281C551.77 118.938 553.084 120.905 553.98 123.069C554.876 125.234 555.337 127.554 555.336 129.897Z" fill="#6C63FF"/>
<path d="M548.279 178.412H365.562V267.408H548.279V178.412Z" fill="#3F3D56"/>
<path d="M531.937 317.246H381.904V325.481H531.937V317.246Z" fill="#F0F0F0"/>
<path d="M531.937 330.514H381.904V338.75H531.937V330.514Z" fill="#F0F0F0"/>
<path d="M531.937 343.783H381.904V352.019H531.937V343.783Z" fill="#F0F0F0"/>
<path d="M531.937 357.052H381.904V365.288H531.937V357.052Z" fill="#F0F0F0"/>
<path d="M485.46 428.025L452.065 404.318L428.358 437.712L461.753 461.419L485.46 428.025Z" fill="#F0F0F0"/>
<path d="M461.451 470.029C459.582 470.029 457.755 469.475 456.201 468.436C454.647 467.398 453.435 465.922 452.72 464.195C452.005 462.468 451.817 460.568 452.182 458.734C452.547 456.901 453.447 455.217 454.769 453.895C456.09 452.574 457.774 451.673 459.608 451.309C461.441 450.944 463.341 451.131 465.068 451.847C466.795 452.562 468.271 453.773 469.31 455.327C470.348 456.882 470.902 458.709 470.902 460.578C470.899 463.084 469.903 465.486 468.131 467.258C466.359 469.03 463.957 470.026 461.451 470.029ZM461.451 452.702C459.894 452.702 458.371 453.164 457.076 454.03C455.781 454.895 454.771 456.125 454.175 457.564C453.579 459.003 453.423 460.587 453.727 462.115C454.031 463.642 454.781 465.046 455.882 466.147C456.984 467.249 458.387 467.999 459.915 468.303C461.443 468.606 463.026 468.45 464.465 467.854C465.904 467.258 467.134 466.249 468 464.954C468.865 463.658 469.327 462.136 469.327 460.578C469.325 458.49 468.494 456.488 467.018 455.012C465.541 453.535 463.539 452.705 461.451 452.702Z" fill="#3F3D56"/>
<path d="M230.855 44.8386V441.848C230.853 446.578 228.972 451.113 225.627 454.457C222.282 457.8 217.746 459.679 213.016 459.679H51.8386C49.4955 459.683 47.1747 459.224 45.0091 458.33C42.8435 457.435 40.8757 456.122 39.2185 454.466C37.5613 452.809 36.2473 450.842 35.3518 448.677C34.4564 446.512 33.997 444.191 34 441.848V44.8386C33.9999 42.496 34.4613 40.1763 35.3577 38.012C36.2541 35.8476 37.5681 33.8811 39.2246 32.2246C40.8811 30.5681 42.8476 29.2541 45.0119 28.3577C47.1763 27.4612 49.496 26.9999 51.8386 27H75.9621V30.0952C75.9621 33.9908 77.5096 37.7268 80.2642 40.4814C83.0188 43.236 86.7548 44.7835 90.6504 44.7835H172.621C176.517 44.7835 180.253 43.236 183.008 40.4814C185.762 37.7268 187.31 33.9908 187.31 30.0952V27H213.016C215.359 26.9992 217.679 27.4601 219.844 28.3563C222.008 29.2525 223.975 30.5665 225.632 32.2231C227.288 33.8797 228.602 35.8466 229.498 38.0112C230.395 40.1758 230.855 42.4958 230.855 44.8386Z" fill="#F2F2F2"/>
<path d="M210.409 243.781H52.894V102.805H210.409V243.781ZM54.4692 242.206H208.834V104.38H54.4692V242.206Z" fill="#3F3D56"/>
<path d="M54.2066 103.005L53.1567 104.18L209.097 243.581L210.147 242.406L54.2066 103.005Z" fill="#3F3D56"/>
<path d="M209.098 103.006L53.1553 242.405L54.2051 243.579L210.148 104.181L209.098 103.006Z" fill="#3F3D56"/>
<path d="M209.622 284.735H53.6816V286.31H209.622V284.735Z" fill="#3F3D56"/>
<path d="M209.622 298.911H53.6816V300.487H209.622V298.911Z" fill="#3F3D56"/>
<path d="M209.622 313.088H53.6816V314.663H209.622V313.088Z" fill="#3F3D56"/>
<path d="M131.652 327.264H53.6816V328.839H131.652V327.264Z" fill="#3F3D56"/>
<path d="M131.652 341.44H53.6816V343.016H131.652V341.44Z" fill="#3F3D56"/>
<path d="M879.03 44.8386V441.848C879.028 446.578 877.147 451.113 873.802 454.457C870.457 457.8 865.921 459.679 861.191 459.679H700.014C697.671 459.683 695.35 459.224 693.184 458.33C691.019 457.435 689.051 456.122 687.394 454.466C685.737 452.809 684.423 450.842 683.527 448.677C682.632 446.512 682.172 444.191 682.175 441.848V44.8386C682.175 42.496 682.637 40.1763 683.533 38.012C684.429 35.8476 685.743 33.8811 687.4 32.2246C689.056 30.5681 691.023 29.2541 693.187 28.3577C695.352 27.4613 697.671 26.9999 700.014 27H724.137V30.0952C724.137 33.9908 725.685 37.7268 728.439 40.4814C731.194 43.236 734.93 44.7835 738.826 44.7835H820.797C824.692 44.7835 828.428 43.236 831.183 40.4814C833.937 37.7268 835.485 33.9908 835.485 30.0952V27H861.191C863.534 26.9992 865.854 27.4601 868.019 28.3563C870.183 29.2525 872.15 30.5665 873.807 32.2231C875.464 33.8797 876.778 35.8465 877.674 38.0112C878.57 40.1758 879.031 42.4958 879.03 44.8386Z" fill="#F2F2F2"/>
<path d="M859.372 230.392H703.432V231.967H859.372V230.392Z" fill="#3F3D56"/>
<path d="M859.372 271.346H703.432V272.921H859.372V271.346Z" fill="#3F3D56"/>
<path d="M859.372 312.3H703.432V313.875H859.372V312.3Z" fill="#3F3D56"/>
<path d="M780.242 168.599C794.381 168.599 805.844 157.136 805.844 142.997C805.844 128.857 794.381 117.395 780.242 117.395C766.102 117.395 754.64 128.857 754.64 142.997C754.64 157.136 766.102 168.599 780.242 168.599Z" fill="#6C63FF"/>
<path d="M831.019 223.304H819.993V248.506H831.019V223.304Z" fill="#6C63FF"/>
<path d="M734.147 263.47H723.121V288.673H734.147V263.47Z" fill="#6C63FF"/>
<path d="M798.729 303.637H787.703V328.839H798.729V303.637Z" fill="#6C63FF"/>
<path d="M780.603 173.687C774.372 173.687 768.281 171.839 763.101 168.378C757.92 164.916 753.882 159.996 751.498 154.239C749.113 148.483 748.489 142.149 749.705 136.038C750.921 129.927 753.921 124.313 758.327 119.908C762.732 115.502 768.346 112.502 774.457 111.286C780.568 110.07 786.902 110.694 792.658 113.079C798.415 115.463 803.335 119.501 806.797 124.682C810.258 129.862 812.106 135.953 812.106 142.184C812.096 150.536 808.774 158.543 802.868 164.449C796.962 170.355 788.955 173.677 780.603 173.687ZM780.603 112.256C774.683 112.256 768.897 114.011 763.976 117.3C759.054 120.588 755.218 125.262 752.953 130.731C750.688 136.199 750.095 142.217 751.25 148.022C752.405 153.828 755.255 159.16 759.44 163.346C763.626 167.531 768.959 170.382 774.764 171.537C780.569 172.691 786.587 172.099 792.056 169.833C797.524 167.568 802.198 163.732 805.487 158.811C808.775 153.889 810.531 148.103 810.531 142.184C810.522 134.249 807.366 126.642 801.755 121.031C796.144 115.421 788.537 112.265 780.603 112.256Z" fill="#3F3D56"/>
<path d="M252.134 235.269L250.592 236.542L313.789 313.08L315.331 311.807L252.134 235.269Z" fill="#3F3D56"/>
<path d="M322.245 321.751C317.004 318.713 309.744 315.569 304.026 314.625L313.551 311.222L318.694 302.514C318.538 308.307 320.253 316.031 322.245 321.751Z" fill="#3F3D56"/>
<path d="M660.123 235.261L596.943 311.814L598.486 313.087L661.666 236.535L660.123 235.261Z" fill="#3F3D56"/>
<path d="M590.021 321.751C592.012 316.03 593.726 308.306 593.571 302.513L598.715 311.222L608.238 314.624C602.52 315.567 595.261 318.712 590.021 321.751Z" fill="#3F3D56"/>
<path d="M341.305 76.609C355.832 76.609 367.609 64.8321 367.609 50.3045C367.609 35.7769 355.832 24 341.305 24C326.777 24 315 35.7769 315 50.3045C315 64.8321 326.777 76.609 341.305 76.609Z" fill="#6C63FF"/>
<path d="M337.716 63.9948C337.262 63.9948 336.813 63.889 336.407 63.6858C336.001 63.4826 335.648 63.1876 335.375 62.8241L328.199 53.2556C327.968 52.9482 327.801 52.5984 327.705 52.2262C327.61 51.854 327.589 51.4666 327.643 51.0862C327.698 50.7059 327.826 50.3399 328.022 50.0093C328.218 49.6787 328.477 49.3898 328.784 49.1593C329.092 48.9288 329.441 48.761 329.814 48.6657C330.186 48.5703 330.573 48.5492 330.954 48.6036C331.334 48.6579 331.7 48.7867 332.031 48.9824C332.361 49.1782 332.65 49.4372 332.881 49.7446L337.576 56.0041L349.634 37.9167C349.847 37.5969 350.121 37.3222 350.44 37.1082C350.76 36.8943 351.118 36.7454 351.495 36.6699C351.872 36.5945 352.26 36.5941 352.637 36.6686C353.014 36.7432 353.372 36.8913 353.692 37.1045C354.012 37.3177 354.287 37.5918 354.5 37.9111C354.714 38.2305 354.863 38.5888 354.938 38.9657C355.014 39.3426 355.014 39.7306 354.939 40.1076C354.865 40.4846 354.716 40.8432 354.503 41.1629L340.151 62.6917C339.891 63.0811 339.542 63.4025 339.132 63.629C338.723 63.8556 338.265 63.9807 337.797 63.9938C337.77 63.9943 337.743 63.9948 337.716 63.9948Z" fill="white"/>
</svg>
