<svg width="904" height="579" viewBox="0 0 904 579" fill="none" xmlns="http://www.w3.org/2000/svg">
<path d="M555.336 129.897V526.906C555.334 531.636 553.454 536.171 550.108 539.515C546.763 542.858 542.227 544.737 537.498 544.737H376.32C373.977 544.741 371.656 544.282 369.49 543.388C367.325 542.493 365.357 541.18 363.7 539.524C362.043 537.867 360.729 535.9 359.833 533.735C358.938 531.57 358.478 529.249 358.481 526.906V129.897C358.481 127.554 358.943 125.234 359.839 123.07C360.736 120.906 362.05 118.939 363.706 117.283C365.362 115.626 367.329 114.312 369.493 113.416C371.658 112.519 373.977 112.058 376.32 112.058H400.443V115.153C400.444 119.049 401.991 122.785 404.746 125.539C407.5 128.294 411.236 129.842 415.132 129.842H497.103C500.998 129.842 504.734 128.294 507.489 125.539C510.243 122.785 511.791 119.049 511.791 115.153V112.058H537.498C539.84 112.057 542.16 112.518 544.325 113.414C546.49 114.311 548.456 115.625 550.113 117.281C551.77 118.938 553.084 120.905 553.98 123.069C554.876 125.234 555.337 127.554 555.336 129.897Z" fill="#6C63FF"/>
<path d="M548.279 178.412H365.562V267.408H548.279V178.412Z" fill="#3F3D56"/>
<path d="M531.937 317.246H381.904V325.481H531.937V317.246Z" fill="#F0F0F0"/>
<path d="M531.937 330.514H381.904V338.75H531.937V330.514Z" fill="#F0F0F0"/>
<path d="M531.937 343.783H381.904V352.019H531.937V343.783Z" fill="#F0F0F0"/>
<path d="M531.937 357.052H381.904V365.288H531.937V357.052Z" fill="#F0F0F0"/>
<path d="M485.46 428.025L452.065 404.318L428.358 437.712L461.753 461.419L485.46 428.025Z" fill="#F0F0F0"/>
<path d="M457.451 127.902C455.582 127.902 453.754 127.348 452.2 126.309C450.646 125.271 449.435 123.795 448.719 122.068C448.004 120.341 447.817 118.44 448.182 116.607C448.546 114.774 449.446 113.09 450.768 111.768C452.09 110.446 453.774 109.546 455.607 109.182C457.44 108.817 459.341 109.004 461.068 109.719C462.795 110.435 464.271 111.646 465.309 113.2C466.348 114.754 466.902 116.582 466.902 118.451C466.899 120.957 465.902 123.359 464.131 125.131C462.359 126.902 459.957 127.899 457.451 127.902ZM457.451 110.575C455.893 110.575 454.371 111.037 453.075 111.902C451.78 112.768 450.771 113.998 450.175 115.437C449.579 116.876 449.423 118.46 449.726 119.987C450.03 121.515 450.78 122.919 451.882 124.02C452.983 125.121 454.387 125.871 455.914 126.175C457.442 126.479 459.026 126.323 460.465 125.727C461.904 125.131 463.134 124.122 463.999 122.826C464.865 121.531 465.327 120.009 465.327 118.451C465.324 116.363 464.494 114.361 463.017 112.884C461.541 111.408 459.539 110.578 457.451 110.575Z" fill="#6C63FF"/>
<path d="M230.855 44.8386V441.848C230.853 446.578 228.972 451.113 225.627 454.457C222.282 457.8 217.746 459.679 213.016 459.679H51.8386C49.4955 459.683 47.1747 459.224 45.0091 458.33C42.8435 457.435 40.8757 456.122 39.2185 454.466C37.5613 452.809 36.2473 450.842 35.3518 448.677C34.4564 446.512 33.997 444.191 34 441.848V44.8386C33.9999 42.496 34.4613 40.1763 35.3577 38.012C36.2541 35.8476 37.5681 33.8811 39.2246 32.2246C40.8811 30.5681 42.8476 29.2541 45.0119 28.3577C47.1763 27.4612 49.496 26.9999 51.8386 27H75.9621V30.0952C75.9621 33.9908 77.5096 37.7268 80.2642 40.4814C83.0188 43.236 86.7548 44.7835 90.6504 44.7835H172.621C176.517 44.7835 180.253 43.236 183.008 40.4814C185.762 37.7268 187.31 33.9908 187.31 30.0952V27H213.016C215.359 26.9992 217.679 27.4601 219.844 28.3563C222.008 29.2525 223.975 30.5665 225.632 32.2231C227.288 33.8797 228.602 35.8466 229.498 38.0112C230.395 40.1758 230.855 42.4958 230.855 44.8386Z" fill="#F2F2F2"/>
<path d="M210.409 243.781H52.894V102.805H210.409V243.781ZM54.4692 242.206H208.834V104.38H54.4692V242.206Z" fill="#3F3D56"/>
<path d="M54.2066 103.005L53.1567 104.18L209.097 243.581L210.147 242.406L54.2066 103.005Z" fill="#3F3D56"/>
<path d="M209.098 103.006L53.1553 242.405L54.2051 243.579L210.148 104.181L209.098 103.006Z" fill="#3F3D56"/>
<path d="M209.622 284.735H53.6816V286.31H209.622V284.735Z" fill="#3F3D56"/>
<path d="M209.622 298.911H53.6816V300.487H209.622V298.911Z" fill="#3F3D56"/>
<path d="M209.622 313.088H53.6816V314.663H209.622V313.088Z" fill="#3F3D56"/>
<path d="M131.652 327.264H53.6816V328.839H131.652V327.264Z" fill="#3F3D56"/>
<path d="M131.652 341.44H53.6816V343.016H131.652V341.44Z" fill="#3F3D56"/>
<path d="M879.03 44.8386V441.848C879.028 446.578 877.147 451.113 873.802 454.457C870.457 457.8 865.921 459.679 861.191 459.679H700.014C697.671 459.683 695.35 459.224 693.184 458.33C691.019 457.435 689.051 456.122 687.394 454.466C685.737 452.809 684.423 450.842 683.527 448.677C682.632 446.512 682.172 444.191 682.175 441.848V44.8386C682.175 42.496 682.637 40.1763 683.533 38.012C684.429 35.8476 685.743 33.8811 687.4 32.2246C689.056 30.5681 691.023 29.2541 693.187 28.3577C695.352 27.4613 697.671 26.9999 700.014 27H724.137V30.0952C724.137 33.9908 725.685 37.7268 728.439 40.4814C731.194 43.236 734.93 44.7835 738.826 44.7835H820.797C824.692 44.7835 828.428 43.236 831.183 40.4814C833.937 37.7268 835.485 33.9908 835.485 30.0952V27H861.191C863.534 26.9992 865.854 27.4601 868.019 28.3563C870.183 29.2525 872.15 30.5665 873.807 32.2231C875.464 33.8797 876.778 35.8465 877.674 38.0112C878.57 40.1758 879.031 42.4958 879.03 44.8386Z" fill="#F2F2F2"/>
<path d="M859.372 230.392H703.432V231.967H859.372V230.392Z" fill="#3F3D56"/>
<path d="M859.372 271.346H703.432V272.921H859.372V271.346Z" fill="#3F3D56"/>
<path d="M859.372 312.3H703.432V313.875H859.372V312.3Z" fill="#3F3D56"/>
<path d="M781 169C795.359 169 807 157.136 807 142.5C807 127.864 795.359 116 781 116C766.641 116 755 127.864 755 142.5C755 157.136 766.641 169 781 169Z" fill="#6C63FF"/>
<path d="M831.019 223.304H819.993V248.506H831.019V223.304Z" fill="#6C63FF"/>
<path d="M734.147 263.47H723.121V288.673H734.147V263.47Z" fill="#6C63FF"/>
<path d="M798.729 303.637H787.703V328.839H798.729V303.637Z" fill="#6C63FF"/>
<path d="M780.5 174C774.27 174 768.18 172.153 763 168.691C757.819 165.23 753.782 160.31 751.398 154.555C749.014 148.799 748.39 142.465 749.605 136.355C750.821 130.244 753.821 124.631 758.226 120.226C762.632 115.821 768.244 112.821 774.355 111.605C780.465 110.39 786.799 111.014 792.555 113.398C798.31 115.782 803.23 119.819 806.691 125C810.153 130.18 812 136.27 812 142.5C811.991 150.851 808.669 158.858 802.763 164.763C796.858 170.669 788.851 173.991 780.5 174ZM780.5 112.575C774.581 112.575 768.796 114.33 763.875 117.618C758.953 120.906 755.118 125.58 752.853 131.048C750.588 136.516 749.995 142.533 751.15 148.338C752.305 154.143 755.155 159.475 759.34 163.66C763.525 167.845 768.857 170.695 774.662 171.85C780.467 173.005 786.484 172.412 791.952 170.147C797.42 167.882 802.094 164.047 805.382 159.125C808.67 154.204 810.425 148.419 810.425 142.5C810.416 134.566 807.26 126.96 801.65 121.35C796.04 115.74 788.434 112.584 780.5 112.575Z" fill="#3F3D56"/>
<path d="M252.134 235.269L250.592 236.542L313.789 313.08L315.331 311.807L252.134 235.269Z" fill="#3F3D56"/>
<path d="M322.245 321.751C317.004 318.713 309.744 315.569 304.026 314.625L313.551 311.222L318.694 302.514C318.538 308.307 320.253 316.031 322.245 321.751Z" fill="#3F3D56"/>
<path d="M660.123 235.261L596.943 311.814L598.486 313.087L661.666 236.535L660.123 235.261Z" fill="#3F3D56"/>
<path d="M590.021 321.751C592.012 316.03 593.726 308.306 593.571 302.513L598.715 311.222L608.238 314.624C602.52 315.567 595.261 318.712 590.021 321.751Z" fill="#3F3D56"/>
<path d="M341.305 76.609C355.832 76.609 367.609 64.8321 367.609 50.3045C367.609 35.7769 355.832 24 341.305 24C326.777 24 315 35.7769 315 50.3045C315 64.8321 326.777 76.609 341.305 76.609Z" fill="#6C63FF"/>
<path d="M337.716 63.9948C337.262 63.9948 336.813 63.889 336.407 63.6858C336.001 63.4826 335.648 63.1876 335.375 62.8241L328.199 53.2556C327.968 52.9482 327.801 52.5984 327.705 52.2262C327.61 51.854 327.589 51.4666 327.643 51.0862C327.698 50.7059 327.826 50.3399 328.022 50.0093C328.218 49.6787 328.477 49.3898 328.784 49.1593C329.092 48.9288 329.441 48.761 329.814 48.6657C330.186 48.5703 330.573 48.5492 330.954 48.6036C331.334 48.6579 331.7 48.7867 332.031 48.9824C332.361 49.1782 332.65 49.4372 332.881 49.7446L337.576 56.0041L349.634 37.9167C349.847 37.5969 350.121 37.3222 350.44 37.1082C350.76 36.8943 351.118 36.7454 351.495 36.6699C351.872 36.5945 352.26 36.5941 352.637 36.6686C353.014 36.7432 353.372 36.8913 353.692 37.1045C354.012 37.3177 354.287 37.5918 354.5 37.9111C354.714 38.2305 354.863 38.5888 354.938 38.9657C355.014 39.3426 355.014 39.7306 354.939 40.1076C354.865 40.4846 354.716 40.8432 354.503 41.1629L340.151 62.6917C339.891 63.0811 339.542 63.4025 339.132 63.629C338.723 63.8556 338.265 63.9807 337.797 63.9938C337.77 63.9943 337.743 63.9948 337.716 63.9948Z" fill="white"/>
</svg>
