<svg width="1076" height="767" viewBox="0 0 1076 767" fill="none" xmlns="http://www.w3.org/2000/svg">
<g clip-path="url(#clip0_148_62)">
<path d="M952.03 766.356C1019.96 766.356 1075.03 752.925 1075.03 736.356C1075.03 719.788 1019.96 706.356 952.03 706.356C884.099 706.356 829.03 719.788 829.03 736.356C829.03 752.925 884.099 766.356 952.03 766.356Z" fill="#3F3D56"/>
<path d="M521.336 102.897V499.906C521.334 504.636 519.454 509.171 516.108 512.515C512.763 515.858 508.227 517.737 503.498 517.737H342.32C339.977 517.741 337.656 517.282 335.49 516.388C333.325 515.493 331.357 514.18 329.7 512.524C328.043 510.867 326.729 508.9 325.833 506.735C324.938 504.57 324.478 502.249 324.481 499.906V102.897C324.481 100.554 324.943 98.2344 325.839 96.0701C326.736 93.9058 328.05 91.9392 329.706 90.2827C331.362 88.6262 333.329 87.3122 335.493 86.4158C337.658 85.5194 339.977 85.058 342.32 85.0581H366.443V88.1533C366.444 92.0488 367.991 95.7849 370.746 98.5394C373.5 101.294 377.236 102.842 381.132 102.842H463.103C466.998 102.842 470.734 101.294 473.489 98.5394C476.243 95.7848 477.791 92.0488 477.791 88.1533V85.0581H503.498C505.84 85.0573 508.16 85.5182 510.325 86.4144C512.49 87.3106 514.456 88.6246 516.113 90.2812C517.77 91.9378 519.084 93.9047 519.98 96.0693C520.876 98.2339 521.337 100.554 521.336 102.897Z" fill="#6C63FF"/>
<path d="M514.279 151.412H331.562V240.408H514.279V151.412Z" fill="#3F3D56"/>
<path d="M405.128 212.521C409.911 230.202 426.294 241.152 426.294 241.152C426.294 241.152 434.922 223.436 430.139 205.755C425.356 188.074 408.973 177.123 408.973 177.123C408.973 177.123 400.345 194.84 405.128 212.521Z" fill="white"/>
<path d="M412.157 208.721C425.282 221.497 426.885 241.138 426.885 241.138C426.885 241.138 407.208 240.064 394.083 227.287C380.959 214.511 379.355 194.87 379.355 194.87C379.355 194.87 399.032 195.944 412.157 208.721Z" fill="#6C63FF"/>
<path d="M448.641 212.521C443.858 230.202 427.475 241.152 427.475 241.152C427.475 241.152 418.846 223.436 423.629 205.755C428.413 188.074 444.796 177.123 444.796 177.123C444.796 177.123 453.424 194.84 448.641 212.521Z" fill="white"/>
<path d="M441.612 208.721C428.487 221.497 426.884 241.138 426.884 241.138C426.884 241.138 446.561 240.064 459.686 227.287C472.81 214.511 474.414 194.87 474.414 194.87C474.414 194.87 454.737 195.944 441.612 208.721Z" fill="#6C63FF"/>
<path d="M497.937 290.246H347.904V298.481H497.937V290.246Z" fill="#F0F0F0"/>
<path d="M497.937 303.514H347.904V311.75H497.937V303.514Z" fill="#F0F0F0"/>
<path d="M497.937 316.783H347.904V325.019H497.937V316.783Z" fill="#F0F0F0"/>
<path d="M497.937 330.052H347.904V338.288H497.937V330.052Z" fill="#F0F0F0"/>
<path d="M451.46 401.025L418.065 377.318L394.358 410.712L427.753 434.419L451.46 401.025Z" fill="#F0F0F0"/>
<path d="M427.451 443.029C425.582 443.029 423.755 442.475 422.201 441.436C420.647 440.398 419.435 438.922 418.72 437.195C418.005 435.468 417.817 433.568 418.182 431.734C418.547 429.901 419.447 428.217 420.769 426.895C422.09 425.574 423.774 424.673 425.608 424.309C427.441 423.944 429.341 424.131 431.068 424.847C432.795 425.562 434.271 426.773 435.31 428.327C436.348 429.882 436.902 431.709 436.902 433.578C436.899 436.084 435.903 438.486 434.131 440.258C432.359 442.03 429.957 443.026 427.451 443.029ZM427.451 425.702C425.894 425.702 424.371 426.164 423.076 427.03C421.781 427.895 420.771 429.125 420.175 430.564C419.579 432.003 419.423 433.587 419.727 435.115C420.031 436.642 420.781 438.046 421.882 439.147C422.984 440.249 424.387 440.999 425.915 441.303C427.443 441.606 429.026 441.45 430.465 440.854C431.904 440.258 433.134 439.249 434 437.954C434.865 436.658 435.327 435.136 435.327 433.578C435.325 431.49 434.494 429.488 433.018 428.012C431.541 426.535 429.539 425.705 427.451 425.702Z" fill="#3F3D56"/>
<path d="M196.855 17.8386V414.848C196.853 419.578 194.972 424.113 191.627 427.457C188.282 430.8 183.746 432.679 179.016 432.679H17.8386C15.4955 432.683 13.1747 432.224 11.0091 431.33C8.84346 430.435 6.87567 429.122 5.21849 427.466C3.56131 425.809 2.24733 423.842 1.35184 421.677C0.456351 419.512 -0.0030345 417.191 1.50841e-05 414.848V17.8386C-8.60412e-05 15.496 0.461252 13.1763 1.35769 11.012C2.25413 8.84764 3.5681 6.88109 5.22459 5.2246C6.88107 3.56811 8.84762 2.25413 11.0119 1.35769C13.1763 0.461249 15.496 -9.6242e-05 17.8386 9.43601e-07H41.9621V3.09522C41.9621 6.9908 43.5096 10.7268 46.2642 13.4814C49.0188 16.236 52.7548 17.7835 56.6504 17.7835H138.621C142.517 17.7835 146.253 16.236 149.008 13.4814C151.762 10.7268 153.31 6.99079 153.31 3.09522V9.43601e-07H179.016C181.359 -0.000761165 183.679 0.460127 185.844 1.35633C188.008 2.25254 189.975 3.56649 191.632 5.22311C193.288 6.87974 194.602 8.84655 195.498 11.0112C196.395 13.1758 196.855 15.4958 196.855 17.8386Z" fill="#F2F2F2"/>
<path d="M176.409 216.781H18.894V75.8047H176.409V216.781ZM20.4692 215.206H174.834V77.3799H20.4692V215.206Z" fill="#3F3D56"/>
<path d="M20.2066 76.0053L19.1567 77.1797L175.097 216.581L176.147 215.406L20.2066 76.0053Z" fill="#3F3D56"/>
<path d="M175.098 76.0063L19.1553 215.405L20.2051 216.579L176.148 77.1808L175.098 76.0063Z" fill="#3F3D56"/>
<path d="M175.622 257.735H19.6816V259.31H175.622V257.735Z" fill="#3F3D56"/>
<path d="M175.622 271.911H19.6816V273.487H175.622V271.911Z" fill="#3F3D56"/>
<path d="M175.622 286.088H19.6816V287.663H175.622V286.088Z" fill="#3F3D56"/>
<path d="M97.6517 300.264H19.6816V301.839H97.6517V300.264Z" fill="#3F3D56"/>
<path d="M97.6517 314.44H19.6816V316.016H97.6517V314.44Z" fill="#3F3D56"/>
<path d="M845.03 17.8386V414.848C845.028 419.578 843.147 424.113 839.802 427.457C836.457 430.8 831.921 432.679 827.191 432.679H666.014C663.671 432.683 661.35 432.224 659.184 431.33C657.019 430.435 655.051 429.122 653.394 427.466C651.737 425.809 650.423 423.842 649.527 421.677C648.632 419.512 648.172 417.191 648.175 414.848V17.8386C648.175 15.496 648.637 13.1763 649.533 11.012C650.429 8.84765 651.743 6.8811 653.4 5.22461C655.056 3.56812 657.023 2.25414 659.187 1.3577C661.352 0.461256 663.671 -9.36089e-05 666.014 9.50106e-07H690.137V3.09522C690.137 6.9908 691.685 10.7268 694.439 13.4814C697.194 16.236 700.93 17.7835 704.826 17.7835H786.797C790.692 17.7835 794.428 16.236 797.183 13.4814C799.937 10.7268 801.485 6.99079 801.485 3.09522V9.50106e-07H827.191C829.534 -0.000763786 831.854 0.460128 834.019 1.35633C836.183 2.25254 838.15 3.56649 839.807 5.22311C841.464 6.87973 842.778 8.84654 843.674 11.0112C844.57 13.1758 845.031 15.4958 845.03 17.8386Z" fill="#F2F2F2"/>
<path d="M825.372 203.392H669.432V204.967H825.372V203.392Z" fill="#3F3D56"/>
<path d="M825.372 244.346H669.432V245.921H825.372V244.346Z" fill="#3F3D56"/>
<path d="M825.372 285.3H669.432V286.875H825.372V285.3Z" fill="#3F3D56"/>
<path d="M743.242 143.599C757.381 143.599 768.844 132.136 768.844 117.997C768.844 103.857 757.381 92.3945 743.242 92.3945C729.102 92.3945 717.64 103.857 717.64 117.997C717.64 132.136 729.102 143.599 743.242 143.599Z" fill="#6C63FF"/>
<path d="M797.019 196.304H785.993V221.506H797.019V196.304Z" fill="#6C63FF"/>
<path d="M700.147 236.47H689.121V261.673H700.147V236.47Z" fill="#6C63FF"/>
<path d="M764.729 276.637H753.703V301.839H764.729V276.637Z" fill="#6C63FF"/>
<path d="M746.603 146.687C740.372 146.687 734.281 144.839 729.101 141.378C723.92 137.916 719.882 132.996 717.498 127.239C715.113 121.483 714.489 115.149 715.705 109.038C716.921 102.927 719.921 97.3135 724.327 92.9077C728.732 88.5019 734.346 85.5015 740.457 84.286C746.568 83.0704 752.902 83.6943 758.658 86.0787C764.415 88.4631 769.335 92.501 772.797 97.6816C776.258 102.862 778.106 108.953 778.106 115.184C778.096 123.536 774.774 131.543 768.868 137.449C762.962 143.355 754.955 146.677 746.603 146.687ZM746.603 85.2558C740.683 85.2558 734.897 87.011 729.976 90.2995C725.054 93.588 721.218 98.2621 718.953 103.731C716.688 109.199 716.095 115.217 717.25 121.022C718.405 126.828 721.255 132.16 725.44 136.346C729.626 140.531 734.959 143.382 740.764 144.537C746.569 145.691 752.587 145.099 758.056 142.833C763.524 140.568 768.198 136.732 771.487 131.811C774.775 126.889 776.531 121.103 776.531 115.184C776.522 107.249 773.366 99.642 767.755 94.0314C762.144 88.4208 754.537 85.2648 746.603 85.2558Z" fill="#3F3D56"/>
<path d="M218.134 208.269L216.592 209.542L279.789 286.08L281.331 284.807L218.134 208.269Z" fill="#3F3D56"/>
<path d="M288.245 294.751C283.004 291.713 275.744 288.569 270.026 287.625L279.551 284.222L284.694 275.514C284.538 281.307 286.253 289.031 288.245 294.751Z" fill="#3F3D56"/>
<path d="M626.123 208.261L562.943 284.814L564.486 286.087L627.666 209.535L626.123 208.261Z" fill="#3F3D56"/>
<path d="M556.021 294.751C558.012 289.03 559.726 281.306 559.571 275.513L564.715 284.222L574.238 287.624C568.52 288.567 561.261 291.712 556.021 294.751Z" fill="#3F3D56"/>
<path d="M1016.53 377.856C1016.53 377.856 1016.53 523.856 993.53 576.856L940.53 695.856C940.53 695.856 906.53 693.856 904.53 679.856L944.53 555.856L968.53 482.856L974.53 368.856L1016.53 377.856Z" fill="#2F2E41"/>
<path d="M983.53 381.856L974.53 442.856L980.53 576.856L983.53 650.856C983.53 650.856 995.53 683.856 991.53 686.856L983.53 692.856C983.53 692.856 951.53 688.856 950.53 686.856C949.53 684.856 930.53 533.856 930.53 533.856C930.53 533.856 891.53 411.856 893.53 409.856C895.53 407.856 904.53 377.856 904.53 377.856L983.53 381.856Z" fill="#2F2E41"/>
<path d="M990.53 682.856L994.53 705.856C994.53 705.856 1005.53 752.856 994.53 752.856C983.53 752.856 963.53 739.856 962.53 731.856C961.53 723.856 964.53 687.856 964.53 687.856L990.53 682.856Z" fill="#2F2E41"/>
<path d="M939.53 690.856C939.53 690.856 947.53 706.856 952.53 708.856C957.53 710.856 980.3 723.939 966.915 732.398C953.53 740.856 939.53 732.856 939.53 732.856L893.53 707.856C893.53 707.856 899.53 682.856 908.53 680.856C917.53 678.856 939.53 690.856 939.53 690.856Z" fill="#2F2E41"/>
<path d="M929.53 156.856C949.412 156.856 965.53 140.739 965.53 120.856C965.53 100.974 949.412 84.8564 929.53 84.8564C909.648 84.8564 893.53 100.974 893.53 120.856C893.53 140.739 909.648 156.856 929.53 156.856Z" fill="#FFB8B8"/>
<path d="M959.53 123.856C959.53 123.856 966.53 169.856 973.53 175.856C980.53 181.856 958.53 202.856 948.53 201.856C938.53 200.856 927.53 178.856 927.53 178.856C927.53 178.856 930.53 149.856 925.53 141.856C920.53 133.856 959.53 123.856 959.53 123.856Z" fill="#FFB8B8"/>
<path d="M951.53 182.856L968.515 167.178C973.978 174.045 980.79 179.721 988.53 183.856C1001.53 190.856 963.53 262.856 963.53 262.856L902.53 186.856C902.53 186.856 921.932 173.96 928.231 168.908L951.53 182.856Z" fill="#3F3D56"/>
<path d="M961.53 243.856C961.53 243.856 988.33 197.137 985.43 181.997C985.43 181.997 1024.53 191.856 1026.53 204.856C1028.53 217.856 1007.53 264.856 1007.53 264.856C1007.53 264.856 1024.53 383.856 1014.53 384.856C1004.53 385.856 904.53 386.856 902.53 381.856C900.53 376.856 904.53 361.856 898.53 356.856C892.53 351.856 885.53 354.856 888.53 346.856C891.53 338.856 904.53 328.856 900.53 322.856C896.53 316.856 895.53 318.856 896.53 314.856C897.53 310.856 894.53 257.856 894.53 257.856C894.53 257.856 873.53 199.856 878.53 195.856C883.53 191.856 909.757 181.997 909.757 181.997L961.53 243.856Z" fill="#3F3D56"/>
<path d="M1041.53 399.856C1041.53 399.856 1038.53 439.856 1021.53 437.856C1004.53 435.856 1024.53 392.856 1024.53 392.856L1041.53 399.856Z" fill="#FFB8B8"/>
<path d="M892.53 398.856C892.53 398.856 898.53 422.856 905.53 420.856V392.856L902.53 387.856L892.53 398.856Z" fill="#FFB8B8"/>
<path d="M958.892 126.035C958.797 125 958.444 124.004 957.865 123.14C957.28 122.482 956.522 122.001 955.677 121.754C953.445 121.062 951.041 121.188 948.894 122.108C946.747 123.028 944.998 124.683 943.96 126.775C943.036 128.788 942.593 131.382 940.568 132.279C938.213 133.321 935.602 131.102 934.677 128.699C933.752 126.296 933.728 123.573 932.495 121.312C931.032 118.632 928.077 117.053 925.09 116.42C922.615 115.895 919.586 115.62 918.47 113.349C918.109 112.482 917.954 111.543 918.017 110.605C918.044 107.263 918.648 103.95 919.805 100.814C910.008 98.8572 901.293 108.418 891.304 108.572C890.038 108.646 888.773 108.398 887.629 107.852C885.412 106.668 884.449 104.043 883.781 101.621C883.072 99.0479 882.488 96.4445 882.03 93.8108L885.229 95.2782C884.338 93.5742 883.85 91.6882 883.804 89.7657C885.455 89.5935 887.123 89.7344 888.722 90.1809L888.955 84.4467C891.426 87.5808 896.355 86.4792 900.073 85.0284C907.25 82.2283 914.39 79.1977 921.923 77.5818C929.455 75.9659 937.529 75.847 944.652 78.7825C952.137 81.8674 957.908 88.0025 962.991 94.3038C965.809 97.7967 968.533 101.468 970.055 105.69C971.957 111.406 971.935 117.587 969.995 123.29C968.355 128.424 965.307 134.635 961.203 138.192C959.768 134.558 959.573 129.923 958.892 126.035Z" fill="#2F2E41"/>
<path d="M890.53 192.856L877.53 195.856C877.53 195.856 862.53 211.856 861.53 226.856C860.53 241.856 860.53 316.856 860.53 316.856L879.53 378.856C879.53 378.856 877.53 392.856 879.53 392.856C881.53 392.856 882.53 389.856 882.53 393.856C882.53 397.856 877.53 393.856 882.53 397.856L892.53 405.856L909.243 383.698C909.243 383.698 910.53 374.856 907.53 372.856C904.53 370.856 904.53 369.856 905.53 366.856C906.53 363.856 908.53 362.856 907.53 360.856C906.53 358.856 903.53 355.856 903.53 353.856C903.53 351.856 903.53 349.856 902.53 348.856C901.53 347.856 894.53 323.856 894.53 323.856L898.53 245.856L890.53 192.856Z" fill="#3F3D56"/>
<path d="M1016.53 197.856L1026.53 202.856C1026.53 202.856 1042.53 250.856 1042.53 292.856C1042.53 334.856 1045.53 362.856 1045.53 362.856C1045.53 362.856 1050.53 374.856 1048.53 374.856C1046.53 374.856 1044.53 374.856 1046.53 377.856C1048.53 380.856 1049.53 379.856 1048.53 382.856C1047.53 385.856 1046.53 380.856 1047.53 385.856C1048.53 390.856 1047.53 392.856 1045.53 392.856C1043.53 392.856 1043.53 405.856 1043.53 405.856L1019.53 396.856C1019.53 396.856 1023.53 391.856 1022.53 389.856C1021.92 388.607 1021.58 387.245 1021.53 385.856C1021.53 385.856 1026.53 384.856 1021.53 382.856C1016.53 380.856 1018.53 380.856 1019.53 374.856C1020.53 368.856 1023.53 369.856 1020.53 368.856C1017.53 367.856 999.53 274.856 999.53 274.856L1016.53 197.856Z" fill="#3F3D56"/>
<path d="M951.515 186.178C953.172 186.178 954.515 184.835 954.515 183.178C954.515 181.521 953.172 180.178 951.515 180.178C949.858 180.178 948.515 181.521 948.515 183.178C948.515 184.835 949.858 186.178 951.515 186.178Z" fill="#2F2E41"/>
<path d="M951.515 196.178C953.172 196.178 954.515 194.835 954.515 193.178C954.515 191.521 953.172 190.178 951.515 190.178C949.858 190.178 948.515 191.521 948.515 193.178C948.515 194.835 949.858 196.178 951.515 196.178Z" fill="#2F2E41"/>
</g>
<defs>
<clipPath id="clip0_148_62">
<rect width="1075.03" height="766.356" fill="white"/>
</clipPath>
</defs>
</svg>
