<svg width="860" height="489" viewBox="0 0 860 489" fill="none" xmlns="http://www.w3.org/2000/svg">
<g clip-path="url(#clip0_136_1152)">
<path d="M804 487.5H586.652C578.744 487.491 571.163 484.346 565.572 478.755C559.98 473.163 556.835 465.582 556.826 457.675V114.832C556.835 106.924 559.98 99.3428 565.572 93.7513C571.163 88.1598 578.744 85.0146 586.652 85.0057H804C811.908 85.0146 819.489 88.1598 825.081 93.7513C830.672 99.3428 833.817 106.924 833.826 114.832V457.675C833.817 465.582 830.672 473.163 825.081 478.755C819.489 484.346 811.908 487.491 804 487.5Z" fill="#E6E6E6"/>
<path d="M807.605 102.803H586.242C583.767 102.806 581.394 103.791 579.643 105.541C577.893 107.291 576.908 109.665 576.905 112.14V459.453C576.909 461.928 577.894 464.301 579.644 466.051C581.394 467.801 583.767 468.786 586.242 468.79H807.605C810.08 468.787 812.453 467.802 814.203 466.052C815.954 464.302 816.938 461.928 816.941 459.453V112.14C816.938 109.665 815.954 107.291 814.203 105.541C812.453 103.791 810.08 102.806 807.605 102.803Z" fill="white"/>
<path d="M591.965 85.0057C591.965 84.4008 592.206 83.8208 592.634 83.3931C593.061 82.9653 593.641 82.7247 594.246 82.724H609.762C610.367 82.724 610.947 82.9644 611.375 83.3923C611.803 83.8202 612.044 84.4006 612.044 85.0057C612.044 85.6109 611.803 86.1912 611.375 86.6191C610.947 87.047 610.367 87.2874 609.762 87.2874H594.246C593.641 87.2867 593.061 87.0461 592.634 86.6183C592.206 86.1906 591.965 85.6106 591.965 85.0057Z" fill="#E6E6E6"/>
<path d="M617.52 85.0057C617.52 84.4008 617.761 83.8208 618.189 83.3931C618.617 82.9653 619.197 82.7247 619.801 82.724H635.317C635.922 82.724 636.503 82.9644 636.931 83.3923C637.358 83.8202 637.599 84.4006 637.599 85.0057C637.599 85.6109 637.358 86.1912 636.931 86.6191C636.503 87.047 635.922 87.2874 635.317 87.2874H619.801C619.197 87.2867 618.617 87.0461 618.189 86.6183C617.761 86.1906 617.52 85.6106 617.52 85.0057Z" fill="#E6E6E6"/>
<path d="M770.851 85.0057C770.852 84.4008 771.092 83.8208 771.52 83.3931C771.948 82.9653 772.528 82.7247 773.133 82.724H788.648C789.254 82.724 789.834 82.9644 790.262 83.3923C790.69 83.8202 790.93 84.4006 790.93 85.0057C790.93 85.6109 790.69 86.1912 790.262 86.6191C789.834 87.047 789.254 87.2874 788.648 87.2874H773.133C772.528 87.2867 771.948 87.0461 771.52 86.6183C771.092 86.1906 770.852 85.6106 770.851 85.0057Z" fill="#E6E6E6"/>
<path d="M727.599 461.634C727.599 464.035 727.553 466.426 727.444 468.79H586.242C583.767 468.786 581.394 467.801 579.644 466.051C577.894 464.301 576.909 461.928 576.905 459.453V284.637C618.954 291.431 657.211 312.973 684.823 345.405C712.436 377.837 727.599 419.04 727.599 461.634Z" fill="#F2F2F2"/>
<path d="M722.804 192.056H670.143C667.747 192.056 665.804 193.999 665.804 196.395V201.809C665.804 204.206 667.747 206.148 670.143 206.148H722.804C725.2 206.148 727.143 204.206 727.143 201.809V196.395C727.143 193.999 725.2 192.056 722.804 192.056Z" fill="#6C63FF"/>
<path d="M756.273 220.241H636.673C634.277 220.241 632.334 222.183 632.334 224.58V229.994C632.334 232.39 634.277 234.333 636.673 234.333H756.273C758.669 234.333 760.612 232.39 760.612 229.994V224.58C760.612 222.183 758.669 220.241 756.273 220.241Z" fill="#E6E6E6"/>
<path d="M756.273 248.426H636.673C634.277 248.426 632.334 250.368 632.334 252.765V258.179C632.334 260.575 634.277 262.518 636.673 262.518H756.273C758.669 262.518 760.612 260.575 760.612 258.179V252.765C760.612 250.368 758.669 248.426 756.273 248.426Z" fill="#E6E6E6"/>
<path d="M796.54 133.466H597.307C596.876 133.457 596.466 133.279 596.164 132.971C595.863 132.662 595.694 132.248 595.694 131.817C595.694 131.386 595.863 130.972 596.164 130.664C596.466 130.356 596.876 130.178 597.307 130.168H796.54C796.971 130.178 797.381 130.356 797.682 130.664C797.984 130.972 798.153 131.386 798.153 131.817C798.153 132.248 797.984 132.662 797.682 132.971C797.381 133.279 796.971 133.457 796.54 133.466Z" fill="#CACACA"/>
<path d="M607.937 125.4C610.613 125.4 612.783 123.182 612.783 120.446C612.783 117.71 610.613 115.492 607.937 115.492C605.26 115.492 603.091 117.71 603.091 120.446C603.091 123.182 605.26 125.4 607.937 125.4Z" fill="#3F3D56"/>
<path d="M624.678 125.4C627.355 125.4 629.524 123.182 629.524 120.446C629.524 117.71 627.355 115.492 624.678 115.492C622.002 115.492 619.832 117.71 619.832 120.446C619.832 123.182 622.002 125.4 624.678 125.4Z" fill="#3F3D56"/>
<path d="M641.42 125.4C644.096 125.4 646.266 123.182 646.266 120.446C646.266 117.71 644.096 115.492 641.42 115.492C638.743 115.492 636.573 117.71 636.573 120.446C636.573 123.182 638.743 125.4 641.42 125.4Z" fill="#3F3D56"/>
<path d="M788.752 117.406H777.907C777.692 117.41 777.487 117.499 777.337 117.652C777.186 117.806 777.102 118.012 777.102 118.227C777.102 118.442 777.186 118.649 777.337 118.802C777.487 118.956 777.692 119.044 777.907 119.048H788.752C788.967 119.044 789.172 118.956 789.323 118.802C789.473 118.649 789.557 118.442 789.557 118.227C789.557 118.012 789.473 117.806 789.323 117.652C789.172 117.499 788.967 117.41 788.752 117.406Z" fill="#3F3D56"/>
<path d="M788.752 120.489H777.907C777.692 120.493 777.487 120.581 777.337 120.735C777.186 120.888 777.102 121.095 777.102 121.31C777.102 121.525 777.186 121.731 777.337 121.885C777.487 122.038 777.692 122.127 777.907 122.131H788.752C788.967 122.127 789.172 122.038 789.323 121.885C789.473 121.731 789.557 121.525 789.557 121.31C789.557 121.095 789.473 120.888 789.323 120.735C789.172 120.581 788.967 120.493 788.752 120.489Z" fill="#3F3D56"/>
<path d="M788.752 123.567H777.907C777.692 123.571 777.487 123.66 777.337 123.813C777.186 123.967 777.102 124.173 777.102 124.388C777.102 124.603 777.186 124.81 777.337 124.963C777.487 125.117 777.692 125.205 777.907 125.209H788.752C788.967 125.205 789.172 125.117 789.323 124.963C789.473 124.81 789.557 124.603 789.557 124.388C789.557 124.173 789.473 123.967 789.323 123.813C789.172 123.66 788.967 123.571 788.752 123.567Z" fill="#3F3D56"/>
<path d="M465.498 284.768H349.988C348.354 284.77 346.788 285.422 345.634 286.579C344.48 287.736 343.833 289.303 343.835 290.937V473.409H471.668V290.937C471.669 290.127 471.509 289.325 471.199 288.576C470.889 287.827 470.435 287.147 469.862 286.574C469.289 286.001 468.609 285.546 467.86 285.237C467.111 284.927 466.309 284.767 465.498 284.768ZM408.132 388.446C404.52 388.429 401.06 386.987 398.506 384.432C395.952 381.878 394.509 378.419 394.492 374.806V353.76C394.495 350.144 395.934 346.678 398.491 344.123C401.049 341.567 404.517 340.132 408.132 340.132C411.747 340.132 415.215 341.567 417.773 344.123C420.33 346.678 421.769 350.144 421.772 353.76V374.806C421.755 378.419 420.313 381.878 417.758 384.433C415.204 386.987 411.744 388.429 408.132 388.446Z" fill="#E6E6E6"/>
<path d="M343.438 467.573V485.178C343.44 486.09 343.803 486.964 344.448 487.609C345.093 488.254 345.968 488.617 346.88 488.619H468.623C469.534 488.615 470.407 488.251 471.051 487.606C471.696 486.962 472.06 486.089 472.064 485.178V467.573L343.438 467.573Z" fill="#CCCCCC"/>
<path d="M651.072 16H165.558C163.287 16.0049 161.11 16.9106 159.506 18.5184C157.901 20.1262 157 22.3048 157 24.5762V349.509C157.004 351.778 157.907 353.952 159.511 355.557C161.115 357.161 163.29 358.064 165.558 358.068H651.072C653.34 358.064 655.515 357.161 657.119 355.557C658.723 353.952 659.626 351.778 659.63 349.509V24.5762C659.63 22.3048 658.729 20.1262 657.124 18.5184C655.52 16.9106 653.343 16.0049 651.072 16Z" fill="white"/>
<path d="M661.209 20.1349V345.068C661.206 347.336 660.303 349.511 658.698 351.115C657.094 352.719 654.92 353.622 652.651 353.626H481.448C462.509 336.062 446.971 315.156 435.614 291.956C434.867 290.462 434.155 288.949 433.479 287.419C423.131 264.964 416.865 240.846 414.974 216.194C414.85 214.682 414.743 213.169 414.672 211.639C414.44 207.725 414.334 203.757 414.334 199.771C414.3 173.264 419.305 146.992 429.084 122.355C429.671 120.825 430.294 119.312 430.934 117.8C450.614 71.5612 486.175 33.8805 531.197 11.5587H652.651C654.923 11.5636 657.099 12.4694 658.704 14.0771C660.308 15.6849 661.209 17.8635 661.209 20.1349Z" fill="#6C63FF"/>
<path d="M628.245 56.3272H173.952C173.48 56.3171 173.03 56.1223 172.699 55.7846C172.369 55.4469 172.184 54.9932 172.184 54.5206C172.184 54.048 172.369 53.5942 172.699 53.2565C173.03 52.9188 173.48 52.7241 173.952 52.714H628.245C628.718 52.7241 629.167 52.9188 629.498 53.2565C629.828 53.5942 630.014 54.048 630.014 54.5206C630.014 54.9932 629.828 55.4469 629.498 55.7846C629.167 56.1223 628.718 56.3171 628.245 56.3272Z" fill="#CACACA"/>
<path d="M204.877 43.4899C210.724 43.4899 215.464 38.6441 215.464 32.6665C215.464 26.6888 210.724 21.843 204.877 21.843C199.029 21.843 194.289 26.6888 194.289 32.6665C194.289 38.6441 199.029 43.4899 204.877 43.4899Z" fill="#3F3D56"/>
<path d="M241.452 43.4899C247.299 43.4899 252.039 38.6441 252.039 32.6665C252.039 26.6888 247.299 21.843 241.452 21.843C235.604 21.843 230.864 26.6888 230.864 32.6665C230.864 38.6441 235.604 43.4899 241.452 43.4899Z" fill="#3F3D56"/>
<path d="M278.026 43.4899C283.874 43.4899 288.614 38.6441 288.614 32.6665C288.614 26.6888 283.874 21.843 278.026 21.843C272.179 21.843 267.439 26.6888 267.439 32.6665C267.439 38.6441 272.179 43.4899 278.026 43.4899Z" fill="#3F3D56"/>
<path d="M606.224 24.5256H580.243C579.728 24.5358 579.237 24.7476 578.877 25.1154C578.516 25.4832 578.314 25.9778 578.314 26.4929C578.314 27.008 578.516 27.5025 578.877 27.8703C579.237 28.2382 579.728 28.4499 580.243 28.4601H606.224C606.739 28.4499 607.229 28.2382 607.59 27.8703C607.951 27.5025 608.153 27.008 608.153 26.4929C608.153 25.9778 607.951 25.4832 607.59 25.1154C607.229 24.7476 606.739 24.5358 606.224 24.5256Z" fill="#3F3D56"/>
<path d="M606.224 31.91H580.243C579.728 31.9202 579.237 32.132 578.877 32.4998C578.516 32.8676 578.314 33.3622 578.314 33.8773C578.314 34.3924 578.516 34.8869 578.877 35.2547C579.237 35.6226 579.728 35.8343 580.243 35.8445H606.224C606.739 35.8343 607.229 35.6226 607.59 35.2547C607.951 34.8869 608.153 34.3924 608.153 33.8773C608.153 33.3622 607.951 32.8676 607.59 32.4998C607.229 32.132 606.739 31.9202 606.224 31.91Z" fill="#3F3D56"/>
<path d="M606.224 39.2847H580.243C579.728 39.2949 579.237 39.5066 578.877 39.8744C578.516 40.2422 578.314 40.7368 578.314 41.2519C578.314 41.767 578.516 42.2616 578.877 42.6294C579.237 42.9972 579.728 43.2089 580.243 43.2191H606.224C606.739 43.2089 607.229 42.9972 607.59 42.6294C607.951 42.2616 608.153 41.767 608.153 41.2519C608.153 40.7368 607.951 40.2422 607.59 39.8744C607.229 39.5066 606.739 39.2949 606.224 39.2847Z" fill="#3F3D56"/>
<path d="M313.051 161.871H249.522C247.126 161.871 245.183 163.813 245.183 166.21V172.972C245.183 175.369 247.126 177.311 249.522 177.311H313.051C315.447 177.311 317.39 175.369 317.39 172.972V166.21C317.39 163.813 315.447 161.871 313.051 161.871Z" fill="#6C63FF"/>
<path d="M349.723 192.752H212.851C210.455 192.752 208.512 194.694 208.512 197.091V203.853C208.512 206.25 210.455 208.192 212.851 208.192H349.723C352.119 208.192 354.062 206.25 354.062 203.853V197.091C354.062 194.694 352.119 192.752 349.723 192.752Z" fill="#E6E6E6"/>
<path d="M349.723 223.633H212.851C210.455 223.633 208.512 225.575 208.512 227.972V234.734C208.512 237.131 210.455 239.073 212.851 239.073H349.723C352.119 239.073 354.062 237.131 354.062 234.734V227.972C354.062 225.575 352.119 223.633 349.723 223.633Z" fill="#E6E6E6"/>
<path d="M220.392 334.997C220.402 341.357 219.269 347.667 217.047 353.626H167.138C164.869 353.622 162.694 352.719 161.09 351.115C159.486 349.511 158.583 347.337 158.579 345.068V282.295C161.368 281.844 164.188 281.618 167.013 281.619C174.023 281.618 180.964 282.999 187.441 285.681C193.917 288.363 199.802 292.295 204.758 297.252C209.715 302.209 213.647 308.093 216.329 314.57C219.012 321.046 220.392 327.987 220.392 334.997Z" fill="#6C63FF"/>
<path opacity="0.2" d="M661.654 122.355V117.8H585.305V65.0084H580.768V117.8H493.263V65.0084H488.726V117.8H430.935C430.294 119.312 429.671 120.825 429.084 122.355H488.726V211.639H414.672C414.743 213.169 414.85 214.682 414.974 216.194H488.726V287.419H433.479C434.155 288.949 434.867 290.462 435.614 291.956H488.726V351.829H493.263V291.956H580.768V351.829H585.305V291.956H661.654V287.419H585.305C585.305 278.066 587.148 268.804 590.727 260.162C594.306 251.521 599.553 243.669 606.167 237.055C612.78 230.442 620.632 225.195 629.274 221.616C637.915 218.036 647.177 216.194 656.53 216.194H661.654V211.639H585.305V122.355H661.654ZM580.768 287.419H493.263V216.194H580.768V287.419ZM580.768 211.639H493.263V209.86C493.263 186.652 502.482 164.395 518.893 147.984C535.303 131.574 557.56 122.355 580.768 122.355L580.768 211.639Z" fill="black"/>
<path d="M263.977 231.612V180.868C263.977 173.079 260.882 165.609 255.375 160.102C249.867 154.594 242.397 151.5 234.608 151.5H127.101C119.312 151.5 111.842 154.594 106.334 160.102C100.826 165.609 97.7322 173.079 97.7322 180.868V459.251C97.7322 467.04 100.826 474.51 106.334 480.017C111.842 485.525 119.312 488.619 127.101 488.619H234.608C238.465 488.619 242.284 487.86 245.847 486.384C249.41 484.908 252.648 482.745 255.375 480.017C258.102 477.29 260.265 474.053 261.741 470.489C263.217 466.926 263.977 463.107 263.977 459.251V267.732C264.468 267.732 264.939 267.537 265.286 267.189C265.634 266.842 265.829 266.371 265.829 265.88V233.464C265.829 232.973 265.634 232.502 265.286 232.154C264.939 231.807 264.468 231.612 263.977 231.612Z" fill="#E6E6E6"/>
<path d="M257.726 181.07V459.05C257.727 464.824 255.449 470.365 251.388 474.469C247.327 478.574 241.81 480.91 236.036 480.97C235.956 480.978 235.876 480.982 235.796 480.98H127.766C121.95 480.979 116.372 478.669 112.26 474.556C108.147 470.444 105.837 464.866 105.836 459.05V181.07C105.837 175.254 108.147 169.676 112.26 165.564C116.372 161.451 121.95 159.141 127.766 159.14H140.876C140.232 160.723 139.986 162.44 140.161 164.139C140.336 165.839 140.926 167.47 141.879 168.889C142.832 170.307 144.119 171.469 145.627 172.273C147.135 173.078 148.817 173.499 150.526 173.5H212.116C213.824 173.495 215.504 173.072 217.009 172.266C218.515 171.461 219.8 170.299 220.751 168.881C221.703 167.464 222.292 165.834 222.467 164.136C222.643 162.437 222.398 160.722 221.756 159.14H235.796C241.612 159.141 247.19 161.451 251.302 165.564C255.415 169.676 257.726 175.254 257.726 181.07Z" fill="white"/>
<path d="M236.306 472.4C236.306 475.28 236.216 478.137 236.036 480.97C235.956 480.978 235.876 480.982 235.796 480.98H127.766C121.95 480.979 116.372 478.669 112.26 474.556C108.147 470.444 105.837 464.866 105.836 459.05V335.17C141.034 336.945 174.204 352.178 198.488 377.719C222.771 403.261 236.31 437.157 236.306 472.4Z" fill="#F2F2F2"/>
<path d="M98.3262 260C97.6634 259.999 97.0279 259.735 96.5593 259.267C96.0906 258.798 95.827 258.162 95.8262 257.5V240.5C95.8262 239.837 96.0896 239.201 96.5584 238.732C97.0273 238.263 97.6631 238 98.3262 238C98.9892 238 99.6251 238.263 100.094 238.732C100.563 239.201 100.826 239.837 100.826 240.5V257.5C100.825 258.162 100.562 258.798 100.093 259.267C99.6244 259.735 98.989 259.999 98.3262 260Z" fill="#E6E6E6"/>
<path d="M195.046 246.426H168.517C166.121 246.426 164.178 248.368 164.178 250.765V257.527C164.178 259.924 166.121 261.866 168.517 261.866H195.046C197.442 261.866 199.385 259.924 199.385 257.527V250.765C199.385 248.368 197.442 246.426 195.046 246.426Z" fill="#6C63FF"/>
<path d="M231.717 277.307H131.846C129.449 277.307 127.507 279.25 127.507 281.646V288.408C127.507 290.805 129.449 292.747 131.846 292.747H231.717C234.114 292.747 236.056 290.805 236.056 288.408V281.646C236.056 279.25 234.114 277.307 231.717 277.307Z" fill="#E6E6E6"/>
<path d="M231.717 308.188H131.846C129.449 308.188 127.507 310.131 127.507 312.527V319.29C127.507 321.686 129.449 323.629 131.846 323.629H231.717C234.114 323.629 236.056 321.686 236.056 319.29V312.527C236.056 310.131 234.114 308.188 231.717 308.188Z" fill="#E6E6E6"/>
<path d="M97.8262 227C97.1634 226.999 96.5279 226.735 96.0593 226.267C95.5906 225.798 95.327 225.162 95.3262 224.5V207.5C95.3262 206.837 95.5896 206.201 96.0584 205.732C96.5273 205.263 97.1631 205 97.8262 205C98.4892 205 99.1251 205.263 99.5939 205.732C100.063 206.201 100.326 206.837 100.326 207.5V224.5C100.325 225.162 100.062 225.798 99.5931 226.267C99.1244 226.735 98.489 226.999 97.8262 227Z" fill="#E6E6E6"/>
<path d="M164.326 162C164.327 161.337 164.591 160.701 165.059 160.233C165.528 159.764 166.163 159.5 166.826 159.5H183.826C184.489 159.5 185.125 159.763 185.594 160.232C186.063 160.701 186.326 161.337 186.326 162C186.326 162.663 186.063 163.299 185.594 163.767C185.125 164.236 184.489 164.5 183.826 164.5H166.826C166.163 164.499 165.528 164.235 165.059 163.767C164.591 163.298 164.327 162.662 164.326 162Z" fill="white"/>
<path d="M98.3262 289C97.6634 288.999 97.0279 288.735 96.5593 288.267C96.0906 287.798 95.827 287.162 95.8262 286.5V269.5C95.8262 268.837 96.0896 268.201 96.5584 267.732C97.0273 267.263 97.6631 267 98.3262 267C98.9892 267 99.6251 267.263 100.094 267.732C100.563 268.201 100.826 268.837 100.826 269.5V286.5C100.825 287.162 100.562 287.798 100.093 288.267C99.6244 288.735 98.989 288.999 98.3262 289Z" fill="#E6E6E6"/>
<path d="M193.326 164.5C194.707 164.5 195.826 163.38 195.826 162C195.826 160.619 194.707 159.5 193.326 159.5C191.945 159.5 190.826 160.619 190.826 162C190.826 163.38 191.945 164.5 193.326 164.5Z" fill="white"/>
<path d="M858.941 488.613L1.19066 488.92C0.875467 488.919 0.573504 488.793 0.350952 488.57C0.1284 488.347 0.00341797 488.045 0.00341797 487.729C0.00341797 487.414 0.1284 487.112 0.350952 486.889C0.573504 486.665 0.875467 486.54 1.19066 486.539L858.941 486.231C859.256 486.231 859.559 486.357 859.783 486.58C860.006 486.803 860.131 487.106 860.131 487.422C860.131 487.738 860.006 488.041 859.783 488.264C859.559 488.487 859.256 488.613 858.941 488.613Z" fill="#CACACA"/>
<path d="M616.789 318.173C614.175 318.173 611.62 317.397 609.446 315.945C607.272 314.492 605.578 312.428 604.577 310.013C603.577 307.598 603.315 304.94 603.825 302.376C604.335 299.812 605.594 297.457 607.443 295.608C609.291 293.759 611.647 292.5 614.211 291.99C616.775 291.48 619.432 291.742 621.848 292.743C624.263 293.743 626.327 295.437 627.78 297.611C629.232 299.785 630.007 302.34 630.007 304.954C630.007 308.46 628.615 311.822 626.136 314.301C623.657 316.78 620.295 318.173 616.789 318.173Z" fill="#E6E6E6"/>
<path d="M621.399 307.72L618.633 304.954L621.399 302.189C621.644 301.944 621.781 301.612 621.781 301.267C621.781 300.921 621.644 300.589 621.399 300.345C621.155 300.1 620.823 299.963 620.477 299.963C620.131 299.963 619.8 300.1 619.555 300.345L616.789 303.111L614.023 300.345C613.779 300.1 613.447 299.963 613.101 299.963C612.756 299.963 612.424 300.1 612.179 300.345C611.935 300.589 611.797 300.921 611.797 301.267C611.797 301.612 611.935 301.944 612.179 302.189L614.945 304.954L612.179 307.72C611.935 307.965 611.797 308.297 611.797 308.642C611.797 308.988 611.935 309.32 612.179 309.564C612.424 309.809 612.756 309.946 613.101 309.946C613.447 309.946 613.779 309.809 614.023 309.564L616.789 306.799L619.555 309.564C619.8 309.809 620.131 309.946 620.477 309.946C620.823 309.946 621.155 309.809 621.399 309.564C621.644 309.32 621.781 308.988 621.781 308.642C621.781 308.297 621.644 307.965 621.399 307.72Z" fill="white"/>
<path d="M559.2 162.08C573.727 162.08 585.504 150.303 585.504 135.776C585.504 121.248 573.727 109.471 559.2 109.471C544.672 109.471 532.895 121.248 532.895 135.776C532.895 150.303 544.672 162.08 559.2 162.08Z" fill="#E6E6E6"/>
<path d="M555.611 149.466C555.157 149.466 554.709 149.36 554.302 149.157C553.896 148.954 553.543 148.659 553.27 148.295L546.094 138.727C545.863 138.419 545.696 138.069 545.6 137.697C545.505 137.325 545.484 136.938 545.538 136.557C545.593 136.177 545.721 135.811 545.917 135.48C546.113 135.15 546.372 134.861 546.679 134.63C546.987 134.4 547.336 134.232 547.709 134.137C548.081 134.041 548.468 134.02 548.849 134.075C549.229 134.129 549.595 134.258 549.926 134.453C550.256 134.649 550.545 134.908 550.776 135.216L555.471 141.475L567.529 123.388C567.742 123.068 568.016 122.793 568.335 122.579C568.655 122.365 569.013 122.216 569.39 122.141C569.767 122.065 570.155 122.065 570.532 122.14C570.909 122.214 571.267 122.362 571.587 122.575C571.907 122.789 572.182 123.063 572.395 123.382C572.609 123.701 572.758 124.06 572.833 124.437C572.909 124.814 572.909 125.202 572.834 125.579C572.76 125.956 572.611 126.314 572.398 126.634L558.046 148.163C557.786 148.552 557.437 148.873 557.027 149.1C556.618 149.327 556.16 149.452 555.692 149.465C555.665 149.465 555.638 149.466 555.611 149.466Z" fill="#6C63FF"/>
<path d="M593.339 183.231H526.221C523.422 183.231 521.152 185.501 521.152 188.301V194.682C521.152 197.482 523.422 199.752 526.221 199.752H593.339C596.139 199.752 598.409 197.482 598.409 194.682V188.301C598.409 185.501 596.139 183.231 593.339 183.231Z" fill="#E6E6E6"/>
<path d="M632.575 216.272H486.985C484.185 216.272 481.916 218.542 481.916 221.342V227.723C481.916 230.523 484.185 232.793 486.985 232.793H632.575C635.375 232.793 637.644 230.523 637.644 227.723V221.342C637.644 218.542 635.375 216.272 632.575 216.272Z" fill="#E6E6E6"/>
<path d="M632.575 249.313H486.985C484.185 249.313 481.916 251.583 481.916 254.383V260.764C481.916 263.564 484.185 265.833 486.985 265.833H632.575C635.375 265.833 637.644 263.564 637.644 260.764V254.383C637.644 251.583 635.375 249.313 632.575 249.313Z" fill="#E6E6E6"/>
<path d="M695.284 345.609C709.812 345.609 721.589 333.832 721.589 319.304C721.589 304.777 709.812 293 695.284 293C680.756 293 668.979 304.777 668.979 319.304C668.979 333.832 680.756 345.609 695.284 345.609Z" fill="#6C63FF"/>
<path d="M182 383C193.598 383 203 373.598 203 362C203 350.402 193.598 341 182 341C170.402 341 161 350.402 161 362C161 373.598 170.402 383 182 383Z" fill="#6C63FF"/>
<path d="M692.196 333.434C691.742 333.434 691.294 333.328 690.888 333.125C690.481 332.922 690.128 332.627 689.856 332.264L682.679 322.695C682.449 322.388 682.281 322.038 682.186 321.666C682.09 321.293 682.069 320.906 682.124 320.526C682.178 320.145 682.307 319.779 682.503 319.449C682.698 319.118 682.957 318.829 683.265 318.599C683.572 318.368 683.922 318.201 684.294 318.105C684.666 318.01 685.054 317.989 685.434 318.043C685.814 318.097 686.18 318.226 686.511 318.422C686.842 318.618 687.13 318.877 687.361 319.184L692.056 325.444L704.114 307.356C704.327 307.036 704.601 306.762 704.921 306.548C705.24 306.334 705.598 306.185 705.975 306.109C706.352 306.034 706.74 306.034 707.117 306.108C707.494 306.183 707.853 306.331 708.173 306.544C708.492 306.757 708.767 307.031 708.981 307.351C709.195 307.67 709.344 308.028 709.419 308.405C709.494 308.782 709.494 309.17 709.42 309.547C709.345 309.924 709.197 310.283 708.984 310.602L694.631 332.131C694.371 332.521 694.022 332.842 693.613 333.069C693.203 333.295 692.746 333.42 692.278 333.433C692.251 333.434 692.223 333.434 692.196 333.434Z" fill="white"/>
<path d="M179.117 373C178.752 373 178.392 372.915 178.065 372.752C177.739 372.589 177.455 372.351 177.236 372.059L171.47 364.372C171.285 364.125 171.15 363.844 171.074 363.544C170.997 363.245 170.98 362.934 171.024 362.629C171.067 362.323 171.171 362.029 171.328 361.763C171.485 361.498 171.693 361.266 171.94 361.08C172.187 360.895 172.468 360.76 172.767 360.684C173.067 360.607 173.378 360.59 173.683 360.634C173.989 360.678 174.283 360.781 174.549 360.938C174.814 361.096 175.046 361.304 175.232 361.551L179.004 366.58L188.692 352.047C188.864 351.79 189.084 351.57 189.34 351.398C189.597 351.226 189.885 351.106 190.188 351.046C190.49 350.985 190.802 350.985 191.105 351.045C191.408 351.105 191.696 351.224 191.953 351.395C192.21 351.566 192.431 351.786 192.603 352.043C192.774 352.3 192.894 352.587 192.954 352.89C193.015 353.193 193.015 353.505 192.955 353.808C192.895 354.111 192.776 354.399 192.605 354.656L181.073 371.953C180.864 372.266 180.584 372.524 180.255 372.706C179.926 372.888 179.558 372.989 179.182 372.999C179.16 373 179.138 373 179.117 373Z" fill="white"/>
<path d="M729.423 366.76H662.306C659.506 366.76 657.236 369.03 657.236 371.83V378.211C657.236 381.011 659.506 383.281 662.306 383.281H729.423C732.223 383.281 734.493 381.011 734.493 378.211V371.83C734.493 369.03 732.223 366.76 729.423 366.76Z" fill="#D9D9D9"/>
<path d="M206.997 399H154.003C151.792 399 150 400.786 150 402.989V408.011C150 410.214 151.792 412 154.003 412H206.997C209.208 412 211 410.214 211 408.011V402.989C211 400.786 209.208 399 206.997 399Z" fill="#DCDCDC"/>
<path d="M768.659 399.801H623.07C620.27 399.801 618 402.071 618 404.871V411.252C618 414.052 620.27 416.322 623.07 416.322H768.659C771.459 416.322 773.729 414.052 773.729 411.252V404.871C773.729 402.071 771.459 399.801 768.659 399.801Z" fill="#D9D9D9"/>
<path d="M237.996 425H123.004C120.793 425 119 426.786 119 428.989V434.011C119 436.214 120.793 438 123.004 438H237.996C240.207 438 242 436.214 242 434.011V428.989C242 426.786 240.207 425 237.996 425Z" fill="#DCDCDC"/>
<path d="M768.659 432.842H623.07C620.27 432.842 618 435.112 618 437.911V444.293C618 447.093 620.27 449.362 623.07 449.362H768.659C771.459 449.362 773.729 447.093 773.729 444.293V437.911C773.729 435.112 771.459 432.842 768.659 432.842Z" fill="#D9D9D9"/>
<path d="M237.996 451H123.004C120.793 451 119 452.786 119 454.989V460.011C119 462.214 120.793 464 123.004 464H237.996C240.207 464 242 462.214 242 460.011V454.989C242 452.786 240.207 451 237.996 451Z" fill="#DCDCDC"/>
<path d="M239.752 165.406H228.907C228.692 165.41 228.487 165.499 228.337 165.652C228.186 165.806 228.102 166.012 228.102 166.227C228.102 166.442 228.186 166.649 228.337 166.802C228.487 166.956 228.692 167.044 228.907 167.048H239.752C239.967 167.044 240.172 166.956 240.323 166.802C240.473 166.649 240.557 166.442 240.557 166.227C240.557 166.012 240.473 165.806 240.323 165.652C240.172 165.499 239.967 165.41 239.752 165.406Z" fill="#3F3D56"/>
<path d="M239.752 168.489H228.907C228.692 168.493 228.487 168.581 228.337 168.735C228.186 168.888 228.102 169.095 228.102 169.31C228.102 169.525 228.186 169.731 228.337 169.885C228.487 170.038 228.692 170.127 228.907 170.131H239.752C239.967 170.127 240.172 170.038 240.323 169.885C240.473 169.731 240.557 169.525 240.557 169.31C240.557 169.095 240.473 168.888 240.323 168.735C240.172 168.581 239.967 168.493 239.752 168.489Z" fill="#3F3D56"/>
<path d="M239.752 171.567H228.907C228.692 171.571 228.487 171.66 228.337 171.813C228.186 171.967 228.102 172.173 228.102 172.388C228.102 172.603 228.186 172.81 228.337 172.963C228.487 173.117 228.692 173.205 228.907 173.209H239.752C239.967 173.205 240.172 173.117 240.323 172.963C240.473 172.81 240.557 172.603 240.557 172.388C240.557 172.173 240.473 171.967 240.323 171.813C240.172 171.66 239.967 171.571 239.752 171.567Z" fill="#3F3D56"/>
<path d="M247.932 180H116.068C115.782 179.991 115.511 179.83 115.311 179.549C115.112 179.269 115 178.892 115 178.5C115 178.108 115.112 177.731 115.311 177.451C115.511 177.17 115.782 177.009 116.068 177H247.932C248.218 177.009 248.489 177.17 248.689 177.451C248.888 177.731 249 178.108 249 178.5C249 178.892 248.888 179.269 248.689 179.549C248.489 179.83 248.218 179.991 247.932 180Z" fill="#CACACA"/>
</g>
<defs>
<clipPath id="clip0_136_1152">
<rect width="860" height="489" fill="white"/>
</clipPath>
</defs>
</svg>
