<svg width="1661" height="1095" viewBox="0 0 1661 1095" fill="none" xmlns="http://www.w3.org/2000/svg">
<path d="M1214.81 1093.44H971.354C962.497 1093.43 954.005 1090.15 947.742 1084.32C941.479 1078.49 937.956 1070.58 937.946 1062.34V704.864C937.956 696.619 941.479 688.715 947.742 682.884C954.005 677.054 962.497 673.775 971.354 673.766H1214.81C1223.67 673.775 1232.16 677.054 1238.42 682.884C1244.68 688.715 1248.21 696.619 1248.22 704.864V1062.34C1248.21 1070.58 1244.68 1078.49 1238.42 1084.32C1232.16 1090.15 1223.67 1093.43 1214.81 1093.44Z" fill="#3F3D56"/>
<path d="M1218.85 692.322H970.896C968.123 692.326 965.465 693.352 963.504 695.177C961.544 697.002 960.441 699.477 960.438 702.058V1064.19C960.442 1066.77 961.545 1069.25 963.505 1071.07C965.466 1072.9 968.123 1073.92 970.896 1073.93H1218.85C1221.62 1073.92 1224.28 1072.9 1226.24 1071.07C1228.2 1069.25 1229.3 1066.77 1229.3 1064.19V702.058C1229.3 699.477 1228.2 697.002 1226.24 695.177C1224.28 693.352 1221.62 692.326 1218.85 692.322Z" fill="white"/>
<path d="M977.305 673.766C977.305 673.135 977.575 672.53 978.054 672.084C978.533 671.638 979.183 671.387 979.86 671.386H997.24C997.917 671.386 998.568 671.637 999.047 672.083C999.526 672.529 999.795 673.135 999.795 673.766C999.795 674.397 999.526 675.002 999.047 675.448C998.568 675.894 997.917 676.145 997.24 676.145H979.86C979.183 676.144 978.533 675.893 978.054 675.447C977.575 675.001 977.305 674.396 977.305 673.766Z" fill="#E6E6E6"/>
<path d="M1005.93 673.766C1005.93 673.135 1006.2 672.53 1006.68 672.084C1007.16 671.638 1007.81 671.387 1008.49 671.386H1025.86C1026.54 671.386 1027.19 671.637 1027.67 672.083C1028.15 672.529 1028.42 673.135 1028.42 673.766C1028.42 674.397 1028.15 675.002 1027.67 675.448C1027.19 675.894 1026.54 676.145 1025.86 676.145H1008.49C1007.81 676.144 1007.16 675.893 1006.68 675.447C1006.2 675.001 1005.93 674.396 1005.93 673.766Z" fill="#E6E6E6"/>
<path d="M1177.68 673.766C1177.68 673.135 1177.95 672.53 1178.43 672.084C1178.91 671.638 1179.55 671.387 1180.23 671.386H1197.61C1198.29 671.386 1198.94 671.637 1199.42 672.083C1199.9 672.529 1200.17 673.135 1200.17 673.766C1200.17 674.397 1199.9 675.002 1199.42 675.448C1198.94 675.894 1198.29 676.145 1197.61 676.145H1180.23C1179.55 676.144 1178.91 675.893 1178.43 675.447C1177.95 675.001 1177.68 674.396 1177.68 673.766Z" fill="#E6E6E6"/>
<path d="M1129.23 1066.47C1129.23 1068.97 1129.18 1071.46 1129.06 1073.93H970.896C968.123 1073.92 965.466 1072.9 963.505 1071.07C961.545 1069.25 960.442 1066.77 960.438 1064.19V881.917C1007.54 889 1050.39 911.461 1081.32 945.277C1112.25 979.093 1129.23 1022.05 1129.23 1066.47Z" fill="#F2F2F2"/>
<path d="M1123.86 785.384H1064.87C1062.19 785.384 1060.01 787.41 1060.01 789.908V795.554C1060.01 798.053 1062.19 800.078 1064.87 800.078H1123.86C1126.54 800.078 1128.72 798.053 1128.72 795.554V789.908C1128.72 787.41 1126.54 785.384 1123.86 785.384Z" fill="#6C63FF"/>
<path d="M1161.35 814.772H1027.38C1024.7 814.772 1022.52 816.797 1022.52 819.296V824.941C1022.52 827.44 1024.7 829.465 1027.38 829.465H1161.35C1164.03 829.465 1166.21 827.44 1166.21 824.941V819.296C1166.21 816.797 1164.03 814.772 1161.35 814.772Z" fill="#E6E6E6"/>
<path d="M1161.35 844.159H1027.38C1024.7 844.159 1022.52 846.185 1022.52 848.683V854.329C1022.52 856.827 1024.7 858.853 1027.38 858.853H1161.35C1164.03 858.853 1166.21 856.827 1166.21 854.329V848.683C1166.21 846.185 1164.03 844.159 1161.35 844.159Z" fill="#E6E6E6"/>
<path d="M1206.45 724.294H983.289C982.806 724.284 982.347 724.099 982.009 723.777C981.672 723.456 981.482 723.024 981.482 722.575C981.482 722.125 981.672 721.694 982.009 721.372C982.347 721.051 982.806 720.865 983.289 720.856H1206.45C1206.93 720.865 1207.39 721.051 1207.73 721.372C1208.07 721.694 1208.26 722.125 1208.26 722.575C1208.26 723.024 1208.07 723.456 1207.73 723.777C1207.39 724.099 1206.93 724.284 1206.45 724.294Z" fill="#CACACA"/>
<path d="M995.196 715.884C998.194 715.884 1000.62 713.571 1000.62 710.718C1000.62 707.866 998.194 705.553 995.196 705.553C992.198 705.553 989.768 707.866 989.768 710.718C989.768 713.571 992.198 715.884 995.196 715.884Z" fill="#3F3D56"/>
<path d="M1013.95 715.884C1016.95 715.884 1019.38 713.571 1019.38 710.718C1019.38 707.866 1016.95 705.553 1013.95 705.553C1010.95 705.553 1008.52 707.866 1008.52 710.718C1008.52 713.571 1010.95 715.884 1013.95 715.884Z" fill="#3F3D56"/>
<path d="M1032.7 715.884C1035.7 715.884 1038.13 713.571 1038.13 710.718C1038.13 707.866 1035.7 705.553 1032.7 705.553C1029.7 705.553 1027.27 707.866 1027.27 710.718C1027.27 713.571 1029.7 715.884 1032.7 715.884Z" fill="#3F3D56"/>
<path d="M1197.73 707.549H1185.58C1185.34 707.553 1185.11 707.645 1184.94 707.805C1184.77 707.965 1184.68 708.181 1184.68 708.405C1184.68 708.629 1184.77 708.844 1184.94 709.004C1185.11 709.164 1185.34 709.257 1185.58 709.261H1197.73C1197.97 709.257 1198.2 709.164 1198.37 709.004C1198.54 708.844 1198.63 708.629 1198.63 708.405C1198.63 708.181 1198.54 707.965 1198.37 707.805C1198.2 707.645 1197.97 707.553 1197.73 707.549Z" fill="#3F3D56"/>
<path d="M1197.73 710.763H1185.58C1185.34 710.767 1185.11 710.859 1184.94 711.019C1184.77 711.179 1184.68 711.395 1184.68 711.619C1184.68 711.843 1184.77 712.058 1184.94 712.218C1185.11 712.378 1185.34 712.471 1185.58 712.475H1197.73C1197.97 712.471 1198.2 712.378 1198.37 712.218C1198.54 712.058 1198.63 711.843 1198.63 711.619C1198.63 711.395 1198.54 711.179 1198.37 711.019C1198.2 710.859 1197.97 710.767 1197.73 710.763Z" fill="#3F3D56"/>
<path d="M1197.73 713.972H1185.58C1185.34 713.977 1185.11 714.069 1184.94 714.229C1184.77 714.389 1184.68 714.604 1184.68 714.828C1184.68 715.053 1184.77 715.268 1184.94 715.428C1185.11 715.588 1185.34 715.68 1185.58 715.685H1197.73C1197.97 715.68 1198.2 715.588 1198.37 715.428C1198.54 715.268 1198.63 715.053 1198.63 714.828C1198.63 714.604 1198.54 714.389 1198.37 714.229C1198.2 714.069 1197.97 713.977 1197.73 713.972Z" fill="#3F3D56"/>
<path d="M835.65 882.052H706.266C704.436 882.055 702.681 882.734 701.389 883.94C700.096 885.147 699.371 886.781 699.373 888.485V1078.74H842.56V888.485C842.561 887.64 842.382 886.804 842.035 886.023C841.688 885.242 841.179 884.533 840.537 883.936C839.895 883.338 839.133 882.864 838.295 882.541C837.456 882.218 836.557 882.052 835.65 882.052ZM771.393 990.155C767.347 990.137 763.472 988.633 760.611 985.97C757.75 983.307 756.134 979.7 756.115 975.933V953.989C756.118 950.219 757.73 946.604 760.594 943.94C763.459 941.276 767.343 939.779 771.393 939.779C775.443 939.779 779.327 941.276 782.192 943.94C785.056 946.604 786.668 950.219 786.671 953.989V975.933C786.652 979.7 785.037 983.307 782.175 985.97C779.314 988.634 775.439 990.138 771.393 990.155Z" fill="#3F3D56"/>
<path d="M698.929 1072.66V1091.01C698.931 1091.97 699.338 1092.88 700.06 1093.55C700.783 1094.22 701.762 1094.6 702.784 1094.6H839.149C840.17 1094.6 841.148 1094.22 841.869 1093.55C842.591 1092.87 842.999 1091.96 843.004 1091.01V1072.66L698.929 1072.66Z" fill="#CCCCCC"/>
<path d="M1043.51 601.815H499.684C497.14 601.82 494.702 602.765 492.904 604.441C491.107 606.117 490.098 608.389 490.098 610.757V949.556C490.102 951.922 491.113 954.189 492.91 955.862C494.707 957.535 497.143 958.476 499.684 958.48H1043.51C1046.05 958.476 1048.49 957.535 1050.29 955.862C1052.08 954.189 1053.09 951.922 1053.1 949.556V610.757C1053.1 608.389 1052.09 606.117 1050.29 604.441C1048.49 602.765 1046.06 601.82 1043.51 601.815Z" fill="white"/>
<path d="M1054.87 606.126V944.926C1054.86 947.291 1053.85 949.559 1052.05 951.231C1050.26 952.904 1047.82 953.845 1045.28 953.849H853.515C832.301 935.536 814.897 913.737 802.175 889.548C801.338 887.989 800.541 886.412 799.784 884.817C788.193 861.404 781.174 836.256 779.057 810.553C778.917 808.976 778.797 807.399 778.718 805.803C778.459 801.722 778.339 797.585 778.339 793.429C778.301 765.791 783.908 738.397 794.861 712.708C795.519 711.113 796.216 709.536 796.934 707.959C818.977 659.747 858.809 620.459 909.239 597.184H1045.28C1047.82 597.189 1050.26 598.134 1052.06 599.81C1053.86 601.487 1054.87 603.758 1054.87 606.126Z" fill="#6C63FF"/>
<path d="M1017.94 643.863H509.085C508.556 643.853 508.052 643.65 507.682 643.298C507.312 642.945 507.104 642.472 507.104 641.98C507.104 641.487 507.312 641.014 507.682 640.662C508.052 640.309 508.556 640.106 509.085 640.096H1017.94C1018.47 640.106 1018.98 640.309 1019.35 640.662C1019.72 641.014 1019.92 641.487 1019.92 641.98C1019.92 642.472 1019.72 642.945 1019.35 643.298C1018.98 643.65 1018.47 643.853 1017.94 643.863Z" fill="#CACACA"/>
<path d="M543.724 630.478C550.274 630.478 555.584 625.425 555.584 619.193C555.584 612.96 550.274 607.907 543.724 607.907C537.175 607.907 531.865 612.96 531.865 619.193C531.865 625.425 537.175 630.478 543.724 630.478Z" fill="#3F3D56"/>
<path d="M584.692 630.478C591.242 630.478 596.551 625.425 596.551 619.193C596.551 612.96 591.242 607.907 584.692 607.907C578.143 607.907 572.833 612.96 572.833 619.193C572.833 625.425 578.143 630.478 584.692 630.478Z" fill="#3F3D56"/>
<path d="M625.66 630.478C632.21 630.478 637.519 625.425 637.519 619.193C637.519 612.96 632.21 607.907 625.66 607.907C619.11 607.907 613.801 612.96 613.801 619.193C613.801 625.425 619.11 630.478 625.66 630.478Z" fill="#3F3D56"/>
<path d="M993.277 610.704H964.175C963.598 610.715 963.049 610.936 962.645 611.319C962.241 611.703 962.015 612.219 962.015 612.756C962.015 613.293 962.241 613.808 962.645 614.192C963.049 614.575 963.598 614.796 964.175 614.807H993.277C993.853 614.796 994.403 614.575 994.807 614.192C995.211 613.808 995.437 613.293 995.437 612.756C995.437 612.219 995.211 611.703 994.807 611.319C994.403 610.936 993.853 610.715 993.277 610.704Z" fill="#3F3D56"/>
<path d="M993.277 618.404H964.175C963.598 618.415 963.049 618.635 962.645 619.019C962.241 619.402 962.015 619.918 962.015 620.455C962.015 620.992 962.241 621.508 962.645 621.891C963.049 622.275 963.598 622.496 964.175 622.506H993.277C993.853 622.496 994.403 622.275 994.807 621.891C995.211 621.508 995.437 620.992 995.437 620.455C995.437 619.918 995.211 619.402 994.807 619.019C994.403 618.635 993.853 618.415 993.277 618.404Z" fill="#3F3D56"/>
<path d="M993.277 626.093H964.175C963.598 626.104 963.049 626.325 962.645 626.708C962.241 627.092 962.015 627.607 962.015 628.145C962.015 628.682 962.241 629.197 962.645 629.581C963.049 629.964 963.598 630.185 964.175 630.196H993.277C993.853 630.185 994.403 629.964 994.807 629.581C995.211 629.197 995.437 628.682 995.437 628.145C995.437 627.607 995.211 627.092 994.807 626.708C994.403 626.325 993.853 626.104 993.277 626.093Z" fill="#3F3D56"/>
<path d="M664.891 753.911H593.732C591.048 753.911 588.872 755.936 588.872 758.435V765.486C588.872 767.985 591.048 770.01 593.732 770.01H664.891C667.576 770.01 669.752 767.985 669.752 765.486V758.435C669.752 755.936 667.576 753.911 664.891 753.911Z" fill="#6C63FF"/>
<path d="M705.968 786.11H552.657C549.973 786.11 547.797 788.135 547.797 790.634V797.685C547.797 800.184 549.973 802.209 552.657 802.209H705.968C708.652 802.209 710.828 800.184 710.828 797.685V790.634C710.828 788.135 708.652 786.11 705.968 786.11Z" fill="#E6E6E6"/>
<path d="M705.968 818.308H552.657C549.973 818.308 547.797 820.334 547.797 822.833V829.884C547.797 832.382 549.973 834.408 552.657 834.408H705.968C708.652 834.408 710.828 832.382 710.828 829.884V822.833C710.828 820.334 708.652 818.308 705.968 818.308Z" fill="#E6E6E6"/>
<path d="M561.104 934.425C561.116 941.057 559.847 947.636 557.357 953.849H501.453C498.912 953.845 496.477 952.904 494.68 951.231C492.883 949.558 491.872 947.291 491.867 944.926V879.474C494.991 879.004 498.15 878.768 501.314 878.769C509.166 878.768 516.941 880.208 524.195 883.004C531.449 885.801 538.041 889.901 543.593 895.069C549.145 900.237 553.549 906.373 556.554 913.126C559.558 919.879 561.104 927.116 561.104 934.425Z" fill="#6C63FF"/>
<path opacity="0.2" d="M1055.37 712.708V707.959H969.847V652.915H964.764V707.959H866.749V652.915H861.667V707.959H796.935C796.217 709.536 795.52 711.113 794.862 712.708H861.667V805.803H778.719C778.798 807.399 778.918 808.976 779.058 810.553H861.667V884.817H799.785C800.542 886.412 801.339 887.989 802.176 889.548H861.667V951.975H866.749V889.548H964.764V951.975H969.847V889.548H1055.37V884.817H969.847C969.847 875.064 971.91 865.407 975.919 856.397C979.929 847.387 985.805 839.2 993.214 832.304C1000.62 825.408 1009.42 819.938 1019.1 816.205C1028.78 812.473 1039.15 810.552 1049.63 810.552H1055.37V805.803H969.847V712.708H1055.37ZM964.764 884.817H866.749V810.552H964.764V884.817ZM964.764 805.803H866.749V803.948C866.749 779.75 877.076 756.543 895.457 739.432C913.839 722.321 938.769 712.708 964.764 712.708L964.764 805.803Z" fill="black"/>
<path d="M609.923 826.628V773.719C609.923 765.598 606.457 757.809 600.288 752.066C594.118 746.323 585.751 743.097 577.026 743.097H456.607C447.883 743.097 439.515 746.323 433.346 752.066C427.177 757.809 423.711 765.598 423.711 773.719V1063.98C423.711 1072.1 427.177 1079.89 433.346 1085.63C439.515 1091.38 447.883 1094.6 456.607 1094.6H577.026C581.346 1094.6 585.624 1093.81 589.615 1092.27C593.606 1090.73 597.233 1088.48 600.288 1085.63C603.342 1082.79 605.765 1079.41 607.419 1075.7C609.072 1071.98 609.923 1068 609.923 1063.98V864.289C610.473 864.289 611.001 864.086 611.39 863.724C611.779 863.361 611.997 862.87 611.997 862.358V828.559C611.997 828.047 611.779 827.556 611.39 827.194C611.001 826.831 610.473 826.628 609.923 826.628Z" fill="#3F3D56"/>
<path d="M602.921 773.929V1063.77C602.922 1069.79 600.371 1075.57 595.822 1079.85C591.273 1084.13 585.093 1086.56 578.626 1086.63C578.537 1086.64 578.447 1086.64 578.357 1086.64H457.352C450.837 1086.64 444.59 1084.23 439.983 1079.94C435.377 1075.65 432.789 1069.84 432.788 1063.77V773.929C432.789 767.865 435.377 762.049 439.983 757.761C444.59 753.473 450.837 751.064 457.352 751.063H472.037C471.315 752.714 471.04 754.504 471.236 756.276C471.431 758.049 472.092 759.749 473.16 761.228C474.227 762.707 475.669 763.919 477.358 764.757C479.047 765.596 480.932 766.035 482.846 766.036H551.833C553.746 766.031 555.628 765.59 557.314 764.75C559 763.91 560.439 762.698 561.505 761.22C562.571 759.742 563.231 758.043 563.428 756.272C563.624 754.502 563.35 752.713 562.631 751.063H578.357C584.872 751.064 591.12 753.473 595.726 757.761C600.333 762.049 602.921 767.865 602.921 773.929Z" fill="white"/>
<path d="M578.929 1077.69C578.929 1080.69 578.828 1083.67 578.626 1086.63C578.537 1086.64 578.447 1086.64 578.357 1086.64H457.352C450.837 1086.64 444.59 1084.23 439.983 1079.94C435.377 1075.65 432.789 1069.84 432.788 1063.77V934.605C472.214 936.456 509.368 952.339 536.568 978.97C563.768 1005.6 578.933 1040.94 578.929 1077.69Z" fill="#F2F2F2"/>
<path d="M424.376 856.227C423.634 856.226 422.922 855.951 422.397 855.463C421.872 854.974 421.577 854.312 421.576 853.62V835.895C421.576 835.204 421.871 834.541 422.396 834.052C422.922 833.563 423.634 833.288 424.376 833.288C425.119 833.288 425.831 833.563 426.357 834.052C426.882 834.541 427.177 835.204 427.177 835.895V853.62C427.176 854.312 426.881 854.974 426.356 855.463C425.831 855.951 425.119 856.226 424.376 856.227Z" fill="#E6E6E6"/>
<path d="M532.713 842.074H502.998C500.314 842.074 498.138 844.1 498.138 846.598V853.649C498.138 856.148 500.314 858.173 502.998 858.173H532.713C535.397 858.173 537.573 856.148 537.573 853.649V846.598C537.573 844.1 535.397 842.074 532.713 842.074Z" fill="#6C63FF"/>
<path d="M573.789 874.273H461.922C459.237 874.273 457.062 876.298 457.062 878.797V885.848C457.062 888.347 459.237 890.372 461.922 890.372H573.789C576.473 890.372 578.649 888.347 578.649 885.848V878.797C578.649 876.298 576.473 874.273 573.789 874.273Z" fill="#E6E6E6"/>
<path d="M573.789 906.472H461.922C459.237 906.472 457.062 908.497 457.062 910.996V918.047C457.062 920.546 459.237 922.571 461.922 922.571H573.789C576.473 922.571 578.649 920.546 578.649 918.047V910.996C578.649 908.497 576.473 906.472 573.789 906.472Z" fill="#E6E6E6"/>
<path d="M423.817 821.819C423.074 821.818 422.363 821.543 421.838 821.055C421.313 820.566 421.017 819.903 421.017 819.212V801.487C421.017 800.795 421.312 800.132 421.837 799.644C422.362 799.155 423.074 798.88 423.817 798.88C424.56 798.88 425.272 799.155 425.797 799.644C426.322 800.132 426.617 800.795 426.617 801.487V819.212C426.616 819.903 426.321 820.566 425.796 821.055C425.271 821.543 424.559 821.818 423.817 821.819Z" fill="#E6E6E6"/>
<path d="M498.304 754.045C498.305 753.354 498.6 752.692 499.125 752.203C499.65 751.714 500.362 751.439 501.104 751.438H520.146C520.888 751.438 521.601 751.713 522.126 752.202C522.651 752.691 522.946 753.354 522.946 754.045C522.946 754.736 522.651 755.4 522.126 755.888C521.601 756.377 520.888 756.652 520.146 756.652H501.104C500.362 756.651 499.65 756.376 499.125 755.887C498.6 755.399 498.305 754.736 498.304 754.045Z" fill="white"/>
<path d="M424.376 886.465C423.634 886.464 422.922 886.189 422.397 885.7C421.872 885.212 421.577 884.549 421.576 883.858V866.133C421.576 865.441 421.871 864.778 422.396 864.289C422.922 863.801 423.634 863.526 424.376 863.526C425.119 863.526 425.831 863.801 426.357 864.289C426.882 864.778 427.177 865.441 427.177 866.133V883.858C427.176 884.549 426.881 885.212 426.356 885.7C425.831 886.189 425.119 886.464 424.376 886.465Z" fill="#E6E6E6"/>
<path d="M530.787 756.652C532.333 756.652 533.587 755.485 533.587 754.045C533.587 752.606 532.333 751.438 530.787 751.438C529.24 751.438 527.986 752.606 527.986 754.045C527.986 755.485 529.24 756.652 530.787 756.652Z" fill="white"/>
<path d="M1276.23 1094.66L1.76403 1095C1.29571 1095 0.847048 1094.86 0.516375 1094.61C0.185702 1094.36 0 1094.02 0 1093.67C0 1093.32 0.185702 1092.98 0.516375 1092.73C0.847048 1092.48 1.29571 1092.34 1.76403 1092.34L1276.23 1092C1276.7 1092 1277.15 1092.14 1277.48 1092.39C1277.81 1092.64 1278 1092.98 1278 1093.33C1278 1093.68 1277.81 1094.02 1277.48 1094.27C1277.15 1094.52 1276.7 1094.66 1276.23 1094.66Z" fill="#3F3D56"/>
<path d="M1005.11 916.883C1002.18 916.883 999.321 916.074 996.886 914.56C994.451 913.045 992.553 910.893 991.433 908.375C990.312 905.856 990.019 903.085 990.59 900.412C991.161 897.738 992.572 895.283 994.642 893.355C996.713 891.428 999.351 890.115 1002.22 889.583C1005.09 889.051 1008.07 889.324 1010.78 890.367C1013.48 891.411 1015.79 893.177 1017.42 895.444C1019.05 897.71 1019.92 900.375 1019.92 903.1C1019.92 906.756 1018.36 910.261 1015.58 912.846C1012.8 915.431 1009.04 916.883 1005.11 916.883Z" fill="#E6E6E6"/>
<path d="M1010.27 905.984L1007.18 903.1L1010.27 900.216C1010.55 899.961 1010.7 899.616 1010.7 899.255C1010.7 898.894 1010.55 898.549 1010.27 898.294C1010 898.039 1009.63 897.896 1009.24 897.896C1008.85 897.896 1008.48 898.039 1008.21 898.294L1005.11 901.178L1002.01 898.294C1001.74 898.039 1001.37 897.896 1000.98 897.896C1000.59 897.896 1000.22 898.039 999.947 898.294C999.673 898.549 999.52 898.894 999.52 899.255C999.52 899.616 999.673 899.961 999.947 900.216L1003.05 903.1L999.947 905.984C999.673 906.239 999.52 906.585 999.52 906.946C999.52 907.306 999.673 907.652 999.947 907.907C1000.22 908.162 1000.59 908.305 1000.98 908.305C1001.37 908.305 1001.74 908.162 1002.01 907.907L1005.11 905.023L1008.21 907.907C1008.48 908.162 1008.85 908.305 1009.24 908.305C1009.63 908.305 1010 908.162 1010.27 907.907C1010.55 907.652 1010.7 907.306 1010.7 906.946C1010.7 906.585 1010.55 906.239 1010.27 905.984Z" fill="white"/>
<path d="M940.605 754.129C956.877 754.129 970.068 741.849 970.068 726.702C970.068 711.554 956.877 699.275 940.605 699.275C924.332 699.275 911.141 711.554 911.141 726.702C911.141 741.849 924.332 754.129 940.605 754.129Z" fill="#E6E6E6"/>
<path d="M978.844 776.183H903.665C900.529 776.183 897.986 778.549 897.986 781.469V788.122C897.986 791.042 900.529 793.408 903.665 793.408H978.844C981.98 793.408 984.522 791.042 984.522 788.122V781.469C984.522 778.549 981.98 776.183 978.844 776.183Z" fill="#E6E6E6"/>
<path d="M1022.79 810.634H859.716C856.58 810.634 854.038 813 854.038 815.92V822.573C854.038 825.493 856.58 827.859 859.716 827.859H1022.79C1025.93 827.859 1028.47 825.493 1028.47 822.573V815.92C1028.47 813 1025.93 810.634 1022.79 810.634Z" fill="#E6E6E6"/>
<path d="M1022.79 845.084H859.716C856.58 845.084 854.038 847.451 854.038 850.37V857.024C854.038 859.943 856.58 862.31 859.716 862.31H1022.79C1025.93 862.31 1028.47 859.943 1028.47 857.024V850.37C1028.47 847.451 1025.93 845.084 1022.79 845.084Z" fill="#E6E6E6"/>
<path d="M1093.03 945.49C1109.31 945.49 1122.5 933.21 1122.5 918.063C1122.5 902.915 1109.31 890.636 1093.03 890.636C1076.76 890.636 1063.57 902.915 1063.57 918.063C1063.57 933.21 1076.76 945.49 1093.03 945.49Z" fill="#6C63FF"/>
<path d="M518.1 984.476C531.091 984.476 541.623 974.673 541.623 962.58C541.623 950.487 531.091 940.684 518.1 940.684C505.109 940.684 494.578 950.487 494.578 962.58C494.578 974.673 505.109 984.476 518.1 984.476Z" fill="#6C63FF"/>
<path d="M1131.27 967.544H1056.09C1052.96 967.544 1050.42 969.91 1050.42 972.83V979.483C1050.42 982.403 1052.96 984.769 1056.09 984.769H1131.27C1134.41 984.769 1136.95 982.403 1136.95 979.483V972.83C1136.95 969.91 1134.41 967.544 1131.27 967.544Z" fill="#D9D9D9"/>
<path d="M546.1 1001.16H486.74C484.264 1001.16 482.257 1003.02 482.257 1005.32V1010.55C482.257 1012.85 484.264 1014.71 486.74 1014.71H546.1C548.576 1014.71 550.583 1012.85 550.583 1010.55V1005.32C550.583 1003.02 548.576 1001.16 546.1 1001.16Z" fill="#DCDCDC"/>
<path d="M1175.22 1001.99H1012.15C1009.01 1001.99 1006.47 1004.36 1006.47 1007.28V1013.93C1006.47 1016.85 1009.01 1019.22 1012.15 1019.22H1175.22C1178.36 1019.22 1180.9 1016.85 1180.9 1013.93V1007.28C1180.9 1004.36 1178.36 1001.99 1175.22 1001.99Z" fill="#D9D9D9"/>
<path d="M580.822 1028.27H452.019C449.542 1028.27 447.534 1030.13 447.534 1032.43V1037.66C447.534 1039.96 449.542 1041.82 452.019 1041.82H580.822C583.299 1041.82 585.307 1039.96 585.307 1037.66V1032.43C585.307 1030.13 583.299 1028.27 580.822 1028.27Z" fill="#DCDCDC"/>
<path d="M1175.22 1036.45H1012.15C1009.01 1036.45 1006.47 1038.81 1006.47 1041.73V1048.38C1006.47 1051.3 1009.01 1053.67 1012.15 1053.67H1175.22C1178.36 1053.67 1180.9 1051.3 1180.9 1048.38V1041.73C1180.9 1038.81 1178.36 1036.45 1175.22 1036.45Z" fill="#D9D9D9"/>
<path d="M580.822 1055.38H452.019C449.542 1055.38 447.534 1057.24 447.534 1059.54V1064.77C447.534 1067.07 449.542 1068.93 452.019 1068.93H580.822C583.299 1068.93 585.307 1067.07 585.307 1064.77V1059.54C585.307 1057.24 583.299 1055.38 580.822 1055.38Z" fill="#DCDCDC"/>
<path d="M582.789 757.597H570.641C570.4 757.601 570.171 757.694 570.002 757.854C569.834 758.014 569.739 758.229 569.739 758.453C569.739 758.677 569.834 758.893 570.002 759.053C570.171 759.213 570.4 759.305 570.641 759.309H582.789C583.03 759.305 583.259 759.213 583.428 759.053C583.596 758.893 583.691 758.677 583.691 758.453C583.691 758.229 583.596 758.014 583.428 757.854C583.259 757.694 583.03 757.601 582.789 757.597Z" fill="#3F3D56"/>
<path d="M582.789 760.811H570.641C570.4 760.815 570.171 760.907 570.002 761.068C569.834 761.228 569.739 761.443 569.739 761.667C569.739 761.891 569.834 762.107 570.002 762.267C570.171 762.427 570.4 762.519 570.641 762.523H582.789C583.03 762.519 583.259 762.427 583.428 762.267C583.596 762.107 583.691 761.891 583.691 761.667C583.691 761.443 583.596 761.228 583.428 761.068C583.259 760.907 583.03 760.815 582.789 760.811Z" fill="#3F3D56"/>
<path d="M582.789 764.021H570.641C570.4 764.025 570.171 764.117 570.002 764.277C569.834 764.437 569.739 764.653 569.739 764.877C569.739 765.101 569.834 765.316 570.002 765.476C570.171 765.636 570.4 765.729 570.641 765.733H582.789C583.03 765.729 583.259 765.636 583.428 765.476C583.596 765.316 583.691 765.101 583.691 764.877C583.691 764.653 583.596 764.437 583.428 764.277C583.259 764.117 583.03 764.025 582.789 764.021Z" fill="#3F3D56"/>
<path d="M591.951 772.814H444.248C443.929 772.805 443.625 772.636 443.401 772.344C443.178 772.051 443.053 771.659 443.053 771.25C443.053 770.841 443.178 770.448 443.401 770.156C443.625 769.863 443.929 769.695 444.248 769.686H591.951C592.271 769.695 592.575 769.863 592.799 770.156C593.022 770.448 593.147 770.841 593.147 771.25C593.147 771.659 593.022 772.051 592.799 772.344C592.575 772.636 592.271 772.805 591.951 772.814Z" fill="#CACACA"/>
<path d="M1381.12 674.556H1181V676.126H1381.12V674.556Z" fill="#3F3D56"/>
<path d="M1367.64 666.276H1345.67V688.264H1367.64V666.276Z" fill="#E6E6E6"/>
<path d="M1380.98 675.7H1354.3V649H1380.98V675.7ZM1355.46 674.539H1379.82V650.161H1355.46V674.539Z" fill="#3F3D56"/>
<path d="M1396.94 662.818C1419 662.818 1436.88 644.95 1436.88 622.909C1436.88 600.868 1419 583 1396.94 583C1374.88 583 1357 600.868 1357 622.909C1357 644.95 1374.88 662.818 1396.94 662.818Z" fill="#6C63FF"/>
<path d="M1391.49 643.68C1390.8 643.68 1390.12 643.52 1389.5 643.211C1388.89 642.903 1388.35 642.455 1387.94 641.904L1377.04 627.387C1376.69 626.92 1376.44 626.39 1376.29 625.825C1376.15 625.26 1376.11 624.672 1376.2 624.095C1376.28 623.518 1376.47 622.963 1376.77 622.461C1377.07 621.96 1377.46 621.521 1377.93 621.172C1378.4 620.822 1378.93 620.567 1379.49 620.423C1380.06 620.278 1380.65 620.246 1381.22 620.329C1381.8 620.411 1382.36 620.606 1382.86 620.903C1383.36 621.2 1383.8 621.593 1384.15 622.06L1391.28 631.557L1409.59 604.114C1409.91 603.629 1410.33 603.212 1410.81 602.888C1411.3 602.563 1411.84 602.337 1412.41 602.223C1412.99 602.108 1413.57 602.108 1414.15 602.221C1414.72 602.334 1415.26 602.559 1415.75 602.882C1416.24 603.206 1416.65 603.621 1416.98 604.106C1417.3 604.59 1417.53 605.134 1417.64 605.706C1417.76 606.278 1417.76 606.866 1417.64 607.438C1417.53 608.01 1417.3 608.554 1416.98 609.04L1395.19 641.703C1394.79 642.294 1394.26 642.781 1393.64 643.125C1393.02 643.469 1392.33 643.659 1391.61 643.679C1391.57 643.679 1391.53 643.68 1391.49 643.68Z" fill="white"/>
<path d="M850.662 454.267C939.998 454.267 1012.42 381.799 1012.42 292.406C1012.42 203.013 939.998 130.546 850.662 130.546C761.326 130.546 688.905 203.013 688.905 292.406C688.905 381.799 761.326 454.267 850.662 454.267Z" fill="white"/>
<path d="M687.702 292.406C687.702 202.493 760.806 129.342 850.662 129.342C940.518 129.342 1013.62 202.493 1013.62 292.406C1013.62 382.32 940.518 455.47 850.662 455.47C760.806 455.47 687.702 382.32 687.702 292.406ZM690.108 292.406C690.108 380.992 762.132 453.063 850.662 453.063C939.192 453.063 1011.22 380.992 1011.22 292.406C1011.22 203.82 939.191 131.75 850.662 131.75C762.132 131.75 690.108 203.82 690.108 292.406Z" fill="#3F3D56"/>
<path d="M821.827 293.11C821.827 287.403 823.518 281.825 826.687 277.08C829.855 272.335 834.359 268.637 839.627 266.453C844.896 264.269 850.694 263.698 856.287 264.811C861.881 265.924 867.019 268.672 871.051 272.708C875.084 276.743 877.83 281.884 878.943 287.481C880.056 293.078 879.484 298.88 877.302 304.152C875.12 309.424 871.424 313.93 866.682 317.101C861.94 320.271 856.365 321.963 850.662 321.963C843.015 321.963 835.68 318.924 830.273 313.512C824.865 308.101 821.827 300.763 821.827 293.11ZM850.662 265.664C843.39 265.672 836.418 268.567 831.276 273.712C826.134 278.857 823.242 285.834 823.234 293.11C823.234 298.538 824.842 303.845 827.856 308.358C830.87 312.872 835.154 316.39 840.166 318.467C845.178 320.544 850.692 321.088 856.013 320.029C861.334 318.97 866.221 316.356 870.057 312.517C873.893 308.679 876.505 303.789 877.563 298.465C878.622 293.141 878.079 287.622 876.003 282.607C873.927 277.592 870.411 273.306 865.9 270.29C861.39 267.274 856.087 265.664 850.662 265.664Z" fill="#3F3D56"/>
<path d="M795.805 293.11C795.805 282.253 799.022 271.641 805.05 262.614C811.077 253.587 819.645 246.551 829.669 242.397C839.692 238.242 850.722 237.155 861.363 239.273C872.004 241.391 881.779 246.619 889.451 254.296C897.123 261.972 902.347 271.753 904.464 282.401C906.581 293.049 905.494 304.086 901.342 314.116C897.19 324.146 890.159 332.719 881.138 338.751C872.117 344.782 861.511 348.002 850.661 348.002C843.457 348.002 836.324 346.582 829.669 343.823C823.013 341.065 816.966 337.021 811.872 331.924C806.778 326.827 802.737 320.776 799.98 314.116C797.224 307.456 795.805 300.318 795.805 293.11ZM850.661 239.626C840.09 239.626 829.756 242.763 820.966 248.639C812.176 254.516 805.325 262.869 801.28 272.642C797.234 282.415 796.176 293.169 798.238 303.544C800.301 313.919 805.391 323.449 812.866 330.929C820.342 338.409 829.865 343.503 840.234 345.567C850.602 347.63 861.349 346.571 871.116 342.523C880.882 338.475 889.23 331.62 895.103 322.824C900.977 314.029 904.111 303.688 904.111 293.11C904.095 278.93 898.459 265.335 888.439 255.309C878.418 245.282 864.832 239.642 850.661 239.626Z" fill="#CCCCCC"/>
<path d="M743.762 293.11C743.762 271.954 750.031 251.272 761.778 233.682C773.524 216.091 790.22 202.38 809.753 194.284C829.286 186.188 850.78 184.069 871.517 188.197C892.254 192.324 911.301 202.512 926.252 217.472C941.202 232.432 951.383 251.492 955.508 272.242C959.633 292.991 957.516 314.499 949.425 334.045C941.334 353.591 927.632 370.297 910.052 382.051C892.473 393.805 871.805 400.079 850.662 400.079C822.32 400.046 795.148 388.766 775.107 368.713C755.067 348.659 743.794 321.47 743.762 293.11ZM850.662 187.549C829.797 187.549 809.401 193.74 792.053 205.339C774.704 216.938 761.183 233.425 753.199 252.714C745.214 272.002 743.125 293.227 747.195 313.704C751.266 334.181 761.313 352.99 776.067 367.753C790.82 382.516 809.617 392.57 830.081 396.643C850.545 400.716 871.756 398.625 891.032 390.636C910.309 382.646 926.785 369.116 938.377 351.757C949.968 334.397 956.155 313.988 956.155 293.11C956.124 265.123 944.999 238.292 925.222 218.502C905.445 198.712 878.631 187.581 850.662 187.549Z" fill="#CCCCCC"/>
<path d="M850.662 305.777C858.042 305.777 864.025 299.791 864.025 292.406C864.025 285.022 858.042 279.035 850.662 279.035C843.282 279.035 837.3 285.022 837.3 292.406C837.3 299.791 843.282 305.777 850.662 305.777Z" fill="#6C63FF"/>
<path d="M816.2 344.483C823.58 344.483 829.563 338.497 829.563 331.112C829.563 323.727 823.58 317.741 816.2 317.741C808.82 317.741 802.838 323.727 802.838 331.112C802.838 338.497 808.82 344.483 816.2 344.483Z" fill="#6C63FF"/>
<path d="M950.645 338.853C958.025 338.853 964.007 332.867 964.007 325.482C964.007 318.098 958.025 312.111 950.645 312.111C943.265 312.111 937.282 318.098 937.282 325.482C937.282 332.867 943.265 338.853 950.645 338.853Z" fill="#6C63FF"/>
<path d="M850.662 298.74C854.157 298.74 856.991 295.904 856.991 292.406C856.991 288.908 854.157 286.073 850.662 286.073C847.166 286.073 844.332 288.908 844.332 292.406C844.332 295.904 847.166 298.74 850.662 298.74Z" fill="#3F3D56"/>
<path d="M950.645 331.816C954.141 331.816 956.975 328.98 956.975 325.482C956.975 321.984 954.141 319.148 950.645 319.148C947.149 319.148 944.315 321.984 944.315 325.482C944.315 328.98 947.149 331.816 950.645 331.816Z" fill="#3F3D56"/>
<path d="M816.201 338.149C819.696 338.149 822.53 335.314 822.53 331.816C822.53 328.318 819.696 325.482 816.201 325.482C812.705 325.482 809.871 328.318 809.871 331.816C809.871 335.314 812.705 338.149 816.201 338.149Z" fill="#3F3D56"/>
<path d="M555.28 227.662C558.776 227.662 561.609 224.826 561.609 221.329C561.609 217.831 558.776 214.995 555.28 214.995C551.784 214.995 548.95 217.831 548.95 221.329C548.95 224.826 551.784 227.662 555.28 227.662Z" fill="#6C63FF"/>
<path d="M850.31 221.681H572.51V220.273H851.717V292.758H850.31V221.681Z" fill="#3F3D56"/>
<path d="M536.994 221.329C536.994 217.71 538.067 214.172 540.076 211.163C542.085 208.154 544.941 205.809 548.282 204.424C551.623 203.039 555.3 202.677 558.847 203.383C562.394 204.089 565.652 205.831 568.21 208.39C570.767 210.949 572.508 214.21 573.214 217.759C573.919 221.308 573.557 224.987 572.173 228.331C570.789 231.674 568.446 234.532 565.439 236.542C562.432 238.553 558.896 239.626 555.28 239.626C552.878 239.626 550.501 239.153 548.282 238.233C546.064 237.313 544.048 235.966 542.35 234.267C540.652 232.568 539.305 230.551 538.386 228.331C537.467 226.111 536.994 223.731 536.994 221.329ZM555.28 204.439C551.941 204.439 548.678 205.429 545.902 207.285C543.127 209.141 540.963 211.779 539.686 214.865C538.408 217.951 538.074 221.347 538.725 224.624C539.376 227.9 540.984 230.909 543.344 233.271C545.705 235.633 548.713 237.242 551.987 237.894C555.261 238.545 558.655 238.211 561.739 236.933C564.823 235.654 567.459 233.49 569.314 230.712C571.169 227.934 572.159 224.669 572.159 221.329C572.154 216.851 570.374 212.558 567.209 209.391C564.045 206.225 559.755 204.444 555.28 204.439Z" fill="#3F3D56"/>
<path d="M1146.86 257.219C1150.36 257.219 1153.19 254.384 1153.19 250.886C1153.19 247.388 1150.36 244.552 1146.86 244.552C1143.37 244.552 1140.53 247.388 1140.53 250.886C1140.53 254.384 1143.37 257.219 1146.86 257.219Z" fill="#6C63FF"/>
<path d="M1128.58 250.886C1128.58 247.267 1129.65 243.729 1131.66 240.72C1133.67 237.711 1136.52 235.366 1139.87 233.981C1143.21 232.596 1146.88 232.234 1150.43 232.94C1153.98 233.646 1157.24 235.389 1159.79 237.948C1162.35 240.507 1164.09 243.767 1164.8 247.316C1165.5 250.865 1165.14 254.544 1163.76 257.888C1162.37 261.231 1160.03 264.089 1157.02 266.099C1154.01 268.11 1150.48 269.183 1146.86 269.183C1144.46 269.183 1142.08 268.71 1139.87 267.79C1137.65 266.871 1135.63 265.523 1133.93 263.824C1132.23 262.125 1130.89 260.108 1129.97 257.888C1129.05 255.668 1128.58 253.289 1128.58 250.886ZM1146.86 233.996C1142.39 234.001 1138.1 235.782 1134.93 238.949C1131.77 242.115 1129.99 246.408 1129.98 250.886C1129.98 254.226 1130.97 257.492 1132.83 260.269C1134.68 263.047 1137.32 265.211 1140.4 266.49C1143.49 267.768 1146.88 268.103 1150.16 267.451C1153.43 266.799 1156.44 265.191 1158.8 262.829C1161.16 260.466 1162.77 257.457 1163.42 254.181C1164.07 250.904 1163.73 247.508 1162.46 244.422C1161.18 241.336 1159.02 238.698 1156.24 236.842C1153.46 234.986 1150.2 233.996 1146.86 233.996Z" fill="#3F3D56"/>
<path d="M949.941 253.008L1129.27 250.182L1129.29 251.589L951.348 254.393V325.482H949.941V253.008Z" fill="#3F3D56"/>
<path d="M892.004 550.817C892.004 547.323 889.168 544.49 885.669 544.49C882.17 544.49 879.333 547.323 879.333 550.817C879.333 554.312 882.17 557.145 885.669 557.145C889.168 557.145 892.004 554.312 892.004 550.817Z" fill="#6C63FF"/>
<path d="M885.669 569.097C882.049 569.097 878.51 568.025 875.501 566.016C872.491 564.008 870.145 561.153 868.759 557.813C867.374 554.473 867.012 550.797 867.718 547.251C868.424 543.705 870.167 540.448 872.727 537.892C875.287 535.335 878.548 533.594 882.098 532.889C885.649 532.183 889.329 532.545 892.673 533.929C896.018 535.313 898.876 537.655 900.887 540.662C902.899 543.668 903.972 547.202 903.972 550.817C903.972 555.665 902.044 560.315 898.611 563.743C895.179 567.171 890.523 569.097 885.669 569.097ZM868.774 550.817C868.774 554.155 869.765 557.417 871.621 560.192C873.478 562.967 876.117 565.129 879.204 566.407C882.291 567.684 885.688 568.018 888.965 567.367C892.242 566.716 895.253 565.109 897.616 562.749C899.978 560.389 901.588 557.382 902.239 554.109C902.891 550.836 902.557 547.443 901.278 544.36C899.999 541.277 897.834 538.642 895.055 536.787C892.277 534.933 889.011 533.944 885.669 533.944C881.19 533.949 876.896 535.728 873.728 538.891C870.561 542.055 868.779 546.344 868.774 550.817Z" fill="#3F3D56"/>
<path d="M884.964 533.24L884.964 332.865L813.864 332.865L813.864 331.459L886.371 331.459L886.371 533.24L884.964 533.24Z" fill="#3F3D56"/>
<path d="M905.93 364.31L918.5 366.02L918.5 373.55L896 370.04L896 360.62L904.28 358.97L904.28 358.55L896 356.93L896 347.54L918.5 344L918.5 351.53L905.93 353.21L905.93 353.42L918.5 356.03L918.5 361.52L905.93 364.1L905.93 364.31ZM909.71 392.461L904.49 392.461L904.49 385.261L901.76 385.261L901.76 394.081L896 394.081L896 378.061L918.5 378.061L918.5 393.901L912.74 393.001L912.74 385.261L909.71 385.261L909.71 392.461ZM896 412.763L896 399.833L918.5 399.833L918.5 411.503C918.5 413.663 918.08 415.203 917.24 416.123C916.4 417.043 915.18 417.503 913.58 417.503C911.96 417.503 910.71 417.213 909.83 416.633C908.97 416.053 908.4 415.263 908.12 414.263L907.91 414.263C907.41 417.163 905.43 418.613 901.97 418.613C900.17 418.613 898.72 418.133 897.62 417.173C896.54 416.233 896 414.763 896 412.763ZM904.97 409.853L904.97 407.033L901.28 407.033L901.28 409.793C901.28 410.813 901.9 411.323 903.14 411.323C904.36 411.323 904.97 410.833 904.97 409.853ZM913.58 409.313L913.58 407.033L910.22 407.033L910.22 409.253C910.22 410.173 910.78 410.633 911.9 410.633C913.02 410.633 913.58 410.193 913.58 409.313ZM896.39 422.932L902.33 423.952C901.79 426.152 901.52 428.142 901.52 429.922C901.52 430.822 901.53 431.612 901.55 432.292C901.59 432.992 901.65 433.612 901.73 434.152L903.53 434.152L903.8 430.912C903.94 429.452 904.18 428.232 904.52 427.252C904.86 426.272 905.32 425.482 905.9 424.882C906.5 424.302 907.21 423.882 908.03 423.622C908.87 423.382 909.85 423.262 910.97 423.262C912.51 423.262 913.79 423.422 914.81 423.742C915.85 424.062 916.68 424.572 917.3 425.272C917.94 425.972 918.39 426.872 918.65 427.972C918.91 429.092 919.04 430.452 919.04 432.052C919.04 435.232 918.74 438.112 918.14 440.692L912.38 439.792C912.74 437.552 912.92 435.762 912.92 434.422C912.92 433.082 912.86 431.942 912.74 431.002L910.97 431.002L910.73 433.582C910.57 435.162 910.3 436.482 909.92 437.542C909.56 438.602 909.08 439.452 908.48 440.092C907.88 440.752 907.17 441.212 906.35 441.472C905.53 441.752 904.59 441.892 903.53 441.892C902.01 441.892 900.73 441.692 899.69 441.292C898.65 440.892 897.86 440.412 897.32 439.852C896.88 439.392 896.53 438.822 896.27 438.142C896.03 437.462 895.85 436.742 895.73 435.982C895.61 435.222 895.54 434.452 895.52 433.672C895.48 432.912 895.46 432.222 895.46 431.602C895.46 430.042 895.54 428.542 895.7 427.102C895.86 425.662 896.09 424.272 896.39 422.932ZM896 454.503L896 447.303L918.5 447.303L918.5 454.503L896 454.503ZM918.5 476.834L912.74 476.834L912.74 471.614L896 471.614L896 464.414L912.74 464.414L912.74 459.194L918.5 459.194L918.5 476.834ZM909.71 495.902L904.49 495.902L904.49 488.702L901.76 488.702L901.76 497.522L896 497.522L896 481.502L918.5 481.502L918.5 497.342L912.74 496.442L912.74 488.702L909.71 488.702L909.71 495.902ZM896.39 502.374L902.33 503.394C901.79 505.594 901.52 507.584 901.52 509.364C901.52 510.264 901.53 511.054 901.55 511.734C901.59 512.434 901.65 513.054 901.73 513.594L903.53 513.594L903.8 510.354C903.94 508.894 904.18 507.674 904.52 506.694C904.86 505.714 905.32 504.924 905.9 504.324C906.5 503.744 907.21 503.324 908.03 503.064C908.87 502.824 909.85 502.704 910.97 502.704C912.51 502.704 913.79 502.864 914.81 503.184C915.85 503.504 916.68 504.014 917.3 504.714C917.94 505.414 918.39 506.314 918.65 507.414C918.91 508.534 919.04 509.894 919.04 511.494C919.04 514.674 918.74 517.554 918.14 520.134L912.38 519.234C912.74 516.994 912.92 515.204 912.92 513.864C912.92 512.524 912.86 511.384 912.74 510.444L910.97 510.444L910.73 513.024C910.57 514.604 910.3 515.924 909.92 516.984C909.56 518.044 909.08 518.894 908.48 519.534C907.88 520.194 907.17 520.654 906.35 520.914C905.53 521.194 904.59 521.334 903.53 521.334C902.01 521.334 900.73 521.134 899.69 520.734C898.65 520.334 897.86 519.854 897.32 519.294C896.88 518.834 896.53 518.264 896.27 517.584C896.03 516.904 895.85 516.184 895.73 515.424C895.61 514.664 895.54 513.894 895.52 513.114C895.48 512.354 895.46 511.664 895.46 511.044C895.46 509.484 895.54 507.984 895.7 506.544C895.86 505.104 896.09 503.714 896.39 502.374Z" fill="#6C63FF"/>
<path d="M999.98 239.43L999.17 243H991.58L997.4 220.5H1008.53L1014.35 243H1006.76L1005.92 239.43H999.98ZM1003.16 227.4H1002.77L1001.3 233.7H1004.6L1003.16 227.4ZM1030.32 237.57H1025.64V243H1018.44V220.5H1029.78C1034.94 220.5 1037.52 223.27 1037.52 228.81C1037.52 230.03 1037.4 231.17 1037.16 232.23C1036.92 233.29 1036.51 234.22 1035.93 235.02C1035.37 235.8 1034.63 236.42 1033.71 236.88C1032.81 237.34 1031.68 237.57 1030.32 237.57ZM1027.29 226.26H1025.64V231.81H1027.29C1028.17 231.81 1028.8 231.72 1029.18 231.54C1029.58 231.36 1029.78 230.94 1029.78 230.28V227.76C1029.78 227.12 1029.58 226.71 1029.18 226.53C1028.8 226.35 1028.17 226.26 1027.29 226.26ZM1054.26 237.57H1049.58V243H1042.38V220.5H1053.72C1058.88 220.5 1061.46 223.27 1061.46 228.81C1061.46 230.03 1061.34 231.17 1061.1 232.23C1060.86 233.29 1060.45 234.22 1059.87 235.02C1059.31 235.8 1058.57 236.42 1057.65 236.88C1056.75 237.34 1055.62 237.57 1054.26 237.57ZM1051.23 226.26H1049.58V231.81H1051.23C1052.11 231.81 1052.74 231.72 1053.12 231.54C1053.52 231.36 1053.72 230.94 1053.72 230.28V227.76C1053.72 227.12 1053.52 226.71 1053.12 226.53C1052.74 226.35 1052.11 226.26 1051.23 226.26ZM1065.42 242.61L1066.44 236.67C1068.64 237.21 1070.63 237.48 1072.41 237.48C1073.31 237.48 1074.1 237.47 1074.78 237.45C1075.48 237.41 1076.1 237.35 1076.64 237.27V235.47L1073.4 235.2C1071.94 235.06 1070.72 234.82 1069.74 234.48C1068.76 234.14 1067.97 233.68 1067.37 233.1C1066.79 232.5 1066.37 231.79 1066.11 230.97C1065.87 230.13 1065.75 229.15 1065.75 228.03C1065.75 226.49 1065.91 225.21 1066.23 224.19C1066.55 223.15 1067.06 222.32 1067.76 221.7C1068.46 221.06 1069.36 220.61 1070.46 220.35C1071.58 220.09 1072.94 219.96 1074.54 219.96C1077.72 219.96 1080.6 220.26 1083.18 220.86L1082.28 226.62C1080.04 226.26 1078.25 226.08 1076.91 226.08C1075.57 226.08 1074.43 226.14 1073.49 226.26V228.03L1076.07 228.27C1077.65 228.43 1078.97 228.7 1080.03 229.08C1081.09 229.44 1081.94 229.92 1082.58 230.52C1083.24 231.12 1083.7 231.83 1083.96 232.65C1084.24 233.47 1084.38 234.41 1084.38 235.47C1084.38 236.99 1084.18 238.27 1083.78 239.31C1083.38 240.35 1082.9 241.14 1082.34 241.68C1081.88 242.12 1081.31 242.47 1080.63 242.73C1079.95 242.97 1079.23 243.15 1078.47 243.27C1077.71 243.39 1076.94 243.46 1076.16 243.48C1075.4 243.52 1074.71 243.54 1074.09 243.54C1072.53 243.54 1071.03 243.46 1069.59 243.3C1068.15 243.14 1066.76 242.91 1065.42 242.61Z" fill="#6C63FF"/>
<path d="M593.98 205.43L593.17 209H585.58L591.4 186.5H602.53L608.35 209H600.76L599.92 205.43H593.98ZM597.16 193.4H596.77L595.3 199.7H598.6L597.16 193.4ZM611.903 186.5H619.103V203.39H621.653C622.573 203.39 623.193 203.27 623.513 203.03C623.853 202.79 624.023 202.27 624.023 201.47V186.5H631.223V199.13C631.223 201.05 631.093 202.67 630.833 203.99C630.593 205.31 630.113 206.39 629.393 207.23C628.693 208.05 627.713 208.64 626.453 209C625.193 209.36 623.563 209.54 621.563 209.54C619.563 209.54 617.933 209.36 616.673 209C615.413 208.64 614.423 208.05 613.703 207.23C613.003 206.41 612.523 205.34 612.263 204.02C612.023 202.68 611.903 201.05 611.903 199.13V186.5ZM652.99 186.5V192.26H647.77V209H640.57V192.26H635.35V186.5H652.99ZM656.578 197.78C656.578 195.72 656.748 193.95 657.088 192.47C657.448 190.97 658.038 189.74 658.858 188.78C659.698 187.82 660.798 187.11 662.158 186.65C663.518 186.19 665.198 185.96 667.198 185.96C669.218 185.96 670.898 186.19 672.238 186.65C673.598 187.11 674.688 187.82 675.508 188.78C676.348 189.74 676.938 190.97 677.278 192.47C677.638 193.95 677.818 195.72 677.818 197.78C677.818 199.74 677.658 201.46 677.338 202.94C677.018 204.4 676.448 205.62 675.628 206.6C674.828 207.58 673.738 208.32 672.358 208.82C670.998 209.3 669.278 209.54 667.198 209.54C665.118 209.54 663.388 209.3 662.008 208.82C660.648 208.32 659.558 207.58 658.738 206.6C657.938 205.62 657.378 204.4 657.058 202.94C656.738 201.46 656.578 199.74 656.578 197.78ZM664.318 194.03V203.39H667.318C668.318 203.39 669.028 203.28 669.448 203.06C669.888 202.82 670.108 202.29 670.108 201.47V192.11H667.078C666.118 192.11 665.418 192.23 664.978 192.47C664.538 192.69 664.318 193.21 664.318 194.03ZM690.084 198.08L689.664 209H682.134L683.514 186.5H692.904L695.694 197.96H695.964L698.754 186.5H708.174L709.524 209H701.994L701.574 198.08H701.334L698.574 209H693.084L690.294 198.08H690.084ZM721.093 205.43L720.283 209H712.693L718.513 186.5H729.643L735.463 209H727.873L727.033 205.43H721.093ZM724.273 193.4H723.883L722.413 199.7H725.713L724.273 193.4ZM755.577 186.5V192.26H750.357V209H743.157V192.26H737.937V186.5H755.577ZM767.445 209H760.245V186.5H767.445V209ZM772.675 197.78C772.675 195.72 772.845 193.95 773.185 192.47C773.545 190.97 774.135 189.74 774.955 188.78C775.795 187.82 776.895 187.11 778.255 186.65C779.615 186.19 781.295 185.96 783.295 185.96C785.315 185.96 786.995 186.19 788.335 186.65C789.695 187.11 790.785 187.82 791.605 188.78C792.445 189.74 793.035 190.97 793.375 192.47C793.735 193.95 793.915 195.72 793.915 197.78C793.915 199.74 793.755 201.46 793.435 202.94C793.115 204.4 792.545 205.62 791.725 206.6C790.925 207.58 789.835 208.32 788.455 208.82C787.095 209.3 785.375 209.54 783.295 209.54C781.215 209.54 779.485 209.3 778.105 208.82C776.745 208.32 775.655 207.58 774.835 206.6C774.035 205.62 773.475 204.4 773.155 202.94C772.835 201.46 772.675 199.74 772.675 197.78ZM780.415 194.03V203.39H783.415C784.415 203.39 785.125 203.28 785.545 203.06C785.985 202.82 786.205 202.29 786.205 201.47V192.11H783.175C782.215 192.11 781.515 192.23 781.075 192.47C780.635 192.69 780.415 193.21 780.415 194.03ZM819.111 209H812.331L806.841 201.02C806.741 200.88 806.661 200.67 806.601 200.39C806.541 200.11 806.501 199.74 806.481 199.28H806.331V209H799.131V186.5H805.911L811.401 194.48C811.501 194.62 811.581 194.83 811.641 195.11C811.701 195.39 811.741 195.76 811.761 196.22H811.911V186.5H819.111V209ZM824.515 208.61L825.535 202.67C827.735 203.21 829.725 203.48 831.505 203.48C832.405 203.48 833.195 203.47 833.875 203.45C834.575 203.41 835.195 203.35 835.735 203.27V201.47L832.495 201.2C831.035 201.06 829.815 200.82 828.835 200.48C827.855 200.14 827.065 199.68 826.465 199.1C825.885 198.5 825.465 197.79 825.205 196.97C824.965 196.13 824.845 195.15 824.845 194.03C824.845 192.49 825.005 191.21 825.325 190.19C825.645 189.15 826.155 188.32 826.855 187.7C827.555 187.06 828.455 186.61 829.555 186.35C830.675 186.09 832.035 185.96 833.635 185.96C836.815 185.96 839.695 186.26 842.275 186.86L841.375 192.62C839.135 192.26 837.345 192.08 836.005 192.08C834.665 192.08 833.525 192.14 832.585 192.26V194.03L835.165 194.27C836.745 194.43 838.065 194.7 839.125 195.08C840.185 195.44 841.035 195.92 841.675 196.52C842.335 197.12 842.795 197.83 843.055 198.65C843.335 199.47 843.475 200.41 843.475 201.47C843.475 202.99 843.275 204.27 842.875 205.31C842.475 206.35 841.995 207.14 841.435 207.68C840.975 208.12 840.405 208.47 839.725 208.73C839.045 208.97 838.325 209.15 837.565 209.27C836.805 209.39 836.035 209.46 835.255 209.48C834.495 209.52 833.805 209.54 833.185 209.54C831.625 209.54 830.125 209.46 828.685 209.3C827.245 209.14 825.855 208.91 824.515 208.61Z" fill="#6C63FF"/>
<path d="M1621.12 101.556H1421V103.126H1621.12V101.556Z" fill="#3F3D56"/>
<path d="M1607.64 93.2761H1585.67V115.264H1607.64V93.2761Z" fill="#E6E6E6"/>
<path d="M1620.98 102.7H1594.3V76H1620.98V102.7ZM1595.46 101.539H1619.82V77.1609H1595.46V101.539Z" fill="#3F3D56"/>
<path d="M1620.94 84.8185C1643 84.8185 1660.88 66.9505 1660.88 44.9092C1660.88 22.868 1643 5 1620.94 5C1598.88 5 1581 22.868 1581 44.9092C1581 66.9505 1598.88 84.8185 1620.94 84.8185Z" fill="#6C63FF"/>
<path d="M1615.49 65.6801C1614.8 65.6801 1614.12 65.5196 1613.5 65.2113C1612.89 64.9031 1612.35 64.4555 1611.94 63.904L1601.04 49.3866C1600.69 48.9202 1600.44 48.3895 1600.29 47.8248C1600.15 47.26 1600.11 46.6723 1600.2 46.0952C1600.28 45.5181 1600.47 44.9629 1600.77 44.4613C1601.07 43.9597 1601.46 43.5214 1601.93 43.1717C1602.4 42.8219 1602.93 42.5674 1603.49 42.4227C1604.06 42.2781 1604.65 42.2461 1605.22 42.3285C1605.8 42.411 1606.36 42.6063 1606.86 42.9034C1607.36 43.2004 1607.8 43.5933 1608.15 44.0597L1615.28 53.5566L1633.59 26.1144C1633.91 25.6291 1634.33 25.2123 1634.81 24.8878C1635.3 24.5632 1635.84 24.3372 1636.41 24.2228C1636.99 24.1084 1637.57 24.1077 1638.15 24.2208C1638.72 24.3339 1639.26 24.5586 1639.75 24.8821C1640.24 25.2055 1640.65 25.6214 1640.98 26.1059C1641.3 26.5904 1641.53 27.1341 1641.64 27.7059C1641.76 28.2777 1641.76 28.8664 1641.64 29.4384C1641.53 30.0104 1641.3 30.5544 1640.98 31.0395L1619.19 63.7031C1618.79 64.2938 1618.26 64.7815 1617.64 65.1252C1617.02 65.4689 1616.33 65.6587 1615.61 65.6786C1615.57 65.6794 1615.53 65.6801 1615.49 65.6801Z" fill="white"/>
<path d="M1453 431H1229V433H1453V431Z" fill="#3F3D56"/>
<path d="M1269.57 422.28C1269.4 422.668 1269.21 423.047 1269 423.415C1267.89 425.382 1266.34 427.077 1264.44 428.366C1262.2 429.889 1259.57 430.789 1256.84 430.967C1254.11 431.145 1251.38 430.594 1248.95 429.374C1246.52 428.155 1244.48 426.313 1243.06 424.05C1241.63 421.787 1240.88 419.19 1240.88 416.543V414.209H1242.93C1250.89 419.182 1260.09 421.972 1269.57 422.28Z" fill="#6C63FF"/>
<path d="M1297.55 414.909V416.557C1297.55 419.767 1296.47 422.885 1294.48 425.419C1292.49 427.954 1289.71 429.76 1286.56 430.553C1283.42 431.345 1280.1 431.079 1277.13 429.797C1274.15 428.514 1271.7 426.287 1270.14 423.469C1269.93 423.092 1269.74 422.704 1269.57 422.307C1269.99 422.318 1270.41 422.324 1270.84 422.324C1280.26 422.335 1289.51 419.769 1297.55 414.909Z" fill="#6C63FF"/>
<path d="M1317.73 237.345C1317.31 237.28 1316.87 237.239 1316.44 237.209C1321.36 248.978 1321.71 262.265 1317.39 274.289C1317.82 274.235 1318.25 274.164 1318.68 274.082C1322.86 273.243 1326.61 270.894 1329.27 267.454C1331.94 264.015 1333.34 259.707 1333.22 255.298C1333.11 250.888 1331.49 246.664 1328.65 243.377C1325.82 240.089 1321.95 237.952 1317.73 237.345Z" fill="#6C63FF"/>
<path d="M1225.49 237.209C1225.04 237.239 1224.59 237.28 1224.14 237.345C1219.75 237.952 1215.72 240.089 1212.77 243.377C1209.81 246.664 1208.13 250.888 1208.01 255.298C1207.89 259.707 1209.35 264.015 1212.12 267.454C1214.89 270.894 1218.8 273.243 1223.16 274.082C1223.6 274.164 1224.05 274.235 1224.5 274.289C1220 262.265 1220.36 248.978 1225.49 237.209Z" fill="#6C63FF"/>
<path d="M1317.43 236.862C1312.6 225.254 1303.66 215.868 1292.35 210.526C1281.04 205.183 1268.15 204.266 1256.2 207.954C1244.26 211.641 1234.1 219.668 1227.7 230.477C1221.3 241.285 1219.12 254.103 1221.58 266.44C1224.04 278.776 1230.97 289.751 1241.02 297.232C1251.07 304.714 1263.52 308.167 1275.95 306.921C1288.39 305.675 1299.92 299.819 1308.31 290.491C1316.69 281.162 1321.34 269.028 1321.34 256.445C1321.33 249.721 1320.01 243.065 1317.43 236.862ZM1317.08 273.715C1312.79 285.314 1304.35 294.877 1293.42 300.523C1282.48 306.169 1269.84 307.488 1257.99 304.222C1246.13 300.956 1235.92 293.34 1229.37 282.874C1222.81 272.407 1220.38 259.849 1222.56 247.67C1224.73 235.491 1231.36 224.573 1241.13 217.066C1250.9 209.559 1263.11 206.006 1275.35 207.106C1287.59 208.207 1298.98 213.881 1307.27 223.012C1315.56 232.143 1320.16 244.07 1320.16 256.445C1320.16 262.341 1319.12 268.189 1317.08 273.715Z" fill="#6C63FF" stroke="#6C63FF" stroke-width="3"/>
<path d="M1296.99 244.905H1244.94C1242.19 244.905 1239.56 246.011 1237.62 247.979C1235.68 249.947 1234.58 252.616 1234.58 255.399C1234.58 258.182 1235.68 260.852 1237.62 262.82C1239.56 264.788 1242.19 265.893 1244.94 265.893H1296.99C1299.74 265.893 1302.37 264.788 1304.31 262.82C1306.25 260.852 1307.34 258.182 1307.34 255.399C1307.34 252.616 1306.25 249.947 1304.31 247.979C1302.37 246.011 1299.74 244.905 1296.99 244.905Z" fill="#6C63FF"/>
<path d="M1317.47 344.891C1317.28 344.544 1317.09 344.204 1316.89 343.869C1316.88 343.857 1316.88 343.852 1316.87 343.84C1312.22 335.932 1305.58 329.361 1297.6 324.772C1289.62 320.184 1280.58 317.735 1271.36 317.666C1262.15 317.597 1253.07 319.91 1245.02 324.379C1236.97 328.847 1230.23 335.318 1225.46 343.155C1220.69 350.993 1218.06 359.927 1217.81 369.082C1217.57 378.237 1219.73 387.298 1224.07 395.376C1228.42 403.453 1234.8 410.269 1242.6 415.155C1250.39 420.041 1259.34 422.829 1268.55 423.246C1269.11 423.275 1269.67 423.293 1270.24 423.293C1270.48 423.304 1270.71 423.304 1270.95 423.304C1280.45 423.318 1289.78 420.785 1297.95 415.971C1306.82 410.752 1314 403.097 1318.6 393.926C1318.6 393.914 1318.61 393.908 1318.61 393.896C1318.79 393.544 1318.96 393.186 1319.14 392.822C1322.69 385.27 1324.39 376.989 1324.1 368.658C1323.81 360.327 1321.54 352.182 1317.47 344.891ZM1317.98 392.499C1317.81 392.863 1317.63 393.221 1317.45 393.573C1313.05 402.255 1306.3 409.541 1297.95 414.603C1289.82 419.536 1280.47 422.141 1270.95 422.13C1270.51 422.13 1270.09 422.124 1269.66 422.113C1269.47 422.113 1269.29 422.107 1269.11 422.095C1260.08 421.782 1251.3 419.14 1243.61 414.43C1235.93 409.72 1229.61 403.103 1225.28 395.232C1220.96 387.36 1218.76 378.504 1218.93 369.536C1219.09 360.568 1221.6 351.796 1226.21 344.084C1230.82 336.372 1237.37 329.985 1245.22 325.551C1253.07 321.118 1261.94 318.791 1270.97 318.8C1280 318.808 1288.87 321.152 1296.71 325.6C1304.55 330.048 1311.09 336.448 1315.69 344.169C1315.7 344.18 1315.7 344.186 1315.71 344.198C1315.91 344.533 1316.11 344.873 1316.3 345.214C1320.36 352.391 1322.63 360.428 1322.92 368.654C1323.21 376.88 1321.52 385.056 1317.98 392.499Z" fill="#6C63FF" stroke="#6C63FF" stroke-width="3"/>
<path d="M1311.12 346.125C1310.09 345.364 1308.87 344.953 1307.62 344.949H1284.68C1283.09 344.949 1281.55 345.612 1280.42 346.793C1279.29 347.974 1278.66 349.575 1278.66 351.245C1278.66 352.915 1279.29 354.516 1280.42 355.697C1281.55 356.878 1283.09 357.541 1284.68 357.541H1307.62C1308.03 357.543 1308.43 357.5 1308.84 357.413C1309.23 357.323 1309.63 357.195 1310 357.029C1310.98 356.588 1311.83 355.882 1312.47 354.984C1313.1 354.085 1313.49 353.027 1313.61 351.917C1313.72 350.808 1313.55 349.687 1313.11 348.669C1312.67 347.651 1311.98 346.773 1311.12 346.125Z" fill="#6C63FF"/>
<path d="M1286.36 354.044C1287.9 354.044 1289.15 352.634 1289.15 350.895C1289.15 349.157 1287.9 347.747 1286.36 347.747C1284.81 347.747 1283.56 349.157 1283.56 350.895C1283.56 352.634 1284.81 354.044 1286.36 354.044Z" fill="#F1F1F1"/>
<path d="M1296.5 354.044C1298.24 354.044 1299.65 352.634 1299.65 350.895C1299.65 349.157 1298.24 347.747 1296.5 347.747C1294.76 347.747 1293.35 349.157 1293.35 350.895C1293.35 352.634 1294.76 354.044 1296.5 354.044Z" fill="#F1F1F1"/>
<path d="M1306.29 354.044C1308.03 354.044 1309.44 352.634 1309.44 350.895C1309.44 349.157 1308.03 347.747 1306.29 347.747C1304.56 347.747 1303.15 349.157 1303.15 350.895C1303.15 352.634 1304.56 354.044 1306.29 354.044Z" fill="#6C63FF"/>
<path d="M1422.71 249.787C1414.67 254.611 1400.34 260.655 1385.69 254.444L1376.23 250.428L1395.2 229.163C1380.06 212.472 1371.68 190.739 1371.71 168.206C1371.73 145.673 1380.15 123.957 1395.32 107.297C1410.49 90.6367 1431.33 80.2284 1453.76 78.1035C1476.19 75.9786 1498.61 82.2895 1516.64 95.8044C1534.68 109.319 1547.02 129.068 1551.28 151.196C1555.53 173.324 1551.38 196.243 1539.65 215.48C1527.91 234.716 1509.43 248.89 1487.81 255.233C1466.19 261.576 1442.98 259.635 1422.71 249.787Z" fill="white"/>
<path d="M1422.9 250.578C1415.19 255.098 1400.52 261.345 1385.56 255.002L1374.83 250.453L1394.07 228.893C1382.1 215.433 1374.38 198.732 1371.89 180.895C1369.39 163.058 1372.23 144.881 1380.05 128.655C1387.87 112.429 1400.32 98.8778 1415.83 89.7093C1431.34 80.5409 1449.22 76.1646 1467.21 77.1317C1485.2 78.0988 1502.5 84.366 1516.94 95.144C1531.38 105.922 1542.3 120.729 1548.33 137.7C1554.37 154.671 1555.24 173.047 1550.85 190.514C1546.45 207.981 1536.99 223.758 1523.64 235.858C1510.24 248.083 1493.48 256.018 1475.52 258.641C1457.57 261.265 1439.24 258.456 1422.9 250.578ZM1528.44 108.304C1520.56 99.6197 1511.05 92.5711 1500.45 87.5609C1489.85 82.5508 1478.37 79.6773 1466.65 79.1046C1454.94 78.5318 1443.23 80.2711 1432.19 84.2229C1421.15 88.1748 1411 94.2619 1402.31 102.137C1393.62 110.011 1386.58 119.519 1381.57 130.117C1376.56 140.716 1373.68 152.197 1373.11 163.904C1372.54 175.612 1374.29 187.318 1378.24 198.352C1382.2 209.386 1388.29 219.534 1396.17 228.214L1396.78 228.885L1378.21 249.696L1386.35 253.148C1400.8 259.274 1415.09 252.91 1422.33 248.572L1422.8 248.291L1423.29 248.53C1441.94 257.59 1463.17 259.876 1483.32 254.996C1503.48 250.116 1521.31 238.374 1533.75 221.786C1546.19 205.199 1552.46 184.8 1551.49 164.092C1550.52 143.385 1542.37 123.66 1528.44 108.304Z" fill="#6C63FF" stroke="#6C63FF" stroke-width="3"/>
<path opacity="0.1" d="M1538.29 167.599C1538.29 146.881 1530.52 126.914 1516.53 111.63C1502.53 96.3462 1483.31 86.8537 1462.66 85.0217C1465.07 84.8101 1467.52 84.6957 1469.99 84.6957C1491.98 84.7089 1513.07 93.4492 1528.62 108.995C1544.17 124.541 1552.91 145.62 1552.91 167.599C1552.91 189.577 1544.17 210.657 1528.62 226.203C1513.07 241.748 1491.98 250.489 1469.99 250.502C1467.52 250.502 1465.08 250.386 1462.67 250.175C1483.32 248.34 1502.53 238.847 1516.53 223.564C1530.53 208.28 1538.29 188.315 1538.29 167.599Z" fill="black"/>
<path d="M1473.85 151.158H1414.38V156.755H1473.85V151.158Z" fill="#6C63FF"/>
<path d="M1518.62 170.047H1414.38V176.344H1518.62V170.047Z" fill="#6C63FF"/>
<path d="M1518.62 188.937H1414.38V195.233H1518.62V188.937Z" fill="#6C63FF"/>
<path d="M231.229 339.085L230.991 335.856C237.301 335.392 243.625 334.491 249.788 333.178L250.461 336.344C244.155 337.687 237.685 338.609 231.229 339.085ZM211.779 338.909C205.246 338.358 198.785 337.46 192.578 336.239L193.203 333.062C199.294 334.262 205.636 335.143 212.051 335.683L211.779 338.909ZM269.143 330.997L268.04 327.954C273.975 325.804 279.817 323.22 285.406 320.276L286.914 323.14C281.195 326.153 275.216 328.796 269.143 330.997ZM173.802 331.339C167.592 329.295 161.534 326.847 155.799 324.059L157.212 321.15C162.818 323.872 168.74 326.267 174.813 328.264L173.802 331.339ZM138.965 314.35C133.602 310.718 128.469 306.664 123.711 302.3L125.898 299.914C130.54 304.171 135.547 308.127 140.78 311.669L138.965 314.35ZM303.438 312.935L301.554 310.304C306.688 306.627 311.617 302.563 316.204 298.226L318.427 300.578C313.734 305.015 308.691 309.173 303.438 312.935ZM110.381 288.123C106.326 283.121 102.583 277.753 99.2581 272.168L102.039 270.512C105.285 275.964 108.937 281.204 112.894 286.086L110.381 288.123ZM331.609 286.306L329.088 284.276C333.053 279.35 336.712 274.109 339.964 268.702L342.737 270.371C339.41 275.903 335.666 281.264 331.609 286.306ZM90.5042 254.816C88.0139 248.895 85.8903 242.713 84.1928 236.44L87.3168 235.594C88.9763 241.728 91.0525 247.773 93.4867 253.56L90.5042 254.816ZM351.593 253.069L348.618 251.794C351.104 245.99 353.21 239.954 354.877 233.854L357.998 234.709C356.292 240.949 354.138 247.127 351.593 253.069ZM80.3507 217.397C79.4869 211.006 79.0269 204.488 78.9844 198.023L82.2205 198.002C82.2622 204.33 82.7119 210.71 83.5576 216.964L80.3507 217.397ZM361.822 215.658L358.613 215.24C359.426 208.999 359.82 202.622 359.783 196.287L359.781 195.995L363.017 195.976L363.019 196.256C363.057 202.749 362.654 209.273 361.822 215.658ZM83.3081 179.024L80.0949 178.631C80.879 172.197 82.0867 165.774 83.6849 159.542L86.8199 160.346C85.2564 166.442 84.0748 172.727 83.3081 179.024ZM358.356 177.063C357.455 170.807 356.113 164.561 354.368 158.5L357.478 157.605C359.264 163.808 360.637 170.2 361.56 176.602L358.356 177.063ZM92.7506 142.301L89.7508 141.086C92.1917 135.062 95.0577 129.188 98.2684 123.627L101.071 125.245C97.9342 130.676 95.1346 136.415 92.7506 142.301ZM347.872 140.658C345.314 134.899 342.33 129.256 339.002 123.885L341.753 122.18C345.159 127.676 348.213 133.452 350.83 139.346L347.872 140.658ZM327.927 108.467C323.904 103.603 319.509 98.9663 314.861 94.6877L317.054 92.3064C321.808 96.6848 326.306 101.428 330.421 106.405L327.927 108.467ZM111.712 109.534L109.171 107.531C113.184 102.44 117.6 97.6138 122.294 93.1869L124.515 95.5413C119.935 99.8601 115.628 104.568 111.712 109.534ZM300.048 82.8017C294.857 79.1883 289.375 75.9029 283.755 73.0362L285.225 70.1534C290.976 73.0865 296.586 76.4486 301.897 80.1459L300.048 82.8017ZM139.233 83.5835L137.382 80.9284C142.647 77.2575 148.266 73.914 154.081 70.9898L155.535 73.8811C149.856 76.7358 144.372 80.0003 139.233 83.5835ZM173.038 66.5272L171.985 63.4668C177.983 61.4051 184.278 59.6728 190.695 58.3197L191.363 61.4858C185.076 62.812 178.91 64.508 173.038 66.5272ZM266.279 65.5876C260.313 63.5161 254.144 61.8408 247.943 60.6059L248.574 57.4324C254.921 58.6958 261.235 60.4105 267.34 62.5302L266.279 65.5876ZM210.173 58.6184L209.859 55.3982C213.096 55.0826 216.425 54.8462 219.753 54.696C222.902 54.6409 226.167 54.7621 229.305 54.9503L229.111 58.1813C226.043 57.9966 222.923 57.9126 219.836 57.9302C216.627 58.0766 213.355 58.3094 210.173 58.6184Z" fill="#3F3D56"/>
<path d="M113.677 330.094C137.805 329.956 157.252 310.284 157.114 286.156C156.976 262.028 137.305 242.581 113.177 242.719C89.0489 242.857 69.6012 262.528 69.7392 286.656C69.8773 310.784 89.5488 330.232 113.677 330.094Z" fill="#6C63FF"/>
<path d="M96.2445 271.856C96.2367 270.503 97.3547 269.4 98.7417 269.392L127.915 269.225C129.302 269.217 130.433 270.307 130.441 271.66L130.608 300.957C130.616 302.31 129.498 303.413 128.111 303.421L98.9374 303.588C97.5503 303.596 96.4198 302.506 96.4121 301.153L96.2445 271.856ZM106.959 297.972L106.87 282.531L101.739 282.56L101.827 298.002L106.959 297.972ZM104.294 280.436C106.082 280.425 107.189 279.235 107.181 277.752C107.14 276.237 106.054 275.091 104.297 275.101C102.54 275.111 101.399 276.272 101.408 277.785C101.416 279.268 102.537 280.446 104.259 280.436L104.294 280.436ZM114.884 297.927L114.834 289.303C114.832 288.841 114.863 288.38 114.998 288.05C115.363 287.126 116.201 286.166 117.62 286.158C119.478 286.147 120.228 287.558 120.239 289.635L120.287 297.896L125.418 297.867L125.368 289.01C125.34 284.265 122.797 282.074 119.42 282.093C116.698 282.109 115.486 283.612 114.808 284.669L114.808 284.723L114.774 284.723L114.808 284.669L114.795 282.485L109.666 282.515C109.738 283.963 109.754 297.956 109.754 297.956L114.884 297.927Z" fill="white"/>
<path d="M241.38 100.625C265.508 100.487 284.956 80.8156 284.818 56.6876C284.68 32.5596 265.008 13.1119 240.88 13.2499C216.752 13.388 197.304 33.0595 197.442 57.1875C197.58 81.3155 217.252 100.763 241.38 100.625Z" fill="#6C63FF"/>
<path fill-rule="evenodd" clip-rule="evenodd" d="M241.642 49.0201C244.013 45.7742 246.641 43.2146 250.02 43.1952C256.4 43.1587 261.7 51.2491 261.758 60.9174C261.792 66.8153 259.274 70.5256 254.712 70.5517C250.738 70.5744 248.531 68.3566 244.556 61.7911L242.821 58.9087L242.515 58.403C242.062 57.6485 241.603 56.8982 241.137 56.1522L238.133 61.5265C233.868 69.0844 231.451 70.6848 228.082 70.704C223.4 70.7308 220.582 67.1025 220.549 61.3232C220.496 52.0901 225.584 43.335 232.288 43.2967C233.11 43.292 233.899 43.3879 234.67 43.5973C235.469 43.8142 236.247 44.1549 237.027 44.632C238.519 45.5481 240.013 46.9716 241.642 49.0201ZM245.579 54.7256C244.924 53.6734 244.295 52.706 243.69 51.8183L243.674 51.7978C245.832 48.4244 247.62 46.7426 249.755 46.7304C254.192 46.705 257.781 53.2187 257.827 61.2438C257.845 64.3035 256.85 66.0837 254.777 66.0956C252.786 66.107 251.828 64.7989 248.013 58.7425L245.577 54.7257L245.579 54.7256ZM232.953 47.8156C234.822 48.0624 236.529 49.428 239.009 52.9346C237.602 55.1158 236.211 57.3071 234.836 59.5081C231.372 65.0036 230.171 66.239 228.227 66.2501C226.225 66.2615 225.023 64.5119 225.005 61.375C224.967 54.6736 228.27 47.7986 232.257 47.7758C232.492 47.7744 232.723 47.7886 232.953 47.8182L232.953 47.8156Z" fill="white"/>
<path d="M101.188 170.533C125.316 170.395 144.763 150.723 144.625 126.595C144.487 102.467 124.816 83.0195 100.688 83.1575C76.5596 83.2956 57.1119 102.967 57.25 127.095C57.388 151.223 77.0595 170.671 101.188 170.533Z" fill="#6C63FF"/>
<path d="M93.9748 142.296C108.29 142.215 116.052 130.309 115.994 120.041C115.992 119.709 115.99 119.372 115.974 119.04C117.492 117.928 118.8 116.554 119.836 114.983C118.416 115.619 116.909 116.042 115.365 116.237C116.987 115.255 118.197 113.717 118.771 111.909C117.247 112.824 115.577 113.47 113.834 113.818C110.871 110.698 105.94 110.571 102.82 113.534C100.805 115.448 99.9623 118.289 100.607 120.992C94.3475 120.714 88.4996 117.793 84.5178 112.954C82.4783 116.524 83.5604 121.063 86.9907 123.329C85.7566 123.294 84.5479 122.97 83.4622 122.382L83.4628 122.489C83.4884 126.191 86.1144 129.364 89.7464 130.082C89.0795 130.27 88.39 130.366 87.6972 130.367C87.2088 130.371 86.7211 130.328 86.2407 130.24C87.2786 133.403 90.2136 135.557 93.5429 135.597C90.797 137.779 87.3965 138.973 83.8891 138.988C83.2711 138.994 82.6533 138.962 82.0393 138.891C85.612 141.141 89.7531 142.322 93.9748 142.296Z" fill="white"/>
<path d="M259.661 377.251C283.789 377.112 303.237 357.441 303.099 333.313C302.961 309.185 283.289 289.737 259.161 289.875C235.033 290.013 215.586 309.685 215.724 333.813C215.862 357.941 235.533 377.389 259.661 377.251Z" fill="#6C63FF"/>
<path d="M259.304 314.931C254.247 314.959 253.611 314.986 251.625 315.086C249.639 315.191 248.288 315.511 247.105 315.979C245.864 316.453 244.742 317.194 243.817 318.147C242.874 319.084 242.147 320.214 241.686 321.46C241.231 322.646 240.925 324.003 240.845 325.983C240.768 327.975 240.749 328.609 240.778 333.672C240.806 338.731 240.833 339.364 240.933 341.351C241.038 343.334 241.358 344.686 241.826 345.869C242.31 347.091 242.952 348.126 243.994 349.157C245.034 350.187 246.077 350.819 247.304 351.288C248.495 351.742 249.848 352.049 251.833 352.128C253.822 352.205 254.456 352.225 259.517 352.196C264.578 352.167 265.209 352.14 267.198 352.04C269.179 351.936 270.535 351.616 271.718 351.148C272.958 350.673 274.079 349.933 275.004 348.979C276.034 347.937 276.664 346.895 277.135 345.667C277.587 344.479 277.893 343.124 277.975 341.139C278.052 339.151 278.072 338.518 278.043 333.457C278.014 328.396 277.987 327.762 277.887 325.774C277.783 323.792 277.461 322.438 276.995 321.258C276.519 320.017 275.779 318.895 274.826 317.97C273.891 317.026 272.76 316.299 271.514 315.839C270.323 315.385 268.966 315.078 266.983 314.998C264.994 314.921 264.362 314.902 259.299 314.931L259.304 314.931ZM257.653 318.299L259.325 318.289C264.3 318.261 264.889 318.274 266.853 318.353C268.671 318.424 269.66 318.724 270.318 318.974C271.189 319.307 271.813 319.708 272.469 320.357C273.125 321.005 273.531 321.622 273.874 322.491C274.134 323.144 274.442 324.13 274.534 325.946C274.636 327.909 274.658 328.499 274.687 333.471C274.715 338.444 274.7 339.035 274.62 340.999C274.549 342.817 274.25 343.804 274 344.462C273.705 345.273 273.233 346.007 272.617 346.61C271.968 347.266 271.351 347.672 270.482 348.015C269.831 348.275 268.845 348.584 267.027 348.678C265.064 348.778 264.475 348.802 259.5 348.83C254.525 348.859 253.933 348.841 251.969 348.764C250.152 348.691 249.165 348.393 248.507 348.141C247.696 347.847 246.961 347.376 246.356 346.76C245.733 346.163 245.251 345.434 244.947 344.626C244.689 343.973 244.378 342.987 244.286 341.171C244.186 339.208 244.164 338.619 244.136 333.641C244.108 328.666 244.123 328.079 244.2 326.115C244.274 324.298 244.571 323.309 244.823 322.651C245.156 321.78 245.558 321.156 246.206 320.5C246.854 319.844 247.472 319.438 248.341 319.095C248.996 318.835 249.98 318.526 251.796 318.432C253.514 318.343 254.18 318.316 257.653 318.294L257.653 318.299ZM269.288 321.325C268.053 321.332 267.058 322.339 267.065 323.574C267.072 324.809 268.079 325.804 269.314 325.797C270.549 325.79 271.544 324.783 271.537 323.548C271.53 322.313 270.523 321.318 269.288 321.325ZM259.358 323.995C254.072 323.943 249.746 328.185 249.693 333.471C249.641 338.756 253.883 343.083 259.169 343.135C259.268 343.136 259.368 343.136 259.467 343.133C264.752 343.021 268.944 338.646 268.831 333.361C268.721 328.193 264.527 324.046 259.358 323.995ZM259.377 327.352C262.808 327.33 265.606 330.094 265.627 333.525C265.648 336.956 262.884 339.754 259.453 339.775L259.448 339.775C256.017 339.795 253.22 337.029 253.201 333.599C253.181 330.168 255.946 327.371 259.377 327.352Z" fill="white"/>
<g clip-path="url(#clip0_384_496)">
<path fill-rule="evenodd" clip-rule="evenodd" d="M219 212.286C209.376 212.286 201.583 204.528 201.583 194.868C201.583 185.286 209.376 177.527 219 177.527C228.625 177.527 236.493 185.286 236.493 194.868C236.493 204.528 228.625 212.286 219 212.286ZM219 180.95C211.285 180.95 205.021 187.187 205.021 194.868C205.021 202.55 211.285 208.786 219 208.786C226.716 208.786 232.98 202.55 232.98 194.868C232.98 187.187 226.716 180.95 219 180.95Z" fill="#3F3D56"/>
<path fill-rule="evenodd" clip-rule="evenodd" d="M188.979 240.427C188.598 240.427 188.292 240.35 187.985 240.123C173.014 229.854 164 212.969 164 194.868C164 164.674 188.673 140.106 219 140.106C219.993 140.106 220.757 140.868 220.757 141.857C220.757 142.844 219.993 143.606 219 143.606C190.66 143.606 167.515 166.65 167.515 194.868C167.515 211.83 175.916 227.649 189.972 237.233C190.737 237.764 190.965 238.905 190.431 239.665C190.049 240.123 189.514 240.427 188.979 240.427Z" fill="#3F3D56"/>
<path fill-rule="evenodd" clip-rule="evenodd" d="M219 153.721C218.77 153.721 218.465 153.644 218.236 153.569C217.624 153.265 217.243 152.655 217.243 151.972V131.741C217.243 131.056 217.624 130.523 218.236 130.219C218.77 129.915 219.535 129.915 220.068 130.296L234.506 140.412C234.964 140.791 235.194 141.324 235.194 141.857C235.194 142.465 234.964 142.998 234.506 143.302L220.068 153.417C219.763 153.644 219.382 153.721 219 153.721ZM220.756 135.087V148.626L230.458 141.857L220.756 135.087Z" fill="#3F3D56"/>
<path fill-rule="evenodd" clip-rule="evenodd" d="M219 249.629C218.084 249.629 217.243 248.869 217.243 247.957C217.243 246.968 218.084 246.207 219 246.207C247.416 246.207 270.562 223.161 270.562 194.868C270.562 177.983 262.159 162.088 248.104 152.58C247.263 151.972 247.11 150.906 247.646 150.146C248.181 149.309 249.249 149.157 250.09 149.69C265.063 159.882 274 176.842 274 194.868C274 225.063 249.326 249.629 219 249.629Z" fill="#3F3D56"/>
<path fill-rule="evenodd" clip-rule="evenodd" d="M219 261.953C218.695 261.953 218.312 261.801 218.007 261.572L203.569 251.457C203.111 251.153 202.806 250.621 202.806 250.088C202.806 249.48 203.111 248.947 203.569 248.643L218.007 238.528C218.542 238.147 219.23 238.072 219.84 238.376C220.376 238.68 220.757 239.288 220.757 239.896V260.204C220.757 260.812 220.376 261.42 219.84 261.726C219.611 261.878 219.305 261.953 219 261.953ZM207.619 250.088L217.243 256.858V243.319L207.619 250.088Z" fill="#3F3D56"/>
<path fill-rule="evenodd" clip-rule="evenodd" d="M224.424 231.909H213.653C212.813 231.909 212.048 231.299 211.895 230.464L209.986 218.674C207.389 217.685 205.02 216.317 202.881 214.568L191.653 218.826C190.889 219.13 189.972 218.749 189.514 218.066L184.167 208.786C183.709 208.026 183.862 207.037 184.548 206.506L193.869 198.975C193.639 197.681 193.486 196.236 193.486 194.868C193.486 193.5 193.639 192.13 193.869 190.762L184.548 183.231C183.862 182.699 183.709 181.786 184.167 181.026L189.514 171.747C189.972 170.985 190.889 170.681 191.653 170.985L202.881 175.245C205.02 173.496 207.389 172.126 209.986 171.139L211.895 159.349C212.048 158.513 212.813 157.904 213.653 157.904H224.424C225.264 157.904 226.028 158.513 226.105 159.349L228.014 171.139C230.611 172.126 233.055 173.496 235.194 175.245L246.347 170.985C247.188 170.681 248.104 170.985 248.486 171.747L253.91 181.026C254.291 181.786 254.139 182.699 253.452 183.231L244.208 190.762C244.438 192.13 244.514 193.5 244.514 194.868C244.514 196.236 244.438 197.606 244.208 198.975L253.452 206.506C254.139 207.037 254.291 208.026 253.91 208.786L248.486 218.066C248.104 218.749 247.188 219.055 246.347 218.749L235.194 214.568C233.055 216.317 230.611 217.685 228.014 218.674L226.105 230.464C226.028 231.299 225.264 231.909 224.424 231.909ZM215.105 228.409H222.896L224.729 217.077C224.882 216.469 225.34 215.936 225.952 215.707C228.778 214.795 231.375 213.275 233.666 211.22C234.126 210.841 234.812 210.689 235.424 210.916L246.27 215.024L250.09 208.33L241.153 201.029C240.694 200.648 240.466 199.964 240.618 199.355C240.848 197.91 241.001 196.39 241.001 194.868C241.001 193.423 240.848 191.901 240.618 190.456C240.466 189.773 240.694 189.163 241.153 188.707L250.09 181.482L246.27 174.789L235.424 178.896C234.812 179.124 234.126 178.972 233.666 178.516C231.375 176.538 228.778 175.016 225.952 174.104C225.34 173.877 224.882 173.344 224.729 172.736L222.896 161.403H215.105L213.271 172.736C213.194 173.344 212.736 173.877 212.125 174.104C209.223 175.016 206.626 176.538 204.41 178.516C203.875 178.972 203.188 179.124 202.576 178.896L191.805 174.789L187.91 181.482L196.847 188.707C197.382 189.163 197.612 189.773 197.459 190.456C197.152 191.901 197 193.423 197 194.868C197 196.39 197.152 197.91 197.459 199.355C197.612 199.964 197.382 200.648 196.847 201.029L187.91 208.33L191.805 215.024L202.576 210.916C203.188 210.689 203.875 210.841 204.41 211.22C206.626 213.275 209.223 214.795 212.125 215.707C212.736 215.936 213.194 216.469 213.271 217.077L215.105 228.409Z" fill="#3F3D56"/>
<path fill-rule="evenodd" clip-rule="evenodd" d="M219 212.286C209.376 212.286 201.583 204.528 201.583 194.868C201.583 185.286 209.376 177.527 219 177.527C228.625 177.527 236.493 185.286 236.493 194.868C236.493 204.528 228.625 212.286 219 212.286ZM219 180.95C211.285 180.95 205.021 187.187 205.021 194.868C205.021 202.55 211.285 208.786 219 208.786C226.716 208.786 232.98 202.55 232.98 194.868C232.98 187.187 226.716 180.95 219 180.95Z" fill="#3F3D56"/>
<path fill-rule="evenodd" clip-rule="evenodd" d="M188.979 240.427C188.598 240.427 188.292 240.35 187.985 240.123C173.014 229.854 164 212.969 164 194.868C164 164.674 188.673 140.106 219 140.106C219.993 140.106 220.757 140.868 220.757 141.857C220.757 142.844 219.993 143.606 219 143.606C190.66 143.606 167.515 166.65 167.515 194.868C167.515 211.83 175.916 227.649 189.972 237.233C190.737 237.764 190.965 238.905 190.431 239.665C190.049 240.123 189.514 240.427 188.979 240.427Z" fill="#3F3D56"/>
<path fill-rule="evenodd" clip-rule="evenodd" d="M219 153.721C218.77 153.721 218.465 153.644 218.236 153.569C217.624 153.265 217.243 152.655 217.243 151.972V131.741C217.243 131.056 217.624 130.523 218.236 130.219C218.77 129.915 219.535 129.915 220.068 130.296L234.506 140.412C234.964 140.791 235.194 141.324 235.194 141.857C235.194 142.465 234.964 142.998 234.506 143.302L220.068 153.417C219.763 153.644 219.382 153.721 219 153.721ZM220.756 135.087V148.626L230.458 141.857L220.756 135.087Z" fill="#3F3D56"/>
<path fill-rule="evenodd" clip-rule="evenodd" d="M219 249.629C218.084 249.629 217.243 248.869 217.243 247.957C217.243 246.968 218.084 246.207 219 246.207C247.416 246.207 270.562 223.161 270.562 194.868C270.562 177.983 262.159 162.088 248.104 152.58C247.263 151.972 247.11 150.906 247.646 150.146C248.181 149.309 249.249 149.157 250.09 149.69C265.063 159.882 274 176.842 274 194.868C274 225.063 249.326 249.629 219 249.629Z" fill="#3F3D56"/>
<path fill-rule="evenodd" clip-rule="evenodd" d="M219 261.953C218.695 261.953 218.312 261.801 218.007 261.572L203.569 251.457C203.111 251.153 202.806 250.621 202.806 250.088C202.806 249.48 203.111 248.947 203.569 248.643L218.007 238.528C218.542 238.147 219.23 238.072 219.84 238.376C220.376 238.68 220.757 239.288 220.757 239.896V260.204C220.757 260.812 220.376 261.42 219.84 261.726C219.611 261.878 219.305 261.953 219 261.953ZM207.619 250.088L217.243 256.858V243.319L207.619 250.088Z" fill="#3F3D56"/>
<path fill-rule="evenodd" clip-rule="evenodd" d="M224.424 231.909H213.653C212.813 231.909 212.048 231.299 211.895 230.464L209.986 218.674C207.389 217.685 205.02 216.317 202.881 214.568L191.653 218.826C190.889 219.13 189.972 218.749 189.514 218.066L184.167 208.786C183.709 208.026 183.862 207.037 184.548 206.506L193.869 198.975C193.639 197.681 193.486 196.236 193.486 194.868C193.486 193.5 193.639 192.13 193.869 190.762L184.548 183.231C183.862 182.699 183.709 181.786 184.167 181.026L189.514 171.747C189.972 170.985 190.889 170.681 191.653 170.985L202.881 175.245C205.02 173.496 207.389 172.126 209.986 171.139L211.895 159.349C212.048 158.513 212.813 157.904 213.653 157.904H224.424C225.264 157.904 226.028 158.513 226.105 159.349L228.014 171.139C230.611 172.126 233.055 173.496 235.194 175.245L246.347 170.985C247.188 170.681 248.104 170.985 248.486 171.747L253.91 181.026C254.291 181.786 254.139 182.699 253.452 183.231L244.208 190.762C244.438 192.13 244.514 193.5 244.514 194.868C244.514 196.236 244.438 197.606 244.208 198.975L253.452 206.506C254.139 207.037 254.291 208.026 253.91 208.786L248.486 218.066C248.104 218.749 247.188 219.055 246.347 218.749L235.194 214.568C233.055 216.317 230.611 217.685 228.014 218.674L226.105 230.464C226.028 231.299 225.264 231.909 224.424 231.909ZM215.105 228.409H222.896L224.729 217.077C224.882 216.469 225.34 215.936 225.952 215.707C228.778 214.795 231.375 213.275 233.666 211.22C234.126 210.841 234.812 210.689 235.424 210.916L246.27 215.024L250.09 208.33L241.153 201.029C240.694 200.648 240.466 199.964 240.618 199.355C240.848 197.91 241.001 196.39 241.001 194.868C241.001 193.423 240.848 191.901 240.618 190.456C240.466 189.773 240.694 189.163 241.153 188.707L250.09 181.482L246.27 174.789L235.424 178.896C234.812 179.124 234.126 178.972 233.666 178.516C231.375 176.538 228.778 175.016 225.952 174.104C225.34 173.877 224.882 173.344 224.729 172.736L222.896 161.403H215.105L213.271 172.736C213.194 173.344 212.736 173.877 212.125 174.104C209.223 175.016 206.626 176.538 204.41 178.516C203.875 178.972 203.188 179.124 202.576 178.896L191.805 174.789L187.91 181.482L196.847 188.707C197.382 189.163 197.612 189.773 197.459 190.456C197.152 191.901 197 193.423 197 194.868C197 196.39 197.152 197.91 197.459 199.355C197.612 199.964 197.382 200.648 196.847 201.029L187.91 208.33L191.805 215.024L202.576 210.916C203.188 210.689 203.875 210.841 204.41 211.22C206.626 213.275 209.223 214.795 212.125 215.707C212.736 215.936 213.194 216.469 213.271 217.077L215.105 228.409Z" fill="#3F3D56"/>
</g>
<path d="M580.119 93.5555H380V95.1261H580.119V93.5555Z" fill="#3F3D56"/>
<path d="M459.2 160.15H338.855C336.975 160.152 335.173 160.896 333.843 162.218C332.514 163.54 331.766 165.333 331.764 167.202V241.711C331.766 243.581 332.514 245.374 333.843 246.696C335.173 248.018 336.975 248.762 338.855 248.764H459.2C461.08 248.762 462.883 248.018 464.212 246.696C465.542 245.374 466.29 243.581 466.292 241.711V167.202C466.29 165.333 465.542 163.54 464.212 162.218C462.883 160.896 461.08 160.152 459.2 160.15Z" fill="#6C63FF"/>
<path d="M459.2 160.15H338.855C336.975 160.152 335.173 160.896 333.843 162.218C332.514 163.54 331.766 165.333 331.764 167.202V241.711C331.766 243.581 332.514 245.374 333.843 246.696C335.173 248.018 336.975 248.762 338.855 248.764H459.2C461.08 248.762 462.883 248.018 464.212 246.696C465.542 245.374 466.29 243.581 466.292 241.711V167.202C466.29 165.333 465.542 163.54 464.212 162.218C462.883 160.896 461.08 160.152 459.2 160.15ZM461.528 213.671C461.499 221.256 458.481 228.528 453.123 233.927C447.765 239.326 440.492 242.421 432.865 242.549C420.654 242.707 439.621 242.768 424.894 242.768C391.217 242.768 356.101 242.448 342.999 242.241C341.275 242.205 339.633 241.501 338.424 240.279C337.215 239.056 336.535 237.412 336.528 235.698V167.208C336.529 166.594 336.774 166.005 337.21 165.57C337.646 165.136 338.238 164.891 338.855 164.888H459.195C459.813 164.889 460.405 165.133 460.842 165.566C461.279 166 461.525 166.588 461.528 167.202V213.671Z" fill="#3F3D56"/>
<path d="M444.386 117.245H352.696C351.885 117.247 351.094 117.497 350.431 117.962C349.768 118.427 349.265 119.084 348.992 119.843L334.831 159.351C334.619 159.941 334.554 160.572 334.639 161.193C334.724 161.813 334.957 162.404 335.32 162.916C335.682 163.428 336.163 163.846 336.721 164.134C337.28 164.423 337.9 164.574 338.53 164.575L461.501 164.792H461.507C462.157 164.792 462.798 164.632 463.371 164.325C463.944 164.018 464.431 163.574 464.79 163.034C465.148 162.494 465.366 161.874 465.424 161.229C465.481 160.584 465.378 159.936 465.121 159.341L448.001 119.616C447.698 118.912 447.194 118.312 446.552 117.891C445.909 117.469 445.156 117.245 444.386 117.245Z" fill="#3F3D56"/>
<path d="M465.44 160.199C465.44 160.729 465.331 161.253 465.122 161.74L448.002 192.319C447.697 193.021 447.193 193.62 446.55 194.04C445.908 194.461 445.156 194.686 444.387 194.687H352.698C351.886 194.686 351.095 194.436 350.431 193.971C349.768 193.507 349.265 192.85 348.99 192.09L334.832 161.729C334.659 161.245 334.583 160.732 334.608 160.22C334.634 159.707 334.762 159.204 334.983 158.74C335.205 158.276 335.516 157.86 335.899 157.516C336.282 157.171 336.73 156.906 337.217 156.733C337.637 156.582 338.082 156.505 338.529 156.505L353.55 156.477L359.681 156.466L440.357 156.325L446.492 156.315L461.502 156.287H461.506C462.549 156.287 463.55 156.699 464.287 157.433C465.025 158.166 465.44 159.161 465.44 160.199Z" fill="#3F3D56"/>
<path d="M347.878 216.04C349.696 216.04 374.664 217.558 374.664 219.366C374.664 221.174 349.696 222.588 347.878 222.588C347.005 222.588 346.168 222.243 345.55 221.629C344.933 221.015 344.586 220.183 344.586 219.314C344.586 218.446 344.933 217.613 345.55 216.999C346.168 216.385 347.005 216.04 347.878 216.04Z" fill="#3F3D56"/>
<path d="M438.676 93.2108H361.365C359.293 93.2132 357.306 94.0327 355.841 95.4897C354.376 96.9466 353.552 98.9219 353.55 100.982V194.687H444.386C445.132 194.689 445.863 194.478 446.491 194.078V100.982C446.488 98.9219 445.664 96.9466 444.199 95.4897C442.734 94.0327 440.748 93.2132 438.676 93.2108Z" fill="#E6E6E6"/>
<path d="M409.168 99.5117H366.8C364.913 99.5135 363.104 100.259 361.77 101.586C360.435 102.912 359.684 104.71 359.682 106.587V194.687H440.357V130.527C440.348 122.304 437.059 114.421 431.212 108.606C425.365 102.792 417.437 99.5212 409.168 99.5117Z" fill="white"/>
<path d="M426.613 186.862H373.426C372.966 186.862 372.525 187.044 372.2 187.367C371.875 187.691 371.692 188.129 371.692 188.586C371.692 189.043 371.875 189.482 372.2 189.805C372.525 190.129 372.966 190.31 373.426 190.31H426.613C427.073 190.31 427.514 190.129 427.839 189.805C428.164 189.482 428.346 189.043 428.346 188.586C428.346 188.129 428.164 187.691 427.839 187.367C427.514 187.044 427.073 186.862 426.613 186.862Z" fill="#E4E4E4"/>
<path d="M426.613 180.044H373.426C372.965 180.044 372.524 180.226 372.199 180.55C371.873 180.873 371.69 181.312 371.69 181.77C371.69 182.228 371.873 182.667 372.199 182.99C372.524 183.314 372.965 183.496 373.426 183.496H426.613C427.073 183.496 427.514 183.314 427.84 182.99C428.165 182.667 428.348 182.228 428.348 181.77C428.348 181.312 428.165 180.873 427.84 180.55C427.514 180.226 427.073 180.044 426.613 180.044Z" fill="#E4E4E4"/>
<path d="M396.482 173.23H373.426C372.966 173.23 372.525 173.411 372.2 173.735C371.875 174.058 371.692 174.496 371.692 174.954C371.692 175.411 371.875 175.849 372.2 176.173C372.525 176.496 372.966 176.678 373.426 176.678H396.482C396.941 176.678 397.382 176.496 397.707 176.173C398.032 175.849 398.215 175.411 398.215 174.954C398.215 174.496 398.032 174.058 397.707 173.735C397.382 173.411 396.941 173.23 396.482 173.23Z" fill="#E4E4E4"/>
<path d="M426.613 158.953H373.426C372.965 158.953 372.524 159.135 372.199 159.459C371.873 159.782 371.69 160.221 371.69 160.679C371.69 161.137 371.873 161.576 372.199 161.899C372.524 162.223 372.965 162.405 373.426 162.405H426.613C427.073 162.405 427.514 162.223 427.84 161.899C428.165 161.576 428.348 161.137 428.348 160.679C428.348 160.221 428.165 159.782 427.84 159.459C427.514 159.135 427.073 158.953 426.613 158.953Z" fill="#E4E4E4"/>
<path d="M426.613 152.139H373.426C372.966 152.139 372.525 152.32 372.2 152.644C371.875 152.967 371.692 153.406 371.692 153.863C371.692 154.32 371.875 154.758 372.2 155.082C372.525 155.405 372.966 155.587 373.426 155.587H426.613C427.073 155.587 427.514 155.405 427.839 155.082C428.164 154.758 428.346 154.32 428.346 153.863C428.346 153.406 428.164 152.967 427.839 152.644C427.514 152.32 427.073 152.139 426.613 152.139Z" fill="#E4E4E4"/>
<path d="M396.481 145.321H373.426C372.965 145.321 372.524 145.503 372.199 145.826C371.873 146.15 371.69 146.589 371.69 147.046C371.69 147.504 371.873 147.943 372.199 148.267C372.524 148.59 372.965 148.772 373.426 148.772H396.481C396.942 148.772 397.383 148.59 397.708 148.267C398.034 147.943 398.217 147.504 398.217 147.046C398.217 146.589 398.034 146.15 397.708 145.826C397.383 145.503 396.942 145.321 396.481 145.321Z" fill="#E4E4E4"/>
<path d="M426.613 131.044H373.426C372.965 131.044 372.524 131.226 372.199 131.55C371.873 131.873 371.69 132.312 371.69 132.77C371.69 133.228 371.873 133.667 372.199 133.99C372.524 134.314 372.965 134.496 373.426 134.496H426.613C427.073 134.496 427.514 134.314 427.84 133.99C428.165 133.667 428.348 133.228 428.348 132.77C428.348 132.312 428.165 131.873 427.84 131.55C427.514 131.226 427.073 131.044 426.613 131.044Z" fill="#6C63FF"/>
<path d="M426.613 124.23H373.426C372.965 124.23 372.524 124.412 372.199 124.735C371.873 125.059 371.69 125.498 371.69 125.955C371.69 126.413 371.873 126.852 372.199 127.176C372.524 127.499 372.965 127.681 373.426 127.681H426.613C427.073 127.681 427.514 127.499 427.84 127.176C428.165 126.852 428.348 126.413 428.348 125.955C428.348 125.498 428.165 125.059 427.84 124.735C427.514 124.412 427.073 124.23 426.613 124.23Z" fill="#6C63FF"/>
<path d="M396.481 117.412H373.426C372.965 117.412 372.524 117.594 372.199 117.917C371.873 118.241 371.69 118.68 371.69 119.137C371.69 119.595 371.873 120.034 372.199 120.358C372.524 120.681 372.965 120.863 373.426 120.863H396.481C396.942 120.863 397.383 120.681 397.708 120.358C398.034 120.034 398.217 119.595 398.217 119.137C398.217 118.68 398.034 118.241 397.708 117.917C397.383 117.594 396.942 117.412 396.481 117.412Z" fill="#6C63FF"/>
<path d="M443.593 106.511C451.049 106.511 457.094 100.5 457.094 93.085C457.094 85.67 451.049 79.6589 443.593 79.6589C436.136 79.6589 430.092 85.67 430.092 93.085C430.092 100.5 436.136 106.511 443.593 106.511Z" fill="#6C63FF"/>
<path d="M441.752 100.073C441.519 100.073 441.289 100.019 441.08 99.9149C440.872 99.8112 440.69 99.6606 440.551 99.4751L436.867 94.5912C436.748 94.4344 436.662 94.2557 436.612 94.0655C436.563 93.8753 436.552 93.6773 436.579 93.4827C436.607 93.2882 436.673 93.101 436.773 92.9319C436.874 92.7628 437.007 92.615 437.165 92.4972C437.323 92.3793 437.503 92.2936 437.695 92.245C437.886 92.1964 438.085 92.1858 438.281 92.2138C438.476 92.2419 438.664 92.308 438.834 92.4085C439.004 92.5089 439.152 92.6417 439.27 92.7992L441.68 95.9941L447.869 86.7622C448.09 86.4326 448.434 86.2038 448.824 86.1261C449.215 86.0484 449.62 86.1282 449.952 86.3479C450.283 86.5677 450.513 86.9093 450.591 87.2977C450.669 87.6861 450.589 88.0895 450.368 88.419L443.002 99.4075C442.868 99.6063 442.689 99.7703 442.479 99.886C442.269 100.002 442.034 100.065 441.794 100.072C441.78 100.072 441.766 100.073 441.752 100.073Z" fill="white"/>
<path d="M566.644 85.2761H544.67V107.264H566.644V85.2761Z" fill="#E6E6E6"/>
<path d="M579.984 94.6995H553.302V68H579.984V94.6995ZM554.462 93.5387H578.824V69.1609H554.462V93.5387Z" fill="#3F3D56"/>
<path d="M595.941 81.8185C617.999 81.8185 635.881 63.9505 635.881 41.9092C635.881 19.868 617.999 2 595.941 2C573.882 2 556 19.868 556 41.9092C556 63.9505 573.882 81.8185 595.941 81.8185Z" fill="#6C63FF"/>
<path d="M590.491 62.6801C589.801 62.6801 589.121 62.5196 588.504 62.2113C587.887 61.9031 587.351 61.4555 586.937 60.904L576.041 46.3866C575.691 45.9202 575.436 45.3895 575.291 44.8248C575.146 44.26 575.115 43.6723 575.197 43.0952C575.28 42.5181 575.475 41.9629 575.772 41.4613C576.07 40.9597 576.463 40.5214 576.93 40.1717C577.396 39.8219 577.927 39.5674 578.493 39.4227C579.058 39.2781 579.646 39.2461 580.224 39.3285C580.801 39.411 581.357 39.6063 581.859 39.9034C582.361 40.2004 582.799 40.5933 583.149 41.0597L590.278 50.5566L608.588 23.1144C608.911 22.6291 609.327 22.2123 609.812 21.8878C610.297 21.5632 610.841 21.3372 611.413 21.2228C611.985 21.1084 612.575 21.1077 613.147 21.2208C613.719 21.3339 614.264 21.5586 614.75 21.8821C615.235 22.2055 615.652 22.6214 615.977 23.1059C616.302 23.5904 616.528 24.1341 616.642 24.7059C616.756 25.2777 616.757 25.8664 616.643 26.4384C616.53 27.0104 616.305 27.5544 615.981 28.0395L594.188 60.7031C593.794 61.2938 593.264 61.7815 592.642 62.1252C592.02 62.4689 591.325 62.6587 590.615 62.6786C590.574 62.6794 590.532 62.6801 590.491 62.6801Z" fill="white"/>
<defs>
<clipPath id="clip0_384_496">
<rect width="110" height="130" fill="white" transform="translate(164 132)"/>
</clipPath>
</defs>
</svg>
