<svg width="1604" height="1095" viewBox="0 0 1604 1095" fill="none" xmlns="http://www.w3.org/2000/svg">
<g clip-path="url(#clip0_384_496)">
<path d="M1157.81 1093.44H914.354C905.497 1093.43 897.005 1090.15 890.742 1084.32C884.479 1078.49 880.956 1070.58 880.946 1062.34V704.864C880.956 696.619 884.479 688.715 890.742 682.884C897.005 677.054 905.497 673.775 914.354 673.766H1157.81C1166.67 673.775 1175.16 677.054 1181.42 682.884C1187.68 688.715 1191.21 696.619 1191.22 704.864V1062.34C1191.21 1070.58 1187.68 1078.49 1181.42 1084.32C1175.16 1090.15 1166.67 1093.43 1157.81 1093.44Z" fill="#2F2E41"/>
<path d="M1161.85 692.322H913.896C911.123 692.326 908.465 693.352 906.504 695.177C904.544 697.002 903.441 699.477 903.438 702.058V1064.19C903.442 1066.77 904.545 1069.25 906.505 1071.07C908.466 1072.9 911.123 1073.92 913.896 1073.93H1161.85C1164.62 1073.92 1167.28 1072.9 1169.24 1071.07C1171.2 1069.25 1172.3 1066.77 1172.3 1064.19V702.058C1172.3 699.477 1171.2 697.002 1169.24 695.177C1167.28 693.352 1164.62 692.326 1161.85 692.322Z" fill="white"/>
<path d="M920.305 673.766C920.305 673.135 920.575 672.53 921.054 672.084C921.533 671.638 922.183 671.387 922.86 671.386H940.24C940.917 671.386 941.568 671.637 942.047 672.083C942.526 672.529 942.795 673.135 942.795 673.766C942.795 674.397 942.526 675.002 942.047 675.448C941.568 675.894 940.917 676.145 940.24 676.145H922.86C922.183 676.144 921.533 675.893 921.054 675.447C920.575 675.001 920.305 674.396 920.305 673.766Z" fill="#E6E6E6"/>
<path d="M948.93 673.766C948.93 673.135 949.2 672.53 949.679 672.084C950.158 671.638 950.808 671.387 951.485 671.386H968.865C969.542 671.386 970.193 671.637 970.672 672.083C971.151 672.529 971.42 673.135 971.42 673.766C971.42 674.397 971.151 675.002 970.672 675.448C970.193 675.894 969.542 676.145 968.865 676.145H951.485C950.808 676.144 950.158 675.893 949.679 675.447C949.2 675.001 948.93 674.396 948.93 673.766Z" fill="#E6E6E6"/>
<path d="M1120.68 673.766C1120.68 673.135 1120.95 672.53 1121.43 672.084C1121.91 671.638 1122.55 671.387 1123.23 671.386H1140.61C1141.29 671.386 1141.94 671.637 1142.42 672.083C1142.9 672.529 1143.17 673.135 1143.17 673.766C1143.17 674.397 1142.9 675.002 1142.42 675.448C1141.94 675.894 1141.29 676.145 1140.61 676.145H1123.23C1122.55 676.144 1121.91 675.893 1121.43 675.447C1120.95 675.001 1120.68 674.396 1120.68 673.766Z" fill="#E6E6E6"/>
<path d="M1072.23 1066.47C1072.23 1068.97 1072.18 1071.46 1072.06 1073.93H913.896C911.123 1073.92 908.466 1072.9 906.505 1071.07C904.545 1069.25 903.442 1066.77 903.438 1064.19V881.917C950.537 889 993.389 911.461 1024.32 945.277C1055.25 979.093 1072.23 1022.05 1072.23 1066.47Z" fill="#F2F2F2"/>
<path d="M1066.86 785.384H1007.87C1005.19 785.384 1003.01 787.41 1003.01 789.908V795.554C1003.01 798.053 1005.19 800.078 1007.87 800.078H1066.86C1069.54 800.078 1071.72 798.053 1071.72 795.554V789.908C1071.72 787.41 1069.54 785.384 1066.86 785.384Z" fill="#6C63FF"/>
<path d="M1104.35 814.772H970.384C967.699 814.772 965.523 816.797 965.523 819.296V824.941C965.523 827.44 967.699 829.465 970.384 829.465H1104.35C1107.03 829.465 1109.21 827.44 1109.21 824.941V819.296C1109.21 816.797 1107.03 814.772 1104.35 814.772Z" fill="#E6E6E6"/>
<path d="M1104.35 844.159H970.384C967.699 844.159 965.523 846.185 965.523 848.683V854.329C965.523 856.827 967.699 858.853 970.384 858.853H1104.35C1107.03 858.853 1109.21 856.827 1109.21 854.329V848.683C1109.21 846.185 1107.03 844.159 1104.35 844.159Z" fill="#E6E6E6"/>
<path d="M1149.45 724.294H926.289C925.806 724.284 925.347 724.099 925.009 723.777C924.672 723.456 924.482 723.024 924.482 722.575C924.482 722.125 924.672 721.694 925.009 721.372C925.347 721.051 925.806 720.865 926.289 720.856H1149.45C1149.93 720.865 1150.39 721.051 1150.73 721.372C1151.07 721.694 1151.26 722.125 1151.26 722.575C1151.26 723.024 1151.07 723.456 1150.73 723.777C1150.39 724.099 1149.93 724.284 1149.45 724.294Z" fill="#CACACA"/>
<path d="M938.196 715.884C941.194 715.884 943.624 713.571 943.624 710.718C943.624 707.866 941.194 705.553 938.196 705.553C935.198 705.553 932.768 707.866 932.768 710.718C932.768 713.571 935.198 715.884 938.196 715.884Z" fill="#3F3D56"/>
<path d="M956.948 715.884C959.946 715.884 962.376 713.571 962.376 710.718C962.376 707.866 959.946 705.553 956.948 705.553C953.95 705.553 951.52 707.866 951.52 710.718C951.52 713.571 953.95 715.884 956.948 715.884Z" fill="#3F3D56"/>
<path d="M975.7 715.884C978.698 715.884 981.128 713.571 981.128 710.718C981.128 707.866 978.698 705.553 975.7 705.553C972.702 705.553 970.271 707.866 970.271 710.718C970.271 713.571 972.702 715.884 975.7 715.884Z" fill="#3F3D56"/>
<path d="M1140.73 707.549H1128.58C1128.34 707.553 1128.11 707.645 1127.94 707.805C1127.77 707.965 1127.68 708.181 1127.68 708.405C1127.68 708.629 1127.77 708.844 1127.94 709.004C1128.11 709.164 1128.34 709.257 1128.58 709.261H1140.73C1140.97 709.257 1141.2 709.164 1141.37 709.004C1141.54 708.844 1141.63 708.629 1141.63 708.405C1141.63 708.181 1141.54 707.965 1141.37 707.805C1141.2 707.645 1140.97 707.553 1140.73 707.549Z" fill="#3F3D56"/>
<path d="M1140.73 710.763H1128.58C1128.34 710.767 1128.11 710.859 1127.94 711.019C1127.77 711.179 1127.68 711.395 1127.68 711.619C1127.68 711.843 1127.77 712.058 1127.94 712.218C1128.11 712.378 1128.34 712.471 1128.58 712.475H1140.73C1140.97 712.471 1141.2 712.378 1141.37 712.218C1141.54 712.058 1141.63 711.843 1141.63 711.619C1141.63 711.395 1141.54 711.179 1141.37 711.019C1141.2 710.859 1140.97 710.767 1140.73 710.763Z" fill="#3F3D56"/>
<path d="M1140.73 713.972H1128.58C1128.34 713.977 1128.11 714.069 1127.94 714.229C1127.77 714.389 1127.68 714.604 1127.68 714.828C1127.68 715.053 1127.77 715.268 1127.94 715.428C1128.11 715.588 1128.34 715.68 1128.58 715.685H1140.73C1140.97 715.68 1141.2 715.588 1141.37 715.428C1141.54 715.268 1141.63 715.053 1141.63 714.828C1141.63 714.604 1141.54 714.389 1141.37 714.229C1141.2 714.069 1140.97 713.977 1140.73 713.972Z" fill="#3F3D56"/>
<path d="M778.65 882.052H649.266C647.436 882.055 645.681 882.734 644.389 883.94C643.096 885.147 642.371 886.781 642.373 888.485V1078.74H785.56V888.485C785.561 887.64 785.382 886.804 785.035 886.023C784.688 885.242 784.179 884.533 783.537 883.936C782.895 883.338 782.133 882.864 781.295 882.541C780.456 882.218 779.557 882.052 778.65 882.052ZM714.393 990.155C710.347 990.137 706.472 988.633 703.611 985.97C700.75 983.307 699.134 979.7 699.115 975.933V953.989C699.118 950.219 700.73 946.604 703.594 943.94C706.459 941.276 710.343 939.779 714.393 939.779C718.443 939.779 722.327 941.276 725.192 943.94C728.056 946.604 729.668 950.219 729.671 953.989V975.933C729.652 979.7 728.037 983.307 725.175 985.97C722.314 988.634 718.439 990.138 714.393 990.155Z" fill="#2F2E41"/>
<path d="M641.929 1072.66V1091.01C641.931 1091.97 642.338 1092.88 643.06 1093.55C643.783 1094.22 644.762 1094.6 645.784 1094.6H782.149C783.17 1094.6 784.148 1094.22 784.869 1093.55C785.591 1092.87 785.999 1091.96 786.004 1091.01V1072.66L641.929 1072.66Z" fill="#CCCCCC"/>
<path d="M986.511 601.815H442.684C440.14 601.82 437.702 602.765 435.904 604.441C434.107 606.117 433.098 608.389 433.098 610.757V949.556C433.102 951.922 434.113 954.189 435.91 955.862C437.707 957.535 440.143 958.476 442.684 958.48H986.511C989.053 958.476 991.488 957.535 993.285 955.862C995.082 954.189 996.093 951.922 996.098 949.556V610.757C996.098 608.389 995.088 606.117 993.291 604.441C991.494 602.765 989.056 601.82 986.511 601.815Z" fill="white"/>
<path d="M997.867 606.126V944.926C997.862 947.291 996.851 949.559 995.054 951.231C993.257 952.904 990.821 953.845 988.28 953.849H796.515C775.301 935.535 757.897 913.737 745.175 889.548C744.338 887.989 743.541 886.412 742.784 884.817C731.193 861.404 724.174 836.256 722.057 810.553C721.917 808.976 721.797 807.399 721.718 805.803C721.459 801.722 721.339 797.585 721.339 793.429C721.301 765.791 726.908 738.397 737.861 712.708C738.519 711.113 739.216 709.536 739.934 707.959C761.977 659.747 801.809 620.459 852.239 597.184H988.28C990.825 597.189 993.263 598.134 995.06 599.81C996.857 601.487 997.866 603.758 997.867 606.126Z" fill="#6C63FF"/>
<path d="M960.943 643.863H452.085C451.556 643.853 451.052 643.65 450.682 643.298C450.312 642.945 450.104 642.472 450.104 641.98C450.104 641.487 450.312 641.014 450.682 640.662C451.052 640.309 451.556 640.106 452.085 640.096H960.943C961.472 640.106 961.976 640.309 962.346 640.662C962.716 641.014 962.924 641.487 962.924 641.98C962.924 642.472 962.716 642.945 962.346 643.298C961.976 643.65 961.472 643.853 960.943 643.863Z" fill="#CACACA"/>
<path d="M486.724 630.478C493.274 630.478 498.584 625.425 498.584 619.193C498.584 612.96 493.274 607.907 486.724 607.907C480.175 607.907 474.865 612.96 474.865 619.193C474.865 625.425 480.175 630.478 486.724 630.478Z" fill="#3F3D56"/>
<path d="M527.692 630.478C534.242 630.478 539.551 625.425 539.551 619.193C539.551 612.96 534.242 607.907 527.692 607.907C521.143 607.907 515.833 612.96 515.833 619.193C515.833 625.425 521.143 630.478 527.692 630.478Z" fill="#3F3D56"/>
<path d="M568.66 630.478C575.21 630.478 580.519 625.425 580.519 619.193C580.519 612.96 575.21 607.907 568.66 607.907C562.11 607.907 556.801 612.96 556.801 619.193C556.801 625.425 562.11 630.478 568.66 630.478Z" fill="#3F3D56"/>
<path d="M936.277 610.704H907.175C906.598 610.715 906.049 610.936 905.645 611.319C905.241 611.703 905.015 612.219 905.015 612.756C905.015 613.293 905.241 613.808 905.645 614.192C906.049 614.575 906.598 614.796 907.175 614.807H936.277C936.853 614.796 937.403 614.575 937.807 614.192C938.211 613.808 938.437 613.293 938.437 612.756C938.437 612.219 938.211 611.703 937.807 611.319C937.403 610.936 936.853 610.715 936.277 610.704Z" fill="#3F3D56"/>
<path d="M936.277 618.404H907.175C906.598 618.415 906.049 618.635 905.645 619.019C905.241 619.402 905.015 619.918 905.015 620.455C905.015 620.992 905.241 621.508 905.645 621.891C906.049 622.275 906.598 622.496 907.175 622.506H936.277C936.853 622.496 937.403 622.275 937.807 621.891C938.211 621.508 938.437 620.992 938.437 620.455C938.437 619.918 938.211 619.402 937.807 619.019C937.403 618.635 936.853 618.415 936.277 618.404Z" fill="#3F3D56"/>
<path d="M936.277 626.093H907.175C906.598 626.104 906.049 626.325 905.645 626.708C905.241 627.092 905.015 627.607 905.015 628.145C905.015 628.682 905.241 629.197 905.645 629.581C906.049 629.964 906.598 630.185 907.175 630.196H936.277C936.853 630.185 937.403 629.964 937.807 629.581C938.211 629.197 938.437 628.682 938.437 628.145C938.437 627.607 938.211 627.092 937.807 626.708C937.403 626.325 936.853 626.104 936.277 626.093Z" fill="#3F3D56"/>
<path d="M607.891 753.911H536.732C534.048 753.911 531.872 755.936 531.872 758.435V765.486C531.872 767.985 534.048 770.01 536.732 770.01H607.891C610.576 770.01 612.752 767.985 612.752 765.486V758.435C612.752 755.936 610.576 753.911 607.891 753.911Z" fill="#6C63FF"/>
<path d="M648.968 786.11H495.657C492.973 786.11 490.797 788.135 490.797 790.634V797.685C490.797 800.184 492.973 802.209 495.657 802.209H648.968C651.652 802.209 653.828 800.184 653.828 797.685V790.634C653.828 788.135 651.652 786.11 648.968 786.11Z" fill="#E6E6E6"/>
<path d="M648.968 818.308H495.657C492.973 818.308 490.797 820.334 490.797 822.833V829.884C490.797 832.382 492.973 834.408 495.657 834.408H648.968C651.652 834.408 653.828 832.382 653.828 829.884V822.833C653.828 820.334 651.652 818.308 648.968 818.308Z" fill="#E6E6E6"/>
<path d="M504.104 934.425C504.116 941.057 502.847 947.636 500.357 953.849H444.453C441.912 953.845 439.477 952.904 437.68 951.231C435.883 949.558 434.872 947.291 434.867 944.926V879.474C437.991 879.004 441.15 878.768 444.314 878.769C452.166 878.768 459.941 880.208 467.195 883.004C474.449 885.801 481.041 889.901 486.593 895.069C492.145 900.237 496.549 906.373 499.553 913.126C502.558 919.879 504.104 927.116 504.104 934.425Z" fill="#6C63FF"/>
<path opacity="0.2" d="M998.366 712.708V707.959H912.847V652.915H907.764V707.959H809.749V652.915H804.667V707.959H739.935C739.217 709.536 738.52 711.113 737.862 712.708H804.667V805.803H721.719C721.798 807.399 721.918 808.976 722.058 810.553H804.667V884.817H742.785C743.542 886.412 744.339 887.989 745.176 889.548H804.667V951.975H809.749V889.548H907.764V951.975H912.847V889.548H998.366V884.817H912.847C912.847 875.064 914.91 865.407 918.919 856.397C922.929 847.387 928.805 839.2 936.214 832.304C943.622 825.408 952.417 819.938 962.096 816.205C971.775 812.473 982.149 810.552 992.626 810.552H998.366V805.803H912.847V712.708H998.366ZM907.764 884.817H809.749V810.552H907.764V884.817ZM907.764 805.803H809.749V803.948C809.749 779.75 820.076 756.543 838.457 739.432C856.839 722.321 881.769 712.708 907.764 712.708L907.764 805.803Z" fill="black"/>
<path d="M552.923 826.628V773.719C552.923 765.598 549.457 757.809 543.288 752.066C537.118 746.323 528.751 743.097 520.026 743.097H399.607C390.883 743.097 382.515 746.323 376.346 752.066C370.177 757.809 366.711 765.598 366.711 773.719V1063.98C366.711 1072.1 370.177 1079.89 376.346 1085.63C382.515 1091.38 390.883 1094.6 399.607 1094.6H520.026C524.346 1094.6 528.624 1093.81 532.615 1092.27C536.606 1090.73 540.233 1088.48 543.288 1085.63C546.342 1082.79 548.765 1079.41 550.419 1075.7C552.072 1071.98 552.923 1068 552.923 1063.98V864.289C553.473 864.289 554.001 864.086 554.39 863.724C554.779 863.361 554.997 862.87 554.997 862.358V828.559C554.997 828.047 554.779 827.556 554.39 827.194C554.001 826.831 553.473 826.628 552.923 826.628Z" fill="#2F2E41"/>
<path d="M545.921 773.929V1063.77C545.922 1069.79 543.371 1075.57 538.822 1079.85C534.273 1084.13 528.093 1086.56 521.626 1086.63C521.537 1086.64 521.447 1086.64 521.357 1086.64H400.352C393.837 1086.64 387.59 1084.23 382.983 1079.94C378.377 1075.65 375.789 1069.84 375.788 1063.77V773.929C375.789 767.865 378.377 762.049 382.983 757.761C387.59 753.473 393.837 751.064 400.352 751.063H415.037C414.315 752.714 414.04 754.504 414.236 756.276C414.431 758.049 415.092 759.749 416.16 761.228C417.227 762.707 418.669 763.919 420.358 764.757C422.047 765.596 423.932 766.035 425.846 766.036H494.833C496.746 766.031 498.628 765.59 500.314 764.75C502 763.91 503.439 762.698 504.505 761.22C505.571 759.742 506.231 758.043 506.428 756.272C506.624 754.502 506.35 752.713 505.631 751.063H521.357C527.872 751.064 534.12 753.473 538.726 757.761C543.333 762.049 545.921 767.865 545.921 773.929Z" fill="white"/>
<path d="M521.929 1077.69C521.929 1080.69 521.828 1083.67 521.626 1086.63C521.537 1086.64 521.447 1086.64 521.357 1086.64H400.352C393.837 1086.64 387.59 1084.23 382.983 1079.94C378.377 1075.65 375.789 1069.84 375.788 1063.77V934.605C415.214 936.456 452.368 952.339 479.568 978.97C506.768 1005.6 521.933 1040.94 521.929 1077.69Z" fill="#F2F2F2"/>
<path d="M367.376 856.227C366.634 856.226 365.922 855.951 365.397 855.463C364.872 854.974 364.577 854.312 364.576 853.62V835.895C364.576 835.204 364.871 834.541 365.396 834.052C365.922 833.563 366.634 833.288 367.376 833.288C368.119 833.288 368.831 833.563 369.357 834.052C369.882 834.541 370.177 835.204 370.177 835.895V853.62C370.176 854.312 369.881 854.974 369.356 855.463C368.831 855.951 368.119 856.226 367.376 856.227Z" fill="#E6E6E6"/>
<path d="M475.713 842.074H445.998C443.314 842.074 441.138 844.1 441.138 846.598V853.649C441.138 856.148 443.314 858.173 445.998 858.173H475.713C478.397 858.173 480.573 856.148 480.573 853.649V846.598C480.573 844.1 478.397 842.074 475.713 842.074Z" fill="#6C63FF"/>
<path d="M516.789 874.273H404.922C402.237 874.273 400.062 876.298 400.062 878.797V885.848C400.062 888.347 402.237 890.372 404.922 890.372H516.789C519.473 890.372 521.649 888.347 521.649 885.848V878.797C521.649 876.298 519.473 874.273 516.789 874.273Z" fill="#E6E6E6"/>
<path d="M516.789 906.472H404.922C402.237 906.472 400.062 908.497 400.062 910.996V918.047C400.062 920.546 402.237 922.571 404.922 922.571H516.789C519.473 922.571 521.649 920.546 521.649 918.047V910.996C521.649 908.497 519.473 906.472 516.789 906.472Z" fill="#E6E6E6"/>
<path d="M366.817 821.819C366.074 821.818 365.363 821.543 364.838 821.055C364.313 820.566 364.017 819.903 364.017 819.212V801.487C364.017 800.795 364.312 800.132 364.837 799.644C365.362 799.155 366.074 798.88 366.817 798.88C367.56 798.88 368.272 799.155 368.797 799.644C369.322 800.132 369.617 800.795 369.617 801.487V819.212C369.616 819.903 369.321 820.566 368.796 821.055C368.271 821.543 367.559 821.818 366.817 821.819Z" fill="#E6E6E6"/>
<path d="M441.304 754.045C441.305 753.354 441.6 752.692 442.125 752.203C442.65 751.714 443.362 751.439 444.104 751.438H463.146C463.888 751.438 464.601 751.713 465.126 752.202C465.651 752.691 465.946 753.354 465.946 754.045C465.946 754.736 465.651 755.4 465.126 755.888C464.601 756.377 463.888 756.652 463.146 756.652H444.104C443.362 756.651 442.65 756.376 442.125 755.887C441.6 755.399 441.305 754.736 441.304 754.045Z" fill="white"/>
<path d="M367.376 886.465C366.634 886.464 365.922 886.189 365.397 885.7C364.872 885.212 364.577 884.549 364.576 883.858V866.133C364.576 865.441 364.871 864.778 365.396 864.289C365.922 863.801 366.634 863.526 367.376 863.526C368.119 863.526 368.831 863.801 369.357 864.289C369.882 864.778 370.177 865.441 370.177 866.133V883.858C370.176 884.549 369.881 885.212 369.356 885.7C368.831 886.189 368.119 886.464 367.376 886.465Z" fill="#E6E6E6"/>
<path d="M473.787 756.652C475.333 756.652 476.587 755.485 476.587 754.045C476.587 752.606 475.333 751.438 473.787 751.438C472.24 751.438 470.986 752.606 470.986 754.045C470.986 755.485 472.24 756.652 473.787 756.652Z" fill="white"/>
<path d="M1219.35 1094.6L258.574 1094.92C258.221 1094.92 257.883 1094.78 257.633 1094.55C257.384 1094.32 257.244 1094 257.244 1093.68C257.244 1093.35 257.384 1093.03 257.633 1092.8C257.883 1092.57 258.221 1092.43 258.574 1092.43L1219.35 1092.11C1219.7 1092.11 1220.04 1092.24 1220.29 1092.48C1220.54 1092.71 1220.68 1093.03 1220.68 1093.35C1220.68 1093.68 1220.54 1094 1220.29 1094.23C1220.04 1094.47 1219.7 1094.6 1219.35 1094.6Z" fill="#CACACA"/>
<path d="M948.111 916.883C945.183 916.883 942.321 916.074 939.886 914.56C937.451 913.045 935.553 910.893 934.433 908.375C933.312 905.856 933.019 903.085 933.59 900.412C934.161 897.738 935.572 895.283 937.642 893.355C939.713 891.428 942.351 890.115 945.223 889.583C948.095 889.051 951.072 889.324 953.777 890.367C956.483 891.411 958.795 893.177 960.422 895.444C962.049 897.71 962.917 900.375 962.917 903.1C962.917 906.756 961.357 910.261 958.581 912.846C955.804 915.431 952.038 916.883 948.111 916.883Z" fill="#E6E6E6"/>
<path d="M953.275 905.984L950.177 903.1L953.275 900.216C953.549 899.961 953.702 899.616 953.702 899.255C953.702 898.894 953.549 898.549 953.275 898.294C953.001 898.039 952.629 897.896 952.242 897.896C951.855 897.896 951.483 898.039 951.209 898.294L948.111 901.178L945.013 898.294C944.739 898.039 944.367 897.896 943.98 897.896C943.593 897.896 943.221 898.039 942.947 898.294C942.673 898.549 942.52 898.894 942.52 899.255C942.52 899.616 942.673 899.961 942.947 900.216L946.046 903.1L942.947 905.984C942.673 906.239 942.52 906.585 942.52 906.946C942.52 907.306 942.673 907.652 942.947 907.907C943.221 908.162 943.593 908.305 943.98 908.305C944.367 908.305 944.739 908.162 945.013 907.907L948.111 905.023L951.209 907.907C951.483 908.162 951.855 908.305 952.242 908.305C952.629 908.305 953.001 908.162 953.275 907.907C953.548 907.652 953.702 907.306 953.702 906.946C953.702 906.585 953.549 906.239 953.275 905.984Z" fill="white"/>
<path d="M883.605 754.129C899.877 754.129 913.068 741.849 913.068 726.702C913.068 711.554 899.877 699.275 883.605 699.275C867.332 699.275 854.141 711.554 854.141 726.702C854.141 741.849 867.332 754.129 883.605 754.129Z" fill="#E6E6E6"/>
<path d="M921.844 776.183H846.665C843.529 776.183 840.986 778.549 840.986 781.469V788.122C840.986 791.042 843.529 793.408 846.665 793.408H921.844C924.98 793.408 927.522 791.042 927.522 788.122V781.469C927.522 778.549 924.98 776.183 921.844 776.183Z" fill="#E6E6E6"/>
<path d="M965.793 810.634H802.716C799.58 810.634 797.038 813 797.038 815.92V822.573C797.038 825.493 799.58 827.859 802.716 827.859H965.793C968.929 827.859 971.471 825.493 971.471 822.573V815.92C971.471 813 968.929 810.634 965.793 810.634Z" fill="#E6E6E6"/>
<path d="M965.793 845.084H802.716C799.58 845.084 797.038 847.451 797.038 850.37V857.024C797.038 859.943 799.58 862.31 802.716 862.31H965.793C968.929 862.31 971.471 859.943 971.471 857.024V850.37C971.471 847.451 968.929 845.084 965.793 845.084Z" fill="#E6E6E6"/>
<path d="M1036.03 945.49C1052.31 945.49 1065.5 933.21 1065.5 918.063C1065.5 902.915 1052.31 890.636 1036.03 890.636C1019.76 890.636 1006.57 902.915 1006.57 918.063C1006.57 933.21 1019.76 945.49 1036.03 945.49Z" fill="#6C63FF"/>
<path d="M461.1 984.476C474.091 984.476 484.623 974.673 484.623 962.58C484.623 950.487 474.091 940.684 461.1 940.684C448.109 940.684 437.578 950.487 437.578 962.58C437.578 974.673 448.109 984.476 461.1 984.476Z" fill="#6C63FF"/>
<path d="M1074.27 967.544H999.094C995.958 967.544 993.416 969.91 993.416 972.83V979.483C993.416 982.403 995.958 984.769 999.094 984.769H1074.27C1077.41 984.769 1079.95 982.403 1079.95 979.483V972.83C1079.95 969.91 1077.41 967.544 1074.27 967.544Z" fill="#D9D9D9"/>
<path d="M489.1 1001.16H429.74C427.264 1001.16 425.257 1003.02 425.257 1005.32V1010.55C425.257 1012.85 427.264 1014.71 429.74 1014.71H489.1C491.576 1014.71 493.583 1012.85 493.583 1010.55V1005.32C493.583 1003.02 491.576 1001.16 489.1 1001.16Z" fill="#DCDCDC"/>
<path d="M1118.22 1001.99H955.146C952.01 1001.99 949.468 1004.36 949.468 1007.28V1013.93C949.468 1016.85 952.01 1019.22 955.146 1019.22H1118.22C1121.36 1019.22 1123.9 1016.85 1123.9 1013.93V1007.28C1123.9 1004.36 1121.36 1001.99 1118.22 1001.99Z" fill="#D9D9D9"/>
<path d="M523.822 1028.27H395.019C392.542 1028.27 390.534 1030.13 390.534 1032.43V1037.66C390.534 1039.96 392.542 1041.82 395.019 1041.82H523.822C526.299 1041.82 528.307 1039.96 528.307 1037.66V1032.43C528.307 1030.13 526.299 1028.27 523.822 1028.27Z" fill="#DCDCDC"/>
<path d="M1118.22 1036.45H955.146C952.01 1036.45 949.468 1038.81 949.468 1041.73V1048.38C949.468 1051.3 952.01 1053.67 955.146 1053.67H1118.22C1121.36 1053.67 1123.9 1051.3 1123.9 1048.38V1041.73C1123.9 1038.81 1121.36 1036.45 1118.22 1036.45Z" fill="#D9D9D9"/>
<path d="M523.822 1055.38H395.019C392.542 1055.38 390.534 1057.24 390.534 1059.54V1064.77C390.534 1067.07 392.542 1068.93 395.019 1068.93H523.822C526.299 1068.93 528.307 1067.07 528.307 1064.77V1059.54C528.307 1057.24 526.299 1055.38 523.822 1055.38Z" fill="#DCDCDC"/>
<path d="M525.789 757.597H513.641C513.4 757.601 513.171 757.694 513.002 757.854C512.834 758.014 512.739 758.229 512.739 758.453C512.739 758.677 512.834 758.893 513.002 759.053C513.171 759.213 513.4 759.305 513.641 759.309H525.789C526.03 759.305 526.259 759.213 526.428 759.053C526.596 758.893 526.691 758.677 526.691 758.453C526.691 758.229 526.596 758.014 526.428 757.854C526.259 757.694 526.03 757.601 525.789 757.597Z" fill="#3F3D56"/>
<path d="M525.789 760.811H513.641C513.4 760.815 513.171 760.907 513.002 761.068C512.834 761.228 512.739 761.443 512.739 761.667C512.739 761.891 512.834 762.107 513.002 762.267C513.171 762.427 513.4 762.519 513.641 762.523H525.789C526.03 762.519 526.259 762.427 526.428 762.267C526.596 762.107 526.691 761.891 526.691 761.667C526.691 761.443 526.596 761.228 526.428 761.068C526.259 760.907 526.03 760.815 525.789 760.811Z" fill="#3F3D56"/>
<path d="M525.789 764.021H513.641C513.4 764.025 513.171 764.117 513.002 764.277C512.834 764.437 512.739 764.653 512.739 764.877C512.739 765.101 512.834 765.316 513.002 765.476C513.171 765.636 513.4 765.729 513.641 765.733H525.789C526.03 765.729 526.259 765.636 526.428 765.476C526.596 765.316 526.691 765.101 526.691 764.877C526.691 764.653 526.596 764.437 526.428 764.277C526.259 764.117 526.03 764.025 525.789 764.021Z" fill="#3F3D56"/>
<path d="M534.951 772.814H387.248C386.929 772.805 386.625 772.636 386.401 772.344C386.178 772.051 386.053 771.659 386.053 771.25C386.053 770.841 386.178 770.448 386.401 770.156C386.625 769.863 386.929 769.695 387.248 769.686H534.951C535.271 769.695 535.575 769.863 535.799 770.156C536.022 770.448 536.147 770.841 536.147 771.25C536.147 771.659 536.022 772.051 535.799 772.344C535.575 772.636 535.271 772.805 534.951 772.814Z" fill="#CACACA"/>
<path d="M1324.12 674.556H1124V676.126H1324.12V674.556Z" fill="#3F3D56"/>
<path d="M1310.64 666.276H1288.67V688.264H1310.64V666.276Z" fill="#E6E6E6"/>
<path d="M1323.98 675.7H1297.3V649H1323.98V675.7ZM1298.46 674.539H1322.82V650.161H1298.46V674.539Z" fill="#3F3D56"/>
<path d="M1339.94 662.818C1362 662.818 1379.88 644.95 1379.88 622.909C1379.88 600.868 1362 583 1339.94 583C1317.88 583 1300 600.868 1300 622.909C1300 644.95 1317.88 662.818 1339.94 662.818Z" fill="#6C63FF"/>
<path d="M1334.49 643.68C1333.8 643.68 1333.12 643.52 1332.5 643.211C1331.89 642.903 1331.35 642.455 1330.94 641.904L1320.04 627.387C1319.69 626.92 1319.44 626.39 1319.29 625.825C1319.15 625.26 1319.11 624.672 1319.2 624.095C1319.28 623.518 1319.47 622.963 1319.77 622.461C1320.07 621.96 1320.46 621.521 1320.93 621.172C1321.4 620.822 1321.93 620.567 1322.49 620.423C1323.06 620.278 1323.65 620.246 1324.22 620.329C1324.8 620.411 1325.36 620.606 1325.86 620.903C1326.36 621.2 1326.8 621.593 1327.15 622.06L1334.28 631.557L1352.59 604.114C1352.91 603.629 1353.33 603.212 1353.81 602.888C1354.3 602.563 1354.84 602.337 1355.41 602.223C1355.99 602.108 1356.57 602.108 1357.15 602.221C1357.72 602.334 1358.26 602.559 1358.75 602.882C1359.24 603.206 1359.65 603.621 1359.98 604.106C1360.3 604.59 1360.53 605.134 1360.64 605.706C1360.76 606.278 1360.76 606.866 1360.64 607.438C1360.53 608.01 1360.3 608.554 1359.98 609.04L1338.19 641.703C1337.79 642.294 1337.26 642.781 1336.64 643.125C1336.02 643.469 1335.33 643.659 1334.61 643.679C1334.57 643.679 1334.53 643.68 1334.49 643.68Z" fill="white"/>
</g>
<path d="M793.662 454.267C882.998 454.267 955.419 381.799 955.419 292.406C955.419 203.013 882.998 130.546 793.662 130.546C704.326 130.546 631.905 203.013 631.905 292.406C631.905 381.799 704.326 454.267 793.662 454.267Z" fill="white"/>
<path d="M630.702 292.406C630.702 202.493 703.806 129.342 793.662 129.342C883.518 129.342 956.622 202.493 956.622 292.406C956.622 382.32 883.518 455.47 793.662 455.47C703.806 455.47 630.702 382.32 630.702 292.406ZM633.108 292.406C633.108 380.992 705.132 453.063 793.662 453.063C882.192 453.063 954.216 380.992 954.216 292.406C954.216 203.82 882.191 131.75 793.662 131.75C705.132 131.75 633.108 203.82 633.108 292.406Z" fill="#3F3D56"/>
<path d="M764.827 293.11C764.827 287.403 766.518 281.825 769.687 277.08C772.855 272.335 777.359 268.637 782.627 266.453C787.896 264.269 793.694 263.698 799.287 264.811C804.881 265.924 810.019 268.672 814.051 272.708C818.084 276.743 820.83 281.884 821.943 287.481C823.056 293.078 822.484 298.88 820.302 304.152C818.12 309.424 814.424 313.93 809.682 317.101C804.94 320.271 799.365 321.963 793.662 321.963C786.015 321.963 778.68 318.924 773.273 313.512C767.865 308.101 764.827 300.763 764.827 293.11ZM793.662 265.664C786.39 265.672 779.418 268.567 774.276 273.712C769.134 278.857 766.242 285.834 766.234 293.11C766.234 298.538 767.842 303.845 770.856 308.358C773.87 312.872 778.154 316.39 783.166 318.467C788.178 320.544 793.692 321.088 799.013 320.029C804.334 318.97 809.221 316.356 813.057 312.517C816.893 308.679 819.505 303.789 820.563 298.465C821.622 293.141 821.079 287.622 819.003 282.607C816.927 277.592 813.411 273.306 808.9 270.29C804.39 267.274 799.087 265.664 793.662 265.664Z" fill="#3F3D56"/>
<path d="M738.805 293.11C738.805 282.253 742.022 271.641 748.05 262.614C754.077 253.587 762.645 246.551 772.669 242.397C782.692 238.242 793.722 237.155 804.363 239.273C815.004 241.391 824.779 246.619 832.451 254.296C840.123 261.972 845.347 271.753 847.464 282.401C849.58 293.049 848.494 304.086 844.342 314.116C840.19 324.146 833.159 332.719 824.138 338.751C815.117 344.782 804.511 348.002 793.661 348.002C786.457 348.002 779.324 346.582 772.669 343.823C766.013 341.065 759.966 337.021 754.872 331.924C749.778 326.827 745.737 320.776 742.98 314.116C740.224 307.456 738.805 300.318 738.805 293.11ZM793.661 239.626C783.09 239.626 772.756 242.763 763.966 248.639C755.176 254.516 748.325 262.869 744.28 272.642C740.234 282.415 739.176 293.169 741.238 303.544C743.301 313.919 748.391 323.449 755.866 330.929C763.342 338.409 772.865 343.503 783.234 345.567C793.602 347.63 804.349 346.571 814.116 342.523C823.882 338.475 832.23 331.62 838.103 322.824C843.977 314.029 847.111 303.688 847.111 293.11C847.095 278.93 841.459 265.335 831.439 255.309C821.418 245.282 807.832 239.642 793.661 239.626Z" fill="#CCCCCC"/>
<path d="M686.762 293.11C686.762 271.954 693.031 251.272 704.778 233.681C716.524 216.091 733.22 202.38 752.753 194.284C772.286 186.188 793.78 184.069 814.517 188.197C835.254 192.324 854.301 202.512 869.252 217.472C884.202 232.432 894.383 251.492 898.508 272.242C902.633 292.991 900.516 314.499 892.425 334.045C884.334 353.591 870.632 370.297 853.052 382.051C835.473 393.805 814.805 400.079 793.662 400.079C765.32 400.046 738.148 388.766 718.107 368.713C698.067 348.659 686.794 321.47 686.762 293.11ZM793.662 187.549C772.797 187.549 752.401 193.74 735.053 205.339C717.704 216.938 704.183 233.425 696.199 252.714C688.214 272.002 686.125 293.227 690.195 313.704C694.266 334.181 704.313 352.99 719.067 367.753C733.82 382.516 752.617 392.57 773.081 396.643C793.545 400.716 814.756 398.625 834.032 390.636C853.309 382.646 869.785 369.116 881.377 351.757C892.968 334.397 899.155 313.988 899.155 293.11C899.124 265.123 887.999 238.292 868.222 218.502C848.445 198.712 821.631 187.581 793.662 187.549Z" fill="#CCCCCC"/>
<path d="M793.662 305.777C801.042 305.777 807.025 299.791 807.025 292.406C807.025 285.022 801.042 279.035 793.662 279.035C786.282 279.035 780.3 285.022 780.3 292.406C780.3 299.791 786.282 305.777 793.662 305.777Z" fill="#6C63FF"/>
<path d="M759.2 344.483C766.58 344.483 772.563 338.497 772.563 331.112C772.563 323.727 766.58 317.741 759.2 317.741C751.82 317.741 745.838 323.727 745.838 331.112C745.838 338.497 751.82 344.483 759.2 344.483Z" fill="#6C63FF"/>
<path d="M893.645 338.853C901.025 338.853 907.007 332.867 907.007 325.482C907.007 318.098 901.025 312.111 893.645 312.111C886.265 312.111 880.282 318.098 880.282 325.482C880.282 332.867 886.265 338.853 893.645 338.853Z" fill="#6C63FF"/>
<path d="M793.662 298.74C797.157 298.74 799.991 295.904 799.991 292.406C799.991 288.908 797.157 286.073 793.662 286.073C790.166 286.073 787.332 288.908 787.332 292.406C787.332 295.904 790.166 298.74 793.662 298.74Z" fill="#2F2E41"/>
<path d="M893.645 331.816C897.141 331.816 899.975 328.98 899.975 325.482C899.975 321.984 897.141 319.148 893.645 319.148C890.149 319.148 887.315 321.984 887.315 325.482C887.315 328.98 890.149 331.816 893.645 331.816Z" fill="#2F2E41"/>
<path d="M759.201 338.149C762.696 338.149 765.53 335.314 765.53 331.816C765.53 328.318 762.696 325.482 759.201 325.482C755.705 325.482 752.871 328.318 752.871 331.816C752.871 335.314 755.705 338.149 759.201 338.149Z" fill="#2F2E41"/>
<path d="M498.28 227.662C501.776 227.662 504.609 224.826 504.609 221.329C504.609 217.831 501.776 214.995 498.28 214.995C494.784 214.995 491.95 217.831 491.95 221.329C491.95 224.826 494.784 227.662 498.28 227.662Z" fill="#6C63FF"/>
<path d="M793.31 221.681H515.51V220.273H794.717V292.758H793.31V221.681Z" fill="#2F2E41"/>
<path d="M479.994 221.329C479.994 217.71 481.067 214.172 483.076 211.163C485.085 208.154 487.941 205.809 491.282 204.424C494.623 203.039 498.3 202.677 501.847 203.383C505.394 204.089 508.652 205.831 511.21 208.39C513.767 210.949 515.508 214.21 516.214 217.759C516.919 221.308 516.557 224.987 515.173 228.331C513.789 231.674 511.446 234.532 508.439 236.542C505.432 238.553 501.896 239.626 498.28 239.626C495.878 239.626 493.501 239.153 491.282 238.233C489.064 237.313 487.048 235.966 485.35 234.267C483.652 232.568 482.305 230.551 481.386 228.331C480.467 226.111 479.994 223.731 479.994 221.329ZM498.28 204.439C494.941 204.439 491.678 205.429 488.902 207.285C486.127 209.141 483.963 211.779 482.686 214.865C481.408 217.951 481.074 221.347 481.725 224.624C482.376 227.9 483.984 230.909 486.344 233.271C488.705 235.633 491.713 237.242 494.987 237.894C498.261 238.545 501.655 238.211 504.739 236.933C507.823 235.654 510.459 233.49 512.314 230.712C514.169 227.934 515.159 224.669 515.159 221.329C515.154 216.851 513.374 212.558 510.209 209.391C507.045 206.225 502.755 204.444 498.28 204.439Z" fill="#2F2E41"/>
<path d="M1089.86 257.219C1093.36 257.219 1096.19 254.384 1096.19 250.886C1096.19 247.388 1093.36 244.552 1089.86 244.552C1086.37 244.552 1083.53 247.388 1083.53 250.886C1083.53 254.384 1086.37 257.219 1089.86 257.219Z" fill="#6C63FF"/>
<path d="M1071.58 250.886C1071.58 247.267 1072.65 243.729 1074.66 240.72C1076.67 237.711 1079.52 235.366 1082.87 233.981C1086.21 232.596 1089.88 232.234 1093.43 232.94C1096.98 233.646 1100.24 235.389 1102.79 237.948C1105.35 240.507 1107.09 243.767 1107.8 247.316C1108.5 250.865 1108.14 254.544 1106.76 257.888C1105.37 261.231 1103.03 264.089 1100.02 266.099C1097.01 268.11 1093.48 269.183 1089.86 269.183C1087.46 269.183 1085.08 268.71 1082.87 267.79C1080.65 266.871 1078.63 265.523 1076.93 263.824C1075.23 262.125 1073.89 260.108 1072.97 257.888C1072.05 255.668 1071.58 253.289 1071.58 250.886ZM1089.86 233.996C1085.39 234.001 1081.1 235.782 1077.93 238.949C1074.77 242.115 1072.99 246.408 1072.98 250.886C1072.98 254.226 1073.97 257.492 1075.83 260.269C1077.68 263.047 1080.32 265.211 1083.4 266.49C1086.49 267.768 1089.88 268.103 1093.16 267.451C1096.43 266.799 1099.44 265.191 1101.8 262.829C1104.16 260.466 1105.77 257.457 1106.42 254.181C1107.07 250.904 1106.73 247.508 1105.46 244.422C1104.18 241.336 1102.02 238.698 1099.24 236.842C1096.46 234.986 1093.2 233.996 1089.86 233.996Z" fill="#2F2E41"/>
<path d="M892.941 253.008L1072.27 250.182L1072.29 251.589L894.348 254.393V325.482H892.941V253.008Z" fill="#2F2E41"/>
<path d="M835.004 550.817C835.004 547.323 832.168 544.49 828.669 544.49C825.17 544.49 822.333 547.323 822.333 550.817C822.333 554.312 825.17 557.145 828.669 557.145C832.168 557.145 835.004 554.312 835.004 550.817Z" fill="#6C63FF"/>
<path d="M828.669 569.097C825.049 569.097 821.51 568.025 818.501 566.016C815.491 564.008 813.145 561.153 811.759 557.813C810.374 554.473 810.012 550.797 810.718 547.251C811.424 543.705 813.167 540.448 815.727 537.892C818.287 535.335 821.548 533.594 825.098 532.889C828.649 532.183 832.329 532.545 835.673 533.929C839.018 535.313 841.876 537.655 843.887 540.662C845.899 543.668 846.972 547.202 846.972 550.817C846.972 555.665 845.044 560.315 841.611 563.743C838.179 567.171 833.523 569.097 828.669 569.097ZM811.774 550.817C811.774 554.155 812.765 557.417 814.621 560.192C816.478 562.967 819.117 565.129 822.204 566.407C825.291 567.684 828.688 568.018 831.965 567.367C835.242 566.716 838.253 565.109 840.616 562.749C842.978 560.389 844.588 557.382 845.239 554.109C845.891 550.836 845.557 547.443 844.278 544.36C842.999 541.277 840.834 538.642 838.055 536.787C835.277 534.933 832.011 533.944 828.669 533.944C824.19 533.949 819.896 535.728 816.728 538.891C813.561 542.055 811.779 546.344 811.774 550.817Z" fill="#2F2E41"/>
<path d="M827.964 533.24L827.964 332.865L756.864 332.865L756.864 331.459L829.371 331.459L829.371 533.24L827.964 533.24Z" fill="#2F2E41"/>
<path d="M848.93 364.31L861.5 366.02L861.5 373.55L839 370.04L839 360.62L847.28 358.97L847.28 358.55L839 356.93L839 347.54L861.5 344L861.5 351.53L848.93 353.21L848.93 353.42L861.5 356.03L861.5 361.52L848.93 364.1L848.93 364.31ZM852.71 392.461L847.49 392.461L847.49 385.261L844.76 385.261L844.76 394.081L839 394.081L839 378.061L861.5 378.061L861.5 393.901L855.74 393.001L855.74 385.261L852.71 385.261L852.71 392.461ZM839 412.763L839 399.833L861.5 399.833L861.5 411.503C861.5 413.663 861.08 415.203 860.24 416.123C859.4 417.043 858.18 417.503 856.58 417.503C854.96 417.503 853.71 417.213 852.83 416.633C851.97 416.053 851.4 415.263 851.12 414.263L850.91 414.263C850.41 417.163 848.43 418.613 844.97 418.613C843.17 418.613 841.72 418.133 840.62 417.173C839.54 416.233 839 414.763 839 412.763ZM847.97 409.853L847.97 407.033L844.28 407.033L844.28 409.793C844.28 410.813 844.9 411.323 846.14 411.323C847.36 411.323 847.97 410.833 847.97 409.853ZM856.58 409.313L856.58 407.033L853.22 407.033L853.22 409.253C853.22 410.173 853.78 410.633 854.9 410.633C856.02 410.633 856.58 410.193 856.58 409.313ZM839.39 422.932L845.33 423.952C844.79 426.152 844.52 428.142 844.52 429.922C844.52 430.822 844.53 431.612 844.55 432.292C844.59 432.992 844.65 433.612 844.73 434.152L846.53 434.152L846.8 430.912C846.94 429.452 847.18 428.232 847.52 427.252C847.86 426.272 848.32 425.482 848.9 424.882C849.5 424.302 850.21 423.882 851.03 423.622C851.87 423.382 852.85 423.262 853.97 423.262C855.51 423.262 856.79 423.422 857.81 423.742C858.85 424.062 859.68 424.572 860.3 425.272C860.94 425.972 861.39 426.872 861.65 427.972C861.91 429.092 862.04 430.452 862.04 432.052C862.04 435.232 861.74 438.112 861.14 440.692L855.38 439.792C855.74 437.552 855.92 435.762 855.92 434.422C855.92 433.082 855.86 431.942 855.74 431.002L853.97 431.002L853.73 433.582C853.57 435.162 853.3 436.482 852.92 437.542C852.56 438.602 852.08 439.452 851.48 440.092C850.88 440.752 850.17 441.212 849.35 441.472C848.53 441.752 847.59 441.892 846.53 441.892C845.01 441.892 843.73 441.692 842.69 441.292C841.65 440.892 840.86 440.412 840.32 439.852C839.88 439.392 839.53 438.822 839.27 438.142C839.03 437.462 838.85 436.742 838.73 435.982C838.61 435.222 838.54 434.452 838.52 433.672C838.48 432.912 838.46 432.222 838.46 431.602C838.46 430.042 838.54 428.542 838.7 427.102C838.86 425.662 839.09 424.272 839.39 422.932ZM839 454.503L839 447.303L861.5 447.303L861.5 454.503L839 454.503ZM861.5 476.834L855.74 476.834L855.74 471.614L839 471.614L839 464.414L855.74 464.414L855.74 459.194L861.5 459.194L861.5 476.834ZM852.71 495.902L847.49 495.902L847.49 488.702L844.76 488.702L844.76 497.522L839 497.522L839 481.502L861.5 481.502L861.5 497.342L855.74 496.442L855.74 488.702L852.71 488.702L852.71 495.902ZM839.39 502.374L845.33 503.394C844.79 505.594 844.52 507.584 844.52 509.364C844.52 510.264 844.53 511.054 844.55 511.734C844.59 512.434 844.65 513.054 844.73 513.594L846.53 513.594L846.8 510.354C846.94 508.894 847.18 507.674 847.52 506.694C847.86 505.714 848.32 504.924 848.9 504.324C849.5 503.744 850.21 503.324 851.03 503.064C851.87 502.824 852.85 502.704 853.97 502.704C855.51 502.704 856.79 502.864 857.81 503.184C858.85 503.504 859.68 504.014 860.3 504.714C860.94 505.414 861.39 506.314 861.65 507.414C861.91 508.534 862.04 509.894 862.04 511.494C862.04 514.674 861.74 517.554 861.14 520.134L855.38 519.234C855.74 516.994 855.92 515.204 855.92 513.864C855.92 512.524 855.86 511.384 855.74 510.444L853.97 510.444L853.73 513.024C853.57 514.604 853.3 515.924 852.92 516.984C852.56 518.044 852.08 518.894 851.48 519.534C850.88 520.194 850.17 520.654 849.35 520.914C848.53 521.194 847.59 521.334 846.53 521.334C845.01 521.334 843.73 521.134 842.69 520.734C841.65 520.334 840.86 519.854 840.32 519.294C839.88 518.834 839.53 518.264 839.27 517.584C839.03 516.904 838.85 516.184 838.73 515.424C838.61 514.664 838.54 513.894 838.52 513.114C838.48 512.354 838.46 511.664 838.46 511.044C838.46 509.484 838.54 507.984 838.7 506.544C838.86 505.104 839.09 503.714 839.39 502.374Z" fill="#6C63FF"/>
<path d="M942.98 239.43L942.17 243H934.58L940.4 220.5H951.53L957.35 243H949.76L948.92 239.43H942.98ZM946.16 227.4H945.77L944.3 233.7H947.6L946.16 227.4ZM973.323 237.57H968.643V243H961.443V220.5H972.783C977.943 220.5 980.523 223.27 980.523 228.81C980.523 230.03 980.403 231.17 980.163 232.23C979.923 233.29 979.513 234.22 978.933 235.02C978.373 235.8 977.633 236.42 976.713 236.88C975.813 237.34 974.683 237.57 973.323 237.57ZM970.293 226.26H968.643V231.81H970.293C971.173 231.81 971.803 231.72 972.183 231.54C972.583 231.36 972.783 230.94 972.783 230.28V227.76C972.783 227.12 972.583 226.71 972.183 226.53C971.803 226.35 971.173 226.26 970.293 226.26ZM997.264 237.57H992.584V243H985.384V220.5H996.724C1001.88 220.5 1004.46 223.27 1004.46 228.81C1004.46 230.03 1004.34 231.17 1004.1 232.23C1003.86 233.29 1003.45 234.22 1002.87 235.02C1002.31 235.8 1001.57 236.42 1000.65 236.88C999.754 237.34 998.624 237.57 997.264 237.57ZM994.234 226.26H992.584V231.81H994.234C995.114 231.81 995.744 231.72 996.124 231.54C996.524 231.36 996.724 230.94 996.724 230.28V227.76C996.724 227.12 996.524 226.71 996.124 226.53C995.744 226.35 995.114 226.26 994.234 226.26ZM1008.42 242.61L1009.44 236.67C1011.64 237.21 1013.63 237.48 1015.41 237.48C1016.31 237.48 1017.1 237.47 1017.78 237.45C1018.48 237.41 1019.1 237.35 1019.64 237.27V235.47L1016.4 235.2C1014.94 235.06 1013.72 234.82 1012.74 234.48C1011.76 234.14 1010.97 233.68 1010.37 233.1C1009.79 232.5 1009.37 231.79 1009.11 230.97C1008.87 230.13 1008.75 229.15 1008.75 228.03C1008.75 226.49 1008.91 225.21 1009.23 224.19C1009.55 223.15 1010.06 222.32 1010.76 221.7C1011.46 221.06 1012.36 220.61 1013.46 220.35C1014.58 220.09 1015.94 219.96 1017.54 219.96C1020.72 219.96 1023.6 220.26 1026.18 220.86L1025.28 226.62C1023.04 226.26 1021.25 226.08 1019.91 226.08C1018.57 226.08 1017.43 226.14 1016.49 226.26V228.03L1019.07 228.27C1020.65 228.43 1021.97 228.7 1023.03 229.08C1024.09 229.44 1024.94 229.92 1025.58 230.52C1026.24 231.12 1026.7 231.83 1026.96 232.65C1027.24 233.47 1027.38 234.41 1027.38 235.47C1027.38 236.99 1027.18 238.27 1026.78 239.31C1026.38 240.35 1025.9 241.14 1025.34 241.68C1024.88 242.12 1024.31 242.47 1023.63 242.73C1022.95 242.97 1022.23 243.15 1021.47 243.27C1020.71 243.39 1019.94 243.46 1019.16 243.48C1018.4 243.52 1017.71 243.54 1017.09 243.54C1015.53 243.54 1014.03 243.46 1012.59 243.3C1011.15 243.14 1009.76 242.91 1008.42 242.61Z" fill="#6C63FF"/>
<path d="M536.98 205.43L536.17 209H528.58L534.4 186.5H545.53L551.35 209H543.76L542.92 205.43H536.98ZM540.16 193.4H539.77L538.3 199.7H541.6L540.16 193.4ZM554.903 186.5H562.103V203.39H564.653C565.573 203.39 566.193 203.27 566.513 203.03C566.853 202.79 567.023 202.27 567.023 201.47V186.5H574.223V199.13C574.223 201.05 574.093 202.67 573.833 203.99C573.593 205.31 573.113 206.39 572.393 207.23C571.693 208.05 570.713 208.64 569.453 209C568.193 209.36 566.563 209.54 564.563 209.54C562.563 209.54 560.933 209.36 559.673 209C558.413 208.64 557.423 208.05 556.703 207.23C556.003 206.41 555.523 205.34 555.263 204.02C555.023 202.68 554.903 201.05 554.903 199.13V186.5ZM595.99 186.5V192.26H590.77V209H583.57V192.26H578.35V186.5H595.99ZM599.578 197.78C599.578 195.72 599.748 193.95 600.088 192.47C600.448 190.97 601.038 189.74 601.858 188.78C602.698 187.82 603.798 187.11 605.158 186.65C606.518 186.19 608.198 185.96 610.198 185.96C612.218 185.96 613.898 186.19 615.238 186.65C616.598 187.11 617.688 187.82 618.508 188.78C619.348 189.74 619.938 190.97 620.278 192.47C620.638 193.95 620.818 195.72 620.818 197.78C620.818 199.74 620.658 201.46 620.338 202.94C620.018 204.4 619.448 205.62 618.628 206.6C617.828 207.58 616.738 208.32 615.358 208.82C613.998 209.3 612.278 209.54 610.198 209.54C608.118 209.54 606.388 209.3 605.008 208.82C603.648 208.32 602.558 207.58 601.738 206.6C600.938 205.62 600.378 204.4 600.058 202.94C599.738 201.46 599.578 199.74 599.578 197.78ZM607.318 194.03V203.39H610.318C611.318 203.39 612.028 203.28 612.448 203.06C612.888 202.82 613.108 202.29 613.108 201.47V192.11H610.078C609.118 192.11 608.418 192.23 607.978 192.47C607.538 192.69 607.318 193.21 607.318 194.03ZM633.084 198.08L632.664 209H625.134L626.514 186.5H635.904L638.694 197.96H638.964L641.754 186.5H651.174L652.524 209H644.994L644.574 198.08H644.334L641.574 209H636.084L633.294 198.08H633.084ZM664.093 205.43L663.283 209H655.693L661.513 186.5H672.643L678.463 209H670.873L670.033 205.43H664.093ZM667.273 193.4H666.883L665.413 199.7H668.713L667.273 193.4ZM698.577 186.5V192.26H693.357V209H686.157V192.26H680.937V186.5H698.577ZM710.445 209H703.245V186.5H710.445V209ZM715.675 197.78C715.675 195.72 715.845 193.95 716.185 192.47C716.545 190.97 717.135 189.74 717.955 188.78C718.795 187.82 719.895 187.11 721.255 186.65C722.615 186.19 724.295 185.96 726.295 185.96C728.315 185.96 729.995 186.19 731.335 186.65C732.695 187.11 733.785 187.82 734.605 188.78C735.445 189.74 736.035 190.97 736.375 192.47C736.735 193.95 736.915 195.72 736.915 197.78C736.915 199.74 736.755 201.46 736.435 202.94C736.115 204.4 735.545 205.62 734.725 206.6C733.925 207.58 732.835 208.32 731.455 208.82C730.095 209.3 728.375 209.54 726.295 209.54C724.215 209.54 722.485 209.3 721.105 208.82C719.745 208.32 718.655 207.58 717.835 206.6C717.035 205.62 716.475 204.4 716.155 202.94C715.835 201.46 715.675 199.74 715.675 197.78ZM723.415 194.03V203.39H726.415C727.415 203.39 728.125 203.28 728.545 203.06C728.985 202.82 729.205 202.29 729.205 201.47V192.11H726.175C725.215 192.11 724.515 192.23 724.075 192.47C723.635 192.69 723.415 193.21 723.415 194.03ZM762.111 209H755.331L749.841 201.02C749.741 200.88 749.661 200.67 749.601 200.39C749.541 200.11 749.501 199.74 749.481 199.28H749.331V209H742.131V186.5H748.911L754.401 194.48C754.501 194.62 754.581 194.83 754.641 195.11C754.701 195.39 754.741 195.76 754.761 196.22H754.911V186.5H762.111V209ZM767.515 208.61L768.535 202.67C770.735 203.21 772.725 203.48 774.505 203.48C775.405 203.48 776.195 203.47 776.875 203.45C777.575 203.41 778.195 203.35 778.735 203.27V201.47L775.495 201.2C774.035 201.06 772.815 200.82 771.835 200.48C770.855 200.14 770.065 199.68 769.465 199.1C768.885 198.5 768.465 197.79 768.205 196.97C767.965 196.13 767.845 195.15 767.845 194.03C767.845 192.49 768.005 191.21 768.325 190.19C768.645 189.15 769.155 188.32 769.855 187.7C770.555 187.06 771.455 186.61 772.555 186.35C773.675 186.09 775.035 185.96 776.635 185.96C779.815 185.96 782.695 186.26 785.275 186.86L784.375 192.62C782.135 192.26 780.345 192.08 779.005 192.08C777.665 192.08 776.525 192.14 775.585 192.26V194.03L778.165 194.27C779.745 194.43 781.065 194.7 782.125 195.08C783.185 195.44 784.035 195.92 784.675 196.52C785.335 197.12 785.795 197.83 786.055 198.65C786.335 199.47 786.475 200.41 786.475 201.47C786.475 202.99 786.275 204.27 785.875 205.31C785.475 206.35 784.995 207.14 784.435 207.68C783.975 208.12 783.405 208.47 782.725 208.73C782.045 208.97 781.325 209.15 780.565 209.27C779.805 209.39 779.035 209.46 778.255 209.48C777.495 209.52 776.805 209.54 776.185 209.54C774.625 209.54 773.125 209.46 771.685 209.3C770.245 209.14 768.855 208.91 767.515 208.61Z" fill="#6C63FF"/>
<path d="M1564.12 101.556H1364V103.126H1564.12V101.556Z" fill="#3F3D56"/>
<path d="M1550.64 93.2761H1528.67V115.264H1550.64V93.2761Z" fill="#E6E6E6"/>
<path d="M1563.98 102.7H1537.3V76H1563.98V102.7ZM1538.46 101.539H1562.82V77.1609H1538.46V101.539Z" fill="#3F3D56"/>
<path d="M1563.94 84.8185C1586 84.8185 1603.88 66.9505 1603.88 44.9092C1603.88 22.868 1586 5 1563.94 5C1541.88 5 1524 22.868 1524 44.9092C1524 66.9505 1541.88 84.8185 1563.94 84.8185Z" fill="#6C63FF"/>
<path d="M1558.49 65.6801C1557.8 65.6801 1557.12 65.5196 1556.5 65.2113C1555.89 64.9031 1555.35 64.4555 1554.94 63.904L1544.04 49.3866C1543.69 48.9202 1543.44 48.3895 1543.29 47.8248C1543.15 47.26 1543.11 46.6723 1543.2 46.0952C1543.28 45.5181 1543.47 44.9629 1543.77 44.4613C1544.07 43.9597 1544.46 43.5214 1544.93 43.1717C1545.4 42.8219 1545.93 42.5674 1546.49 42.4227C1547.06 42.2781 1547.65 42.2461 1548.22 42.3285C1548.8 42.411 1549.36 42.6063 1549.86 42.9034C1550.36 43.2004 1550.8 43.5933 1551.15 44.0597L1558.28 53.5566L1576.59 26.1144C1576.91 25.6291 1577.33 25.2123 1577.81 24.8878C1578.3 24.5632 1578.84 24.3372 1579.41 24.2228C1579.99 24.1084 1580.57 24.1077 1581.15 24.2208C1581.72 24.3339 1582.26 24.5586 1582.75 24.8821C1583.24 25.2055 1583.65 25.6214 1583.98 26.1059C1584.3 26.5904 1584.53 27.1341 1584.64 27.7059C1584.76 28.2777 1584.76 28.8664 1584.64 29.4384C1584.53 30.0104 1584.3 30.5544 1583.98 31.0395L1562.19 63.7031C1561.79 64.2938 1561.26 64.7815 1560.64 65.1252C1560.02 65.4689 1559.33 65.6587 1558.61 65.6786C1558.57 65.6794 1558.53 65.6801 1558.49 65.6801Z" fill="white"/>
<path d="M1396 431H1172V433H1396V431Z" fill="#3F3D56"/>
<path d="M1212.57 422.28C1212.4 422.668 1212.21 423.047 1212 423.415C1210.89 425.382 1209.34 427.077 1207.44 428.366C1205.2 429.889 1202.57 430.789 1199.84 430.967C1197.11 431.145 1194.38 430.594 1191.95 429.374C1189.52 428.155 1187.48 426.313 1186.06 424.05C1184.63 421.787 1183.88 419.19 1183.88 416.543V414.209H1185.93C1193.89 419.182 1203.09 421.972 1212.57 422.28Z" fill="#6C63FF"/>
<path d="M1240.55 414.909V416.557C1240.55 419.767 1239.47 422.885 1237.48 425.419C1235.49 427.954 1232.71 429.76 1229.56 430.553C1226.42 431.345 1223.1 431.079 1220.13 429.797C1217.15 428.514 1214.7 426.287 1213.14 423.469C1212.93 423.092 1212.74 422.704 1212.57 422.307C1212.99 422.318 1213.41 422.324 1213.84 422.324C1223.26 422.335 1232.51 419.769 1240.55 414.909Z" fill="#6C63FF"/>
<path d="M1260.73 237.345C1260.31 237.28 1259.87 237.239 1259.44 237.209C1264.36 248.978 1264.71 262.265 1260.39 274.289C1260.82 274.235 1261.25 274.164 1261.68 274.082C1265.86 273.243 1269.61 270.894 1272.27 267.454C1274.94 264.015 1276.34 259.707 1276.22 255.298C1276.11 250.888 1274.49 246.664 1271.65 243.377C1268.82 240.089 1264.95 237.952 1260.73 237.345Z" fill="#6C63FF"/>
<path d="M1168.49 237.209C1168.04 237.239 1167.59 237.28 1167.14 237.345C1162.75 237.952 1158.72 240.089 1155.77 243.377C1152.81 246.664 1151.13 250.888 1151.01 255.298C1150.89 259.707 1152.35 264.015 1155.12 267.454C1157.89 270.894 1161.8 273.243 1166.16 274.082C1166.6 274.164 1167.05 274.235 1167.5 274.289C1163 262.265 1163.36 248.978 1168.49 237.209Z" fill="#6C63FF"/>
<path d="M1260.43 236.862C1255.6 225.254 1246.66 215.868 1235.35 210.526C1224.04 205.183 1211.15 204.266 1199.2 207.954C1187.26 211.641 1177.1 219.668 1170.7 230.477C1164.3 241.285 1162.12 254.103 1164.58 266.44C1167.04 278.776 1173.97 289.751 1184.02 297.232C1194.07 304.714 1206.52 308.167 1218.95 306.921C1231.39 305.675 1242.92 299.819 1251.31 290.491C1259.69 281.162 1264.34 269.028 1264.34 256.445C1264.33 249.721 1263.01 243.065 1260.43 236.862ZM1260.08 273.715C1255.79 285.314 1247.35 294.877 1236.42 300.523C1225.48 306.169 1212.84 307.488 1200.99 304.222C1189.13 300.956 1178.92 293.34 1172.37 282.874C1165.81 272.407 1163.38 259.849 1165.56 247.67C1167.73 235.491 1174.36 224.573 1184.13 217.066C1193.9 209.559 1206.11 206.006 1218.35 207.106C1230.59 208.207 1241.98 213.881 1250.27 223.012C1258.56 232.143 1263.16 244.07 1263.16 256.445C1263.16 262.341 1262.12 268.189 1260.08 273.715Z" fill="#6C63FF" stroke="#6C63FF" stroke-width="3"/>
<path d="M1239.99 244.905H1187.94C1185.19 244.905 1182.56 246.011 1180.62 247.979C1178.68 249.947 1177.58 252.616 1177.58 255.399C1177.58 258.182 1178.68 260.852 1180.62 262.82C1182.56 264.788 1185.19 265.893 1187.94 265.893H1239.99C1242.74 265.893 1245.37 264.788 1247.31 262.82C1249.25 260.852 1250.34 258.182 1250.34 255.399C1250.34 252.616 1249.25 249.947 1247.31 247.979C1245.37 246.011 1242.74 244.905 1239.99 244.905Z" fill="#6C63FF"/>
<path d="M1260.47 344.891C1260.28 344.544 1260.09 344.204 1259.89 343.869C1259.88 343.857 1259.88 343.852 1259.87 343.84C1255.22 335.932 1248.58 329.361 1240.6 324.772C1232.62 320.184 1223.58 317.735 1214.36 317.666C1205.15 317.597 1196.07 319.91 1188.02 324.379C1179.97 328.847 1173.23 335.318 1168.46 343.155C1163.69 350.993 1161.06 359.927 1160.81 369.082C1160.57 378.237 1162.73 387.298 1167.07 395.376C1171.42 403.453 1177.8 410.269 1185.6 415.155C1193.39 420.041 1202.34 422.829 1211.55 423.246C1212.11 423.275 1212.67 423.293 1213.24 423.293C1213.48 423.304 1213.71 423.304 1213.95 423.304C1223.45 423.318 1232.78 420.785 1240.95 415.971C1249.82 410.752 1257 403.097 1261.6 393.926C1261.6 393.914 1261.61 393.908 1261.61 393.896C1261.79 393.544 1261.96 393.186 1262.14 392.822C1265.69 385.27 1267.39 376.989 1267.1 368.658C1266.81 360.327 1264.54 352.182 1260.47 344.891ZM1260.98 392.499C1260.81 392.863 1260.63 393.221 1260.45 393.573C1256.05 402.255 1249.3 409.541 1240.95 414.603C1232.82 419.536 1223.47 422.141 1213.95 422.13C1213.51 422.13 1213.09 422.124 1212.66 422.113C1212.47 422.113 1212.29 422.107 1212.11 422.095C1203.08 421.782 1194.3 419.14 1186.61 414.43C1178.93 409.72 1172.61 403.103 1168.28 395.232C1163.96 387.36 1161.76 378.504 1161.93 369.536C1162.09 360.568 1164.6 351.796 1169.21 344.084C1173.82 336.372 1180.37 329.985 1188.22 325.551C1196.07 321.118 1204.94 318.791 1213.97 318.8C1223 318.808 1231.87 321.152 1239.71 325.6C1247.55 330.048 1254.09 336.448 1258.69 344.169C1258.7 344.18 1258.7 344.186 1258.71 344.198C1258.91 344.533 1259.11 344.873 1259.3 345.214C1263.36 352.391 1265.63 360.428 1265.92 368.654C1266.21 376.88 1264.52 385.056 1260.98 392.499Z" fill="#6C63FF" stroke="#6C63FF" stroke-width="3"/>
<path d="M1254.12 346.125C1253.09 345.364 1251.87 344.953 1250.62 344.949H1227.68C1226.09 344.949 1224.55 345.612 1223.42 346.793C1222.29 347.974 1221.66 349.575 1221.66 351.245C1221.66 352.915 1222.29 354.516 1223.42 355.697C1224.55 356.878 1226.09 357.541 1227.68 357.541H1250.62C1251.03 357.543 1251.43 357.5 1251.84 357.413C1252.23 357.323 1252.63 357.195 1253 357.029C1253.98 356.588 1254.83 355.882 1255.47 354.984C1256.1 354.085 1256.49 353.027 1256.61 351.917C1256.72 350.808 1256.55 349.687 1256.11 348.669C1255.67 347.651 1254.98 346.773 1254.12 346.125Z" fill="#6C63FF"/>
<path d="M1229.36 354.044C1230.9 354.044 1232.15 352.634 1232.15 350.895C1232.15 349.157 1230.9 347.747 1229.36 347.747C1227.81 347.747 1226.56 349.157 1226.56 350.895C1226.56 352.634 1227.81 354.044 1229.36 354.044Z" fill="#F1F1F1"/>
<path d="M1239.5 354.044C1241.24 354.044 1242.65 352.634 1242.65 350.895C1242.65 349.157 1241.24 347.747 1239.5 347.747C1237.76 347.747 1236.35 349.157 1236.35 350.895C1236.35 352.634 1237.76 354.044 1239.5 354.044Z" fill="#F1F1F1"/>
<path d="M1249.29 354.044C1251.03 354.044 1252.44 352.634 1252.44 350.895C1252.44 349.157 1251.03 347.747 1249.29 347.747C1247.56 347.747 1246.15 349.157 1246.15 350.895C1246.15 352.634 1247.56 354.044 1249.29 354.044Z" fill="#6C63FF"/>
<path d="M1365.71 249.787C1357.67 254.611 1343.34 260.655 1328.69 254.444L1319.23 250.428L1338.2 229.163C1323.06 212.472 1314.68 190.739 1314.71 168.206C1314.73 145.673 1323.15 123.957 1338.32 107.297C1353.49 90.6367 1374.33 80.2284 1396.76 78.1035C1419.19 75.9786 1441.61 82.2895 1459.64 95.8044C1477.68 109.319 1490.02 129.068 1494.28 151.196C1498.53 173.324 1494.38 196.243 1482.65 215.48C1470.91 234.716 1452.43 248.89 1430.81 255.233C1409.19 261.576 1385.98 259.635 1365.71 249.787Z" fill="white"/>
<path d="M1365.9 250.578C1358.19 255.098 1343.52 261.345 1328.56 255.002L1317.83 250.453L1337.07 228.893C1325.1 215.433 1317.38 198.732 1314.89 180.895C1312.39 163.058 1315.23 144.881 1323.05 128.655C1330.87 112.429 1343.32 98.8778 1358.83 89.7093C1374.34 80.5409 1392.22 76.1646 1410.21 77.1317C1428.2 78.0988 1445.5 84.366 1459.94 95.144C1474.38 105.922 1485.3 120.729 1491.33 137.7C1497.37 154.671 1498.24 173.047 1493.85 190.514C1489.45 207.981 1479.99 223.758 1466.64 235.858C1453.24 248.083 1436.48 256.018 1418.52 258.641C1400.57 261.265 1382.24 258.456 1365.9 250.578ZM1471.44 108.304C1463.56 99.6197 1454.05 92.5711 1443.45 87.5609C1432.85 82.5508 1421.37 79.6773 1409.65 79.1046C1397.94 78.5318 1386.23 80.2711 1375.19 84.2229C1364.15 88.1748 1354 94.2619 1345.31 102.137C1336.62 110.011 1329.58 119.519 1324.57 130.117C1319.56 140.716 1316.68 152.197 1316.11 163.904C1315.54 175.612 1317.29 187.318 1321.24 198.352C1325.2 209.386 1331.29 219.534 1339.17 228.214L1339.78 228.885L1321.21 249.696L1329.35 253.148C1343.8 259.274 1358.09 252.91 1365.33 248.572L1365.8 248.291L1366.29 248.53C1384.94 257.59 1406.17 259.876 1426.32 254.996C1446.48 250.116 1464.31 238.374 1476.75 221.786C1489.19 205.199 1495.46 184.8 1494.49 164.092C1493.52 143.385 1485.37 123.66 1471.44 108.304Z" fill="#6C63FF" stroke="#6C63FF" stroke-width="3"/>
<path opacity="0.1" d="M1481.29 167.599C1481.29 146.881 1473.52 126.914 1459.53 111.63C1445.53 96.3462 1426.31 86.8537 1405.66 85.0217C1408.07 84.8101 1410.52 84.6957 1412.99 84.6957C1434.98 84.7089 1456.07 93.4492 1471.62 108.995C1487.17 124.541 1495.91 145.62 1495.91 167.599C1495.91 189.577 1487.17 210.657 1471.62 226.203C1456.07 241.748 1434.98 250.489 1412.99 250.502C1410.52 250.502 1408.08 250.386 1405.67 250.175C1426.32 248.34 1445.53 238.847 1459.53 223.564C1473.53 208.28 1481.29 188.315 1481.29 167.599Z" fill="black"/>
<path d="M1416.85 151.158H1357.38V156.755H1416.85V151.158Z" fill="#6C63FF"/>
<path d="M1461.62 170.047H1357.38V176.344H1461.62V170.047Z" fill="#6C63FF"/>
<path d="M1461.62 188.937H1357.38V195.233H1461.62V188.937Z" fill="#6C63FF"/>
<path d="M174.229 339.085L173.991 335.856C180.301 335.392 186.625 334.491 192.788 333.178L193.461 336.344C187.155 337.687 180.685 338.609 174.229 339.085ZM154.779 338.909C148.246 338.358 141.785 337.46 135.578 336.239L136.203 333.062C142.294 334.262 148.636 335.143 155.051 335.683L154.779 338.909ZM212.143 330.997L211.04 327.954C216.975 325.804 222.817 323.22 228.406 320.276L229.914 323.14C224.195 326.153 218.216 328.796 212.143 330.997ZM116.802 331.339C110.592 329.295 104.534 326.847 98.7987 324.059L100.212 321.15C105.818 323.872 111.74 326.267 117.813 328.264L116.802 331.339ZM81.9655 314.35C76.6021 310.718 71.4693 306.664 66.7109 302.3L68.8984 299.914C73.5401 304.171 78.5474 308.127 83.78 311.669L81.9655 314.35ZM246.438 312.935L244.554 310.304C249.688 306.627 254.617 302.563 259.204 298.226L261.427 300.578C256.734 305.015 251.691 309.173 246.438 312.935ZM53.3807 288.123C49.3257 283.121 45.5832 277.753 42.2581 272.168L45.0392 270.512C48.2845 275.964 51.9371 281.204 55.8942 286.086L53.3807 288.123ZM274.609 286.306L272.088 284.276C276.053 279.35 279.712 274.109 282.964 268.702L285.737 270.371C282.41 275.903 278.666 281.264 274.609 286.306ZM33.5042 254.816C31.0139 248.895 28.8903 242.713 27.1928 236.44L30.3168 235.594C31.9763 241.728 34.0525 247.773 36.4867 253.56L33.5042 254.816ZM294.593 253.069L291.618 251.794C294.104 245.99 296.21 239.954 297.877 233.854L300.998 234.709C299.292 240.949 297.138 247.127 294.593 253.069ZM23.3507 217.397C22.4869 211.006 22.0269 204.488 21.9844 198.023L25.2205 198.002C25.2622 204.33 25.7119 210.71 26.5576 216.964L23.3507 217.397ZM304.822 215.658L301.613 215.24C302.426 208.999 302.82 202.622 302.783 196.287L302.781 195.995L306.017 195.976L306.019 196.256C306.057 202.749 305.654 209.273 304.822 215.658ZM26.3081 179.024L23.0949 178.631C23.879 172.197 25.0867 165.774 26.6849 159.542L29.8199 160.346C28.2564 166.442 27.0748 172.727 26.3081 179.024ZM301.356 177.063C300.455 170.807 299.113 164.561 297.368 158.5L300.478 157.605C302.264 163.808 303.637 170.2 304.56 176.602L301.356 177.063ZM35.7506 142.301L32.7508 141.086C35.1917 135.062 38.0577 129.188 41.2684 123.627L44.0714 125.245C40.9342 130.676 38.1346 136.415 35.7506 142.301ZM290.872 140.658C288.314 134.899 285.33 129.256 282.002 123.885L284.753 122.18C288.159 127.676 291.213 133.452 293.83 139.346L290.872 140.658ZM270.927 108.467C266.904 103.603 262.509 98.9663 257.861 94.6877L260.054 92.3064C264.808 96.6848 269.306 101.428 273.421 106.405L270.927 108.467ZM54.7119 109.534L52.1705 107.531C56.1843 102.44 60.6002 97.6138 65.2941 93.1869L67.5151 95.5413C62.9351 99.8601 58.6276 104.568 54.7119 109.534ZM243.048 82.8017C237.857 79.1883 232.375 75.9029 226.755 73.0362L228.225 70.1534C233.976 73.0865 239.586 76.4486 244.897 80.1459L243.048 82.8017ZM82.2333 83.5835L80.3819 80.9284C85.6474 77.2575 91.2656 73.914 97.0806 70.9898L98.5351 73.8811C92.8564 76.7358 87.3721 80.0003 82.2333 83.5835ZM116.038 66.5272L114.985 63.4668C120.983 61.4051 127.278 59.6728 133.695 58.3197L134.363 61.4858C128.076 62.812 121.91 64.508 116.038 66.5272ZM209.279 65.5876C203.313 63.5161 197.144 61.8408 190.943 60.6059L191.574 57.4324C197.921 58.6958 204.235 60.4105 210.34 62.5302L209.279 65.5876ZM153.173 58.6184L152.859 55.3982C156.096 55.0826 159.425 54.8462 162.753 54.696C165.902 54.6409 169.167 54.7621 172.305 54.9503L172.111 58.1813C169.043 57.9966 165.923 57.9126 162.836 57.9302C159.627 58.0766 156.355 58.3094 153.173 58.6184Z" fill="#3F3D56"/>
<path d="M56.6768 330.094C80.8048 329.956 100.252 310.284 100.114 286.156C99.9764 262.028 80.3049 242.581 56.1769 242.719C32.0489 242.857 12.6012 262.528 12.7392 286.656C12.8773 310.784 32.5488 330.232 56.6768 330.094Z" fill="#6C63FF"/>
<path d="M39.2445 271.856C39.2367 270.503 40.3547 269.4 41.7417 269.392L70.9153 269.225C72.3024 269.217 73.4328 270.307 73.4406 271.66L73.6082 300.957C73.616 302.31 72.498 303.413 71.1109 303.421L41.9374 303.588C40.5503 303.596 39.4198 302.506 39.4121 301.153L39.2445 271.856ZM49.9587 297.972L49.8704 282.531L44.7388 282.56L44.8272 298.002L49.9587 297.972ZM47.2936 280.436C49.0825 280.425 50.1892 279.235 50.1807 277.752C50.14 276.237 49.0541 275.091 47.2973 275.101C45.5404 275.111 44.3993 276.272 44.408 277.785C44.4165 279.268 45.5368 280.446 47.2594 280.436L47.2936 280.436ZM57.8837 297.927L57.8343 289.303C57.8317 288.841 57.8632 288.38 57.9981 288.05C58.3626 287.126 59.2014 286.166 60.6205 286.158C62.4778 286.147 63.2275 287.558 63.2394 289.635L63.2866 297.896L68.4182 297.867L68.3675 289.01C68.3404 284.265 65.7972 282.074 62.4204 282.093C59.6975 282.109 58.4857 283.612 57.8078 284.669L57.8081 284.723L57.7739 284.723L57.8078 284.669L57.7953 282.485L52.6659 282.515C52.7383 283.963 52.7542 297.956 52.7542 297.956L57.8837 297.927Z" fill="white"/>
<path d="M184.38 100.625C208.508 100.487 227.956 80.8156 227.818 56.6876C227.68 32.5596 208.008 13.1119 183.88 13.2499C159.752 13.388 140.304 33.0595 140.442 57.1875C140.58 81.3155 160.252 100.763 184.38 100.625Z" fill="#6C63FF"/>
<path fill-rule="evenodd" clip-rule="evenodd" d="M184.642 49.0201C187.013 45.7742 189.641 43.2146 193.02 43.1952C199.4 43.1587 204.7 51.2491 204.758 60.9174C204.792 66.8153 202.274 70.5256 197.712 70.5517C193.738 70.5744 191.531 68.3566 187.556 61.7911L185.821 58.9087L185.515 58.403C185.062 57.6485 184.603 56.8982 184.137 56.1522L181.133 61.5265C176.868 69.0844 174.451 70.6848 171.082 70.704C166.4 70.7308 163.582 67.1025 163.549 61.3232C163.496 52.0901 168.584 43.335 175.288 43.2967C176.11 43.292 176.899 43.3879 177.67 43.5973C178.469 43.8142 179.247 44.1549 180.027 44.632C181.519 45.5481 183.013 46.9716 184.642 49.0201ZM188.579 54.7256C187.924 53.6734 187.295 52.706 186.69 51.8183L186.674 51.7978C188.832 48.4244 190.62 46.7426 192.755 46.7304C197.192 46.705 200.781 53.2187 200.827 61.2438C200.845 64.3035 199.85 66.0837 197.777 66.0956C195.786 66.107 194.828 64.7989 191.013 58.7425L188.577 54.7257L188.579 54.7256ZM175.953 47.8156C177.822 48.0624 179.529 49.428 182.009 52.9346C180.602 55.1158 179.211 57.3071 177.836 59.5081C174.372 65.0036 173.171 66.239 171.227 66.2501C169.225 66.2615 168.023 64.5119 168.005 61.375C167.967 54.6736 171.27 47.7986 175.257 47.7758C175.492 47.7744 175.723 47.7886 175.953 47.8182L175.953 47.8156Z" fill="white"/>
<path d="M44.1875 170.533C68.3155 170.395 87.7632 150.723 87.6252 126.595C87.4871 102.467 67.8156 83.0195 43.6876 83.1575C19.5596 83.2956 0.111908 102.967 0.249953 127.095C0.387999 151.223 20.0595 170.671 44.1875 170.533Z" fill="#6C63FF"/>
<path d="M36.9748 142.296C51.2896 142.215 59.0525 130.309 58.9937 120.041C58.9918 119.709 58.9899 119.372 58.9738 119.04C60.492 117.928 61.8 116.554 62.8364 114.983C61.4159 115.619 59.9091 116.042 58.365 116.237C59.9871 115.255 61.1974 113.717 61.7709 111.909C60.2469 112.824 58.5768 113.47 56.8338 113.818C53.8707 110.698 48.9397 110.571 45.82 113.534C43.8054 115.448 42.9623 118.289 43.6075 120.992C37.3475 120.714 31.4996 117.793 27.5178 112.954C25.4783 116.524 26.5604 121.063 29.9907 123.329C28.7566 123.294 27.5479 122.97 26.4622 122.382L26.4628 122.489C26.4884 126.191 29.1144 129.364 32.7464 130.082C32.0795 130.27 31.39 130.366 30.6972 130.367C30.2088 130.371 29.7211 130.328 29.2407 130.24C30.2786 133.403 33.2136 135.557 36.5429 135.597C33.797 137.779 30.3965 138.973 26.8891 138.988C26.2711 138.994 25.6533 138.962 25.0393 138.891C28.612 141.141 32.7531 142.322 36.9748 142.296Z" fill="white"/>
<path d="M202.661 377.251C226.789 377.112 246.237 357.441 246.099 333.313C245.961 309.185 226.289 289.737 202.161 289.875C178.033 290.013 158.586 309.685 158.724 333.813C158.862 357.941 178.533 377.389 202.661 377.251Z" fill="#6C63FF"/>
<path d="M202.304 314.931C197.247 314.959 196.611 314.986 194.625 315.086C192.639 315.191 191.288 315.511 190.105 315.979C188.864 316.453 187.742 317.194 186.817 318.147C185.874 319.084 185.147 320.214 184.686 321.46C184.231 322.646 183.925 324.003 183.845 325.983C183.768 327.975 183.749 328.609 183.778 333.672C183.806 338.731 183.833 339.364 183.933 341.351C184.038 343.334 184.358 344.686 184.826 345.869C185.31 347.091 185.952 348.126 186.994 349.157C188.034 350.187 189.077 350.819 190.304 351.288C191.495 351.742 192.848 352.049 194.833 352.128C196.822 352.205 197.456 352.225 202.517 352.196C207.578 352.167 208.209 352.14 210.198 352.04C212.179 351.936 213.535 351.616 214.718 351.148C215.958 350.673 217.079 349.933 218.004 348.979C219.034 347.937 219.664 346.895 220.135 345.667C220.587 344.479 220.893 343.124 220.975 341.139C221.052 339.151 221.072 338.518 221.043 333.457C221.014 328.396 220.987 327.762 220.887 325.774C220.783 323.792 220.461 322.438 219.995 321.258C219.519 320.017 218.779 318.895 217.826 317.97C216.891 317.026 215.76 316.299 214.514 315.839C213.323 315.385 211.966 315.078 209.983 314.998C207.994 314.921 207.362 314.902 202.299 314.931L202.304 314.931ZM200.653 318.299L202.325 318.289C207.3 318.261 207.889 318.274 209.853 318.353C211.671 318.424 212.66 318.724 213.318 318.974C214.189 319.307 214.813 319.708 215.469 320.357C216.125 321.005 216.531 321.622 216.874 322.491C217.134 323.144 217.442 324.13 217.534 325.946C217.636 327.909 217.658 328.499 217.687 333.471C217.715 338.444 217.7 339.035 217.62 340.999C217.549 342.817 217.25 343.804 217 344.462C216.705 345.273 216.233 346.007 215.617 346.61C214.968 347.266 214.351 347.672 213.482 348.015C212.831 348.275 211.845 348.584 210.027 348.678C208.064 348.778 207.475 348.802 202.5 348.83C197.525 348.859 196.933 348.841 194.969 348.764C193.152 348.691 192.165 348.393 191.507 348.141C190.696 347.847 189.961 347.376 189.356 346.76C188.733 346.163 188.251 345.434 187.947 344.626C187.689 343.973 187.378 342.987 187.286 341.171C187.186 339.208 187.164 338.619 187.136 333.641C187.108 328.666 187.123 328.079 187.2 326.115C187.274 324.298 187.571 323.309 187.823 322.651C188.156 321.78 188.558 321.156 189.206 320.5C189.854 319.844 190.472 319.438 191.341 319.095C191.996 318.835 192.98 318.526 194.796 318.432C196.514 318.343 197.18 318.316 200.653 318.294L200.653 318.299ZM212.288 321.325C211.053 321.332 210.058 322.339 210.065 323.574C210.072 324.809 211.079 325.804 212.314 325.797C213.549 325.79 214.544 324.783 214.537 323.548C214.53 322.313 213.523 321.318 212.288 321.325ZM202.358 323.995C197.072 323.943 192.746 328.185 192.693 333.471C192.641 338.756 196.883 343.083 202.169 343.135C202.268 343.136 202.368 343.136 202.467 343.133C207.752 343.021 211.944 338.646 211.831 333.361C211.721 328.193 207.527 324.046 202.358 323.995ZM202.377 327.352C205.808 327.33 208.606 330.094 208.627 333.525C208.648 336.956 205.884 339.754 202.453 339.775L202.448 339.775C199.017 339.795 196.22 337.029 196.201 333.599C196.181 330.168 198.946 327.371 202.377 327.352Z" fill="white"/>
<g clip-path="url(#clip1_384_496)">
<path fill-rule="evenodd" clip-rule="evenodd" d="M162 212.286C152.376 212.286 144.583 204.528 144.583 194.868C144.583 185.286 152.376 177.527 162 177.527C171.625 177.527 179.493 185.286 179.493 194.868C179.493 204.528 171.625 212.286 162 212.286ZM162 180.95C154.285 180.95 148.021 187.187 148.021 194.868C148.021 202.55 154.285 208.786 162 208.786C169.716 208.786 175.98 202.55 175.98 194.868C175.98 187.187 169.716 180.95 162 180.95Z" fill="#3F3D56"/>
<path fill-rule="evenodd" clip-rule="evenodd" d="M131.979 240.427C131.598 240.427 131.292 240.35 130.985 240.123C116.014 229.854 107 212.969 107 194.868C107 164.674 131.673 140.106 162 140.106C162.993 140.106 163.757 140.868 163.757 141.857C163.757 142.844 162.993 143.606 162 143.606C133.66 143.606 110.515 166.65 110.515 194.868C110.515 211.83 118.916 227.649 132.972 237.233C133.737 237.764 133.965 238.905 133.431 239.665C133.049 240.123 132.514 240.427 131.979 240.427Z" fill="#3F3D56"/>
<path fill-rule="evenodd" clip-rule="evenodd" d="M162 153.721C161.77 153.721 161.465 153.644 161.236 153.569C160.624 153.265 160.243 152.655 160.243 151.972V131.741C160.243 131.056 160.624 130.523 161.236 130.219C161.77 129.915 162.535 129.915 163.068 130.296L177.506 140.412C177.964 140.791 178.194 141.324 178.194 141.857C178.194 142.465 177.964 142.998 177.506 143.302L163.068 153.417C162.763 153.644 162.382 153.721 162 153.721ZM163.756 135.087V148.626L173.458 141.857L163.756 135.087Z" fill="#3F3D56"/>
<path fill-rule="evenodd" clip-rule="evenodd" d="M162 249.629C161.084 249.629 160.243 248.869 160.243 247.957C160.243 246.968 161.084 246.207 162 246.207C190.416 246.207 213.562 223.161 213.562 194.868C213.562 177.983 205.159 162.088 191.104 152.58C190.263 151.972 190.11 150.906 190.646 150.146C191.181 149.309 192.249 149.157 193.09 149.69C208.063 159.882 217 176.842 217 194.868C217 225.063 192.326 249.629 162 249.629Z" fill="#3F3D56"/>
<path fill-rule="evenodd" clip-rule="evenodd" d="M162 261.953C161.695 261.953 161.312 261.801 161.007 261.572L146.569 251.457C146.111 251.153 145.806 250.621 145.806 250.088C145.806 249.48 146.111 248.947 146.569 248.643L161.007 238.528C161.542 238.147 162.23 238.072 162.84 238.376C163.376 238.68 163.757 239.288 163.757 239.896V260.204C163.757 260.812 163.376 261.42 162.84 261.726C162.611 261.878 162.305 261.953 162 261.953ZM150.619 250.088L160.243 256.858V243.319L150.619 250.088Z" fill="#3F3D56"/>
<path fill-rule="evenodd" clip-rule="evenodd" d="M167.424 231.909H156.653C155.813 231.909 155.048 231.299 154.895 230.464L152.986 218.674C150.389 217.685 148.02 216.317 145.881 214.568L134.653 218.826C133.889 219.13 132.972 218.749 132.514 218.066L127.167 208.786C126.709 208.026 126.862 207.037 127.548 206.506L136.869 198.975C136.639 197.681 136.486 196.236 136.486 194.868C136.486 193.5 136.639 192.13 136.869 190.762L127.548 183.231C126.862 182.699 126.709 181.786 127.167 181.026L132.514 171.747C132.972 170.985 133.889 170.681 134.653 170.985L145.881 175.245C148.02 173.496 150.389 172.126 152.986 171.139L154.895 159.349C155.048 158.513 155.813 157.904 156.653 157.904H167.424C168.264 157.904 169.028 158.513 169.105 159.349L171.014 171.139C173.611 172.126 176.055 173.496 178.194 175.245L189.347 170.985C190.188 170.681 191.104 170.985 191.486 171.747L196.91 181.026C197.291 181.786 197.139 182.699 196.452 183.231L187.208 190.762C187.438 192.13 187.514 193.5 187.514 194.868C187.514 196.236 187.438 197.606 187.208 198.975L196.452 206.506C197.139 207.037 197.291 208.026 196.91 208.786L191.486 218.066C191.104 218.749 190.188 219.055 189.347 218.749L178.194 214.568C176.055 216.317 173.611 217.685 171.014 218.674L169.105 230.464C169.028 231.299 168.264 231.909 167.424 231.909ZM158.105 228.409H165.896L167.729 217.077C167.882 216.469 168.34 215.936 168.952 215.707C171.778 214.795 174.375 213.275 176.666 211.22C177.126 210.841 177.812 210.689 178.424 210.916L189.27 215.024L193.09 208.33L184.153 201.029C183.694 200.648 183.466 199.964 183.618 199.355C183.848 197.91 184.001 196.39 184.001 194.868C184.001 193.423 183.848 191.901 183.618 190.456C183.466 189.773 183.694 189.163 184.153 188.707L193.09 181.482L189.27 174.789L178.424 178.896C177.812 179.124 177.126 178.972 176.666 178.516C174.375 176.538 171.778 175.016 168.952 174.104C168.34 173.877 167.882 173.344 167.729 172.736L165.896 161.403H158.105L156.271 172.736C156.194 173.344 155.736 173.877 155.125 174.104C152.223 175.016 149.626 176.538 147.41 178.516C146.875 178.972 146.188 179.124 145.576 178.896L134.805 174.789L130.91 181.482L139.847 188.707C140.382 189.163 140.612 189.773 140.459 190.456C140.152 191.901 140 193.423 140 194.868C140 196.39 140.152 197.91 140.459 199.355C140.612 199.964 140.382 200.648 139.847 201.029L130.91 208.33L134.805 215.024L145.576 210.916C146.188 210.689 146.875 210.841 147.41 211.22C149.626 213.275 152.223 214.795 155.125 215.707C155.736 215.936 156.194 216.469 156.271 217.077L158.105 228.409Z" fill="#3F3D56"/>
<path fill-rule="evenodd" clip-rule="evenodd" d="M162 212.286C152.376 212.286 144.583 204.528 144.583 194.868C144.583 185.286 152.376 177.527 162 177.527C171.625 177.527 179.493 185.286 179.493 194.868C179.493 204.528 171.625 212.286 162 212.286ZM162 180.95C154.285 180.95 148.021 187.187 148.021 194.868C148.021 202.55 154.285 208.786 162 208.786C169.716 208.786 175.98 202.55 175.98 194.868C175.98 187.187 169.716 180.95 162 180.95Z" fill="#3F3D56"/>
<path fill-rule="evenodd" clip-rule="evenodd" d="M131.979 240.427C131.598 240.427 131.292 240.35 130.985 240.123C116.014 229.854 107 212.969 107 194.868C107 164.674 131.673 140.106 162 140.106C162.993 140.106 163.757 140.868 163.757 141.857C163.757 142.844 162.993 143.606 162 143.606C133.66 143.606 110.515 166.65 110.515 194.868C110.515 211.83 118.916 227.649 132.972 237.233C133.737 237.764 133.965 238.905 133.431 239.665C133.049 240.123 132.514 240.427 131.979 240.427Z" fill="#3F3D56"/>
<path fill-rule="evenodd" clip-rule="evenodd" d="M162 153.721C161.77 153.721 161.465 153.644 161.236 153.569C160.624 153.265 160.243 152.655 160.243 151.972V131.741C160.243 131.056 160.624 130.523 161.236 130.219C161.77 129.915 162.535 129.915 163.068 130.296L177.506 140.412C177.964 140.791 178.194 141.324 178.194 141.857C178.194 142.465 177.964 142.998 177.506 143.302L163.068 153.417C162.763 153.644 162.382 153.721 162 153.721ZM163.756 135.087V148.626L173.458 141.857L163.756 135.087Z" fill="#3F3D56"/>
<path fill-rule="evenodd" clip-rule="evenodd" d="M162 249.629C161.084 249.629 160.243 248.869 160.243 247.957C160.243 246.968 161.084 246.207 162 246.207C190.416 246.207 213.562 223.161 213.562 194.868C213.562 177.983 205.159 162.088 191.104 152.58C190.263 151.972 190.11 150.906 190.646 150.146C191.181 149.309 192.249 149.157 193.09 149.69C208.063 159.882 217 176.842 217 194.868C217 225.063 192.326 249.629 162 249.629Z" fill="#3F3D56"/>
<path fill-rule="evenodd" clip-rule="evenodd" d="M162 261.953C161.695 261.953 161.312 261.801 161.007 261.572L146.569 251.457C146.111 251.153 145.806 250.621 145.806 250.088C145.806 249.48 146.111 248.947 146.569 248.643L161.007 238.528C161.542 238.147 162.23 238.072 162.84 238.376C163.376 238.68 163.757 239.288 163.757 239.896V260.204C163.757 260.812 163.376 261.42 162.84 261.726C162.611 261.878 162.305 261.953 162 261.953ZM150.619 250.088L160.243 256.858V243.319L150.619 250.088Z" fill="#3F3D56"/>
<path fill-rule="evenodd" clip-rule="evenodd" d="M167.424 231.909H156.653C155.813 231.909 155.048 231.299 154.895 230.464L152.986 218.674C150.389 217.685 148.02 216.317 145.881 214.568L134.653 218.826C133.889 219.13 132.972 218.749 132.514 218.066L127.167 208.786C126.709 208.026 126.862 207.037 127.548 206.506L136.869 198.975C136.639 197.681 136.486 196.236 136.486 194.868C136.486 193.5 136.639 192.13 136.869 190.762L127.548 183.231C126.862 182.699 126.709 181.786 127.167 181.026L132.514 171.747C132.972 170.985 133.889 170.681 134.653 170.985L145.881 175.245C148.02 173.496 150.389 172.126 152.986 171.139L154.895 159.349C155.048 158.513 155.813 157.904 156.653 157.904H167.424C168.264 157.904 169.028 158.513 169.105 159.349L171.014 171.139C173.611 172.126 176.055 173.496 178.194 175.245L189.347 170.985C190.188 170.681 191.104 170.985 191.486 171.747L196.91 181.026C197.291 181.786 197.139 182.699 196.452 183.231L187.208 190.762C187.438 192.13 187.514 193.5 187.514 194.868C187.514 196.236 187.438 197.606 187.208 198.975L196.452 206.506C197.139 207.037 197.291 208.026 196.91 208.786L191.486 218.066C191.104 218.749 190.188 219.055 189.347 218.749L178.194 214.568C176.055 216.317 173.611 217.685 171.014 218.674L169.105 230.464C169.028 231.299 168.264 231.909 167.424 231.909ZM158.105 228.409H165.896L167.729 217.077C167.882 216.469 168.34 215.936 168.952 215.707C171.778 214.795 174.375 213.275 176.666 211.22C177.126 210.841 177.812 210.689 178.424 210.916L189.27 215.024L193.09 208.33L184.153 201.029C183.694 200.648 183.466 199.964 183.618 199.355C183.848 197.91 184.001 196.39 184.001 194.868C184.001 193.423 183.848 191.901 183.618 190.456C183.466 189.773 183.694 189.163 184.153 188.707L193.09 181.482L189.27 174.789L178.424 178.896C177.812 179.124 177.126 178.972 176.666 178.516C174.375 176.538 171.778 175.016 168.952 174.104C168.34 173.877 167.882 173.344 167.729 172.736L165.896 161.403H158.105L156.271 172.736C156.194 173.344 155.736 173.877 155.125 174.104C152.223 175.016 149.626 176.538 147.41 178.516C146.875 178.972 146.188 179.124 145.576 178.896L134.805 174.789L130.91 181.482L139.847 188.707C140.382 189.163 140.612 189.773 140.459 190.456C140.152 191.901 140 193.423 140 194.868C140 196.39 140.152 197.91 140.459 199.355C140.612 199.964 140.382 200.648 139.847 201.029L130.91 208.33L134.805 215.024L145.576 210.916C146.188 210.689 146.875 210.841 147.41 211.22C149.626 213.275 152.223 214.795 155.125 215.707C155.736 215.936 156.194 216.469 156.271 217.077L158.105 228.409Z" fill="#3F3D56"/>
</g>
<path d="M523.119 93.5555H323V95.1261H523.119V93.5555Z" fill="#3F3D56"/>
<path d="M402.2 160.15H281.855C279.975 160.152 278.173 160.896 276.843 162.218C275.514 163.54 274.766 165.333 274.764 167.202V241.711C274.766 243.581 275.514 245.374 276.843 246.696C278.173 248.018 279.975 248.762 281.855 248.764H402.2C404.08 248.762 405.883 248.018 407.212 246.696C408.542 245.374 409.29 243.581 409.292 241.711V167.202C409.29 165.333 408.542 163.54 407.212 162.218C405.883 160.896 404.08 160.152 402.2 160.15Z" fill="#6C63FF"/>
<path d="M402.2 160.15H281.855C279.975 160.152 278.173 160.896 276.843 162.218C275.514 163.54 274.766 165.333 274.764 167.202V241.711C274.766 243.581 275.514 245.374 276.843 246.696C278.173 248.018 279.975 248.762 281.855 248.764H402.2C404.08 248.762 405.883 248.018 407.212 246.696C408.542 245.374 409.29 243.581 409.292 241.711V167.202C409.29 165.333 408.542 163.54 407.212 162.218C405.883 160.896 404.08 160.152 402.2 160.15ZM404.528 213.671C404.499 221.256 401.481 228.528 396.123 233.927C390.765 239.326 383.492 242.421 375.865 242.549C363.654 242.707 382.621 242.768 367.894 242.768C334.217 242.768 299.101 242.448 285.999 242.241C284.275 242.205 282.633 241.501 281.424 240.279C280.215 239.056 279.535 237.412 279.528 235.698V167.208C279.529 166.594 279.774 166.005 280.21 165.57C280.646 165.136 281.238 164.891 281.855 164.888H402.195C402.813 164.889 403.405 165.133 403.842 165.566C404.279 166 404.525 166.588 404.528 167.202V213.671Z" fill="#3F3D56"/>
<path d="M387.386 117.245H295.696C294.885 117.247 294.094 117.497 293.431 117.962C292.768 118.427 292.265 119.084 291.992 119.843L277.831 159.351C277.619 159.941 277.554 160.572 277.639 161.193C277.724 161.813 277.957 162.404 278.32 162.916C278.682 163.428 279.163 163.846 279.721 164.134C280.28 164.423 280.9 164.574 281.53 164.575L404.501 164.792H404.507C405.157 164.792 405.798 164.632 406.371 164.325C406.944 164.018 407.431 163.574 407.79 163.034C408.148 162.494 408.366 161.874 408.424 161.229C408.481 160.584 408.378 159.936 408.121 159.341L391.001 119.616C390.698 118.912 390.194 118.312 389.552 117.891C388.909 117.469 388.156 117.245 387.386 117.245Z" fill="#3F3D56"/>
<path d="M408.44 160.199C408.44 160.729 408.331 161.253 408.122 161.74L391.002 192.319C390.697 193.021 390.193 193.62 389.55 194.04C388.908 194.461 388.156 194.686 387.387 194.687H295.698C294.886 194.686 294.095 194.436 293.431 193.971C292.768 193.507 292.265 192.85 291.99 192.09L277.832 161.729C277.659 161.245 277.583 160.732 277.608 160.22C277.634 159.707 277.762 159.204 277.983 158.74C278.205 158.276 278.516 157.86 278.899 157.516C279.282 157.171 279.73 156.906 280.217 156.733C280.637 156.582 281.082 156.505 281.529 156.505L296.55 156.477L302.681 156.466L383.357 156.325L389.492 156.315L404.502 156.287H404.506C405.549 156.287 406.55 156.699 407.287 157.433C408.025 158.166 408.44 159.161 408.44 160.199Z" fill="#3F3D56"/>
<path d="M290.878 216.04C292.696 216.04 317.664 217.558 317.664 219.366C317.664 221.174 292.696 222.588 290.878 222.588C290.005 222.588 289.168 222.243 288.55 221.629C287.933 221.015 287.586 220.183 287.586 219.314C287.586 218.446 287.933 217.613 288.55 216.999C289.168 216.385 290.005 216.04 290.878 216.04Z" fill="#3F3D56"/>
<path d="M381.676 93.2108H304.365C302.293 93.2132 300.306 94.0327 298.841 95.4897C297.376 96.9466 296.552 98.9219 296.55 100.982V194.687H387.386C388.132 194.689 388.863 194.478 389.491 194.078V100.982C389.488 98.9219 388.664 96.9466 387.199 95.4897C385.734 94.0327 383.748 93.2132 381.676 93.2108Z" fill="#E6E6E6"/>
<path d="M352.168 99.5117H309.8C307.913 99.5135 306.104 100.259 304.77 101.586C303.435 102.912 302.684 104.71 302.682 106.587V194.687H383.357V130.527C383.348 122.304 380.059 114.421 374.212 108.606C368.365 102.792 360.437 99.5212 352.168 99.5117Z" fill="white"/>
<path d="M369.613 186.862H316.426C315.966 186.862 315.525 187.044 315.2 187.367C314.875 187.691 314.692 188.129 314.692 188.586C314.692 189.043 314.875 189.482 315.2 189.805C315.525 190.129 315.966 190.31 316.426 190.31H369.613C370.073 190.31 370.514 190.129 370.839 189.805C371.164 189.482 371.346 189.043 371.346 188.586C371.346 188.129 371.164 187.691 370.839 187.367C370.514 187.044 370.073 186.862 369.613 186.862Z" fill="#E4E4E4"/>
<path d="M369.613 180.044H316.426C315.965 180.044 315.524 180.226 315.199 180.55C314.873 180.873 314.69 181.312 314.69 181.77C314.69 182.228 314.873 182.667 315.199 182.99C315.524 183.314 315.965 183.496 316.426 183.496H369.613C370.073 183.496 370.514 183.314 370.84 182.99C371.165 182.667 371.348 182.228 371.348 181.77C371.348 181.312 371.165 180.873 370.84 180.55C370.514 180.226 370.073 180.044 369.613 180.044Z" fill="#E4E4E4"/>
<path d="M339.482 173.23H316.426C315.966 173.23 315.525 173.411 315.2 173.735C314.875 174.058 314.692 174.496 314.692 174.954C314.692 175.411 314.875 175.849 315.2 176.173C315.525 176.496 315.966 176.678 316.426 176.678H339.482C339.941 176.678 340.382 176.496 340.707 176.173C341.032 175.849 341.215 175.411 341.215 174.954C341.215 174.496 341.032 174.058 340.707 173.735C340.382 173.411 339.941 173.23 339.482 173.23Z" fill="#E4E4E4"/>
<path d="M369.613 158.953H316.426C315.965 158.953 315.524 159.135 315.199 159.459C314.873 159.782 314.69 160.221 314.69 160.679C314.69 161.137 314.873 161.576 315.199 161.899C315.524 162.223 315.965 162.405 316.426 162.405H369.613C370.073 162.405 370.514 162.223 370.84 161.899C371.165 161.576 371.348 161.137 371.348 160.679C371.348 160.221 371.165 159.782 370.84 159.459C370.514 159.135 370.073 158.953 369.613 158.953Z" fill="#E4E4E4"/>
<path d="M369.613 152.139H316.426C315.966 152.139 315.525 152.32 315.2 152.644C314.875 152.967 314.692 153.406 314.692 153.863C314.692 154.32 314.875 154.758 315.2 155.082C315.525 155.405 315.966 155.587 316.426 155.587H369.613C370.073 155.587 370.514 155.405 370.839 155.082C371.164 154.758 371.346 154.32 371.346 153.863C371.346 153.406 371.164 152.967 370.839 152.644C370.514 152.32 370.073 152.139 369.613 152.139Z" fill="#E4E4E4"/>
<path d="M339.481 145.321H316.426C315.965 145.321 315.524 145.503 315.199 145.826C314.873 146.15 314.69 146.589 314.69 147.046C314.69 147.504 314.873 147.943 315.199 148.267C315.524 148.59 315.965 148.772 316.426 148.772H339.481C339.942 148.772 340.383 148.59 340.708 148.267C341.034 147.943 341.217 147.504 341.217 147.046C341.217 146.589 341.034 146.15 340.708 145.826C340.383 145.503 339.942 145.321 339.481 145.321Z" fill="#E4E4E4"/>
<path d="M369.613 131.044H316.426C315.965 131.044 315.524 131.226 315.199 131.55C314.873 131.873 314.69 132.312 314.69 132.77C314.69 133.228 314.873 133.667 315.199 133.99C315.524 134.314 315.965 134.496 316.426 134.496H369.613C370.073 134.496 370.514 134.314 370.84 133.99C371.165 133.667 371.348 133.228 371.348 132.77C371.348 132.312 371.165 131.873 370.84 131.55C370.514 131.226 370.073 131.044 369.613 131.044Z" fill="#6C63FF"/>
<path d="M369.613 124.23H316.426C315.965 124.23 315.524 124.412 315.199 124.735C314.873 125.059 314.69 125.498 314.69 125.955C314.69 126.413 314.873 126.852 315.199 127.176C315.524 127.499 315.965 127.681 316.426 127.681H369.613C370.073 127.681 370.514 127.499 370.84 127.176C371.165 126.852 371.348 126.413 371.348 125.955C371.348 125.498 371.165 125.059 370.84 124.735C370.514 124.412 370.073 124.23 369.613 124.23Z" fill="#6C63FF"/>
<path d="M339.481 117.412H316.426C315.965 117.412 315.524 117.594 315.199 117.917C314.873 118.241 314.69 118.68 314.69 119.137C314.69 119.595 314.873 120.034 315.199 120.358C315.524 120.681 315.965 120.863 316.426 120.863H339.481C339.942 120.863 340.383 120.681 340.708 120.358C341.034 120.034 341.217 119.595 341.217 119.137C341.217 118.68 341.034 118.241 340.708 117.917C340.383 117.594 339.942 117.412 339.481 117.412Z" fill="#6C63FF"/>
<path d="M386.593 106.511C394.049 106.511 400.094 100.5 400.094 93.085C400.094 85.67 394.049 79.6589 386.593 79.6589C379.136 79.6589 373.092 85.67 373.092 93.085C373.092 100.5 379.136 106.511 386.593 106.511Z" fill="#6C63FF"/>
<path d="M384.752 100.073C384.519 100.073 384.289 100.019 384.08 99.9149C383.872 99.8112 383.69 99.6606 383.551 99.4751L379.867 94.5912C379.748 94.4344 379.662 94.2557 379.612 94.0655C379.563 93.8753 379.552 93.6773 379.579 93.4827C379.607 93.2882 379.673 93.101 379.773 92.9319C379.874 92.7628 380.007 92.615 380.165 92.4972C380.323 92.3793 380.503 92.2936 380.695 92.245C380.886 92.1964 381.085 92.1858 381.281 92.2138C381.476 92.2419 381.664 92.308 381.834 92.4085C382.004 92.5089 382.152 92.6417 382.27 92.7992L384.68 95.9941L390.869 86.7622C391.09 86.4326 391.434 86.2038 391.824 86.1261C392.215 86.0484 392.62 86.1282 392.952 86.3479C393.283 86.5677 393.513 86.9093 393.591 87.2977C393.669 87.6861 393.589 88.0895 393.368 88.419L386.002 99.4075C385.868 99.6063 385.689 99.7703 385.479 99.886C385.269 100.002 385.034 100.065 384.794 100.072C384.78 100.072 384.766 100.073 384.752 100.073Z" fill="white"/>
<path d="M509.644 85.2761H487.67V107.264H509.644V85.2761Z" fill="#E6E6E6"/>
<path d="M522.984 94.6995H496.302V68H522.984V94.6995ZM497.462 93.5387H521.824V69.1609H497.462V93.5387Z" fill="#3F3D56"/>
<path d="M538.941 81.8185C560.999 81.8185 578.881 63.9505 578.881 41.9092C578.881 19.868 560.999 2 538.941 2C516.882 2 499 19.868 499 41.9092C499 63.9505 516.882 81.8185 538.941 81.8185Z" fill="#6C63FF"/>
<path d="M533.491 62.6801C532.801 62.6801 532.121 62.5196 531.504 62.2113C530.887 61.9031 530.351 61.4555 529.937 60.904L519.041 46.3866C518.691 45.9202 518.436 45.3895 518.291 44.8248C518.146 44.26 518.115 43.6723 518.197 43.0952C518.28 42.5181 518.475 41.9629 518.772 41.4613C519.07 40.9597 519.463 40.5214 519.93 40.1717C520.396 39.8219 520.927 39.5674 521.493 39.4227C522.058 39.2781 522.646 39.2461 523.224 39.3285C523.801 39.411 524.357 39.6063 524.859 39.9034C525.361 40.2004 525.799 40.5933 526.149 41.0597L533.278 50.5566L551.588 23.1144C551.911 22.6291 552.327 22.2123 552.812 21.8878C553.297 21.5632 553.841 21.3372 554.413 21.2228C554.985 21.1084 555.575 21.1077 556.147 21.2208C556.719 21.3339 557.264 21.5586 557.75 21.8821C558.235 22.2055 558.652 22.6214 558.977 23.1059C559.302 23.5904 559.528 24.1341 559.642 24.7059C559.756 25.2777 559.757 25.8664 559.643 26.4384C559.53 27.0104 559.305 27.5544 558.981 28.0395L537.188 60.7031C536.794 61.2938 536.264 61.7815 535.642 62.1252C535.02 62.4689 534.325 62.6587 533.615 62.6786C533.574 62.6794 533.532 62.6801 533.491 62.6801Z" fill="white"/>
<defs>
<clipPath id="clip0_384_496">
<rect width="1090" height="524" fill="white" transform="translate(299 571)"/>
</clipPath>
<clipPath id="clip1_384_496">
<rect width="110" height="130" fill="white" transform="translate(107 132)"/>
</clipPath>
</defs>
</svg>
