<svg width="893" height="620" viewBox="0 0 893 620" fill="none" xmlns="http://www.w3.org/2000/svg">
<g clip-path="url(#clip0_136_1152)">
<path d="M837 618.5H619.652C611.744 618.491 604.163 615.346 598.572 609.755C592.98 604.163 589.835 596.582 589.826 588.675V245.832C589.835 237.924 592.98 230.343 598.572 224.751C604.163 219.16 611.744 216.015 619.652 216.006H837C844.908 216.015 852.489 219.16 858.081 224.751C863.672 230.343 866.817 237.924 866.826 245.832V588.675C866.817 596.582 863.672 604.163 858.081 609.755C852.489 615.346 844.908 618.491 837 618.5Z" fill="#6C63FF"/>
<path d="M840.605 233.803H619.242C616.767 233.806 614.394 234.791 612.643 236.541C610.893 238.291 609.908 240.665 609.905 243.14V590.453C609.909 592.928 610.894 595.301 612.644 597.051C614.394 598.801 616.767 599.786 619.242 599.79H840.605C843.08 599.787 845.453 598.802 847.203 597.052C848.954 595.302 849.938 592.928 849.941 590.453V243.14C849.938 240.665 848.954 238.291 847.203 236.541C845.453 234.791 843.08 233.806 840.605 233.803Z" fill="white"/>
<path d="M624.965 216.006C624.965 215.401 625.206 214.821 625.634 214.393C626.061 213.965 626.641 213.725 627.246 213.724H642.762C643.367 213.724 643.947 213.964 644.375 214.392C644.803 214.82 645.044 215.401 645.044 216.006C645.044 216.611 644.803 217.191 644.375 217.619C643.947 218.047 643.367 218.287 642.762 218.287H627.246C626.641 218.287 626.061 218.046 625.634 217.618C625.206 217.191 624.965 216.611 624.965 216.006Z" fill="#E6E6E6"/>
<path d="M650.52 216.006C650.52 215.401 650.761 214.821 651.189 214.393C651.617 213.965 652.197 213.725 652.801 213.724H668.317C668.922 213.724 669.503 213.964 669.931 214.392C670.358 214.82 670.599 215.401 670.599 216.006C670.599 216.611 670.358 217.191 669.931 217.619C669.503 218.047 668.922 218.287 668.317 218.287H652.801C652.197 218.287 651.617 218.046 651.189 217.618C650.761 217.191 650.52 216.611 650.52 216.006Z" fill="#E6E6E6"/>
<path d="M803.851 216.006C803.852 215.401 804.092 214.821 804.52 214.393C804.948 213.965 805.528 213.725 806.133 213.724H821.648C822.254 213.724 822.834 213.964 823.262 214.392C823.69 214.82 823.93 215.401 823.93 216.006C823.93 216.611 823.69 217.191 823.262 217.619C822.834 218.047 822.254 218.287 821.648 218.287H806.133C805.528 218.287 804.948 218.046 804.52 217.618C804.092 217.191 803.852 216.611 803.851 216.006Z" fill="#E6E6E6"/>
<path d="M760.599 592.634C760.599 595.035 760.553 597.426 760.444 599.79H619.242C616.767 599.786 614.394 598.801 612.644 597.051C610.894 595.301 609.909 592.928 609.905 590.453V415.637C651.954 422.431 690.211 443.973 717.823 476.405C745.436 508.837 760.599 550.04 760.599 592.634Z" fill="#F2F2F2"/>
<path d="M755.804 323.056H703.143C700.747 323.056 698.804 324.999 698.804 327.395V332.809C698.804 335.206 700.747 337.148 703.143 337.148H755.804C758.2 337.148 760.143 335.206 760.143 332.809V327.395C760.143 324.999 758.2 323.056 755.804 323.056Z" fill="#6C63FF"/>
<path d="M789.273 351.241H669.673C667.277 351.241 665.334 353.183 665.334 355.58V360.994C665.334 363.39 667.277 365.333 669.673 365.333H789.273C791.669 365.333 793.612 363.39 793.612 360.994V355.58C793.612 353.183 791.669 351.241 789.273 351.241Z" fill="#E6E6E6"/>
<path d="M789.273 379.426H669.673C667.277 379.426 665.334 381.368 665.334 383.765V389.179C665.334 391.575 667.277 393.518 669.673 393.518H789.273C791.669 393.518 793.612 391.575 793.612 389.179V383.765C793.612 381.368 791.669 379.426 789.273 379.426Z" fill="#E6E6E6"/>
<path d="M829.54 264.466H630.307C629.876 264.457 629.466 264.279 629.164 263.971C628.863 263.662 628.694 263.248 628.694 262.817C628.694 262.386 628.863 261.972 629.164 261.664C629.466 261.356 629.876 261.178 630.307 261.168H829.54C829.971 261.178 830.381 261.356 830.682 261.664C830.984 261.972 831.153 262.386 831.153 262.817C831.153 263.248 830.984 263.662 830.682 263.971C830.381 264.279 829.971 264.457 829.54 264.466Z" fill="#CACACA"/>
<path d="M640.937 256.4C643.613 256.4 645.783 254.182 645.783 251.446C645.783 248.71 643.613 246.492 640.937 246.492C638.26 246.492 636.091 248.71 636.091 251.446C636.091 254.182 638.26 256.4 640.937 256.4Z" fill="#3F3D56"/>
<path d="M657.678 256.4C660.355 256.4 662.524 254.182 662.524 251.446C662.524 248.71 660.355 246.492 657.678 246.492C655.002 246.492 652.832 248.71 652.832 251.446C652.832 254.182 655.002 256.4 657.678 256.4Z" fill="#3F3D56"/>
<path d="M674.42 256.4C677.096 256.4 679.266 254.182 679.266 251.446C679.266 248.71 677.096 246.492 674.42 246.492C671.743 246.492 669.573 248.71 669.573 251.446C669.573 254.182 671.743 256.4 674.42 256.4Z" fill="#3F3D56"/>
<path d="M821.752 248.406H810.907C810.692 248.41 810.487 248.499 810.337 248.652C810.186 248.806 810.102 249.012 810.102 249.227C810.102 249.442 810.186 249.649 810.337 249.802C810.487 249.956 810.692 250.044 810.907 250.048H821.752C821.967 250.044 822.172 249.956 822.323 249.802C822.473 249.649 822.557 249.442 822.557 249.227C822.557 249.012 822.473 248.806 822.323 248.652C822.172 248.499 821.967 248.41 821.752 248.406Z" fill="#3F3D56"/>
<path d="M821.752 251.489H810.907C810.692 251.493 810.487 251.581 810.337 251.735C810.186 251.888 810.102 252.095 810.102 252.31C810.102 252.525 810.186 252.731 810.337 252.885C810.487 253.038 810.692 253.127 810.907 253.131H821.752C821.967 253.127 822.172 253.038 822.323 252.885C822.473 252.731 822.557 252.525 822.557 252.31C822.557 252.095 822.473 251.888 822.323 251.735C822.172 251.581 821.967 251.493 821.752 251.489Z" fill="#3F3D56"/>
<path d="M821.752 254.567H810.907C810.692 254.571 810.487 254.66 810.337 254.813C810.186 254.967 810.102 255.173 810.102 255.388C810.102 255.603 810.186 255.81 810.337 255.963C810.487 256.117 810.692 256.205 810.907 256.209H821.752C821.967 256.205 822.172 256.117 822.323 255.963C822.473 255.81 822.557 255.603 822.557 255.388C822.557 255.173 822.473 254.967 822.323 254.813C822.172 254.66 821.967 254.571 821.752 254.567Z" fill="#3F3D56"/>
<path d="M498.498 415.768H382.988C381.354 415.77 379.788 416.422 378.634 417.579C377.48 418.736 376.833 420.303 376.835 421.937V604.409H504.668V421.937C504.669 421.127 504.509 420.325 504.199 419.576C503.889 418.827 503.435 418.147 502.862 417.574C502.289 417.001 501.609 416.546 500.86 416.237C500.111 415.927 499.309 415.767 498.498 415.768ZM441.132 519.446C437.52 519.429 434.06 517.987 431.506 515.432C428.952 512.878 427.509 509.419 427.492 505.806V484.76C427.495 481.144 428.934 477.678 431.491 475.123C434.049 472.567 437.517 471.132 441.132 471.132C444.747 471.132 448.215 472.567 450.773 475.123C453.33 477.678 454.769 481.144 454.772 484.76V505.806C454.755 509.419 453.313 512.878 450.758 515.433C448.204 517.987 444.744 519.429 441.132 519.446Z" fill="#E6E6E6"/>
<path d="M376.438 598.573V616.178C376.44 617.09 376.803 617.964 377.448 618.609C378.093 619.254 378.968 619.617 379.88 619.619H501.623C502.534 619.615 503.407 619.251 504.051 618.606C504.696 617.962 505.06 617.089 505.064 616.178V598.573L376.438 598.573Z" fill="#CCCCCC"/>
<path d="M684.072 147H198.558C196.287 147.005 194.11 147.911 192.506 149.518C190.901 151.126 190 153.305 190 155.576V480.509C190.004 482.778 190.907 484.952 192.511 486.557C194.115 488.161 196.29 489.064 198.558 489.068H684.072C686.34 489.064 688.515 488.161 690.119 486.557C691.723 484.952 692.626 482.778 692.63 480.509V155.576C692.63 153.305 691.729 151.126 690.124 149.518C688.52 147.911 686.343 147.005 684.072 147Z" fill="white"/>
<path d="M694.209 151.135V476.068C694.206 478.336 693.303 480.511 691.698 482.115C690.094 483.719 687.92 484.622 685.651 484.626H514.448C495.509 467.062 479.971 446.156 468.614 422.956C467.867 421.462 467.155 419.949 466.479 418.419C456.131 395.964 449.865 371.846 447.974 347.194C447.85 345.682 447.743 344.169 447.672 342.639C447.44 338.725 447.334 334.757 447.334 330.771C447.3 304.264 452.305 277.992 462.084 253.355C462.671 251.825 463.294 250.312 463.934 248.8C483.614 202.561 519.175 164.881 564.197 142.559H685.651C687.922 142.564 690.099 143.469 691.704 145.077C693.308 146.685 694.209 148.863 694.209 151.135Z" fill="#6C63FF"/>
<path d="M661.245 187.327H206.952C206.48 187.317 206.03 187.122 205.699 186.785C205.369 186.447 205.184 185.993 205.184 185.521C205.184 185.048 205.369 184.594 205.699 184.257C206.03 183.919 206.48 183.724 206.952 183.714H661.245C661.718 183.724 662.167 183.919 662.498 184.257C662.828 184.594 663.014 185.048 663.014 185.521C663.014 185.993 662.828 186.447 662.498 186.785C662.167 187.122 661.718 187.317 661.245 187.327Z" fill="#CACACA"/>
<path d="M237.877 174.49C243.724 174.49 248.464 169.644 248.464 163.666C248.464 157.689 243.724 152.843 237.877 152.843C232.029 152.843 227.289 157.689 227.289 163.666C227.289 169.644 232.029 174.49 237.877 174.49Z" fill="#3F3D56"/>
<path d="M274.452 174.49C280.299 174.49 285.039 169.644 285.039 163.666C285.039 157.689 280.299 152.843 274.452 152.843C268.604 152.843 263.864 157.689 263.864 163.666C263.864 169.644 268.604 174.49 274.452 174.49Z" fill="#3F3D56"/>
<path d="M311.026 174.49C316.874 174.49 321.614 169.644 321.614 163.666C321.614 157.689 316.874 152.843 311.026 152.843C305.179 152.843 300.439 157.689 300.439 163.666C300.439 169.644 305.179 174.49 311.026 174.49Z" fill="#3F3D56"/>
<path d="M639.224 155.526H613.243C612.728 155.536 612.237 155.748 611.877 156.115C611.516 156.483 611.314 156.978 611.314 157.493C611.314 158.008 611.516 158.503 611.877 158.87C612.237 159.238 612.728 159.45 613.243 159.46H639.224C639.739 159.45 640.229 159.238 640.59 158.87C640.951 158.503 641.153 158.008 641.153 157.493C641.153 156.978 640.951 156.483 640.59 156.115C640.229 155.748 639.739 155.536 639.224 155.526Z" fill="#3F3D56"/>
<path d="M639.224 162.91H613.243C612.728 162.92 612.237 163.132 611.877 163.5C611.516 163.868 611.314 164.362 611.314 164.877C611.314 165.392 611.516 165.887 611.877 166.255C612.237 166.623 612.728 166.834 613.243 166.844H639.224C639.739 166.834 640.229 166.623 640.59 166.255C640.951 165.887 641.153 165.392 641.153 164.877C641.153 164.362 640.951 163.868 640.59 163.5C640.229 163.132 639.739 162.92 639.224 162.91Z" fill="#3F3D56"/>
<path d="M639.224 170.285H613.243C612.728 170.295 612.237 170.507 611.877 170.874C611.516 171.242 611.314 171.737 611.314 172.252C611.314 172.767 611.516 173.262 611.877 173.629C612.237 173.997 612.728 174.209 613.243 174.219H639.224C639.739 174.209 640.229 173.997 640.59 173.629C640.951 173.262 641.153 172.767 641.153 172.252C641.153 171.737 640.951 171.242 640.59 170.874C640.229 170.507 639.739 170.295 639.224 170.285Z" fill="#3F3D56"/>
<path d="M346.051 292.871H282.522C280.126 292.871 278.183 294.813 278.183 297.21V303.972C278.183 306.369 280.126 308.311 282.522 308.311H346.051C348.447 308.311 350.39 306.369 350.39 303.972V297.21C350.39 294.813 348.447 292.871 346.051 292.871Z" fill="#6C63FF"/>
<path d="M382.723 323.752H245.851C243.455 323.752 241.512 325.694 241.512 328.091V334.853C241.512 337.25 243.455 339.192 245.851 339.192H382.723C385.119 339.192 387.062 337.25 387.062 334.853V328.091C387.062 325.694 385.119 323.752 382.723 323.752Z" fill="#E6E6E6"/>
<path d="M382.723 354.633H245.851C243.455 354.633 241.512 356.575 241.512 358.972V365.734C241.512 368.131 243.455 370.073 245.851 370.073H382.723C385.119 370.073 387.062 368.131 387.062 365.734V358.972C387.062 356.575 385.119 354.633 382.723 354.633Z" fill="#E6E6E6"/>
<path d="M253.392 465.997C253.402 472.357 252.269 478.667 250.047 484.626H200.138C197.869 484.622 195.694 483.719 194.09 482.115C192.486 480.511 191.583 478.337 191.579 476.068V413.295C194.368 412.844 197.188 412.618 200.013 412.619C207.023 412.618 213.964 413.999 220.441 416.681C226.917 419.363 232.802 423.295 237.758 428.252C242.715 433.209 246.647 439.093 249.329 445.57C252.012 452.046 253.392 458.987 253.392 465.997Z" fill="#6C63FF"/>
<path opacity="0.2" d="M694.654 253.355V248.8H618.305V196.008H613.768V248.8H526.263V196.008H521.726V248.8H463.935C463.294 250.312 462.671 251.825 462.084 253.355H521.726V342.639H447.672C447.743 344.169 447.85 345.682 447.974 347.194H521.726V418.419H466.479C467.155 419.949 467.867 421.462 468.614 422.956H521.726V482.829H526.263V422.956H613.768V482.829H618.305V422.956H694.654V418.419H618.305C618.305 409.066 620.148 399.804 623.727 391.162C627.306 382.521 632.553 374.669 639.167 368.055C645.78 361.442 653.632 356.195 662.274 352.616C670.915 349.036 680.177 347.194 689.53 347.194H694.654V342.639H618.305V253.355H694.654ZM613.768 418.419H526.263V347.194H613.768V418.419ZM613.768 342.639H526.263V340.86C526.263 317.652 535.482 295.395 551.893 278.984C568.303 262.574 590.56 253.355 613.768 253.355L613.768 342.639Z" fill="black"/>
<path d="M296.977 362.612V311.868C296.977 304.079 293.882 296.609 288.375 291.102C282.867 285.594 275.397 282.5 267.608 282.5H160.101C152.312 282.5 144.842 285.594 139.334 291.102C133.826 296.609 130.732 304.079 130.732 311.868V590.251C130.732 598.04 133.826 605.51 139.334 611.017C144.842 616.525 152.312 619.619 160.101 619.619H267.608C271.465 619.619 275.284 618.86 278.847 617.384C282.41 615.908 285.648 613.745 288.375 611.017C291.102 608.29 293.265 605.053 294.741 601.489C296.217 597.926 296.977 594.107 296.977 590.251V398.732C297.468 398.732 297.939 398.537 298.286 398.189C298.634 397.842 298.829 397.371 298.829 396.88V364.464C298.829 363.973 298.634 363.502 298.286 363.154C297.939 362.807 297.468 362.612 296.977 362.612Z" fill="#6C63FF"/>
<path d="M290.726 312.07V590.05C290.727 595.824 288.449 601.365 284.388 605.469C280.327 609.574 274.81 611.91 269.036 611.97C268.956 611.978 268.876 611.982 268.796 611.98H160.766C154.95 611.979 149.372 609.669 145.26 605.556C141.147 601.444 138.837 595.866 138.836 590.05V312.07C138.837 306.254 141.147 300.676 145.26 296.564C149.372 292.451 154.95 290.141 160.766 290.14H173.876C173.232 291.723 172.986 293.44 173.161 295.139C173.336 296.839 173.926 298.47 174.879 299.889C175.832 301.307 177.119 302.469 178.627 303.273C180.135 304.078 181.817 304.499 183.526 304.5H245.116C246.824 304.495 248.504 304.072 250.009 303.266C251.515 302.461 252.8 301.299 253.751 299.881C254.703 298.464 255.292 296.834 255.467 295.136C255.643 293.437 255.398 291.722 254.756 290.14H268.796C274.612 290.141 280.19 292.451 284.302 296.564C288.415 300.676 290.726 306.254 290.726 312.07Z" fill="white"/>
<path d="M269.306 603.4C269.306 606.28 269.216 609.137 269.036 611.97C268.956 611.978 268.876 611.982 268.796 611.98H160.766C154.95 611.979 149.372 609.669 145.26 605.556C141.147 601.444 138.837 595.866 138.836 590.05V466.17C174.034 467.945 207.204 483.178 231.488 508.719C255.771 534.261 269.31 568.157 269.306 603.4Z" fill="#F2F2F2"/>
<path d="M131.326 391C130.663 390.999 130.028 390.735 129.559 390.267C129.091 389.798 128.827 389.162 128.826 388.5V371.5C128.826 370.837 129.09 370.201 129.558 369.732C130.027 369.263 130.663 369 131.326 369C131.989 369 132.625 369.263 133.094 369.732C133.563 370.201 133.826 370.837 133.826 371.5V388.5C133.825 389.162 133.562 389.798 133.093 390.267C132.624 390.735 131.989 390.999 131.326 391Z" fill="#E6E6E6"/>
<path d="M228.046 377.426H201.517C199.121 377.426 197.178 379.368 197.178 381.765V388.527C197.178 390.924 199.121 392.866 201.517 392.866H228.046C230.442 392.866 232.385 390.924 232.385 388.527V381.765C232.385 379.368 230.442 377.426 228.046 377.426Z" fill="#6C63FF"/>
<path d="M264.717 408.307H164.846C162.449 408.307 160.507 410.25 160.507 412.646V419.408C160.507 421.805 162.449 423.747 164.846 423.747H264.717C267.114 423.747 269.056 421.805 269.056 419.408V412.646C269.056 410.25 267.114 408.307 264.717 408.307Z" fill="#E6E6E6"/>
<path d="M264.717 439.188H164.846C162.449 439.188 160.507 441.131 160.507 443.527V450.29C160.507 452.686 162.449 454.629 164.846 454.629H264.717C267.114 454.629 269.056 452.686 269.056 450.29V443.527C269.056 441.131 267.114 439.188 264.717 439.188Z" fill="#E6E6E6"/>
<path d="M130.826 358C130.163 357.999 129.528 357.735 129.059 357.267C128.591 356.798 128.327 356.162 128.326 355.5V338.5C128.326 337.837 128.59 337.201 129.058 336.732C129.527 336.263 130.163 336 130.826 336C131.489 336 132.125 336.263 132.594 336.732C133.063 337.201 133.326 337.837 133.326 338.5V355.5C133.325 356.162 133.062 356.798 132.593 357.267C132.124 357.735 131.489 357.999 130.826 358Z" fill="#E6E6E6"/>
<path d="M197.326 293C197.327 292.337 197.591 291.701 198.059 291.233C198.528 290.764 199.163 290.5 199.826 290.5H216.826C217.489 290.5 218.125 290.763 218.594 291.232C219.063 291.701 219.326 292.337 219.326 293C219.326 293.663 219.063 294.299 218.594 294.767C218.125 295.236 217.489 295.5 216.826 295.5H199.826C199.163 295.499 198.528 295.235 198.059 294.767C197.591 294.298 197.327 293.662 197.326 293Z" fill="white"/>
<path d="M131.326 420C130.663 419.999 130.028 419.735 129.559 419.267C129.091 418.798 128.827 418.162 128.826 417.5V400.5C128.826 399.837 129.09 399.201 129.558 398.732C130.027 398.263 130.663 398 131.326 398C131.989 398 132.625 398.263 133.094 398.732C133.563 399.201 133.826 399.837 133.826 400.5V417.5C133.825 418.162 133.562 418.798 133.093 419.267C132.624 419.735 131.989 419.999 131.326 420Z" fill="#E6E6E6"/>
<path d="M226.326 295.5C227.707 295.5 228.826 294.38 228.826 293C228.826 291.619 227.707 290.5 226.326 290.5C224.945 290.5 223.826 291.619 223.826 293C223.826 294.38 224.945 295.5 226.326 295.5Z" fill="white"/>
<path d="M891.941 619.613L34.1907 619.92C33.8755 619.919 33.5735 619.793 33.351 619.57C33.1284 619.347 33.0034 619.045 33.0034 618.729C33.0034 618.414 33.1284 618.112 33.351 617.889C33.5735 617.665 33.8755 617.54 34.1907 617.539L891.941 617.231C892.256 617.231 892.559 617.357 892.783 617.58C893.006 617.803 893.131 618.106 893.131 618.422C893.131 618.738 893.006 619.041 892.783 619.264C892.559 619.487 892.256 619.613 891.941 619.613Z" fill="#CACACA"/>
<path d="M649.789 449.173C647.175 449.173 644.62 448.397 642.446 446.945C640.272 445.492 638.578 443.428 637.577 441.013C636.577 438.598 636.315 435.94 636.825 433.376C637.335 430.812 638.594 428.457 640.443 426.608C642.291 424.759 644.647 423.5 647.211 422.99C649.775 422.48 652.432 422.742 654.848 423.743C657.263 424.743 659.327 426.437 660.78 428.611C662.232 430.785 663.007 433.34 663.007 435.954C663.007 439.46 661.615 442.822 659.136 445.301C656.657 447.78 653.295 449.173 649.789 449.173Z" fill="#E6E6E6"/>
<path d="M654.399 438.72L651.633 435.954L654.399 433.189C654.644 432.944 654.781 432.612 654.781 432.267C654.781 431.921 654.644 431.589 654.399 431.345C654.155 431.1 653.823 430.963 653.477 430.963C653.131 430.963 652.8 431.1 652.555 431.345L649.789 434.111L647.023 431.345C646.779 431.1 646.447 430.963 646.101 430.963C645.756 430.963 645.424 431.1 645.179 431.345C644.935 431.589 644.797 431.921 644.797 432.267C644.797 432.612 644.935 432.944 645.179 433.189L647.945 435.954L645.179 438.72C644.935 438.965 644.797 439.297 644.797 439.642C644.797 439.988 644.935 440.32 645.179 440.564C645.424 440.809 645.756 440.946 646.101 440.946C646.447 440.946 646.779 440.809 647.023 440.564L649.789 437.799L652.555 440.564C652.8 440.809 653.131 440.946 653.477 440.946C653.823 440.946 654.155 440.809 654.399 440.564C654.644 440.32 654.781 439.988 654.781 439.642C654.781 439.297 654.644 438.965 654.399 438.72Z" fill="white"/>
<path d="M592.2 293.08C606.727 293.08 618.504 281.303 618.504 266.776C618.504 252.248 606.727 240.471 592.2 240.471C577.672 240.471 565.895 252.248 565.895 266.776C565.895 281.303 577.672 293.08 592.2 293.08Z" fill="#E6E6E6"/>
<path d="M588.611 280.466C588.157 280.466 587.709 280.36 587.302 280.157C586.896 279.954 586.543 279.659 586.27 279.295L579.094 269.727C578.863 269.419 578.696 269.069 578.6 268.697C578.505 268.325 578.484 267.938 578.538 267.557C578.593 267.177 578.721 266.811 578.917 266.48C579.113 266.15 579.372 265.861 579.679 265.63C579.987 265.4 580.336 265.232 580.709 265.137C581.081 265.041 581.468 265.02 581.849 265.075C582.229 265.129 582.595 265.258 582.926 265.453C583.256 265.649 583.545 265.908 583.776 266.216L588.471 272.475L600.529 254.388C600.742 254.068 601.016 253.793 601.335 253.579C601.655 253.365 602.013 253.216 602.39 253.141C602.767 253.065 603.155 253.065 603.532 253.14C603.909 253.214 604.267 253.362 604.587 253.575C604.907 253.789 605.182 254.063 605.395 254.382C605.609 254.701 605.758 255.06 605.833 255.437C605.909 255.814 605.909 256.202 605.834 256.579C605.76 256.956 605.611 257.314 605.398 257.634L591.046 279.163C590.786 279.552 590.437 279.873 590.027 280.1C589.618 280.327 589.16 280.452 588.692 280.465C588.665 280.465 588.638 280.466 588.611 280.466Z" fill="#6C63FF"/>
<path d="M626.339 314.231H559.221C556.422 314.231 554.152 316.501 554.152 319.301V325.682C554.152 328.482 556.422 330.752 559.221 330.752H626.339C629.139 330.752 631.409 328.482 631.409 325.682V319.301C631.409 316.501 629.139 314.231 626.339 314.231Z" fill="#E6E6E6"/>
<path d="M665.575 347.272H519.985C517.185 347.272 514.916 349.542 514.916 352.342V358.723C514.916 361.523 517.185 363.793 519.985 363.793H665.575C668.375 363.793 670.644 361.523 670.644 358.723V352.342C670.644 349.542 668.375 347.272 665.575 347.272Z" fill="#E6E6E6"/>
<path d="M665.575 380.313H519.985C517.185 380.313 514.916 382.583 514.916 385.383V391.764C514.916 394.564 517.185 396.833 519.985 396.833H665.575C668.375 396.833 670.644 394.564 670.644 391.764V385.383C670.644 382.583 668.375 380.313 665.575 380.313Z" fill="#E6E6E6"/>
<path d="M728.284 476.609C742.812 476.609 754.589 464.832 754.589 450.304C754.589 435.777 742.812 424 728.284 424C713.756 424 701.979 435.777 701.979 450.304C701.979 464.832 713.756 476.609 728.284 476.609Z" fill="#6C63FF"/>
<path d="M215 514C226.598 514 236 504.598 236 493C236 481.402 226.598 472 215 472C203.402 472 194 481.402 194 493C194 504.598 203.402 514 215 514Z" fill="#6C63FF"/>
<path d="M725.196 464.434C724.742 464.434 724.294 464.328 723.888 464.125C723.481 463.922 723.128 463.627 722.856 463.264L715.679 453.695C715.449 453.388 715.281 453.038 715.186 452.666C715.09 452.293 715.069 451.906 715.124 451.526C715.178 451.145 715.307 450.779 715.503 450.449C715.698 450.118 715.957 449.829 716.265 449.599C716.572 449.368 716.922 449.201 717.294 449.105C717.666 449.01 718.054 448.989 718.434 449.043C718.814 449.097 719.18 449.226 719.511 449.422C719.842 449.618 720.13 449.877 720.361 450.184L725.056 456.444L737.114 438.356C737.327 438.036 737.601 437.762 737.921 437.548C738.24 437.334 738.598 437.185 738.975 437.109C739.352 437.034 739.74 437.034 740.117 437.108C740.494 437.183 740.853 437.331 741.173 437.544C741.492 437.757 741.767 438.031 741.981 438.351C742.195 438.67 742.344 439.028 742.419 439.405C742.494 439.782 742.494 440.17 742.42 440.547C742.345 440.924 742.197 441.283 741.984 441.602L727.631 463.131C727.371 463.521 727.022 463.842 726.613 464.069C726.203 464.295 725.746 464.42 725.278 464.433C725.251 464.434 725.223 464.434 725.196 464.434Z" fill="white"/>
<path d="M212.117 504C211.752 504 211.392 503.915 211.065 503.752C210.739 503.589 210.455 503.351 210.236 503.059L204.47 495.372C204.285 495.125 204.15 494.844 204.074 494.544C203.997 494.245 203.98 493.934 204.024 493.629C204.067 493.323 204.171 493.029 204.328 492.763C204.485 492.498 204.693 492.266 204.94 492.08C205.187 491.895 205.468 491.76 205.767 491.684C206.067 491.607 206.378 491.59 206.683 491.634C206.989 491.678 207.283 491.781 207.549 491.938C207.814 492.096 208.046 492.304 208.232 492.551L212.004 497.58L221.692 483.047C221.864 482.79 222.084 482.57 222.34 482.398C222.597 482.226 222.885 482.106 223.188 482.046C223.49 481.985 223.802 481.985 224.105 482.045C224.408 482.105 224.696 482.224 224.953 482.395C225.21 482.566 225.431 482.786 225.603 483.043C225.774 483.3 225.894 483.587 225.954 483.89C226.015 484.193 226.015 484.505 225.955 484.808C225.895 485.111 225.776 485.399 225.605 485.656L214.073 502.953C213.864 503.266 213.584 503.524 213.255 503.706C212.926 503.888 212.558 503.989 212.182 503.999C212.16 504 212.138 504 212.117 504Z" fill="white"/>
<path d="M762.423 497.76H695.306C692.506 497.76 690.236 500.03 690.236 502.83V509.211C690.236 512.011 692.506 514.281 695.306 514.281H762.423C765.223 514.281 767.493 512.011 767.493 509.211V502.83C767.493 500.03 765.223 497.76 762.423 497.76Z" fill="#D9D9D9"/>
<path d="M239.997 530H187.003C184.792 530 183 531.786 183 533.989V539.011C183 541.214 184.792 543 187.003 543H239.997C242.208 543 244 541.214 244 539.011V533.989C244 531.786 242.208 530 239.997 530Z" fill="#DCDCDC"/>
<path d="M801.659 530.801H656.07C653.27 530.801 651 533.071 651 535.871V542.252C651 545.052 653.27 547.322 656.07 547.322H801.659C804.459 547.322 806.729 545.052 806.729 542.252V535.871C806.729 533.071 804.459 530.801 801.659 530.801Z" fill="#D9D9D9"/>
<path d="M270.996 556H156.004C153.793 556 152 557.786 152 559.989V565.011C152 567.214 153.793 569 156.004 569H270.996C273.207 569 275 567.214 275 565.011V559.989C275 557.786 273.207 556 270.996 556Z" fill="#DCDCDC"/>
<path d="M801.659 563.842H656.07C653.27 563.842 651 566.112 651 568.911V575.293C651 578.093 653.27 580.362 656.07 580.362H801.659C804.459 580.362 806.729 578.093 806.729 575.293V568.911C806.729 566.112 804.459 563.842 801.659 563.842Z" fill="#D9D9D9"/>
<path d="M270.996 582H156.004C153.793 582 152 583.786 152 585.989V591.011C152 593.214 153.793 595 156.004 595H270.996C273.207 595 275 593.214 275 591.011V585.989C275 583.786 273.207 582 270.996 582Z" fill="#DCDCDC"/>
<path d="M272.752 296.406H261.907C261.692 296.41 261.487 296.499 261.337 296.652C261.186 296.806 261.102 297.012 261.102 297.227C261.102 297.442 261.186 297.649 261.337 297.802C261.487 297.956 261.692 298.044 261.907 298.048H272.752C272.967 298.044 273.172 297.956 273.323 297.802C273.473 297.649 273.557 297.442 273.557 297.227C273.557 297.012 273.473 296.806 273.323 296.652C273.172 296.499 272.967 296.41 272.752 296.406Z" fill="#3F3D56"/>
<path d="M272.752 299.489H261.907C261.692 299.493 261.487 299.581 261.337 299.735C261.186 299.888 261.102 300.095 261.102 300.31C261.102 300.525 261.186 300.731 261.337 300.885C261.487 301.038 261.692 301.127 261.907 301.131H272.752C272.967 301.127 273.172 301.038 273.323 300.885C273.473 300.731 273.557 300.525 273.557 300.31C273.557 300.095 273.473 299.888 273.323 299.735C273.172 299.581 272.967 299.493 272.752 299.489Z" fill="#3F3D56"/>
<path d="M272.752 302.567H261.907C261.692 302.571 261.487 302.66 261.337 302.813C261.186 302.967 261.102 303.173 261.102 303.388C261.102 303.603 261.186 303.81 261.337 303.963C261.487 304.117 261.692 304.205 261.907 304.209H272.752C272.967 304.205 273.172 304.117 273.323 303.963C273.473 303.81 273.557 303.603 273.557 303.388C273.557 303.173 273.473 302.967 273.323 302.813C273.172 302.66 272.967 302.571 272.752 302.567Z" fill="#3F3D56"/>
<path d="M280.932 311H149.068C148.782 310.991 148.511 310.83 148.311 310.549C148.112 310.269 148 309.892 148 309.5C148 309.108 148.112 308.731 148.311 308.451C148.511 308.17 148.782 308.009 149.068 308H280.932C281.218 308.009 281.489 308.17 281.689 308.451C281.888 308.731 282 309.108 282 309.5C282 309.892 281.888 310.269 281.689 310.549C281.489 310.83 281.218 310.991 280.932 311Z" fill="#CACACA"/>
<g clip-path="url(#clip1_136_1152)">
<path d="M261.552 119.641L146.75 133.481C143.098 133.925 139.772 135.801 137.502 138.697C135.232 141.592 134.204 145.27 134.645 148.923C135.085 152.576 136.957 155.904 139.85 158.177C142.743 160.45 146.42 161.482 150.073 161.046L250.538 148.928L252.643 148.675C254.837 138.438 259.383 128.852 265.92 120.674C265.345 120.285 264.709 119.996 264.038 119.819C263.229 119.596 262.384 119.536 261.552 119.641Z" fill="#6C63FF"/>
<path d="M146.972 167.709C145.524 167.454 144.193 166.75 143.167 165.698C142.141 164.645 141.472 163.296 141.254 161.843L138.006 140.07C137.871 139.161 137.916 138.234 138.138 137.342C138.361 136.45 138.757 135.61 139.304 134.872C139.851 134.133 140.539 133.509 141.327 133.036C142.115 132.563 142.989 132.25 143.898 132.114L237.811 118.107C238.72 117.971 239.647 118.016 240.539 118.239C241.431 118.461 242.27 118.857 243.009 119.404C243.748 119.951 244.372 120.638 244.845 121.426C245.318 122.215 245.632 123.088 245.767 123.997L249.014 145.77C249.288 147.562 248.853 149.39 247.802 150.867C246.751 152.344 245.167 153.354 243.384 153.683C243.297 153.699 243.209 153.714 243.121 153.727L149.21 167.733C148.467 167.845 147.712 167.837 146.972 167.709Z" fill="#2F2E41"/>
<path d="M331.086 94.0516C313.162 90.9458 294.733 94.9364 279.699 105.179C264.666 115.421 254.207 131.111 250.538 148.928C250.397 149.624 250.264 150.332 250.141 151.041C247.771 164.682 249.501 178.718 255.109 191.376C260.718 204.034 269.954 214.745 281.649 222.153C293.345 229.562 306.975 233.336 320.815 232.998C334.656 232.661 348.085 228.227 359.406 220.256C370.726 212.286 379.429 201.138 384.414 188.222C389.398 175.306 390.441 161.201 387.41 147.693C384.378 134.184 377.409 121.877 367.384 112.329C357.358 102.781 344.726 96.4206 331.086 94.0516ZM307.472 230.016C289.713 226.913 273.909 216.891 263.53 202.149C253.151 187.407 249.045 169.15 252.111 151.384C252.27 150.467 252.447 149.564 252.642 148.675C255.455 135.643 262.036 123.727 271.568 114.406C281.099 105.085 293.16 98.7717 306.25 96.2506C319.341 93.7294 332.884 95.1119 345.195 100.226C357.506 105.34 368.043 113.96 375.494 125.015C382.945 136.069 386.983 149.07 387.105 162.4C387.227 175.731 383.427 188.803 376.179 199.992C368.931 211.181 358.554 219.992 346.338 225.33C334.122 230.668 320.607 232.298 307.472 230.016Z" fill="#3F3D56"/>
<path d="M377.114 173.085C374.436 188.502 365.744 202.224 352.949 211.232C340.154 220.241 324.305 223.797 308.888 221.12C293.471 218.442 279.749 209.75 270.741 196.955C261.733 184.16 258.176 168.311 260.854 152.894C261.174 151.052 261.577 149.254 262.056 147.49C266.041 132.854 275.51 120.316 288.496 112.477C301.483 104.639 316.989 102.104 331.795 105.398C346.602 108.692 359.571 117.562 368.01 130.166C376.449 142.77 379.709 158.141 377.114 173.085Z" fill="white"/>
<path d="M335.748 169.888C334.661 167.791 333.062 166.001 331.1 164.686C328.669 163.125 326.115 161.765 323.463 160.619L326.211 144.796C330.354 146.176 334.027 148.688 336.817 152.048L341.218 145.758C339.656 143.791 337.763 142.113 335.624 140.798C333.256 139.324 330.701 138.173 328.027 137.377L329.42 129.357L321.982 128.065L320.575 136.164C317.647 135.988 314.714 136.437 311.973 137.482C309.497 138.421 307.286 139.945 305.527 141.924C303.841 143.861 302.73 146.231 302.319 148.766C301.715 151.486 302.04 154.329 303.241 156.843C304.368 159.034 306.034 160.903 308.083 162.272C310.55 163.873 313.147 165.264 315.846 166.431L313.213 181.594C308.259 180.344 303.807 177.605 300.458 173.746L296.055 180.046C297.923 182.228 300.16 184.066 302.663 185.476C305.404 187.03 308.348 188.197 311.409 188.944L310.028 196.895L317.466 198.187L318.873 190.088C323.083 190.354 327.266 189.251 330.797 186.942C332.358 185.891 333.684 184.528 334.69 182.938C335.696 181.348 336.362 179.567 336.644 177.706C337.228 175.073 336.913 172.32 335.748 169.888ZM317.34 157.83C315.624 156.966 314.096 155.769 312.846 154.309C312.357 153.694 312.011 152.979 311.831 152.214C311.652 151.45 311.644 150.655 311.808 149.886C312.059 148.122 313 146.53 314.424 145.459C315.99 144.347 317.864 143.754 319.784 143.761L317.34 157.83ZM324.783 180.721C323.302 181.792 321.517 182.361 319.69 182.344L321.956 169.299C323.575 170.05 325.025 171.12 326.22 172.445C326.667 172.984 326.986 173.617 327.155 174.296C327.323 174.976 327.336 175.684 327.193 176.37C326.968 178.072 326.107 179.627 324.783 180.721Z" fill="#6C63FF"/>
<path d="M135.647 251.699C134.125 251.432 132.733 250.67 131.687 249.531C130.642 248.392 130.001 246.941 129.865 245.401L128.592 230.696C128.434 228.848 129.015 227.013 130.208 225.593C131.402 224.173 133.109 223.285 134.957 223.122L257.521 212.508C259.37 212.354 261.204 212.938 262.623 214.133C264.042 215.328 264.93 217.036 265.093 218.883L266.171 231.341L265.574 231.285C235.113 228.402 204.464 234.304 177.253 248.294L177.068 248.347L137.436 251.776C136.839 251.827 136.238 251.801 135.647 251.699Z" fill="#2F2E41"/>
<path d="M146.866 286.092C145.225 285.801 143.742 284.936 142.681 283.651C141.62 282.367 141.051 280.746 141.076 279.08L141.32 264.323C141.353 262.467 142.12 260.7 143.454 259.409C144.788 258.119 146.579 257.41 148.435 257.439L271.433 259.473C273.288 259.506 275.055 260.273 276.346 261.607C277.636 262.941 278.345 264.732 278.316 266.588L278.072 281.346C278.039 283.201 277.272 284.968 275.938 286.259C274.604 287.549 272.813 288.258 270.957 288.229L147.96 286.195C147.593 286.189 147.227 286.154 146.866 286.092Z" fill="#2F2E41"/>
<path d="M126.552 109.123C154.303 113.942 180.707 95.3528 185.527 67.6017C190.347 39.8506 171.757 13.4468 144.006 8.62715C116.255 3.80749 89.851 22.3971 85.0313 50.1482C80.2116 77.8993 98.8013 104.303 126.552 109.123Z" fill="#6C63FF"/>
<path d="M161.47 76.8172C163.174 76.5344 164.797 75.8902 166.231 74.9278C167.19 74.2306 167.985 73.3323 168.56 72.2955C169.136 71.2588 169.477 70.1089 169.562 68.9262C169.637 68.0859 169.517 67.2396 169.212 66.4533C168.906 65.6671 168.422 64.9621 167.799 64.3936C166.175 62.9595 163.765 62.5844 161.143 63.2877L164.27 43.6248L162.295 43.3107L158.619 66.4265L160.29 65.7033C162.227 64.8665 164.869 64.4747 166.475 65.8929C166.869 66.2629 167.172 66.7188 167.361 67.225C167.55 67.7313 167.62 68.2743 167.565 68.8119C167.497 69.6921 167.241 70.5475 166.813 71.3198C166.385 72.0921 165.796 72.7632 165.086 73.2874C162.582 75.0359 159.297 75.1969 155.576 75.2197L155.588 77.2195C157.557 77.2614 159.526 77.1267 161.47 76.8172Z" fill="#2F2E41"/>
<path d="M184.799 45.7718L174.03 45.5386L173.987 47.5379L184.756 47.7711L184.799 45.7718Z" fill="#2F2E41"/>
<path d="M150.807 45.0345L140.038 44.8013L139.995 46.8005L150.764 47.0338L150.807 45.0345Z" fill="#2F2E41"/>
<path d="M130.671 282.374C128.864 282.056 127.197 281.196 125.892 279.908C124.586 278.619 123.704 276.964 123.362 275.162L104.831 176.365C102.573 164.251 105.213 151.735 112.171 141.565C119.129 131.394 129.837 124.399 141.946 122.113L171.943 116.487C173.103 116.267 174.296 116.278 175.452 116.52C176.608 116.763 177.705 117.231 178.679 117.899C179.652 118.554 180.486 119.397 181.13 120.378C181.775 121.358 182.217 122.458 182.432 123.612L225.564 255.927C225.791 257.092 225.785 258.291 225.547 259.453C225.309 260.616 224.843 261.72 224.177 262.703C223.51 263.685 222.656 264.525 221.664 265.176C220.671 265.827 219.56 266.275 218.393 266.494L133.867 282.349C132.812 282.548 131.729 282.557 130.671 282.374Z" fill="#2F2E41"/>
<path d="M162.842 118.194L211.729 214.404L183.276 122.663C183.091 121.619 182.702 120.62 182.131 119.726C181.56 118.831 180.818 118.058 179.948 117.45C179.079 116.842 178.098 116.412 177.061 116.183C176.025 115.955 174.954 115.933 173.909 116.118L162.842 118.194Z" fill="white"/>
<path d="M252.434 200.371L140.012 173.302C138.24 172.876 136.57 172.104 135.096 171.032C133.622 169.959 132.374 168.607 131.423 167.053C130.471 165.498 129.835 163.771 129.551 161.971C129.268 160.17 129.341 158.332 129.768 156.559C130.194 154.787 130.966 153.117 132.038 151.643C133.11 150.169 134.463 148.921 136.017 147.97C137.572 147.018 139.299 146.382 141.099 146.098C142.9 145.815 144.738 145.888 146.51 146.315L258.932 173.383C259.762 173.583 260.544 173.944 261.235 174.446C261.925 174.949 262.509 175.582 262.955 176.31C263.401 177.038 263.698 177.847 263.831 178.69C263.964 179.533 263.93 180.394 263.73 181.224L260.275 195.574C259.871 197.25 258.819 198.697 257.348 199.596C255.878 200.496 254.11 200.775 252.434 200.371Z" fill="#6C63FF"/>
<path d="M221.238 199.79C221.088 199.764 220.938 199.733 220.789 199.697L128.474 177.47C127.581 177.254 126.738 176.865 125.995 176.325C125.251 175.784 124.622 175.102 124.142 174.318C123.662 173.534 123.341 172.663 123.198 171.755C123.055 170.847 123.092 169.92 123.307 169.026L129.209 144.516C129.424 143.622 129.813 142.78 130.354 142.036C130.895 141.293 131.577 140.663 132.361 140.184C133.145 139.704 134.016 139.383 134.924 139.24C135.832 139.097 136.76 139.134 137.653 139.35L229.967 161.576C231.771 162.013 233.328 163.147 234.297 164.73C235.265 166.313 235.567 168.215 235.134 170.02L229.233 194.531C228.914 195.843 228.224 197.037 227.244 197.967C226.264 198.897 225.036 199.524 223.708 199.773C222.892 199.927 222.056 199.933 221.238 199.79Z" fill="#2F2E41"/>
<path d="M140.506 25.3608C148.104 20.8237 156.298 27.486 164.033 27.9123C171.434 28.3201 178.291 22.8091 180.954 16.1518C184.061 8.38489 181.279 -0.420234 175.983 -6.51891C170.183 -13.1985 161.497 -16.3354 152.829 -16.7914C142.894 -17.3141 133.206 -14.3234 124.267 -10.2233C115.667 -6.42984 107.535 -1.65399 100.033 4.00893C93.2794 9.28283 87.1831 15.9084 84.1876 24.0632C81.4653 31.4742 81.0562 40.1395 84.4544 47.4083C86.2763 51.1478 89.0312 54.3547 92.4532 56.7196C96.0018 59.2983 99.9034 61.3788 103.288 64.1853C108.405 68.4288 112.755 76.1405 109.755 82.8583C109.106 84.327 108.107 85.6139 106.845 86.6055C105.328 87.7963 103.358 85.5326 104.879 84.3387C107.55 82.2417 108.037 78.9112 107.359 75.736C106.521 72.1452 104.488 68.9456 101.594 66.6613C98.0503 63.7288 93.948 61.5861 90.2716 58.837C86.7372 56.2952 83.8693 52.937 81.9119 49.0484C78.2507 41.5036 78.323 32.5247 80.8198 24.6405C83.5217 16.1086 89.39 8.94832 96.1733 3.27206C103.555 -2.90531 112.143 -7.72809 120.785 -11.8997C130.058 -16.3759 140.036 -19.7887 150.432 -19.8444C159.443 -19.8927 168.748 -17.2834 175.563 -11.1935C181.925 -5.5091 186.067 3.08813 185.127 11.7276C184.647 15.6495 183.13 19.3727 180.734 22.514C178.337 25.6552 175.147 28.1012 171.491 29.6001C167.758 31.0366 163.667 31.2646 159.797 30.252C155.645 29.254 151.666 27.2384 147.378 26.8615C145.446 26.6455 143.496 27.0652 141.823 28.0571C140.163 29.0485 138.86 26.344 140.506 25.3608Z" fill="#2F2E41"/>
</g>
</g>
<defs>
<clipPath id="clip0_136_1152">
<rect width="893" height="620" fill="white"/>
</clipPath>
<clipPath id="clip1_136_1152">
<rect width="740.675" height="597.175" fill="white" transform="translate(-1.81567 -47) rotate(9.85253)"/>
</clipPath>
</defs>
</svg>
