<svg width="575" height="2022" viewBox="0 0 575 2022" fill="none" xmlns="http://www.w3.org/2000/svg">
<g clip-path="url(#clip0_117_69)">
<mask id="mask0_117_69" style="mask-type:luminance" maskUnits="userSpaceOnUse" x="173" y="1050" width="223" height="726">
<path d="M174.137 1775.21L395.334 1774.93L394.431 1050.35L173.234 1050.63L174.137 1775.21Z" fill="url(#paint0_linear_117_69)"/>
</mask>
<g mask="url(#mask0_117_69)">
<path fill-rule="evenodd" clip-rule="evenodd" d="M289.571 1595.86C281.674 1610.51 289.195 1634.22 289.236 1667.05C289.241 1671.03 294.632 1688.7 286.693 1669.36C286.721 1692.09 298.505 1706 285.944 1749.36C269.418 1806.53 282.437 1751.11 273.982 1736.64C270.662 1730.95 272.259 1664.05 265.074 1686.46C259.384 1704.18 267.303 1720.45 259.09 1664.9C255.782 1642.58 261.571 1546.66 249.247 1610.11C247.495 1619.07 247.841 1660.78 245.178 1606.34C244.458 1591.81 235.767 1597.08 235.677 1525.52C231.401 1524.69 230.398 1584.31 230.33 1529.99C230.291 1498.63 227.144 1461.62 229.388 1441.44C234.439 1395.91 213.833 1466.01 220.76 1432.78C225.562 1409.65 209.811 1368.16 213.517 1330.23C218.48 1279.44 207.661 1332.86 206.759 1315.59C205.053 1282.52 193.59 1329.82 184.463 1234.63C181.371 1241.44 175.562 1281.8 177.318 1302.61C171.361 1302.62 171.071 1161.46 188.616 1123.12C219.067 1056.58 356.74 1003.72 382.389 1116.98C383.423 1121.56 389.019 1146.51 389.052 1147.3C386.979 1146.95 380.285 1130.84 385.393 1157.14C390.288 1182.4 387.484 1185.43 393.043 1206.71C398.52 1227.72 386.337 1194.58 388.814 1204.93C390.652 1212.69 393.449 1257.37 391.195 1268.72C387.87 1285.52 385.942 1335.98 385.966 1355.64C381.308 1362.97 388.549 1280.66 375.669 1342.64C375.49 1343.52 376.313 1375.43 373.918 1391.39C372.138 1403.26 375.451 1363.93 371.949 1356.61C371.867 1356.45 369.165 1322.47 368.231 1319.85C363.105 1305.49 367.526 1277.66 361.241 1263.5C358.378 1257.06 363.24 1256.34 359.556 1272.66C359.182 1274.37 358.676 1313.13 361.149 1320.61C367.211 1338.99 362.968 1378.39 362.961 1372.7C362.923 1342.5 354.713 1354.53 350.814 1329.42C350.073 1324.68 339.304 1312.56 336.856 1312.56C332.041 1312.57 341.219 1330.35 341.238 1345.99C341.239 1346.54 341.212 1390.16 339.664 1378.82C337.489 1362.83 343.112 1356.37 330.006 1342.1C329.258 1344.69 333.355 1358.57 329.82 1376.96C327.599 1388.43 329.586 1424.56 327.083 1432.44C327.001 1432.68 326.724 1458.63 325.195 1463.13C323.911 1467.03 327.754 1499.78 323.463 1474.55C322.592 1469.42 324.619 1459.59 318.76 1433.05C311.178 1398.6 313.391 1393.9 312.991 1439.7C312.834 1457.25 320.239 1480.01 313.704 1501.11C312.42 1505.25 312.357 1559.37 309.642 1567.85C309.577 1567.77 306.356 1549.95 306.256 1548.4C304.115 1545.73 294.166 1603.41 294.166 1603.17C294.135 1578.54 291.072 1595.61 289.571 1595.86Z" fill="#FCEE5E"/>
</g>
<path fill-rule="evenodd" clip-rule="evenodd" d="M362.509 1141.25C366.037 1195.32 334.907 1215.26 334.993 1283.95C334.961 1258.8 324.005 1201.67 318.906 1274.62C314.817 1332.85 328.548 1350.7 319.786 1404.95C317.827 1404 321.554 1382.66 315.072 1367.55C299.442 1331.12 313.625 1345.66 303.869 1400.24C296.754 1440.08 322.359 1465.64 289.9 1571.58C280.181 1603.31 278.979 1660.86 286.43 1694.44C288.744 1704.86 285.752 1726.47 282.268 1733.24C282.219 1733.04 282.39 1699.69 275.527 1679.69C266.109 1652.2 274.608 1584.13 264.777 1539.3C259.328 1514.43 266.666 1418.55 253.34 1502.7C253.194 1503.57 249.155 1562.24 246.762 1580.19C244.951 1593.68 245.23 1569.33 245.216 1557.63C245.191 1537.73 247.483 1504.06 243.253 1488.22C239.629 1474.66 245.91 1407.47 238.085 1375.13C234.312 1359.49 240.103 1304.57 227.389 1356.12C223.459 1372 226.589 1408.57 223.545 1349.76C220.786 1296.27 233.655 1303.26 220.247 1243.26C219.869 1241.51 220.25 1206.53 220.08 1200.72C210.045 1189.03 197.651 1249.14 205.384 1286.14C209.045 1303.69 181.928 1269.46 194.173 1155.94C204.37 1061.33 262.995 1065.04 275.349 1052.09C307.082 1018.94 343.902 1086.27 364.833 1080.99C377.967 1077.71 370.067 1168.7 379.756 1190.69C397.889 1232.02 375.062 1300.85 375.111 1339.78C375.066 1304.08 361.171 1271.9 378.468 1231.56C380.893 1225.91 366.187 1145.82 362.509 1141.25Z" fill="#FFED00" fill-opacity="0.501961"/>
<mask id="mask1_117_69" style="mask-type:luminance" maskUnits="userSpaceOnUse" x="173" y="1054" width="234" height="959">
<path d="M174.405 2012.71L406.237 2012.42L405.043 1054.04L173.211 1054.33L174.405 2012.71Z" fill="url(#paint1_linear_117_69)"/>
</mask>
<g mask="url(#mask1_117_69)">
<path fill-rule="evenodd" clip-rule="evenodd" d="M362.575 1141.32C366.085 1195.4 335.038 1215.34 335.123 1283.99C335.092 1258.88 324.168 1201.74 319.069 1274.7C315.013 1332.89 328.695 1350.74 319.95 1404.99C318.006 1404.04 321.717 1382.7 315.252 1367.59C299.67 1331.15 313.821 1345.7 304.081 1400.28C296.999 1440.12 322.522 1465.68 290.145 1571.62C280.458 1603.35 279.24 1660.86 286.691 1694.44C288.989 1704.86 286.013 1726.47 282.529 1733.24C282.496 1733.04 282.651 1699.69 275.804 1679.68C266.419 1652.2 274.902 1584.13 265.103 1539.33C259.654 1514.47 266.976 1418.59 253.683 1502.74C253.537 1503.61 249.497 1562.28 247.121 1580.23C245.31 1593.72 245.606 1569.37 245.591 1557.67C245.566 1537.77 247.842 1504.1 243.612 1488.26C240.004 1474.7 246.269 1407.51 238.477 1375.17C234.704 1359.53 240.478 1304.64 227.796 1356.16C223.883 1372.08 226.997 1408.61 223.97 1349.79C221.21 1296.31 234.046 1303.34 220.671 1243.34C220.294 1241.59 220.674 1206.61 220.504 1200.8C210.485 1189.11 198.141 1249.22 205.857 1286.22C209.502 1303.73 182.45 1269.5 194.663 1156.02C213.426 981.608 344.571 1086.23 364.882 1081.11C377.983 1077.79 370.116 1168.78 379.772 1190.77C397.873 1232.1 375.079 1300.93 375.127 1339.86C375.083 1304.16 361.236 1271.98 378.501 1231.6C380.909 1225.95 366.236 1145.9 362.575 1141.32Z" fill="#E31E24"/>
</g>
<mask id="mask2_117_69" style="mask-type:luminance" maskUnits="userSpaceOnUse" x="197" y="1059" width="161" height="508">
<path d="M198.422 1566.84L357.67 1566.64L357.038 1059.15L197.79 1059.35L198.422 1566.84Z" fill="url(#paint2_linear_117_69)"/>
</mask>
<g mask="url(#mask2_117_69)">
<path fill-rule="evenodd" clip-rule="evenodd" d="M349.721 1120.29C349.767 1157.74 360.514 1176.99 355.909 1227.57C354.332 1245.05 358.809 1236.56 352.428 1262.84C351.048 1268.53 352.228 1259.26 352.213 1247.44C352.169 1212.45 343.54 1254.65 343.554 1266.39C343.585 1290.75 347.429 1310.8 347.321 1342.64C347.288 1354.81 359.808 1409.88 354.438 1421.86C354.161 1422.5 355.393 1389.98 346.923 1363.37C345.776 1359.71 336.573 1334.81 335.69 1333.54C334.868 1354.27 343.174 1379.93 338.807 1425.15C338.646 1426.82 338.975 1481.26 337.341 1440.27C336.414 1416.79 331.82 1397.3 327.34 1377.28C321.662 1351.9 316.108 1374.19 307.197 1346.98C304.313 1338.19 306.528 1360.28 308.25 1367.6C317.11 1405.27 308.523 1429.32 312.568 1479.5C313.363 1489.45 308.184 1537.17 308.156 1514.37C308.119 1484.88 301.482 1449.39 291.311 1433.4C280.666 1416.7 283.613 1384.98 275.033 1427.89C271.206 1447.08 280.515 1492.36 266.507 1526.56C260.991 1540.06 265.182 1589.56 261.873 1553.35C258.994 1521.79 264.25 1523.18 255.738 1489.52C251.327 1472.14 260.145 1398.3 241.191 1445.01C240.215 1447.4 227.58 1510.41 226.205 1519.96C224.733 1530.07 226.256 1561.27 225.706 1499.27C225.514 1476.55 236.484 1465.91 229.12 1410.36C226.682 1391.9 228.68 1371.36 223.954 1337.26C219.985 1308.77 231.903 1311.9 222.015 1261.17C218.089 1241.04 228.278 1219.3 206.917 1259.08C203.497 1265.45 193.214 1303.55 201.183 1268C215.774 1202.99 205.47 1185.5 207.791 1174.71C210.436 1162.49 211.541 1172.44 215.866 1146.24C219.106 1126.58 223.133 1136.64 229.602 1102.69C233.429 1082.71 239.907 1095.35 250.895 1086.31C263.188 1076.18 272.954 1068.93 285.659 1061.99C291.725 1058.64 305.417 1058.06 310.893 1065.34C317.677 1074.32 349.693 1097.92 349.721 1120.29Z" fill="#E31E24"/>
</g>
<mask id="mask3_117_69" style="mask-type:luminance" maskUnits="userSpaceOnUse" x="165" y="1046" width="212" height="535">
<path d="M166.533 1580.09L376.029 1579.83L375.364 1046.12L165.868 1046.38L166.533 1580.09Z" fill="url(#paint3_linear_117_69)"/>
</mask>
<g mask="url(#mask3_117_69)">
<path fill-rule="evenodd" clip-rule="evenodd" d="M366.462 1105.22C363.003 1106.02 374.185 1134.23 374.137 1161.17C374.083 1183.06 378.327 1223.41 371.521 1236.11C371.374 1235.71 369.288 1212.31 368.68 1208.65C366.131 1192.98 366.882 1206.03 364.949 1227.08C360.071 1280.58 359.589 1273.53 359.986 1329.93C360.164 1354.92 357.726 1350.3 359.971 1383.77C361.501 1406.65 352.06 1452.27 354.986 1430.14C359.012 1399.97 350.681 1367.54 343.408 1345.27C343.309 1344.99 341.201 1394.86 338.823 1411.85C333.76 1448.03 342.83 1483.88 342.85 1500.28C342.806 1465.02 330.679 1450.27 328.982 1424.28C328.981 1424.2 324.4 1401.21 324.732 1418.88C324.872 1426.64 320.457 1472.37 320.476 1487.77C320.521 1523.59 320.707 1515.67 316.409 1550.02C315.051 1560.8 317.126 1536.01 314.871 1520.81C310.592 1491.92 303.697 1485.44 296.4 1457.83C291.76 1440.21 270.187 1468.29 266.098 1486.68C256.214 1531.11 244.564 1532.32 247.215 1577.84C248.147 1578.99 247.451 1570.84 248.223 1561.56C251.166 1527.02 253.524 1506.8 249.758 1470.27C248.634 1459.32 250.403 1464.02 247.17 1449.89C240.803 1422 253.606 1428.44 242.596 1459.65C233.603 1485.09 209.408 1543.03 209.453 1579.64C208.545 1557.59 220.845 1514.72 215.481 1453.24C213.859 1434.65 215.637 1368.83 218.176 1350.36C221.152 1328.67 201.106 1403.11 199.629 1409.44C191.772 1442.76 192.548 1437.19 194.739 1400.85C197.409 1356.67 207.194 1364.06 195.603 1308.8C192.911 1295.99 194.613 1260.17 194.021 1243.69C186.27 1271.04 171.88 1299.8 166.635 1321.21C164.526 1317.91 175.523 1263.42 171.144 1233.46C163.325 1179.74 188.023 1158.5 197.786 1121.91C207.419 1085.88 217.713 1096.02 230.626 1073.24C250.655 1037.99 259.089 1047.85 285.413 1048.3C291.239 1048.37 294.756 1054.85 305.723 1054.84C316.118 1054.83 368.664 1064.63 368.703 1096.19C368.707 1099.05 367.979 1104.86 366.462 1105.22Z" fill="#EF7F1A"/>
</g>
<mask id="mask4_117_69" style="mask-type:luminance" maskUnits="userSpaceOnUse" x="242" y="1063" width="81" height="390">
<path d="M243.029 1452.69L322.783 1452.59L322.299 1063.65L242.544 1063.75L243.029 1452.69Z" fill="url(#paint4_linear_117_69)"/>
</mask>
<g mask="url(#mask4_117_69)">
<path fill-rule="evenodd" clip-rule="evenodd" d="M313.971 1072.82C317.708 1124.75 321.939 1089.24 322.033 1164.5C322.09 1210.62 323.677 1174.21 318.227 1162.07C314.218 1153.09 316.612 1149.5 316.206 1177.12C316.01 1190.25 310.594 1204.99 311.083 1243.87C311.084 1244.1 308.051 1324.58 308.369 1291.67C308.427 1285.86 304.881 1256.61 303.335 1260.07C292.61 1283.92 288.941 1351.42 289.49 1385.97C289.613 1393.25 283.316 1421.08 283.339 1439.66C283.304 1411.76 280.436 1402.22 280.85 1380.21C280.849 1380.09 278.967 1349.77 276.181 1379.3C273.024 1412.85 267.779 1420.66 267.818 1452.26C267.761 1406.41 268.2 1365.46 260.738 1323.01C256.957 1301.48 261.484 1319.9 253.541 1362.49C246.781 1398.76 258.897 1338.57 256.24 1315.53C251.885 1277.77 252.744 1272.87 252.694 1233.27C252.656 1202.15 247.347 1211.59 245.992 1237.26C245.705 1242.71 239.492 1285.82 245.695 1234.79C245.744 1234.36 246.74 1209.01 246.836 1206.94C247.646 1189.38 251.232 1172.59 251.2 1147.12C251.182 1132.83 253.193 1109.31 244.933 1133.99C244.83 1129.69 256.108 1077.9 265.279 1077.89C276.018 1077.88 264.603 1059.23 283.95 1065.37C291.917 1067.91 306.739 1057.58 312.419 1071.78L313.971 1072.82Z" fill="#FCEE5E"/>
</g>
<mask id="mask5_117_69" style="mask-type:luminance" maskUnits="userSpaceOnUse" x="286" y="1071" width="53" height="242">
<path d="M286.786 1312.31L338.275 1312.24L337.975 1071.15L286.486 1071.22L286.786 1312.31Z" fill="url(#paint5_linear_117_69)"/>
</mask>
<g mask="url(#mask5_117_69)">
<path fill-rule="evenodd" clip-rule="evenodd" d="M328.539 1121.15C334.754 1145.42 328.606 1174.72 328.639 1201.5C328.637 1199.67 323.896 1153.59 324.86 1193.86C325.393 1216.11 320.04 1215.72 323.358 1259.37C324.321 1272.03 324.623 1305.49 321.704 1267.85C321.671 1267.61 313.863 1209.44 313.798 1209.24C313.733 1209.44 306.296 1265.88 304.902 1273.48C301.319 1292.91 301.464 1291.4 301.49 1311.89C301.456 1284.27 303.442 1254.58 301.107 1227.6C299.849 1213.32 301.138 1212.92 298.354 1191.95C295.883 1173.37 292.968 1126.09 292.968 1126.37C292.984 1139.02 284.18 1185.04 287.49 1143.25C288.116 1135.33 289.841 1130.99 290.962 1113.8C291.795 1101.22 295.833 1081.04 301.382 1081.23C311.354 1081.53 314.299 1061.12 322.595 1078.81C322.889 1079.45 327.875 1072.76 335.189 1101.01C336.599 1106.46 337.874 1121.5 337.883 1128.34C335.712 1088.91 315.895 1071.62 328.539 1121.15Z" fill="#E31E24"/>
</g>
<mask id="mask6_117_69" style="mask-type:luminance" maskUnits="userSpaceOnUse" x="229" y="1054" width="87" height="523">
<path d="M230.257 1576.03L315.119 1575.93L314.47 1054.71L229.607 1054.81L230.257 1576.03Z" fill="url(#paint6_linear_117_69)"/>
</mask>
<g mask="url(#mask6_117_69)">
<path fill-rule="evenodd" clip-rule="evenodd" d="M312.419 1071.78C317.003 1083.84 312.256 1189.66 310.555 1173.67C306.575 1136.02 303.36 1214.82 301.833 1220.68C299.787 1228.64 293.156 1276.8 293.167 1285.83C293.219 1327.58 292.53 1232.91 288.941 1286.76C286.794 1318.83 280.514 1320.59 280.57 1365.96C280.612 1399.75 275.714 1411.26 275.765 1451.77C275.795 1476.01 274.389 1500.4 270.597 1522.1C271.546 1524.01 270.243 1460.69 267.823 1456.95C267.234 1481.27 259.707 1504.72 261.019 1549.05C261.087 1551.44 257.628 1591.88 257.599 1568.16C257.563 1539.03 257.549 1515.03 257.839 1485.9C257.955 1473.72 253.505 1425.69 253.625 1430.23C253.625 1430.39 250.001 1455.62 249.599 1460.4C247.026 1491 249.082 1425.78 248.173 1416.82C247.76 1412.8 241.848 1356.58 241.782 1356.42C239.01 1357.7 236.997 1392.36 236.956 1359.57C236.936 1343.61 238.173 1275.16 235.974 1266.01C233.071 1253.83 241.515 1220.12 230.297 1254.43C229.126 1257.98 231.951 1219.73 231.935 1206.95C231.9 1179.06 235.864 1164.13 236.606 1131.53C237.938 1073.79 264.908 1055.13 283.904 1055.1C291.59 1055.09 306.786 1056.99 312.419 1071.78Z" fill="#FFED00"/>
</g>
<mask id="mask7_117_69" style="mask-type:luminance" maskUnits="userSpaceOnUse" x="179" y="1074" width="93" height="298">
<path d="M180.275 1371.22L271.502 1371.11L271.132 1074.1L179.905 1074.22L180.275 1371.22Z" fill="url(#paint7_linear_117_69)"/>
</mask>
<g mask="url(#mask7_117_69)">
<path fill-rule="evenodd" clip-rule="evenodd" d="M270.991 1091.77C259.483 1128.28 259.443 1162.11 250.748 1204.22C250.164 1207.09 244.108 1284.42 244.06 1245.9C243.994 1192.57 245.469 1211.16 234.95 1256.3C232.499 1266.77 225.839 1305.14 225.856 1318.35C225.918 1368.62 222.752 1342.16 226.411 1305.3C226.975 1299.53 228.625 1222.56 227.483 1222.68C223.257 1223.2 209.619 1293.1 207.905 1305.92C201.324 1354.76 196.916 1353.37 180.52 1370.82C179.553 1367.92 187.088 1364.25 187.168 1349.92C187.194 1344.43 190.571 1317.44 188.611 1302.28C187.342 1292.45 192.588 1298.97 192.28 1274.18C192.17 1264.27 197.074 1245.08 196.003 1236.57C190.108 1246.76 196.627 1226.62 197.01 1206.16C197.209 1195.85 222.98 1145.32 223.836 1137.76C228.936 1092.46 230.666 1131.46 225.826 1123.91C224.06 1121.16 223.099 1109.94 227.253 1103.85C240.888 1083.77 243.687 1077.12 260.868 1074.51C266.22 1073.71 265.52 1101.73 270.991 1091.77Z" fill="#EF7F1A"/>
</g>
<mask id="mask8_117_69" style="mask-type:luminance" maskUnits="userSpaceOnUse" x="240" y="1058" width="69" height="298">
<path d="M241.293 1355.94L308.954 1355.86L308.583 1058.26L240.922 1058.34L241.293 1355.94Z" fill="url(#paint8_linear_117_69)"/>
</mask>
<g mask="url(#mask8_117_69)">
<path fill-rule="evenodd" clip-rule="evenodd" d="M301.95 1144.39C312.642 1198.54 309.831 1182.22 297.366 1145.15C294.139 1135.56 296.12 1153.86 296.138 1168.27C296.179 1200.98 288.594 1217.47 288.646 1259.34C288.639 1253.29 286.267 1196.98 284.566 1193.48C281.903 1204.46 273.096 1261.11 273.114 1275.91C273.166 1317.14 269.892 1322.83 265.902 1355.51C271.38 1324.7 265.94 1268.32 268.249 1248.06C268.443 1246.43 253.448 1301.68 253.13 1307.81C251.662 1334.72 250.397 1315.38 252.971 1298.06C258.732 1259.41 252.655 1201.68 254.016 1194.15C256.788 1178.95 231.873 1235.97 245.198 1189.39C252.25 1164.74 247.089 1149.15 251.763 1114.88C254.512 1094.66 250.354 1097.45 262.162 1078.09C299.165 1017.6 296.153 1115.06 301.95 1144.39Z" fill="#E31E24"/>
</g>
<mask id="mask9_117_69" style="mask-type:luminance" maskUnits="userSpaceOnUse" x="342" y="1499" width="9" height="30">
<path d="M342.821 1528.73L350.98 1528.72L350.945 1499.95L342.785 1499.96L342.821 1528.73Z" fill="url(#paint9_linear_117_69)"/>
</mask>
<g mask="url(#mask9_117_69)">
<path fill-rule="evenodd" clip-rule="evenodd" d="M342.973 1506.68C343.075 1510.31 343.451 1510.82 344.401 1513.73C345.843 1518.1 348.285 1526.81 350.294 1528.09C351.813 1529.04 349.51 1527.17 349.309 1523.07C348.907 1514.64 349.773 1515.79 347.917 1506.28C347.014 1501.7 345.444 1499.56 343.504 1500.63C342.884 1500.99 342.939 1505.49 342.973 1506.68Z" fill="#EF7F1A"/>
</g>
<mask id="mask10_117_69" style="mask-type:luminance" maskUnits="userSpaceOnUse" x="329" y="1504" width="5" height="33">
<path d="M329.415 1536.35L333.854 1536.34L333.815 1504.82L329.376 1504.83L329.415 1536.35Z" fill="url(#paint10_linear_117_69)"/>
</mask>
<g mask="url(#mask10_117_69)">
<path fill-rule="evenodd" clip-rule="evenodd" d="M330.6 1505.23C330.017 1508.89 329.05 1518.76 329.871 1522.26C331.167 1527.75 331.936 1529.1 332.009 1535.79C332.027 1537.06 332.688 1530.65 332.964 1529.46C334.912 1520.82 332.374 1514.5 330.913 1507.61C330.684 1506.54 330.422 1506.38 330.6 1505.23Z" fill="#EF7F1A"/>
</g>
<mask id="mask11_117_69" style="mask-type:luminance" maskUnits="userSpaceOnUse" x="310" y="1576" width="11" height="107">
<path d="M310.846 1682.86L320.916 1682.85L320.783 1576.59L310.714 1576.61L310.846 1682.86Z" fill="url(#paint11_linear_117_69)"/>
</mask>
<g mask="url(#mask11_117_69)">
<path fill-rule="evenodd" clip-rule="evenodd" d="M317.732 1577.04C303.224 1616.45 316.391 1640.16 316.441 1680.39C316.454 1690.74 317.345 1659.62 319.083 1652.89C323.37 1636.13 317.513 1611.18 319.84 1592.63C320.034 1591 320.686 1577.03 317.732 1577.04Z" fill="#EF7F1A"/>
</g>
<mask id="mask12_117_69" style="mask-type:luminance" maskUnits="userSpaceOnUse" x="214" y="1627" width="18" height="169">
<path d="M214.57 1795.85L231.428 1795.83L231.218 1627.21L214.36 1627.23L214.57 1795.85Z" fill="url(#paint12_linear_117_69)"/>
</mask>
<g mask="url(#mask12_117_69)">
<path fill-rule="evenodd" clip-rule="evenodd" d="M231.058 1629.84C231.028 1697.05 215.513 1727.76 220.35 1771.96C220.945 1777.49 220.078 1815.46 219.203 1781.44C219.048 1775.07 216.269 1757.64 215.68 1743.59C215.024 1728.23 213.832 1740.37 215.53 1715.26C218.206 1675.58 212.46 1673.91 225.198 1641.66C226.516 1638.32 229.139 1621.68 231.058 1629.84Z" fill="#EF7F1A"/>
</g>
<mask id="mask13_117_69" style="mask-type:luminance" maskUnits="userSpaceOnUse" x="267" y="1754" width="9" height="83">
<path d="M267.122 1836.89L275.004 1836.88L274.902 1754.34L267.019 1754.35L267.122 1836.89Z" fill="url(#paint13_linear_117_69)"/>
</mask>
<g mask="url(#mask13_117_69)">
<path fill-rule="evenodd" clip-rule="evenodd" d="M271.965 1755.26C269.609 1750.45 268.226 1780.26 269.757 1790.61C271.633 1803.34 270.683 1826.38 267.285 1836.42C268.347 1837.61 273.159 1822.36 273.078 1810.06C272.962 1795.38 274.663 1785.11 274.759 1771.06C274.772 1767.96 272.767 1756.89 271.965 1755.26Z" fill="#EF7F1A"/>
</g>
<mask id="mask14_117_69" style="mask-type:luminance" maskUnits="userSpaceOnUse" x="246" y="1726" width="5" height="41">
<path d="M246.699 1766L250.958 1766L250.909 1726.6L246.65 1726.6L246.699 1766Z" fill="url(#paint14_linear_117_69)"/>
</mask>
<g mask="url(#mask14_117_69)">
<path fill-rule="evenodd" clip-rule="evenodd" d="M247.156 1727.04C245.828 1748.17 249.145 1751.55 248.851 1764.64C248.727 1769.82 249.424 1753.06 250.626 1748.41C251.666 1744.31 246.948 1730.3 247.156 1727.04Z" fill="#EF7F1A"/>
</g>
<mask id="mask15_117_69" style="mask-type:luminance" maskUnits="userSpaceOnUse" x="369" y="1401" width="8" height="53">
<path d="M369.964 1453.32L376.541 1453.31L376.476 1401.46L369.9 1401.47L369.964 1453.32Z" fill="url(#paint15_linear_117_69)"/>
</mask>
<g mask="url(#mask15_117_69)">
<path fill-rule="evenodd" clip-rule="evenodd" d="M371.016 1407.32C368.913 1435.18 371.089 1465.66 371.066 1447.39C371.063 1445.04 381.386 1399.58 373.082 1401.94C371.582 1402.38 371.257 1404.17 371.016 1407.32Z" fill="#EF7F1A"/>
</g>
<mask id="mask16_117_69" style="mask-type:luminance" maskUnits="userSpaceOnUse" x="184" y="1369" width="13" height="81">
<path d="M184.764 1449.97L196.286 1449.96L196.185 1369.13L184.663 1369.15L184.764 1449.97Z" fill="url(#paint16_linear_117_69)"/>
</mask>
<g mask="url(#mask16_117_69)">
<path fill-rule="evenodd" clip-rule="evenodd" d="M196.022 1369.53C192.045 1399.18 200.183 1369.05 188.722 1404.4C186.755 1410.45 186.627 1465.17 186.602 1445.19C186.57 1419.09 181.626 1393.82 188.589 1376.66C191.193 1370.25 192.285 1369.53 196.022 1369.53Z" fill="#EF7F1A"/>
</g>
<mask id="mask17_117_69" style="mask-type:luminance" maskUnits="userSpaceOnUse" x="214" y="1453" width="10" height="53">
<path d="M214.534 1505.29L223.331 1505.28L223.266 1453.74L214.47 1453.76L214.534 1505.29Z" fill="url(#paint17_linear_117_69)"/>
</mask>
<g mask="url(#mask17_117_69)">
<path fill-rule="evenodd" clip-rule="evenodd" d="M221.488 1454.15C226.914 1473.76 217.037 1471.1 217.08 1504.89C216.721 1504.89 209.671 1465.78 221.488 1454.15Z" fill="#EF7F1A"/>
</g>
<mask id="mask18_117_69" style="mask-type:luminance" maskUnits="userSpaceOnUse" x="313" y="1765" width="10" height="88">
<path d="M313.93 1852.83L322.971 1852.82L322.862 1765.11L313.821 1765.12L313.93 1852.83Z" fill="url(#paint18_linear_117_69)"/>
</mask>
<g mask="url(#mask18_117_69)">
<path fill-rule="evenodd" clip-rule="evenodd" d="M315.976 1765.52C310.084 1791.39 319.3 1813.79 319.337 1843.51C319.373 1873.08 324.972 1821.3 321.799 1802.56C320.566 1795.32 322.986 1772.71 315.976 1765.52Z" fill="#EF7F1A"/>
</g>
<mask id="mask19_117_69" style="mask-type:luminance" maskUnits="userSpaceOnUse" x="342" y="1664" width="8" height="47">
<path d="M342.639 1710.52L349.395 1710.51L349.337 1664.03L342.581 1664.04L342.639 1710.52Z" fill="url(#paint19_linear_117_69)"/>
</mask>
<g mask="url(#mask19_117_69)">
<path fill-rule="evenodd" clip-rule="evenodd" d="M343.463 1664.48C340.495 1680 347.818 1688.99 347.844 1710.12C347.829 1698.1 352.026 1674.1 345.723 1671C344.857 1670.56 343.56 1663.96 343.463 1664.48Z" fill="#EF7F1A"/>
</g>
<mask id="mask20_117_69" style="mask-type:luminance" maskUnits="userSpaceOnUse" x="284" y="1923" width="11" height="100">
<path d="M284.357 2022.01L294.166 2021.99L294.042 1923.1L284.234 1923.11L284.357 2022.01Z" fill="url(#paint20_linear_117_69)"/>
</mask>
<g mask="url(#mask20_117_69)">
<path fill-rule="evenodd" clip-rule="evenodd" d="M288.168 1923.5C287.11 1951.72 281.744 1954.27 286.125 1973.41C288.258 1982.72 290.894 2028.68 290.884 2020.68C290.857 1999.35 293.975 2000.18 293.933 1966.52C293.9 1940.13 287.805 1933.29 288.168 1923.5Z" fill="#EF7F1A"/>
</g>
<mask id="mask21_117_69" style="mask-type:luminance" maskUnits="userSpaceOnUse" x="183" y="1528" width="3" height="24">
<path d="M183.193 1551.66L185.886 1551.65L185.856 1528.13L183.164 1528.14L183.193 1551.66Z" fill="url(#paint21_linear_117_69)"/>
</mask>
<g mask="url(#mask21_117_69)">
<path fill-rule="evenodd" clip-rule="evenodd" d="M185.482 1528.53C179.968 1530.33 186.997 1578.75 185.482 1528.53Z" fill="#EF7F1A"/>
</g>
<mask id="mask22_117_69" style="mask-type:luminance" maskUnits="userSpaceOnUse" x="198" y="1576" width="6" height="28">
<path d="M198.647 1603.29L203.657 1603.29L203.624 1576.78L198.614 1576.79L198.647 1603.29Z" fill="url(#paint22_linear_117_69)"/>
</mask>
<g mask="url(#mask22_117_69)">
<path fill-rule="evenodd" clip-rule="evenodd" d="M203.462 1577.18C194.433 1586.94 201.171 1624.98 201.937 1584.94C202.03 1580.56 201.718 1579.05 203.462 1577.18Z" fill="#EF7F1A"/>
</g>
<mask id="mask23_117_69" style="mask-type:luminance" maskUnits="userSpaceOnUse" x="220" y="1585" width="6" height="24">
<path d="M220.799 1608.16L225.581 1608.15L225.553 1585.83L220.771 1585.83L220.799 1608.16Z" fill="url(#paint23_linear_117_69)"/>
</mask>
<g mask="url(#mask23_117_69)">
<path fill-rule="evenodd" clip-rule="evenodd" d="M222.746 1586.23C216.208 1604.42 230.149 1621.08 223.618 1591.84C222.748 1587.9 222.795 1586.11 222.746 1586.23Z" fill="#EF7F1A"/>
</g>
<mask id="mask24_117_69" style="mask-type:luminance" maskUnits="userSpaceOnUse" x="362" y="1574" width="8" height="25">
<path d="M362.247 1598.67L369.036 1598.66L369.006 1574.78L362.217 1574.79L362.247 1598.67Z" fill="url(#paint24_linear_117_69)"/>
</mask>
<g mask="url(#mask24_117_69)">
<path fill-rule="evenodd" clip-rule="evenodd" d="M362.407 1596.8C369.15 1598.9 371.324 1601.8 365.52 1580.16C361.306 1564.45 363.036 1590.47 365.505 1594.45L362.407 1596.8Z" fill="#EF7F1A"/>
</g>
<mask id="mask25_117_69" style="mask-type:luminance" maskUnits="userSpaceOnUse" x="390" y="1472" width="7" height="18">
<path d="M390.866 1489.11L396.937 1489.11L396.915 1472.11L390.844 1472.12L390.866 1489.11Z" fill="url(#paint25_linear_117_69)"/>
</mask>
<g mask="url(#mask25_117_69)">
<path fill-rule="evenodd" clip-rule="evenodd" d="M391.93 1479.32C389.796 1468.7 399.217 1498.42 396.148 1485.33C394.901 1479.96 388.712 1463.25 391.93 1479.32Z" fill="#EF7F1A"/>
</g>
<mask id="mask26_117_69" style="mask-type:luminance" maskUnits="userSpaceOnUse" x="393" y="1421" width="10" height="9">
<path d="M393.663 1429.41L402.965 1429.4L402.956 1421.64L393.653 1421.65L393.663 1429.41Z" fill="url(#paint26_linear_117_69)"/>
</mask>
<g mask="url(#mask26_117_69)">
<path fill-rule="evenodd" clip-rule="evenodd" d="M393.824 1427.38C394.673 1427.42 408.976 1433.18 399.644 1422.84C398.664 1421.77 394.713 1420.7 393.824 1427.38Z" fill="#EF7F1A"/>
</g>
<mask id="mask27_117_69" style="mask-type:luminance" maskUnits="userSpaceOnUse" x="344" y="1489" width="10" height="30">
<path d="M344.847 1518.02L353.121 1518.01L353.085 1489.16L344.811 1489.17L344.847 1518.02Z" fill="url(#paint27_linear_117_69)"/>
</mask>
<g mask="url(#mask27_117_69)">
<path fill-rule="evenodd" clip-rule="evenodd" d="M344.999 1495.9C345.101 1499.52 345.477 1500.07 346.444 1502.94C347.918 1507.35 350.393 1516.11 352.435 1517.38C353.97 1518.33 351.634 1516.46 351.433 1512.32C351.031 1503.89 351.914 1505.04 350.009 1495.49C349.089 1490.92 347.52 1488.77 345.546 1489.85C344.91 1490.21 344.965 1494.7 344.999 1495.9Z" fill="#FCEE5E"/>
</g>
<mask id="mask28_117_69" style="mask-type:luminance" maskUnits="userSpaceOnUse" x="331" y="1494" width="5" height="32">
<path d="M331.246 1525.64L335.75 1525.64L335.711 1494.04L331.207 1494.04L331.246 1525.64Z" fill="url(#paint28_linear_117_69)"/>
</mask>
<g mask="url(#mask28_117_69)">
<path fill-rule="evenodd" clip-rule="evenodd" d="M332.448 1494.44C331.865 1498.14 330.882 1508.01 331.719 1511.51C333.015 1517 333.8 1518.36 333.89 1525.04C333.908 1526.35 334.569 1519.91 334.845 1518.71C336.825 1510.07 334.255 1503.71 332.777 1496.87C332.548 1495.75 332.27 1495.59 332.448 1494.44Z" fill="#FCEE5E"/>
</g>
<mask id="mask29_117_69" style="mask-type:luminance" maskUnits="userSpaceOnUse" x="312" y="1566" width="11" height="107">
<path d="M312.416 1672.48L322.632 1672.46L322.5 1566.01L312.284 1566.02L312.416 1672.48Z" fill="url(#paint29_linear_117_69)"/>
</mask>
<g mask="url(#mask29_117_69)">
<path fill-rule="evenodd" clip-rule="evenodd" d="M319.416 1566.41C304.679 1605.91 318.042 1629.69 318.092 1669.96C318.105 1680.39 319.013 1649.19 320.767 1642.42C325.12 1625.66 319.165 1600.63 321.541 1582.05C321.751 1580.41 322.386 1566.4 319.416 1566.41Z" fill="#FCEE5E"/>
</g>
<mask id="mask30_117_69" style="mask-type:luminance" maskUnits="userSpaceOnUse" x="214" y="1616" width="18" height="170">
<path d="M214.77 1785.66L231.873 1785.64L231.662 1616.66L214.559 1616.68L214.77 1785.66Z" fill="url(#paint30_linear_117_69)"/>
</mask>
<g mask="url(#mask30_117_69)">
<path fill-rule="evenodd" clip-rule="evenodd" d="M231.502 1619.33C231.456 1686.66 215.729 1717.45 220.615 1761.74C221.226 1767.31 220.343 1805.31 219.468 1771.25C219.313 1764.84 216.484 1747.41 215.896 1733.33C215.24 1717.93 214.015 1730.11 215.73 1704.95C218.455 1665.15 212.626 1663.53 225.544 1631.16C226.878 1627.81 229.534 1611.13 231.502 1619.33Z" fill="#FCEE5E"/>
</g>
<mask id="mask31_117_69" style="mask-type:luminance" maskUnits="userSpaceOnUse" x="267" y="1744" width="10" height="83">
<path d="M268.056 1826.82L276.053 1826.81L275.95 1744.08L267.953 1744.09L268.056 1826.82Z" fill="url(#paint31_linear_117_69)"/>
</mask>
<g mask="url(#mask31_117_69)">
<path fill-rule="evenodd" clip-rule="evenodd" d="M272.981 1744.99C270.592 1740.18 269.177 1770.03 270.74 1780.42C272.649 1793.19 271.682 1816.27 268.219 1826.35C269.297 1827.5 274.191 1812.25 274.11 1799.95C273.994 1785.23 275.711 1774.92 275.807 1760.87C275.82 1757.73 273.799 1746.63 272.981 1744.99Z" fill="#FCEE5E"/>
</g>
<mask id="mask32_117_69" style="mask-type:luminance" maskUnits="userSpaceOnUse" x="247" y="1716" width="5" height="40">
<path d="M247.372 1755.81L251.68 1755.81L251.631 1716.33L247.323 1716.33L247.372 1755.81Z" fill="url(#paint32_linear_117_69)"/>
</mask>
<g mask="url(#mask32_117_69)">
<path fill-rule="evenodd" clip-rule="evenodd" d="M247.813 1716.73C246.485 1737.9 249.835 1741.32 249.541 1754.42C249.417 1759.63 250.13 1742.79 251.332 1738.14C252.404 1734.04 247.605 1719.99 247.813 1716.73Z" fill="#FCEE5E"/>
</g>
<mask id="mask33_117_69" style="mask-type:luminance" maskUnits="userSpaceOnUse" x="372" y="1390" width="8" height="53">
<path d="M372.382 1442.45L379.041 1442.45L378.976 1390.47L372.317 1390.48L372.382 1442.45Z" fill="url(#paint33_linear_117_69)"/>
</mask>
<g mask="url(#mask33_117_69)">
<path fill-rule="evenodd" clip-rule="evenodd" d="M373.451 1396.33C371.315 1424.27 373.524 1454.83 373.501 1436.48C373.498 1434.14 383.967 1388.56 375.55 1390.95C374.032 1391.39 373.692 1393.18 373.451 1396.33Z" fill="#FCEE5E"/>
</g>
<mask id="mask34_117_69" style="mask-type:luminance" maskUnits="userSpaceOnUse" x="184" y="1358" width="13" height="82">
<path d="M184.538 1439.07L196.223 1439.05L196.122 1358.07L184.437 1358.08L184.538 1439.07Z" fill="url(#paint34_linear_117_69)"/>
</mask>
<g mask="url(#mask34_117_69)">
<path fill-rule="evenodd" clip-rule="evenodd" d="M195.959 1358.47C191.916 1388.2 200.185 1357.98 188.545 1393.42C186.545 1399.47 186.434 1454.31 186.409 1434.29C186.376 1408.14 181.351 1382.84 188.428 1365.64C191.048 1359.23 192.173 1358.47 195.959 1358.47Z" fill="#FCEE5E"/>
</g>
<mask id="mask35_117_69" style="mask-type:luminance" maskUnits="userSpaceOnUse" x="214" y="1442" width="10" height="53">
<path d="M214.733 1494.55L223.66 1494.54L223.596 1442.88L214.669 1442.89L214.733 1494.55Z" fill="url(#paint35_linear_117_69)"/>
</mask>
<g mask="url(#mask35_117_69)">
<path fill-rule="evenodd" clip-rule="evenodd" d="M221.785 1443.28C227.293 1462.89 217.269 1460.28 217.311 1494.15C216.952 1494.15 209.788 1454.92 221.785 1443.28Z" fill="#FCEE5E"/>
</g>
<mask id="mask36_117_69" style="mask-type:luminance" maskUnits="userSpaceOnUse" x="315" y="1754" width="10" height="89">
<path d="M315.55 1842.8L324.722 1842.79L324.612 1754.92L315.441 1754.93L315.55 1842.8Z" fill="url(#paint36_linear_117_69)"/>
</mask>
<g mask="url(#mask36_117_69)">
<path fill-rule="evenodd" clip-rule="evenodd" d="M317.628 1755.33C311.638 1781.2 320.985 1803.67 321.022 1833.44C321.059 1863.05 326.739 1811.19 323.517 1792.41C322.267 1785.17 324.736 1762.48 317.628 1755.33Z" fill="#FCEE5E"/>
</g>
<mask id="mask37_117_69" style="mask-type:luminance" maskUnits="userSpaceOnUse" x="344" y="1653" width="8" height="48">
<path d="M344.65 1700.17L351.504 1700.16L351.446 1653.6L344.592 1653.61L344.65 1700.17Z" fill="url(#paint37_linear_117_69)"/>
</mask>
<g mask="url(#mask37_117_69)">
<path fill-rule="evenodd" clip-rule="evenodd" d="M345.49 1654.05C342.49 1669.61 349.91 1678.6 349.937 1699.77C349.922 1687.71 354.184 1663.67 347.782 1660.57C346.917 1660.14 345.587 1653.53 345.49 1654.05Z" fill="#FCEE5E"/>
</g>
<mask id="mask38_117_69" style="mask-type:luminance" maskUnits="userSpaceOnUse" x="285" y="1913" width="11" height="100">
<path d="M285.521 2012.29L295.476 2012.28L295.352 1913.19L285.397 1913.2L285.521 2012.29Z" fill="url(#paint38_linear_117_69)"/>
</mask>
<g mask="url(#mask38_117_69)">
<path fill-rule="evenodd" clip-rule="evenodd" d="M289.412 1913.63C288.338 1941.85 282.89 1944.44 287.337 1963.62C289.503 1972.93 292.171 2019.01 292.161 2010.97C292.135 1989.64 295.285 1990.47 295.243 1956.73C295.21 1930.3 289.049 1923.42 289.412 1913.63Z" fill="#FCEE5E"/>
</g>
<mask id="mask39_117_69" style="mask-type:luminance" maskUnits="userSpaceOnUse" x="182" y="1517" width="4" height="24">
<path d="M182.935 1540.99L185.66 1540.99L185.631 1517.43L182.905 1517.43L182.935 1540.99Z" fill="url(#paint39_linear_117_69)"/>
</mask>
<g mask="url(#mask39_117_69)">
<path fill-rule="evenodd" clip-rule="evenodd" d="M185.273 1517.83C179.677 1519.62 186.804 1568.13 185.273 1517.83Z" fill="#FCEE5E"/>
</g>
<mask id="mask40_117_69" style="mask-type:luminance" maskUnits="userSpaceOnUse" x="198" y="1566" width="6" height="27">
<path d="M198.617 1592.71L203.693 1592.7L203.66 1566.12L198.584 1566.12L198.617 1592.71Z" fill="url(#paint40_linear_117_69)"/>
</mask>
<g mask="url(#mask40_117_69)">
<path fill-rule="evenodd" clip-rule="evenodd" d="M203.497 1566.55C194.354 1576.32 201.174 1614.47 201.957 1574.32C202.049 1569.94 201.721 1568.43 203.497 1566.55Z" fill="#FCEE5E"/>
</g>
<mask id="mask41_117_69" style="mask-type:luminance" maskUnits="userSpaceOnUse" x="221" y="1575" width="5" height="23">
<path d="M221.079 1597.61L225.926 1597.61L225.898 1575.24L221.051 1575.25L221.079 1597.61Z" fill="url(#paint41_linear_117_69)"/>
</mask>
<g mask="url(#mask41_117_69)">
<path fill-rule="evenodd" clip-rule="evenodd" d="M223.059 1575.64C216.424 1593.88 230.577 1610.57 223.948 1581.25C223.062 1577.31 223.108 1575.48 223.059 1575.64Z" fill="#FCEE5E"/>
</g>
<mask id="mask42_117_69" style="mask-type:luminance" maskUnits="userSpaceOnUse" x="364" y="1564" width="8" height="25">
<path d="M364.551 1588.08L371.438 1588.07L371.408 1564.15L364.521 1564.16L364.551 1588.08Z" fill="url(#paint42_linear_117_69)"/>
</mask>
<g mask="url(#mask42_117_69)">
<path fill-rule="evenodd" clip-rule="evenodd" d="M364.712 1586.25C371.553 1588.35 373.743 1591.25 367.874 1569.57C363.611 1553.82 365.341 1579.84 367.859 1583.86L364.712 1586.25Z" fill="#FCEE5E"/>
</g>
<mask id="mask43_117_69" style="mask-type:luminance" maskUnits="userSpaceOnUse" x="393" y="1461" width="7" height="18">
<path d="M393.577 1478.32L399.73 1478.32L399.709 1461.28L393.556 1461.29L393.577 1478.32Z" fill="url(#paint43_linear_117_69)"/>
</mask>
<g mask="url(#mask43_117_69)">
<path fill-rule="evenodd" clip-rule="evenodd" d="M394.642 1468.49C392.507 1457.87 402.042 1487.63 398.941 1474.5C397.662 1469.13 391.391 1452.42 394.642 1468.49Z" fill="#FCEE5E"/>
</g>
<mask id="mask44_117_69" style="mask-type:luminance" maskUnits="userSpaceOnUse" x="396" y="1410" width="10" height="9">
<path d="M396.424 1418.51L405.84 1418.49L405.831 1410.69L396.414 1410.71L396.424 1418.51Z" fill="url(#paint44_linear_117_69)"/>
</mask>
<g mask="url(#mask44_117_69)">
<path fill-rule="evenodd" clip-rule="evenodd" d="M396.584 1416.44C397.433 1416.48 411.948 1422.27 402.486 1411.89C401.489 1410.82 397.473 1409.75 396.584 1416.44Z" fill="#FCEE5E"/>
</g>
</g>
<path d="M171.922 710.9L-0.000327162 1091.27L192.917 1091.27L171.922 710.9Z" fill="#7B41FB" fill-opacity="0.99"/>
<path d="M405.896 712.146L574.5 1091.8L391.204 1091.8L405.896 712.146Z" fill="#7B41FB" fill-opacity="0.99"/>
<path d="M408.045 682.001C408.045 1090.12 408.045 1090.12 289.302 1090.12C170.559 1090.12 170.559 1076 170.559 682.001C170.559 288.004 223.722 0 289.302 0C354.881 0 408.045 288.004 408.045 682.001Z" fill="url(#paint45_linear_117_69)"/>
<path d="M334.639 444.492C334.639 487.18 314.34 521.785 289.301 521.785C264.261 521.785 243.962 487.18 243.962 444.492C243.962 401.804 264.261 367.198 289.301 367.198C314.34 367.198 334.639 401.804 334.639 444.492Z" fill="#222222"/>
<path d="M286.495 736.778V1130.61L283.472 1166.33" stroke="#7B41FB" stroke-opacity="0.99" stroke-width="11"/>
<defs>
<linearGradient id="paint0_linear_117_69" x1="288.587" y1="1057.33" x2="233.305" y2="1764.6" gradientUnits="userSpaceOnUse">
<stop stop-color="white"/>
<stop offset="1" stop-color="white" stop-opacity="0"/>
</linearGradient>
<linearGradient id="paint1_linear_117_69" x1="293.408" y1="1209.78" x2="226.016" y2="1850.66" gradientUnits="userSpaceOnUse">
<stop stop-color="white"/>
<stop offset="0.21176" stop-color="white" stop-opacity="-97.886"/>
<stop offset="1" stop-color="white" stop-opacity="0"/>
</linearGradient>
<linearGradient id="paint2_linear_117_69" x1="283.776" y1="1161.72" x2="213.488" y2="1450.04" gradientUnits="userSpaceOnUse">
<stop stop-color="white"/>
<stop offset="1" stop-color="white" stop-opacity="0"/>
</linearGradient>
<linearGradient id="paint3_linear_117_69" x1="269.621" y1="1235.88" x2="284.263" y2="1389.22" gradientUnits="userSpaceOnUse">
<stop stop-color="white"/>
<stop offset="1" stop-color="white" stop-opacity="0"/>
</linearGradient>
<linearGradient id="paint4_linear_117_69" x1="293.275" y1="1082.71" x2="177.599" y2="1399.09" gradientUnits="userSpaceOnUse">
<stop stop-color="white"/>
<stop offset="1" stop-color="white" stop-opacity="0"/>
</linearGradient>
<linearGradient id="paint5_linear_117_69" x1="311.66" y1="1070.91" x2="318.665" y2="1312.39" gradientUnits="userSpaceOnUse">
<stop stop-color="white"/>
<stop offset="1" stop-color="white" stop-opacity="0"/>
</linearGradient>
<linearGradient id="paint6_linear_117_69" x1="301.135" y1="1103.28" x2="70.6591" y2="1386.99" gradientUnits="userSpaceOnUse">
<stop stop-color="white"/>
<stop offset="0.3098" stop-color="white" stop-opacity="-97.886"/>
<stop offset="1" stop-color="white" stop-opacity="0"/>
</linearGradient>
<linearGradient id="paint7_linear_117_69" x1="273.571" y1="1079.71" x2="82.489" y2="1175.56" gradientUnits="userSpaceOnUse">
<stop stop-color="white"/>
<stop offset="1" stop-color="white" stop-opacity="0"/>
</linearGradient>
<linearGradient id="paint8_linear_117_69" x1="293.017" y1="1070.89" x2="146.289" y2="1255.33" gradientUnits="userSpaceOnUse">
<stop stop-color="white"/>
<stop offset="1" stop-color="white" stop-opacity="0"/>
</linearGradient>
<linearGradient id="paint9_linear_117_69" x1="346.934" y1="1500.23" x2="346.096" y2="1528.43" gradientUnits="userSpaceOnUse">
<stop stop-color="white"/>
<stop offset="1" stop-color="white" stop-opacity="0"/>
</linearGradient>
<linearGradient id="paint10_linear_117_69" x1="331.762" y1="1505.11" x2="329.799" y2="1535.96" gradientUnits="userSpaceOnUse">
<stop stop-color="white"/>
<stop offset="1" stop-color="white" stop-opacity="0"/>
</linearGradient>
<linearGradient id="paint11_linear_117_69" x1="316.583" y1="1576.64" x2="306.839" y2="1682.1" gradientUnits="userSpaceOnUse">
<stop stop-color="white"/>
<stop offset="1" stop-color="white" stop-opacity="0"/>
</linearGradient>
<linearGradient id="paint12_linear_117_69" x1="224.054" y1="1627.02" x2="209.415" y2="1794.98" gradientUnits="userSpaceOnUse">
<stop stop-color="white"/>
<stop offset="1" stop-color="white" stop-opacity="0"/>
</linearGradient>
<linearGradient id="paint13_linear_117_69" x1="271.605" y1="1754.44" x2="264.001" y2="1836.19" gradientUnits="userSpaceOnUse">
<stop stop-color="white"/>
<stop offset="1" stop-color="white" stop-opacity="0"/>
</linearGradient>
<linearGradient id="paint14_linear_117_69" x1="249.066" y1="1726.88" x2="245.834" y2="1765.54" gradientUnits="userSpaceOnUse">
<stop stop-color="white"/>
<stop offset="1" stop-color="white" stop-opacity="0"/>
</linearGradient>
<linearGradient id="paint15_linear_117_69" x1="373.493" y1="1401.66" x2="369.924" y2="1452.91" gradientUnits="userSpaceOnUse">
<stop stop-color="white"/>
<stop offset="1" stop-color="white" stop-opacity="0"/>
</linearGradient>
<linearGradient id="paint16_linear_117_69" x1="190.849" y1="1369.22" x2="186.015" y2="1449.64" gradientUnits="userSpaceOnUse">
<stop stop-color="white"/>
<stop offset="1" stop-color="white" stop-opacity="0"/>
</linearGradient>
<linearGradient id="paint17_linear_117_69" x1="219.089" y1="1453.95" x2="216.538" y2="1504.98" gradientUnits="userSpaceOnUse">
<stop stop-color="white"/>
<stop offset="1" stop-color="white" stop-opacity="0"/>
</linearGradient>
<linearGradient id="paint18_linear_117_69" x1="318.983" y1="1765.21" x2="311.578" y2="1852.23" gradientUnits="userSpaceOnUse">
<stop stop-color="white"/>
<stop offset="1" stop-color="white" stop-opacity="0"/>
</linearGradient>
<linearGradient id="paint19_linear_117_69" x1="346.196" y1="1664.27" x2="343.428" y2="1710.14" gradientUnits="userSpaceOnUse">
<stop stop-color="white"/>
<stop offset="1" stop-color="white" stop-opacity="0"/>
</linearGradient>
<linearGradient id="paint20_linear_117_69" x1="289.873" y1="1923.16" x2="281.213" y2="2021.32" gradientUnits="userSpaceOnUse">
<stop stop-color="white"/>
<stop offset="1" stop-color="white" stop-opacity="0"/>
</linearGradient>
<linearGradient id="paint21_linear_117_69" x1="184.666" y1="1528.45" x2="182.765" y2="1551.2" gradientUnits="userSpaceOnUse">
<stop stop-color="white"/>
<stop offset="1" stop-color="white" stop-opacity="0"/>
</linearGradient>
<linearGradient id="paint22_linear_117_69" x1="201.226" y1="1577.06" x2="199.999" y2="1602.96" gradientUnits="userSpaceOnUse">
<stop stop-color="white"/>
<stop offset="1" stop-color="white" stop-opacity="0"/>
</linearGradient>
<linearGradient id="paint23_linear_117_69" x1="223.236" y1="1586.15" x2="222.391" y2="1607.81" gradientUnits="userSpaceOnUse">
<stop stop-color="white"/>
<stop offset="1" stop-color="white" stop-opacity="0"/>
</linearGradient>
<linearGradient id="paint24_linear_117_69" x1="365.672" y1="1575.07" x2="364.984" y2="1598.33" gradientUnits="userSpaceOnUse">
<stop stop-color="white"/>
<stop offset="1" stop-color="white" stop-opacity="0"/>
</linearGradient>
<linearGradient id="paint25_linear_117_69" x1="393.913" y1="1472.43" x2="393.536" y2="1488.78" gradientUnits="userSpaceOnUse">
<stop stop-color="white"/>
<stop offset="1" stop-color="white" stop-opacity="0"/>
</linearGradient>
<linearGradient id="paint26_linear_117_69" x1="398.3" y1="1422.05" x2="398.309" y2="1429.01" gradientUnits="userSpaceOnUse">
<stop stop-color="white"/>
<stop offset="1" stop-color="white" stop-opacity="0"/>
</linearGradient>
<linearGradient id="paint27_linear_117_69" x1="349.019" y1="1489.44" x2="348.181" y2="1517.72" gradientUnits="userSpaceOnUse">
<stop stop-color="white"/>
<stop offset="1" stop-color="white" stop-opacity="0"/>
</linearGradient>
<linearGradient id="paint28_linear_117_69" x1="333.627" y1="1494.32" x2="331.693" y2="1525.26" gradientUnits="userSpaceOnUse">
<stop stop-color="white"/>
<stop offset="1" stop-color="white" stop-opacity="0"/>
</linearGradient>
<linearGradient id="paint29_linear_117_69" x1="318.214" y1="1566.01" x2="308.566" y2="1671.73" gradientUnits="userSpaceOnUse">
<stop stop-color="white"/>
<stop offset="1" stop-color="white" stop-opacity="0"/>
</linearGradient>
<linearGradient id="paint30_linear_117_69" x1="224.351" y1="1616.47" x2="209.903" y2="1784.84" gradientUnits="userSpaceOnUse">
<stop stop-color="white"/>
<stop offset="1" stop-color="white" stop-opacity="0"/>
</linearGradient>
<linearGradient id="paint31_linear_117_69" x1="272.604" y1="1744.2" x2="265.095" y2="1826.12" gradientUnits="userSpaceOnUse">
<stop stop-color="white"/>
<stop offset="1" stop-color="white" stop-opacity="0"/>
</linearGradient>
<linearGradient id="paint32_linear_117_69" x1="249.755" y1="1716.57" x2="246.523" y2="1755.31" gradientUnits="userSpaceOnUse">
<stop stop-color="white"/>
<stop offset="1" stop-color="white" stop-opacity="0"/>
</linearGradient>
<linearGradient id="paint33_linear_117_69" x1="375.95" y1="1390.67" x2="372.419" y2="1442.05" gradientUnits="userSpaceOnUse">
<stop stop-color="white"/>
<stop offset="1" stop-color="white" stop-opacity="0"/>
</linearGradient>
<linearGradient id="paint34_linear_117_69" x1="190.704" y1="1358.15" x2="185.871" y2="1438.74" gradientUnits="userSpaceOnUse">
<stop stop-color="white"/>
<stop offset="1" stop-color="white" stop-opacity="0"/>
</linearGradient>
<linearGradient id="paint35_linear_117_69" x1="219.353" y1="1443.04" x2="216.802" y2="1494.23" gradientUnits="userSpaceOnUse">
<stop stop-color="white"/>
<stop offset="1" stop-color="white" stop-opacity="0"/>
</linearGradient>
<linearGradient id="paint36_linear_117_69" x1="320.652" y1="1754.98" x2="313.314" y2="1842.2" gradientUnits="userSpaceOnUse">
<stop stop-color="white"/>
<stop offset="1" stop-color="white" stop-opacity="0"/>
</linearGradient>
<linearGradient id="paint37_linear_117_69" x1="348.262" y1="1653.81" x2="345.524" y2="1699.79" gradientUnits="userSpaceOnUse">
<stop stop-color="white"/>
<stop offset="1" stop-color="white" stop-opacity="0"/>
</linearGradient>
<linearGradient id="paint38_linear_117_69" x1="291.122" y1="1913.26" x2="282.539" y2="2011.64" gradientUnits="userSpaceOnUse">
<stop stop-color="white"/>
<stop offset="1" stop-color="white" stop-opacity="0"/>
</linearGradient>
<linearGradient id="paint39_linear_117_69" x1="184.44" y1="1517.75" x2="182.539" y2="1540.54" gradientUnits="userSpaceOnUse">
<stop stop-color="white"/>
<stop offset="1" stop-color="white" stop-opacity="0"/>
</linearGradient>
<linearGradient id="paint40_linear_117_69" x1="201.229" y1="1566.44" x2="200.002" y2="1592.38" gradientUnits="userSpaceOnUse">
<stop stop-color="white"/>
<stop offset="1" stop-color="white" stop-opacity="0"/>
</linearGradient>
<linearGradient id="paint41_linear_117_69" x1="223.565" y1="1575.52" x2="222.623" y2="1597.26" gradientUnits="userSpaceOnUse">
<stop stop-color="white"/>
<stop offset="1" stop-color="white" stop-opacity="0"/>
</linearGradient>
<linearGradient id="paint42_linear_117_69" x1="368.024" y1="1564.44" x2="367.335" y2="1587.74" gradientUnits="userSpaceOnUse">
<stop stop-color="white"/>
<stop offset="1" stop-color="white" stop-opacity="0"/>
</linearGradient>
<linearGradient id="paint43_linear_117_69" x1="396.667" y1="1461.61" x2="396.29" y2="1477.96" gradientUnits="userSpaceOnUse">
<stop stop-color="white"/>
<stop offset="1" stop-color="white" stop-opacity="0"/>
</linearGradient>
<linearGradient id="paint44_linear_117_69" x1="401.12" y1="1411.1" x2="401.128" y2="1418.1" gradientUnits="userSpaceOnUse">
<stop stop-color="white"/>
<stop offset="1" stop-color="white" stop-opacity="0"/>
</linearGradient>
<linearGradient id="paint45_linear_117_69" x1="598.033" y1="-34.6413" x2="-41.0198" y2="-31.6274" gradientUnits="userSpaceOnUse">
<stop offset="0.234375" stop-color="#5528B6" stop-opacity="0.99"/>
<stop offset="0.348958" stop-color="#8046FF" stop-opacity="0.99"/>
<stop offset="0.489583" stop-color="#CAB6F5"/>
<stop offset="0.630208" stop-color="#8B56FF" stop-opacity="0.99"/>
<stop offset="0.734375" stop-color="#48219F" stop-opacity="0.99"/>
</linearGradient>
<clipPath id="clip0_117_69">
<rect width="342.714" height="1052.89" fill="white" transform="matrix(-0.999999 0.00125269 -0.00124561 -0.999999 450.247 2021.55)"/>
</clipPath>
</defs>
</svg>
