<svg width="575" height="1167" viewBox="0 0 575 1167" fill="none" xmlns="http://www.w3.org/2000/svg">
<path d="M171.922 710.9L-0.000327162 1091.27L192.917 1091.27L171.922 710.9Z" fill="#7B41FB" fill-opacity="0.99"/>
<path d="M405.895 712.146L574.499 1091.8L391.203 1091.8L405.895 712.146Z" fill="#7B41FB" fill-opacity="0.99"/>
<path d="M408.045 682.001C408.045 1090.12 408.045 1090.12 289.302 1090.12C170.559 1090.12 170.559 1076 170.559 682.001C170.559 288.004 223.722 0 289.302 0C354.881 0 408.045 288.004 408.045 682.001Z" fill="url(#paint0_linear_119_253)"/>
<path d="M334.639 444.491C334.639 487.179 314.341 521.785 289.301 521.785C264.261 521.785 243.963 487.179 243.963 444.491C243.963 401.803 264.261 367.198 289.301 367.198C314.341 367.198 334.639 401.803 334.639 444.491Z" fill="#222222"/>
<path d="M286.494 736.778V1130.61L283.472 1166.33" stroke="#7B41FB" stroke-opacity="0.99" stroke-width="11"/>
<defs>
<linearGradient id="paint0_linear_119_253" x1="598.033" y1="-34.6413" x2="-41.0198" y2="-31.6274" gradientUnits="userSpaceOnUse">
<stop offset="0.234375" stop-color="#5528B6" stop-opacity="0.99"/>
<stop offset="0.348958" stop-color="#8046FF" stop-opacity="0.99"/>
<stop offset="0.489583" stop-color="#CAB6F5"/>
<stop offset="0.630208" stop-color="#8B56FF" stop-opacity="0.99"/>
<stop offset="0.734375" stop-color="#48219F" stop-opacity="0.99"/>
</linearGradient>
</defs>
</svg>
