<svg width="741" height="598" viewBox="0 0 741 598" fill="none" xmlns="http://www.w3.org/2000/svg">
<g clip-path="url(#clip0_144_2561)">
<path d="M421.949 528.307C416.828 521.135 409.894 515.888 401.178 513.924C393.578 512.211 385.762 512.503 378.036 512.563L280.344 513.316C271.977 513.381 263.955 520.629 264.344 529.316C264.729 537.93 271.375 545.385 280.344 545.316C308.961 545.095 337.578 544.875 366.195 544.654C372.941 544.602 379.692 544.48 386.439 544.502C387.954 544.507 389.463 544.587 390.976 544.604C391.343 544.609 391.608 544.605 391.795 544.597C391.842 544.612 391.881 544.625 391.942 544.642C392.732 544.858 393.542 545.008 394.336 545.214C394.058 545.222 394.851 545.717 395.25 545.885C395.305 545.993 395.421 546.184 395.616 546.48C395.888 546.99 396.693 548.539 396.726 548.49C397.936 551.549 398.934 554.687 399.713 557.883C401.573 564.93 401.981 566.403 402.249 573.015C402.587 581.367 409.366 589.412 418.249 589.015C426.628 588.639 434.612 581.972 434.249 573.015C433.638 557.92 430.988 540.965 421.949 528.307Z" fill="white"/>
<path d="M285.728 562.404C283.893 551.285 282.093 540.158 280.222 529.045C278.324 517.771 274.448 507.447 265.674 500.047C263.33 498.07 260.899 496.225 258.459 494.385C257.6 493.738 256.743 493.09 255.895 492.429C255.844 492.389 255.812 492.365 255.768 492.33C255.675 492.25 255.563 492.155 255.413 492.028C251.756 488.933 248.223 485.7 244.857 482.264C241.868 479.213 239.01 476.031 236.282 472.719C235.601 471.892 234.928 471.058 234.264 470.216C234.149 470.071 233.534 469.276 233.129 468.757C232.752 468.238 232.063 467.3 231.947 467.136C231.171 466.039 230.409 464.932 229.661 463.814C224.565 456.179 220.152 448.109 216.474 439.699C216.109 438.865 215.753 438.026 215.406 437.182C215.313 436.924 215.192 436.593 215.032 436.153C214.291 434.115 213.551 432.079 212.873 430.016C211.433 425.636 210.195 421.19 209.159 416.68C208.647 414.453 208.186 412.215 207.776 409.965C207.564 408.808 207.367 407.649 207.183 406.487C207.152 406.295 206.973 405.041 206.867 404.333C206.789 403.621 206.643 402.361 206.624 402.167C206.506 400.996 206.402 399.824 206.312 398.651C206.107 396.01 205.969 393.366 205.897 390.717C205.774 386.01 205.858 381.302 206.149 376.595C206.315 373.951 206.552 371.313 206.843 368.68C206.86 368.518 206.874 368.39 206.887 368.274C206.904 368.156 206.925 368.023 206.949 367.856C207.165 366.401 207.391 364.948 207.645 363.5C208.604 358 209.852 352.555 211.384 347.186C212.109 344.647 212.897 342.129 213.747 339.631C214.126 338.522 214.517 337.418 214.92 336.317C214.893 336.388 216.102 333.302 216.118 333.198C220.913 321.869 228.755 311.541 228.766 298.671C228.774 289.958 221.402 281.611 212.766 282.014C208.461 282.176 204.386 284.003 201.401 287.111C198.417 290.218 196.755 294.363 196.766 298.671C196.766 298.867 196.765 299.034 196.765 299.196C196.684 299.467 196.617 299.694 196.556 299.894C195.621 301.926 194.476 303.857 193.449 305.838C190.639 311.262 188.24 316.863 185.961 322.547C182.23 331.802 179.375 341.387 177.432 351.175C173.208 372.621 172.88 394.653 176.464 416.215C182.668 454.028 203.126 490.224 231.567 514.554C234.035 516.666 236.564 518.706 239.116 520.705C240.172 521.532 241.237 522.344 242.307 523.151C242.813 523.532 244.909 525.185 243.987 524.384C245.969 526.076 246.804 526.928 247.313 528.174C247.387 528.461 247.487 528.851 247.624 529.385C247.982 530.79 248.323 532.192 248.606 533.617C251.082 546.069 252.803 558.729 254.871 571.261C256.292 579.871 266.893 585.476 274.553 582.895C283.469 579.891 287.251 571.631 285.728 562.404Z" fill="white"/>
<path d="M423.62 596.867C416.901 596.884 410.448 594.236 405.679 589.502C400.91 584.769 398.213 578.336 398.18 571.617V553.365C379.071 555.505 313.637 555.009 294.88 551.995V570.887C294.83 577.601 292.128 584.023 287.362 588.753C282.597 593.483 276.154 596.137 269.44 596.137C262.726 596.137 256.284 593.483 251.518 588.753C246.753 584.023 244.05 577.601 244 570.887V533.795C218.596 519.682 197.418 499.046 182.651 474.015C167.885 448.985 160.066 420.468 160 391.407C160 341.577 182.583 295.092 221.959 263.873C247.56 243.506 278.666 231.257 311.281 228.7C315.708 228.353 320.162 228.177 324.52 228.177C339.872 228.177 409.139 230.549 426.518 235.549L466.146 196.227C466.728 195.641 467.472 195.242 468.283 195.08C469.093 194.919 469.933 195.002 470.696 195.32C471.464 195.626 472.122 196.157 472.584 196.843C473.045 197.53 473.288 198.34 473.28 199.167V205.419L480.996 197.777C481.578 197.19 482.321 196.79 483.131 196.629C483.941 196.467 484.781 196.55 485.543 196.868C486.312 197.174 486.971 197.705 487.433 198.392C487.894 199.079 488.138 199.889 488.13 200.717V270.581C508.015 288.508 523.171 311.062 532.254 336.247C541.337 361.431 544.068 388.467 540.204 414.959C536.34 441.451 526 466.581 510.102 488.121C494.203 509.662 473.237 526.948 449.06 538.448V571.617C449.027 578.336 446.33 584.769 441.561 589.502C436.792 594.236 430.34 596.884 423.62 596.867ZM400.18 551.097V571.617C400.231 577.8 402.722 583.714 407.113 588.068C411.503 592.423 417.436 594.866 423.62 594.866C429.804 594.866 435.737 592.423 440.127 588.068C444.518 583.714 447.01 577.8 447.06 571.617V537.184L447.631 536.913C474.759 524.041 497.788 503.901 514.162 478.732C535.027 446.613 543.704 408.086 538.623 370.124C533.542 332.162 515.039 297.273 486.463 271.772L486.13 271.473V200.717C486.137 200.287 486.013 199.865 485.773 199.508C485.533 199.151 485.189 198.876 484.788 198.721C484.39 198.551 483.95 198.505 483.525 198.589C483.1 198.673 482.71 198.884 482.407 199.194L471.28 210.215V199.167C471.287 198.737 471.162 198.315 470.923 197.958C470.683 197.601 470.339 197.327 469.938 197.171C469.539 197.001 469.098 196.956 468.672 197.041C468.246 197.126 467.856 197.337 467.553 197.648L427.077 237.811L426.502 237.631C410.346 232.574 339.989 230.177 324.52 230.177C320.214 230.177 315.813 230.351 311.438 230.694C279.22 233.22 248.492 245.32 223.201 265.44C184.307 296.278 162 342.191 162 391.407C162.066 420.211 169.844 448.472 184.525 473.254C199.206 498.036 220.254 518.435 245.484 532.332L246 532.617V570.887C246.052 577.07 248.544 582.982 252.934 587.336C257.324 591.69 263.257 594.132 269.44 594.132C275.623 594.132 281.556 591.69 285.946 587.336C290.336 582.982 292.829 577.07 292.88 570.887V549.601L294.065 549.824C310.921 552.995 381.897 553.495 399.05 551.245L400.18 551.097Z" fill="#3F3D56"/>
<path d="M287.998 119.118L177.258 152.398C173.736 153.46 170.779 155.878 169.038 159.119C167.297 162.36 166.914 166.16 167.973 169.683C169.032 173.207 171.446 176.166 174.685 177.91C177.924 179.655 181.724 180.042 185.248 178.988L282.158 149.858L284.188 149.248C284.599 138.786 287.437 128.564 292.478 119.388C291.845 119.103 291.169 118.927 290.478 118.868C289.643 118.787 288.8 118.872 287.998 119.118Z" fill="#6C63FF"/>
<path d="M183.333 186.083C181.863 186.079 180.431 185.614 179.24 184.752C178.049 183.891 177.159 182.677 176.695 181.282L169.77 160.386C169.481 159.513 169.367 158.592 169.434 157.675C169.5 156.758 169.747 155.863 170.16 155.042C170.572 154.22 171.143 153.488 171.838 152.887C172.534 152.286 173.341 151.828 174.214 151.539L264.345 121.669C265.218 121.38 266.138 121.265 267.055 121.332C267.972 121.398 268.867 121.645 269.688 122.057C270.51 122.47 271.242 123.04 271.843 123.736C272.444 124.431 272.902 125.238 273.192 126.111L280.116 147.007C280.693 148.725 280.577 150.601 279.794 152.236C279.012 153.871 277.623 155.137 275.923 155.766C275.84 155.797 275.756 155.827 275.671 155.854L185.542 185.723C184.83 185.961 184.084 186.082 183.333 186.083Z" fill="#2F2E41"/>
<path d="M352.128 82.0076C333.937 82.0146 316.462 89.0998 303.403 101.763C290.344 114.427 282.724 131.675 282.158 149.858C282.138 150.568 282.128 151.288 282.128 152.008C282.128 165.852 286.233 179.386 293.925 190.897C301.617 202.409 312.549 211.381 325.34 216.679C338.131 221.977 352.206 223.364 365.784 220.663C379.363 217.962 391.836 211.295 401.625 201.505C411.415 191.715 418.082 179.243 420.783 165.664C423.484 152.085 422.098 138.011 416.799 125.22C411.501 112.429 402.529 101.496 391.018 93.8047C379.506 86.113 365.973 82.0076 352.128 82.0076ZM352.128 220.008C334.099 219.989 316.814 212.818 304.065 200.07C291.317 187.322 284.147 170.037 284.128 152.008C284.128 151.078 284.148 150.158 284.188 149.248C284.729 135.927 289.174 123.06 296.97 112.246C304.766 101.432 315.569 93.1477 328.035 88.4238C340.501 83.6999 354.081 82.7445 367.085 85.6766C380.09 88.6087 391.946 95.2988 401.179 104.915C410.412 114.531 416.615 126.649 419.016 139.763C421.417 152.876 419.91 166.406 414.684 178.669C409.457 190.933 400.741 201.39 389.618 208.74C378.496 216.09 365.459 220.008 352.128 220.008Z" fill="#3F3D56"/>
<path d="M411 152C411 167.648 404.784 182.654 393.719 193.719C382.655 204.784 367.648 211 352 211C336.352 211 321.345 204.784 310.281 193.719C299.216 182.654 293 167.648 293 152C293 150.13 293.09 148.29 293.26 146.47C294.682 131.368 301.865 117.394 313.319 107.449C324.772 97.5047 339.616 92.3534 354.768 93.065C369.92 93.7767 384.215 100.297 394.687 111.271C405.158 122.246 411 136.831 411 152Z" fill="white"/>
<path d="M369.698 155.928C368.268 154.047 366.386 152.558 364.228 151.598C361.566 150.476 358.817 149.573 356.008 148.898V132.838C360.325 133.489 364.375 135.335 367.698 138.168L370.958 131.218C369.083 129.547 366.93 128.217 364.598 127.288C362.012 126.241 359.298 125.544 356.528 125.218V117.078H348.978V125.298C346.063 125.625 343.25 126.569 340.728 128.068C338.45 129.416 336.531 131.296 335.138 133.548C333.808 135.745 333.118 138.27 333.148 140.838C333.018 143.62 333.824 146.367 335.438 148.638C336.923 150.604 338.885 152.159 341.138 153.158C343.842 154.313 346.639 155.239 349.498 155.928V171.318C344.403 170.933 339.548 168.996 335.588 165.768L332.328 172.728C334.542 174.558 337.061 175.987 339.768 176.948C342.735 178.009 345.834 178.655 348.978 178.868V186.938H356.528V178.718C360.721 178.259 364.654 176.456 367.738 173.578C369.096 172.275 370.169 170.705 370.888 168.966C371.608 167.228 371.958 165.359 371.918 163.478C372.043 160.783 371.262 158.125 369.698 155.928ZM349.498 147.198C347.659 146.64 345.949 145.722 344.468 144.498C343.881 143.975 343.417 143.33 343.109 142.607C342.802 141.884 342.658 141.103 342.688 140.318C342.633 138.536 343.288 136.807 344.508 135.508C345.86 134.145 347.605 133.239 349.498 132.918V147.198ZM360.748 168.478C359.472 169.786 357.811 170.651 356.008 170.948V157.708C357.731 158.17 359.344 158.976 360.748 160.078C361.28 160.532 361.703 161.101 361.985 161.742C362.268 162.382 362.402 163.078 362.378 163.778C362.447 165.494 361.865 167.173 360.748 168.478Z" fill="#6C63FF"/>
<path d="M186.546 270.772C185 270.769 183.498 270.257 182.274 269.314C181.049 268.371 180.169 267.05 179.771 265.556L176.001 251.286C175.529 249.492 175.788 247.585 176.721 245.982C177.653 244.379 179.184 243.211 180.976 242.735L299.917 211.305C301.712 210.837 303.619 211.098 305.221 212.033C306.824 212.967 307.991 214.498 308.468 216.29L311.662 228.38L311.063 228.427C280.559 230.799 251.372 241.858 226.956 260.298L226.782 260.382L188.322 270.541C187.743 270.694 187.146 270.772 186.546 270.772Z" fill="#2F2E41"/>
<path d="M166.847 341.258C152.895 339.197 139.551 334.151 127.725 326.466C121.866 322.661 116.443 318.225 111.551 313.238C106.723 308.313 102.105 302.716 99.7135 296.158C97.4127 290.091 97.5313 283.372 100.045 277.389C102.524 271.443 107.26 266.723 113.213 264.264C119.203 261.875 126.44 261.619 132.269 264.235C135.047 265.453 137.45 267.388 139.233 269.841C140.062 270.972 140.676 272.246 141.044 273.599C141.385 274.825 141.416 276.117 141.134 277.358C140.792 278.598 140.189 279.749 139.366 280.736C138.543 281.723 137.518 282.523 136.36 283.081C133.812 284.389 131.052 285.231 128.208 285.568C125.348 285.958 121.239 286.313 118.94 284.017C118.467 283.563 118.094 283.014 117.847 282.406C117.674 281.941 117.615 281.441 117.675 280.948C117.641 281.165 117.814 280.476 117.804 280.503C117.767 280.605 117.61 280.853 117.834 280.472C117.904 280.346 117.982 280.225 118.067 280.109C117.991 280.207 117.824 280.371 118.122 280.09C118.368 279.82 118.685 279.625 119.036 279.525C119.175 279.485 119.315 279.453 119.454 279.415C119.807 279.318 119.102 279.42 119.463 279.408C119.603 279.404 119.743 279.407 119.882 279.401C120.236 279.385 119.533 279.305 119.872 279.39C120.004 279.423 120.135 279.455 120.264 279.496C120.546 279.585 120.065 279.289 120.256 279.511C120.48 279.77 120.02 279.258 120.275 279.51C120.402 279.634 120.521 279.766 120.633 279.904C121.074 280.34 121.67 280.584 122.29 280.584C122.911 280.584 123.506 280.34 123.948 279.904C124.374 279.457 124.612 278.864 124.612 278.246C124.612 277.629 124.374 277.035 123.948 276.589C121.636 273.724 117.071 274.432 114.732 276.853C111.75 279.942 112.931 284.836 115.832 287.531C119.116 290.582 123.766 290.794 127.99 290.282C131.56 289.94 135.039 288.957 138.26 287.38C141.46 285.808 143.963 283.104 145.284 279.792C145.88 278.025 146.094 276.151 145.912 274.294C145.73 272.438 145.156 270.641 144.227 269.023C140.498 262.012 132.776 258.418 125.143 257.795C121.213 257.487 117.261 257.962 113.516 259.191C109.771 260.421 106.307 262.381 103.324 264.958C97.575 270.133 94.0349 277.32 93.4357 285.033C92.7695 293.029 95.8718 300.794 100.395 307.247C105.13 313.804 110.781 319.647 117.174 324.6C129.674 334.579 144.336 341.494 159.986 344.791C161.848 345.176 163.72 345.505 165.601 345.779C166.2 345.924 166.831 345.835 167.367 345.531C167.903 345.227 168.302 344.73 168.485 344.142C168.645 343.542 168.564 342.904 168.257 342.364C167.951 341.824 167.444 341.427 166.847 341.258Z" fill="#3F3D56"/>
<path d="M390.233 239.382C369.791 239.093 349.413 239.612 329.1 240.938C322.157 241.392 316.149 243.846 316.149 247.97C316.149 251.419 322.109 255.459 329.1 255.002C349.403 253.676 369.781 253.158 390.233 253.446C406.907 253.681 406.897 239.617 390.233 239.382Z" fill="#CCCCCC"/>
<path d="M360.02 252.749C357.811 252.749 305.914 252.667 305.914 245.498C305.914 238.33 357.811 238.248 360.02 238.248C362.229 238.248 414.125 238.33 414.125 245.498C414.125 252.667 362.229 252.749 360.02 252.749ZM307.943 245.498C309.364 247.672 328.44 250.749 360.02 250.749C391.6 250.749 410.676 247.672 412.096 245.498C410.676 243.326 391.6 240.248 360.02 240.248C328.44 240.248 309.364 243.326 307.943 245.498Z" fill="#3F3D56"/>
<path d="M524.673 441.2C536.161 440.881 550.459 440.482 561.474 432.436C564.754 429.941 567.449 426.76 569.37 423.115C571.291 419.469 572.391 415.448 572.594 411.332C572.819 404.978 570.523 399.431 566.13 395.718C560.377 390.857 551.976 389.717 542.922 392.377L552.302 323.829L545.417 322.886L534.389 403.473L540.139 400.834C546.806 397.776 555.957 396.22 561.643 401.026C563.04 402.282 564.127 403.843 564.822 405.589C565.517 407.334 565.8 409.216 565.649 411.088C565.48 414.151 564.654 417.142 563.226 419.857C561.798 422.572 559.802 424.948 557.374 426.823C548.802 433.084 537.405 433.891 524.479 434.253L524.673 441.2Z" fill="#3F3D56"/>
<path d="M505.635 329.741H468.203V336.691H505.635V329.741Z" fill="#3F3D56"/>
<path d="M203.485 302.738C201.819 302.732 200.209 302.134 198.944 301.05C197.679 299.965 196.841 298.466 196.581 296.82L194.296 282.239C194.011 280.405 194.465 278.532 195.558 277.033C196.651 275.533 198.295 274.528 200.128 274.239L321.66 255.197C323.494 254.911 325.366 255.365 326.865 256.458C328.365 257.552 329.37 259.195 329.659 261.029L331.944 275.611C332.229 277.444 331.775 279.317 330.682 280.816C329.589 282.316 327.945 283.321 326.112 283.61L204.58 302.652C204.218 302.709 203.852 302.737 203.485 302.738Z" fill="#2F2E41"/>
<path d="M153.189 131.855C181.356 131.855 204.189 109.021 204.189 80.8547C204.189 52.6882 181.356 29.8547 153.189 29.8547C125.023 29.8547 102.189 52.6882 102.189 80.8547C102.189 109.021 125.023 131.855 153.189 131.855Z" fill="#6C63FF"/>
<path d="M182.064 94.0507C183.694 93.4806 185.183 92.5681 186.431 91.3746C187.257 90.5236 187.886 89.5025 188.276 88.3826C188.665 87.2627 188.805 86.0712 188.686 84.8916C188.617 84.0508 188.354 83.2375 187.918 82.5151C187.482 81.7927 186.885 81.1809 186.174 80.7275C184.328 79.5924 181.889 79.6353 179.427 80.7768L179.143 60.8689L177.143 60.8974L177.477 84.3012L178.999 83.3027C180.765 82.1468 183.301 81.3087 185.126 82.4312C185.577 82.7283 185.954 83.1256 186.227 83.592C186.5 84.0585 186.661 84.5816 186.699 85.1207C186.783 85.9995 186.677 86.8861 186.388 87.7202C186.098 88.5543 185.633 89.3163 185.023 89.9543C182.855 92.1055 179.646 92.8262 175.983 93.4855L176.338 95.4536C178.285 95.158 180.201 94.6885 182.064 94.0507Z" fill="#2F2E41"/>
<path d="M199.737 59.4714L189.087 61.0844L189.386 63.0616L200.037 61.4487L199.737 59.4714Z" fill="#2F2E41"/>
<path d="M166.12 64.5614L155.47 66.1743L155.769 68.1515L166.419 66.5386L166.12 64.5614Z" fill="#2F2E41"/>
<path d="M186.892 301.846C185.058 301.842 183.269 301.28 181.762 300.234C180.255 299.188 179.103 297.708 178.458 295.991L143.295 201.822C138.997 190.273 139.456 177.49 144.571 166.279C149.686 155.068 159.039 146.343 170.579 142.02L199.171 131.344C200.276 130.928 201.453 130.735 202.634 130.776C203.814 130.817 204.975 131.091 206.049 131.582C207.12 132.061 208.086 132.749 208.888 133.605C209.691 134.461 210.315 135.468 210.724 136.568L275.861 259.552C276.283 260.661 276.483 261.843 276.447 263.029C276.412 264.215 276.142 265.383 275.653 266.465C275.165 267.546 274.467 268.521 273.601 269.332C272.734 270.143 271.716 270.774 270.604 271.19L190.038 301.274C189.032 301.652 187.967 301.845 186.892 301.846Z" fill="#2F2E41"/>
<path d="M190.496 134.582L255.125 221.008L211.393 135.49C211.032 134.492 210.478 133.575 209.762 132.791C209.047 132.008 208.184 131.373 207.223 130.923C206.262 130.473 205.222 130.216 204.161 130.169C203.101 130.121 202.042 130.282 201.044 130.644L190.496 134.582Z" fill="white"/>
<path d="M292.828 200.218L177.433 192.784C175.614 192.667 173.836 192.193 172.2 191.389C170.564 190.584 169.103 189.466 167.9 188.097C166.697 186.728 165.775 185.135 165.187 183.41C164.599 181.685 164.357 179.86 164.474 178.042C164.591 176.223 165.065 174.445 165.87 172.809C166.674 171.173 167.793 169.712 169.162 168.509C170.531 167.306 172.123 166.384 173.849 165.796C175.574 165.208 177.398 164.966 179.217 165.083L294.612 172.516C295.464 172.57 296.297 172.792 297.063 173.169C297.829 173.546 298.513 174.069 299.077 174.711C299.64 175.352 300.072 176.098 300.347 176.906C300.622 177.714 300.736 178.568 300.681 179.42L299.732 194.149C299.622 195.869 298.832 197.475 297.537 198.613C296.242 199.751 294.548 200.328 292.828 200.218Z" fill="#6C63FF"/>
<path d="M261.992 204.983C261.84 204.983 261.687 204.978 261.534 204.968L166.778 198.865C165.86 198.806 164.964 198.566 164.139 198.161C163.314 197.755 162.577 197.191 161.97 196.501C161.363 195.81 160.898 195.007 160.602 194.137C160.305 193.267 160.183 192.347 160.242 191.43L161.862 166.271C161.921 165.354 162.161 164.457 162.566 163.632C162.972 162.807 163.536 162.07 164.227 161.464C164.917 160.857 165.721 160.392 166.591 160.095C167.461 159.799 168.381 159.677 169.298 159.736L264.054 165.839C265.906 165.96 267.634 166.811 268.859 168.205C270.085 169.599 270.707 171.422 270.59 173.274L268.97 198.433C268.88 199.781 268.404 201.075 267.598 202.159C266.791 203.243 265.689 204.071 264.423 204.544C263.646 204.835 262.822 204.983 261.992 204.983Z" fill="#2F2E41"/>
<path d="M152.605 46.9405C159.314 41.1702 168.527 46.3321 176.222 45.4285C183.583 44.5639 189.395 37.9609 190.88 30.9461C192.612 22.7621 188.365 14.5629 182.104 9.46034C175.246 3.87176 166.151 2.26741 157.533 3.30134C147.655 4.48634 138.622 9.09069 130.516 14.6599C122.692 19.869 115.497 25.9659 109.074 32.8291C103.323 39.1807 98.4507 46.7517 96.8947 55.2988C95.4807 63.0663 96.5604 71.6738 101.152 78.254C103.587 81.6266 106.85 84.3148 110.626 86.0592C114.564 87.9927 118.764 89.3749 122.579 91.5609C128.346 94.8662 133.952 101.72 132.145 108.852C131.758 110.41 130.994 111.849 129.919 113.042C128.629 114.475 126.301 112.581 127.595 111.145C129.868 108.622 129.778 105.257 128.567 102.245C127.126 98.8502 124.576 96.0456 121.333 94.2903C117.34 92.0073 112.932 90.5982 108.839 88.5187C104.922 86.6191 101.522 83.8013 98.9278 80.3049C94.0296 73.4979 92.5645 64.639 93.6753 56.4439C94.8775 47.5755 99.434 39.5167 105.146 32.7634C111.362 25.414 118.998 19.1929 126.798 13.6041C135.169 7.60721 144.416 2.53729 154.649 0.70358C163.519 -0.88596 173.133 0.0926609 180.89 4.92651C188.13 9.4386 193.682 17.2003 194.234 25.8732C194.433 29.8194 193.576 33.7471 191.752 37.2521C189.928 40.7572 187.203 43.7129 183.858 45.8153C180.425 47.8695 176.434 48.794 172.448 48.4586C168.186 48.1858 163.921 46.8808 159.632 47.2431C157.691 47.3609 155.842 48.1082 154.364 49.3716C152.898 50.6324 151.151 48.1909 152.605 46.9405Z" fill="#2F2E41"/>
<path d="M739.485 597.175H1.19115C0.875955 597.174 0.573992 597.048 0.35144 596.825C0.128889 596.602 0.00390625 596.3 0.00390625 595.984C0.00390625 595.669 0.128889 595.367 0.35144 595.144C0.573992 594.921 0.875955 594.795 1.19115 594.794H739.485C739.801 594.794 740.104 594.919 740.327 595.143C740.55 595.366 740.676 595.669 740.676 595.984C740.676 596.3 740.55 596.603 740.327 596.826C740.104 597.05 739.801 597.175 739.485 597.175Z" fill="#3F3D56"/>
</g>
<defs>
<clipPath id="clip0_144_2561">
<rect width="740.675" height="597.175" fill="white"/>
</clipPath>
</defs>
</svg>
