<svg width="1048" height="767" viewBox="0 0 1048 767" fill="none" xmlns="http://www.w3.org/2000/svg">
<path d="M1028.76 22H445.936V409.512H1028.76V22Z" fill="#F2F2F2"/>
<path d="M1028.76 22H445V47.2725H1028.76V22Z" fill="#6C63FF"/>
<path d="M467.678 63.3602C470.261 63.3602 472.355 61.2648 472.355 58.6801C472.355 56.0954 470.261 54 467.678 54C465.094 54 463 56.0954 463 58.6801C463 61.2648 465.094 63.3602 467.678 63.3602Z" fill="#6C63FF"/>
<path d="M485.452 63.3602C488.036 63.3602 490.13 61.2648 490.13 58.6801C490.13 56.0954 488.036 54 485.452 54C482.869 54 480.775 56.0954 480.775 58.6801C480.775 61.2648 482.869 63.3602 485.452 63.3602Z" fill="#6C63FF"/>
<path d="M502.76 63.3602C505.085 63.3602 506.969 61.2648 506.969 58.6801C506.969 56.0954 505.085 54 502.76 54C500.435 54 498.55 56.0954 498.55 58.6801C498.55 61.2648 500.435 63.3602 502.76 63.3602Z" fill="#6C63FF"/>
<path d="M962.342 103.434H821.079V353.351H962.342V103.434Z" fill="#F2F2F2"/>
<path d="M737 103H463V173H737V103Z" fill="#6C63FF"/>
<path d="M737 191H463V265H737V191Z" fill="#E6E6E6"/>
<path d="M737 285H463V353H737V285Z" fill="#E6E6E6"/>
<g clip-path="url(#clip0_136_1427)">
<path d="M353.712 745.555H128.768C104.381 745.555 84.54 725.704 84.54 701.303V271.251C84.54 246.851 104.381 227 128.768 227H353.712C378.098 227 397.939 246.851 397.939 271.251V701.303C397.939 725.704 378.098 745.555 353.712 745.555Z" fill="#3F3D56"/>
<path d="M397.939 385.187C396.907 385.187 396.068 386.027 396.068 387.059V446.965C396.068 447.997 396.907 448.837 397.939 448.837C398.971 448.837 399.81 447.997 399.81 446.965V387.059C399.81 386.027 398.971 385.187 397.939 385.187Z" fill="#F2F2F2"/>
<path d="M393.729 271.251V701.296C393.729 722.534 377.208 739.907 356.318 741.255H356.308C356 741.273 355.691 741.292 355.373 741.301C354.821 741.329 354.269 741.339 353.708 741.339C353.708 741.339 351.65 741.189 347.889 740.908C344.091 740.627 338.562 740.206 331.667 739.654C329.599 739.495 327.42 739.317 325.118 739.13C320.534 738.755 315.501 738.344 310.103 737.876C307.952 737.698 305.725 737.501 303.452 737.305C291.833 736.303 278.819 735.133 265.095 733.804C262.775 733.589 260.436 733.364 258.079 733.13C257.462 733.064 256.835 733.008 256.208 732.943C246.422 731.979 236.366 730.94 226.271 729.835C225.645 729.77 225.018 729.704 224.4 729.639C207.009 727.72 189.552 725.632 173.218 723.386C160.654 721.664 148.754 719.848 138.071 717.966C134.59 717.349 131.241 716.731 128.042 716.104C127.415 715.982 126.788 715.86 126.171 715.729C103.559 711.199 88.75 706.313 88.75 701.296V271.251C88.75 249.133 106.665 231.208 128.772 231.208H152.665C156.482 231.208 159.55 234.185 159.878 237.995C159.906 238.247 159.934 238.5 159.98 238.753C160.673 242.581 164.181 245.249 168.073 245.249H314.407C318.298 245.249 321.807 242.581 322.499 238.753C322.546 238.5 322.574 238.247 322.602 237.995C322.929 234.185 325.998 231.208 329.815 231.208H353.708C375.814 231.208 393.729 249.133 393.729 271.251Z" fill="white"/>
<path d="M83.6044 340.259C82.5725 340.259 81.7334 341.098 81.7334 342.131V357.107C81.7334 358.139 82.5725 358.979 83.6044 358.979C84.6363 358.979 85.4755 358.139 85.4755 357.107V342.131C85.4755 341.098 84.6363 340.259 83.6044 340.259Z" fill="#F2F2F2"/>
<path d="M83.6044 385.187C82.5725 385.187 81.7334 386.027 81.7334 387.059V416.076C81.7334 417.108 82.5725 417.948 83.6044 417.948C84.6363 417.948 85.4755 417.108 85.4755 416.076V387.059C85.4755 386.027 84.6363 385.187 83.6044 385.187Z" fill="#F2F2F2"/>
<path d="M83.6044 426.372C82.5725 426.372 81.7334 427.212 81.7334 428.244V457.261C81.7334 458.293 82.5725 459.133 83.6044 459.133C84.6363 459.133 85.4755 458.293 85.4755 457.261V428.244C85.4755 427.212 84.6363 426.372 83.6044 426.372Z" fill="#F2F2F2"/>
<path d="M150.494 237.764H117.751C116.718 237.764 115.88 238.603 115.88 239.636V240.572C115.88 241.606 116.718 242.444 117.751 242.444H150.494C151.527 242.444 152.365 241.606 152.365 240.572V239.636C152.365 238.603 151.527 237.764 150.494 237.764Z" fill="#F2F2F2"/>
<path d="M335.727 242.444C337.794 242.444 339.469 240.768 339.469 238.7C339.469 236.633 337.794 234.956 335.727 234.956C333.66 234.956 331.985 236.633 331.985 238.7C331.985 240.768 333.66 242.444 335.727 242.444Z" fill="#3F3D56"/>
<path d="M346.017 242.444C348.084 242.444 349.76 240.768 349.76 238.7C349.76 236.633 348.084 234.956 346.017 234.956C343.951 234.956 342.275 236.633 342.275 238.7C342.275 240.768 343.951 242.444 346.017 242.444Z" fill="#3F3D56"/>
<path d="M356.308 242.444C358.375 242.444 360.051 240.768 360.051 238.7C360.051 236.633 358.375 234.956 356.308 234.956C354.242 234.956 352.566 236.633 352.566 238.7C352.566 240.768 354.242 242.444 356.308 242.444Z" fill="#3F3D56"/>
<path d="M134.037 374.353C144.065 374.353 152.195 366.391 152.195 356.569C152.195 346.747 144.065 338.784 134.037 338.784C124.009 338.784 115.88 346.747 115.88 356.569C115.88 366.391 124.009 374.353 134.037 374.353Z" fill="#6C63FF"/>
<path d="M279.598 350.485H181.864C178.511 350.485 175.783 347.755 175.783 344.401C175.783 341.046 178.511 338.316 181.864 338.316H279.598C282.951 338.316 285.679 341.046 285.679 344.401C285.679 347.755 282.951 350.485 279.598 350.485Z" fill="#E6E6E6"/>
<path d="M355.87 371.077H181.864C178.511 371.077 175.783 368.348 175.783 364.993C175.783 361.638 178.511 358.909 181.864 358.909H355.87C359.223 358.909 361.951 361.638 361.951 364.993C361.951 368.348 359.223 371.077 355.87 371.077Z" fill="#E6E6E6"/>
<path d="M157.277 284.963H120.09C117.511 284.963 115.412 282.864 115.412 280.283C115.412 277.703 117.511 275.603 120.09 275.603H157.277C159.856 275.603 161.954 277.703 161.954 280.283C161.954 282.864 159.856 284.963 157.277 284.963Z" fill="#E6E6E6"/>
<path d="M355.403 276.071H318.216C315.891 276.071 314.006 277.957 314.006 280.283C314.006 282.61 315.891 284.495 318.216 284.495H355.403C357.728 284.495 359.612 282.61 359.612 280.283C359.612 277.957 357.728 276.071 355.403 276.071Z" fill="#6C63FF"/>
<path d="M302.078 284.963H264.891C262.312 284.963 260.213 282.864 260.213 280.283C260.213 277.703 262.312 275.603 264.891 275.603H302.078C304.657 275.603 306.755 277.703 306.755 280.283C306.755 282.864 304.657 284.963 302.078 284.963Z" fill="#E6E6E6"/>
<path d="M346.451 489.429H54.0922C45.6443 489.429 38.7715 483.238 38.7715 475.628V415.23C38.7715 407.62 45.6443 401.429 54.0922 401.429H346.451C354.899 401.429 361.771 407.62 361.771 415.23V475.628C361.771 483.238 354.899 489.429 346.451 489.429Z" fill="#6C63FF"/>
<path d="M348.824 542.619H313.275C306.826 542.619 301.581 537.37 301.581 530.919V519.297C301.581 512.846 306.826 507.597 313.275 507.597H348.824C355.272 507.597 360.518 512.846 360.518 519.297V530.919C360.518 537.37 355.272 542.619 348.824 542.619Z" fill="#F2F2F2"/>
<path d="M319.396 735.24L311.062 735.239L307.097 703.073L319.398 703.074L319.396 735.24Z" fill="#FFB6B6"/>
<path d="M319.689 743.939L294.059 743.938V743.614C294.059 738.102 298.526 733.633 304.035 733.633L308.717 730.079L317.452 733.633L319.69 733.633L319.689 743.939Z" fill="#2F2E41"/>
<path d="M371.285 735.24L362.951 735.239L358.986 703.073L371.287 703.074L371.285 735.24Z" fill="#FFB6B6"/>
<path d="M371.578 743.939L345.948 743.938V743.614C345.949 738.102 350.415 733.633 355.924 733.633L360.607 730.079L369.342 733.633L371.579 733.633L371.578 743.939Z" fill="#2F2E41"/>
<path d="M388.119 488.921H316.537L307.848 515.778L305.75 629.995L306.118 719.119L322.42 719.18L336.777 623.38C336.777 623.38 335.18 613.957 337.993 615.266C340.806 616.576 336.052 605.014 339.364 606.115C342.677 607.215 345.9 562.503 345.9 562.503L353.799 629.995L358.872 719.119H373.574L385.904 581.655C385.904 581.655 382.032 573.335 387.145 567.811C392.259 562.287 391.735 516.644 391.735 516.644L388.119 488.921Z" fill="#2F2E41"/>
<path d="M390.006 487.224C390.006 487.224 396.869 497.005 390.881 512.326C380.93 537.789 314.912 516.373 310.869 500.509C304.659 498.365 315.012 495.227 311.965 490.024C311.779 489.707 313.676 496.765 312.172 488.955C309.759 476.418 313.902 437.904 313.902 437.904L315.27 415.047C316.595 392.907 325.592 371.922 340.711 355.702L375.086 355.702L390.006 379.93L391.551 440.655L390.006 487.224Z" fill="#3F3D56"/>
<path d="M285.226 489.535L295.885 473.367L305.18 478.737L293.355 495.392C293.392 496.035 293.346 496.694 293.203 497.353C292.428 500.939 289.141 503.158 285.862 502.309C282.584 501.461 280.555 497.867 281.33 494.281C281.825 491.995 283.342 490.269 285.226 489.535Z" fill="#FFB6B6"/>
<path d="M335.676 360.894C323.736 360.894 313.912 370.297 313.382 382.232L311.102 433.646C311.102 433.646 311.085 436.501 310.029 435.656C308.973 434.81 308.884 437.801 308.884 437.801C308.884 437.801 308.836 442.374 307.84 439.756C306.844 437.138 306.709 441.876 306.709 441.876L292.207 466.84C294.155 470.872 292.642 475.857 292.159 479.917L302.586 489.52C302.586 489.52 302.495 486.637 304.742 486.685C318.521 486.983 332.628 449.747 332.391 435.974C332.12 420.259 335.676 360.894 335.676 360.894Z" fill="#3F3D56"/>
<path d="M340.574 289.361L351.233 305.528L360.528 300.159L348.703 283.504C348.74 282.861 348.694 282.202 348.552 281.543C347.776 277.957 344.489 275.738 341.211 276.586C337.932 277.435 335.903 281.029 336.678 284.614C337.173 286.901 338.691 288.627 340.574 289.361Z" fill="#FFB6B6"/>
<path d="M391.024 418.002C379.084 418.002 369.26 408.599 368.731 396.664L366.45 345.25C366.45 345.25 366.433 342.395 365.377 343.24C364.321 344.086 364.232 341.095 364.232 341.095C364.232 341.095 364.184 336.521 363.188 339.14C362.192 341.758 362.057 337.02 362.057 337.02L343.094 301.497L344.171 296.863L354.548 289.076C354.548 289.076 358.742 290.411 360.091 292.21C366.896 301.287 387.487 329.807 387.739 342.922C388.041 358.636 391.024 418.002 391.024 418.002Z" fill="#3F3D56"/>
<path d="M348.94 350.506C349.448 350.623 349.956 350.725 350.465 350.803C352.045 351.061 353.625 351.139 355.165 351.046C359.842 350.803 364.254 349.074 367.82 346.225C371.59 343.22 374.406 338.971 375.587 333.916C378.363 321.982 370.941 310.04 359.013 307.262C347.258 304.515 335.503 311.684 332.499 323.312C332.452 323.492 332.405 323.664 332.366 323.844C329.59 335.786 337.004 347.72 348.94 350.506Z" fill="#FFB6B6"/>
<path d="M376.739 336.164C373.643 344.341 365.808 350.822 357.073 351.211C355.586 351.272 354.038 351.159 352.723 350.45C351.4 349.749 350.38 348.339 350.492 346.85C350.726 343.917 354.712 342.792 355.837 340.066C356.58 338.267 355.724 335.956 353.977 335.082C352.23 334.217 349.869 334.909 348.875 336.597C350.691 333.828 349.627 329.925 347.335 327.546C345.052 325.158 341.844 323.938 338.748 322.778L338.679 321.601C336.491 322.441 334.104 320.753 333.152 318.564C334.259 317.223 334.96 315.596 335.634 313.996C334.726 314.636 333.715 315.103 332.642 315.389C332.703 313.485 329.849 312.577 330.333 310.708C331.008 308.112 334.908 304.227 333.628 301.873C336.015 302.548 337.572 305.334 336.897 307.722C337.753 305.386 338.609 303.05 339.466 300.705C340.132 302.332 340.797 303.958 341.472 305.576C344.732 303.543 348.105 301.475 351.893 300.826C355.681 300.169 360.04 301.276 362.158 304.495C364.364 303.154 367.321 303.569 369.501 304.962C371.68 306.355 373.202 308.562 374.421 310.846C378.555 318.547 379.835 327.996 376.739 336.164Z" fill="#2F2E41"/>
<path d="M489.404 729.292C491.337 729.414 492.405 727.011 490.943 725.611L490.797 725.032C490.817 724.986 490.836 724.94 490.855 724.893C492.81 720.23 499.434 720.262 501.372 724.932C503.092 729.077 505.282 733.229 505.821 737.612C506.063 739.546 505.954 741.517 505.525 743.415C509.555 734.607 511.676 724.988 511.676 715.315C511.676 712.885 511.543 710.455 511.271 708.03C511.047 706.047 510.739 704.077 510.341 702.124C508.183 691.568 503.513 681.514 496.775 673.117C493.537 671.346 490.836 668.577 489.204 665.258C488.618 664.061 488.159 662.773 487.941 661.461C488.31 661.509 489.331 655.893 489.053 655.548C489.567 654.768 490.486 654.381 491.047 653.62C493.837 649.835 497.681 650.496 499.688 655.639C503.975 657.804 504.016 661.394 501.386 664.847C499.712 667.043 499.482 670.016 498.014 672.367C498.165 672.561 498.322 672.748 498.473 672.942C501.243 676.497 503.639 680.317 505.659 684.332C505.088 679.87 505.931 674.496 507.368 671.031C509.003 667.084 512.069 663.759 514.768 660.347C518.011 656.247 524.66 658.036 525.231 663.233C525.236 663.283 525.242 663.333 525.247 663.383C524.846 663.61 524.453 663.85 524.07 664.104C521.881 665.552 522.637 668.947 525.231 669.347L525.289 669.357C525.144 670.801 524.897 672.234 524.534 673.643C527.997 687.043 520.521 691.923 509.845 692.142C509.609 692.263 509.38 692.384 509.144 692.499C510.226 695.546 511.09 698.672 511.73 701.84C512.304 704.639 512.703 707.468 512.927 710.31C513.205 713.895 513.18 717.498 512.878 721.077L512.896 720.95C513.664 717.008 515.803 713.326 518.909 710.775C523.535 706.972 530.072 705.572 535.064 702.515C537.466 701.044 540.545 702.945 540.126 705.733L540.105 705.866C539.362 706.168 538.637 706.519 537.936 706.912C537.535 707.138 537.142 707.379 536.759 707.633C534.57 709.081 535.326 712.475 537.92 712.876L537.978 712.885C538.021 712.891 538.057 712.897 538.099 712.903C536.824 715.932 535.048 718.743 532.824 721.167C530.659 732.865 521.359 733.975 511.41 730.568H511.404C510.316 735.308 508.727 739.939 506.685 744.352H489.827C489.766 744.165 489.712 743.972 489.657 743.784C491.216 743.881 492.787 743.79 494.322 743.506C493.071 741.971 491.821 740.423 490.57 738.887C490.54 738.857 490.515 738.827 490.491 738.797C489.857 738.011 489.216 737.231 488.582 736.445L488.582 736.444C488.542 734.031 488.831 731.626 489.404 729.292Z" fill="#F2F2F2"/>
<path d="M23 744.403C23 745.02 23.4959 745.517 24.1133 745.517H538.92C539.538 745.517 540.033 745.02 540.033 744.403C540.033 743.785 539.538 743.289 538.92 743.289H24.1133C23.4959 743.289 23 743.785 23 744.403Z" fill="#CCCCCC"/>
<path d="M154.486 235.929H119.486C118.382 235.929 117.486 236.825 117.486 237.929V238.929C117.486 240.034 118.382 240.929 119.486 240.929H154.486C155.591 240.929 156.486 240.034 156.486 238.929V237.929C156.486 236.825 155.591 235.929 154.486 235.929Z" fill="#3F3D56"/>
<path d="M436.009 473L436.089 476.002L421.301 476.377L422.757 491.099L419.768 491.392L418 473.461L436.009 473Z" fill="#6C63FF"/>
</g>
<g clip-path="url(#clip1_136_1427)">
<path d="M1014.35 108.796V345.893C1014.35 346.676 1014.25 347.452 1014.06 348.176C1013.87 348.9 1013.59 349.558 1013.24 350.113C1012.89 350.667 1012.47 351.107 1012.01 351.407C1011.55 351.707 1011.06 351.862 1010.57 351.862H755.495C755.314 351.864 755.132 351.842 754.953 351.795C754.053 351.591 753.231 350.882 752.635 349.797C752.04 348.713 751.712 347.327 751.712 345.893V108.796C751.712 107.213 752.11 105.695 752.819 104.576C753.528 103.456 754.49 102.827 755.493 102.826H1010.56C1011.06 102.826 1011.55 102.98 1012.01 103.28C1012.47 103.58 1012.89 104.019 1013.24 104.573C1013.59 105.127 1013.87 105.784 1014.06 106.508C1014.25 107.232 1014.35 108.008 1014.35 108.792V108.796Z" fill="#E6E6E6"/>
<path d="M813.5 228C834.211 228 851 210.814 851 189.614C851 168.414 834.211 151.228 813.5 151.228C792.789 151.228 776 168.414 776 189.614C776 210.814 792.789 228 813.5 228Z" fill="#6C63FF"/>
<path d="M920.081 352.813H757.272C757.068 352.817 756.864 352.791 756.664 352.737L833.665 142.273C834.135 140.962 834.817 139.872 835.641 139.113C836.466 138.355 837.403 137.955 838.357 137.955C839.312 137.955 840.249 138.355 841.074 139.113C841.898 139.872 842.58 140.962 843.05 142.273L894.727 283.51L897.203 290.269L920.081 352.813Z" fill="#3F3D56"/>
<path opacity="0.2" d="M920.081 352.812H864.494L891.781 290.268L893.746 285.763L894.727 283.51L897.204 290.268L920.081 352.812Z" fill="black"/>
<path d="M1010.73 352.813H869.916L897.204 290.269L899.167 285.763L934.725 204.256C937.057 198.914 942.665 198.582 945.405 203.249C945.59 203.567 945.761 203.904 945.918 204.256L1010.73 352.813Z" fill="#3F3D56"/>
</g>
<path d="M82.3045 203.609C96.8321 203.609 108.609 191.832 108.609 177.304C108.609 162.777 96.8321 151 82.3045 151C67.7769 151 56 162.777 56 177.304C56 191.832 67.7769 203.609 82.3045 203.609Z" fill="#6C63FF"/>
<path d="M78.7158 190.995C78.2615 190.995 77.8135 190.889 77.4072 190.686C77.001 190.483 76.6476 190.188 76.3752 189.824L69.1989 180.256C68.9684 179.948 68.8006 179.598 68.7053 179.226C68.6099 178.854 68.5888 178.467 68.6432 178.086C68.6975 177.706 68.8263 177.34 69.022 177.009C69.2178 176.679 69.4768 176.39 69.7842 176.159C70.0916 175.929 70.4414 175.761 70.8136 175.666C71.1858 175.57 71.5732 175.549 71.9536 175.604C72.334 175.658 72.6999 175.787 73.0305 175.982C73.3612 176.178 73.65 176.437 73.8805 176.745L78.5755 183.004L90.6339 164.917C90.847 164.597 91.121 164.322 91.4403 164.108C91.7596 163.894 92.1179 163.745 92.4948 163.67C92.8716 163.595 93.2596 163.594 93.6367 163.669C94.0137 163.743 94.3724 163.891 94.6921 164.104C95.0119 164.318 95.2865 164.592 95.5004 164.911C95.7142 165.23 95.863 165.589 95.9384 165.966C96.0137 166.343 96.014 166.731 95.9393 167.108C95.8647 167.485 95.7165 167.843 95.5032 168.163L81.1506 189.692C80.891 190.081 80.5418 190.402 80.1323 190.629C79.7228 190.856 79.265 190.981 78.7973 190.994C78.7701 190.994 78.7429 190.995 78.7158 190.995Z" fill="white"/>
<path d="M575.397 487.329C528.251 506.714 474.017 504.028 423.274 479.797C423.024 479.678 422.813 479.455 422.686 479.177C422.559 478.9 422.527 478.59 422.597 478.317C422.667 478.044 422.833 477.829 423.059 477.72C423.285 477.611 423.553 477.616 423.802 477.735C474.077 501.742 527.812 504.403 574.523 485.197C640.114 458.31 683.357 393.253 690.199 311.17C690.21 311.026 690.247 310.89 690.307 310.77C690.367 310.649 690.449 310.547 690.548 310.469C690.647 310.391 690.761 310.339 690.884 310.315C691.007 310.291 691.137 310.296 691.265 310.33C691.393 310.364 691.517 310.426 691.631 310.512C691.745 310.599 691.846 310.708 691.928 310.834C692.01 310.96 692.072 311.1 692.109 311.246C692.147 311.392 692.16 311.541 692.148 311.685C688.821 352.146 676.35 389.518 655.917 420.257C635.485 450.996 607.769 474.083 575.397 487.329Z" fill="#6C63FF"/>
<defs>
<clipPath id="clip0_136_1427">
<rect width="517.165" height="518.555" fill="white" transform="translate(23 227)"/>
</clipPath>
<clipPath id="clip1_136_1427">
<rect width="277" height="250" fill="white" transform="translate(752 103)"/>
</clipPath>
</defs>
</svg>
