<svg xmlns="http://www.w3.org/2000/svg" xmlns:xlink="http://www.w3.org/1999/xlink" width="500" zoomAndPan="magnify" viewBox="0 0 375 374.999991" height="500" preserveAspectRatio="xMidYMid meet" version="1.0"><defs><g/><clipPath id="51fb4ae709"><path d="M 82.714844 37.5 L 133 37.5 L 133 330 L 82.714844 330 Z M 82.714844 37.5 " clip-rule="nonzero"/></clipPath><clipPath id="a57ab173be"><path d="M 232.714844 37.5 L 282.179688 37.5 L 282.179688 330 L 232.714844 330 Z M 232.714844 37.5 " clip-rule="nonzero"/></clipPath><clipPath id="feb581341a"><path d="M 158 37.5 L 180 37.5 L 180 77 L 158 77 Z M 158 37.5 " clip-rule="nonzero"/></clipPath><clipPath id="a4851653b9"><path d="M 188 37.5 L 210 37.5 L 210 77 L 188 77 Z M 188 37.5 " clip-rule="nonzero"/></clipPath><clipPath id="0b5fe15474"><path d="M 133.5 108.148438 L 179 108.148438 L 179 235 L 133.5 235 Z M 133.5 108.148438 " clip-rule="nonzero"/></clipPath><clipPath id="d8ad05836c"><path d="M 185 132 L 231 132 L 231 259.648438 L 185 259.648438 Z M 185 132 " clip-rule="nonzero"/></clipPath><clipPath id="06e70584b4"><path d="M 245 113 L 253.5 113 L 253.5 121 L 245 121 Z M 245 113 " clip-rule="nonzero"/></clipPath></defs><rect x="-37.5" width="450" fill="#ffffff" y="-37.499999" height="449.999989" fill-opacity="1"/><rect x="-37.5" width="450" fill="#545454" y="-37.499999" height="449.999989" fill-opacity="1"/><g clip-path="url(#51fb4ae709)"><path fill="#d9d9d9" d="M 122.054688 37.5 C 124.9375 37.5 127.335938 38.484375 129.25 40.457031 C 131.160156 42.429688 132.117188 44.828125 132.117188 47.644531 C 132.117188 50.527344 131.160156 52.902344 129.25 54.78125 C 127.335938 56.660156 124.9375 57.601562 122.054688 57.601562 L 102.777344 57.601562 L 102.777344 309.902344 L 122.054688 309.902344 C 124.9375 309.902344 127.335938 310.839844 129.25 312.71875 C 131.160156 314.597656 132.117188 316.976562 132.117188 319.859375 C 132.117188 322.800781 131.160156 325.226562 129.25 327.136719 C 127.335938 329.042969 124.9375 330 122.054688 330 L 92.8125 330 C 89.863281 330 87.453125 329.042969 85.570312 327.136719 C 83.6875 325.226562 82.75 322.800781 82.75 319.859375 L 82.75 47.644531 C 82.75 44.828125 83.6875 42.429688 85.570312 40.457031 C 87.453125 38.484375 89.863281 37.5 92.8125 37.5 L 122.054688 37.5 " fill-opacity="1" fill-rule="nonzero"/></g><path fill="#d9d9d9" d="M 183.90625 297.964844 C 182.171875 297.964844 180.550781 298.292969 179.050781 298.949219 C 177.546875 299.609375 176.246094 300.492188 175.140625 301.605469 C 174.039062 302.71875 173.164062 304.027344 172.519531 305.527344 C 171.875 307.027344 171.550781 308.617188 171.550781 310.308594 C 171.550781 311.996094 171.875 313.589844 172.519531 315.09375 C 173.164062 316.589844 174.039062 317.898438 175.140625 319.011719 C 176.246094 320.125 177.546875 321.007812 179.050781 321.664062 C 180.550781 322.324219 182.171875 322.652344 183.90625 322.652344 C 185.621094 322.652344 187.230469 322.324219 188.730469 321.664062 C 190.230469 321.007812 191.542969 320.121094 192.65625 318.992188 C 193.769531 317.871094 194.652344 316.5625 195.296875 315.074219 C 195.941406 313.585938 196.265625 311.996094 196.265625 310.308594 C 196.265625 308.617188 195.941406 307.03125 195.296875 305.542969 C 194.652344 304.054688 193.769531 302.746094 192.65625 301.621094 C 191.542969 300.496094 190.230469 299.609375 188.730469 298.949219 C 187.230469 298.292969 185.621094 297.964844 183.90625 297.964844 Z M 203.621094 310.308594 C 203.621094 315.792969 201.699219 320.4375 197.847656 324.234375 C 193.953125 328.078125 189.304688 330 183.90625 330 C 178.460938 330 173.816406 328.078125 169.964844 324.234375 C 166.117188 320.386719 164.191406 315.746094 164.191406 310.308594 C 164.191406 304.871094 166.117188 300.226562 169.964844 296.382812 C 173.816406 292.539062 178.460938 290.617188 183.90625 290.617188 C 189.304688 290.617188 193.953125 292.539062 197.847656 296.382812 C 199.773438 298.304688 201.210938 300.425781 202.160156 302.746094 C 203.113281 305.070312 203.597656 307.589844 203.621094 310.308594 " fill-opacity="1" fill-rule="nonzero"/><g clip-path="url(#a57ab173be)"><path fill="#d9d9d9" d="M 272.117188 37.5 C 275 37.5 277.398438 38.484375 279.3125 40.457031 C 281.222656 42.429688 282.179688 44.828125 282.179688 47.644531 L 282.179688 319.859375 C 282.179688 322.800781 281.222656 325.226562 279.3125 327.136719 C 277.398438 329.042969 275 330 272.117188 330 L 242.875 330 C 239.925781 330 237.511719 329.042969 235.632812 327.136719 C 233.75 325.226562 232.8125 322.800781 232.8125 319.859375 C 232.8125 316.976562 233.75 314.597656 235.632812 312.71875 C 237.511719 310.839844 239.925781 309.902344 242.875 309.902344 L 262.054688 309.902344 L 262.054688 57.601562 L 242.875 57.601562 C 239.925781 57.601562 237.511719 56.660156 235.632812 54.78125 C 233.75 52.902344 232.8125 50.527344 232.8125 47.644531 C 232.8125 44.828125 233.75 42.429688 235.632812 40.457031 C 237.511719 38.484375 239.925781 37.5 242.875 37.5 L 272.117188 37.5 " fill-opacity="1" fill-rule="nonzero"/></g><g clip-path="url(#feb581341a)"><path fill="#d9d9d9" d="M 179.515625 48.242188 C 179.515625 51.066406 179.25 54.113281 178.71875 57.390625 C 178.191406 60.667969 177.410156 63.707031 176.375 66.507812 C 175.339844 69.304688 174.066406 71.625 172.550781 73.464844 C 171.035156 75.304688 169.292969 76.226562 167.324219 76.226562 C 165.503906 76.226562 163.976562 75.59375 162.742188 74.335938 C 161.503906 73.074219 160.886719 71.535156 160.886719 69.722656 C 160.886719 68.15625 161.441406 66.757812 162.554688 65.523438 C 163.664062 64.289062 164.21875 63.015625 164.21875 61.703125 C 164.21875 59.886719 163.183594 57.921875 161.113281 55.804688 C 159.046875 53.738281 158.007812 51.214844 158.007812 48.242188 C 158.007812 45.265625 159.058594 42.730469 161.152344 40.640625 C 163.246094 38.546875 165.785156 37.5 168.761719 37.5 C 171.742188 37.5 174.277344 38.546875 176.375 40.640625 C 178.46875 42.730469 179.515625 45.265625 179.515625 48.242188 " fill-opacity="1" fill-rule="nonzero"/></g><g clip-path="url(#a4851653b9)"><path fill="#d9d9d9" d="M 209.808594 48.242188 C 209.808594 51.066406 209.539062 54.113281 209.011719 57.390625 C 208.480469 60.667969 207.699219 63.707031 206.664062 66.507812 C 205.628906 69.304688 204.355469 71.625 202.839844 73.464844 C 201.324219 75.304688 199.585938 76.226562 197.613281 76.226562 C 195.796875 76.226562 194.273438 75.59375 193.035156 74.335938 C 191.796875 73.074219 191.179688 71.535156 191.179688 69.722656 C 191.179688 68.15625 191.734375 66.757812 192.84375 65.523438 C 193.957031 64.289062 194.507812 63.015625 194.507812 61.703125 C 194.507812 59.886719 193.476562 57.921875 191.40625 55.804688 C 189.335938 53.738281 188.300781 51.214844 188.300781 48.242188 C 188.300781 45.265625 189.347656 42.730469 191.441406 40.640625 C 193.539062 38.546875 196.078125 37.5 199.054688 37.5 C 202.03125 37.5 204.570312 38.546875 206.664062 40.640625 C 208.757812 42.730469 209.808594 45.265625 209.808594 48.242188 " fill-opacity="1" fill-rule="nonzero"/></g><g clip-path="url(#0b5fe15474)"><path fill="#5e17eb" d="M 133.535156 179.449219 L 133.535156 163.617188 C 136.738281 163.445312 139.152344 162.960938 140.777344 162.167969 C 142.398438 161.375 143.804688 160.046875 144.988281 158.175781 C 146.175781 156.308594 146.984375 153.96875 147.425781 151.152344 C 147.773438 149.042969 147.949219 145.371094 147.949219 140.136719 C 147.949219 131.609375 148.34375 125.660156 149.136719 122.296875 C 149.925781 118.933594 151.351562 116.230469 153.414062 114.1875 C 155.476562 112.140625 158.480469 110.523438 162.429688 109.339844 C 165.105469 108.546875 169.320312 108.152344 175.066406 108.152344 L 178.554688 108.152344 L 178.554688 123.914062 C 173.683594 123.914062 170.558594 124.191406 169.175781 124.738281 C 167.792969 125.289062 166.773438 126.121094 166.117188 127.242188 C 165.457031 128.367188 165.128906 130.289062 165.128906 133.015625 C 165.128906 135.785156 164.929688 141.039062 164.535156 148.777344 C 164.316406 153.132812 163.746094 156.660156 162.824219 159.363281 C 161.902344 162.070312 160.730469 164.300781 159.304688 166.058594 C 157.878906 167.816406 155.695312 169.644531 152.753906 171.535156 C 155.34375 173.027344 157.460938 174.777344 159.105469 176.777344 C 160.753906 178.777344 162.011719 181.207031 162.890625 184.066406 C 163.769531 186.921875 164.339844 190.75 164.601562 195.539062 C 164.910156 202.839844 165.0625 207.5 165.0625 209.523438 C 165.0625 212.425781 165.414062 214.445312 166.117188 215.589844 C 166.816406 216.734375 167.882812 217.601562 169.308594 218.195312 C 170.734375 218.789062 173.816406 219.085938 178.554688 219.085938 L 178.554688 234.914062 L 175.066406 234.914062 C 169.144531 234.914062 164.601562 234.441406 161.441406 233.496094 C 158.285156 232.550781 155.617188 230.980469 153.445312 228.78125 C 151.273438 226.582031 149.816406 223.867188 149.070312 220.636719 C 148.324219 217.402344 147.949219 212.316406 147.949219 205.367188 C 147.949219 197.277344 147.597656 192.023438 146.898438 189.605469 C 145.929688 186.085938 144.472656 183.570312 142.519531 182.054688 C 140.566406 180.535156 137.574219 179.667969 133.535156 179.449219 " fill-opacity="1" fill-rule="nonzero"/></g><path fill="#5e17eb" d="M 233.390625 140.988281 L 223.085938 140.988281 L 223.085938 130.664062 L 233.390625 130.664062 L 233.390625 140.988281 " fill-opacity="1" fill-rule="nonzero"/><path fill="#5e17eb" d="M 230.957031 161.632812 L 223.085938 161.632812 L 223.085938 153.746094 L 230.957031 153.746094 L 230.957031 161.632812 " fill-opacity="1" fill-rule="nonzero"/><g clip-path="url(#d8ad05836c)"><path fill="#5e17eb" d="M 200.988281 148.875 L 200.988281 140.988281 L 208.859375 140.988281 L 208.859375 148.875 Z M 221.007812 185.75 C 219.035156 184.234375 217.5625 181.71875 216.597656 178.199219 C 216.066406 176.214844 215.75 172.410156 215.648438 166.796875 L 208.859375 166.796875 L 208.859375 156.472656 L 215.5 156.472656 C 215.335938 152.492188 214.988281 149.390625 214.460938 147.167969 C 213.691406 143.9375 212.230469 141.210938 210.082031 138.988281 C 207.933594 136.769531 205.277344 135.195312 202.117188 134.273438 C 198.957031 133.347656 194.417969 132.890625 188.496094 132.890625 L 185.007812 132.890625 L 185.007812 148.652344 C 189.964844 148.652344 193.15625 148.949219 194.582031 149.542969 C 196.007812 150.136719 196.996094 150.984375 197.546875 152.082031 C 198.09375 153.179688 198.390625 155.378906 198.433594 158.675781 C 198.652344 169.140625 199.003906 175.914062 199.484375 178.992188 C 200.230469 183.476562 201.636719 187.167969 203.699219 190.070312 C 205.191406 192.09375 207.558594 194.160156 210.808594 196.269531 C 208.304688 197.722656 206.253906 199.402344 204.652344 201.316406 C 203.050781 203.230469 201.765625 205.558594 200.800781 208.308594 C 199.835938 211.054688 199.246094 214.714844 199.023438 219.289062 C 198.675781 226.851562 198.488281 231.972656 198.464844 234.65625 C 198.441406 237.335938 198.09375 239.238281 197.414062 240.359375 C 196.730469 241.484375 195.667969 242.339844 194.21875 242.933594 C 192.773438 243.527344 189.699219 243.824219 185.007812 243.824219 L 185.007812 259.652344 L 188.496094 259.652344 C 194.242188 259.652344 198.453125 259.257812 201.132812 258.464844 C 205.125 257.277344 208.152344 255.664062 210.214844 253.617188 C 212.277344 251.574219 213.691406 248.859375 214.460938 245.472656 C 215.226562 242.085938 215.613281 236.128906 215.613281 227.597656 C 215.613281 222.410156 215.785156 218.761719 216.136719 216.648438 C 216.621094 213.835938 217.445312 211.496094 218.605469 209.625 C 219.769531 207.757812 221.160156 206.425781 222.785156 205.636719 C 224.40625 204.84375 226.824219 204.359375 230.027344 204.183594 L 230.027344 188.355469 C 225.988281 188.136719 222.984375 187.265625 221.007812 185.75 " fill-opacity="1" fill-rule="nonzero"/></g><g clip-path="url(#06e70584b4)"><path fill="#5e17eb" d="M 253.476562 120.941406 L 245.605469 120.941406 L 245.605469 113.050781 L 253.476562 113.050781 L 253.476562 120.941406 " fill-opacity="1" fill-rule="nonzero"/></g><path fill="#5e17eb" d="M 214.007812 130.664062 L 199.316406 130.664062 L 199.316406 115.941406 L 214.007812 115.941406 L 214.007812 130.664062 " fill-opacity="1" fill-rule="nonzero"/><g fill="#d9d9d9" fill-opacity="1"><g transform="translate(293.269956, 37.495076)"><g><path d="M 0 0.765625 L 7.859375 0.765625 L 7.859375 2.203125 L 0 2.203125 Z M 0 0.765625 "/></g></g></g><g fill="#d9d9d9" fill-opacity="1"><g transform="translate(293.269956, 49.450524)"><g/></g></g><g fill="#d9d9d9" fill-opacity="1"><g transform="translate(293.269956, 61.113818)"><g><path d="M 0 0.265625 L 7.859375 3.140625 L 7.859375 4.75 L 0 7.625 L 0 6.09375 L 1.8125 5.46875 L 1.8125 2.40625 L 0 1.765625 Z M 2.9375 2.796875 L 2.9375 5.078125 L 6.21875 3.9375 Z M 2.9375 2.796875 "/></g></g></g><g fill="#d9d9d9" fill-opacity="1"><g transform="translate(293.269956, 77.979562)"><g><path d="M 0 0.765625 L 7.859375 0.765625 L 7.859375 2.46875 L 2.875 4.984375 L 7.859375 7.453125 L 7.859375 9.15625 L 0 9.15625 L 0 7.71875 L 5.421875 7.71875 L 1.125 5.53125 L 1.125 4.390625 L 5.421875 2.203125 L 0 2.203125 Z M 0 0.765625 "/></g></g></g><g fill="#d9d9d9" fill-opacity="1"><g transform="translate(293.269956, 96.890315)"><g/></g></g><g fill="#d9d9d9" fill-opacity="1"><g transform="translate(293.269956, 108.553607)"><g><path d="M 0 0.765625 L 7.859375 0.765625 L 7.859375 2.46875 L 2.875 4.984375 L 7.859375 7.453125 L 7.859375 9.15625 L 0 9.15625 L 0 7.71875 L 5.421875 7.71875 L 1.125 5.53125 L 1.125 4.390625 L 5.421875 2.203125 L 0 2.203125 Z M 0 0.765625 "/></g></g></g><g fill="#d9d9d9" fill-opacity="1"><g transform="translate(293.269956, 127.464359)"><g><path d="M -0.140625 4.453125 C -0.140625 3.660156 0.03125 2.96875 0.375 2.375 C 0.726562 1.789062 1.207031 1.332031 1.8125 1 C 2.425781 0.664062 3.132812 0.5 3.9375 0.5 C 4.738281 0.5 5.441406 0.664062 6.046875 1 C 6.660156 1.332031 7.140625 1.789062 7.484375 2.375 C 7.828125 2.96875 8 3.660156 8 4.453125 C 8 5.222656 7.828125 5.90625 7.484375 6.5 C 7.140625 7.09375 6.660156 7.550781 6.046875 7.875 C 5.441406 8.207031 4.738281 8.375 3.9375 8.375 C 3.132812 8.375 2.425781 8.207031 1.8125 7.875 C 1.207031 7.550781 0.726562 7.09375 0.375 6.5 C 0.03125 5.90625 -0.140625 5.222656 -0.140625 4.453125 Z M 1.15625 4.453125 C 1.15625 5.203125 1.398438 5.796875 1.890625 6.234375 C 2.390625 6.679688 3.070312 6.90625 3.9375 6.90625 C 4.789062 6.90625 5.460938 6.679688 5.953125 6.234375 C 6.453125 5.796875 6.703125 5.203125 6.703125 4.453125 C 6.703125 3.703125 6.453125 3.101562 5.953125 2.65625 C 5.460938 2.207031 4.789062 1.984375 3.9375 1.984375 C 3.070312 1.984375 2.390625 2.207031 1.890625 2.65625 C 1.398438 3.101562 1.15625 3.703125 1.15625 4.453125 Z M 1.15625 4.453125 "/></g></g></g><g fill="#d9d9d9" fill-opacity="1"><g transform="translate(293.269956, 145.341368)"><g><path d="M 0 0.765625 L 7.859375 0.765625 L 7.859375 3.921875 C 7.859375 4.734375 7.671875 5.351562 7.296875 5.78125 C 6.921875 6.21875 6.4375 6.4375 5.84375 6.4375 C 5.34375 6.4375 4.945312 6.300781 4.65625 6.03125 C 4.363281 5.769531 4.164062 5.445312 4.0625 5.0625 C 3.96875 5.507812 3.742188 5.878906 3.390625 6.171875 C 3.035156 6.460938 2.617188 6.609375 2.140625 6.609375 C 1.523438 6.609375 1.015625 6.382812 0.609375 5.9375 C 0.203125 5.488281 0 4.851562 0 4.03125 Z M 4.5625 2.203125 L 4.5625 3.703125 C 4.5625 4.109375 4.65625 4.421875 4.84375 4.640625 C 5.03125 4.859375 5.296875 4.96875 5.640625 4.96875 C 5.972656 4.96875 6.234375 4.859375 6.421875 4.640625 C 6.609375 4.429688 6.703125 4.113281 6.703125 3.6875 L 6.703125 2.203125 Z M 1.171875 2.203125 L 1.171875 3.8125 C 1.171875 4.238281 1.269531 4.566406 1.46875 4.796875 C 1.664062 5.035156 1.941406 5.15625 2.296875 5.15625 C 2.671875 5.15625 2.960938 5.03125 3.171875 4.78125 C 3.378906 4.539062 3.484375 4.207031 3.484375 3.78125 L 3.484375 2.203125 Z M 1.171875 2.203125 "/></g></g></g><g fill="#d9d9d9" fill-opacity="1"><g transform="translate(293.269956, 161.420564)"><g><path d="M 0 0.765625 L 7.859375 0.765625 L 7.859375 2.203125 L 0 2.203125 Z M 0 0.765625 "/></g></g></g><g fill="#d9d9d9" fill-opacity="1"><g transform="translate(293.269956, 173.376018)"><g><path d="M 0 0.765625 L 7.859375 0.765625 L 7.859375 2.203125 L 1.125 2.203125 L 1.125 5.6875 L 0 5.6875 Z M 0 0.765625 "/></g></g></g><g fill="#d9d9d9" fill-opacity="1"><g transform="translate(293.269956, 188.556304)"><g><path d="M 0 0.765625 L 7.859375 0.765625 L 7.859375 5.890625 L 6.703125 5.890625 L 6.703125 2.203125 L 4.546875 2.203125 L 4.546875 5.5625 L 3.421875 5.5625 L 3.421875 2.203125 L 1.15625 2.203125 L 1.15625 5.890625 L 0 5.890625 Z M 0 0.765625 "/></g></g></g><g fill="#d9d9d9" fill-opacity="1"><g transform="translate(293.269956, 204.039974)"><g/></g></g><g fill="#d9d9d9" fill-opacity="1"><g transform="translate(293.269956, 215.703274)"><g><path d="M 0 0.765625 L 7.859375 0.765625 L 7.859375 5.84375 L 6.703125 5.84375 L 6.703125 2.203125 L 4.5 2.203125 L 4.5 5.140625 L 3.375 5.140625 L 3.375 2.203125 L 0 2.203125 Z M 0 0.765625 "/></g></g></g><g fill="#d9d9d9" fill-opacity="1"><g transform="translate(293.269956, 230.883559)"><g><path d="M 0 0.765625 L 7.859375 0.765625 L 7.859375 3.65625 C 7.859375 4.28125 7.75 4.796875 7.53125 5.203125 C 7.320312 5.609375 7.035156 5.910156 6.671875 6.109375 C 6.316406 6.316406 5.914062 6.421875 5.46875 6.421875 C 4.988281 6.421875 4.550781 6.296875 4.15625 6.046875 C 3.757812 5.796875 3.472656 5.40625 3.296875 4.875 L 0 6.5 L 0 4.859375 L 3.09375 3.390625 L 3.09375 2.203125 L 0 2.203125 Z M 4.15625 2.203125 L 4.15625 3.5625 C 4.15625 4.039062 4.269531 4.390625 4.5 4.609375 C 4.738281 4.835938 5.046875 4.953125 5.421875 4.953125 C 5.796875 4.953125 6.09375 4.84375 6.3125 4.625 C 6.539062 4.40625 6.65625 4.046875 6.65625 3.546875 L 6.65625 2.203125 Z M 4.15625 2.203125 "/></g></g></g><g fill="#d9d9d9" fill-opacity="1"><g transform="translate(293.269956, 246.872872)"><g><path d="M 0 0.765625 L 7.859375 0.765625 L 7.859375 2.203125 L 0 2.203125 Z M 0 0.765625 "/></g></g></g><g fill="#d9d9d9" fill-opacity="1"><g transform="translate(293.269956, 258.828326)"><g><path d="M 0 0.765625 L 7.859375 0.765625 L 7.859375 5.890625 L 6.703125 5.890625 L 6.703125 2.203125 L 4.546875 2.203125 L 4.546875 5.5625 L 3.421875 5.5625 L 3.421875 2.203125 L 1.15625 2.203125 L 1.15625 5.890625 L 0 5.890625 Z M 0 0.765625 "/></g></g></g><g fill="#d9d9d9" fill-opacity="1"><g transform="translate(293.269956, 274.311996)"><g><path d="M 0 0.765625 L 7.859375 0.765625 L 7.859375 2.203125 L 2.328125 5.890625 L 7.859375 5.890625 L 7.859375 7.34375 L 0 7.34375 L 0 5.890625 L 5.53125 2.203125 L 0 2.203125 Z M 0 0.765625 "/></g></g></g><g fill="#d9d9d9" fill-opacity="1"><g transform="translate(293.269956, 291.402461)"><g><path d="M 0 0.765625 L 7.859375 0.765625 L 7.859375 3.453125 C 7.859375 4.367188 7.695312 5.125 7.375 5.71875 C 7.050781 6.3125 6.59375 6.753906 6 7.046875 C 5.414062 7.335938 4.726562 7.484375 3.9375 7.484375 C 3.132812 7.484375 2.441406 7.335938 1.859375 7.046875 C 1.273438 6.753906 0.816406 6.3125 0.484375 5.71875 C 0.160156 5.125 0 4.367188 0 3.453125 Z M 1.234375 2.203125 L 1.234375 3.375 C 1.234375 4.039062 1.335938 4.5625 1.546875 4.9375 C 1.765625 5.320312 2.070312 5.597656 2.46875 5.765625 C 2.875 5.929688 3.363281 6.015625 3.9375 6.015625 C 4.5 6.015625 4.976562 5.929688 5.375 5.765625 C 5.78125 5.597656 6.09375 5.320312 6.3125 4.9375 C 6.53125 4.5625 6.640625 4.039062 6.640625 3.375 L 6.640625 2.203125 Z M 1.234375 2.203125 "/></g></g></g><g fill="#d9d9d9" fill-opacity="1"><g transform="translate(293.269956, 308.380553)"><g><path d="M 0 0.765625 L 7.859375 0.765625 L 7.859375 2.203125 L 1.125 2.203125 L 1.125 5.6875 L 0 5.6875 Z M 0 0.765625 "/></g></g></g><g fill="#d9d9d9" fill-opacity="1"><g transform="translate(293.269956, 323.560824)"><g><path d="M 0 2.796875 L 2.796875 2.796875 L 7.859375 0.15625 L 7.859375 1.78125 L 4.234375 3.53125 L 7.859375 5.25 L 7.859375 6.859375 L 2.796875 4.234375 L 0 4.234375 Z M 0 2.796875 "/></g></g></g></svg>